G04 #@! TF.GenerationSoftware,KiCad,Pcbnew,7.0.7*
G04 #@! TF.CreationDate,2023-10-10T05:26:18-05:00*
G04 #@! TF.ProjectId,psio-qsb,7073696f-2d71-4736-922e-6b696361645f,rev?*
G04 #@! TF.SameCoordinates,Original*
G04 #@! TF.FileFunction,Copper,L1,Top*
G04 #@! TF.FilePolarity,Positive*
%FSLAX46Y46*%
G04 Gerber Fmt 4.6, Leading zero omitted, Abs format (unit mm)*
G04 Created by KiCad (PCBNEW 7.0.7) date 2023-10-10 05:26:18*
%MOMM*%
%LPD*%
G01*
G04 APERTURE LIST*
G04 #@! TA.AperFunction,SMDPad,CuDef*
%ADD10R,0.300000X1.200000*%
G04 #@! TD*
G04 #@! TA.AperFunction,SMDPad,CuDef*
%ADD11R,2.400000X2.400000*%
G04 #@! TD*
G04 #@! TA.AperFunction,ComponentPad*
%ADD12C,1.640000*%
G04 #@! TD*
G04 #@! TA.AperFunction,ViaPad*
%ADD13C,0.600000*%
G04 #@! TD*
G04 #@! TA.AperFunction,ViaPad*
%ADD14C,0.500000*%
G04 #@! TD*
G04 #@! TA.AperFunction,ViaPad*
%ADD15C,0.800000*%
G04 #@! TD*
G04 #@! TA.AperFunction,Conductor*
%ADD16C,0.127000*%
G04 #@! TD*
G04 APERTURE END LIST*
D10*
X139700000Y-127200000D03*
X140200000Y-127200000D03*
X140700000Y-127200000D03*
X141200000Y-127200000D03*
X141700000Y-127200000D03*
X142200000Y-127200000D03*
X142700000Y-127200000D03*
X143200000Y-127200000D03*
X143700000Y-127200000D03*
X144200000Y-127200000D03*
X144700000Y-127200000D03*
X145200000Y-127200000D03*
X145700000Y-127200000D03*
X146200000Y-127200000D03*
X146700000Y-127200000D03*
X147200000Y-127200000D03*
X147700000Y-127200000D03*
X148200000Y-127200000D03*
X148700000Y-127200000D03*
X149200000Y-127200000D03*
X149700000Y-127200000D03*
X150200000Y-127200000D03*
X150700000Y-127200000D03*
X151200000Y-127200000D03*
X151700000Y-127200000D03*
X152200000Y-127200000D03*
X152700000Y-127200000D03*
X153200000Y-127200000D03*
X153700000Y-127200000D03*
X154200000Y-127200000D03*
X154700000Y-127200000D03*
X155200000Y-127200000D03*
X155700000Y-127200000D03*
X156200000Y-127200000D03*
X156700000Y-127200000D03*
X157200000Y-127200000D03*
X157700000Y-127200000D03*
X158200000Y-127200000D03*
X158700000Y-127200000D03*
X159200000Y-127200000D03*
D11*
X137600000Y-129900000D03*
X161300000Y-129900000D03*
D12*
X128500000Y-120360000D03*
X129770000Y-118450000D03*
X132310000Y-118450000D03*
X133580000Y-120360000D03*
X134850000Y-118450000D03*
X136120000Y-120360000D03*
X137390000Y-118450000D03*
X138660000Y-120360000D03*
X145010000Y-118450000D03*
X146280000Y-120360000D03*
X147550000Y-118450000D03*
X150090000Y-118450000D03*
X151360000Y-120360000D03*
X152630000Y-118450000D03*
X153900000Y-120360000D03*
X155170000Y-118450000D03*
X156440000Y-120360000D03*
X157710000Y-118450000D03*
X158980000Y-120360000D03*
X160250000Y-118450000D03*
X165330000Y-118450000D03*
X166600000Y-120360000D03*
X167870000Y-118450000D03*
X169140000Y-120360000D03*
X170410000Y-118450000D03*
X128500000Y-124180000D03*
X131040000Y-124180000D03*
X133580000Y-124180000D03*
X134850000Y-122270000D03*
X136120000Y-124180000D03*
X137390000Y-122270000D03*
X138660000Y-124180000D03*
X145010000Y-122270000D03*
X146280000Y-124180000D03*
X147550000Y-122270000D03*
X150090000Y-122270000D03*
X151360000Y-124180000D03*
X152630000Y-122270000D03*
X153900000Y-124180000D03*
X155170000Y-122270000D03*
X156440000Y-124180000D03*
X157710000Y-122270000D03*
X158980000Y-124180000D03*
X165330000Y-122270000D03*
X166600000Y-124180000D03*
X167870000Y-122270000D03*
X169140000Y-124180000D03*
X170410000Y-122270000D03*
D13*
X167470000Y-127250000D03*
X124290000Y-117090000D03*
X142070000Y-122170000D03*
X175090000Y-122170000D03*
X131910000Y-129790000D03*
X147150000Y-117090000D03*
X175090000Y-124710000D03*
X167470000Y-129790000D03*
X164930000Y-117090000D03*
X124290000Y-119630000D03*
X170010000Y-117090000D03*
X124290000Y-127250000D03*
X175090000Y-117090000D03*
X157310000Y-117090000D03*
X139530000Y-117090000D03*
X170010000Y-127250000D03*
X159850000Y-117090000D03*
X167470000Y-117090000D03*
X126830000Y-117090000D03*
X136990000Y-117090000D03*
X126830000Y-127250000D03*
X131910000Y-117090000D03*
X126830000Y-129790000D03*
X154770000Y-117090000D03*
X172550000Y-129790000D03*
X157310000Y-129790000D03*
X124290000Y-122170000D03*
X134450000Y-117090000D03*
X129370000Y-127250000D03*
X172550000Y-119630000D03*
X162390000Y-124710000D03*
X126830000Y-122170000D03*
X129370000Y-117090000D03*
X162390000Y-117090000D03*
X126830000Y-124710000D03*
X175090000Y-127250000D03*
X172550000Y-127250000D03*
X142070000Y-117090000D03*
X142070000Y-129790000D03*
X164930000Y-129790000D03*
X144610000Y-117090000D03*
X144610000Y-129790000D03*
X152230000Y-129790000D03*
X172550000Y-124710000D03*
X172550000Y-122170000D03*
X134450000Y-129790000D03*
X154770000Y-129790000D03*
X129370000Y-129790000D03*
X126830000Y-119630000D03*
X147150000Y-129790000D03*
X172550000Y-117090000D03*
X124290000Y-124710000D03*
X170010000Y-129790000D03*
X139530000Y-129790000D03*
X162390000Y-119630000D03*
X136990000Y-127250000D03*
X175090000Y-119630000D03*
X142070000Y-119630000D03*
D14*
X140700000Y-128275000D03*
X141200000Y-128700000D03*
X142200000Y-128700000D03*
X143200000Y-128700000D03*
X144200000Y-128700000D03*
D15*
X150100000Y-128975000D03*
D14*
X147200000Y-128700000D03*
X149200000Y-128700000D03*
X151325000Y-128800000D03*
X153200000Y-128700000D03*
X154200000Y-128700000D03*
X155700000Y-128275000D03*
X157200000Y-128700000D03*
X158700000Y-128275000D03*
X140200000Y-128700000D03*
X141700000Y-128275000D03*
X145700000Y-128275000D03*
X146700000Y-128275000D03*
X151700000Y-128275000D03*
X152700000Y-128275000D03*
X153700000Y-128275000D03*
X155200000Y-128700000D03*
X158193982Y-129450000D03*
D16*
X140700000Y-128275000D02*
X140700000Y-127200000D01*
X141200000Y-128700000D02*
X141200000Y-127200000D01*
X142200000Y-128700000D02*
X142200000Y-127200000D01*
X143200000Y-128700000D02*
X143200000Y-127200000D01*
X144200000Y-128700000D02*
X144200000Y-127200000D01*
X143925000Y-119535000D02*
X145010000Y-118450000D01*
X145200000Y-124470300D02*
X143925000Y-123195300D01*
X143925000Y-123195300D02*
X143925000Y-119535000D01*
X145200000Y-127200000D02*
X145200000Y-124470300D01*
X146200000Y-127200000D02*
X146200000Y-126073300D01*
X147375000Y-124898300D02*
X147375000Y-123800000D01*
X146200000Y-126073300D02*
X147375000Y-124898300D01*
X146280000Y-122705000D02*
X146280000Y-120360000D01*
X147375000Y-123800000D02*
X146280000Y-122705000D01*
X147200000Y-128700000D02*
X147200000Y-127200000D01*
X153900000Y-122575000D02*
X153900000Y-120360000D01*
X148200000Y-127200000D02*
X148200000Y-126407600D01*
X152710000Y-123765000D02*
X153900000Y-122575000D01*
X151912000Y-125563000D02*
X152710000Y-124765000D01*
X149044600Y-125563000D02*
X151912000Y-125563000D01*
X148200000Y-126407600D02*
X149044600Y-125563000D01*
X152710000Y-124765000D02*
X152710000Y-123765000D01*
X149200000Y-128700000D02*
X149200000Y-127200000D01*
X151250000Y-127250000D02*
X151200000Y-127200000D01*
X151325000Y-128800000D02*
X151250000Y-128725000D01*
X151250000Y-128725000D02*
X151250000Y-127250000D01*
X153975000Y-126325000D02*
X155427600Y-124872400D01*
X155427600Y-124872400D02*
X155427600Y-123622400D01*
X157710000Y-120690000D02*
X157710000Y-118450000D01*
X152382600Y-126325000D02*
X153975000Y-126325000D01*
X156450000Y-121950000D02*
X157710000Y-120690000D01*
X155427600Y-123622400D02*
X156450000Y-122600000D01*
X152200000Y-127200000D02*
X152200000Y-126507600D01*
X152200000Y-126507600D02*
X152382600Y-126325000D01*
X156450000Y-122600000D02*
X156450000Y-121950000D01*
X153200000Y-128700000D02*
X153200000Y-127200000D01*
X154200000Y-128700000D02*
X154200000Y-127200000D01*
X154700000Y-126225000D02*
X154700000Y-127200000D01*
X159100000Y-125600000D02*
X155325000Y-125600000D01*
X155325000Y-125600000D02*
X154700000Y-126225000D01*
X165330000Y-118450000D02*
X165330000Y-119370000D01*
X165330000Y-119370000D02*
X159100000Y-125600000D01*
X155700000Y-128275000D02*
X155700000Y-127200000D01*
X157200000Y-128700000D02*
X157200000Y-127200000D01*
X158700000Y-128275000D02*
X158700000Y-127200000D01*
X140200000Y-128700000D02*
X140200000Y-127200000D01*
X141700000Y-127200000D02*
X141700000Y-128275000D01*
X142400000Y-126200000D02*
X142700000Y-126500000D01*
X136120000Y-124180000D02*
X138140000Y-126200000D01*
X142700000Y-126500000D02*
X142700000Y-127200000D01*
X138140000Y-126200000D02*
X142400000Y-126200000D01*
X143700000Y-126407600D02*
X143700000Y-127200000D01*
X143059700Y-125767300D02*
X143700000Y-126407600D01*
X137390000Y-124740000D02*
X138417300Y-125767300D01*
X137390000Y-122270000D02*
X137390000Y-124740000D01*
X138417300Y-125767300D02*
X143059700Y-125767300D01*
X144700000Y-126407600D02*
X143805700Y-125513300D01*
X144700000Y-127200000D02*
X144700000Y-126407600D01*
X139993300Y-125513300D02*
X138660000Y-124180000D01*
X143805700Y-125513300D02*
X139993300Y-125513300D01*
X145700000Y-128275000D02*
X145700000Y-127200000D01*
X146700000Y-128275000D02*
X146700000Y-127200000D01*
X147700000Y-126150000D02*
X151580000Y-122270000D01*
X151580000Y-122270000D02*
X152630000Y-122270000D01*
X147700000Y-127200000D02*
X147700000Y-126150000D01*
X148700000Y-126407600D02*
X149290600Y-125817000D01*
X149290600Y-125817000D02*
X152708000Y-125817000D01*
X148700000Y-127200000D02*
X148700000Y-126407600D01*
X152708000Y-125817000D02*
X153900000Y-124625000D01*
X153900000Y-124625000D02*
X153900000Y-124180000D01*
X150700000Y-127200000D02*
X150700000Y-126407600D01*
X153604000Y-126071000D02*
X155170000Y-124505000D01*
X150700000Y-126407600D02*
X151036600Y-126071000D01*
X151036600Y-126071000D02*
X153604000Y-126071000D01*
X155170000Y-124505000D02*
X155170000Y-122270000D01*
X151700000Y-128275000D02*
X151700000Y-127200000D01*
X152700000Y-127200000D02*
X152700000Y-128275000D01*
X153700000Y-128275000D02*
X153700000Y-127200000D01*
X155200000Y-128700000D02*
X155200000Y-127200000D01*
X164705000Y-126075000D02*
X156550000Y-126075000D01*
X156550000Y-126075000D02*
X156200000Y-126425000D01*
X156200000Y-126425000D02*
X156200000Y-127200000D01*
X166600000Y-124180000D02*
X164705000Y-126075000D01*
X158193982Y-129450000D02*
X158200000Y-129443982D01*
X158200000Y-129443982D02*
X158200000Y-127200000D01*
X165690200Y-127629800D02*
X169140000Y-124180000D01*
X159200000Y-127629800D02*
X165690200Y-127629800D01*
X159200000Y-127629800D02*
X159200000Y-127200000D01*
X129750000Y-124900000D02*
X133125000Y-128275000D01*
X139532300Y-128275000D02*
X139700000Y-128107300D01*
X139700000Y-127200000D02*
X139700000Y-128107300D01*
X129750000Y-118470000D02*
X129750000Y-124900000D01*
X133125000Y-128275000D02*
X139532300Y-128275000D01*
X129770000Y-118450000D02*
X129750000Y-118470000D01*
G04 #@! TA.AperFunction,Conductor*
G36*
X150293039Y-126619685D02*
G01*
X150338794Y-126672489D01*
X150350000Y-126724000D01*
X150349999Y-128599998D01*
X150350000Y-128599998D01*
X150350000Y-128600000D01*
X150463683Y-128713683D01*
X150497166Y-128775002D01*
X150500000Y-128801361D01*
X150500000Y-129148638D01*
X150480315Y-129215677D01*
X150463681Y-129236319D01*
X150361319Y-129338681D01*
X150299996Y-129372166D01*
X150273638Y-129375000D01*
X149926362Y-129375000D01*
X149859323Y-129355315D01*
X149838681Y-129338681D01*
X149736319Y-129236319D01*
X149702834Y-129174996D01*
X149700000Y-129148638D01*
X149700000Y-127950000D01*
X149586319Y-127836319D01*
X149552834Y-127774996D01*
X149550000Y-127748638D01*
X149550000Y-126724000D01*
X149569685Y-126656961D01*
X149622489Y-126611206D01*
X149674000Y-126600000D01*
X150226000Y-126600000D01*
X150293039Y-126619685D01*
G37*
G04 #@! TD.AperFunction*
G04 #@! TA.AperFunction,Conductor*
G36*
X151653023Y-122672842D02*
G01*
X151708956Y-122714714D01*
X151719043Y-122730563D01*
X151775612Y-122836397D01*
X151777381Y-122839706D01*
X151904905Y-122995094D01*
X152055534Y-123118712D01*
X152060297Y-123122621D01*
X152237582Y-123217381D01*
X152429947Y-123275734D01*
X152429946Y-123275734D01*
X152529496Y-123285539D01*
X152594283Y-123311700D01*
X152634642Y-123368734D01*
X152637759Y-123438535D01*
X152605023Y-123496623D01*
X152550345Y-123551301D01*
X152531560Y-123566719D01*
X152519666Y-123574666D01*
X152496882Y-123608764D01*
X152496880Y-123608768D01*
X152461317Y-123661990D01*
X152440828Y-123765001D01*
X152443617Y-123779021D01*
X152446000Y-123803213D01*
X152446000Y-124604286D01*
X152426315Y-124671325D01*
X152409681Y-124691967D01*
X151887967Y-125213681D01*
X151826644Y-125247166D01*
X151800286Y-125250000D01*
X149272714Y-125250000D01*
X149205675Y-125230315D01*
X149159920Y-125177511D01*
X149149976Y-125108353D01*
X149179001Y-125044797D01*
X149185033Y-125038319D01*
X150294627Y-123928725D01*
X151522010Y-122701341D01*
X151583331Y-122667858D01*
X151653023Y-122672842D01*
G37*
G04 #@! TD.AperFunction*
G04 #@! TA.AperFunction,Conductor*
G36*
X176993039Y-114669685D02*
G01*
X177038794Y-114722489D01*
X177050000Y-114774000D01*
X177050000Y-128926000D01*
X177030315Y-128993039D01*
X176977511Y-129038794D01*
X176926000Y-129050000D01*
X173250000Y-129050000D01*
X173250000Y-132426000D01*
X173230315Y-132493039D01*
X173177511Y-132538794D01*
X173126000Y-132550000D01*
X125774000Y-132550000D01*
X125706961Y-132530315D01*
X125661206Y-132477511D01*
X125650000Y-132426000D01*
X125650000Y-129100000D01*
X121974000Y-129100000D01*
X121906961Y-129080315D01*
X121861206Y-129027511D01*
X121850000Y-128976000D01*
X121850000Y-118449999D01*
X128744562Y-118449999D01*
X128764265Y-118650051D01*
X128764266Y-118650053D01*
X128822619Y-118842418D01*
X128917379Y-119019703D01*
X128917381Y-119019706D01*
X129044905Y-119175094D01*
X129195534Y-119298712D01*
X129200297Y-119302621D01*
X129377582Y-119397381D01*
X129397996Y-119403573D01*
X129456433Y-119441868D01*
X129484890Y-119505680D01*
X129486000Y-119522233D01*
X129485999Y-124861783D01*
X129483618Y-124885966D01*
X129480828Y-124899996D01*
X129480828Y-124900000D01*
X129486000Y-124926002D01*
X129501317Y-125003009D01*
X129559666Y-125090332D01*
X129559667Y-125090333D01*
X129571555Y-125098276D01*
X129590345Y-125113697D01*
X132911304Y-128434657D01*
X132926721Y-128453441D01*
X132934667Y-128465333D01*
X132954375Y-128478501D01*
X132954388Y-128478511D01*
X132956708Y-128480061D01*
X132956710Y-128480063D01*
X133021992Y-128523683D01*
X133125000Y-128544172D01*
X133139022Y-128541382D01*
X133163213Y-128539000D01*
X139494087Y-128539000D01*
X139518277Y-128541382D01*
X139523388Y-128542399D01*
X139532299Y-128544172D01*
X139532300Y-128544172D01*
X139532302Y-128544172D01*
X139583866Y-128533914D01*
X139602322Y-128530244D01*
X139671913Y-128536471D01*
X139727091Y-128579334D01*
X139750335Y-128645224D01*
X139749251Y-128669508D01*
X139744867Y-128699999D01*
X139763302Y-128828225D01*
X139808972Y-128928226D01*
X139817118Y-128946063D01*
X139901951Y-129043967D01*
X140010931Y-129114004D01*
X140134830Y-129150383D01*
X140135225Y-129150499D01*
X140135227Y-129150500D01*
X140135228Y-129150500D01*
X140264773Y-129150500D01*
X140264773Y-129150499D01*
X140389069Y-129114004D01*
X140498049Y-129043967D01*
X140582882Y-128946063D01*
X140587205Y-128936595D01*
X140632961Y-128883791D01*
X140700000Y-128864107D01*
X140767040Y-128883792D01*
X140812794Y-128936595D01*
X140817118Y-128946063D01*
X140901951Y-129043967D01*
X141010931Y-129114004D01*
X141134830Y-129150383D01*
X141135225Y-129150499D01*
X141135227Y-129150500D01*
X141135228Y-129150500D01*
X141264773Y-129150500D01*
X141264773Y-129150499D01*
X141389069Y-129114004D01*
X141498049Y-129043967D01*
X141582882Y-128946063D01*
X141587205Y-128936595D01*
X141632961Y-128883791D01*
X141700000Y-128864107D01*
X141767040Y-128883792D01*
X141812794Y-128936595D01*
X141817118Y-128946063D01*
X141901951Y-129043967D01*
X142010931Y-129114004D01*
X142134830Y-129150383D01*
X142135225Y-129150499D01*
X142135227Y-129150500D01*
X142135228Y-129150500D01*
X142264773Y-129150500D01*
X142264773Y-129150499D01*
X142389069Y-129114004D01*
X142498049Y-129043967D01*
X142582882Y-128946063D01*
X142587205Y-128936595D01*
X142632961Y-128883791D01*
X142700000Y-128864107D01*
X142767040Y-128883792D01*
X142812794Y-128936595D01*
X142817118Y-128946063D01*
X142901951Y-129043967D01*
X143010931Y-129114004D01*
X143134830Y-129150383D01*
X143135225Y-129150499D01*
X143135227Y-129150500D01*
X143135228Y-129150500D01*
X143264773Y-129150500D01*
X143264773Y-129150499D01*
X143389069Y-129114004D01*
X143498049Y-129043967D01*
X143582882Y-128946063D01*
X143587205Y-128936595D01*
X143632961Y-128883791D01*
X143700000Y-128864107D01*
X143767040Y-128883792D01*
X143812794Y-128936595D01*
X143817118Y-128946063D01*
X143901951Y-129043967D01*
X144010931Y-129114004D01*
X144134830Y-129150383D01*
X144135225Y-129150499D01*
X144135227Y-129150500D01*
X144135228Y-129150500D01*
X144264773Y-129150500D01*
X144264773Y-129150499D01*
X144389069Y-129114004D01*
X144498049Y-129043967D01*
X144582882Y-128946063D01*
X144636697Y-128828226D01*
X144655133Y-128700000D01*
X144636697Y-128571774D01*
X144582882Y-128453937D01*
X144498049Y-128356033D01*
X144494286Y-128351690D01*
X144465262Y-128288134D01*
X144464000Y-128270488D01*
X144464000Y-128124500D01*
X144483685Y-128057461D01*
X144536489Y-128011706D01*
X144588000Y-128000500D01*
X144869750Y-128000500D01*
X144925808Y-127989349D01*
X144974192Y-127989349D01*
X145030249Y-128000500D01*
X145030252Y-128000500D01*
X145141230Y-128000500D01*
X145208269Y-128020185D01*
X145254024Y-128072989D01*
X145263968Y-128142147D01*
X145244867Y-128274999D01*
X145263302Y-128403225D01*
X145312794Y-128511595D01*
X145317118Y-128521063D01*
X145401951Y-128618967D01*
X145510931Y-128689004D01*
X145635225Y-128725499D01*
X145635227Y-128725500D01*
X145635228Y-128725500D01*
X145764773Y-128725500D01*
X145764773Y-128725499D01*
X145889069Y-128689004D01*
X145998049Y-128618967D01*
X146082882Y-128521063D01*
X146087205Y-128511595D01*
X146132961Y-128458791D01*
X146200000Y-128439107D01*
X146267040Y-128458792D01*
X146312794Y-128511595D01*
X146317118Y-128521063D01*
X146401951Y-128618967D01*
X146510931Y-128689004D01*
X146635225Y-128725499D01*
X146635227Y-128725500D01*
X146635228Y-128725500D01*
X146641086Y-128725500D01*
X146708125Y-128745185D01*
X146753880Y-128797989D01*
X146760302Y-128819858D01*
X146760803Y-128819712D01*
X146763303Y-128828227D01*
X146808972Y-128928226D01*
X146817118Y-128946063D01*
X146901951Y-129043967D01*
X147010931Y-129114004D01*
X147134830Y-129150383D01*
X147135225Y-129150499D01*
X147135227Y-129150500D01*
X147135228Y-129150500D01*
X147264773Y-129150500D01*
X147264773Y-129150499D01*
X147389069Y-129114004D01*
X147498049Y-129043967D01*
X147582882Y-128946063D01*
X147636697Y-128828226D01*
X147655133Y-128700000D01*
X147636697Y-128571774D01*
X147582882Y-128453937D01*
X147498049Y-128356033D01*
X147494286Y-128351690D01*
X147465262Y-128288134D01*
X147464000Y-128270488D01*
X147464000Y-128124500D01*
X147483685Y-128057461D01*
X147536489Y-128011706D01*
X147588000Y-128000500D01*
X147869750Y-128000500D01*
X147925808Y-127989349D01*
X147974192Y-127989349D01*
X148030249Y-128000500D01*
X148030252Y-128000500D01*
X148369750Y-128000500D01*
X148425808Y-127989349D01*
X148474192Y-127989349D01*
X148530249Y-128000500D01*
X148812000Y-128000500D01*
X148879039Y-128020185D01*
X148924794Y-128072989D01*
X148936000Y-128124500D01*
X148936000Y-128270488D01*
X148916315Y-128337527D01*
X148905714Y-128351690D01*
X148817118Y-128453937D01*
X148817117Y-128453938D01*
X148763302Y-128571774D01*
X148744867Y-128700000D01*
X148763302Y-128828225D01*
X148808972Y-128928226D01*
X148817118Y-128946063D01*
X148901951Y-129043967D01*
X149010931Y-129114004D01*
X149134830Y-129150383D01*
X149135225Y-129150499D01*
X149135227Y-129150500D01*
X149135228Y-129150500D01*
X149264772Y-129150500D01*
X149348636Y-129125876D01*
X149418505Y-129125876D01*
X149477283Y-129163650D01*
X149501904Y-129207799D01*
X149522470Y-129273478D01*
X149522471Y-129273483D01*
X149536872Y-129299855D01*
X149555956Y-129334805D01*
X149555958Y-129334808D01*
X149555960Y-129334811D01*
X149590998Y-129381615D01*
X149591002Y-129381619D01*
X149591009Y-129381629D01*
X149591016Y-129381636D01*
X149697266Y-129487886D01*
X149697269Y-129487888D01*
X149705448Y-129495237D01*
X149705446Y-129495236D01*
X149730376Y-129515325D01*
X149801424Y-129552490D01*
X149868456Y-129572173D01*
X149868458Y-129572173D01*
X149868464Y-129572175D01*
X149926362Y-129580500D01*
X150094549Y-129580500D01*
X150097326Y-129580682D01*
X150100000Y-129580682D01*
X150102674Y-129580682D01*
X150105451Y-129580500D01*
X150279138Y-129580500D01*
X150279142Y-129580500D01*
X150290134Y-129579911D01*
X150290142Y-129579910D01*
X150290144Y-129579910D01*
X150290145Y-129579910D01*
X150299637Y-129578889D01*
X150321965Y-129576488D01*
X150398482Y-129552529D01*
X150459805Y-129519044D01*
X150506629Y-129483991D01*
X150612883Y-129377737D01*
X150620235Y-129369554D01*
X150620237Y-129369552D01*
X150620236Y-129369554D01*
X150640325Y-129344623D01*
X150652278Y-129321774D01*
X150677490Y-129273575D01*
X150697175Y-129206536D01*
X150705500Y-129148638D01*
X150705500Y-129097959D01*
X150725185Y-129030921D01*
X150777989Y-128985166D01*
X150847147Y-128975222D01*
X150910703Y-129004247D01*
X150936713Y-129038995D01*
X150937324Y-129038603D01*
X150942116Y-129046059D01*
X150942118Y-129046063D01*
X151026951Y-129143967D01*
X151135931Y-129214004D01*
X151260225Y-129250499D01*
X151260227Y-129250500D01*
X151260228Y-129250500D01*
X151389773Y-129250500D01*
X151389773Y-129250499D01*
X151514069Y-129214004D01*
X151623049Y-129143967D01*
X151707882Y-129046063D01*
X151761697Y-128928226D01*
X151780133Y-128800000D01*
X151780132Y-128799998D01*
X151780652Y-128796387D01*
X151809677Y-128732831D01*
X151868451Y-128695057D01*
X151889069Y-128689004D01*
X151998049Y-128618967D01*
X152082882Y-128521063D01*
X152087205Y-128511595D01*
X152132961Y-128458791D01*
X152200000Y-128439107D01*
X152267040Y-128458792D01*
X152312794Y-128511595D01*
X152317118Y-128521063D01*
X152401951Y-128618967D01*
X152510931Y-128689004D01*
X152635225Y-128725499D01*
X152635227Y-128725500D01*
X152635228Y-128725500D01*
X152641086Y-128725500D01*
X152708125Y-128745185D01*
X152753880Y-128797989D01*
X152760302Y-128819858D01*
X152760803Y-128819712D01*
X152763303Y-128828227D01*
X152808972Y-128928226D01*
X152817118Y-128946063D01*
X152901951Y-129043967D01*
X153010931Y-129114004D01*
X153134830Y-129150383D01*
X153135225Y-129150499D01*
X153135227Y-129150500D01*
X153135228Y-129150500D01*
X153264773Y-129150500D01*
X153264773Y-129150499D01*
X153389069Y-129114004D01*
X153498049Y-129043967D01*
X153582882Y-128946063D01*
X153587205Y-128936595D01*
X153632961Y-128883791D01*
X153700000Y-128864107D01*
X153767040Y-128883792D01*
X153812794Y-128936595D01*
X153817118Y-128946063D01*
X153901951Y-129043967D01*
X154010931Y-129114004D01*
X154134830Y-129150383D01*
X154135225Y-129150499D01*
X154135227Y-129150500D01*
X154135228Y-129150500D01*
X154264773Y-129150500D01*
X154264773Y-129150499D01*
X154389069Y-129114004D01*
X154498049Y-129043967D01*
X154582882Y-128946063D01*
X154587205Y-128936595D01*
X154632961Y-128883791D01*
X154700000Y-128864107D01*
X154767040Y-128883792D01*
X154812794Y-128936595D01*
X154817118Y-128946063D01*
X154901951Y-129043967D01*
X155010931Y-129114004D01*
X155134830Y-129150383D01*
X155135225Y-129150499D01*
X155135227Y-129150500D01*
X155135228Y-129150500D01*
X155264773Y-129150500D01*
X155264773Y-129150499D01*
X155389069Y-129114004D01*
X155498049Y-129043967D01*
X155582882Y-128946063D01*
X155636697Y-128828226D01*
X155636697Y-128828221D01*
X155639197Y-128819712D01*
X155641421Y-128820365D01*
X155665205Y-128768293D01*
X155723985Y-128730521D01*
X155758914Y-128725500D01*
X155764773Y-128725500D01*
X155764773Y-128725499D01*
X155889069Y-128689004D01*
X155998049Y-128618967D01*
X156082882Y-128521063D01*
X156136697Y-128403226D01*
X156155133Y-128275000D01*
X156136697Y-128146774D01*
X156136032Y-128142147D01*
X156145976Y-128072988D01*
X156191731Y-128020184D01*
X156258770Y-128000500D01*
X156369750Y-128000500D01*
X156369751Y-128000499D01*
X156384568Y-127997552D01*
X156428229Y-127988868D01*
X156428229Y-127988867D01*
X156428231Y-127988867D01*
X156494552Y-127944552D01*
X156538867Y-127878231D01*
X156538867Y-127878229D01*
X156538868Y-127878229D01*
X156550423Y-127820133D01*
X156550500Y-127819748D01*
X156550500Y-126724000D01*
X156570185Y-126656961D01*
X156622989Y-126611206D01*
X156674500Y-126600000D01*
X156725500Y-126600000D01*
X156792539Y-126619685D01*
X156838294Y-126672489D01*
X156849500Y-126724000D01*
X156849500Y-127819752D01*
X156861131Y-127878229D01*
X156861132Y-127878230D01*
X156912233Y-127954707D01*
X156909404Y-127956596D01*
X156933162Y-128000087D01*
X156936000Y-128026466D01*
X156936000Y-128270488D01*
X156916315Y-128337527D01*
X156905714Y-128351690D01*
X156817118Y-128453937D01*
X156817117Y-128453938D01*
X156763302Y-128571774D01*
X156744867Y-128700000D01*
X156763302Y-128828225D01*
X156808972Y-128928226D01*
X156817118Y-128946063D01*
X156901951Y-129043967D01*
X157010931Y-129114004D01*
X157134830Y-129150383D01*
X157135225Y-129150499D01*
X157135227Y-129150500D01*
X157135228Y-129150500D01*
X157264773Y-129150500D01*
X157264773Y-129150499D01*
X157389069Y-129114004D01*
X157498049Y-129043967D01*
X157582882Y-128946063D01*
X157636697Y-128828226D01*
X157655133Y-128700000D01*
X157636697Y-128571774D01*
X157582882Y-128453937D01*
X157498049Y-128356033D01*
X157494286Y-128351690D01*
X157465262Y-128288134D01*
X157464000Y-128270488D01*
X157464000Y-128026466D01*
X157483685Y-127959427D01*
X157489115Y-127952688D01*
X157494550Y-127944552D01*
X157494552Y-127944552D01*
X157538867Y-127878231D01*
X157538867Y-127878229D01*
X157538868Y-127878229D01*
X157550423Y-127820133D01*
X157550500Y-127819748D01*
X157550500Y-126724000D01*
X157570185Y-126656961D01*
X157622989Y-126611206D01*
X157674500Y-126600000D01*
X157725500Y-126600000D01*
X157792539Y-126619685D01*
X157838294Y-126672489D01*
X157849500Y-126724000D01*
X157849500Y-127819752D01*
X157861131Y-127878229D01*
X157861132Y-127878230D01*
X157912233Y-127954707D01*
X157909404Y-127956596D01*
X157933162Y-128000087D01*
X157936000Y-128026466D01*
X157936000Y-129014685D01*
X157916315Y-129081724D01*
X157901352Y-129098993D01*
X157901741Y-129099330D01*
X157811100Y-129203937D01*
X157811099Y-129203938D01*
X157757284Y-129321774D01*
X157738849Y-129450000D01*
X157757284Y-129578225D01*
X157811099Y-129696061D01*
X157811100Y-129696063D01*
X157895933Y-129793967D01*
X158004913Y-129864004D01*
X158129207Y-129900499D01*
X158129209Y-129900500D01*
X158129210Y-129900500D01*
X158258755Y-129900500D01*
X158258755Y-129900499D01*
X158383051Y-129864004D01*
X158492031Y-129793967D01*
X158576864Y-129696063D01*
X158630679Y-129578226D01*
X158649115Y-129450000D01*
X158630679Y-129321774D01*
X158576864Y-129203937D01*
X158576862Y-129203935D01*
X158576861Y-129203932D01*
X158494287Y-129108636D01*
X158465262Y-129045080D01*
X158464000Y-129027434D01*
X158464000Y-128840867D01*
X158483685Y-128773828D01*
X158536489Y-128728073D01*
X158605647Y-128718129D01*
X158622932Y-128721889D01*
X158635228Y-128725500D01*
X158764773Y-128725500D01*
X158764773Y-128725499D01*
X158889069Y-128689004D01*
X158998049Y-128618967D01*
X159082882Y-128521063D01*
X159136697Y-128403226D01*
X159155133Y-128275000D01*
X159136697Y-128146774D01*
X159136032Y-128142147D01*
X159145976Y-128072988D01*
X159191731Y-128020184D01*
X159258770Y-128000500D01*
X159369750Y-128000500D01*
X159369751Y-128000499D01*
X159384568Y-127997552D01*
X159428229Y-127988868D01*
X159428229Y-127988867D01*
X159428231Y-127988867D01*
X159494552Y-127944552D01*
X159494552Y-127944551D01*
X159503188Y-127935917D01*
X159505008Y-127937737D01*
X159545252Y-127904105D01*
X159594743Y-127893800D01*
X165651987Y-127893800D01*
X165676177Y-127896182D01*
X165690200Y-127898972D01*
X165793208Y-127878483D01*
X165858490Y-127834862D01*
X165858490Y-127834861D01*
X165869473Y-127827522D01*
X165880533Y-127820133D01*
X165888475Y-127808245D01*
X165903894Y-127789456D01*
X168564203Y-125129147D01*
X168625524Y-125095664D01*
X168695216Y-125100648D01*
X168710332Y-125107470D01*
X168747582Y-125127381D01*
X168939947Y-125185734D01*
X168939946Y-125185734D01*
X168957883Y-125187500D01*
X169140000Y-125205438D01*
X169340053Y-125185734D01*
X169532418Y-125127381D01*
X169709703Y-125032621D01*
X169865094Y-124905094D01*
X169992621Y-124749703D01*
X170087381Y-124572418D01*
X170145734Y-124380053D01*
X170165438Y-124180000D01*
X170145734Y-123979947D01*
X170087381Y-123787582D01*
X169992621Y-123610297D01*
X169992104Y-123609667D01*
X169865094Y-123454905D01*
X169709706Y-123327381D01*
X169709704Y-123327380D01*
X169709703Y-123327379D01*
X169532418Y-123232619D01*
X169340053Y-123174266D01*
X169340050Y-123174265D01*
X169340053Y-123174265D01*
X169157936Y-123156328D01*
X169140000Y-123154562D01*
X169139999Y-123154562D01*
X168939948Y-123174265D01*
X168816995Y-123211562D01*
X168747582Y-123232619D01*
X168747580Y-123232619D01*
X168747580Y-123232620D01*
X168590590Y-123316532D01*
X168570671Y-123320678D01*
X168564756Y-123331286D01*
X168556527Y-123338679D01*
X168414903Y-123454908D01*
X168287381Y-123610293D01*
X168192619Y-123787582D01*
X168134265Y-123979948D01*
X168114562Y-124179999D01*
X168134265Y-124380051D01*
X168192620Y-124572420D01*
X168212527Y-124609664D01*
X168226768Y-124678067D01*
X168201767Y-124743311D01*
X168190849Y-124755797D01*
X165617167Y-127329481D01*
X165555844Y-127362966D01*
X165529486Y-127365800D01*
X159674500Y-127365800D01*
X159607461Y-127346115D01*
X159561706Y-127293311D01*
X159550500Y-127241800D01*
X159550500Y-126580252D01*
X159550299Y-126578217D01*
X159549999Y-126572123D01*
X159549999Y-126463000D01*
X159569684Y-126395961D01*
X159622488Y-126350206D01*
X159673999Y-126339000D01*
X164666787Y-126339000D01*
X164690977Y-126341382D01*
X164705000Y-126344172D01*
X164808008Y-126323683D01*
X164873290Y-126280062D01*
X164873290Y-126280061D01*
X164884273Y-126272722D01*
X164895333Y-126265333D01*
X164903275Y-126253445D01*
X164918694Y-126234656D01*
X166024205Y-125129146D01*
X166085524Y-125095664D01*
X166155216Y-125100648D01*
X166170323Y-125107465D01*
X166207582Y-125127381D01*
X166399947Y-125185734D01*
X166399946Y-125185734D01*
X166417883Y-125187500D01*
X166600000Y-125205438D01*
X166800053Y-125185734D01*
X166992418Y-125127381D01*
X167169703Y-125032621D01*
X167325094Y-124905094D01*
X167452621Y-124749703D01*
X167547381Y-124572418D01*
X167605734Y-124380053D01*
X167625438Y-124180000D01*
X167605734Y-123979947D01*
X167547381Y-123787582D01*
X167452621Y-123610297D01*
X167452104Y-123609667D01*
X167325094Y-123454905D01*
X167183473Y-123338679D01*
X167172695Y-123322857D01*
X167159387Y-123321306D01*
X167149408Y-123316531D01*
X166992421Y-123232620D01*
X166972803Y-123226669D01*
X166800053Y-123174266D01*
X166800050Y-123174265D01*
X166800053Y-123174265D01*
X166600000Y-123154562D01*
X166399948Y-123174265D01*
X166276995Y-123211562D01*
X166207582Y-123232619D01*
X166207580Y-123232619D01*
X166207580Y-123232620D01*
X166050590Y-123316532D01*
X166030671Y-123320678D01*
X166024756Y-123331286D01*
X166016527Y-123338679D01*
X165874903Y-123454908D01*
X165747381Y-123610293D01*
X165652619Y-123787582D01*
X165594265Y-123979948D01*
X165574562Y-124179999D01*
X165594265Y-124380051D01*
X165652620Y-124572420D01*
X165672526Y-124609661D01*
X165686768Y-124678064D01*
X165661768Y-124743308D01*
X165650849Y-124755796D01*
X164631967Y-125774681D01*
X164570644Y-125808166D01*
X164544286Y-125811000D01*
X159674000Y-125811000D01*
X159606961Y-125791315D01*
X159561206Y-125738511D01*
X159550000Y-125687000D01*
X159550000Y-125574713D01*
X159569685Y-125507674D01*
X159586314Y-125487037D01*
X162803350Y-122270000D01*
X164304562Y-122270000D01*
X164324265Y-122470051D01*
X164346784Y-122544285D01*
X164382619Y-122662418D01*
X164475612Y-122836397D01*
X164477381Y-122839706D01*
X164604905Y-122995094D01*
X164755534Y-123118712D01*
X164760297Y-123122621D01*
X164937582Y-123217381D01*
X165129947Y-123275734D01*
X165129946Y-123275734D01*
X165149649Y-123277674D01*
X165330000Y-123295438D01*
X165530053Y-123275734D01*
X165722418Y-123217381D01*
X165879410Y-123133467D01*
X165899326Y-123129320D01*
X165905243Y-123118712D01*
X165913473Y-123111320D01*
X166055094Y-122995094D01*
X166124879Y-122910061D01*
X166182621Y-122839703D01*
X166277381Y-122662418D01*
X166335734Y-122470053D01*
X166355438Y-122270000D01*
X166355438Y-122269999D01*
X166844562Y-122269999D01*
X166864265Y-122470051D01*
X166886784Y-122544285D01*
X166922619Y-122662418D01*
X167015612Y-122836397D01*
X167017381Y-122839706D01*
X167144905Y-122995094D01*
X167286526Y-123111320D01*
X167297303Y-123127141D01*
X167310612Y-123128693D01*
X167320586Y-123133465D01*
X167477582Y-123217381D01*
X167669947Y-123275734D01*
X167669946Y-123275734D01*
X167689650Y-123277674D01*
X167870000Y-123295438D01*
X168070053Y-123275734D01*
X168262418Y-123217381D01*
X168419410Y-123133467D01*
X168439326Y-123129320D01*
X168445243Y-123118712D01*
X168453473Y-123111320D01*
X168595094Y-122995094D01*
X168664879Y-122910061D01*
X168722621Y-122839703D01*
X168817381Y-122662418D01*
X168875734Y-122470053D01*
X168895438Y-122270000D01*
X168875734Y-122069947D01*
X168817381Y-121877582D01*
X168722621Y-121700297D01*
X168722618Y-121700293D01*
X168595094Y-121544905D01*
X168453473Y-121428679D01*
X168442695Y-121412857D01*
X168429387Y-121411306D01*
X168419408Y-121406531D01*
X168262421Y-121322620D01*
X168252591Y-121319638D01*
X168070053Y-121264266D01*
X168070050Y-121264265D01*
X168070053Y-121264265D01*
X167887936Y-121246328D01*
X167870000Y-121244562D01*
X167869999Y-121244562D01*
X167669948Y-121264265D01*
X167546995Y-121301562D01*
X167477582Y-121322619D01*
X167477580Y-121322619D01*
X167477580Y-121322620D01*
X167320590Y-121406532D01*
X167300671Y-121410678D01*
X167294756Y-121421286D01*
X167286527Y-121428679D01*
X167144903Y-121544908D01*
X167017381Y-121700293D01*
X166922619Y-121877582D01*
X166864265Y-122069948D01*
X166844562Y-122269999D01*
X166355438Y-122269999D01*
X166335734Y-122069947D01*
X166277381Y-121877582D01*
X166182621Y-121700297D01*
X166182618Y-121700293D01*
X166055094Y-121544905D01*
X165913473Y-121428679D01*
X165902695Y-121412857D01*
X165889387Y-121411306D01*
X165879408Y-121406531D01*
X165722421Y-121322620D01*
X165712591Y-121319638D01*
X165530053Y-121264266D01*
X165530050Y-121264265D01*
X165530053Y-121264265D01*
X165330000Y-121244562D01*
X165129948Y-121264265D01*
X164937582Y-121322619D01*
X164760293Y-121417381D01*
X164604905Y-121544905D01*
X164477381Y-121700293D01*
X164382619Y-121877582D01*
X164324265Y-122069948D01*
X164304562Y-122270000D01*
X162803350Y-122270000D01*
X164713351Y-120359999D01*
X165574562Y-120359999D01*
X165594265Y-120560051D01*
X165594266Y-120560053D01*
X165652619Y-120752418D01*
X165747379Y-120929703D01*
X165747381Y-120929706D01*
X165874905Y-121085094D01*
X166016526Y-121201320D01*
X166027303Y-121217141D01*
X166040612Y-121218693D01*
X166050586Y-121223465D01*
X166207582Y-121307381D01*
X166399947Y-121365734D01*
X166399946Y-121365734D01*
X166417883Y-121367500D01*
X166600000Y-121385438D01*
X166800053Y-121365734D01*
X166992418Y-121307381D01*
X167149410Y-121223467D01*
X167169326Y-121219320D01*
X167175243Y-121208712D01*
X167183473Y-121201320D01*
X167325094Y-121085094D01*
X167359699Y-121042928D01*
X167452621Y-120929703D01*
X167547381Y-120752418D01*
X167605734Y-120560053D01*
X167625438Y-120360000D01*
X168114562Y-120360000D01*
X168134265Y-120560051D01*
X168134266Y-120560053D01*
X168192619Y-120752418D01*
X168287379Y-120929703D01*
X168287381Y-120929706D01*
X168414905Y-121085094D01*
X168556526Y-121201320D01*
X168567303Y-121217141D01*
X168580612Y-121218693D01*
X168590586Y-121223465D01*
X168747582Y-121307381D01*
X168939947Y-121365734D01*
X168939946Y-121365734D01*
X168959649Y-121367674D01*
X169140000Y-121385438D01*
X169340053Y-121365734D01*
X169532418Y-121307381D01*
X169709703Y-121212621D01*
X169865094Y-121085094D01*
X169992621Y-120929703D01*
X170087381Y-120752418D01*
X170145734Y-120560053D01*
X170165438Y-120360000D01*
X170145734Y-120159947D01*
X170087381Y-119967582D01*
X169992621Y-119790297D01*
X169992618Y-119790293D01*
X169865094Y-119634905D01*
X169709706Y-119507381D01*
X169709704Y-119507380D01*
X169709703Y-119507379D01*
X169532418Y-119412619D01*
X169340053Y-119354266D01*
X169340050Y-119354265D01*
X169340053Y-119354265D01*
X169157936Y-119336328D01*
X169140000Y-119334562D01*
X169139999Y-119334562D01*
X168939948Y-119354265D01*
X168859174Y-119378768D01*
X168747582Y-119412619D01*
X168747580Y-119412619D01*
X168747580Y-119412620D01*
X168590590Y-119496532D01*
X168570671Y-119500678D01*
X168564756Y-119511286D01*
X168556527Y-119518679D01*
X168414903Y-119634908D01*
X168287381Y-119790293D01*
X168192619Y-119967582D01*
X168134265Y-120159948D01*
X168114562Y-120360000D01*
X167625438Y-120360000D01*
X167605734Y-120159947D01*
X167547381Y-119967582D01*
X167452621Y-119790297D01*
X167452618Y-119790293D01*
X167325094Y-119634905D01*
X167183473Y-119518679D01*
X167172695Y-119502857D01*
X167159387Y-119501306D01*
X167149408Y-119496531D01*
X166992421Y-119412620D01*
X166982591Y-119409638D01*
X166800053Y-119354266D01*
X166800050Y-119354265D01*
X166800053Y-119354265D01*
X166617936Y-119336328D01*
X166600000Y-119334562D01*
X166599999Y-119334562D01*
X166399948Y-119354265D01*
X166319174Y-119378768D01*
X166207582Y-119412619D01*
X166207580Y-119412619D01*
X166207580Y-119412620D01*
X166050590Y-119496532D01*
X166030671Y-119500678D01*
X166024756Y-119511286D01*
X166016527Y-119518679D01*
X165874903Y-119634908D01*
X165747381Y-119790293D01*
X165652619Y-119967582D01*
X165594265Y-120159948D01*
X165574562Y-120359999D01*
X164713351Y-120359999D01*
X165489655Y-119583695D01*
X165508444Y-119568277D01*
X165514758Y-119564057D01*
X165520333Y-119560333D01*
X165543014Y-119526390D01*
X165578683Y-119473008D01*
X165578683Y-119473006D01*
X165580872Y-119469731D01*
X165634484Y-119424926D01*
X165647970Y-119419964D01*
X165722418Y-119397381D01*
X165879410Y-119313467D01*
X165899326Y-119309320D01*
X165905243Y-119298712D01*
X165913473Y-119291320D01*
X166055094Y-119175094D01*
X166055093Y-119175093D01*
X166182621Y-119019703D01*
X166277381Y-118842418D01*
X166335734Y-118650053D01*
X166355438Y-118450000D01*
X166844562Y-118450000D01*
X166864265Y-118650051D01*
X166864266Y-118650053D01*
X166922619Y-118842418D01*
X167017379Y-119019703D01*
X167017381Y-119019706D01*
X167144905Y-119175094D01*
X167286526Y-119291320D01*
X167297303Y-119307141D01*
X167310612Y-119308693D01*
X167320586Y-119313465D01*
X167378960Y-119344667D01*
X167440334Y-119377472D01*
X167477582Y-119397381D01*
X167669947Y-119455734D01*
X167669946Y-119455734D01*
X167689649Y-119457674D01*
X167870000Y-119475438D01*
X168070053Y-119455734D01*
X168262418Y-119397381D01*
X168419410Y-119313467D01*
X168439326Y-119309320D01*
X168445243Y-119298712D01*
X168453473Y-119291320D01*
X168595094Y-119175094D01*
X168595094Y-119175093D01*
X168722621Y-119019703D01*
X168817381Y-118842418D01*
X168875734Y-118650053D01*
X168895438Y-118450000D01*
X168875734Y-118249947D01*
X168817381Y-118057582D01*
X168722621Y-117880297D01*
X168722618Y-117880293D01*
X168595094Y-117724905D01*
X168439706Y-117597381D01*
X168439704Y-117597380D01*
X168439703Y-117597379D01*
X168262418Y-117502619D01*
X168070053Y-117444266D01*
X168070050Y-117444265D01*
X168070053Y-117444265D01*
X167870000Y-117424562D01*
X167669948Y-117444265D01*
X167477582Y-117502619D01*
X167300293Y-117597381D01*
X167144905Y-117724905D01*
X167017381Y-117880293D01*
X166922619Y-118057582D01*
X166864265Y-118249948D01*
X166844562Y-118450000D01*
X166355438Y-118450000D01*
X166335734Y-118249947D01*
X166277381Y-118057582D01*
X166182621Y-117880297D01*
X166182618Y-117880293D01*
X166055094Y-117724905D01*
X165899706Y-117597381D01*
X165899704Y-117597380D01*
X165899703Y-117597379D01*
X165722418Y-117502619D01*
X165530053Y-117444266D01*
X165530050Y-117444265D01*
X165530053Y-117444265D01*
X165330000Y-117424562D01*
X165129948Y-117444265D01*
X164937582Y-117502619D01*
X164760293Y-117597381D01*
X164604905Y-117724905D01*
X164477381Y-117880293D01*
X164382619Y-118057582D01*
X164324265Y-118249948D01*
X164304562Y-118450000D01*
X164324265Y-118650051D01*
X164324266Y-118650053D01*
X164382619Y-118842418D01*
X164477379Y-119019703D01*
X164477381Y-119019706D01*
X164604905Y-119175094D01*
X164713040Y-119263838D01*
X164760297Y-119302621D01*
X164780591Y-119313468D01*
X164784710Y-119315670D01*
X164834554Y-119364633D01*
X164850014Y-119432770D01*
X164826182Y-119498450D01*
X164813937Y-119512709D01*
X160203484Y-124123162D01*
X160142161Y-124156647D01*
X160072469Y-124151663D01*
X160016536Y-124109791D01*
X159992401Y-124047636D01*
X159985734Y-123979947D01*
X159927381Y-123787582D01*
X159832621Y-123610297D01*
X159832104Y-123609667D01*
X159705094Y-123454905D01*
X159549706Y-123327381D01*
X159549704Y-123327380D01*
X159549703Y-123327379D01*
X159372418Y-123232619D01*
X159180053Y-123174266D01*
X159180050Y-123174265D01*
X159180053Y-123174265D01*
X158997936Y-123156328D01*
X158980000Y-123154562D01*
X158979999Y-123154562D01*
X158779948Y-123174265D01*
X158656995Y-123211562D01*
X158587582Y-123232619D01*
X158587580Y-123232619D01*
X158587580Y-123232620D01*
X158430590Y-123316532D01*
X158410671Y-123320678D01*
X158404756Y-123331286D01*
X158396527Y-123338679D01*
X158254903Y-123454908D01*
X158127381Y-123610293D01*
X158032619Y-123787582D01*
X157974265Y-123979948D01*
X157954562Y-124179999D01*
X157974265Y-124380051D01*
X157981172Y-124402820D01*
X158032619Y-124572418D01*
X158127379Y-124749703D01*
X158127381Y-124749706D01*
X158254905Y-124905094D01*
X158407282Y-125030147D01*
X158446616Y-125087893D01*
X158448487Y-125157737D01*
X158412299Y-125217506D01*
X158349543Y-125248221D01*
X158328617Y-125250000D01*
X157091383Y-125250000D01*
X157024344Y-125230315D01*
X156978589Y-125177511D01*
X156968645Y-125108353D01*
X156997670Y-125044797D01*
X157012718Y-125030147D01*
X157165094Y-124905094D01*
X157211961Y-124847987D01*
X157292621Y-124749703D01*
X157387381Y-124572418D01*
X157445734Y-124380053D01*
X157465438Y-124180000D01*
X157445734Y-123979947D01*
X157387381Y-123787582D01*
X157292621Y-123610297D01*
X157292104Y-123609667D01*
X157165094Y-123454905D01*
X157023473Y-123338679D01*
X157012695Y-123322857D01*
X156999387Y-123321306D01*
X156989408Y-123316531D01*
X156832421Y-123232620D01*
X156812803Y-123226669D01*
X156640053Y-123174266D01*
X156640050Y-123174265D01*
X156640053Y-123174265D01*
X156545052Y-123164909D01*
X156480265Y-123138748D01*
X156439906Y-123081714D01*
X156436789Y-123011913D01*
X156469523Y-122953827D01*
X156609655Y-122813695D01*
X156628446Y-122798275D01*
X156640333Y-122790333D01*
X156640335Y-122790329D01*
X156646352Y-122784314D01*
X156707674Y-122750827D01*
X156777366Y-122755809D01*
X156833301Y-122797678D01*
X156843393Y-122813537D01*
X156857379Y-122839703D01*
X156858784Y-122841415D01*
X156984905Y-122995094D01*
X157126526Y-123111320D01*
X157137303Y-123127141D01*
X157150612Y-123128693D01*
X157160586Y-123133465D01*
X157317582Y-123217381D01*
X157509947Y-123275734D01*
X157509946Y-123275734D01*
X157527883Y-123277500D01*
X157710000Y-123295438D01*
X157910053Y-123275734D01*
X158102418Y-123217381D01*
X158259410Y-123133467D01*
X158279326Y-123129320D01*
X158285243Y-123118712D01*
X158293473Y-123111320D01*
X158435094Y-122995094D01*
X158504879Y-122910061D01*
X158562621Y-122839703D01*
X158657381Y-122662418D01*
X158715734Y-122470053D01*
X158735438Y-122270000D01*
X158715734Y-122069947D01*
X158657381Y-121877582D01*
X158562621Y-121700297D01*
X158562618Y-121700293D01*
X158435094Y-121544905D01*
X158293473Y-121428679D01*
X158282695Y-121412857D01*
X158269387Y-121411306D01*
X158259408Y-121406531D01*
X158102421Y-121322620D01*
X157910051Y-121264265D01*
X157805948Y-121254012D01*
X157741161Y-121227851D01*
X157700803Y-121170816D01*
X157697686Y-121101016D01*
X157730420Y-121042930D01*
X157869655Y-120903695D01*
X157888446Y-120888275D01*
X157900333Y-120880333D01*
X157900333Y-120880331D01*
X157900335Y-120880331D01*
X157908968Y-120871699D01*
X157910985Y-120873716D01*
X157950473Y-120840708D01*
X158019797Y-120831992D01*
X158082828Y-120862139D01*
X158109334Y-120895944D01*
X158127379Y-120929703D01*
X158146770Y-120953331D01*
X158254905Y-121085094D01*
X158396526Y-121201320D01*
X158407303Y-121217141D01*
X158420612Y-121218693D01*
X158430586Y-121223465D01*
X158587582Y-121307381D01*
X158779947Y-121365734D01*
X158779946Y-121365734D01*
X158799650Y-121367674D01*
X158980000Y-121385438D01*
X159180053Y-121365734D01*
X159372418Y-121307381D01*
X159549703Y-121212621D01*
X159705094Y-121085094D01*
X159832621Y-120929703D01*
X159927381Y-120752418D01*
X159985734Y-120560053D01*
X160005438Y-120360000D01*
X159985734Y-120159947D01*
X159927381Y-119967582D01*
X159832621Y-119790297D01*
X159832618Y-119790293D01*
X159705094Y-119634905D01*
X159563473Y-119518679D01*
X159552695Y-119502857D01*
X159539387Y-119501306D01*
X159529408Y-119496531D01*
X159372421Y-119412620D01*
X159362591Y-119409638D01*
X159180053Y-119354266D01*
X159180050Y-119354265D01*
X159180053Y-119354265D01*
X158997936Y-119336328D01*
X158980000Y-119334562D01*
X158979999Y-119334562D01*
X158779948Y-119354265D01*
X158699174Y-119378768D01*
X158587582Y-119412619D01*
X158587580Y-119412619D01*
X158587580Y-119412620D01*
X158430590Y-119496532D01*
X158410671Y-119500678D01*
X158404756Y-119511286D01*
X158396527Y-119518679D01*
X158254903Y-119634908D01*
X158193853Y-119709298D01*
X158136107Y-119748632D01*
X158066262Y-119750503D01*
X158006494Y-119714315D01*
X157975778Y-119651559D01*
X157974000Y-119630633D01*
X157974000Y-119528300D01*
X157993685Y-119461261D01*
X158046489Y-119415506D01*
X158061996Y-119409642D01*
X158102418Y-119397381D01*
X158259410Y-119313467D01*
X158279326Y-119309320D01*
X158285243Y-119298712D01*
X158293473Y-119291320D01*
X158435094Y-119175094D01*
X158435094Y-119175093D01*
X158562621Y-119019703D01*
X158657381Y-118842418D01*
X158715734Y-118650053D01*
X158735438Y-118450000D01*
X159224562Y-118450000D01*
X159244265Y-118650051D01*
X159244266Y-118650053D01*
X159302619Y-118842418D01*
X159397379Y-119019703D01*
X159397381Y-119019706D01*
X159524905Y-119175094D01*
X159666526Y-119291320D01*
X159677303Y-119307141D01*
X159690612Y-119308693D01*
X159700586Y-119313465D01*
X159758960Y-119344667D01*
X159820334Y-119377472D01*
X159857582Y-119397381D01*
X160049947Y-119455734D01*
X160049946Y-119455734D01*
X160067883Y-119457500D01*
X160250000Y-119475438D01*
X160450053Y-119455734D01*
X160642418Y-119397381D01*
X160819703Y-119302621D01*
X160975094Y-119175094D01*
X161102621Y-119019703D01*
X161197381Y-118842418D01*
X161255734Y-118650053D01*
X161275438Y-118450000D01*
X161255734Y-118249947D01*
X161197381Y-118057582D01*
X161102621Y-117880297D01*
X161102618Y-117880293D01*
X160975094Y-117724905D01*
X160819706Y-117597381D01*
X160819704Y-117597380D01*
X160819703Y-117597379D01*
X160642418Y-117502619D01*
X160450053Y-117444266D01*
X160450050Y-117444265D01*
X160450053Y-117444265D01*
X160250000Y-117424562D01*
X160049948Y-117444265D01*
X159857582Y-117502619D01*
X159680293Y-117597381D01*
X159524905Y-117724905D01*
X159397381Y-117880293D01*
X159302619Y-118057582D01*
X159244265Y-118249948D01*
X159224562Y-118450000D01*
X158735438Y-118450000D01*
X158715734Y-118249947D01*
X158657381Y-118057582D01*
X158562621Y-117880297D01*
X158562618Y-117880293D01*
X158435094Y-117724905D01*
X158279706Y-117597381D01*
X158279704Y-117597380D01*
X158279703Y-117597379D01*
X158102418Y-117502619D01*
X157910053Y-117444266D01*
X157910050Y-117444265D01*
X157910053Y-117444265D01*
X157710000Y-117424562D01*
X157509948Y-117444265D01*
X157317582Y-117502619D01*
X157140293Y-117597381D01*
X156984905Y-117724905D01*
X156857381Y-117880293D01*
X156762619Y-118057582D01*
X156704265Y-118249948D01*
X156684562Y-118450000D01*
X156704265Y-118650051D01*
X156704266Y-118650053D01*
X156762619Y-118842418D01*
X156857379Y-119019703D01*
X156857381Y-119019706D01*
X156984905Y-119175094D01*
X157126526Y-119291320D01*
X157137303Y-119307141D01*
X157150612Y-119308693D01*
X157160586Y-119313465D01*
X157317582Y-119397381D01*
X157357994Y-119409639D01*
X157416432Y-119447934D01*
X157444890Y-119511746D01*
X157446000Y-119528300D01*
X157446000Y-119630633D01*
X157426315Y-119697672D01*
X157373511Y-119743427D01*
X157304353Y-119753371D01*
X157240797Y-119724346D01*
X157226147Y-119709298D01*
X157165094Y-119634905D01*
X157023473Y-119518679D01*
X157012695Y-119502857D01*
X156999387Y-119501306D01*
X156989408Y-119496531D01*
X156832421Y-119412620D01*
X156822591Y-119409638D01*
X156640053Y-119354266D01*
X156640050Y-119354265D01*
X156640053Y-119354265D01*
X156440000Y-119334562D01*
X156239948Y-119354265D01*
X156159174Y-119378768D01*
X156047582Y-119412619D01*
X156047580Y-119412619D01*
X156047580Y-119412620D01*
X155890590Y-119496532D01*
X155870671Y-119500678D01*
X155864756Y-119511286D01*
X155856527Y-119518679D01*
X155714903Y-119634908D01*
X155587381Y-119790293D01*
X155492619Y-119967582D01*
X155434265Y-120159948D01*
X155414562Y-120360000D01*
X155434265Y-120560051D01*
X155434266Y-120560053D01*
X155492619Y-120752418D01*
X155587379Y-120929703D01*
X155587381Y-120929706D01*
X155714905Y-121085094D01*
X155856526Y-121201320D01*
X155867303Y-121217141D01*
X155880612Y-121218693D01*
X155890586Y-121223465D01*
X156047582Y-121307381D01*
X156239947Y-121365734D01*
X156239946Y-121365734D01*
X156257397Y-121367452D01*
X156362256Y-121377780D01*
X156427042Y-121403941D01*
X156467401Y-121460975D01*
X156470518Y-121530775D01*
X156437782Y-121588864D01*
X156290345Y-121736301D01*
X156271560Y-121751719D01*
X156259665Y-121759667D01*
X156251032Y-121768301D01*
X156249946Y-121767215D01*
X156206918Y-121803171D01*
X156137592Y-121811873D01*
X156074567Y-121781713D01*
X156048077Y-121747923D01*
X156022621Y-121700297D01*
X155960264Y-121624315D01*
X155895094Y-121544905D01*
X155753473Y-121428679D01*
X155742695Y-121412857D01*
X155729387Y-121411306D01*
X155719408Y-121406531D01*
X155562421Y-121322620D01*
X155552591Y-121319638D01*
X155370053Y-121264266D01*
X155370050Y-121264265D01*
X155370053Y-121264265D01*
X155170000Y-121244562D01*
X154969948Y-121264265D01*
X154846995Y-121301562D01*
X154777582Y-121322619D01*
X154777580Y-121322619D01*
X154777580Y-121322620D01*
X154620590Y-121406532D01*
X154600671Y-121410678D01*
X154594756Y-121421286D01*
X154586527Y-121428679D01*
X154444903Y-121544908D01*
X154383853Y-121619298D01*
X154326107Y-121658632D01*
X154256262Y-121660503D01*
X154196494Y-121624315D01*
X154165778Y-121561559D01*
X154164000Y-121540633D01*
X154164000Y-121438300D01*
X154183685Y-121371261D01*
X154236489Y-121325506D01*
X154251996Y-121319642D01*
X154292418Y-121307381D01*
X154449410Y-121223467D01*
X154469326Y-121219320D01*
X154475243Y-121208712D01*
X154483473Y-121201320D01*
X154625094Y-121085094D01*
X154659699Y-121042928D01*
X154752621Y-120929703D01*
X154847381Y-120752418D01*
X154905734Y-120560053D01*
X154925438Y-120360000D01*
X154905734Y-120159947D01*
X154847381Y-119967582D01*
X154752621Y-119790297D01*
X154752618Y-119790293D01*
X154625094Y-119634905D01*
X154483473Y-119518679D01*
X154472695Y-119502857D01*
X154459387Y-119501306D01*
X154449408Y-119496531D01*
X154292421Y-119412620D01*
X154282591Y-119409638D01*
X154100053Y-119354266D01*
X154100050Y-119354265D01*
X154100053Y-119354265D01*
X153900000Y-119334562D01*
X153699948Y-119354265D01*
X153619174Y-119378768D01*
X153507582Y-119412619D01*
X153507580Y-119412619D01*
X153507580Y-119412620D01*
X153350590Y-119496532D01*
X153330671Y-119500678D01*
X153324756Y-119511286D01*
X153316527Y-119518679D01*
X153174903Y-119634908D01*
X153047381Y-119790293D01*
X152952619Y-119967582D01*
X152894265Y-120159948D01*
X152874562Y-120360000D01*
X152894265Y-120560051D01*
X152894266Y-120560053D01*
X152952619Y-120752418D01*
X153047379Y-120929703D01*
X153047381Y-120929706D01*
X153174905Y-121085094D01*
X153316526Y-121201320D01*
X153327303Y-121217141D01*
X153340612Y-121218693D01*
X153350586Y-121223465D01*
X153507582Y-121307381D01*
X153547994Y-121319639D01*
X153606432Y-121357934D01*
X153634890Y-121421746D01*
X153636000Y-121438300D01*
X153636000Y-121540633D01*
X153616315Y-121607672D01*
X153563511Y-121653427D01*
X153494353Y-121663371D01*
X153430797Y-121634346D01*
X153416147Y-121619298D01*
X153355094Y-121544905D01*
X153213473Y-121428679D01*
X153202695Y-121412857D01*
X153189387Y-121411306D01*
X153179408Y-121406531D01*
X153022421Y-121322620D01*
X153012591Y-121319638D01*
X152830053Y-121264266D01*
X152830050Y-121264265D01*
X152830053Y-121264265D01*
X152630000Y-121244562D01*
X152429948Y-121264265D01*
X152237582Y-121322619D01*
X152060293Y-121417381D01*
X151904905Y-121544905D01*
X151777381Y-121700293D01*
X151682618Y-121877584D01*
X151670995Y-121915899D01*
X151632696Y-121974337D01*
X151576526Y-122001518D01*
X151476994Y-122021315D01*
X151476993Y-122021316D01*
X151476991Y-122021317D01*
X151476992Y-122021317D01*
X151411710Y-122064937D01*
X151411706Y-122064940D01*
X151404213Y-122069947D01*
X151389666Y-122079667D01*
X151381721Y-122091557D01*
X151366303Y-122110342D01*
X151309001Y-122167644D01*
X151247678Y-122201129D01*
X151177986Y-122196145D01*
X151122053Y-122154273D01*
X151097917Y-122092114D01*
X151095734Y-122069949D01*
X151095734Y-122069948D01*
X151095734Y-122069947D01*
X151037381Y-121877582D01*
X150942621Y-121700297D01*
X150942618Y-121700293D01*
X150815094Y-121544905D01*
X150659706Y-121417381D01*
X150659704Y-121417380D01*
X150659703Y-121417379D01*
X150482418Y-121322619D01*
X150290053Y-121264266D01*
X150290050Y-121264265D01*
X150290053Y-121264265D01*
X150090000Y-121244562D01*
X149889948Y-121264265D01*
X149697582Y-121322619D01*
X149520293Y-121417381D01*
X149364905Y-121544905D01*
X149237381Y-121700293D01*
X149142619Y-121877582D01*
X149084265Y-122069948D01*
X149064562Y-122269999D01*
X149084265Y-122470051D01*
X149106784Y-122544285D01*
X149142619Y-122662418D01*
X149235612Y-122836397D01*
X149237381Y-122839706D01*
X149364905Y-122995094D01*
X149515534Y-123118712D01*
X149520297Y-123122621D01*
X149697582Y-123217381D01*
X149889947Y-123275734D01*
X149912115Y-123277917D01*
X149976902Y-123304076D01*
X150017262Y-123361109D01*
X150020381Y-123430909D01*
X149987644Y-123489001D01*
X148262967Y-125213681D01*
X148201644Y-125247166D01*
X148175286Y-125250000D01*
X147764000Y-125250000D01*
X147696961Y-125230315D01*
X147651206Y-125177511D01*
X147640000Y-125126000D01*
X147640000Y-124931485D01*
X147642383Y-124907292D01*
X147644172Y-124898300D01*
X147641382Y-124884271D01*
X147639000Y-124860083D01*
X147639000Y-123838213D01*
X147641383Y-123814021D01*
X147644172Y-123800000D01*
X147623683Y-123696992D01*
X147623682Y-123696991D01*
X147623682Y-123696989D01*
X147576681Y-123626650D01*
X147576679Y-123626647D01*
X147565333Y-123609667D01*
X147565331Y-123609666D01*
X147565331Y-123609665D01*
X147553438Y-123601718D01*
X147534652Y-123586300D01*
X146580319Y-122631966D01*
X146546834Y-122570643D01*
X146544000Y-122544285D01*
X146544000Y-121438300D01*
X146563685Y-121371261D01*
X146616489Y-121325506D01*
X146631996Y-121319642D01*
X146672418Y-121307381D01*
X146849703Y-121212621D01*
X147005094Y-121085094D01*
X147132621Y-120929703D01*
X147227381Y-120752418D01*
X147285734Y-120560053D01*
X147305438Y-120360000D01*
X147285734Y-120159947D01*
X147227381Y-119967582D01*
X147132621Y-119790297D01*
X147132618Y-119790293D01*
X147005094Y-119634905D01*
X146849706Y-119507381D01*
X146849704Y-119507380D01*
X146849703Y-119507379D01*
X146672418Y-119412619D01*
X146480053Y-119354266D01*
X146480050Y-119354265D01*
X146480053Y-119354265D01*
X146297936Y-119336328D01*
X146280000Y-119334562D01*
X146279999Y-119334562D01*
X146079948Y-119354265D01*
X145999174Y-119378768D01*
X145887582Y-119412619D01*
X145887580Y-119412619D01*
X145887580Y-119412620D01*
X145730590Y-119496532D01*
X145710671Y-119500678D01*
X145704756Y-119511286D01*
X145696527Y-119518679D01*
X145554903Y-119634908D01*
X145427381Y-119790293D01*
X145332619Y-119967582D01*
X145274265Y-120159948D01*
X145254562Y-120359999D01*
X145274265Y-120560051D01*
X145274266Y-120560053D01*
X145332619Y-120752418D01*
X145427379Y-120929703D01*
X145427381Y-120929706D01*
X145554905Y-121085094D01*
X145696526Y-121201320D01*
X145707303Y-121217141D01*
X145720612Y-121218693D01*
X145730586Y-121223465D01*
X145887582Y-121307381D01*
X145927994Y-121319639D01*
X145986432Y-121357934D01*
X146014890Y-121421746D01*
X146016000Y-121438300D01*
X146016000Y-121540633D01*
X145996315Y-121607672D01*
X145943511Y-121653427D01*
X145874353Y-121663371D01*
X145810797Y-121634346D01*
X145796147Y-121619298D01*
X145735094Y-121544905D01*
X145593473Y-121428679D01*
X145582695Y-121412857D01*
X145569387Y-121411306D01*
X145559408Y-121406531D01*
X145402421Y-121322620D01*
X145392591Y-121319638D01*
X145210053Y-121264266D01*
X145210050Y-121264265D01*
X145210053Y-121264265D01*
X145010000Y-121244562D01*
X144809948Y-121264265D01*
X144617582Y-121322619D01*
X144440293Y-121417381D01*
X144391665Y-121457290D01*
X144327355Y-121484603D01*
X144258488Y-121472812D01*
X144206927Y-121425660D01*
X144189000Y-121361437D01*
X144189000Y-119695713D01*
X144208685Y-119628674D01*
X144225315Y-119608036D01*
X144434203Y-119399147D01*
X144495524Y-119365664D01*
X144565215Y-119370648D01*
X144580332Y-119377470D01*
X144617582Y-119397381D01*
X144809947Y-119455734D01*
X144809946Y-119455734D01*
X144827883Y-119457500D01*
X145010000Y-119475438D01*
X145210053Y-119455734D01*
X145402418Y-119397381D01*
X145559410Y-119313467D01*
X145579326Y-119309320D01*
X145585243Y-119298712D01*
X145593473Y-119291320D01*
X145735094Y-119175094D01*
X145735093Y-119175093D01*
X145862621Y-119019703D01*
X145957381Y-118842418D01*
X146015734Y-118650053D01*
X146035438Y-118450000D01*
X146035438Y-118449999D01*
X149064562Y-118449999D01*
X149084265Y-118650051D01*
X149084266Y-118650053D01*
X149142619Y-118842418D01*
X149237379Y-119019703D01*
X149237381Y-119019706D01*
X149364905Y-119175094D01*
X149515534Y-119298712D01*
X149520297Y-119302621D01*
X149697582Y-119397381D01*
X149889947Y-119455734D01*
X149889946Y-119455734D01*
X149907883Y-119457500D01*
X150090000Y-119475438D01*
X150290053Y-119455734D01*
X150482418Y-119397381D01*
X150659703Y-119302621D01*
X150815094Y-119175094D01*
X150942621Y-119019703D01*
X151037381Y-118842418D01*
X151095734Y-118650053D01*
X151115438Y-118450000D01*
X151115438Y-118449999D01*
X151604562Y-118449999D01*
X151624265Y-118650051D01*
X151624266Y-118650053D01*
X151682619Y-118842418D01*
X151777379Y-119019703D01*
X151777381Y-119019706D01*
X151904905Y-119175094D01*
X152055534Y-119298712D01*
X152060297Y-119302621D01*
X152237582Y-119397381D01*
X152429947Y-119455734D01*
X152429946Y-119455734D01*
X152447883Y-119457500D01*
X152630000Y-119475438D01*
X152830053Y-119455734D01*
X153022418Y-119397381D01*
X153179410Y-119313467D01*
X153199326Y-119309320D01*
X153205243Y-119298712D01*
X153213473Y-119291320D01*
X153355094Y-119175094D01*
X153355093Y-119175094D01*
X153482621Y-119019703D01*
X153577381Y-118842418D01*
X153635734Y-118650053D01*
X153655438Y-118450000D01*
X153655438Y-118449999D01*
X154144562Y-118449999D01*
X154164265Y-118650051D01*
X154164266Y-118650053D01*
X154222619Y-118842418D01*
X154317379Y-119019703D01*
X154317381Y-119019706D01*
X154444905Y-119175094D01*
X154586526Y-119291320D01*
X154597303Y-119307141D01*
X154610612Y-119308693D01*
X154620586Y-119313465D01*
X154678960Y-119344667D01*
X154740334Y-119377472D01*
X154777582Y-119397381D01*
X154969947Y-119455734D01*
X154969946Y-119455734D01*
X154987883Y-119457500D01*
X155170000Y-119475438D01*
X155370053Y-119455734D01*
X155562418Y-119397381D01*
X155719410Y-119313467D01*
X155739326Y-119309320D01*
X155745243Y-119298712D01*
X155753473Y-119291320D01*
X155895094Y-119175094D01*
X155895093Y-119175093D01*
X156022621Y-119019703D01*
X156117381Y-118842418D01*
X156175734Y-118650053D01*
X156195438Y-118450000D01*
X156175734Y-118249947D01*
X156117381Y-118057582D01*
X156022621Y-117880297D01*
X156022618Y-117880293D01*
X155895094Y-117724905D01*
X155739706Y-117597381D01*
X155739704Y-117597380D01*
X155739703Y-117597379D01*
X155562418Y-117502619D01*
X155370053Y-117444266D01*
X155370050Y-117444265D01*
X155370053Y-117444265D01*
X155170000Y-117424562D01*
X154969948Y-117444265D01*
X154777582Y-117502619D01*
X154600293Y-117597381D01*
X154444905Y-117724905D01*
X154317381Y-117880293D01*
X154222619Y-118057582D01*
X154164265Y-118249948D01*
X154144562Y-118449999D01*
X153655438Y-118449999D01*
X153635734Y-118249947D01*
X153577381Y-118057582D01*
X153482621Y-117880297D01*
X153482618Y-117880293D01*
X153355094Y-117724905D01*
X153199706Y-117597381D01*
X153199704Y-117597380D01*
X153199703Y-117597379D01*
X153022418Y-117502619D01*
X152830053Y-117444266D01*
X152830050Y-117444265D01*
X152830053Y-117444265D01*
X152647936Y-117426328D01*
X152630000Y-117424562D01*
X152629999Y-117424562D01*
X152429948Y-117444265D01*
X152237582Y-117502619D01*
X152060293Y-117597381D01*
X151904905Y-117724905D01*
X151777381Y-117880293D01*
X151682619Y-118057582D01*
X151624265Y-118249948D01*
X151604562Y-118449999D01*
X151115438Y-118449999D01*
X151095734Y-118249947D01*
X151037381Y-118057582D01*
X150942621Y-117880297D01*
X150942618Y-117880293D01*
X150815094Y-117724905D01*
X150659706Y-117597381D01*
X150659704Y-117597380D01*
X150659703Y-117597379D01*
X150482418Y-117502619D01*
X150290053Y-117444266D01*
X150290050Y-117444265D01*
X150290053Y-117444265D01*
X150090000Y-117424562D01*
X149889948Y-117444265D01*
X149697582Y-117502619D01*
X149520293Y-117597381D01*
X149364905Y-117724905D01*
X149237381Y-117880293D01*
X149142619Y-118057582D01*
X149084265Y-118249948D01*
X149064562Y-118449999D01*
X146035438Y-118449999D01*
X146015734Y-118249947D01*
X145957381Y-118057582D01*
X145862621Y-117880297D01*
X145862618Y-117880293D01*
X145735094Y-117724905D01*
X145579706Y-117597381D01*
X145579704Y-117597380D01*
X145579703Y-117597379D01*
X145402418Y-117502619D01*
X145210053Y-117444266D01*
X145210050Y-117444265D01*
X145210053Y-117444265D01*
X145010000Y-117424562D01*
X144809948Y-117444265D01*
X144617582Y-117502619D01*
X144440293Y-117597381D01*
X144284905Y-117724905D01*
X144157381Y-117880293D01*
X144062619Y-118057582D01*
X144004265Y-118249948D01*
X143984562Y-118450000D01*
X144004265Y-118650051D01*
X144062620Y-118842420D01*
X144082527Y-118879664D01*
X144096768Y-118948067D01*
X144071767Y-119013311D01*
X144060849Y-119025797D01*
X143765345Y-119321301D01*
X143746560Y-119336719D01*
X143734666Y-119344666D01*
X143711882Y-119378764D01*
X143711880Y-119378768D01*
X143676317Y-119431990D01*
X143667675Y-119475437D01*
X143658368Y-119522233D01*
X143655828Y-119535001D01*
X143658617Y-119549021D01*
X143661000Y-119573213D01*
X143661000Y-123157083D01*
X143658618Y-123181271D01*
X143655828Y-123195299D01*
X143655828Y-123195300D01*
X143661000Y-123221302D01*
X143676317Y-123298309D01*
X143734666Y-123385632D01*
X143746555Y-123393576D01*
X143765345Y-123408997D01*
X144899682Y-124543334D01*
X144933166Y-124604655D01*
X144936000Y-124631013D01*
X144936000Y-125126000D01*
X144916315Y-125193039D01*
X144863511Y-125238794D01*
X144812000Y-125250000D01*
X143847432Y-125250000D01*
X143823241Y-125247617D01*
X143815486Y-125246074D01*
X143805701Y-125244128D01*
X143805699Y-125244128D01*
X143796788Y-125245900D01*
X143791677Y-125246917D01*
X143767487Y-125249300D01*
X140154014Y-125249300D01*
X140086975Y-125229615D01*
X140066333Y-125212981D01*
X139609149Y-124755797D01*
X139575664Y-124694474D01*
X139580648Y-124624782D01*
X139587467Y-124609674D01*
X139607381Y-124572418D01*
X139665734Y-124380053D01*
X139685438Y-124180000D01*
X139665734Y-123979947D01*
X139607381Y-123787582D01*
X139512621Y-123610297D01*
X139512104Y-123609667D01*
X139385094Y-123454905D01*
X139229706Y-123327381D01*
X139229704Y-123327380D01*
X139229703Y-123327379D01*
X139052418Y-123232619D01*
X138860053Y-123174266D01*
X138860050Y-123174265D01*
X138860053Y-123174265D01*
X138677936Y-123156328D01*
X138660000Y-123154562D01*
X138659999Y-123154562D01*
X138459948Y-123174265D01*
X138336995Y-123211562D01*
X138267582Y-123232619D01*
X138267580Y-123232619D01*
X138267580Y-123232620D01*
X138110590Y-123316532D01*
X138090671Y-123320678D01*
X138084756Y-123331286D01*
X138076527Y-123338679D01*
X137934903Y-123454908D01*
X137873853Y-123529298D01*
X137816107Y-123568632D01*
X137746262Y-123570503D01*
X137686494Y-123534315D01*
X137655778Y-123471559D01*
X137654000Y-123450633D01*
X137654000Y-123348300D01*
X137673685Y-123281261D01*
X137726489Y-123235506D01*
X137741996Y-123229642D01*
X137782418Y-123217381D01*
X137939410Y-123133467D01*
X137959326Y-123129320D01*
X137965243Y-123118712D01*
X137973473Y-123111320D01*
X138115094Y-122995094D01*
X138184879Y-122910061D01*
X138242621Y-122839703D01*
X138337381Y-122662418D01*
X138395734Y-122470053D01*
X138415438Y-122270000D01*
X138395734Y-122069947D01*
X138337381Y-121877582D01*
X138242621Y-121700297D01*
X138242618Y-121700293D01*
X138115094Y-121544905D01*
X137973473Y-121428679D01*
X137962695Y-121412857D01*
X137949387Y-121411306D01*
X137939408Y-121406531D01*
X137782421Y-121322620D01*
X137772591Y-121319638D01*
X137590053Y-121264266D01*
X137590050Y-121264265D01*
X137590053Y-121264265D01*
X137407936Y-121246328D01*
X137390000Y-121244562D01*
X137389999Y-121244562D01*
X137189948Y-121264265D01*
X137066995Y-121301562D01*
X136997582Y-121322619D01*
X136997580Y-121322619D01*
X136997580Y-121322620D01*
X136840590Y-121406532D01*
X136820671Y-121410678D01*
X136814756Y-121421286D01*
X136806527Y-121428679D01*
X136664903Y-121544908D01*
X136537381Y-121700293D01*
X136442619Y-121877582D01*
X136384265Y-122069948D01*
X136364562Y-122269999D01*
X136384265Y-122470051D01*
X136406784Y-122544285D01*
X136442619Y-122662418D01*
X136535612Y-122836397D01*
X136537381Y-122839706D01*
X136664905Y-122995094D01*
X136806526Y-123111320D01*
X136817303Y-123127141D01*
X136830612Y-123128693D01*
X136840586Y-123133465D01*
X136997582Y-123217381D01*
X137037994Y-123229639D01*
X137096432Y-123267934D01*
X137124890Y-123331746D01*
X137126000Y-123348300D01*
X137126000Y-123450633D01*
X137106315Y-123517672D01*
X137053511Y-123563427D01*
X136984353Y-123573371D01*
X136920797Y-123544346D01*
X136906147Y-123529298D01*
X136845094Y-123454905D01*
X136703473Y-123338679D01*
X136692695Y-123322857D01*
X136679387Y-123321306D01*
X136669408Y-123316531D01*
X136512421Y-123232620D01*
X136492803Y-123226669D01*
X136320053Y-123174266D01*
X136320050Y-123174265D01*
X136320053Y-123174265D01*
X136137936Y-123156328D01*
X136120000Y-123154562D01*
X136119999Y-123154562D01*
X135919948Y-123174265D01*
X135796995Y-123211562D01*
X135727582Y-123232619D01*
X135727580Y-123232619D01*
X135727580Y-123232620D01*
X135570590Y-123316532D01*
X135550671Y-123320678D01*
X135544756Y-123331286D01*
X135536527Y-123338679D01*
X135394903Y-123454908D01*
X135267381Y-123610293D01*
X135172619Y-123787582D01*
X135114265Y-123979948D01*
X135094562Y-124179999D01*
X135114265Y-124380051D01*
X135121172Y-124402820D01*
X135172619Y-124572418D01*
X135267379Y-124749703D01*
X135267381Y-124749706D01*
X135394905Y-124905094D01*
X135547282Y-125030147D01*
X135550297Y-125032621D01*
X135727582Y-125127381D01*
X135919947Y-125185734D01*
X135919946Y-125185734D01*
X135939649Y-125187674D01*
X136120000Y-125205438D01*
X136320053Y-125185734D01*
X136512418Y-125127381D01*
X136549662Y-125107473D01*
X136618062Y-125093229D01*
X136683306Y-125118228D01*
X136695797Y-125129149D01*
X137926299Y-126359651D01*
X137941719Y-126378439D01*
X137949666Y-126390332D01*
X137949667Y-126390333D01*
X138036992Y-126448683D01*
X138113998Y-126464000D01*
X138114000Y-126464000D01*
X138119968Y-126465187D01*
X138119971Y-126465187D01*
X138140000Y-126469171D01*
X138154022Y-126466381D01*
X138178211Y-126464000D01*
X139225500Y-126464000D01*
X139292539Y-126483685D01*
X139338294Y-126536489D01*
X139349500Y-126587999D01*
X139349500Y-127819748D01*
X139349500Y-127819750D01*
X139349499Y-127819750D01*
X139358065Y-127862808D01*
X139351838Y-127932400D01*
X139308975Y-127987577D01*
X139243086Y-128010822D01*
X139236448Y-128011000D01*
X133285715Y-128011000D01*
X133218676Y-127991315D01*
X133198034Y-127974681D01*
X130571518Y-125348165D01*
X130538033Y-125286842D01*
X130543017Y-125217150D01*
X130584889Y-125161217D01*
X130650353Y-125136800D01*
X130695188Y-125141822D01*
X130839947Y-125185734D01*
X131040000Y-125205438D01*
X131240053Y-125185734D01*
X131432418Y-125127381D01*
X131609703Y-125032621D01*
X131765094Y-124905094D01*
X131892621Y-124749703D01*
X131987381Y-124572418D01*
X132045734Y-124380053D01*
X132065438Y-124180000D01*
X132045734Y-123979947D01*
X131987381Y-123787582D01*
X131892621Y-123610297D01*
X131892104Y-123609667D01*
X131765094Y-123454905D01*
X131609706Y-123327381D01*
X131609704Y-123327380D01*
X131609703Y-123327379D01*
X131432418Y-123232619D01*
X131240053Y-123174266D01*
X131240050Y-123174265D01*
X131240053Y-123174265D01*
X131040000Y-123154562D01*
X130839948Y-123174265D01*
X130647582Y-123232619D01*
X130470293Y-123327381D01*
X130314908Y-123454903D01*
X130233852Y-123553669D01*
X130176105Y-123593003D01*
X130106261Y-123594872D01*
X130046493Y-123558685D01*
X130015777Y-123495929D01*
X130014000Y-123475014D01*
X130014000Y-122269999D01*
X133824562Y-122269999D01*
X133844265Y-122470051D01*
X133866784Y-122544285D01*
X133902619Y-122662418D01*
X133995612Y-122836397D01*
X133997381Y-122839706D01*
X134124905Y-122995094D01*
X134275534Y-123118712D01*
X134280297Y-123122621D01*
X134457582Y-123217381D01*
X134649947Y-123275734D01*
X134649946Y-123275734D01*
X134667883Y-123277500D01*
X134850000Y-123295438D01*
X135050053Y-123275734D01*
X135242418Y-123217381D01*
X135399410Y-123133467D01*
X135419326Y-123129320D01*
X135425243Y-123118712D01*
X135433473Y-123111320D01*
X135575094Y-122995094D01*
X135644879Y-122910061D01*
X135702621Y-122839703D01*
X135797381Y-122662418D01*
X135855734Y-122470053D01*
X135875438Y-122270000D01*
X135855734Y-122069947D01*
X135797381Y-121877582D01*
X135702621Y-121700297D01*
X135702618Y-121700293D01*
X135575094Y-121544905D01*
X135433473Y-121428679D01*
X135422695Y-121412857D01*
X135409387Y-121411306D01*
X135399408Y-121406531D01*
X135242421Y-121322620D01*
X135232591Y-121319638D01*
X135050053Y-121264266D01*
X135050050Y-121264265D01*
X135050053Y-121264265D01*
X134850000Y-121244562D01*
X134649948Y-121264265D01*
X134457582Y-121322619D01*
X134280293Y-121417381D01*
X134124905Y-121544905D01*
X133997381Y-121700293D01*
X133902619Y-121877582D01*
X133844265Y-122069948D01*
X133824562Y-122269999D01*
X130014000Y-122269999D01*
X130014000Y-120360000D01*
X135094562Y-120360000D01*
X135114265Y-120560051D01*
X135114266Y-120560053D01*
X135172619Y-120752418D01*
X135267379Y-120929703D01*
X135267381Y-120929706D01*
X135394905Y-121085094D01*
X135536526Y-121201320D01*
X135547303Y-121217141D01*
X135560612Y-121218693D01*
X135570586Y-121223465D01*
X135727582Y-121307381D01*
X135919947Y-121365734D01*
X135919946Y-121365734D01*
X135939649Y-121367674D01*
X136120000Y-121385438D01*
X136320053Y-121365734D01*
X136512418Y-121307381D01*
X136669410Y-121223467D01*
X136689326Y-121219320D01*
X136695243Y-121208712D01*
X136703473Y-121201320D01*
X136845094Y-121085094D01*
X136879699Y-121042928D01*
X136972621Y-120929703D01*
X137067381Y-120752418D01*
X137125734Y-120560053D01*
X137145438Y-120360000D01*
X137145438Y-120359999D01*
X137634562Y-120359999D01*
X137654265Y-120560051D01*
X137654266Y-120560053D01*
X137712619Y-120752418D01*
X137807379Y-120929703D01*
X137807381Y-120929706D01*
X137934905Y-121085094D01*
X138076526Y-121201320D01*
X138087303Y-121217141D01*
X138100612Y-121218693D01*
X138110586Y-121223465D01*
X138267582Y-121307381D01*
X138459947Y-121365734D01*
X138459946Y-121365734D01*
X138479650Y-121367674D01*
X138660000Y-121385438D01*
X138860053Y-121365734D01*
X139052418Y-121307381D01*
X139229703Y-121212621D01*
X139385094Y-121085094D01*
X139512621Y-120929703D01*
X139607381Y-120752418D01*
X139665734Y-120560053D01*
X139685438Y-120360000D01*
X139665734Y-120159947D01*
X139607381Y-119967582D01*
X139512621Y-119790297D01*
X139512618Y-119790293D01*
X139385094Y-119634905D01*
X139229706Y-119507381D01*
X139229704Y-119507380D01*
X139229703Y-119507379D01*
X139052418Y-119412619D01*
X138860053Y-119354266D01*
X138860050Y-119354265D01*
X138860053Y-119354265D01*
X138677936Y-119336328D01*
X138660000Y-119334562D01*
X138659999Y-119334562D01*
X138459948Y-119354265D01*
X138379174Y-119378768D01*
X138267582Y-119412619D01*
X138267580Y-119412619D01*
X138267580Y-119412620D01*
X138110590Y-119496532D01*
X138090671Y-119500678D01*
X138084756Y-119511286D01*
X138076527Y-119518679D01*
X137934903Y-119634908D01*
X137807381Y-119790293D01*
X137712619Y-119967582D01*
X137654265Y-120159948D01*
X137634562Y-120359999D01*
X137145438Y-120359999D01*
X137125734Y-120159947D01*
X137067381Y-119967582D01*
X136972621Y-119790297D01*
X136972618Y-119790293D01*
X136845094Y-119634905D01*
X136703473Y-119518679D01*
X136692695Y-119502857D01*
X136679387Y-119501306D01*
X136669408Y-119496531D01*
X136512421Y-119412620D01*
X136502591Y-119409638D01*
X136320053Y-119354266D01*
X136320050Y-119354265D01*
X136320053Y-119354265D01*
X136120000Y-119334562D01*
X135919948Y-119354265D01*
X135839174Y-119378768D01*
X135727582Y-119412619D01*
X135727580Y-119412619D01*
X135727580Y-119412620D01*
X135570590Y-119496532D01*
X135550671Y-119500678D01*
X135544756Y-119511286D01*
X135536527Y-119518679D01*
X135394903Y-119634908D01*
X135267381Y-119790293D01*
X135172619Y-119967582D01*
X135114265Y-120159948D01*
X135094562Y-120360000D01*
X130014000Y-120360000D01*
X130014000Y-119534366D01*
X130033685Y-119467328D01*
X130086489Y-119421573D01*
X130102007Y-119415706D01*
X130102666Y-119415506D01*
X130162418Y-119397381D01*
X130339703Y-119302621D01*
X130495094Y-119175094D01*
X130622621Y-119019703D01*
X130717381Y-118842418D01*
X130775734Y-118650053D01*
X130795438Y-118450000D01*
X130795438Y-118449999D01*
X131284562Y-118449999D01*
X131304265Y-118650051D01*
X131304266Y-118650053D01*
X131362619Y-118842418D01*
X131457379Y-119019703D01*
X131457381Y-119019706D01*
X131584905Y-119175094D01*
X131735534Y-119298712D01*
X131740297Y-119302621D01*
X131917582Y-119397381D01*
X132109947Y-119455734D01*
X132109946Y-119455734D01*
X132127883Y-119457500D01*
X132310000Y-119475438D01*
X132510053Y-119455734D01*
X132702418Y-119397381D01*
X132879703Y-119302621D01*
X133035094Y-119175094D01*
X133162621Y-119019703D01*
X133257381Y-118842418D01*
X133315734Y-118650053D01*
X133335438Y-118450000D01*
X133335438Y-118449999D01*
X133824562Y-118449999D01*
X133844265Y-118650051D01*
X133844266Y-118650053D01*
X133902619Y-118842418D01*
X133997379Y-119019703D01*
X133997381Y-119019706D01*
X134124905Y-119175094D01*
X134275534Y-119298712D01*
X134280297Y-119302621D01*
X134457582Y-119397381D01*
X134649947Y-119455734D01*
X134649946Y-119455734D01*
X134667883Y-119457500D01*
X134850000Y-119475438D01*
X135050053Y-119455734D01*
X135242418Y-119397381D01*
X135399410Y-119313467D01*
X135419326Y-119309320D01*
X135425243Y-119298712D01*
X135433473Y-119291320D01*
X135575094Y-119175094D01*
X135575093Y-119175093D01*
X135702621Y-119019703D01*
X135797381Y-118842418D01*
X135855734Y-118650053D01*
X135875438Y-118450000D01*
X136364562Y-118450000D01*
X136384265Y-118650051D01*
X136384266Y-118650053D01*
X136442619Y-118842418D01*
X136537379Y-119019703D01*
X136537381Y-119019706D01*
X136664905Y-119175094D01*
X136806526Y-119291320D01*
X136817303Y-119307141D01*
X136830612Y-119308693D01*
X136840586Y-119313465D01*
X136898960Y-119344667D01*
X136960334Y-119377472D01*
X136997582Y-119397381D01*
X137189947Y-119455734D01*
X137189946Y-119455734D01*
X137209650Y-119457674D01*
X137390000Y-119475438D01*
X137590053Y-119455734D01*
X137782418Y-119397381D01*
X137939410Y-119313467D01*
X137959326Y-119309320D01*
X137965243Y-119298712D01*
X137973473Y-119291320D01*
X138115094Y-119175094D01*
X138115094Y-119175093D01*
X138242621Y-119019703D01*
X138337381Y-118842418D01*
X138395734Y-118650053D01*
X138415438Y-118450000D01*
X138395734Y-118249947D01*
X138337381Y-118057582D01*
X138242621Y-117880297D01*
X138242618Y-117880293D01*
X138115094Y-117724905D01*
X137959706Y-117597381D01*
X137959704Y-117597380D01*
X137959703Y-117597379D01*
X137782418Y-117502619D01*
X137590053Y-117444266D01*
X137590050Y-117444265D01*
X137590053Y-117444265D01*
X137407936Y-117426328D01*
X137390000Y-117424562D01*
X137389999Y-117424562D01*
X137189948Y-117444265D01*
X136997582Y-117502619D01*
X136820293Y-117597381D01*
X136664905Y-117724905D01*
X136537381Y-117880293D01*
X136442619Y-118057582D01*
X136384265Y-118249948D01*
X136364562Y-118450000D01*
X135875438Y-118450000D01*
X135855734Y-118249947D01*
X135797381Y-118057582D01*
X135702621Y-117880297D01*
X135702618Y-117880293D01*
X135575094Y-117724905D01*
X135419706Y-117597381D01*
X135419704Y-117597380D01*
X135419703Y-117597379D01*
X135242418Y-117502619D01*
X135050053Y-117444266D01*
X135050050Y-117444265D01*
X135050053Y-117444265D01*
X134867936Y-117426328D01*
X134850000Y-117424562D01*
X134849999Y-117424562D01*
X134649948Y-117444265D01*
X134457582Y-117502619D01*
X134280293Y-117597381D01*
X134124905Y-117724905D01*
X133997381Y-117880293D01*
X133902619Y-118057582D01*
X133844265Y-118249948D01*
X133824562Y-118449999D01*
X133335438Y-118449999D01*
X133315734Y-118249947D01*
X133257381Y-118057582D01*
X133162621Y-117880297D01*
X133162618Y-117880293D01*
X133035094Y-117724905D01*
X132879706Y-117597381D01*
X132879704Y-117597380D01*
X132879703Y-117597379D01*
X132702418Y-117502619D01*
X132510053Y-117444266D01*
X132510050Y-117444265D01*
X132510053Y-117444265D01*
X132310000Y-117424562D01*
X132109948Y-117444265D01*
X131917582Y-117502619D01*
X131740293Y-117597381D01*
X131584905Y-117724905D01*
X131457381Y-117880293D01*
X131362619Y-118057582D01*
X131304265Y-118249948D01*
X131284562Y-118449999D01*
X130795438Y-118449999D01*
X130775734Y-118249947D01*
X130717381Y-118057582D01*
X130622621Y-117880297D01*
X130622618Y-117880293D01*
X130495094Y-117724905D01*
X130339706Y-117597381D01*
X130339704Y-117597380D01*
X130339703Y-117597379D01*
X130162418Y-117502619D01*
X129970053Y-117444266D01*
X129970050Y-117444265D01*
X129970053Y-117444265D01*
X129787936Y-117426328D01*
X129770000Y-117424562D01*
X129769999Y-117424562D01*
X129569948Y-117444265D01*
X129377582Y-117502619D01*
X129200293Y-117597381D01*
X129044905Y-117724905D01*
X128917381Y-117880293D01*
X128822619Y-118057582D01*
X128764265Y-118249948D01*
X128744562Y-118449999D01*
X121850000Y-118449999D01*
X121850000Y-114774000D01*
X121869685Y-114706961D01*
X121922489Y-114661206D01*
X121974000Y-114650000D01*
X176926000Y-114650000D01*
X176993039Y-114669685D01*
G37*
G04 #@! TD.AperFunction*
M02*
