M48
; DRILL file {KiCad 7.0.7} date Tue 10 Oct 2023 05:26:57 AM CDT
; FORMAT={-:-/ absolute / metric / decimal}
; #@! TF.CreationDate,2023-10-10T05:26:57-05:00
; #@! TF.GenerationSoftware,Kicad,Pcbnew,7.0.7
; #@! TF.FileFunction,Plated,1,2,PTH
FMAT,2
METRIC
; #@! TA.AperFunction,Plated,PTH,ViaDrill
T1C0.200
; #@! TA.AperFunction,Plated,PTH,ViaDrill
T2C0.300
; #@! TA.AperFunction,Plated,PTH,ViaDrill
T3C0.400
; #@! TA.AperFunction,Plated,PTH,ComponentDrill
T4C1.240
%
G90
G05
T1
X140.2Y-128.7
X140.7Y-128.275
X141.2Y-128.7
X141.7Y-128.275
X142.2Y-128.7
X143.2Y-128.7
X144.2Y-128.7
X145.7Y-128.275
X146.7Y-128.275
X147.2Y-128.7
X149.2Y-128.7
X151.325Y-128.8
X151.7Y-128.275
X152.7Y-128.275
X153.2Y-128.7
X153.7Y-128.275
X154.2Y-128.7
X155.2Y-128.7
X155.7Y-128.275
X157.2Y-128.7
X158.194Y-129.45
X158.7Y-128.275
T2
X124.29Y-117.09
X124.29Y-119.63
X124.29Y-122.17
X124.29Y-124.71
X124.29Y-127.25
X126.83Y-117.09
X126.83Y-119.63
X126.83Y-122.17
X126.83Y-124.71
X126.83Y-127.25
X126.83Y-129.79
X129.37Y-117.09
X129.37Y-127.25
X129.37Y-129.79
X131.91Y-117.09
X131.91Y-129.79
X134.45Y-117.09
X134.45Y-129.79
X136.99Y-117.09
X136.99Y-127.25
X139.53Y-117.09
X139.53Y-129.79
X142.07Y-117.09
X142.07Y-119.63
X142.07Y-122.17
X142.07Y-129.79
X144.61Y-117.09
X144.61Y-129.79
X147.15Y-117.09
X147.15Y-129.79
X152.23Y-129.79
X154.77Y-117.09
X154.77Y-129.79
X157.31Y-117.09
X157.31Y-129.79
X159.85Y-117.09
X162.39Y-117.09
X162.39Y-119.63
X162.39Y-124.71
X164.93Y-117.09
X164.93Y-129.79
X167.47Y-117.09
X167.47Y-127.25
X167.47Y-129.79
X170.01Y-117.09
X170.01Y-127.25
X170.01Y-129.79
X172.55Y-117.09
X172.55Y-119.63
X172.55Y-122.17
X172.55Y-124.71
X172.55Y-127.25
X172.55Y-129.79
X175.09Y-117.09
X175.09Y-119.63
X175.09Y-122.17
X175.09Y-124.71
X175.09Y-127.25
T3
X150.1Y-128.975
T4
X128.5Y-120.36
X128.5Y-124.18
X129.77Y-118.45
X131.04Y-124.18
X132.31Y-118.45
X133.58Y-120.36
X133.58Y-124.18
X134.85Y-118.45
X134.85Y-122.27
X136.12Y-120.36
X136.12Y-124.18
X137.39Y-118.45
X137.39Y-122.27
X138.66Y-120.36
X138.66Y-124.18
X145.01Y-118.45
X145.01Y-122.27
X146.28Y-120.36
X146.28Y-124.18
X147.55Y-118.45
X147.55Y-122.27
X150.09Y-118.45
X150.09Y-122.27
X151.36Y-120.36
X151.36Y-124.18
X152.63Y-118.45
X152.63Y-122.27
X153.9Y-120.36
X153.9Y-124.18
X155.17Y-118.45
X155.17Y-122.27
X156.44Y-120.36
X156.44Y-124.18
X157.71Y-118.45
X157.71Y-122.27
X158.98Y-120.36
X158.98Y-124.18
X160.25Y-118.45
X165.33Y-118.45
X165.33Y-122.27
X166.6Y-120.36
X166.6Y-124.18
X167.87Y-118.45
X167.87Y-122.27
X169.14Y-120.36
X169.14Y-124.18
X170.41Y-118.45
X170.41Y-122.27
T0
M30
