G04 #@! TF.GenerationSoftware,KiCad,Pcbnew,7.0.7*
G04 #@! TF.CreationDate,2023-10-10T05:26:18-05:00*
G04 #@! TF.ProjectId,psio-qsb,7073696f-2d71-4736-922e-6b696361645f,rev?*
G04 #@! TF.SameCoordinates,Original*
G04 #@! TF.FileFunction,Soldermask,Bot*
G04 #@! TF.FilePolarity,Negative*
%FSLAX46Y46*%
G04 Gerber Fmt 4.6, Leading zero omitted, Abs format (unit mm)*
G04 Created by KiCad (PCBNEW 7.0.7) date 2023-10-10 05:26:18*
%MOMM*%
%LPD*%
G01*
G04 APERTURE LIST*
%ADD10C,1.844000*%
G04 APERTURE END LIST*
D10*
X128500000Y-120360000D03*
X129770000Y-118450000D03*
X132310000Y-118450000D03*
X133580000Y-120360000D03*
X134850000Y-118450000D03*
X136120000Y-120360000D03*
X137390000Y-118450000D03*
X138660000Y-120360000D03*
X145010000Y-118450000D03*
X146280000Y-120360000D03*
X147550000Y-118450000D03*
X150090000Y-118450000D03*
X151360000Y-120360000D03*
X152630000Y-118450000D03*
X153900000Y-120360000D03*
X155170000Y-118450000D03*
X156440000Y-120360000D03*
X157710000Y-118450000D03*
X158980000Y-120360000D03*
X160250000Y-118450000D03*
X165330000Y-118450000D03*
X166600000Y-120360000D03*
X167870000Y-118450000D03*
X169140000Y-120360000D03*
X170410000Y-118450000D03*
X128500000Y-124180000D03*
X131040000Y-124180000D03*
X133580000Y-124180000D03*
X134850000Y-122270000D03*
X136120000Y-124180000D03*
X137390000Y-122270000D03*
X138660000Y-124180000D03*
X145010000Y-122270000D03*
X146280000Y-124180000D03*
X147550000Y-122270000D03*
X150090000Y-122270000D03*
X151360000Y-124180000D03*
X152630000Y-122270000D03*
X153900000Y-124180000D03*
X155170000Y-122270000D03*
X156440000Y-124180000D03*
X157710000Y-122270000D03*
X158980000Y-124180000D03*
X165330000Y-122270000D03*
X166600000Y-124180000D03*
X167870000Y-122270000D03*
X169140000Y-124180000D03*
X170410000Y-122270000D03*
M02*
