%TF.GenerationSoftware,KiCad,Pcbnew,7.0.7*%
%TF.CreationDate,2023-10-10T05:26:58-05:00*%
%TF.ProjectId,psio-qsb,7073696f-2d71-4736-922e-6b696361645f,rev?*%
%TF.SameCoordinates,Original*%
%TF.FileFunction,Drillmap*%
%TF.FilePolarity,Positive*%
%FSLAX45Y45*%
G04 Gerber Fmt 4.5, Leading zero omitted, Abs format (unit mm)*
G04 Created by KiCad (PCBNEW 7.0.7) date 2023-10-10 05:26:58*
%MOMM*%
%LPD*%
G01*
G04 APERTURE LIST*
%ADD10C,0.100000*%
%ADD11C,0.200000*%
%ADD12C,0.020000*%
%ADD13C,0.030000*%
%ADD14C,0.040000*%
%ADD15C,0.124000*%
G04 APERTURE END LIST*
D10*
X17710000Y-11460000D02*
X12180000Y-11460000D01*
X12180000Y-11460000D02*
X12180000Y-12915000D01*
X17330000Y-12910000D02*
X17710000Y-12910000D01*
X12560000Y-13260000D02*
X17330000Y-13260000D01*
X12180000Y-12915000D02*
X12560000Y-12915000D01*
X17330000Y-13260000D02*
X17330000Y-12910000D01*
X12560000Y-12915000D02*
X12560000Y-13260000D01*
X17710000Y-12910000D02*
X17710000Y-11460000D01*
D11*
D12*
X14010000Y-12860000D02*
X14030000Y-12880000D01*
X14030000Y-12860000D02*
X14010000Y-12880000D01*
X14060000Y-12817500D02*
X14080000Y-12837500D01*
X14080000Y-12817500D02*
X14060000Y-12837500D01*
X14110000Y-12860000D02*
X14130000Y-12880000D01*
X14130000Y-12860000D02*
X14110000Y-12880000D01*
X14160000Y-12817500D02*
X14180000Y-12837500D01*
X14180000Y-12817500D02*
X14160000Y-12837500D01*
X14210000Y-12860000D02*
X14230000Y-12880000D01*
X14230000Y-12860000D02*
X14210000Y-12880000D01*
X14310000Y-12860000D02*
X14330000Y-12880000D01*
X14330000Y-12860000D02*
X14310000Y-12880000D01*
X14410000Y-12860000D02*
X14430000Y-12880000D01*
X14430000Y-12860000D02*
X14410000Y-12880000D01*
X14560000Y-12817500D02*
X14580000Y-12837500D01*
X14580000Y-12817500D02*
X14560000Y-12837500D01*
X14660000Y-12817500D02*
X14680000Y-12837500D01*
X14680000Y-12817500D02*
X14660000Y-12837500D01*
X14710000Y-12860000D02*
X14730000Y-12880000D01*
X14730000Y-12860000D02*
X14710000Y-12880000D01*
X14910000Y-12860000D02*
X14930000Y-12880000D01*
X14930000Y-12860000D02*
X14910000Y-12880000D01*
X15122500Y-12870000D02*
X15142500Y-12890000D01*
X15142500Y-12870000D02*
X15122500Y-12890000D01*
X15160000Y-12817500D02*
X15180000Y-12837500D01*
X15180000Y-12817500D02*
X15160000Y-12837500D01*
X15260000Y-12817500D02*
X15280000Y-12837500D01*
X15280000Y-12817500D02*
X15260000Y-12837500D01*
X15310000Y-12860000D02*
X15330000Y-12880000D01*
X15330000Y-12860000D02*
X15310000Y-12880000D01*
X15360000Y-12817500D02*
X15380000Y-12837500D01*
X15380000Y-12817500D02*
X15360000Y-12837500D01*
X15410000Y-12860000D02*
X15430000Y-12880000D01*
X15430000Y-12860000D02*
X15410000Y-12880000D01*
X15510000Y-12860000D02*
X15530000Y-12880000D01*
X15530000Y-12860000D02*
X15510000Y-12880000D01*
X15560000Y-12817500D02*
X15580000Y-12837500D01*
X15580000Y-12817500D02*
X15560000Y-12837500D01*
X15710000Y-12860000D02*
X15730000Y-12880000D01*
X15730000Y-12860000D02*
X15710000Y-12880000D01*
X15809398Y-12935000D02*
X15829398Y-12955000D01*
X15829398Y-12935000D02*
X15809398Y-12955000D01*
X15860000Y-12817500D02*
X15880000Y-12837500D01*
X15880000Y-12817500D02*
X15860000Y-12837500D01*
D13*
X12444000Y-11709000D02*
G75*
G03*
X12444000Y-11709000I-15000J0D01*
G01*
X12444000Y-11963000D02*
G75*
G03*
X12444000Y-11963000I-15000J0D01*
G01*
X12444000Y-12217000D02*
G75*
G03*
X12444000Y-12217000I-15000J0D01*
G01*
X12444000Y-12471000D02*
G75*
G03*
X12444000Y-12471000I-15000J0D01*
G01*
X12444000Y-12725000D02*
G75*
G03*
X12444000Y-12725000I-15000J0D01*
G01*
X12698000Y-11709000D02*
G75*
G03*
X12698000Y-11709000I-15000J0D01*
G01*
X12698000Y-11963000D02*
G75*
G03*
X12698000Y-11963000I-15000J0D01*
G01*
X12698000Y-12217000D02*
G75*
G03*
X12698000Y-12217000I-15000J0D01*
G01*
X12698000Y-12471000D02*
G75*
G03*
X12698000Y-12471000I-15000J0D01*
G01*
X12698000Y-12725000D02*
G75*
G03*
X12698000Y-12725000I-15000J0D01*
G01*
X12698000Y-12979000D02*
G75*
G03*
X12698000Y-12979000I-15000J0D01*
G01*
X12952000Y-11709000D02*
G75*
G03*
X12952000Y-11709000I-15000J0D01*
G01*
X12952000Y-12725000D02*
G75*
G03*
X12952000Y-12725000I-15000J0D01*
G01*
X12952000Y-12979000D02*
G75*
G03*
X12952000Y-12979000I-15000J0D01*
G01*
X13206000Y-11709000D02*
G75*
G03*
X13206000Y-11709000I-15000J0D01*
G01*
X13206000Y-12979000D02*
G75*
G03*
X13206000Y-12979000I-15000J0D01*
G01*
X13460000Y-11709000D02*
G75*
G03*
X13460000Y-11709000I-15000J0D01*
G01*
X13460000Y-12979000D02*
G75*
G03*
X13460000Y-12979000I-15000J0D01*
G01*
X13714000Y-11709000D02*
G75*
G03*
X13714000Y-11709000I-15000J0D01*
G01*
X13714000Y-12725000D02*
G75*
G03*
X13714000Y-12725000I-15000J0D01*
G01*
X13968000Y-11709000D02*
G75*
G03*
X13968000Y-11709000I-15000J0D01*
G01*
X13968000Y-12979000D02*
G75*
G03*
X13968000Y-12979000I-15000J0D01*
G01*
X14222000Y-11709000D02*
G75*
G03*
X14222000Y-11709000I-15000J0D01*
G01*
X14222000Y-11963000D02*
G75*
G03*
X14222000Y-11963000I-15000J0D01*
G01*
X14222000Y-12217000D02*
G75*
G03*
X14222000Y-12217000I-15000J0D01*
G01*
X14222000Y-12979000D02*
G75*
G03*
X14222000Y-12979000I-15000J0D01*
G01*
X14476000Y-11709000D02*
G75*
G03*
X14476000Y-11709000I-15000J0D01*
G01*
X14476000Y-12979000D02*
G75*
G03*
X14476000Y-12979000I-15000J0D01*
G01*
X14730000Y-11709000D02*
G75*
G03*
X14730000Y-11709000I-15000J0D01*
G01*
X14730000Y-12979000D02*
G75*
G03*
X14730000Y-12979000I-15000J0D01*
G01*
X15238000Y-12979000D02*
G75*
G03*
X15238000Y-12979000I-15000J0D01*
G01*
X15492000Y-11709000D02*
G75*
G03*
X15492000Y-11709000I-15000J0D01*
G01*
X15492000Y-12979000D02*
G75*
G03*
X15492000Y-12979000I-15000J0D01*
G01*
X15746000Y-11709000D02*
G75*
G03*
X15746000Y-11709000I-15000J0D01*
G01*
X15746000Y-12979000D02*
G75*
G03*
X15746000Y-12979000I-15000J0D01*
G01*
X16000000Y-11709000D02*
G75*
G03*
X16000000Y-11709000I-15000J0D01*
G01*
X16254000Y-11709000D02*
G75*
G03*
X16254000Y-11709000I-15000J0D01*
G01*
X16254000Y-11963000D02*
G75*
G03*
X16254000Y-11963000I-15000J0D01*
G01*
X16254000Y-12471000D02*
G75*
G03*
X16254000Y-12471000I-15000J0D01*
G01*
X16508000Y-11709000D02*
G75*
G03*
X16508000Y-11709000I-15000J0D01*
G01*
X16508000Y-12979000D02*
G75*
G03*
X16508000Y-12979000I-15000J0D01*
G01*
X16762000Y-11709000D02*
G75*
G03*
X16762000Y-11709000I-15000J0D01*
G01*
X16762000Y-12725000D02*
G75*
G03*
X16762000Y-12725000I-15000J0D01*
G01*
X16762000Y-12979000D02*
G75*
G03*
X16762000Y-12979000I-15000J0D01*
G01*
X17016000Y-11709000D02*
G75*
G03*
X17016000Y-11709000I-15000J0D01*
G01*
X17016000Y-12725000D02*
G75*
G03*
X17016000Y-12725000I-15000J0D01*
G01*
X17016000Y-12979000D02*
G75*
G03*
X17016000Y-12979000I-15000J0D01*
G01*
X17270000Y-11709000D02*
G75*
G03*
X17270000Y-11709000I-15000J0D01*
G01*
X17270000Y-11963000D02*
G75*
G03*
X17270000Y-11963000I-15000J0D01*
G01*
X17270000Y-12217000D02*
G75*
G03*
X17270000Y-12217000I-15000J0D01*
G01*
X17270000Y-12471000D02*
G75*
G03*
X17270000Y-12471000I-15000J0D01*
G01*
X17270000Y-12725000D02*
G75*
G03*
X17270000Y-12725000I-15000J0D01*
G01*
X17270000Y-12979000D02*
G75*
G03*
X17270000Y-12979000I-15000J0D01*
G01*
X17524000Y-11709000D02*
G75*
G03*
X17524000Y-11709000I-15000J0D01*
G01*
X17524000Y-11963000D02*
G75*
G03*
X17524000Y-11963000I-15000J0D01*
G01*
X17524000Y-12217000D02*
G75*
G03*
X17524000Y-12217000I-15000J0D01*
G01*
X17524000Y-12471000D02*
G75*
G03*
X17524000Y-12471000I-15000J0D01*
G01*
X17524000Y-12725000D02*
G75*
G03*
X17524000Y-12725000I-15000J0D01*
G01*
D14*
X15010000Y-12877500D02*
X15010000Y-12917500D01*
X14990000Y-12897500D02*
X15030000Y-12897500D01*
D15*
X12893841Y-12079841D02*
X12893841Y-11992159D01*
X12806159Y-11992159D01*
X12806159Y-12079841D01*
X12893841Y-12079841D01*
X12893841Y-12461841D02*
X12893841Y-12374159D01*
X12806159Y-12374159D01*
X12806159Y-12461841D01*
X12893841Y-12461841D01*
X13020841Y-11888841D02*
X13020841Y-11801159D01*
X12933159Y-11801159D01*
X12933159Y-11888841D01*
X13020841Y-11888841D01*
X13147841Y-12461841D02*
X13147841Y-12374159D01*
X13060159Y-12374159D01*
X13060159Y-12461841D01*
X13147841Y-12461841D01*
X13274841Y-11888841D02*
X13274841Y-11801159D01*
X13187159Y-11801159D01*
X13187159Y-11888841D01*
X13274841Y-11888841D01*
X13401841Y-12079841D02*
X13401841Y-11992159D01*
X13314159Y-11992159D01*
X13314159Y-12079841D01*
X13401841Y-12079841D01*
X13401841Y-12461841D02*
X13401841Y-12374159D01*
X13314159Y-12374159D01*
X13314159Y-12461841D01*
X13401841Y-12461841D01*
X13528841Y-11888841D02*
X13528841Y-11801159D01*
X13441159Y-11801159D01*
X13441159Y-11888841D01*
X13528841Y-11888841D01*
X13528841Y-12270841D02*
X13528841Y-12183159D01*
X13441159Y-12183159D01*
X13441159Y-12270841D01*
X13528841Y-12270841D01*
X13655841Y-12079841D02*
X13655841Y-11992159D01*
X13568159Y-11992159D01*
X13568159Y-12079841D01*
X13655841Y-12079841D01*
X13655841Y-12461841D02*
X13655841Y-12374159D01*
X13568159Y-12374159D01*
X13568159Y-12461841D01*
X13655841Y-12461841D01*
X13782841Y-11888841D02*
X13782841Y-11801159D01*
X13695159Y-11801159D01*
X13695159Y-11888841D01*
X13782841Y-11888841D01*
X13782841Y-12270841D02*
X13782841Y-12183159D01*
X13695159Y-12183159D01*
X13695159Y-12270841D01*
X13782841Y-12270841D01*
X13909841Y-12079841D02*
X13909841Y-11992159D01*
X13822159Y-11992159D01*
X13822159Y-12079841D01*
X13909841Y-12079841D01*
X13909841Y-12461841D02*
X13909841Y-12374159D01*
X13822159Y-12374159D01*
X13822159Y-12461841D01*
X13909841Y-12461841D01*
X14544841Y-11888841D02*
X14544841Y-11801159D01*
X14457159Y-11801159D01*
X14457159Y-11888841D01*
X14544841Y-11888841D01*
X14544841Y-12270841D02*
X14544841Y-12183159D01*
X14457159Y-12183159D01*
X14457159Y-12270841D01*
X14544841Y-12270841D01*
X14671841Y-12079841D02*
X14671841Y-11992159D01*
X14584159Y-11992159D01*
X14584159Y-12079841D01*
X14671841Y-12079841D01*
X14671841Y-12461841D02*
X14671841Y-12374159D01*
X14584159Y-12374159D01*
X14584159Y-12461841D01*
X14671841Y-12461841D01*
X14798841Y-11888841D02*
X14798841Y-11801159D01*
X14711159Y-11801159D01*
X14711159Y-11888841D01*
X14798841Y-11888841D01*
X14798841Y-12270841D02*
X14798841Y-12183159D01*
X14711159Y-12183159D01*
X14711159Y-12270841D01*
X14798841Y-12270841D01*
X15052841Y-11888841D02*
X15052841Y-11801159D01*
X14965159Y-11801159D01*
X14965159Y-11888841D01*
X15052841Y-11888841D01*
X15052841Y-12270841D02*
X15052841Y-12183159D01*
X14965159Y-12183159D01*
X14965159Y-12270841D01*
X15052841Y-12270841D01*
X15179841Y-12079841D02*
X15179841Y-11992159D01*
X15092159Y-11992159D01*
X15092159Y-12079841D01*
X15179841Y-12079841D01*
X15179841Y-12461841D02*
X15179841Y-12374159D01*
X15092159Y-12374159D01*
X15092159Y-12461841D01*
X15179841Y-12461841D01*
X15306841Y-11888841D02*
X15306841Y-11801159D01*
X15219159Y-11801159D01*
X15219159Y-11888841D01*
X15306841Y-11888841D01*
X15306841Y-12270841D02*
X15306841Y-12183159D01*
X15219159Y-12183159D01*
X15219159Y-12270841D01*
X15306841Y-12270841D01*
X15433841Y-12079841D02*
X15433841Y-11992159D01*
X15346159Y-11992159D01*
X15346159Y-12079841D01*
X15433841Y-12079841D01*
X15433841Y-12461841D02*
X15433841Y-12374159D01*
X15346159Y-12374159D01*
X15346159Y-12461841D01*
X15433841Y-12461841D01*
X15560841Y-11888841D02*
X15560841Y-11801159D01*
X15473159Y-11801159D01*
X15473159Y-11888841D01*
X15560841Y-11888841D01*
X15560841Y-12270841D02*
X15560841Y-12183159D01*
X15473159Y-12183159D01*
X15473159Y-12270841D01*
X15560841Y-12270841D01*
X15687841Y-12079841D02*
X15687841Y-11992159D01*
X15600159Y-11992159D01*
X15600159Y-12079841D01*
X15687841Y-12079841D01*
X15687841Y-12461841D02*
X15687841Y-12374159D01*
X15600159Y-12374159D01*
X15600159Y-12461841D01*
X15687841Y-12461841D01*
X15814841Y-11888841D02*
X15814841Y-11801159D01*
X15727159Y-11801159D01*
X15727159Y-11888841D01*
X15814841Y-11888841D01*
X15814841Y-12270841D02*
X15814841Y-12183159D01*
X15727159Y-12183159D01*
X15727159Y-12270841D01*
X15814841Y-12270841D01*
X15941841Y-12079841D02*
X15941841Y-11992159D01*
X15854159Y-11992159D01*
X15854159Y-12079841D01*
X15941841Y-12079841D01*
X15941841Y-12461841D02*
X15941841Y-12374159D01*
X15854159Y-12374159D01*
X15854159Y-12461841D01*
X15941841Y-12461841D01*
X16068841Y-11888841D02*
X16068841Y-11801159D01*
X15981159Y-11801159D01*
X15981159Y-11888841D01*
X16068841Y-11888841D01*
X16576841Y-11888841D02*
X16576841Y-11801159D01*
X16489159Y-11801159D01*
X16489159Y-11888841D01*
X16576841Y-11888841D01*
X16576841Y-12270841D02*
X16576841Y-12183159D01*
X16489159Y-12183159D01*
X16489159Y-12270841D01*
X16576841Y-12270841D01*
X16703841Y-12079841D02*
X16703841Y-11992159D01*
X16616159Y-11992159D01*
X16616159Y-12079841D01*
X16703841Y-12079841D01*
X16703841Y-12461841D02*
X16703841Y-12374159D01*
X16616159Y-12374159D01*
X16616159Y-12461841D01*
X16703841Y-12461841D01*
X16830841Y-11888841D02*
X16830841Y-11801159D01*
X16743159Y-11801159D01*
X16743159Y-11888841D01*
X16830841Y-11888841D01*
X16830841Y-12270841D02*
X16830841Y-12183159D01*
X16743159Y-12183159D01*
X16743159Y-12270841D01*
X16830841Y-12270841D01*
X16957841Y-12079841D02*
X16957841Y-11992159D01*
X16870159Y-11992159D01*
X16870159Y-12079841D01*
X16957841Y-12079841D01*
X16957841Y-12461841D02*
X16957841Y-12374159D01*
X16870159Y-12374159D01*
X16870159Y-12461841D01*
X16957841Y-12461841D01*
X17084841Y-11888841D02*
X17084841Y-11801159D01*
X16997159Y-11801159D01*
X16997159Y-11888841D01*
X17084841Y-11888841D01*
X17084841Y-12270841D02*
X17084841Y-12183159D01*
X16997159Y-12183159D01*
X16997159Y-12270841D01*
X17084841Y-12270841D01*
D11*
X12435777Y-13576484D02*
X12435777Y-13376484D01*
X12435777Y-13376484D02*
X12483396Y-13376484D01*
X12483396Y-13376484D02*
X12511967Y-13386008D01*
X12511967Y-13386008D02*
X12531015Y-13405055D01*
X12531015Y-13405055D02*
X12540539Y-13424103D01*
X12540539Y-13424103D02*
X12550062Y-13462198D01*
X12550062Y-13462198D02*
X12550062Y-13490769D01*
X12550062Y-13490769D02*
X12540539Y-13528865D01*
X12540539Y-13528865D02*
X12531015Y-13547912D01*
X12531015Y-13547912D02*
X12511967Y-13566960D01*
X12511967Y-13566960D02*
X12483396Y-13576484D01*
X12483396Y-13576484D02*
X12435777Y-13576484D01*
X12635777Y-13576484D02*
X12635777Y-13443150D01*
X12635777Y-13481246D02*
X12645301Y-13462198D01*
X12645301Y-13462198D02*
X12654824Y-13452674D01*
X12654824Y-13452674D02*
X12673872Y-13443150D01*
X12673872Y-13443150D02*
X12692920Y-13443150D01*
X12759586Y-13576484D02*
X12759586Y-13443150D01*
X12759586Y-13376484D02*
X12750062Y-13386008D01*
X12750062Y-13386008D02*
X12759586Y-13395531D01*
X12759586Y-13395531D02*
X12769110Y-13386008D01*
X12769110Y-13386008D02*
X12759586Y-13376484D01*
X12759586Y-13376484D02*
X12759586Y-13395531D01*
X12883396Y-13576484D02*
X12864348Y-13566960D01*
X12864348Y-13566960D02*
X12854824Y-13547912D01*
X12854824Y-13547912D02*
X12854824Y-13376484D01*
X12988158Y-13576484D02*
X12969110Y-13566960D01*
X12969110Y-13566960D02*
X12959586Y-13547912D01*
X12959586Y-13547912D02*
X12959586Y-13376484D01*
X13216729Y-13576484D02*
X13216729Y-13376484D01*
X13216729Y-13376484D02*
X13283396Y-13519341D01*
X13283396Y-13519341D02*
X13350062Y-13376484D01*
X13350062Y-13376484D02*
X13350062Y-13576484D01*
X13531015Y-13576484D02*
X13531015Y-13471722D01*
X13531015Y-13471722D02*
X13521491Y-13452674D01*
X13521491Y-13452674D02*
X13502443Y-13443150D01*
X13502443Y-13443150D02*
X13464348Y-13443150D01*
X13464348Y-13443150D02*
X13445301Y-13452674D01*
X13531015Y-13566960D02*
X13511967Y-13576484D01*
X13511967Y-13576484D02*
X13464348Y-13576484D01*
X13464348Y-13576484D02*
X13445301Y-13566960D01*
X13445301Y-13566960D02*
X13435777Y-13547912D01*
X13435777Y-13547912D02*
X13435777Y-13528865D01*
X13435777Y-13528865D02*
X13445301Y-13509817D01*
X13445301Y-13509817D02*
X13464348Y-13500293D01*
X13464348Y-13500293D02*
X13511967Y-13500293D01*
X13511967Y-13500293D02*
X13531015Y-13490769D01*
X13626253Y-13443150D02*
X13626253Y-13643150D01*
X13626253Y-13452674D02*
X13645301Y-13443150D01*
X13645301Y-13443150D02*
X13683396Y-13443150D01*
X13683396Y-13443150D02*
X13702443Y-13452674D01*
X13702443Y-13452674D02*
X13711967Y-13462198D01*
X13711967Y-13462198D02*
X13721491Y-13481246D01*
X13721491Y-13481246D02*
X13721491Y-13538388D01*
X13721491Y-13538388D02*
X13711967Y-13557436D01*
X13711967Y-13557436D02*
X13702443Y-13566960D01*
X13702443Y-13566960D02*
X13683396Y-13576484D01*
X13683396Y-13576484D02*
X13645301Y-13576484D01*
X13645301Y-13576484D02*
X13626253Y-13566960D01*
X13807205Y-13557436D02*
X13816729Y-13566960D01*
X13816729Y-13566960D02*
X13807205Y-13576484D01*
X13807205Y-13576484D02*
X13797682Y-13566960D01*
X13797682Y-13566960D02*
X13807205Y-13557436D01*
X13807205Y-13557436D02*
X13807205Y-13576484D01*
X13807205Y-13452674D02*
X13816729Y-13462198D01*
X13816729Y-13462198D02*
X13807205Y-13471722D01*
X13807205Y-13471722D02*
X13797682Y-13462198D01*
X13797682Y-13462198D02*
X13807205Y-13452674D01*
X13807205Y-13452674D02*
X13807205Y-13471722D01*
D12*
X12155000Y-13895000D02*
X12175000Y-13915000D01*
X12175000Y-13895000D02*
X12155000Y-13915000D01*
D11*
X12473872Y-13796484D02*
X12492920Y-13796484D01*
X12492920Y-13796484D02*
X12511967Y-13806008D01*
X12511967Y-13806008D02*
X12521491Y-13815531D01*
X12521491Y-13815531D02*
X12531015Y-13834579D01*
X12531015Y-13834579D02*
X12540539Y-13872674D01*
X12540539Y-13872674D02*
X12540539Y-13920293D01*
X12540539Y-13920293D02*
X12531015Y-13958388D01*
X12531015Y-13958388D02*
X12521491Y-13977436D01*
X12521491Y-13977436D02*
X12511967Y-13986960D01*
X12511967Y-13986960D02*
X12492920Y-13996484D01*
X12492920Y-13996484D02*
X12473872Y-13996484D01*
X12473872Y-13996484D02*
X12454824Y-13986960D01*
X12454824Y-13986960D02*
X12445301Y-13977436D01*
X12445301Y-13977436D02*
X12435777Y-13958388D01*
X12435777Y-13958388D02*
X12426253Y-13920293D01*
X12426253Y-13920293D02*
X12426253Y-13872674D01*
X12426253Y-13872674D02*
X12435777Y-13834579D01*
X12435777Y-13834579D02*
X12445301Y-13815531D01*
X12445301Y-13815531D02*
X12454824Y-13806008D01*
X12454824Y-13806008D02*
X12473872Y-13796484D01*
X12626253Y-13977436D02*
X12635777Y-13986960D01*
X12635777Y-13986960D02*
X12626253Y-13996484D01*
X12626253Y-13996484D02*
X12616729Y-13986960D01*
X12616729Y-13986960D02*
X12626253Y-13977436D01*
X12626253Y-13977436D02*
X12626253Y-13996484D01*
X12711967Y-13815531D02*
X12721491Y-13806008D01*
X12721491Y-13806008D02*
X12740539Y-13796484D01*
X12740539Y-13796484D02*
X12788158Y-13796484D01*
X12788158Y-13796484D02*
X12807205Y-13806008D01*
X12807205Y-13806008D02*
X12816729Y-13815531D01*
X12816729Y-13815531D02*
X12826253Y-13834579D01*
X12826253Y-13834579D02*
X12826253Y-13853627D01*
X12826253Y-13853627D02*
X12816729Y-13882198D01*
X12816729Y-13882198D02*
X12702443Y-13996484D01*
X12702443Y-13996484D02*
X12826253Y-13996484D01*
X12950062Y-13796484D02*
X12969110Y-13796484D01*
X12969110Y-13796484D02*
X12988158Y-13806008D01*
X12988158Y-13806008D02*
X12997682Y-13815531D01*
X12997682Y-13815531D02*
X13007205Y-13834579D01*
X13007205Y-13834579D02*
X13016729Y-13872674D01*
X13016729Y-13872674D02*
X13016729Y-13920293D01*
X13016729Y-13920293D02*
X13007205Y-13958388D01*
X13007205Y-13958388D02*
X12997682Y-13977436D01*
X12997682Y-13977436D02*
X12988158Y-13986960D01*
X12988158Y-13986960D02*
X12969110Y-13996484D01*
X12969110Y-13996484D02*
X12950062Y-13996484D01*
X12950062Y-13996484D02*
X12931015Y-13986960D01*
X12931015Y-13986960D02*
X12921491Y-13977436D01*
X12921491Y-13977436D02*
X12911967Y-13958388D01*
X12911967Y-13958388D02*
X12902443Y-13920293D01*
X12902443Y-13920293D02*
X12902443Y-13872674D01*
X12902443Y-13872674D02*
X12911967Y-13834579D01*
X12911967Y-13834579D02*
X12921491Y-13815531D01*
X12921491Y-13815531D02*
X12931015Y-13806008D01*
X12931015Y-13806008D02*
X12950062Y-13796484D01*
X13140539Y-13796484D02*
X13159586Y-13796484D01*
X13159586Y-13796484D02*
X13178634Y-13806008D01*
X13178634Y-13806008D02*
X13188158Y-13815531D01*
X13188158Y-13815531D02*
X13197682Y-13834579D01*
X13197682Y-13834579D02*
X13207205Y-13872674D01*
X13207205Y-13872674D02*
X13207205Y-13920293D01*
X13207205Y-13920293D02*
X13197682Y-13958388D01*
X13197682Y-13958388D02*
X13188158Y-13977436D01*
X13188158Y-13977436D02*
X13178634Y-13986960D01*
X13178634Y-13986960D02*
X13159586Y-13996484D01*
X13159586Y-13996484D02*
X13140539Y-13996484D01*
X13140539Y-13996484D02*
X13121491Y-13986960D01*
X13121491Y-13986960D02*
X13111967Y-13977436D01*
X13111967Y-13977436D02*
X13102443Y-13958388D01*
X13102443Y-13958388D02*
X13092920Y-13920293D01*
X13092920Y-13920293D02*
X13092920Y-13872674D01*
X13092920Y-13872674D02*
X13102443Y-13834579D01*
X13102443Y-13834579D02*
X13111967Y-13815531D01*
X13111967Y-13815531D02*
X13121491Y-13806008D01*
X13121491Y-13806008D02*
X13140539Y-13796484D01*
X13292920Y-13996484D02*
X13292920Y-13863150D01*
X13292920Y-13882198D02*
X13302443Y-13872674D01*
X13302443Y-13872674D02*
X13321491Y-13863150D01*
X13321491Y-13863150D02*
X13350063Y-13863150D01*
X13350063Y-13863150D02*
X13369110Y-13872674D01*
X13369110Y-13872674D02*
X13378634Y-13891722D01*
X13378634Y-13891722D02*
X13378634Y-13996484D01*
X13378634Y-13891722D02*
X13388158Y-13872674D01*
X13388158Y-13872674D02*
X13407205Y-13863150D01*
X13407205Y-13863150D02*
X13435777Y-13863150D01*
X13435777Y-13863150D02*
X13454824Y-13872674D01*
X13454824Y-13872674D02*
X13464348Y-13891722D01*
X13464348Y-13891722D02*
X13464348Y-13996484D01*
X13559586Y-13996484D02*
X13559586Y-13863150D01*
X13559586Y-13882198D02*
X13569110Y-13872674D01*
X13569110Y-13872674D02*
X13588158Y-13863150D01*
X13588158Y-13863150D02*
X13616729Y-13863150D01*
X13616729Y-13863150D02*
X13635777Y-13872674D01*
X13635777Y-13872674D02*
X13645301Y-13891722D01*
X13645301Y-13891722D02*
X13645301Y-13996484D01*
X13645301Y-13891722D02*
X13654824Y-13872674D01*
X13654824Y-13872674D02*
X13673872Y-13863150D01*
X13673872Y-13863150D02*
X13702443Y-13863150D01*
X13702443Y-13863150D02*
X13721491Y-13872674D01*
X13721491Y-13872674D02*
X13731015Y-13891722D01*
X13731015Y-13891722D02*
X13731015Y-13996484D01*
X14121491Y-13786960D02*
X13950063Y-14044103D01*
X14378634Y-13796484D02*
X14397682Y-13796484D01*
X14397682Y-13796484D02*
X14416729Y-13806008D01*
X14416729Y-13806008D02*
X14426253Y-13815531D01*
X14426253Y-13815531D02*
X14435777Y-13834579D01*
X14435777Y-13834579D02*
X14445301Y-13872674D01*
X14445301Y-13872674D02*
X14445301Y-13920293D01*
X14445301Y-13920293D02*
X14435777Y-13958388D01*
X14435777Y-13958388D02*
X14426253Y-13977436D01*
X14426253Y-13977436D02*
X14416729Y-13986960D01*
X14416729Y-13986960D02*
X14397682Y-13996484D01*
X14397682Y-13996484D02*
X14378634Y-13996484D01*
X14378634Y-13996484D02*
X14359586Y-13986960D01*
X14359586Y-13986960D02*
X14350063Y-13977436D01*
X14350063Y-13977436D02*
X14340539Y-13958388D01*
X14340539Y-13958388D02*
X14331015Y-13920293D01*
X14331015Y-13920293D02*
X14331015Y-13872674D01*
X14331015Y-13872674D02*
X14340539Y-13834579D01*
X14340539Y-13834579D02*
X14350063Y-13815531D01*
X14350063Y-13815531D02*
X14359586Y-13806008D01*
X14359586Y-13806008D02*
X14378634Y-13796484D01*
X14531015Y-13977436D02*
X14540539Y-13986960D01*
X14540539Y-13986960D02*
X14531015Y-13996484D01*
X14531015Y-13996484D02*
X14521491Y-13986960D01*
X14521491Y-13986960D02*
X14531015Y-13977436D01*
X14531015Y-13977436D02*
X14531015Y-13996484D01*
X14664348Y-13796484D02*
X14683396Y-13796484D01*
X14683396Y-13796484D02*
X14702444Y-13806008D01*
X14702444Y-13806008D02*
X14711967Y-13815531D01*
X14711967Y-13815531D02*
X14721491Y-13834579D01*
X14721491Y-13834579D02*
X14731015Y-13872674D01*
X14731015Y-13872674D02*
X14731015Y-13920293D01*
X14731015Y-13920293D02*
X14721491Y-13958388D01*
X14721491Y-13958388D02*
X14711967Y-13977436D01*
X14711967Y-13977436D02*
X14702444Y-13986960D01*
X14702444Y-13986960D02*
X14683396Y-13996484D01*
X14683396Y-13996484D02*
X14664348Y-13996484D01*
X14664348Y-13996484D02*
X14645301Y-13986960D01*
X14645301Y-13986960D02*
X14635777Y-13977436D01*
X14635777Y-13977436D02*
X14626253Y-13958388D01*
X14626253Y-13958388D02*
X14616729Y-13920293D01*
X14616729Y-13920293D02*
X14616729Y-13872674D01*
X14616729Y-13872674D02*
X14626253Y-13834579D01*
X14626253Y-13834579D02*
X14635777Y-13815531D01*
X14635777Y-13815531D02*
X14645301Y-13806008D01*
X14645301Y-13806008D02*
X14664348Y-13796484D01*
X14854825Y-13796484D02*
X14873872Y-13796484D01*
X14873872Y-13796484D02*
X14892920Y-13806008D01*
X14892920Y-13806008D02*
X14902444Y-13815531D01*
X14902444Y-13815531D02*
X14911967Y-13834579D01*
X14911967Y-13834579D02*
X14921491Y-13872674D01*
X14921491Y-13872674D02*
X14921491Y-13920293D01*
X14921491Y-13920293D02*
X14911967Y-13958388D01*
X14911967Y-13958388D02*
X14902444Y-13977436D01*
X14902444Y-13977436D02*
X14892920Y-13986960D01*
X14892920Y-13986960D02*
X14873872Y-13996484D01*
X14873872Y-13996484D02*
X14854825Y-13996484D01*
X14854825Y-13996484D02*
X14835777Y-13986960D01*
X14835777Y-13986960D02*
X14826253Y-13977436D01*
X14826253Y-13977436D02*
X14816729Y-13958388D01*
X14816729Y-13958388D02*
X14807206Y-13920293D01*
X14807206Y-13920293D02*
X14807206Y-13872674D01*
X14807206Y-13872674D02*
X14816729Y-13834579D01*
X14816729Y-13834579D02*
X14826253Y-13815531D01*
X14826253Y-13815531D02*
X14835777Y-13806008D01*
X14835777Y-13806008D02*
X14854825Y-13796484D01*
X14988158Y-13796484D02*
X15121491Y-13796484D01*
X15121491Y-13796484D02*
X15035777Y-13996484D01*
X15207206Y-13996484D02*
X15245301Y-13996484D01*
X15245301Y-13996484D02*
X15264348Y-13986960D01*
X15264348Y-13986960D02*
X15273872Y-13977436D01*
X15273872Y-13977436D02*
X15292920Y-13948865D01*
X15292920Y-13948865D02*
X15302444Y-13910769D01*
X15302444Y-13910769D02*
X15302444Y-13834579D01*
X15302444Y-13834579D02*
X15292920Y-13815531D01*
X15292920Y-13815531D02*
X15283396Y-13806008D01*
X15283396Y-13806008D02*
X15264348Y-13796484D01*
X15264348Y-13796484D02*
X15226253Y-13796484D01*
X15226253Y-13796484D02*
X15207206Y-13806008D01*
X15207206Y-13806008D02*
X15197682Y-13815531D01*
X15197682Y-13815531D02*
X15188158Y-13834579D01*
X15188158Y-13834579D02*
X15188158Y-13882198D01*
X15188158Y-13882198D02*
X15197682Y-13901246D01*
X15197682Y-13901246D02*
X15207206Y-13910769D01*
X15207206Y-13910769D02*
X15226253Y-13920293D01*
X15226253Y-13920293D02*
X15264348Y-13920293D01*
X15264348Y-13920293D02*
X15283396Y-13910769D01*
X15283396Y-13910769D02*
X15292920Y-13901246D01*
X15292920Y-13901246D02*
X15302444Y-13882198D01*
X15378634Y-13796484D02*
X15378634Y-13834579D01*
X15454825Y-13796484D02*
X15454825Y-13834579D01*
X15750063Y-14072674D02*
X15740539Y-14063150D01*
X15740539Y-14063150D02*
X15721491Y-14034579D01*
X15721491Y-14034579D02*
X15711968Y-14015531D01*
X15711968Y-14015531D02*
X15702444Y-13986960D01*
X15702444Y-13986960D02*
X15692920Y-13939341D01*
X15692920Y-13939341D02*
X15692920Y-13901246D01*
X15692920Y-13901246D02*
X15702444Y-13853627D01*
X15702444Y-13853627D02*
X15711968Y-13825055D01*
X15711968Y-13825055D02*
X15721491Y-13806008D01*
X15721491Y-13806008D02*
X15740539Y-13777436D01*
X15740539Y-13777436D02*
X15750063Y-13767912D01*
X15816729Y-13815531D02*
X15826253Y-13806008D01*
X15826253Y-13806008D02*
X15845301Y-13796484D01*
X15845301Y-13796484D02*
X15892920Y-13796484D01*
X15892920Y-13796484D02*
X15911968Y-13806008D01*
X15911968Y-13806008D02*
X15921491Y-13815531D01*
X15921491Y-13815531D02*
X15931015Y-13834579D01*
X15931015Y-13834579D02*
X15931015Y-13853627D01*
X15931015Y-13853627D02*
X15921491Y-13882198D01*
X15921491Y-13882198D02*
X15807206Y-13996484D01*
X15807206Y-13996484D02*
X15931015Y-13996484D01*
X16007206Y-13815531D02*
X16016729Y-13806008D01*
X16016729Y-13806008D02*
X16035777Y-13796484D01*
X16035777Y-13796484D02*
X16083396Y-13796484D01*
X16083396Y-13796484D02*
X16102444Y-13806008D01*
X16102444Y-13806008D02*
X16111968Y-13815531D01*
X16111968Y-13815531D02*
X16121491Y-13834579D01*
X16121491Y-13834579D02*
X16121491Y-13853627D01*
X16121491Y-13853627D02*
X16111968Y-13882198D01*
X16111968Y-13882198D02*
X15997682Y-13996484D01*
X15997682Y-13996484D02*
X16121491Y-13996484D01*
X16359587Y-13996484D02*
X16359587Y-13796484D01*
X16445301Y-13996484D02*
X16445301Y-13891722D01*
X16445301Y-13891722D02*
X16435777Y-13872674D01*
X16435777Y-13872674D02*
X16416730Y-13863150D01*
X16416730Y-13863150D02*
X16388158Y-13863150D01*
X16388158Y-13863150D02*
X16369110Y-13872674D01*
X16369110Y-13872674D02*
X16359587Y-13882198D01*
X16569110Y-13996484D02*
X16550063Y-13986960D01*
X16550063Y-13986960D02*
X16540539Y-13977436D01*
X16540539Y-13977436D02*
X16531015Y-13958388D01*
X16531015Y-13958388D02*
X16531015Y-13901246D01*
X16531015Y-13901246D02*
X16540539Y-13882198D01*
X16540539Y-13882198D02*
X16550063Y-13872674D01*
X16550063Y-13872674D02*
X16569110Y-13863150D01*
X16569110Y-13863150D02*
X16597682Y-13863150D01*
X16597682Y-13863150D02*
X16616730Y-13872674D01*
X16616730Y-13872674D02*
X16626253Y-13882198D01*
X16626253Y-13882198D02*
X16635777Y-13901246D01*
X16635777Y-13901246D02*
X16635777Y-13958388D01*
X16635777Y-13958388D02*
X16626253Y-13977436D01*
X16626253Y-13977436D02*
X16616730Y-13986960D01*
X16616730Y-13986960D02*
X16597682Y-13996484D01*
X16597682Y-13996484D02*
X16569110Y-13996484D01*
X16750063Y-13996484D02*
X16731015Y-13986960D01*
X16731015Y-13986960D02*
X16721491Y-13967912D01*
X16721491Y-13967912D02*
X16721491Y-13796484D01*
X16902444Y-13986960D02*
X16883396Y-13996484D01*
X16883396Y-13996484D02*
X16845301Y-13996484D01*
X16845301Y-13996484D02*
X16826253Y-13986960D01*
X16826253Y-13986960D02*
X16816730Y-13967912D01*
X16816730Y-13967912D02*
X16816730Y-13891722D01*
X16816730Y-13891722D02*
X16826253Y-13872674D01*
X16826253Y-13872674D02*
X16845301Y-13863150D01*
X16845301Y-13863150D02*
X16883396Y-13863150D01*
X16883396Y-13863150D02*
X16902444Y-13872674D01*
X16902444Y-13872674D02*
X16911968Y-13891722D01*
X16911968Y-13891722D02*
X16911968Y-13910769D01*
X16911968Y-13910769D02*
X16816730Y-13929817D01*
X16988158Y-13986960D02*
X17007206Y-13996484D01*
X17007206Y-13996484D02*
X17045301Y-13996484D01*
X17045301Y-13996484D02*
X17064349Y-13986960D01*
X17064349Y-13986960D02*
X17073873Y-13967912D01*
X17073873Y-13967912D02*
X17073873Y-13958388D01*
X17073873Y-13958388D02*
X17064349Y-13939341D01*
X17064349Y-13939341D02*
X17045301Y-13929817D01*
X17045301Y-13929817D02*
X17016730Y-13929817D01*
X17016730Y-13929817D02*
X16997682Y-13920293D01*
X16997682Y-13920293D02*
X16988158Y-13901246D01*
X16988158Y-13901246D02*
X16988158Y-13891722D01*
X16988158Y-13891722D02*
X16997682Y-13872674D01*
X16997682Y-13872674D02*
X17016730Y-13863150D01*
X17016730Y-13863150D02*
X17045301Y-13863150D01*
X17045301Y-13863150D02*
X17064349Y-13872674D01*
X17140539Y-14072674D02*
X17150063Y-14063150D01*
X17150063Y-14063150D02*
X17169111Y-14034579D01*
X17169111Y-14034579D02*
X17178634Y-14015531D01*
X17178634Y-14015531D02*
X17188158Y-13986960D01*
X17188158Y-13986960D02*
X17197682Y-13939341D01*
X17197682Y-13939341D02*
X17197682Y-13901246D01*
X17197682Y-13901246D02*
X17188158Y-13853627D01*
X17188158Y-13853627D02*
X17178634Y-13825055D01*
X17178634Y-13825055D02*
X17169111Y-13806008D01*
X17169111Y-13806008D02*
X17150063Y-13777436D01*
X17150063Y-13777436D02*
X17140539Y-13767912D01*
D13*
X12175000Y-14169000D02*
G75*
G03*
X12175000Y-14169000I-15000J0D01*
G01*
D11*
X12473872Y-14060484D02*
X12492920Y-14060484D01*
X12492920Y-14060484D02*
X12511967Y-14070008D01*
X12511967Y-14070008D02*
X12521491Y-14079531D01*
X12521491Y-14079531D02*
X12531015Y-14098579D01*
X12531015Y-14098579D02*
X12540539Y-14136674D01*
X12540539Y-14136674D02*
X12540539Y-14184293D01*
X12540539Y-14184293D02*
X12531015Y-14222388D01*
X12531015Y-14222388D02*
X12521491Y-14241436D01*
X12521491Y-14241436D02*
X12511967Y-14250960D01*
X12511967Y-14250960D02*
X12492920Y-14260484D01*
X12492920Y-14260484D02*
X12473872Y-14260484D01*
X12473872Y-14260484D02*
X12454824Y-14250960D01*
X12454824Y-14250960D02*
X12445301Y-14241436D01*
X12445301Y-14241436D02*
X12435777Y-14222388D01*
X12435777Y-14222388D02*
X12426253Y-14184293D01*
X12426253Y-14184293D02*
X12426253Y-14136674D01*
X12426253Y-14136674D02*
X12435777Y-14098579D01*
X12435777Y-14098579D02*
X12445301Y-14079531D01*
X12445301Y-14079531D02*
X12454824Y-14070008D01*
X12454824Y-14070008D02*
X12473872Y-14060484D01*
X12626253Y-14241436D02*
X12635777Y-14250960D01*
X12635777Y-14250960D02*
X12626253Y-14260484D01*
X12626253Y-14260484D02*
X12616729Y-14250960D01*
X12616729Y-14250960D02*
X12626253Y-14241436D01*
X12626253Y-14241436D02*
X12626253Y-14260484D01*
X12702443Y-14060484D02*
X12826253Y-14060484D01*
X12826253Y-14060484D02*
X12759586Y-14136674D01*
X12759586Y-14136674D02*
X12788158Y-14136674D01*
X12788158Y-14136674D02*
X12807205Y-14146198D01*
X12807205Y-14146198D02*
X12816729Y-14155722D01*
X12816729Y-14155722D02*
X12826253Y-14174769D01*
X12826253Y-14174769D02*
X12826253Y-14222388D01*
X12826253Y-14222388D02*
X12816729Y-14241436D01*
X12816729Y-14241436D02*
X12807205Y-14250960D01*
X12807205Y-14250960D02*
X12788158Y-14260484D01*
X12788158Y-14260484D02*
X12731015Y-14260484D01*
X12731015Y-14260484D02*
X12711967Y-14250960D01*
X12711967Y-14250960D02*
X12702443Y-14241436D01*
X12950062Y-14060484D02*
X12969110Y-14060484D01*
X12969110Y-14060484D02*
X12988158Y-14070008D01*
X12988158Y-14070008D02*
X12997682Y-14079531D01*
X12997682Y-14079531D02*
X13007205Y-14098579D01*
X13007205Y-14098579D02*
X13016729Y-14136674D01*
X13016729Y-14136674D02*
X13016729Y-14184293D01*
X13016729Y-14184293D02*
X13007205Y-14222388D01*
X13007205Y-14222388D02*
X12997682Y-14241436D01*
X12997682Y-14241436D02*
X12988158Y-14250960D01*
X12988158Y-14250960D02*
X12969110Y-14260484D01*
X12969110Y-14260484D02*
X12950062Y-14260484D01*
X12950062Y-14260484D02*
X12931015Y-14250960D01*
X12931015Y-14250960D02*
X12921491Y-14241436D01*
X12921491Y-14241436D02*
X12911967Y-14222388D01*
X12911967Y-14222388D02*
X12902443Y-14184293D01*
X12902443Y-14184293D02*
X12902443Y-14136674D01*
X12902443Y-14136674D02*
X12911967Y-14098579D01*
X12911967Y-14098579D02*
X12921491Y-14079531D01*
X12921491Y-14079531D02*
X12931015Y-14070008D01*
X12931015Y-14070008D02*
X12950062Y-14060484D01*
X13140539Y-14060484D02*
X13159586Y-14060484D01*
X13159586Y-14060484D02*
X13178634Y-14070008D01*
X13178634Y-14070008D02*
X13188158Y-14079531D01*
X13188158Y-14079531D02*
X13197682Y-14098579D01*
X13197682Y-14098579D02*
X13207205Y-14136674D01*
X13207205Y-14136674D02*
X13207205Y-14184293D01*
X13207205Y-14184293D02*
X13197682Y-14222388D01*
X13197682Y-14222388D02*
X13188158Y-14241436D01*
X13188158Y-14241436D02*
X13178634Y-14250960D01*
X13178634Y-14250960D02*
X13159586Y-14260484D01*
X13159586Y-14260484D02*
X13140539Y-14260484D01*
X13140539Y-14260484D02*
X13121491Y-14250960D01*
X13121491Y-14250960D02*
X13111967Y-14241436D01*
X13111967Y-14241436D02*
X13102443Y-14222388D01*
X13102443Y-14222388D02*
X13092920Y-14184293D01*
X13092920Y-14184293D02*
X13092920Y-14136674D01*
X13092920Y-14136674D02*
X13102443Y-14098579D01*
X13102443Y-14098579D02*
X13111967Y-14079531D01*
X13111967Y-14079531D02*
X13121491Y-14070008D01*
X13121491Y-14070008D02*
X13140539Y-14060484D01*
X13292920Y-14260484D02*
X13292920Y-14127150D01*
X13292920Y-14146198D02*
X13302443Y-14136674D01*
X13302443Y-14136674D02*
X13321491Y-14127150D01*
X13321491Y-14127150D02*
X13350063Y-14127150D01*
X13350063Y-14127150D02*
X13369110Y-14136674D01*
X13369110Y-14136674D02*
X13378634Y-14155722D01*
X13378634Y-14155722D02*
X13378634Y-14260484D01*
X13378634Y-14155722D02*
X13388158Y-14136674D01*
X13388158Y-14136674D02*
X13407205Y-14127150D01*
X13407205Y-14127150D02*
X13435777Y-14127150D01*
X13435777Y-14127150D02*
X13454824Y-14136674D01*
X13454824Y-14136674D02*
X13464348Y-14155722D01*
X13464348Y-14155722D02*
X13464348Y-14260484D01*
X13559586Y-14260484D02*
X13559586Y-14127150D01*
X13559586Y-14146198D02*
X13569110Y-14136674D01*
X13569110Y-14136674D02*
X13588158Y-14127150D01*
X13588158Y-14127150D02*
X13616729Y-14127150D01*
X13616729Y-14127150D02*
X13635777Y-14136674D01*
X13635777Y-14136674D02*
X13645301Y-14155722D01*
X13645301Y-14155722D02*
X13645301Y-14260484D01*
X13645301Y-14155722D02*
X13654824Y-14136674D01*
X13654824Y-14136674D02*
X13673872Y-14127150D01*
X13673872Y-14127150D02*
X13702443Y-14127150D01*
X13702443Y-14127150D02*
X13721491Y-14136674D01*
X13721491Y-14136674D02*
X13731015Y-14155722D01*
X13731015Y-14155722D02*
X13731015Y-14260484D01*
X14121491Y-14050960D02*
X13950063Y-14308103D01*
X14378634Y-14060484D02*
X14397682Y-14060484D01*
X14397682Y-14060484D02*
X14416729Y-14070008D01*
X14416729Y-14070008D02*
X14426253Y-14079531D01*
X14426253Y-14079531D02*
X14435777Y-14098579D01*
X14435777Y-14098579D02*
X14445301Y-14136674D01*
X14445301Y-14136674D02*
X14445301Y-14184293D01*
X14445301Y-14184293D02*
X14435777Y-14222388D01*
X14435777Y-14222388D02*
X14426253Y-14241436D01*
X14426253Y-14241436D02*
X14416729Y-14250960D01*
X14416729Y-14250960D02*
X14397682Y-14260484D01*
X14397682Y-14260484D02*
X14378634Y-14260484D01*
X14378634Y-14260484D02*
X14359586Y-14250960D01*
X14359586Y-14250960D02*
X14350063Y-14241436D01*
X14350063Y-14241436D02*
X14340539Y-14222388D01*
X14340539Y-14222388D02*
X14331015Y-14184293D01*
X14331015Y-14184293D02*
X14331015Y-14136674D01*
X14331015Y-14136674D02*
X14340539Y-14098579D01*
X14340539Y-14098579D02*
X14350063Y-14079531D01*
X14350063Y-14079531D02*
X14359586Y-14070008D01*
X14359586Y-14070008D02*
X14378634Y-14060484D01*
X14531015Y-14241436D02*
X14540539Y-14250960D01*
X14540539Y-14250960D02*
X14531015Y-14260484D01*
X14531015Y-14260484D02*
X14521491Y-14250960D01*
X14521491Y-14250960D02*
X14531015Y-14241436D01*
X14531015Y-14241436D02*
X14531015Y-14260484D01*
X14664348Y-14060484D02*
X14683396Y-14060484D01*
X14683396Y-14060484D02*
X14702444Y-14070008D01*
X14702444Y-14070008D02*
X14711967Y-14079531D01*
X14711967Y-14079531D02*
X14721491Y-14098579D01*
X14721491Y-14098579D02*
X14731015Y-14136674D01*
X14731015Y-14136674D02*
X14731015Y-14184293D01*
X14731015Y-14184293D02*
X14721491Y-14222388D01*
X14721491Y-14222388D02*
X14711967Y-14241436D01*
X14711967Y-14241436D02*
X14702444Y-14250960D01*
X14702444Y-14250960D02*
X14683396Y-14260484D01*
X14683396Y-14260484D02*
X14664348Y-14260484D01*
X14664348Y-14260484D02*
X14645301Y-14250960D01*
X14645301Y-14250960D02*
X14635777Y-14241436D01*
X14635777Y-14241436D02*
X14626253Y-14222388D01*
X14626253Y-14222388D02*
X14616729Y-14184293D01*
X14616729Y-14184293D02*
X14616729Y-14136674D01*
X14616729Y-14136674D02*
X14626253Y-14098579D01*
X14626253Y-14098579D02*
X14635777Y-14079531D01*
X14635777Y-14079531D02*
X14645301Y-14070008D01*
X14645301Y-14070008D02*
X14664348Y-14060484D01*
X14921491Y-14260484D02*
X14807206Y-14260484D01*
X14864348Y-14260484D02*
X14864348Y-14060484D01*
X14864348Y-14060484D02*
X14845301Y-14089055D01*
X14845301Y-14089055D02*
X14826253Y-14108103D01*
X14826253Y-14108103D02*
X14807206Y-14117627D01*
X15111967Y-14260484D02*
X14997682Y-14260484D01*
X15054825Y-14260484D02*
X15054825Y-14060484D01*
X15054825Y-14060484D02*
X15035777Y-14089055D01*
X15035777Y-14089055D02*
X15016729Y-14108103D01*
X15016729Y-14108103D02*
X14997682Y-14117627D01*
X15226253Y-14146198D02*
X15207206Y-14136674D01*
X15207206Y-14136674D02*
X15197682Y-14127150D01*
X15197682Y-14127150D02*
X15188158Y-14108103D01*
X15188158Y-14108103D02*
X15188158Y-14098579D01*
X15188158Y-14098579D02*
X15197682Y-14079531D01*
X15197682Y-14079531D02*
X15207206Y-14070008D01*
X15207206Y-14070008D02*
X15226253Y-14060484D01*
X15226253Y-14060484D02*
X15264348Y-14060484D01*
X15264348Y-14060484D02*
X15283396Y-14070008D01*
X15283396Y-14070008D02*
X15292920Y-14079531D01*
X15292920Y-14079531D02*
X15302444Y-14098579D01*
X15302444Y-14098579D02*
X15302444Y-14108103D01*
X15302444Y-14108103D02*
X15292920Y-14127150D01*
X15292920Y-14127150D02*
X15283396Y-14136674D01*
X15283396Y-14136674D02*
X15264348Y-14146198D01*
X15264348Y-14146198D02*
X15226253Y-14146198D01*
X15226253Y-14146198D02*
X15207206Y-14155722D01*
X15207206Y-14155722D02*
X15197682Y-14165246D01*
X15197682Y-14165246D02*
X15188158Y-14184293D01*
X15188158Y-14184293D02*
X15188158Y-14222388D01*
X15188158Y-14222388D02*
X15197682Y-14241436D01*
X15197682Y-14241436D02*
X15207206Y-14250960D01*
X15207206Y-14250960D02*
X15226253Y-14260484D01*
X15226253Y-14260484D02*
X15264348Y-14260484D01*
X15264348Y-14260484D02*
X15283396Y-14250960D01*
X15283396Y-14250960D02*
X15292920Y-14241436D01*
X15292920Y-14241436D02*
X15302444Y-14222388D01*
X15302444Y-14222388D02*
X15302444Y-14184293D01*
X15302444Y-14184293D02*
X15292920Y-14165246D01*
X15292920Y-14165246D02*
X15283396Y-14155722D01*
X15283396Y-14155722D02*
X15264348Y-14146198D01*
X15378634Y-14060484D02*
X15378634Y-14098579D01*
X15454825Y-14060484D02*
X15454825Y-14098579D01*
X15750063Y-14336674D02*
X15740539Y-14327150D01*
X15740539Y-14327150D02*
X15721491Y-14298579D01*
X15721491Y-14298579D02*
X15711968Y-14279531D01*
X15711968Y-14279531D02*
X15702444Y-14250960D01*
X15702444Y-14250960D02*
X15692920Y-14203341D01*
X15692920Y-14203341D02*
X15692920Y-14165246D01*
X15692920Y-14165246D02*
X15702444Y-14117627D01*
X15702444Y-14117627D02*
X15711968Y-14089055D01*
X15711968Y-14089055D02*
X15721491Y-14070008D01*
X15721491Y-14070008D02*
X15740539Y-14041436D01*
X15740539Y-14041436D02*
X15750063Y-14031912D01*
X15921491Y-14060484D02*
X15826253Y-14060484D01*
X15826253Y-14060484D02*
X15816729Y-14155722D01*
X15816729Y-14155722D02*
X15826253Y-14146198D01*
X15826253Y-14146198D02*
X15845301Y-14136674D01*
X15845301Y-14136674D02*
X15892920Y-14136674D01*
X15892920Y-14136674D02*
X15911968Y-14146198D01*
X15911968Y-14146198D02*
X15921491Y-14155722D01*
X15921491Y-14155722D02*
X15931015Y-14174769D01*
X15931015Y-14174769D02*
X15931015Y-14222388D01*
X15931015Y-14222388D02*
X15921491Y-14241436D01*
X15921491Y-14241436D02*
X15911968Y-14250960D01*
X15911968Y-14250960D02*
X15892920Y-14260484D01*
X15892920Y-14260484D02*
X15845301Y-14260484D01*
X15845301Y-14260484D02*
X15826253Y-14250960D01*
X15826253Y-14250960D02*
X15816729Y-14241436D01*
X16045301Y-14146198D02*
X16026253Y-14136674D01*
X16026253Y-14136674D02*
X16016729Y-14127150D01*
X16016729Y-14127150D02*
X16007206Y-14108103D01*
X16007206Y-14108103D02*
X16007206Y-14098579D01*
X16007206Y-14098579D02*
X16016729Y-14079531D01*
X16016729Y-14079531D02*
X16026253Y-14070008D01*
X16026253Y-14070008D02*
X16045301Y-14060484D01*
X16045301Y-14060484D02*
X16083396Y-14060484D01*
X16083396Y-14060484D02*
X16102444Y-14070008D01*
X16102444Y-14070008D02*
X16111968Y-14079531D01*
X16111968Y-14079531D02*
X16121491Y-14098579D01*
X16121491Y-14098579D02*
X16121491Y-14108103D01*
X16121491Y-14108103D02*
X16111968Y-14127150D01*
X16111968Y-14127150D02*
X16102444Y-14136674D01*
X16102444Y-14136674D02*
X16083396Y-14146198D01*
X16083396Y-14146198D02*
X16045301Y-14146198D01*
X16045301Y-14146198D02*
X16026253Y-14155722D01*
X16026253Y-14155722D02*
X16016729Y-14165246D01*
X16016729Y-14165246D02*
X16007206Y-14184293D01*
X16007206Y-14184293D02*
X16007206Y-14222388D01*
X16007206Y-14222388D02*
X16016729Y-14241436D01*
X16016729Y-14241436D02*
X16026253Y-14250960D01*
X16026253Y-14250960D02*
X16045301Y-14260484D01*
X16045301Y-14260484D02*
X16083396Y-14260484D01*
X16083396Y-14260484D02*
X16102444Y-14250960D01*
X16102444Y-14250960D02*
X16111968Y-14241436D01*
X16111968Y-14241436D02*
X16121491Y-14222388D01*
X16121491Y-14222388D02*
X16121491Y-14184293D01*
X16121491Y-14184293D02*
X16111968Y-14165246D01*
X16111968Y-14165246D02*
X16102444Y-14155722D01*
X16102444Y-14155722D02*
X16083396Y-14146198D01*
X16359587Y-14260484D02*
X16359587Y-14060484D01*
X16445301Y-14260484D02*
X16445301Y-14155722D01*
X16445301Y-14155722D02*
X16435777Y-14136674D01*
X16435777Y-14136674D02*
X16416730Y-14127150D01*
X16416730Y-14127150D02*
X16388158Y-14127150D01*
X16388158Y-14127150D02*
X16369110Y-14136674D01*
X16369110Y-14136674D02*
X16359587Y-14146198D01*
X16569110Y-14260484D02*
X16550063Y-14250960D01*
X16550063Y-14250960D02*
X16540539Y-14241436D01*
X16540539Y-14241436D02*
X16531015Y-14222388D01*
X16531015Y-14222388D02*
X16531015Y-14165246D01*
X16531015Y-14165246D02*
X16540539Y-14146198D01*
X16540539Y-14146198D02*
X16550063Y-14136674D01*
X16550063Y-14136674D02*
X16569110Y-14127150D01*
X16569110Y-14127150D02*
X16597682Y-14127150D01*
X16597682Y-14127150D02*
X16616730Y-14136674D01*
X16616730Y-14136674D02*
X16626253Y-14146198D01*
X16626253Y-14146198D02*
X16635777Y-14165246D01*
X16635777Y-14165246D02*
X16635777Y-14222388D01*
X16635777Y-14222388D02*
X16626253Y-14241436D01*
X16626253Y-14241436D02*
X16616730Y-14250960D01*
X16616730Y-14250960D02*
X16597682Y-14260484D01*
X16597682Y-14260484D02*
X16569110Y-14260484D01*
X16750063Y-14260484D02*
X16731015Y-14250960D01*
X16731015Y-14250960D02*
X16721491Y-14231912D01*
X16721491Y-14231912D02*
X16721491Y-14060484D01*
X16902444Y-14250960D02*
X16883396Y-14260484D01*
X16883396Y-14260484D02*
X16845301Y-14260484D01*
X16845301Y-14260484D02*
X16826253Y-14250960D01*
X16826253Y-14250960D02*
X16816730Y-14231912D01*
X16816730Y-14231912D02*
X16816730Y-14155722D01*
X16816730Y-14155722D02*
X16826253Y-14136674D01*
X16826253Y-14136674D02*
X16845301Y-14127150D01*
X16845301Y-14127150D02*
X16883396Y-14127150D01*
X16883396Y-14127150D02*
X16902444Y-14136674D01*
X16902444Y-14136674D02*
X16911968Y-14155722D01*
X16911968Y-14155722D02*
X16911968Y-14174769D01*
X16911968Y-14174769D02*
X16816730Y-14193817D01*
X16988158Y-14250960D02*
X17007206Y-14260484D01*
X17007206Y-14260484D02*
X17045301Y-14260484D01*
X17045301Y-14260484D02*
X17064349Y-14250960D01*
X17064349Y-14250960D02*
X17073873Y-14231912D01*
X17073873Y-14231912D02*
X17073873Y-14222388D01*
X17073873Y-14222388D02*
X17064349Y-14203341D01*
X17064349Y-14203341D02*
X17045301Y-14193817D01*
X17045301Y-14193817D02*
X17016730Y-14193817D01*
X17016730Y-14193817D02*
X16997682Y-14184293D01*
X16997682Y-14184293D02*
X16988158Y-14165246D01*
X16988158Y-14165246D02*
X16988158Y-14155722D01*
X16988158Y-14155722D02*
X16997682Y-14136674D01*
X16997682Y-14136674D02*
X17016730Y-14127150D01*
X17016730Y-14127150D02*
X17045301Y-14127150D01*
X17045301Y-14127150D02*
X17064349Y-14136674D01*
X17140539Y-14336674D02*
X17150063Y-14327150D01*
X17150063Y-14327150D02*
X17169111Y-14298579D01*
X17169111Y-14298579D02*
X17178634Y-14279531D01*
X17178634Y-14279531D02*
X17188158Y-14250960D01*
X17188158Y-14250960D02*
X17197682Y-14203341D01*
X17197682Y-14203341D02*
X17197682Y-14165246D01*
X17197682Y-14165246D02*
X17188158Y-14117627D01*
X17188158Y-14117627D02*
X17178634Y-14089055D01*
X17178634Y-14089055D02*
X17169111Y-14070008D01*
X17169111Y-14070008D02*
X17150063Y-14041436D01*
X17150063Y-14041436D02*
X17140539Y-14031912D01*
D14*
X12155000Y-14413000D02*
X12155000Y-14453000D01*
X12135000Y-14433000D02*
X12175000Y-14433000D01*
D11*
X12473872Y-14324484D02*
X12492920Y-14324484D01*
X12492920Y-14324484D02*
X12511967Y-14334008D01*
X12511967Y-14334008D02*
X12521491Y-14343531D01*
X12521491Y-14343531D02*
X12531015Y-14362579D01*
X12531015Y-14362579D02*
X12540539Y-14400674D01*
X12540539Y-14400674D02*
X12540539Y-14448293D01*
X12540539Y-14448293D02*
X12531015Y-14486388D01*
X12531015Y-14486388D02*
X12521491Y-14505436D01*
X12521491Y-14505436D02*
X12511967Y-14514960D01*
X12511967Y-14514960D02*
X12492920Y-14524484D01*
X12492920Y-14524484D02*
X12473872Y-14524484D01*
X12473872Y-14524484D02*
X12454824Y-14514960D01*
X12454824Y-14514960D02*
X12445301Y-14505436D01*
X12445301Y-14505436D02*
X12435777Y-14486388D01*
X12435777Y-14486388D02*
X12426253Y-14448293D01*
X12426253Y-14448293D02*
X12426253Y-14400674D01*
X12426253Y-14400674D02*
X12435777Y-14362579D01*
X12435777Y-14362579D02*
X12445301Y-14343531D01*
X12445301Y-14343531D02*
X12454824Y-14334008D01*
X12454824Y-14334008D02*
X12473872Y-14324484D01*
X12626253Y-14505436D02*
X12635777Y-14514960D01*
X12635777Y-14514960D02*
X12626253Y-14524484D01*
X12626253Y-14524484D02*
X12616729Y-14514960D01*
X12616729Y-14514960D02*
X12626253Y-14505436D01*
X12626253Y-14505436D02*
X12626253Y-14524484D01*
X12807205Y-14391150D02*
X12807205Y-14524484D01*
X12759586Y-14314960D02*
X12711967Y-14457817D01*
X12711967Y-14457817D02*
X12835777Y-14457817D01*
X12950062Y-14324484D02*
X12969110Y-14324484D01*
X12969110Y-14324484D02*
X12988158Y-14334008D01*
X12988158Y-14334008D02*
X12997682Y-14343531D01*
X12997682Y-14343531D02*
X13007205Y-14362579D01*
X13007205Y-14362579D02*
X13016729Y-14400674D01*
X13016729Y-14400674D02*
X13016729Y-14448293D01*
X13016729Y-14448293D02*
X13007205Y-14486388D01*
X13007205Y-14486388D02*
X12997682Y-14505436D01*
X12997682Y-14505436D02*
X12988158Y-14514960D01*
X12988158Y-14514960D02*
X12969110Y-14524484D01*
X12969110Y-14524484D02*
X12950062Y-14524484D01*
X12950062Y-14524484D02*
X12931015Y-14514960D01*
X12931015Y-14514960D02*
X12921491Y-14505436D01*
X12921491Y-14505436D02*
X12911967Y-14486388D01*
X12911967Y-14486388D02*
X12902443Y-14448293D01*
X12902443Y-14448293D02*
X12902443Y-14400674D01*
X12902443Y-14400674D02*
X12911967Y-14362579D01*
X12911967Y-14362579D02*
X12921491Y-14343531D01*
X12921491Y-14343531D02*
X12931015Y-14334008D01*
X12931015Y-14334008D02*
X12950062Y-14324484D01*
X13140539Y-14324484D02*
X13159586Y-14324484D01*
X13159586Y-14324484D02*
X13178634Y-14334008D01*
X13178634Y-14334008D02*
X13188158Y-14343531D01*
X13188158Y-14343531D02*
X13197682Y-14362579D01*
X13197682Y-14362579D02*
X13207205Y-14400674D01*
X13207205Y-14400674D02*
X13207205Y-14448293D01*
X13207205Y-14448293D02*
X13197682Y-14486388D01*
X13197682Y-14486388D02*
X13188158Y-14505436D01*
X13188158Y-14505436D02*
X13178634Y-14514960D01*
X13178634Y-14514960D02*
X13159586Y-14524484D01*
X13159586Y-14524484D02*
X13140539Y-14524484D01*
X13140539Y-14524484D02*
X13121491Y-14514960D01*
X13121491Y-14514960D02*
X13111967Y-14505436D01*
X13111967Y-14505436D02*
X13102443Y-14486388D01*
X13102443Y-14486388D02*
X13092920Y-14448293D01*
X13092920Y-14448293D02*
X13092920Y-14400674D01*
X13092920Y-14400674D02*
X13102443Y-14362579D01*
X13102443Y-14362579D02*
X13111967Y-14343531D01*
X13111967Y-14343531D02*
X13121491Y-14334008D01*
X13121491Y-14334008D02*
X13140539Y-14324484D01*
X13292920Y-14524484D02*
X13292920Y-14391150D01*
X13292920Y-14410198D02*
X13302443Y-14400674D01*
X13302443Y-14400674D02*
X13321491Y-14391150D01*
X13321491Y-14391150D02*
X13350063Y-14391150D01*
X13350063Y-14391150D02*
X13369110Y-14400674D01*
X13369110Y-14400674D02*
X13378634Y-14419722D01*
X13378634Y-14419722D02*
X13378634Y-14524484D01*
X13378634Y-14419722D02*
X13388158Y-14400674D01*
X13388158Y-14400674D02*
X13407205Y-14391150D01*
X13407205Y-14391150D02*
X13435777Y-14391150D01*
X13435777Y-14391150D02*
X13454824Y-14400674D01*
X13454824Y-14400674D02*
X13464348Y-14419722D01*
X13464348Y-14419722D02*
X13464348Y-14524484D01*
X13559586Y-14524484D02*
X13559586Y-14391150D01*
X13559586Y-14410198D02*
X13569110Y-14400674D01*
X13569110Y-14400674D02*
X13588158Y-14391150D01*
X13588158Y-14391150D02*
X13616729Y-14391150D01*
X13616729Y-14391150D02*
X13635777Y-14400674D01*
X13635777Y-14400674D02*
X13645301Y-14419722D01*
X13645301Y-14419722D02*
X13645301Y-14524484D01*
X13645301Y-14419722D02*
X13654824Y-14400674D01*
X13654824Y-14400674D02*
X13673872Y-14391150D01*
X13673872Y-14391150D02*
X13702443Y-14391150D01*
X13702443Y-14391150D02*
X13721491Y-14400674D01*
X13721491Y-14400674D02*
X13731015Y-14419722D01*
X13731015Y-14419722D02*
X13731015Y-14524484D01*
X14121491Y-14314960D02*
X13950063Y-14572103D01*
X14378634Y-14324484D02*
X14397682Y-14324484D01*
X14397682Y-14324484D02*
X14416729Y-14334008D01*
X14416729Y-14334008D02*
X14426253Y-14343531D01*
X14426253Y-14343531D02*
X14435777Y-14362579D01*
X14435777Y-14362579D02*
X14445301Y-14400674D01*
X14445301Y-14400674D02*
X14445301Y-14448293D01*
X14445301Y-14448293D02*
X14435777Y-14486388D01*
X14435777Y-14486388D02*
X14426253Y-14505436D01*
X14426253Y-14505436D02*
X14416729Y-14514960D01*
X14416729Y-14514960D02*
X14397682Y-14524484D01*
X14397682Y-14524484D02*
X14378634Y-14524484D01*
X14378634Y-14524484D02*
X14359586Y-14514960D01*
X14359586Y-14514960D02*
X14350063Y-14505436D01*
X14350063Y-14505436D02*
X14340539Y-14486388D01*
X14340539Y-14486388D02*
X14331015Y-14448293D01*
X14331015Y-14448293D02*
X14331015Y-14400674D01*
X14331015Y-14400674D02*
X14340539Y-14362579D01*
X14340539Y-14362579D02*
X14350063Y-14343531D01*
X14350063Y-14343531D02*
X14359586Y-14334008D01*
X14359586Y-14334008D02*
X14378634Y-14324484D01*
X14531015Y-14505436D02*
X14540539Y-14514960D01*
X14540539Y-14514960D02*
X14531015Y-14524484D01*
X14531015Y-14524484D02*
X14521491Y-14514960D01*
X14521491Y-14514960D02*
X14531015Y-14505436D01*
X14531015Y-14505436D02*
X14531015Y-14524484D01*
X14664348Y-14324484D02*
X14683396Y-14324484D01*
X14683396Y-14324484D02*
X14702444Y-14334008D01*
X14702444Y-14334008D02*
X14711967Y-14343531D01*
X14711967Y-14343531D02*
X14721491Y-14362579D01*
X14721491Y-14362579D02*
X14731015Y-14400674D01*
X14731015Y-14400674D02*
X14731015Y-14448293D01*
X14731015Y-14448293D02*
X14721491Y-14486388D01*
X14721491Y-14486388D02*
X14711967Y-14505436D01*
X14711967Y-14505436D02*
X14702444Y-14514960D01*
X14702444Y-14514960D02*
X14683396Y-14524484D01*
X14683396Y-14524484D02*
X14664348Y-14524484D01*
X14664348Y-14524484D02*
X14645301Y-14514960D01*
X14645301Y-14514960D02*
X14635777Y-14505436D01*
X14635777Y-14505436D02*
X14626253Y-14486388D01*
X14626253Y-14486388D02*
X14616729Y-14448293D01*
X14616729Y-14448293D02*
X14616729Y-14400674D01*
X14616729Y-14400674D02*
X14626253Y-14362579D01*
X14626253Y-14362579D02*
X14635777Y-14343531D01*
X14635777Y-14343531D02*
X14645301Y-14334008D01*
X14645301Y-14334008D02*
X14664348Y-14324484D01*
X14921491Y-14524484D02*
X14807206Y-14524484D01*
X14864348Y-14524484D02*
X14864348Y-14324484D01*
X14864348Y-14324484D02*
X14845301Y-14353055D01*
X14845301Y-14353055D02*
X14826253Y-14372103D01*
X14826253Y-14372103D02*
X14807206Y-14381627D01*
X15102444Y-14324484D02*
X15007206Y-14324484D01*
X15007206Y-14324484D02*
X14997682Y-14419722D01*
X14997682Y-14419722D02*
X15007206Y-14410198D01*
X15007206Y-14410198D02*
X15026253Y-14400674D01*
X15026253Y-14400674D02*
X15073872Y-14400674D01*
X15073872Y-14400674D02*
X15092920Y-14410198D01*
X15092920Y-14410198D02*
X15102444Y-14419722D01*
X15102444Y-14419722D02*
X15111967Y-14438769D01*
X15111967Y-14438769D02*
X15111967Y-14486388D01*
X15111967Y-14486388D02*
X15102444Y-14505436D01*
X15102444Y-14505436D02*
X15092920Y-14514960D01*
X15092920Y-14514960D02*
X15073872Y-14524484D01*
X15073872Y-14524484D02*
X15026253Y-14524484D01*
X15026253Y-14524484D02*
X15007206Y-14514960D01*
X15007206Y-14514960D02*
X14997682Y-14505436D01*
X15178634Y-14324484D02*
X15311967Y-14324484D01*
X15311967Y-14324484D02*
X15226253Y-14524484D01*
X15378634Y-14324484D02*
X15378634Y-14362579D01*
X15454825Y-14324484D02*
X15454825Y-14362579D01*
X15750063Y-14600674D02*
X15740539Y-14591150D01*
X15740539Y-14591150D02*
X15721491Y-14562579D01*
X15721491Y-14562579D02*
X15711968Y-14543531D01*
X15711968Y-14543531D02*
X15702444Y-14514960D01*
X15702444Y-14514960D02*
X15692920Y-14467341D01*
X15692920Y-14467341D02*
X15692920Y-14429246D01*
X15692920Y-14429246D02*
X15702444Y-14381627D01*
X15702444Y-14381627D02*
X15711968Y-14353055D01*
X15711968Y-14353055D02*
X15721491Y-14334008D01*
X15721491Y-14334008D02*
X15740539Y-14305436D01*
X15740539Y-14305436D02*
X15750063Y-14295912D01*
X15931015Y-14524484D02*
X15816729Y-14524484D01*
X15873872Y-14524484D02*
X15873872Y-14324484D01*
X15873872Y-14324484D02*
X15854825Y-14353055D01*
X15854825Y-14353055D02*
X15835777Y-14372103D01*
X15835777Y-14372103D02*
X15816729Y-14381627D01*
X16169110Y-14524484D02*
X16169110Y-14324484D01*
X16254825Y-14524484D02*
X16254825Y-14419722D01*
X16254825Y-14419722D02*
X16245301Y-14400674D01*
X16245301Y-14400674D02*
X16226253Y-14391150D01*
X16226253Y-14391150D02*
X16197682Y-14391150D01*
X16197682Y-14391150D02*
X16178634Y-14400674D01*
X16178634Y-14400674D02*
X16169110Y-14410198D01*
X16378634Y-14524484D02*
X16359587Y-14514960D01*
X16359587Y-14514960D02*
X16350063Y-14505436D01*
X16350063Y-14505436D02*
X16340539Y-14486388D01*
X16340539Y-14486388D02*
X16340539Y-14429246D01*
X16340539Y-14429246D02*
X16350063Y-14410198D01*
X16350063Y-14410198D02*
X16359587Y-14400674D01*
X16359587Y-14400674D02*
X16378634Y-14391150D01*
X16378634Y-14391150D02*
X16407206Y-14391150D01*
X16407206Y-14391150D02*
X16426253Y-14400674D01*
X16426253Y-14400674D02*
X16435777Y-14410198D01*
X16435777Y-14410198D02*
X16445301Y-14429246D01*
X16445301Y-14429246D02*
X16445301Y-14486388D01*
X16445301Y-14486388D02*
X16435777Y-14505436D01*
X16435777Y-14505436D02*
X16426253Y-14514960D01*
X16426253Y-14514960D02*
X16407206Y-14524484D01*
X16407206Y-14524484D02*
X16378634Y-14524484D01*
X16559587Y-14524484D02*
X16540539Y-14514960D01*
X16540539Y-14514960D02*
X16531015Y-14495912D01*
X16531015Y-14495912D02*
X16531015Y-14324484D01*
X16711968Y-14514960D02*
X16692920Y-14524484D01*
X16692920Y-14524484D02*
X16654825Y-14524484D01*
X16654825Y-14524484D02*
X16635777Y-14514960D01*
X16635777Y-14514960D02*
X16626253Y-14495912D01*
X16626253Y-14495912D02*
X16626253Y-14419722D01*
X16626253Y-14419722D02*
X16635777Y-14400674D01*
X16635777Y-14400674D02*
X16654825Y-14391150D01*
X16654825Y-14391150D02*
X16692920Y-14391150D01*
X16692920Y-14391150D02*
X16711968Y-14400674D01*
X16711968Y-14400674D02*
X16721491Y-14419722D01*
X16721491Y-14419722D02*
X16721491Y-14438769D01*
X16721491Y-14438769D02*
X16626253Y-14457817D01*
X16788158Y-14600674D02*
X16797682Y-14591150D01*
X16797682Y-14591150D02*
X16816730Y-14562579D01*
X16816730Y-14562579D02*
X16826253Y-14543531D01*
X16826253Y-14543531D02*
X16835777Y-14514960D01*
X16835777Y-14514960D02*
X16845301Y-14467341D01*
X16845301Y-14467341D02*
X16845301Y-14429246D01*
X16845301Y-14429246D02*
X16835777Y-14381627D01*
X16835777Y-14381627D02*
X16826253Y-14353055D01*
X16826253Y-14353055D02*
X16816730Y-14334008D01*
X16816730Y-14334008D02*
X16797682Y-14305436D01*
X16797682Y-14305436D02*
X16788158Y-14295912D01*
D15*
X12156841Y-14740841D02*
X12156841Y-14653159D01*
X12069159Y-14653159D01*
X12069159Y-14740841D01*
X12156841Y-14740841D01*
D11*
X12540539Y-14788484D02*
X12426253Y-14788484D01*
X12483396Y-14788484D02*
X12483396Y-14588484D01*
X12483396Y-14588484D02*
X12464348Y-14617055D01*
X12464348Y-14617055D02*
X12445301Y-14636103D01*
X12445301Y-14636103D02*
X12426253Y-14645627D01*
X12626253Y-14769436D02*
X12635777Y-14778960D01*
X12635777Y-14778960D02*
X12626253Y-14788484D01*
X12626253Y-14788484D02*
X12616729Y-14778960D01*
X12616729Y-14778960D02*
X12626253Y-14769436D01*
X12626253Y-14769436D02*
X12626253Y-14788484D01*
X12711967Y-14607531D02*
X12721491Y-14598008D01*
X12721491Y-14598008D02*
X12740539Y-14588484D01*
X12740539Y-14588484D02*
X12788158Y-14588484D01*
X12788158Y-14588484D02*
X12807205Y-14598008D01*
X12807205Y-14598008D02*
X12816729Y-14607531D01*
X12816729Y-14607531D02*
X12826253Y-14626579D01*
X12826253Y-14626579D02*
X12826253Y-14645627D01*
X12826253Y-14645627D02*
X12816729Y-14674198D01*
X12816729Y-14674198D02*
X12702443Y-14788484D01*
X12702443Y-14788484D02*
X12826253Y-14788484D01*
X12997682Y-14655150D02*
X12997682Y-14788484D01*
X12950062Y-14578960D02*
X12902443Y-14721817D01*
X12902443Y-14721817D02*
X13026253Y-14721817D01*
X13140539Y-14588484D02*
X13159586Y-14588484D01*
X13159586Y-14588484D02*
X13178634Y-14598008D01*
X13178634Y-14598008D02*
X13188158Y-14607531D01*
X13188158Y-14607531D02*
X13197682Y-14626579D01*
X13197682Y-14626579D02*
X13207205Y-14664674D01*
X13207205Y-14664674D02*
X13207205Y-14712293D01*
X13207205Y-14712293D02*
X13197682Y-14750388D01*
X13197682Y-14750388D02*
X13188158Y-14769436D01*
X13188158Y-14769436D02*
X13178634Y-14778960D01*
X13178634Y-14778960D02*
X13159586Y-14788484D01*
X13159586Y-14788484D02*
X13140539Y-14788484D01*
X13140539Y-14788484D02*
X13121491Y-14778960D01*
X13121491Y-14778960D02*
X13111967Y-14769436D01*
X13111967Y-14769436D02*
X13102443Y-14750388D01*
X13102443Y-14750388D02*
X13092920Y-14712293D01*
X13092920Y-14712293D02*
X13092920Y-14664674D01*
X13092920Y-14664674D02*
X13102443Y-14626579D01*
X13102443Y-14626579D02*
X13111967Y-14607531D01*
X13111967Y-14607531D02*
X13121491Y-14598008D01*
X13121491Y-14598008D02*
X13140539Y-14588484D01*
X13292920Y-14788484D02*
X13292920Y-14655150D01*
X13292920Y-14674198D02*
X13302443Y-14664674D01*
X13302443Y-14664674D02*
X13321491Y-14655150D01*
X13321491Y-14655150D02*
X13350063Y-14655150D01*
X13350063Y-14655150D02*
X13369110Y-14664674D01*
X13369110Y-14664674D02*
X13378634Y-14683722D01*
X13378634Y-14683722D02*
X13378634Y-14788484D01*
X13378634Y-14683722D02*
X13388158Y-14664674D01*
X13388158Y-14664674D02*
X13407205Y-14655150D01*
X13407205Y-14655150D02*
X13435777Y-14655150D01*
X13435777Y-14655150D02*
X13454824Y-14664674D01*
X13454824Y-14664674D02*
X13464348Y-14683722D01*
X13464348Y-14683722D02*
X13464348Y-14788484D01*
X13559586Y-14788484D02*
X13559586Y-14655150D01*
X13559586Y-14674198D02*
X13569110Y-14664674D01*
X13569110Y-14664674D02*
X13588158Y-14655150D01*
X13588158Y-14655150D02*
X13616729Y-14655150D01*
X13616729Y-14655150D02*
X13635777Y-14664674D01*
X13635777Y-14664674D02*
X13645301Y-14683722D01*
X13645301Y-14683722D02*
X13645301Y-14788484D01*
X13645301Y-14683722D02*
X13654824Y-14664674D01*
X13654824Y-14664674D02*
X13673872Y-14655150D01*
X13673872Y-14655150D02*
X13702443Y-14655150D01*
X13702443Y-14655150D02*
X13721491Y-14664674D01*
X13721491Y-14664674D02*
X13731015Y-14683722D01*
X13731015Y-14683722D02*
X13731015Y-14788484D01*
X14121491Y-14578960D02*
X13950063Y-14836103D01*
X14378634Y-14588484D02*
X14397682Y-14588484D01*
X14397682Y-14588484D02*
X14416729Y-14598008D01*
X14416729Y-14598008D02*
X14426253Y-14607531D01*
X14426253Y-14607531D02*
X14435777Y-14626579D01*
X14435777Y-14626579D02*
X14445301Y-14664674D01*
X14445301Y-14664674D02*
X14445301Y-14712293D01*
X14445301Y-14712293D02*
X14435777Y-14750388D01*
X14435777Y-14750388D02*
X14426253Y-14769436D01*
X14426253Y-14769436D02*
X14416729Y-14778960D01*
X14416729Y-14778960D02*
X14397682Y-14788484D01*
X14397682Y-14788484D02*
X14378634Y-14788484D01*
X14378634Y-14788484D02*
X14359586Y-14778960D01*
X14359586Y-14778960D02*
X14350063Y-14769436D01*
X14350063Y-14769436D02*
X14340539Y-14750388D01*
X14340539Y-14750388D02*
X14331015Y-14712293D01*
X14331015Y-14712293D02*
X14331015Y-14664674D01*
X14331015Y-14664674D02*
X14340539Y-14626579D01*
X14340539Y-14626579D02*
X14350063Y-14607531D01*
X14350063Y-14607531D02*
X14359586Y-14598008D01*
X14359586Y-14598008D02*
X14378634Y-14588484D01*
X14531015Y-14769436D02*
X14540539Y-14778960D01*
X14540539Y-14778960D02*
X14531015Y-14788484D01*
X14531015Y-14788484D02*
X14521491Y-14778960D01*
X14521491Y-14778960D02*
X14531015Y-14769436D01*
X14531015Y-14769436D02*
X14531015Y-14788484D01*
X14664348Y-14588484D02*
X14683396Y-14588484D01*
X14683396Y-14588484D02*
X14702444Y-14598008D01*
X14702444Y-14598008D02*
X14711967Y-14607531D01*
X14711967Y-14607531D02*
X14721491Y-14626579D01*
X14721491Y-14626579D02*
X14731015Y-14664674D01*
X14731015Y-14664674D02*
X14731015Y-14712293D01*
X14731015Y-14712293D02*
X14721491Y-14750388D01*
X14721491Y-14750388D02*
X14711967Y-14769436D01*
X14711967Y-14769436D02*
X14702444Y-14778960D01*
X14702444Y-14778960D02*
X14683396Y-14788484D01*
X14683396Y-14788484D02*
X14664348Y-14788484D01*
X14664348Y-14788484D02*
X14645301Y-14778960D01*
X14645301Y-14778960D02*
X14635777Y-14769436D01*
X14635777Y-14769436D02*
X14626253Y-14750388D01*
X14626253Y-14750388D02*
X14616729Y-14712293D01*
X14616729Y-14712293D02*
X14616729Y-14664674D01*
X14616729Y-14664674D02*
X14626253Y-14626579D01*
X14626253Y-14626579D02*
X14635777Y-14607531D01*
X14635777Y-14607531D02*
X14645301Y-14598008D01*
X14645301Y-14598008D02*
X14664348Y-14588484D01*
X14902444Y-14655150D02*
X14902444Y-14788484D01*
X14854825Y-14578960D02*
X14807206Y-14721817D01*
X14807206Y-14721817D02*
X14931015Y-14721817D01*
X15035777Y-14674198D02*
X15016729Y-14664674D01*
X15016729Y-14664674D02*
X15007206Y-14655150D01*
X15007206Y-14655150D02*
X14997682Y-14636103D01*
X14997682Y-14636103D02*
X14997682Y-14626579D01*
X14997682Y-14626579D02*
X15007206Y-14607531D01*
X15007206Y-14607531D02*
X15016729Y-14598008D01*
X15016729Y-14598008D02*
X15035777Y-14588484D01*
X15035777Y-14588484D02*
X15073872Y-14588484D01*
X15073872Y-14588484D02*
X15092920Y-14598008D01*
X15092920Y-14598008D02*
X15102444Y-14607531D01*
X15102444Y-14607531D02*
X15111967Y-14626579D01*
X15111967Y-14626579D02*
X15111967Y-14636103D01*
X15111967Y-14636103D02*
X15102444Y-14655150D01*
X15102444Y-14655150D02*
X15092920Y-14664674D01*
X15092920Y-14664674D02*
X15073872Y-14674198D01*
X15073872Y-14674198D02*
X15035777Y-14674198D01*
X15035777Y-14674198D02*
X15016729Y-14683722D01*
X15016729Y-14683722D02*
X15007206Y-14693246D01*
X15007206Y-14693246D02*
X14997682Y-14712293D01*
X14997682Y-14712293D02*
X14997682Y-14750388D01*
X14997682Y-14750388D02*
X15007206Y-14769436D01*
X15007206Y-14769436D02*
X15016729Y-14778960D01*
X15016729Y-14778960D02*
X15035777Y-14788484D01*
X15035777Y-14788484D02*
X15073872Y-14788484D01*
X15073872Y-14788484D02*
X15092920Y-14778960D01*
X15092920Y-14778960D02*
X15102444Y-14769436D01*
X15102444Y-14769436D02*
X15111967Y-14750388D01*
X15111967Y-14750388D02*
X15111967Y-14712293D01*
X15111967Y-14712293D02*
X15102444Y-14693246D01*
X15102444Y-14693246D02*
X15092920Y-14683722D01*
X15092920Y-14683722D02*
X15073872Y-14674198D01*
X15226253Y-14674198D02*
X15207206Y-14664674D01*
X15207206Y-14664674D02*
X15197682Y-14655150D01*
X15197682Y-14655150D02*
X15188158Y-14636103D01*
X15188158Y-14636103D02*
X15188158Y-14626579D01*
X15188158Y-14626579D02*
X15197682Y-14607531D01*
X15197682Y-14607531D02*
X15207206Y-14598008D01*
X15207206Y-14598008D02*
X15226253Y-14588484D01*
X15226253Y-14588484D02*
X15264348Y-14588484D01*
X15264348Y-14588484D02*
X15283396Y-14598008D01*
X15283396Y-14598008D02*
X15292920Y-14607531D01*
X15292920Y-14607531D02*
X15302444Y-14626579D01*
X15302444Y-14626579D02*
X15302444Y-14636103D01*
X15302444Y-14636103D02*
X15292920Y-14655150D01*
X15292920Y-14655150D02*
X15283396Y-14664674D01*
X15283396Y-14664674D02*
X15264348Y-14674198D01*
X15264348Y-14674198D02*
X15226253Y-14674198D01*
X15226253Y-14674198D02*
X15207206Y-14683722D01*
X15207206Y-14683722D02*
X15197682Y-14693246D01*
X15197682Y-14693246D02*
X15188158Y-14712293D01*
X15188158Y-14712293D02*
X15188158Y-14750388D01*
X15188158Y-14750388D02*
X15197682Y-14769436D01*
X15197682Y-14769436D02*
X15207206Y-14778960D01*
X15207206Y-14778960D02*
X15226253Y-14788484D01*
X15226253Y-14788484D02*
X15264348Y-14788484D01*
X15264348Y-14788484D02*
X15283396Y-14778960D01*
X15283396Y-14778960D02*
X15292920Y-14769436D01*
X15292920Y-14769436D02*
X15302444Y-14750388D01*
X15302444Y-14750388D02*
X15302444Y-14712293D01*
X15302444Y-14712293D02*
X15292920Y-14693246D01*
X15292920Y-14693246D02*
X15283396Y-14683722D01*
X15283396Y-14683722D02*
X15264348Y-14674198D01*
X15378634Y-14588484D02*
X15378634Y-14626579D01*
X15454825Y-14588484D02*
X15454825Y-14626579D01*
X15750063Y-14864674D02*
X15740539Y-14855150D01*
X15740539Y-14855150D02*
X15721491Y-14826579D01*
X15721491Y-14826579D02*
X15711968Y-14807531D01*
X15711968Y-14807531D02*
X15702444Y-14778960D01*
X15702444Y-14778960D02*
X15692920Y-14731341D01*
X15692920Y-14731341D02*
X15692920Y-14693246D01*
X15692920Y-14693246D02*
X15702444Y-14645627D01*
X15702444Y-14645627D02*
X15711968Y-14617055D01*
X15711968Y-14617055D02*
X15721491Y-14598008D01*
X15721491Y-14598008D02*
X15740539Y-14569436D01*
X15740539Y-14569436D02*
X15750063Y-14559912D01*
X15911968Y-14655150D02*
X15911968Y-14788484D01*
X15864348Y-14578960D02*
X15816729Y-14721817D01*
X15816729Y-14721817D02*
X15940539Y-14721817D01*
X16045301Y-14674198D02*
X16026253Y-14664674D01*
X16026253Y-14664674D02*
X16016729Y-14655150D01*
X16016729Y-14655150D02*
X16007206Y-14636103D01*
X16007206Y-14636103D02*
X16007206Y-14626579D01*
X16007206Y-14626579D02*
X16016729Y-14607531D01*
X16016729Y-14607531D02*
X16026253Y-14598008D01*
X16026253Y-14598008D02*
X16045301Y-14588484D01*
X16045301Y-14588484D02*
X16083396Y-14588484D01*
X16083396Y-14588484D02*
X16102444Y-14598008D01*
X16102444Y-14598008D02*
X16111968Y-14607531D01*
X16111968Y-14607531D02*
X16121491Y-14626579D01*
X16121491Y-14626579D02*
X16121491Y-14636103D01*
X16121491Y-14636103D02*
X16111968Y-14655150D01*
X16111968Y-14655150D02*
X16102444Y-14664674D01*
X16102444Y-14664674D02*
X16083396Y-14674198D01*
X16083396Y-14674198D02*
X16045301Y-14674198D01*
X16045301Y-14674198D02*
X16026253Y-14683722D01*
X16026253Y-14683722D02*
X16016729Y-14693246D01*
X16016729Y-14693246D02*
X16007206Y-14712293D01*
X16007206Y-14712293D02*
X16007206Y-14750388D01*
X16007206Y-14750388D02*
X16016729Y-14769436D01*
X16016729Y-14769436D02*
X16026253Y-14778960D01*
X16026253Y-14778960D02*
X16045301Y-14788484D01*
X16045301Y-14788484D02*
X16083396Y-14788484D01*
X16083396Y-14788484D02*
X16102444Y-14778960D01*
X16102444Y-14778960D02*
X16111968Y-14769436D01*
X16111968Y-14769436D02*
X16121491Y-14750388D01*
X16121491Y-14750388D02*
X16121491Y-14712293D01*
X16121491Y-14712293D02*
X16111968Y-14693246D01*
X16111968Y-14693246D02*
X16102444Y-14683722D01*
X16102444Y-14683722D02*
X16083396Y-14674198D01*
X16359587Y-14788484D02*
X16359587Y-14588484D01*
X16445301Y-14788484D02*
X16445301Y-14683722D01*
X16445301Y-14683722D02*
X16435777Y-14664674D01*
X16435777Y-14664674D02*
X16416730Y-14655150D01*
X16416730Y-14655150D02*
X16388158Y-14655150D01*
X16388158Y-14655150D02*
X16369110Y-14664674D01*
X16369110Y-14664674D02*
X16359587Y-14674198D01*
X16569110Y-14788484D02*
X16550063Y-14778960D01*
X16550063Y-14778960D02*
X16540539Y-14769436D01*
X16540539Y-14769436D02*
X16531015Y-14750388D01*
X16531015Y-14750388D02*
X16531015Y-14693246D01*
X16531015Y-14693246D02*
X16540539Y-14674198D01*
X16540539Y-14674198D02*
X16550063Y-14664674D01*
X16550063Y-14664674D02*
X16569110Y-14655150D01*
X16569110Y-14655150D02*
X16597682Y-14655150D01*
X16597682Y-14655150D02*
X16616730Y-14664674D01*
X16616730Y-14664674D02*
X16626253Y-14674198D01*
X16626253Y-14674198D02*
X16635777Y-14693246D01*
X16635777Y-14693246D02*
X16635777Y-14750388D01*
X16635777Y-14750388D02*
X16626253Y-14769436D01*
X16626253Y-14769436D02*
X16616730Y-14778960D01*
X16616730Y-14778960D02*
X16597682Y-14788484D01*
X16597682Y-14788484D02*
X16569110Y-14788484D01*
X16750063Y-14788484D02*
X16731015Y-14778960D01*
X16731015Y-14778960D02*
X16721491Y-14759912D01*
X16721491Y-14759912D02*
X16721491Y-14588484D01*
X16902444Y-14778960D02*
X16883396Y-14788484D01*
X16883396Y-14788484D02*
X16845301Y-14788484D01*
X16845301Y-14788484D02*
X16826253Y-14778960D01*
X16826253Y-14778960D02*
X16816730Y-14759912D01*
X16816730Y-14759912D02*
X16816730Y-14683722D01*
X16816730Y-14683722D02*
X16826253Y-14664674D01*
X16826253Y-14664674D02*
X16845301Y-14655150D01*
X16845301Y-14655150D02*
X16883396Y-14655150D01*
X16883396Y-14655150D02*
X16902444Y-14664674D01*
X16902444Y-14664674D02*
X16911968Y-14683722D01*
X16911968Y-14683722D02*
X16911968Y-14702769D01*
X16911968Y-14702769D02*
X16816730Y-14721817D01*
X16988158Y-14778960D02*
X17007206Y-14788484D01*
X17007206Y-14788484D02*
X17045301Y-14788484D01*
X17045301Y-14788484D02*
X17064349Y-14778960D01*
X17064349Y-14778960D02*
X17073873Y-14759912D01*
X17073873Y-14759912D02*
X17073873Y-14750388D01*
X17073873Y-14750388D02*
X17064349Y-14731341D01*
X17064349Y-14731341D02*
X17045301Y-14721817D01*
X17045301Y-14721817D02*
X17016730Y-14721817D01*
X17016730Y-14721817D02*
X16997682Y-14712293D01*
X16997682Y-14712293D02*
X16988158Y-14693246D01*
X16988158Y-14693246D02*
X16988158Y-14683722D01*
X16988158Y-14683722D02*
X16997682Y-14664674D01*
X16997682Y-14664674D02*
X17016730Y-14655150D01*
X17016730Y-14655150D02*
X17045301Y-14655150D01*
X17045301Y-14655150D02*
X17064349Y-14664674D01*
X17140539Y-14864674D02*
X17150063Y-14855150D01*
X17150063Y-14855150D02*
X17169111Y-14826579D01*
X17169111Y-14826579D02*
X17178634Y-14807531D01*
X17178634Y-14807531D02*
X17188158Y-14778960D01*
X17188158Y-14778960D02*
X17197682Y-14731341D01*
X17197682Y-14731341D02*
X17197682Y-14693246D01*
X17197682Y-14693246D02*
X17188158Y-14645627D01*
X17188158Y-14645627D02*
X17178634Y-14617055D01*
X17178634Y-14617055D02*
X17169111Y-14598008D01*
X17169111Y-14598008D02*
X17150063Y-14569436D01*
X17150063Y-14569436D02*
X17140539Y-14559912D01*
M02*
