G04 #@! TF.GenerationSoftware,KiCad,Pcbnew,7.0.7*
G04 #@! TF.CreationDate,2023-10-10T05:26:18-05:00*
G04 #@! TF.ProjectId,psio-qsb,7073696f-2d71-4736-922e-6b696361645f,rev?*
G04 #@! TF.SameCoordinates,Original*
G04 #@! TF.FileFunction,Copper,L2,Bot*
G04 #@! TF.FilePolarity,Positive*
%FSLAX46Y46*%
G04 Gerber Fmt 4.6, Leading zero omitted, Abs format (unit mm)*
G04 Created by KiCad (PCBNEW 7.0.7) date 2023-10-10 05:26:18*
%MOMM*%
%LPD*%
G01*
G04 APERTURE LIST*
G04 #@! TA.AperFunction,ComponentPad*
%ADD10C,1.640000*%
G04 #@! TD*
G04 #@! TA.AperFunction,ViaPad*
%ADD11C,0.600000*%
G04 #@! TD*
G04 #@! TA.AperFunction,ViaPad*
%ADD12C,0.500000*%
G04 #@! TD*
G04 #@! TA.AperFunction,ViaPad*
%ADD13C,0.800000*%
G04 #@! TD*
G04 #@! TA.AperFunction,Conductor*
%ADD14C,0.127000*%
G04 #@! TD*
G04 APERTURE END LIST*
D10*
X128500000Y-120360000D03*
X129770000Y-118450000D03*
X132310000Y-118450000D03*
X133580000Y-120360000D03*
X134850000Y-118450000D03*
X136120000Y-120360000D03*
X137390000Y-118450000D03*
X138660000Y-120360000D03*
X145010000Y-118450000D03*
X146280000Y-120360000D03*
X147550000Y-118450000D03*
X150090000Y-118450000D03*
X151360000Y-120360000D03*
X152630000Y-118450000D03*
X153900000Y-120360000D03*
X155170000Y-118450000D03*
X156440000Y-120360000D03*
X157710000Y-118450000D03*
X158980000Y-120360000D03*
X160250000Y-118450000D03*
X165330000Y-118450000D03*
X166600000Y-120360000D03*
X167870000Y-118450000D03*
X169140000Y-120360000D03*
X170410000Y-118450000D03*
X128500000Y-124180000D03*
X131040000Y-124180000D03*
X133580000Y-124180000D03*
X134850000Y-122270000D03*
X136120000Y-124180000D03*
X137390000Y-122270000D03*
X138660000Y-124180000D03*
X145010000Y-122270000D03*
X146280000Y-124180000D03*
X147550000Y-122270000D03*
X150090000Y-122270000D03*
X151360000Y-124180000D03*
X152630000Y-122270000D03*
X153900000Y-124180000D03*
X155170000Y-122270000D03*
X156440000Y-124180000D03*
X157710000Y-122270000D03*
X158980000Y-124180000D03*
X165330000Y-122270000D03*
X166600000Y-124180000D03*
X167870000Y-122270000D03*
X169140000Y-124180000D03*
X170410000Y-122270000D03*
D11*
X167470000Y-127250000D03*
X124290000Y-117090000D03*
X142070000Y-122170000D03*
X175090000Y-122170000D03*
X131910000Y-129790000D03*
X147150000Y-117090000D03*
X175090000Y-124710000D03*
X167470000Y-129790000D03*
X164930000Y-117090000D03*
X124290000Y-119630000D03*
X170010000Y-117090000D03*
X124290000Y-127250000D03*
X175090000Y-117090000D03*
X157310000Y-117090000D03*
X139530000Y-117090000D03*
X170010000Y-127250000D03*
X159850000Y-117090000D03*
X167470000Y-117090000D03*
X126830000Y-117090000D03*
X136990000Y-117090000D03*
X126830000Y-127250000D03*
X131910000Y-117090000D03*
X126830000Y-129790000D03*
X154770000Y-117090000D03*
X172550000Y-129790000D03*
X157310000Y-129790000D03*
X124290000Y-122170000D03*
X134450000Y-117090000D03*
X129370000Y-127250000D03*
X172550000Y-119630000D03*
X162390000Y-124710000D03*
X126830000Y-122170000D03*
X129370000Y-117090000D03*
X162390000Y-117090000D03*
X126830000Y-124710000D03*
X175090000Y-127250000D03*
X172550000Y-127250000D03*
X142070000Y-117090000D03*
X142070000Y-129790000D03*
X164930000Y-129790000D03*
X144610000Y-117090000D03*
X144610000Y-129790000D03*
X152230000Y-129790000D03*
X172550000Y-124710000D03*
X172550000Y-122170000D03*
X134450000Y-129790000D03*
X154770000Y-129790000D03*
X129370000Y-129790000D03*
X126830000Y-119630000D03*
X147150000Y-129790000D03*
X172550000Y-117090000D03*
X124290000Y-124710000D03*
X170010000Y-129790000D03*
X139530000Y-129790000D03*
X162390000Y-119630000D03*
X136990000Y-127250000D03*
X175090000Y-119630000D03*
X142070000Y-119630000D03*
D12*
X140700000Y-128275000D03*
X141200000Y-128700000D03*
X142200000Y-128700000D03*
X143200000Y-128700000D03*
X144200000Y-128700000D03*
D13*
X150100000Y-128975000D03*
D12*
X147200000Y-128700000D03*
X149200000Y-128700000D03*
X151325000Y-128800000D03*
X153200000Y-128700000D03*
X154200000Y-128700000D03*
X155700000Y-128275000D03*
X157200000Y-128700000D03*
X158700000Y-128275000D03*
X140200000Y-128700000D03*
X141700000Y-128275000D03*
X145700000Y-128275000D03*
X146700000Y-128275000D03*
X151700000Y-128275000D03*
X152700000Y-128275000D03*
X153700000Y-128275000D03*
X155200000Y-128700000D03*
X158193982Y-129450000D03*
D14*
X132310000Y-124785000D02*
X132310000Y-118450000D01*
X133614300Y-126089300D02*
X132310000Y-124785000D01*
X140700000Y-128275000D02*
X138514300Y-126089300D01*
X138514300Y-126089300D02*
X133614300Y-126089300D01*
X134850000Y-120700000D02*
X133725000Y-121825000D01*
X133725000Y-122750000D02*
X134650000Y-123675000D01*
X134850000Y-118450000D02*
X134850000Y-120700000D01*
X134650000Y-123675000D02*
X134650000Y-124700000D01*
X141200000Y-128149300D02*
X141200000Y-128700000D01*
X133725000Y-121825000D02*
X133725000Y-122750000D01*
X134650000Y-124700000D02*
X135468100Y-125518100D01*
X138568800Y-125518100D02*
X141200000Y-128149300D01*
X135468100Y-125518100D02*
X138568800Y-125518100D01*
X138175000Y-123075000D02*
X139148350Y-123075000D01*
X142200000Y-126126650D02*
X142200000Y-128700000D01*
X136120000Y-120360000D02*
X136120000Y-122595000D01*
X136120000Y-122595000D02*
X137000000Y-123475000D01*
X137775000Y-123475000D02*
X138175000Y-123075000D01*
X139148350Y-123075000D02*
X142200000Y-126126650D01*
X137000000Y-123475000D02*
X137775000Y-123475000D01*
X143200000Y-126469600D02*
X137390000Y-120659600D01*
X143200000Y-128700000D02*
X143200000Y-126469600D01*
X137390000Y-120659600D02*
X137390000Y-118450000D01*
X144200000Y-125900000D02*
X138660000Y-120360000D01*
X144200000Y-128700000D02*
X144200000Y-125900000D01*
X152630000Y-118450000D02*
X152630000Y-117980000D01*
X152630000Y-117980000D02*
X151600000Y-116950000D01*
X151600000Y-116950000D02*
X149050000Y-116950000D01*
X148675000Y-124500000D02*
X147200000Y-125975000D01*
X148675000Y-117325000D02*
X148675000Y-124500000D01*
X147200000Y-125975000D02*
X147200000Y-128700000D01*
X149050000Y-116950000D02*
X148675000Y-117325000D01*
X151000000Y-117225000D02*
X149134210Y-117225000D01*
X149134210Y-117225000D02*
X148929000Y-117430210D01*
X151400000Y-118850000D02*
X151400000Y-117625000D01*
X155170000Y-118450000D02*
X154225000Y-118450000D01*
X148929000Y-125654000D02*
X149200000Y-125925000D01*
X148929000Y-117430210D02*
X148929000Y-125654000D01*
X152125000Y-119575000D02*
X151400000Y-118850000D01*
X154225000Y-118450000D02*
X153100000Y-119575000D01*
X153100000Y-119575000D02*
X152125000Y-119575000D01*
X149200000Y-125925000D02*
X149200000Y-128700000D01*
X151400000Y-117625000D02*
X151000000Y-117225000D01*
X155225000Y-124575000D02*
X155225000Y-123924900D01*
X155225000Y-123924900D02*
X156440000Y-122709900D01*
X151965500Y-127834500D02*
X155225000Y-124575000D01*
X151517538Y-127834500D02*
X151965500Y-127834500D01*
X151325000Y-128800000D02*
X151250500Y-128725500D01*
X151250500Y-128725500D02*
X151250500Y-128101538D01*
X151250500Y-128101538D02*
X151517538Y-127834500D01*
X156440000Y-122709900D02*
X156440000Y-120360000D01*
X154861100Y-126482100D02*
X156267900Y-126482100D01*
X157966700Y-124783300D02*
X157966700Y-123723000D01*
X158980000Y-122709700D02*
X158980000Y-120360000D01*
X153200000Y-128700000D02*
X153200000Y-128143200D01*
X156267900Y-126482100D02*
X157966700Y-124783300D01*
X157966700Y-123723000D02*
X158980000Y-122709700D01*
X153200000Y-128143200D02*
X154861100Y-126482100D01*
X154622300Y-127712400D02*
X154200000Y-128134700D01*
X160250000Y-124341800D02*
X156879400Y-127712400D01*
X160250000Y-118450000D02*
X160250000Y-124341800D01*
X156879400Y-127712400D02*
X154622300Y-127712400D01*
X154200000Y-128134700D02*
X154200000Y-128700000D01*
X155847300Y-128127700D02*
X155700000Y-128275000D01*
X156897400Y-128127700D02*
X155847300Y-128127700D01*
X164665100Y-120360000D02*
X156897400Y-128127700D01*
X166600000Y-120360000D02*
X164665100Y-120360000D01*
X165725000Y-121100000D02*
X166125000Y-121500000D01*
X157200000Y-128700000D02*
X157200000Y-128273300D01*
X157200000Y-128273300D02*
X164373300Y-121100000D01*
X167870000Y-120755000D02*
X167870000Y-118450000D01*
X167125000Y-121500000D02*
X167870000Y-120755000D01*
X164373300Y-121100000D02*
X165725000Y-121100000D01*
X166125000Y-121500000D02*
X167125000Y-121500000D01*
X167875000Y-123805000D02*
X167875000Y-124725000D01*
X164934900Y-127665100D02*
X159309900Y-127665100D01*
X167875000Y-124725000D02*
X164934900Y-127665100D01*
X169140000Y-120360000D02*
X169140000Y-122540000D01*
X169140000Y-122540000D02*
X167875000Y-123805000D01*
X159309900Y-127665100D02*
X158700000Y-128275000D01*
X140200000Y-128700000D02*
X140146400Y-128753600D01*
X135613600Y-128753600D02*
X131040000Y-124180000D01*
X140146400Y-128753600D02*
X135613600Y-128753600D01*
X141700000Y-128275000D02*
X138617400Y-125192400D01*
X135050400Y-122470400D02*
X134850000Y-122270000D01*
X135050400Y-124548900D02*
X135050400Y-122470400D01*
X135693900Y-125192400D02*
X135050400Y-124548900D01*
X138617400Y-125192400D02*
X135693900Y-125192400D01*
X145700000Y-128275000D02*
X145010000Y-127585000D01*
X145010000Y-127585000D02*
X145010000Y-122270000D01*
X146700000Y-124600000D02*
X146280000Y-124180000D01*
X146700000Y-128275000D02*
X146700000Y-124600000D01*
X156172038Y-124180000D02*
X156440000Y-124180000D01*
X151700000Y-128275000D02*
X152077038Y-128275000D01*
X152077038Y-128275000D02*
X156172038Y-124180000D01*
X155101200Y-125811300D02*
X152700000Y-128212500D01*
X157710000Y-122270000D02*
X157710000Y-124540000D01*
X152700000Y-128212500D02*
X152700000Y-128275000D01*
X156438700Y-125811300D02*
X155101200Y-125811300D01*
X157710000Y-124540000D02*
X156438700Y-125811300D01*
X153700000Y-128163200D02*
X154890200Y-126973000D01*
X156187000Y-126973000D02*
X158980000Y-124180000D01*
X154890200Y-126973000D02*
X156187000Y-126973000D01*
X153700000Y-128275000D02*
X153700000Y-128163200D01*
X155655500Y-129155500D02*
X157370200Y-129155500D01*
X163642200Y-122270000D02*
X165330000Y-122270000D01*
X157370200Y-129155500D02*
X157703300Y-128822400D01*
X157703300Y-128822400D02*
X157703300Y-128208900D01*
X155200000Y-128700000D02*
X155655500Y-129155500D01*
X157703300Y-128208900D02*
X163642200Y-122270000D01*
X158193982Y-129450000D02*
X158259500Y-129384482D01*
X158259500Y-128054600D02*
X159317400Y-126996700D01*
X162245700Y-126996700D02*
X166972400Y-122270000D01*
X166972400Y-122270000D02*
X167870000Y-122270000D01*
X158259500Y-129384482D02*
X158259500Y-128054600D01*
X159317400Y-126996700D02*
X162245700Y-126996700D01*
G04 #@! TA.AperFunction,Conductor*
G36*
X164318738Y-122553685D02*
G01*
X164364493Y-122606489D01*
X164370359Y-122622004D01*
X164381203Y-122657751D01*
X164382619Y-122662418D01*
X164477378Y-122839701D01*
X164477381Y-122839706D01*
X164604905Y-122995094D01*
X164760293Y-123122618D01*
X164760297Y-123122621D01*
X164937582Y-123217381D01*
X165129947Y-123275734D01*
X165129946Y-123275734D01*
X165173361Y-123280010D01*
X165290853Y-123291582D01*
X165355640Y-123317743D01*
X165395999Y-123374777D01*
X165399116Y-123444577D01*
X165366380Y-123502666D01*
X162172667Y-126696381D01*
X162111344Y-126729866D01*
X162084986Y-126732700D01*
X159852214Y-126732700D01*
X159785175Y-126713015D01*
X159739420Y-126660211D01*
X159729476Y-126591053D01*
X159758501Y-126527497D01*
X159764533Y-126521019D01*
X163715233Y-122570319D01*
X163776556Y-122536834D01*
X163802914Y-122534000D01*
X164251699Y-122534000D01*
X164318738Y-122553685D01*
G37*
G04 #@! TD.AperFunction*
G04 #@! TA.AperFunction,Conductor*
G36*
X138420625Y-126372985D02*
G01*
X138441267Y-126389619D01*
X140115708Y-128064060D01*
X140149193Y-128125383D01*
X140144209Y-128195075D01*
X140102337Y-128251008D01*
X140062962Y-128270718D01*
X140010934Y-128285994D01*
X139901950Y-128356033D01*
X139853990Y-128411384D01*
X139823299Y-128446802D01*
X139764523Y-128484577D01*
X139729587Y-128489600D01*
X135774314Y-128489600D01*
X135707275Y-128469915D01*
X135686633Y-128453281D01*
X133798333Y-126564981D01*
X133764848Y-126503658D01*
X133769832Y-126433966D01*
X133811704Y-126378033D01*
X133877168Y-126353616D01*
X133886014Y-126353300D01*
X138353586Y-126353300D01*
X138420625Y-126372985D01*
G37*
G04 #@! TD.AperFunction*
G04 #@! TA.AperFunction,Conductor*
G36*
X176993039Y-114669685D02*
G01*
X177038794Y-114722489D01*
X177050000Y-114774000D01*
X177050000Y-128926000D01*
X177030315Y-128993039D01*
X176977511Y-129038794D01*
X176926000Y-129050000D01*
X173250000Y-129050000D01*
X173250000Y-132426000D01*
X173230315Y-132493039D01*
X173177511Y-132538794D01*
X173126000Y-132550000D01*
X125774000Y-132550000D01*
X125706961Y-132530315D01*
X125661206Y-132477511D01*
X125650000Y-132426000D01*
X125650000Y-129100000D01*
X121974000Y-129100000D01*
X121906961Y-129080315D01*
X121861206Y-129027511D01*
X121850000Y-128976000D01*
X121850000Y-124180000D01*
X130014562Y-124180000D01*
X130034265Y-124380051D01*
X130067209Y-124488654D01*
X130092619Y-124572418D01*
X130187379Y-124749703D01*
X130187381Y-124749706D01*
X130314905Y-124905094D01*
X130469624Y-125032069D01*
X130470297Y-125032621D01*
X130647582Y-125127381D01*
X130839947Y-125185734D01*
X130839946Y-125185734D01*
X130857883Y-125187500D01*
X131040000Y-125205438D01*
X131240053Y-125185734D01*
X131432418Y-125127381D01*
X131469662Y-125107473D01*
X131538062Y-125093229D01*
X131603306Y-125118228D01*
X131615797Y-125129149D01*
X135399899Y-128913251D01*
X135415319Y-128932039D01*
X135423266Y-128943932D01*
X135423267Y-128943933D01*
X135510592Y-129002283D01*
X135587598Y-129017600D01*
X135587600Y-129017600D01*
X135593568Y-129018787D01*
X135593571Y-129018787D01*
X135613600Y-129022771D01*
X135627622Y-129019981D01*
X135651811Y-129017600D01*
X139825272Y-129017600D01*
X139892311Y-129037285D01*
X139896907Y-129040725D01*
X139901950Y-129043965D01*
X139901951Y-129043967D01*
X140010931Y-129114004D01*
X140134830Y-129150383D01*
X140135225Y-129150499D01*
X140135227Y-129150500D01*
X140135228Y-129150500D01*
X140264773Y-129150500D01*
X140264773Y-129150499D01*
X140389069Y-129114004D01*
X140498049Y-129043967D01*
X140582882Y-128946063D01*
X140587205Y-128936595D01*
X140632961Y-128883791D01*
X140700000Y-128864107D01*
X140767040Y-128883792D01*
X140812794Y-128936595D01*
X140817118Y-128946063D01*
X140865832Y-129002283D01*
X140900285Y-129042045D01*
X140901951Y-129043967D01*
X141010931Y-129114004D01*
X141134830Y-129150383D01*
X141135225Y-129150499D01*
X141135227Y-129150500D01*
X141135228Y-129150500D01*
X141264773Y-129150500D01*
X141264773Y-129150499D01*
X141389069Y-129114004D01*
X141498049Y-129043967D01*
X141582882Y-128946063D01*
X141587205Y-128936595D01*
X141632961Y-128883791D01*
X141700000Y-128864107D01*
X141767040Y-128883792D01*
X141812794Y-128936595D01*
X141817118Y-128946063D01*
X141865832Y-129002283D01*
X141900285Y-129042045D01*
X141901951Y-129043967D01*
X142010931Y-129114004D01*
X142134830Y-129150383D01*
X142135225Y-129150499D01*
X142135227Y-129150500D01*
X142135228Y-129150500D01*
X142264773Y-129150500D01*
X142264773Y-129150499D01*
X142389069Y-129114004D01*
X142498049Y-129043967D01*
X142582882Y-128946063D01*
X142587205Y-128936595D01*
X142632961Y-128883791D01*
X142700000Y-128864107D01*
X142767040Y-128883792D01*
X142812794Y-128936595D01*
X142817118Y-128946063D01*
X142865832Y-129002283D01*
X142900285Y-129042045D01*
X142901951Y-129043967D01*
X143010931Y-129114004D01*
X143134830Y-129150383D01*
X143135225Y-129150499D01*
X143135227Y-129150500D01*
X143135228Y-129150500D01*
X143264773Y-129150500D01*
X143264773Y-129150499D01*
X143389069Y-129114004D01*
X143498049Y-129043967D01*
X143582882Y-128946063D01*
X143587205Y-128936595D01*
X143632961Y-128883791D01*
X143700000Y-128864107D01*
X143767040Y-128883792D01*
X143812794Y-128936595D01*
X143817118Y-128946063D01*
X143865832Y-129002283D01*
X143900285Y-129042045D01*
X143901951Y-129043967D01*
X144010931Y-129114004D01*
X144134830Y-129150383D01*
X144135225Y-129150499D01*
X144135227Y-129150500D01*
X144135228Y-129150500D01*
X144264773Y-129150500D01*
X144264773Y-129150499D01*
X144389069Y-129114004D01*
X144498049Y-129043967D01*
X144582882Y-128946063D01*
X144636697Y-128828226D01*
X144655133Y-128700000D01*
X144636697Y-128571774D01*
X144582882Y-128453937D01*
X144498049Y-128356033D01*
X144494286Y-128351690D01*
X144465262Y-128288134D01*
X144464000Y-128270488D01*
X144464000Y-125938211D01*
X144466382Y-125914022D01*
X144469171Y-125900000D01*
X144464000Y-125874001D01*
X144464000Y-125873998D01*
X144448683Y-125796992D01*
X144390333Y-125709667D01*
X144390332Y-125709666D01*
X144378439Y-125701719D01*
X144359651Y-125686299D01*
X140943352Y-122270000D01*
X143984562Y-122270000D01*
X144004265Y-122470051D01*
X144017597Y-122514001D01*
X144062619Y-122662418D01*
X144157378Y-122839701D01*
X144157381Y-122839706D01*
X144284905Y-122995094D01*
X144440293Y-123122618D01*
X144440297Y-123122621D01*
X144617582Y-123217381D01*
X144657994Y-123229639D01*
X144716432Y-123267934D01*
X144744890Y-123331746D01*
X144746000Y-123348300D01*
X144746000Y-127546783D01*
X144743618Y-127570971D01*
X144740828Y-127584999D01*
X144740828Y-127585000D01*
X144746000Y-127611002D01*
X144761317Y-127688009D01*
X144819666Y-127775332D01*
X144819667Y-127775333D01*
X144831555Y-127783276D01*
X144850345Y-127798697D01*
X145211256Y-128159608D01*
X145244741Y-128220931D01*
X145246314Y-128264928D01*
X145244867Y-128274996D01*
X145244867Y-128274999D01*
X145263302Y-128403225D01*
X145293759Y-128469915D01*
X145317118Y-128521063D01*
X145367930Y-128579704D01*
X145398682Y-128615195D01*
X145401951Y-128618967D01*
X145510931Y-128689004D01*
X145635225Y-128725499D01*
X145635227Y-128725500D01*
X145635228Y-128725500D01*
X145764773Y-128725500D01*
X145764773Y-128725499D01*
X145889069Y-128689004D01*
X145998049Y-128618967D01*
X146082882Y-128521063D01*
X146087205Y-128511595D01*
X146132961Y-128458791D01*
X146200000Y-128439107D01*
X146267040Y-128458792D01*
X146312794Y-128511595D01*
X146317118Y-128521063D01*
X146367930Y-128579704D01*
X146398682Y-128615195D01*
X146401951Y-128618967D01*
X146510931Y-128689004D01*
X146635225Y-128725499D01*
X146635227Y-128725500D01*
X146635228Y-128725500D01*
X146641086Y-128725500D01*
X146708125Y-128745185D01*
X146753880Y-128797989D01*
X146760302Y-128819858D01*
X146760803Y-128819712D01*
X146763303Y-128828227D01*
X146808972Y-128928226D01*
X146817118Y-128946063D01*
X146865832Y-129002283D01*
X146900285Y-129042045D01*
X146901951Y-129043967D01*
X147010931Y-129114004D01*
X147134830Y-129150383D01*
X147135225Y-129150499D01*
X147135227Y-129150500D01*
X147135228Y-129150500D01*
X147264773Y-129150500D01*
X147264773Y-129150499D01*
X147389069Y-129114004D01*
X147498049Y-129043967D01*
X147582882Y-128946063D01*
X147636697Y-128828226D01*
X147655133Y-128700000D01*
X147636697Y-128571774D01*
X147582882Y-128453937D01*
X147498049Y-128356033D01*
X147494286Y-128351690D01*
X147465262Y-128288134D01*
X147464000Y-128270488D01*
X147464000Y-126135713D01*
X147483685Y-126068674D01*
X147500319Y-126048032D01*
X148453319Y-125095032D01*
X148514642Y-125061547D01*
X148584334Y-125066531D01*
X148640267Y-125108403D01*
X148664684Y-125173867D01*
X148665000Y-125182713D01*
X148665000Y-125615783D01*
X148662618Y-125639971D01*
X148659828Y-125653999D01*
X148659828Y-125654000D01*
X148665000Y-125680002D01*
X148680317Y-125757009D01*
X148738666Y-125844332D01*
X148750555Y-125852276D01*
X148769339Y-125867691D01*
X148899682Y-125998033D01*
X148933166Y-126059354D01*
X148936000Y-126085713D01*
X148936000Y-128270488D01*
X148916315Y-128337527D01*
X148905714Y-128351690D01*
X148817118Y-128453937D01*
X148817117Y-128453938D01*
X148763302Y-128571774D01*
X148744867Y-128700000D01*
X148763302Y-128828225D01*
X148808972Y-128928226D01*
X148817118Y-128946063D01*
X148865832Y-129002283D01*
X148900285Y-129042045D01*
X148901951Y-129043967D01*
X149010931Y-129114004D01*
X149134830Y-129150383D01*
X149135225Y-129150499D01*
X149135227Y-129150500D01*
X149135228Y-129150500D01*
X149264772Y-129150500D01*
X149348636Y-129125876D01*
X149418505Y-129125876D01*
X149477283Y-129163650D01*
X149501904Y-129207799D01*
X149522470Y-129273478D01*
X149522471Y-129273483D01*
X149536872Y-129299855D01*
X149555956Y-129334805D01*
X149555958Y-129334808D01*
X149555960Y-129334811D01*
X149590998Y-129381615D01*
X149591002Y-129381619D01*
X149591009Y-129381629D01*
X149591016Y-129381636D01*
X149697266Y-129487886D01*
X149697269Y-129487888D01*
X149705448Y-129495237D01*
X149705446Y-129495236D01*
X149730376Y-129515325D01*
X149801424Y-129552490D01*
X149868456Y-129572173D01*
X149868458Y-129572173D01*
X149868464Y-129572175D01*
X149926362Y-129580500D01*
X150094549Y-129580500D01*
X150097326Y-129580682D01*
X150100000Y-129580682D01*
X150102674Y-129580682D01*
X150105451Y-129580500D01*
X150279138Y-129580500D01*
X150279142Y-129580500D01*
X150290134Y-129579911D01*
X150290142Y-129579910D01*
X150290144Y-129579910D01*
X150290145Y-129579910D01*
X150299637Y-129578889D01*
X150321965Y-129576488D01*
X150398482Y-129552529D01*
X150459805Y-129519044D01*
X150506629Y-129483991D01*
X150612883Y-129377737D01*
X150620235Y-129369554D01*
X150620237Y-129369552D01*
X150620236Y-129369554D01*
X150640325Y-129344623D01*
X150645520Y-129334693D01*
X150677490Y-129273575D01*
X150697175Y-129206536D01*
X150705500Y-129148638D01*
X150705500Y-129097959D01*
X150725185Y-129030921D01*
X150777989Y-128985166D01*
X150847147Y-128975222D01*
X150910703Y-129004247D01*
X150936713Y-129038995D01*
X150937324Y-129038603D01*
X150942116Y-129046059D01*
X150942118Y-129046063D01*
X151026951Y-129143967D01*
X151135931Y-129214004D01*
X151260225Y-129250499D01*
X151260227Y-129250500D01*
X151260228Y-129250500D01*
X151389773Y-129250500D01*
X151389773Y-129250499D01*
X151514069Y-129214004D01*
X151623049Y-129143967D01*
X151707882Y-129046063D01*
X151761697Y-128928226D01*
X151780133Y-128800000D01*
X151780132Y-128799998D01*
X151780652Y-128796387D01*
X151809677Y-128732831D01*
X151868451Y-128695057D01*
X151889069Y-128689004D01*
X151998049Y-128618967D01*
X152032071Y-128579701D01*
X152090846Y-128541929D01*
X152101575Y-128539291D01*
X152180046Y-128523683D01*
X152180048Y-128523681D01*
X152191330Y-128519009D01*
X152192101Y-128520872D01*
X152244004Y-128504619D01*
X152311385Y-128523101D01*
X152339936Y-128547397D01*
X152398684Y-128615197D01*
X152401951Y-128618967D01*
X152510931Y-128689004D01*
X152635225Y-128725499D01*
X152635227Y-128725500D01*
X152635228Y-128725500D01*
X152641086Y-128725500D01*
X152708125Y-128745185D01*
X152753880Y-128797989D01*
X152760302Y-128819858D01*
X152760803Y-128819712D01*
X152763303Y-128828227D01*
X152808972Y-128928226D01*
X152817118Y-128946063D01*
X152865832Y-129002283D01*
X152900285Y-129042045D01*
X152901951Y-129043967D01*
X153010931Y-129114004D01*
X153134830Y-129150383D01*
X153135225Y-129150499D01*
X153135227Y-129150500D01*
X153135228Y-129150500D01*
X153264773Y-129150500D01*
X153264773Y-129150499D01*
X153389069Y-129114004D01*
X153498049Y-129043967D01*
X153582882Y-128946063D01*
X153587205Y-128936595D01*
X153632961Y-128883791D01*
X153700000Y-128864107D01*
X153767040Y-128883792D01*
X153812794Y-128936595D01*
X153817118Y-128946063D01*
X153865832Y-129002283D01*
X153900285Y-129042045D01*
X153901951Y-129043967D01*
X154010931Y-129114004D01*
X154134830Y-129150383D01*
X154135225Y-129150499D01*
X154135227Y-129150500D01*
X154135228Y-129150500D01*
X154264773Y-129150500D01*
X154264773Y-129150499D01*
X154389069Y-129114004D01*
X154498049Y-129043967D01*
X154582882Y-128946063D01*
X154587205Y-128936595D01*
X154632961Y-128883791D01*
X154700000Y-128864107D01*
X154767040Y-128883792D01*
X154812794Y-128936595D01*
X154817118Y-128946063D01*
X154865832Y-129002283D01*
X154900285Y-129042045D01*
X154901951Y-129043967D01*
X155010931Y-129114004D01*
X155134830Y-129150383D01*
X155135225Y-129150499D01*
X155135227Y-129150500D01*
X155225786Y-129150500D01*
X155292825Y-129170185D01*
X155313467Y-129186819D01*
X155441799Y-129315151D01*
X155457219Y-129333939D01*
X155457723Y-129334693D01*
X155465167Y-129345833D01*
X155552492Y-129404183D01*
X155629498Y-129419500D01*
X155629500Y-129419500D01*
X155635468Y-129420687D01*
X155635471Y-129420687D01*
X155655500Y-129424671D01*
X155669522Y-129421881D01*
X155693711Y-129419500D01*
X157331987Y-129419500D01*
X157356177Y-129421882D01*
X157370200Y-129424672D01*
X157473208Y-129404183D01*
X157538490Y-129360562D01*
X157538490Y-129360561D01*
X157538494Y-129360559D01*
X157541218Y-129358740D01*
X157545941Y-129355583D01*
X157612615Y-129334693D01*
X157679998Y-129353166D01*
X157726697Y-129405137D01*
X157734973Y-129441597D01*
X157737587Y-129441222D01*
X157757284Y-129578225D01*
X157811099Y-129696061D01*
X157811100Y-129696063D01*
X157895933Y-129793967D01*
X158004913Y-129864004D01*
X158129207Y-129900499D01*
X158129209Y-129900500D01*
X158129210Y-129900500D01*
X158258755Y-129900500D01*
X158258755Y-129900499D01*
X158383051Y-129864004D01*
X158492031Y-129793967D01*
X158576864Y-129696063D01*
X158630679Y-129578226D01*
X158649115Y-129450000D01*
X158630679Y-129321774D01*
X158581462Y-129214005D01*
X158576865Y-129203939D01*
X158576864Y-129203938D01*
X158576864Y-129203937D01*
X158562032Y-129186819D01*
X158553785Y-129177301D01*
X158524762Y-129113745D01*
X158523500Y-129096101D01*
X158523500Y-128849500D01*
X158543185Y-128782461D01*
X158595989Y-128736706D01*
X158647500Y-128725500D01*
X158764773Y-128725500D01*
X158764773Y-128725499D01*
X158889069Y-128689004D01*
X158998049Y-128618967D01*
X159082882Y-128521063D01*
X159136697Y-128403226D01*
X159155133Y-128275000D01*
X159153686Y-128264939D01*
X159163626Y-128195784D01*
X159188737Y-128159614D01*
X159382934Y-127965416D01*
X159444257Y-127931934D01*
X159470614Y-127929100D01*
X164896687Y-127929100D01*
X164920877Y-127931482D01*
X164934900Y-127934272D01*
X165037908Y-127913783D01*
X165103190Y-127870162D01*
X165103190Y-127870161D01*
X165116910Y-127860994D01*
X165125233Y-127855433D01*
X165133175Y-127843545D01*
X165148594Y-127824756D01*
X168034655Y-124938695D01*
X168053446Y-124923275D01*
X168065333Y-124915333D01*
X168123683Y-124828008D01*
X168123683Y-124828006D01*
X168130468Y-124817853D01*
X168133041Y-124819572D01*
X168164808Y-124780145D01*
X168231100Y-124758074D01*
X168298801Y-124775347D01*
X168331390Y-124803330D01*
X168414905Y-124905094D01*
X168569624Y-125032069D01*
X168570297Y-125032621D01*
X168747582Y-125127381D01*
X168939947Y-125185734D01*
X168939946Y-125185734D01*
X168957883Y-125187500D01*
X169140000Y-125205438D01*
X169340053Y-125185734D01*
X169532418Y-125127381D01*
X169709703Y-125032621D01*
X169865094Y-124905094D01*
X169992621Y-124749703D01*
X170087381Y-124572418D01*
X170145734Y-124380053D01*
X170165438Y-124180000D01*
X170145734Y-123979947D01*
X170087381Y-123787582D01*
X169992621Y-123610297D01*
X169984120Y-123599938D01*
X169865094Y-123454905D01*
X169709706Y-123327381D01*
X169709704Y-123327380D01*
X169709703Y-123327379D01*
X169532418Y-123232619D01*
X169427412Y-123200766D01*
X169340051Y-123174265D01*
X169181328Y-123158632D01*
X169116541Y-123132471D01*
X169076183Y-123075436D01*
X169073066Y-123005636D01*
X169105800Y-122947550D01*
X169299655Y-122753695D01*
X169318446Y-122738275D01*
X169330333Y-122730333D01*
X169388683Y-122643008D01*
X169404000Y-122566002D01*
X169404000Y-122565998D01*
X169405188Y-122560027D01*
X169405189Y-122560020D01*
X169409171Y-122540001D01*
X169409171Y-122539999D01*
X169406382Y-122525976D01*
X169404000Y-122501788D01*
X169404000Y-121438300D01*
X169423685Y-121371261D01*
X169476489Y-121325506D01*
X169491996Y-121319642D01*
X169532418Y-121307381D01*
X169709703Y-121212621D01*
X169865094Y-121085094D01*
X169992621Y-120929703D01*
X170087381Y-120752418D01*
X170145734Y-120560053D01*
X170165438Y-120360000D01*
X170145734Y-120159947D01*
X170087381Y-119967582D01*
X169992621Y-119790297D01*
X169992618Y-119790293D01*
X169865094Y-119634905D01*
X169709706Y-119507381D01*
X169709704Y-119507380D01*
X169709703Y-119507379D01*
X169532418Y-119412619D01*
X169340053Y-119354266D01*
X169340050Y-119354265D01*
X169340053Y-119354265D01*
X169157936Y-119336328D01*
X169140000Y-119334562D01*
X169139999Y-119334562D01*
X168939948Y-119354265D01*
X168816995Y-119391562D01*
X168747582Y-119412619D01*
X168747580Y-119412619D01*
X168747580Y-119412620D01*
X168590590Y-119496532D01*
X168570671Y-119500678D01*
X168564756Y-119511286D01*
X168556527Y-119518679D01*
X168414903Y-119634908D01*
X168353853Y-119709298D01*
X168296107Y-119748632D01*
X168226262Y-119750503D01*
X168166494Y-119714315D01*
X168135778Y-119651559D01*
X168134000Y-119630633D01*
X168134000Y-119528300D01*
X168153685Y-119461261D01*
X168206489Y-119415506D01*
X168221996Y-119409642D01*
X168262418Y-119397381D01*
X168419410Y-119313467D01*
X168439326Y-119309320D01*
X168445243Y-119298712D01*
X168453473Y-119291320D01*
X168457848Y-119287730D01*
X168595094Y-119175094D01*
X168722621Y-119019703D01*
X168817381Y-118842418D01*
X168875734Y-118650053D01*
X168895438Y-118450000D01*
X168875734Y-118249947D01*
X168817381Y-118057582D01*
X168722621Y-117880297D01*
X168722618Y-117880293D01*
X168595094Y-117724905D01*
X168439706Y-117597381D01*
X168439704Y-117597380D01*
X168439703Y-117597379D01*
X168262418Y-117502619D01*
X168070053Y-117444266D01*
X168070050Y-117444265D01*
X168070053Y-117444265D01*
X167870000Y-117424562D01*
X167669948Y-117444265D01*
X167477582Y-117502619D01*
X167300293Y-117597381D01*
X167144905Y-117724905D01*
X167017381Y-117880293D01*
X166922619Y-118057582D01*
X166864265Y-118249948D01*
X166844562Y-118450000D01*
X166864265Y-118650051D01*
X166864266Y-118650053D01*
X166922619Y-118842418D01*
X167017379Y-119019703D01*
X167017381Y-119019706D01*
X167144905Y-119175094D01*
X167286526Y-119291320D01*
X167297303Y-119307141D01*
X167310612Y-119308693D01*
X167320586Y-119313465D01*
X167477582Y-119397381D01*
X167517994Y-119409639D01*
X167576432Y-119447934D01*
X167604890Y-119511746D01*
X167606000Y-119528300D01*
X167606000Y-119630633D01*
X167586315Y-119697672D01*
X167533511Y-119743427D01*
X167464353Y-119753371D01*
X167400797Y-119724346D01*
X167386147Y-119709298D01*
X167325094Y-119634905D01*
X167183473Y-119518679D01*
X167172695Y-119502857D01*
X167159387Y-119501306D01*
X167149408Y-119496531D01*
X166992421Y-119412620D01*
X166982591Y-119409638D01*
X166800053Y-119354266D01*
X166800050Y-119354265D01*
X166800053Y-119354265D01*
X166617936Y-119336328D01*
X166600000Y-119334562D01*
X166599999Y-119334562D01*
X166399948Y-119354265D01*
X166276995Y-119391562D01*
X166207582Y-119412619D01*
X166207580Y-119412619D01*
X166207580Y-119412620D01*
X166050590Y-119496532D01*
X166030671Y-119500678D01*
X166024756Y-119511286D01*
X166016527Y-119518679D01*
X165874903Y-119634908D01*
X165747381Y-119790293D01*
X165652617Y-119967586D01*
X165640359Y-120007996D01*
X165602061Y-120066434D01*
X165538249Y-120094891D01*
X165521699Y-120096000D01*
X164703313Y-120096000D01*
X164679122Y-120093617D01*
X164674011Y-120092600D01*
X164665101Y-120090828D01*
X164665100Y-120090828D01*
X164639098Y-120096000D01*
X164562091Y-120111317D01*
X164535797Y-120128886D01*
X164496810Y-120154937D01*
X164496806Y-120154940D01*
X164489313Y-120159947D01*
X164474766Y-120169667D01*
X164466821Y-120181557D01*
X164451403Y-120200342D01*
X160725681Y-123926065D01*
X160664358Y-123959550D01*
X160594666Y-123954566D01*
X160538733Y-123912694D01*
X160514316Y-123847230D01*
X160514000Y-123838384D01*
X160514000Y-119528300D01*
X160533685Y-119461261D01*
X160586489Y-119415506D01*
X160601996Y-119409642D01*
X160642418Y-119397381D01*
X160819703Y-119302621D01*
X160975094Y-119175094D01*
X161102621Y-119019703D01*
X161197381Y-118842418D01*
X161255734Y-118650053D01*
X161275438Y-118450000D01*
X164304562Y-118450000D01*
X164324265Y-118650051D01*
X164324266Y-118650053D01*
X164382619Y-118842418D01*
X164477379Y-119019703D01*
X164477381Y-119019706D01*
X164604905Y-119175094D01*
X164755534Y-119298712D01*
X164760297Y-119302621D01*
X164937582Y-119397381D01*
X165129947Y-119455734D01*
X165129946Y-119455734D01*
X165147883Y-119457500D01*
X165330000Y-119475438D01*
X165530053Y-119455734D01*
X165722418Y-119397381D01*
X165879410Y-119313467D01*
X165899326Y-119309320D01*
X165905243Y-119298712D01*
X165913473Y-119291320D01*
X165917848Y-119287730D01*
X166055094Y-119175094D01*
X166182621Y-119019703D01*
X166277381Y-118842418D01*
X166335734Y-118650053D01*
X166355438Y-118450000D01*
X166335734Y-118249947D01*
X166277381Y-118057582D01*
X166182621Y-117880297D01*
X166182618Y-117880293D01*
X166055094Y-117724905D01*
X165899706Y-117597381D01*
X165899704Y-117597380D01*
X165899703Y-117597379D01*
X165722418Y-117502619D01*
X165530053Y-117444266D01*
X165530050Y-117444265D01*
X165530053Y-117444265D01*
X165330000Y-117424562D01*
X165129948Y-117444265D01*
X164937582Y-117502619D01*
X164760293Y-117597381D01*
X164604905Y-117724905D01*
X164477381Y-117880293D01*
X164382619Y-118057582D01*
X164324265Y-118249948D01*
X164304562Y-118450000D01*
X161275438Y-118450000D01*
X161255734Y-118249947D01*
X161197381Y-118057582D01*
X161102621Y-117880297D01*
X161102618Y-117880293D01*
X160975094Y-117724905D01*
X160819706Y-117597381D01*
X160819704Y-117597380D01*
X160819703Y-117597379D01*
X160642418Y-117502619D01*
X160450053Y-117444266D01*
X160450050Y-117444265D01*
X160450053Y-117444265D01*
X160250000Y-117424562D01*
X160049948Y-117444265D01*
X159857582Y-117502619D01*
X159680293Y-117597381D01*
X159524905Y-117724905D01*
X159397381Y-117880293D01*
X159302619Y-118057582D01*
X159244265Y-118249948D01*
X159224562Y-118450000D01*
X159244265Y-118650051D01*
X159244266Y-118650053D01*
X159302619Y-118842418D01*
X159397379Y-119019703D01*
X159397381Y-119019706D01*
X159524905Y-119175094D01*
X159666526Y-119291320D01*
X159677303Y-119307141D01*
X159690612Y-119308693D01*
X159700586Y-119313465D01*
X159857582Y-119397381D01*
X159897994Y-119409639D01*
X159956432Y-119447934D01*
X159984890Y-119511746D01*
X159986000Y-119528300D01*
X159986000Y-119630633D01*
X159966315Y-119697672D01*
X159913511Y-119743427D01*
X159844353Y-119753371D01*
X159780797Y-119724346D01*
X159766147Y-119709298D01*
X159705094Y-119634905D01*
X159563473Y-119518679D01*
X159552695Y-119502857D01*
X159539387Y-119501306D01*
X159529408Y-119496531D01*
X159372421Y-119412620D01*
X159362591Y-119409638D01*
X159180053Y-119354266D01*
X159180050Y-119354265D01*
X159180053Y-119354265D01*
X158997936Y-119336328D01*
X158980000Y-119334562D01*
X158979999Y-119334562D01*
X158779948Y-119354265D01*
X158656995Y-119391562D01*
X158587582Y-119412619D01*
X158587580Y-119412619D01*
X158587580Y-119412620D01*
X158430590Y-119496532D01*
X158410671Y-119500678D01*
X158404756Y-119511286D01*
X158396527Y-119518679D01*
X158254903Y-119634908D01*
X158127381Y-119790293D01*
X158032619Y-119967582D01*
X157974265Y-120159948D01*
X157954562Y-120359999D01*
X157974265Y-120560051D01*
X157974266Y-120560053D01*
X158032619Y-120752418D01*
X158124673Y-120924640D01*
X158127381Y-120929706D01*
X158254905Y-121085094D01*
X158396526Y-121201320D01*
X158407303Y-121217141D01*
X158420612Y-121218693D01*
X158430586Y-121223465D01*
X158587582Y-121307381D01*
X158627994Y-121319639D01*
X158686432Y-121357934D01*
X158714890Y-121421746D01*
X158716000Y-121438300D01*
X158716000Y-121540633D01*
X158696315Y-121607672D01*
X158643511Y-121653427D01*
X158574353Y-121663371D01*
X158510797Y-121634346D01*
X158496147Y-121619298D01*
X158435094Y-121544905D01*
X158293473Y-121428679D01*
X158282695Y-121412857D01*
X158269387Y-121411306D01*
X158259408Y-121406531D01*
X158102421Y-121322620D01*
X158058013Y-121309149D01*
X157910053Y-121264266D01*
X157910050Y-121264265D01*
X157910053Y-121264265D01*
X157727936Y-121246328D01*
X157710000Y-121244562D01*
X157709999Y-121244562D01*
X157509948Y-121264265D01*
X157397989Y-121298228D01*
X157317582Y-121322619D01*
X157317580Y-121322619D01*
X157317580Y-121322620D01*
X157160590Y-121406532D01*
X157140671Y-121410678D01*
X157134756Y-121421286D01*
X157126527Y-121428679D01*
X156984903Y-121544908D01*
X156923853Y-121619298D01*
X156866107Y-121658632D01*
X156796262Y-121660503D01*
X156736494Y-121624315D01*
X156705778Y-121561559D01*
X156704000Y-121540633D01*
X156704000Y-121438300D01*
X156723685Y-121371261D01*
X156776489Y-121325506D01*
X156791996Y-121319642D01*
X156832418Y-121307381D01*
X156989410Y-121223467D01*
X157009326Y-121219320D01*
X157015243Y-121208712D01*
X157023473Y-121201320D01*
X157060154Y-121171217D01*
X157165094Y-121085094D01*
X157292621Y-120929703D01*
X157387381Y-120752418D01*
X157445734Y-120560053D01*
X157465438Y-120360000D01*
X157445734Y-120159947D01*
X157387381Y-119967582D01*
X157292621Y-119790297D01*
X157292618Y-119790293D01*
X157165094Y-119634905D01*
X157023473Y-119518679D01*
X157012695Y-119502857D01*
X156999387Y-119501306D01*
X156989408Y-119496531D01*
X156832421Y-119412620D01*
X156822591Y-119409638D01*
X156640053Y-119354266D01*
X156640050Y-119354265D01*
X156640053Y-119354265D01*
X156440000Y-119334562D01*
X156239948Y-119354265D01*
X156116995Y-119391562D01*
X156047582Y-119412619D01*
X156047580Y-119412619D01*
X156047580Y-119412620D01*
X155890590Y-119496532D01*
X155870671Y-119500678D01*
X155864756Y-119511286D01*
X155856527Y-119518679D01*
X155714903Y-119634908D01*
X155587381Y-119790293D01*
X155492619Y-119967582D01*
X155434265Y-120159948D01*
X155414562Y-120360000D01*
X155434265Y-120560051D01*
X155434266Y-120560053D01*
X155492619Y-120752418D01*
X155584673Y-120924640D01*
X155587381Y-120929706D01*
X155714905Y-121085094D01*
X155856526Y-121201320D01*
X155867303Y-121217141D01*
X155880612Y-121218693D01*
X155890586Y-121223465D01*
X156047582Y-121307381D01*
X156087994Y-121319639D01*
X156146432Y-121357934D01*
X156174890Y-121421746D01*
X156176000Y-121438300D01*
X156176000Y-121540633D01*
X156156315Y-121607672D01*
X156103511Y-121653427D01*
X156034353Y-121663371D01*
X155970797Y-121634346D01*
X155956147Y-121619298D01*
X155895094Y-121544905D01*
X155753473Y-121428679D01*
X155742695Y-121412857D01*
X155729387Y-121411306D01*
X155719408Y-121406531D01*
X155562421Y-121322620D01*
X155518013Y-121309149D01*
X155370053Y-121264266D01*
X155370050Y-121264265D01*
X155370053Y-121264265D01*
X155170000Y-121244562D01*
X154969948Y-121264265D01*
X154857989Y-121298228D01*
X154777582Y-121322619D01*
X154777580Y-121322619D01*
X154777580Y-121322620D01*
X154620590Y-121406532D01*
X154600671Y-121410678D01*
X154594756Y-121421286D01*
X154586527Y-121428679D01*
X154444903Y-121544908D01*
X154317381Y-121700293D01*
X154222619Y-121877582D01*
X154164265Y-122069948D01*
X154144562Y-122269999D01*
X154164265Y-122470051D01*
X154177597Y-122514001D01*
X154222619Y-122662418D01*
X154317378Y-122839701D01*
X154317381Y-122839706D01*
X154444905Y-122995094D01*
X154586526Y-123111320D01*
X154597303Y-123127141D01*
X154610612Y-123128693D01*
X154620586Y-123133465D01*
X154777582Y-123217381D01*
X154969947Y-123275734D01*
X154969946Y-123275734D01*
X155026062Y-123281261D01*
X155170000Y-123295438D01*
X155170000Y-123295437D01*
X155170001Y-123295438D01*
X155170002Y-123295438D01*
X155170205Y-123295418D01*
X155170310Y-123295438D01*
X155176092Y-123295438D01*
X155176092Y-123296534D01*
X155238851Y-123308434D01*
X155289564Y-123356496D01*
X155306241Y-123424347D01*
X155283588Y-123490442D01*
X155270045Y-123506501D01*
X155065345Y-123711201D01*
X155046560Y-123726619D01*
X155034665Y-123734567D01*
X155029805Y-123741841D01*
X154976190Y-123786643D01*
X154906864Y-123795346D01*
X154843838Y-123765187D01*
X154817351Y-123731400D01*
X154752621Y-123610297D01*
X154690264Y-123534315D01*
X154625094Y-123454905D01*
X154483473Y-123338679D01*
X154472695Y-123322857D01*
X154459387Y-123321306D01*
X154449408Y-123316531D01*
X154292421Y-123232620D01*
X154246849Y-123218796D01*
X154100053Y-123174266D01*
X154100050Y-123174265D01*
X154100053Y-123174265D01*
X153900000Y-123154562D01*
X153699948Y-123174265D01*
X153576995Y-123211562D01*
X153507582Y-123232619D01*
X153507580Y-123232619D01*
X153507580Y-123232620D01*
X153350590Y-123316532D01*
X153330671Y-123320678D01*
X153324756Y-123331286D01*
X153316527Y-123338679D01*
X153174903Y-123454908D01*
X153047381Y-123610293D01*
X152952619Y-123787582D01*
X152894265Y-123979948D01*
X152874562Y-124180000D01*
X152894265Y-124380051D01*
X152927209Y-124488654D01*
X152952619Y-124572418D01*
X153047379Y-124749703D01*
X153047381Y-124749706D01*
X153174905Y-124905094D01*
X153329624Y-125032069D01*
X153330297Y-125032621D01*
X153507582Y-125127381D01*
X153699947Y-125185734D01*
X153699946Y-125185734D01*
X153743990Y-125190072D01*
X153900000Y-125205438D01*
X153900000Y-125205437D01*
X153900001Y-125205438D01*
X153900002Y-125205438D01*
X153904682Y-125204976D01*
X153911409Y-125204314D01*
X153980055Y-125217329D01*
X154030768Y-125265392D01*
X154047445Y-125333242D01*
X154024792Y-125399338D01*
X154011249Y-125415397D01*
X151892467Y-127534181D01*
X151831144Y-127567666D01*
X151804786Y-127570500D01*
X151555751Y-127570500D01*
X151531560Y-127568117D01*
X151526449Y-127567100D01*
X151517539Y-127565328D01*
X151517538Y-127565328D01*
X151491536Y-127570500D01*
X151414529Y-127585817D01*
X151388235Y-127603386D01*
X151349248Y-127629437D01*
X151349244Y-127629440D01*
X151338261Y-127636778D01*
X151327204Y-127644167D01*
X151319260Y-127656056D01*
X151303842Y-127674841D01*
X151090844Y-127887840D01*
X151072058Y-127903258D01*
X151060167Y-127911203D01*
X151037382Y-127945302D01*
X151037380Y-127945306D01*
X151001817Y-127998528D01*
X150981328Y-128101539D01*
X150984117Y-128115559D01*
X150986500Y-128139751D01*
X150986500Y-128456467D01*
X150966815Y-128523506D01*
X150956216Y-128537666D01*
X150942119Y-128553935D01*
X150942116Y-128553940D01*
X150894034Y-128659224D01*
X150848279Y-128712028D01*
X150781239Y-128731712D01*
X150714200Y-128712027D01*
X150672409Y-128667140D01*
X150644045Y-128615197D01*
X150644041Y-128615191D01*
X150609001Y-128568384D01*
X150608998Y-128568381D01*
X150608991Y-128568371D01*
X150566819Y-128526199D01*
X150533334Y-128464876D01*
X150530500Y-128438518D01*
X150530500Y-123786482D01*
X150550185Y-123719443D01*
X150566819Y-123698801D01*
X151137880Y-123127742D01*
X151137878Y-123127743D01*
X151137883Y-123127738D01*
X151145240Y-123119548D01*
X151165327Y-123094620D01*
X151202490Y-123023575D01*
X151222175Y-122956536D01*
X151230500Y-122898638D01*
X151230500Y-122269999D01*
X151604562Y-122269999D01*
X151624265Y-122470051D01*
X151637597Y-122514001D01*
X151682619Y-122662418D01*
X151777378Y-122839701D01*
X151777381Y-122839706D01*
X151904905Y-122995094D01*
X152060293Y-123122618D01*
X152060297Y-123122621D01*
X152237582Y-123217381D01*
X152429947Y-123275734D01*
X152429946Y-123275734D01*
X152447883Y-123277500D01*
X152630000Y-123295438D01*
X152830053Y-123275734D01*
X153022418Y-123217381D01*
X153179410Y-123133467D01*
X153199326Y-123129320D01*
X153205243Y-123118712D01*
X153213473Y-123111320D01*
X153355094Y-122995094D01*
X153394114Y-122947548D01*
X153482621Y-122839703D01*
X153577381Y-122662418D01*
X153635734Y-122470053D01*
X153655438Y-122270000D01*
X153635734Y-122069947D01*
X153577381Y-121877582D01*
X153482621Y-121700297D01*
X153456746Y-121668768D01*
X153355094Y-121544905D01*
X153213473Y-121428679D01*
X153202695Y-121412857D01*
X153189387Y-121411306D01*
X153179408Y-121406531D01*
X153022421Y-121322620D01*
X152978013Y-121309149D01*
X152830053Y-121264266D01*
X152830050Y-121264265D01*
X152830053Y-121264265D01*
X152630000Y-121244562D01*
X152429948Y-121264265D01*
X152237582Y-121322619D01*
X152060293Y-121417381D01*
X151904905Y-121544905D01*
X151777381Y-121700293D01*
X151682619Y-121877582D01*
X151624265Y-122069948D01*
X151604562Y-122269999D01*
X151230500Y-122269999D01*
X151230500Y-121645858D01*
X151229911Y-121634866D01*
X151229889Y-121634666D01*
X151227377Y-121611301D01*
X151226488Y-121603035D01*
X151202529Y-121526518D01*
X151169044Y-121465195D01*
X151133991Y-121418371D01*
X151133985Y-121418365D01*
X151133980Y-121418359D01*
X150466818Y-120751197D01*
X150433333Y-120689874D01*
X150430500Y-120663525D01*
X150430500Y-120036479D01*
X150450185Y-119969440D01*
X150466819Y-119948799D01*
X150780711Y-119634908D01*
X151127883Y-119287736D01*
X151135235Y-119279553D01*
X151135237Y-119279551D01*
X151135236Y-119279553D01*
X151155323Y-119254624D01*
X151155323Y-119254623D01*
X151155327Y-119254619D01*
X151171873Y-119222985D01*
X151220387Y-119172709D01*
X151288384Y-119156640D01*
X151354274Y-119179884D01*
X151369429Y-119192781D01*
X151911300Y-119734652D01*
X151926718Y-119753438D01*
X151934665Y-119765331D01*
X151934666Y-119765331D01*
X151934667Y-119765333D01*
X151951647Y-119776679D01*
X151951650Y-119776681D01*
X152021990Y-119823682D01*
X152021991Y-119823682D01*
X152021992Y-119823683D01*
X152125000Y-119844172D01*
X152139022Y-119841382D01*
X152163213Y-119839000D01*
X152824429Y-119839000D01*
X152891468Y-119858685D01*
X152937223Y-119911489D01*
X152947167Y-119980647D01*
X152943090Y-119998995D01*
X152894265Y-120159948D01*
X152874562Y-120360000D01*
X152894265Y-120560051D01*
X152894266Y-120560053D01*
X152952619Y-120752418D01*
X153044673Y-120924640D01*
X153047381Y-120929706D01*
X153174905Y-121085094D01*
X153316526Y-121201320D01*
X153327303Y-121217141D01*
X153340612Y-121218693D01*
X153350586Y-121223465D01*
X153507582Y-121307381D01*
X153699947Y-121365734D01*
X153699946Y-121365734D01*
X153710526Y-121366776D01*
X153900000Y-121385438D01*
X154100053Y-121365734D01*
X154292418Y-121307381D01*
X154449410Y-121223467D01*
X154469326Y-121219320D01*
X154475243Y-121208712D01*
X154483473Y-121201320D01*
X154520154Y-121171217D01*
X154625094Y-121085094D01*
X154752621Y-120929703D01*
X154847381Y-120752418D01*
X154905734Y-120560053D01*
X154925438Y-120360000D01*
X154905734Y-120159947D01*
X154847381Y-119967582D01*
X154752621Y-119790297D01*
X154752618Y-119790293D01*
X154625094Y-119634905D01*
X154483473Y-119518679D01*
X154472695Y-119502857D01*
X154459387Y-119501306D01*
X154449408Y-119496531D01*
X154292421Y-119412620D01*
X154282591Y-119409638D01*
X154100053Y-119354266D01*
X154100050Y-119354265D01*
X154100053Y-119354265D01*
X153991397Y-119343564D01*
X153926610Y-119317403D01*
X153886251Y-119260368D01*
X153883134Y-119190568D01*
X153915868Y-119132482D01*
X154098584Y-118949766D01*
X154159905Y-118916283D01*
X154229597Y-118921267D01*
X154285530Y-118963139D01*
X154295618Y-118978990D01*
X154317379Y-119019703D01*
X154336770Y-119043331D01*
X154444905Y-119175094D01*
X154586526Y-119291320D01*
X154597303Y-119307141D01*
X154610612Y-119308693D01*
X154620586Y-119313465D01*
X154777582Y-119397381D01*
X154969947Y-119455734D01*
X154969946Y-119455734D01*
X154987883Y-119457500D01*
X155170000Y-119475438D01*
X155370053Y-119455734D01*
X155562418Y-119397381D01*
X155719410Y-119313467D01*
X155739326Y-119309320D01*
X155745243Y-119298712D01*
X155753473Y-119291320D01*
X155757848Y-119287730D01*
X155895094Y-119175094D01*
X156022621Y-119019703D01*
X156117381Y-118842418D01*
X156175734Y-118650053D01*
X156195438Y-118450000D01*
X156684562Y-118450000D01*
X156704265Y-118650051D01*
X156704266Y-118650053D01*
X156762619Y-118842418D01*
X156857379Y-119019703D01*
X156857381Y-119019706D01*
X156984905Y-119175094D01*
X157126526Y-119291320D01*
X157137303Y-119307141D01*
X157150612Y-119308693D01*
X157160586Y-119313465D01*
X157317582Y-119397381D01*
X157509947Y-119455734D01*
X157509946Y-119455734D01*
X157529649Y-119457674D01*
X157710000Y-119475438D01*
X157910053Y-119455734D01*
X158102418Y-119397381D01*
X158259410Y-119313467D01*
X158279326Y-119309320D01*
X158285243Y-119298712D01*
X158293473Y-119291320D01*
X158297848Y-119287730D01*
X158435094Y-119175094D01*
X158562621Y-119019703D01*
X158657381Y-118842418D01*
X158715734Y-118650053D01*
X158735438Y-118450000D01*
X158715734Y-118249947D01*
X158657381Y-118057582D01*
X158562621Y-117880297D01*
X158562618Y-117880293D01*
X158435094Y-117724905D01*
X158279706Y-117597381D01*
X158279704Y-117597380D01*
X158279703Y-117597379D01*
X158102418Y-117502619D01*
X157910053Y-117444266D01*
X157910050Y-117444265D01*
X157910053Y-117444265D01*
X157710000Y-117424562D01*
X157509948Y-117444265D01*
X157317582Y-117502619D01*
X157140293Y-117597381D01*
X156984905Y-117724905D01*
X156857381Y-117880293D01*
X156762619Y-118057582D01*
X156704265Y-118249948D01*
X156684562Y-118450000D01*
X156195438Y-118450000D01*
X156175734Y-118249947D01*
X156117381Y-118057582D01*
X156022621Y-117880297D01*
X156022618Y-117880293D01*
X155895094Y-117724905D01*
X155739706Y-117597381D01*
X155739704Y-117597380D01*
X155739703Y-117597379D01*
X155562418Y-117502619D01*
X155370053Y-117444266D01*
X155370050Y-117444265D01*
X155370053Y-117444265D01*
X155170000Y-117424562D01*
X154969948Y-117444265D01*
X154777582Y-117502619D01*
X154600293Y-117597381D01*
X154444905Y-117724905D01*
X154317379Y-117880295D01*
X154317377Y-117880298D01*
X154222619Y-118057580D01*
X154204236Y-118118180D01*
X154165938Y-118176619D01*
X154133030Y-118196744D01*
X154121993Y-118201315D01*
X154034667Y-118259666D01*
X154034665Y-118259668D01*
X154026718Y-118271561D01*
X154011302Y-118290344D01*
X153858416Y-118443230D01*
X153797093Y-118476715D01*
X153727401Y-118471731D01*
X153671468Y-118429859D01*
X153647332Y-118367703D01*
X153635734Y-118249948D01*
X153620982Y-118201317D01*
X153577381Y-118057582D01*
X153482621Y-117880297D01*
X153482618Y-117880293D01*
X153355094Y-117724905D01*
X153199706Y-117597381D01*
X153199704Y-117597380D01*
X153199703Y-117597379D01*
X153022418Y-117502619D01*
X152830053Y-117444266D01*
X152830050Y-117444265D01*
X152830053Y-117444265D01*
X152647936Y-117426328D01*
X152630000Y-117424562D01*
X152629999Y-117424562D01*
X152522603Y-117435139D01*
X152453957Y-117422120D01*
X152422769Y-117399417D01*
X151813697Y-116790345D01*
X151798276Y-116771555D01*
X151790333Y-116759667D01*
X151790332Y-116759666D01*
X151703009Y-116701317D01*
X151626002Y-116686000D01*
X151600001Y-116680828D01*
X151599999Y-116680828D01*
X151591088Y-116682600D01*
X151585977Y-116683617D01*
X151561787Y-116686000D01*
X149088211Y-116686000D01*
X149064022Y-116683618D01*
X149064017Y-116683617D01*
X149050000Y-116680829D01*
X149049999Y-116680829D01*
X149049998Y-116680829D01*
X149028080Y-116685188D01*
X149028075Y-116685189D01*
X148946990Y-116701317D01*
X148859667Y-116759666D01*
X148859665Y-116759668D01*
X148851718Y-116771561D01*
X148836302Y-116790344D01*
X148515345Y-117111301D01*
X148496560Y-117126719D01*
X148484666Y-117134666D01*
X148461882Y-117168764D01*
X148461880Y-117168768D01*
X148426317Y-117221990D01*
X148405828Y-117325001D01*
X148408617Y-117339021D01*
X148411000Y-117363213D01*
X148411000Y-124339285D01*
X148391315Y-124406324D01*
X148374681Y-124426966D01*
X147175681Y-125625966D01*
X147114358Y-125659451D01*
X147044666Y-125654467D01*
X146988733Y-125612595D01*
X146964316Y-125547131D01*
X146964000Y-125538285D01*
X146964000Y-124997467D01*
X146983685Y-124930428D01*
X147001642Y-124910257D01*
X147000787Y-124909402D01*
X147005092Y-124905096D01*
X147026021Y-124879594D01*
X147132621Y-124749703D01*
X147227381Y-124572418D01*
X147285734Y-124380053D01*
X147305438Y-124180000D01*
X147285734Y-123979947D01*
X147227381Y-123787582D01*
X147132621Y-123610297D01*
X147124120Y-123599938D01*
X147005094Y-123454905D01*
X146849706Y-123327381D01*
X146849704Y-123327380D01*
X146849703Y-123327379D01*
X146672418Y-123232619D01*
X146480053Y-123174266D01*
X146480050Y-123174265D01*
X146480053Y-123174265D01*
X146280000Y-123154562D01*
X146079948Y-123174265D01*
X145956995Y-123211562D01*
X145887582Y-123232619D01*
X145887580Y-123232619D01*
X145887580Y-123232620D01*
X145730590Y-123316532D01*
X145710671Y-123320678D01*
X145704756Y-123331286D01*
X145696527Y-123338679D01*
X145554903Y-123454908D01*
X145493853Y-123529298D01*
X145436107Y-123568632D01*
X145366262Y-123570503D01*
X145306494Y-123534315D01*
X145275778Y-123471559D01*
X145274000Y-123450633D01*
X145274000Y-123348300D01*
X145293685Y-123281261D01*
X145346489Y-123235506D01*
X145361996Y-123229642D01*
X145402418Y-123217381D01*
X145559410Y-123133467D01*
X145579326Y-123129320D01*
X145585243Y-123118712D01*
X145593473Y-123111320D01*
X145735094Y-122995094D01*
X145774114Y-122947548D01*
X145862621Y-122839703D01*
X145957381Y-122662418D01*
X146015734Y-122470053D01*
X146035438Y-122270000D01*
X146015734Y-122069947D01*
X145957381Y-121877582D01*
X145862621Y-121700297D01*
X145836746Y-121668768D01*
X145735094Y-121544905D01*
X145593473Y-121428679D01*
X145582695Y-121412857D01*
X145569387Y-121411306D01*
X145559408Y-121406531D01*
X145402421Y-121322620D01*
X145358013Y-121309149D01*
X145210053Y-121264266D01*
X145210050Y-121264265D01*
X145210053Y-121264265D01*
X145010000Y-121244562D01*
X144809948Y-121264265D01*
X144617582Y-121322619D01*
X144440293Y-121417381D01*
X144284905Y-121544905D01*
X144157381Y-121700293D01*
X144062619Y-121877582D01*
X144004265Y-122069948D01*
X143984562Y-122270000D01*
X140943352Y-122270000D01*
X139609149Y-120935797D01*
X139575664Y-120874474D01*
X139580648Y-120804782D01*
X139587467Y-120789674D01*
X139607381Y-120752418D01*
X139665734Y-120560053D01*
X139685438Y-120360000D01*
X139685438Y-120359999D01*
X145254562Y-120359999D01*
X145274265Y-120560051D01*
X145274266Y-120560053D01*
X145332619Y-120752418D01*
X145424673Y-120924640D01*
X145427381Y-120929706D01*
X145554905Y-121085094D01*
X145696526Y-121201320D01*
X145707303Y-121217141D01*
X145720612Y-121218693D01*
X145730586Y-121223465D01*
X145887582Y-121307381D01*
X146079947Y-121365734D01*
X146079946Y-121365734D01*
X146090526Y-121366776D01*
X146280000Y-121385438D01*
X146480053Y-121365734D01*
X146672418Y-121307381D01*
X146849703Y-121212621D01*
X147005094Y-121085094D01*
X147132621Y-120929703D01*
X147227381Y-120752418D01*
X147285734Y-120560053D01*
X147305438Y-120360000D01*
X147285734Y-120159947D01*
X147227381Y-119967582D01*
X147132621Y-119790297D01*
X147132618Y-119790293D01*
X147005094Y-119634905D01*
X146849706Y-119507381D01*
X146849704Y-119507380D01*
X146849703Y-119507379D01*
X146672418Y-119412619D01*
X146480053Y-119354266D01*
X146480050Y-119354265D01*
X146480053Y-119354265D01*
X146297936Y-119336328D01*
X146280000Y-119334562D01*
X146279999Y-119334562D01*
X146079948Y-119354265D01*
X145956995Y-119391562D01*
X145887582Y-119412619D01*
X145887580Y-119412619D01*
X145887580Y-119412620D01*
X145730590Y-119496532D01*
X145710671Y-119500678D01*
X145704756Y-119511286D01*
X145696527Y-119518679D01*
X145554903Y-119634908D01*
X145427381Y-119790293D01*
X145332619Y-119967582D01*
X145274265Y-120159948D01*
X145254562Y-120359999D01*
X139685438Y-120359999D01*
X139665734Y-120159947D01*
X139607381Y-119967582D01*
X139512621Y-119790297D01*
X139512618Y-119790293D01*
X139385094Y-119634905D01*
X139229706Y-119507381D01*
X139229704Y-119507380D01*
X139229703Y-119507379D01*
X139052418Y-119412619D01*
X138860053Y-119354266D01*
X138860050Y-119354265D01*
X138860053Y-119354265D01*
X138677936Y-119336328D01*
X138660000Y-119334562D01*
X138659999Y-119334562D01*
X138459948Y-119354265D01*
X138336995Y-119391562D01*
X138267582Y-119412619D01*
X138267580Y-119412619D01*
X138267580Y-119412620D01*
X138110590Y-119496532D01*
X138090671Y-119500678D01*
X138084756Y-119511286D01*
X138076527Y-119518679D01*
X137934903Y-119634908D01*
X137873853Y-119709298D01*
X137816107Y-119748632D01*
X137746262Y-119750503D01*
X137686494Y-119714315D01*
X137655778Y-119651559D01*
X137654000Y-119630633D01*
X137654000Y-119528300D01*
X137673685Y-119461261D01*
X137726489Y-119415506D01*
X137741996Y-119409642D01*
X137782418Y-119397381D01*
X137939410Y-119313467D01*
X137959326Y-119309320D01*
X137965243Y-119298712D01*
X137973473Y-119291320D01*
X137977848Y-119287730D01*
X138115094Y-119175094D01*
X138242621Y-119019703D01*
X138337381Y-118842418D01*
X138395734Y-118650053D01*
X138415438Y-118450000D01*
X143984562Y-118450000D01*
X144004265Y-118650051D01*
X144004266Y-118650053D01*
X144062619Y-118842418D01*
X144157379Y-119019703D01*
X144157381Y-119019706D01*
X144284905Y-119175094D01*
X144435534Y-119298712D01*
X144440297Y-119302621D01*
X144617582Y-119397381D01*
X144809947Y-119455734D01*
X144809946Y-119455734D01*
X144827883Y-119457500D01*
X145010000Y-119475438D01*
X145210053Y-119455734D01*
X145402418Y-119397381D01*
X145559410Y-119313467D01*
X145579326Y-119309320D01*
X145585243Y-119298712D01*
X145593473Y-119291320D01*
X145597848Y-119287730D01*
X145735094Y-119175094D01*
X145862621Y-119019703D01*
X145957381Y-118842418D01*
X146015734Y-118650053D01*
X146035438Y-118450000D01*
X146015734Y-118249947D01*
X145957381Y-118057582D01*
X145862621Y-117880297D01*
X145862618Y-117880293D01*
X145735094Y-117724905D01*
X145579706Y-117597381D01*
X145579704Y-117597380D01*
X145579703Y-117597379D01*
X145402418Y-117502619D01*
X145210053Y-117444266D01*
X145210050Y-117444265D01*
X145210053Y-117444265D01*
X145010000Y-117424562D01*
X144809948Y-117444265D01*
X144617582Y-117502619D01*
X144440293Y-117597381D01*
X144284905Y-117724905D01*
X144157381Y-117880293D01*
X144062619Y-118057582D01*
X144004265Y-118249948D01*
X143984562Y-118450000D01*
X138415438Y-118450000D01*
X138395734Y-118249947D01*
X138337381Y-118057582D01*
X138242621Y-117880297D01*
X138242618Y-117880293D01*
X138115094Y-117724905D01*
X137959706Y-117597381D01*
X137959704Y-117597380D01*
X137959703Y-117597379D01*
X137782418Y-117502619D01*
X137590053Y-117444266D01*
X137590050Y-117444265D01*
X137590053Y-117444265D01*
X137407936Y-117426328D01*
X137390000Y-117424562D01*
X137389999Y-117424562D01*
X137189948Y-117444265D01*
X136997582Y-117502619D01*
X136820293Y-117597381D01*
X136664905Y-117724905D01*
X136537381Y-117880293D01*
X136442619Y-118057582D01*
X136384265Y-118249948D01*
X136364562Y-118450000D01*
X136384265Y-118650051D01*
X136384266Y-118650053D01*
X136442619Y-118842418D01*
X136537379Y-119019703D01*
X136537381Y-119019706D01*
X136664905Y-119175094D01*
X136806526Y-119291320D01*
X136817303Y-119307141D01*
X136830612Y-119308693D01*
X136840586Y-119313465D01*
X136997582Y-119397381D01*
X137037994Y-119409639D01*
X137096432Y-119447934D01*
X137124890Y-119511746D01*
X137126000Y-119528300D01*
X137126000Y-119630633D01*
X137106315Y-119697672D01*
X137053511Y-119743427D01*
X136984353Y-119753371D01*
X136920797Y-119724346D01*
X136906147Y-119709298D01*
X136845094Y-119634905D01*
X136703473Y-119518679D01*
X136692695Y-119502857D01*
X136679387Y-119501306D01*
X136669408Y-119496531D01*
X136512421Y-119412620D01*
X136502591Y-119409638D01*
X136320053Y-119354266D01*
X136320050Y-119354265D01*
X136320053Y-119354265D01*
X136120000Y-119334562D01*
X135919948Y-119354265D01*
X135796995Y-119391562D01*
X135727582Y-119412619D01*
X135727580Y-119412619D01*
X135727580Y-119412620D01*
X135570590Y-119496532D01*
X135550671Y-119500678D01*
X135544756Y-119511286D01*
X135536527Y-119518679D01*
X135394903Y-119634908D01*
X135333853Y-119709298D01*
X135276107Y-119748632D01*
X135206262Y-119750503D01*
X135146494Y-119714315D01*
X135115778Y-119651559D01*
X135114000Y-119630633D01*
X135114000Y-119528300D01*
X135133685Y-119461261D01*
X135186489Y-119415506D01*
X135201996Y-119409642D01*
X135242418Y-119397381D01*
X135399410Y-119313467D01*
X135419326Y-119309320D01*
X135425243Y-119298712D01*
X135433473Y-119291320D01*
X135437848Y-119287730D01*
X135575094Y-119175094D01*
X135702621Y-119019703D01*
X135797381Y-118842418D01*
X135855734Y-118650053D01*
X135875438Y-118450000D01*
X135855734Y-118249947D01*
X135797381Y-118057582D01*
X135702621Y-117880297D01*
X135702618Y-117880293D01*
X135575094Y-117724905D01*
X135419706Y-117597381D01*
X135419704Y-117597380D01*
X135419703Y-117597379D01*
X135242418Y-117502619D01*
X135050053Y-117444266D01*
X135050050Y-117444265D01*
X135050053Y-117444265D01*
X134867936Y-117426328D01*
X134850000Y-117424562D01*
X134849999Y-117424562D01*
X134649948Y-117444265D01*
X134457582Y-117502619D01*
X134280293Y-117597381D01*
X134124905Y-117724905D01*
X133997381Y-117880293D01*
X133902619Y-118057582D01*
X133844265Y-118249948D01*
X133824562Y-118449999D01*
X133844265Y-118650051D01*
X133844266Y-118650053D01*
X133902619Y-118842418D01*
X133997379Y-119019703D01*
X133997381Y-119019706D01*
X134124905Y-119175094D01*
X134275534Y-119298712D01*
X134280297Y-119302621D01*
X134457582Y-119397381D01*
X134497994Y-119409639D01*
X134556432Y-119447934D01*
X134584890Y-119511746D01*
X134586000Y-119528300D01*
X134586000Y-120539285D01*
X134566315Y-120606324D01*
X134549681Y-120626966D01*
X133565345Y-121611301D01*
X133546560Y-121626719D01*
X133534666Y-121634666D01*
X133511882Y-121668764D01*
X133511880Y-121668768D01*
X133476317Y-121721990D01*
X133455828Y-121825001D01*
X133458617Y-121839021D01*
X133461000Y-121863213D01*
X133461000Y-122711783D01*
X133458618Y-122735971D01*
X133455828Y-122749999D01*
X133455828Y-122750000D01*
X133461000Y-122776002D01*
X133476317Y-122853009D01*
X133534666Y-122940332D01*
X133546555Y-122948276D01*
X133565345Y-122963697D01*
X134349681Y-123748033D01*
X134383166Y-123809356D01*
X134386000Y-123835714D01*
X134386000Y-124661783D01*
X134383618Y-124685971D01*
X134380828Y-124699999D01*
X134380828Y-124700000D01*
X134386000Y-124726002D01*
X134401317Y-124803009D01*
X134459666Y-124890332D01*
X134471555Y-124898276D01*
X134490345Y-124913697D01*
X135190267Y-125613619D01*
X135223752Y-125674942D01*
X135218768Y-125744634D01*
X135176896Y-125800567D01*
X135111432Y-125824984D01*
X135102586Y-125825300D01*
X133775015Y-125825300D01*
X133707976Y-125805615D01*
X133687334Y-125788981D01*
X132610318Y-124711965D01*
X132576833Y-124650642D01*
X132573999Y-124624293D01*
X132573999Y-119528299D01*
X132593684Y-119461261D01*
X132646488Y-119415506D01*
X132661997Y-119409641D01*
X132702418Y-119397381D01*
X132879703Y-119302621D01*
X133035094Y-119175094D01*
X133162621Y-119019703D01*
X133257381Y-118842418D01*
X133315734Y-118650053D01*
X133335438Y-118450000D01*
X133315734Y-118249947D01*
X133257381Y-118057582D01*
X133162621Y-117880297D01*
X133162618Y-117880293D01*
X133035094Y-117724905D01*
X132879706Y-117597381D01*
X132879704Y-117597380D01*
X132879703Y-117597379D01*
X132702418Y-117502619D01*
X132510053Y-117444266D01*
X132510050Y-117444265D01*
X132510053Y-117444265D01*
X132310000Y-117424562D01*
X132109948Y-117444265D01*
X131917582Y-117502619D01*
X131740293Y-117597381D01*
X131584905Y-117724905D01*
X131457381Y-117880293D01*
X131362619Y-118057582D01*
X131304265Y-118249948D01*
X131284562Y-118449999D01*
X131304265Y-118650051D01*
X131304266Y-118650053D01*
X131362619Y-118842418D01*
X131457379Y-119019703D01*
X131457381Y-119019706D01*
X131584905Y-119175094D01*
X131735534Y-119298712D01*
X131740297Y-119302621D01*
X131917582Y-119397381D01*
X131957994Y-119409639D01*
X132016432Y-119447934D01*
X132044890Y-119511746D01*
X132046000Y-119528300D01*
X132046000Y-123450633D01*
X132026315Y-123517672D01*
X131973511Y-123563427D01*
X131904353Y-123573371D01*
X131840797Y-123544346D01*
X131826147Y-123529298D01*
X131765094Y-123454905D01*
X131609706Y-123327381D01*
X131609704Y-123327380D01*
X131609703Y-123327379D01*
X131432418Y-123232619D01*
X131240053Y-123174266D01*
X131240050Y-123174265D01*
X131240053Y-123174265D01*
X131040000Y-123154562D01*
X130839948Y-123174265D01*
X130647582Y-123232619D01*
X130470293Y-123327381D01*
X130314905Y-123454905D01*
X130187381Y-123610293D01*
X130092619Y-123787582D01*
X130034265Y-123979948D01*
X130014562Y-124180000D01*
X121850000Y-124180000D01*
X121850000Y-118449999D01*
X128744562Y-118449999D01*
X128764265Y-118650051D01*
X128764266Y-118650053D01*
X128822619Y-118842418D01*
X128917379Y-119019703D01*
X128917381Y-119019706D01*
X129044905Y-119175094D01*
X129195534Y-119298712D01*
X129200297Y-119302621D01*
X129377582Y-119397381D01*
X129569947Y-119455734D01*
X129569946Y-119455734D01*
X129589650Y-119457674D01*
X129770000Y-119475438D01*
X129970053Y-119455734D01*
X130162418Y-119397381D01*
X130339703Y-119302621D01*
X130495094Y-119175094D01*
X130622621Y-119019703D01*
X130717381Y-118842418D01*
X130775734Y-118650053D01*
X130795438Y-118450000D01*
X130775734Y-118249947D01*
X130717381Y-118057582D01*
X130622621Y-117880297D01*
X130622618Y-117880293D01*
X130495094Y-117724905D01*
X130339706Y-117597381D01*
X130339704Y-117597380D01*
X130339703Y-117597379D01*
X130162418Y-117502619D01*
X129970053Y-117444266D01*
X129970050Y-117444265D01*
X129970053Y-117444265D01*
X129787936Y-117426328D01*
X129770000Y-117424562D01*
X129769999Y-117424562D01*
X129569948Y-117444265D01*
X129377582Y-117502619D01*
X129200293Y-117597381D01*
X129044905Y-117724905D01*
X128917381Y-117880293D01*
X128822619Y-118057582D01*
X128764265Y-118249948D01*
X128744562Y-118449999D01*
X121850000Y-118449999D01*
X121850000Y-114774000D01*
X121869685Y-114706961D01*
X121922489Y-114661206D01*
X121974000Y-114650000D01*
X176926000Y-114650000D01*
X176993039Y-114669685D01*
G37*
G04 #@! TD.AperFunction*
G04 #@! TA.AperFunction,Conductor*
G36*
X150947325Y-117549685D02*
G01*
X150967967Y-117566319D01*
X150978681Y-117577033D01*
X151012166Y-117638356D01*
X151015000Y-117664714D01*
X151015000Y-119058637D01*
X150995315Y-119125676D01*
X150978681Y-119146318D01*
X150225000Y-119899999D01*
X150225000Y-120800000D01*
X150988681Y-121563681D01*
X151022166Y-121625004D01*
X151025000Y-121651362D01*
X151025000Y-122898638D01*
X151005315Y-122965677D01*
X150988681Y-122986319D01*
X150325000Y-123649999D01*
X150325000Y-128575000D01*
X150463681Y-128713681D01*
X150497166Y-128775004D01*
X150500000Y-128801362D01*
X150500000Y-129148638D01*
X150480315Y-129215677D01*
X150463681Y-129236319D01*
X150361319Y-129338681D01*
X150299996Y-129372166D01*
X150273638Y-129375000D01*
X149926362Y-129375000D01*
X149859323Y-129355315D01*
X149838681Y-129338681D01*
X149736319Y-129236319D01*
X149702834Y-129174996D01*
X149700000Y-129148638D01*
X149700000Y-128801362D01*
X149719685Y-128734323D01*
X149736319Y-128713681D01*
X149736318Y-128713681D01*
X149875000Y-128575000D01*
X149875000Y-123650000D01*
X149229319Y-123004319D01*
X149195834Y-122942996D01*
X149193000Y-122916638D01*
X149193000Y-117654000D01*
X149212685Y-117586961D01*
X149265489Y-117541206D01*
X149317000Y-117530000D01*
X150880286Y-117530000D01*
X150947325Y-117549685D01*
G37*
G04 #@! TD.AperFunction*
M02*
