G04 #@! TF.GenerationSoftware,KiCad,Pcbnew,7.0.7*
G04 #@! TF.CreationDate,2023-10-10T05:26:18-05:00*
G04 #@! TF.ProjectId,psio-qsb,7073696f-2d71-4736-922e-6b696361645f,rev?*
G04 #@! TF.SameCoordinates,Original*
G04 #@! TF.FileFunction,Legend,Bot*
G04 #@! TF.FilePolarity,Positive*
%FSLAX46Y46*%
G04 Gerber Fmt 4.6, Leading zero omitted, Abs format (unit mm)*
G04 Created by KiCad (PCBNEW 7.0.7) date 2023-10-10 05:26:18*
%MOMM*%
%LPD*%
G01*
G04 APERTURE LIST*
%ADD10C,0.125000*%
%ADD11C,1.844000*%
G04 APERTURE END LIST*
D10*
X172545144Y-127507309D02*
X172259430Y-127507309D01*
X172402287Y-128007309D02*
X172402287Y-127507309D01*
X172092764Y-128007309D02*
X172092764Y-127507309D01*
X171878478Y-128007309D02*
X171878478Y-127745404D01*
X171878478Y-127745404D02*
X171902288Y-127697785D01*
X171902288Y-127697785D02*
X171949907Y-127673976D01*
X171949907Y-127673976D02*
X172021335Y-127673976D01*
X172021335Y-127673976D02*
X172068954Y-127697785D01*
X172068954Y-127697785D02*
X172092764Y-127721595D01*
X171449907Y-127983500D02*
X171497526Y-128007309D01*
X171497526Y-128007309D02*
X171592764Y-128007309D01*
X171592764Y-128007309D02*
X171640383Y-127983500D01*
X171640383Y-127983500D02*
X171664192Y-127935880D01*
X171664192Y-127935880D02*
X171664192Y-127745404D01*
X171664192Y-127745404D02*
X171640383Y-127697785D01*
X171640383Y-127697785D02*
X171592764Y-127673976D01*
X171592764Y-127673976D02*
X171497526Y-127673976D01*
X171497526Y-127673976D02*
X171449907Y-127697785D01*
X171449907Y-127697785D02*
X171426097Y-127745404D01*
X171426097Y-127745404D02*
X171426097Y-127793023D01*
X171426097Y-127793023D02*
X171664192Y-127840642D01*
X170830860Y-128007309D02*
X170830860Y-127507309D01*
X170830860Y-127507309D02*
X170640384Y-127507309D01*
X170640384Y-127507309D02*
X170592765Y-127531119D01*
X170592765Y-127531119D02*
X170568955Y-127554928D01*
X170568955Y-127554928D02*
X170545146Y-127602547D01*
X170545146Y-127602547D02*
X170545146Y-127673976D01*
X170545146Y-127673976D02*
X170568955Y-127721595D01*
X170568955Y-127721595D02*
X170592765Y-127745404D01*
X170592765Y-127745404D02*
X170640384Y-127769214D01*
X170640384Y-127769214D02*
X170830860Y-127769214D01*
X170354669Y-127983500D02*
X170283241Y-128007309D01*
X170283241Y-128007309D02*
X170164193Y-128007309D01*
X170164193Y-128007309D02*
X170116574Y-127983500D01*
X170116574Y-127983500D02*
X170092765Y-127959690D01*
X170092765Y-127959690D02*
X170068955Y-127912071D01*
X170068955Y-127912071D02*
X170068955Y-127864452D01*
X170068955Y-127864452D02*
X170092765Y-127816833D01*
X170092765Y-127816833D02*
X170116574Y-127793023D01*
X170116574Y-127793023D02*
X170164193Y-127769214D01*
X170164193Y-127769214D02*
X170259431Y-127745404D01*
X170259431Y-127745404D02*
X170307050Y-127721595D01*
X170307050Y-127721595D02*
X170330860Y-127697785D01*
X170330860Y-127697785D02*
X170354669Y-127650166D01*
X170354669Y-127650166D02*
X170354669Y-127602547D01*
X170354669Y-127602547D02*
X170330860Y-127554928D01*
X170330860Y-127554928D02*
X170307050Y-127531119D01*
X170307050Y-127531119D02*
X170259431Y-127507309D01*
X170259431Y-127507309D02*
X170140384Y-127507309D01*
X170140384Y-127507309D02*
X170068955Y-127531119D01*
X169902289Y-127507309D02*
X169568956Y-128007309D01*
X169568956Y-127507309D02*
X169902289Y-128007309D01*
X169378480Y-127673976D02*
X169378480Y-128173976D01*
X169378480Y-127697785D02*
X169330861Y-127673976D01*
X169330861Y-127673976D02*
X169235623Y-127673976D01*
X169235623Y-127673976D02*
X169188004Y-127697785D01*
X169188004Y-127697785D02*
X169164194Y-127721595D01*
X169164194Y-127721595D02*
X169140385Y-127769214D01*
X169140385Y-127769214D02*
X169140385Y-127912071D01*
X169140385Y-127912071D02*
X169164194Y-127959690D01*
X169164194Y-127959690D02*
X169188004Y-127983500D01*
X169188004Y-127983500D02*
X169235623Y-128007309D01*
X169235623Y-128007309D02*
X169330861Y-128007309D01*
X169330861Y-128007309D02*
X169378480Y-127983500D01*
X168926099Y-128007309D02*
X168926099Y-127673976D01*
X168926099Y-127769214D02*
X168902289Y-127721595D01*
X168902289Y-127721595D02*
X168878480Y-127697785D01*
X168878480Y-127697785D02*
X168830861Y-127673976D01*
X168830861Y-127673976D02*
X168783242Y-127673976D01*
X168426099Y-127983500D02*
X168473718Y-128007309D01*
X168473718Y-128007309D02*
X168568956Y-128007309D01*
X168568956Y-128007309D02*
X168616575Y-127983500D01*
X168616575Y-127983500D02*
X168640384Y-127935880D01*
X168640384Y-127935880D02*
X168640384Y-127745404D01*
X168640384Y-127745404D02*
X168616575Y-127697785D01*
X168616575Y-127697785D02*
X168568956Y-127673976D01*
X168568956Y-127673976D02*
X168473718Y-127673976D01*
X168473718Y-127673976D02*
X168426099Y-127697785D01*
X168426099Y-127697785D02*
X168402289Y-127745404D01*
X168402289Y-127745404D02*
X168402289Y-127793023D01*
X168402289Y-127793023D02*
X168640384Y-127840642D01*
X168211813Y-127983500D02*
X168164194Y-128007309D01*
X168164194Y-128007309D02*
X168068956Y-128007309D01*
X168068956Y-128007309D02*
X168021337Y-127983500D01*
X168021337Y-127983500D02*
X167997528Y-127935880D01*
X167997528Y-127935880D02*
X167997528Y-127912071D01*
X167997528Y-127912071D02*
X168021337Y-127864452D01*
X168021337Y-127864452D02*
X168068956Y-127840642D01*
X168068956Y-127840642D02*
X168140385Y-127840642D01*
X168140385Y-127840642D02*
X168188004Y-127816833D01*
X168188004Y-127816833D02*
X168211813Y-127769214D01*
X168211813Y-127769214D02*
X168211813Y-127745404D01*
X168211813Y-127745404D02*
X168188004Y-127697785D01*
X168188004Y-127697785D02*
X168140385Y-127673976D01*
X168140385Y-127673976D02*
X168068956Y-127673976D01*
X168068956Y-127673976D02*
X168021337Y-127697785D01*
X167807051Y-127983500D02*
X167759432Y-128007309D01*
X167759432Y-128007309D02*
X167664194Y-128007309D01*
X167664194Y-128007309D02*
X167616575Y-127983500D01*
X167616575Y-127983500D02*
X167592766Y-127935880D01*
X167592766Y-127935880D02*
X167592766Y-127912071D01*
X167592766Y-127912071D02*
X167616575Y-127864452D01*
X167616575Y-127864452D02*
X167664194Y-127840642D01*
X167664194Y-127840642D02*
X167735623Y-127840642D01*
X167735623Y-127840642D02*
X167783242Y-127816833D01*
X167783242Y-127816833D02*
X167807051Y-127769214D01*
X167807051Y-127769214D02*
X167807051Y-127745404D01*
X167807051Y-127745404D02*
X167783242Y-127697785D01*
X167783242Y-127697785D02*
X167735623Y-127673976D01*
X167735623Y-127673976D02*
X167664194Y-127673976D01*
X167664194Y-127673976D02*
X167616575Y-127697785D01*
X166997528Y-127673976D02*
X166997528Y-128173976D01*
X166997528Y-127697785D02*
X166949909Y-127673976D01*
X166949909Y-127673976D02*
X166854671Y-127673976D01*
X166854671Y-127673976D02*
X166807052Y-127697785D01*
X166807052Y-127697785D02*
X166783242Y-127721595D01*
X166783242Y-127721595D02*
X166759433Y-127769214D01*
X166759433Y-127769214D02*
X166759433Y-127912071D01*
X166759433Y-127912071D02*
X166783242Y-127959690D01*
X166783242Y-127959690D02*
X166807052Y-127983500D01*
X166807052Y-127983500D02*
X166854671Y-128007309D01*
X166854671Y-128007309D02*
X166949909Y-128007309D01*
X166949909Y-128007309D02*
X166997528Y-127983500D01*
X166545147Y-128007309D02*
X166545147Y-127673976D01*
X166545147Y-127769214D02*
X166521337Y-127721595D01*
X166521337Y-127721595D02*
X166497528Y-127697785D01*
X166497528Y-127697785D02*
X166449909Y-127673976D01*
X166449909Y-127673976D02*
X166402290Y-127673976D01*
X166164194Y-128007309D02*
X166211813Y-127983500D01*
X166211813Y-127983500D02*
X166235623Y-127959690D01*
X166235623Y-127959690D02*
X166259432Y-127912071D01*
X166259432Y-127912071D02*
X166259432Y-127769214D01*
X166259432Y-127769214D02*
X166235623Y-127721595D01*
X166235623Y-127721595D02*
X166211813Y-127697785D01*
X166211813Y-127697785D02*
X166164194Y-127673976D01*
X166164194Y-127673976D02*
X166092766Y-127673976D01*
X166092766Y-127673976D02*
X166045147Y-127697785D01*
X166045147Y-127697785D02*
X166021337Y-127721595D01*
X166021337Y-127721595D02*
X165997528Y-127769214D01*
X165997528Y-127769214D02*
X165997528Y-127912071D01*
X165997528Y-127912071D02*
X166021337Y-127959690D01*
X166021337Y-127959690D02*
X166045147Y-127983500D01*
X166045147Y-127983500D02*
X166092766Y-128007309D01*
X166092766Y-128007309D02*
X166164194Y-128007309D01*
X165783242Y-127673976D02*
X165783242Y-128102547D01*
X165783242Y-128102547D02*
X165807051Y-128150166D01*
X165807051Y-128150166D02*
X165854670Y-128173976D01*
X165854670Y-128173976D02*
X165878480Y-128173976D01*
X165783242Y-127507309D02*
X165807051Y-127531119D01*
X165807051Y-127531119D02*
X165783242Y-127554928D01*
X165783242Y-127554928D02*
X165759432Y-127531119D01*
X165759432Y-127531119D02*
X165783242Y-127507309D01*
X165783242Y-127507309D02*
X165783242Y-127554928D01*
X165354671Y-127983500D02*
X165402290Y-128007309D01*
X165402290Y-128007309D02*
X165497528Y-128007309D01*
X165497528Y-128007309D02*
X165545147Y-127983500D01*
X165545147Y-127983500D02*
X165568956Y-127935880D01*
X165568956Y-127935880D02*
X165568956Y-127745404D01*
X165568956Y-127745404D02*
X165545147Y-127697785D01*
X165545147Y-127697785D02*
X165497528Y-127673976D01*
X165497528Y-127673976D02*
X165402290Y-127673976D01*
X165402290Y-127673976D02*
X165354671Y-127697785D01*
X165354671Y-127697785D02*
X165330861Y-127745404D01*
X165330861Y-127745404D02*
X165330861Y-127793023D01*
X165330861Y-127793023D02*
X165568956Y-127840642D01*
X164902290Y-127983500D02*
X164949909Y-128007309D01*
X164949909Y-128007309D02*
X165045147Y-128007309D01*
X165045147Y-128007309D02*
X165092766Y-127983500D01*
X165092766Y-127983500D02*
X165116576Y-127959690D01*
X165116576Y-127959690D02*
X165140385Y-127912071D01*
X165140385Y-127912071D02*
X165140385Y-127769214D01*
X165140385Y-127769214D02*
X165116576Y-127721595D01*
X165116576Y-127721595D02*
X165092766Y-127697785D01*
X165092766Y-127697785D02*
X165045147Y-127673976D01*
X165045147Y-127673976D02*
X164949909Y-127673976D01*
X164949909Y-127673976D02*
X164902290Y-127697785D01*
X164759433Y-127673976D02*
X164568957Y-127673976D01*
X164688005Y-127507309D02*
X164688005Y-127935880D01*
X164688005Y-127935880D02*
X164664195Y-127983500D01*
X164664195Y-127983500D02*
X164616576Y-128007309D01*
X164616576Y-128007309D02*
X164568957Y-128007309D01*
X163807053Y-128007309D02*
X163807053Y-127745404D01*
X163807053Y-127745404D02*
X163830863Y-127697785D01*
X163830863Y-127697785D02*
X163878482Y-127673976D01*
X163878482Y-127673976D02*
X163973720Y-127673976D01*
X163973720Y-127673976D02*
X164021339Y-127697785D01*
X163807053Y-127983500D02*
X163854672Y-128007309D01*
X163854672Y-128007309D02*
X163973720Y-128007309D01*
X163973720Y-128007309D02*
X164021339Y-127983500D01*
X164021339Y-127983500D02*
X164045148Y-127935880D01*
X164045148Y-127935880D02*
X164045148Y-127888261D01*
X164045148Y-127888261D02*
X164021339Y-127840642D01*
X164021339Y-127840642D02*
X163973720Y-127816833D01*
X163973720Y-127816833D02*
X163854672Y-127816833D01*
X163854672Y-127816833D02*
X163807053Y-127793023D01*
X163568958Y-127673976D02*
X163568958Y-128007309D01*
X163568958Y-127721595D02*
X163545148Y-127697785D01*
X163545148Y-127697785D02*
X163497529Y-127673976D01*
X163497529Y-127673976D02*
X163426101Y-127673976D01*
X163426101Y-127673976D02*
X163378482Y-127697785D01*
X163378482Y-127697785D02*
X163354672Y-127745404D01*
X163354672Y-127745404D02*
X163354672Y-128007309D01*
X162902291Y-128007309D02*
X162902291Y-127507309D01*
X162902291Y-127983500D02*
X162949910Y-128007309D01*
X162949910Y-128007309D02*
X163045148Y-128007309D01*
X163045148Y-128007309D02*
X163092767Y-127983500D01*
X163092767Y-127983500D02*
X163116577Y-127959690D01*
X163116577Y-127959690D02*
X163140386Y-127912071D01*
X163140386Y-127912071D02*
X163140386Y-127769214D01*
X163140386Y-127769214D02*
X163116577Y-127721595D01*
X163116577Y-127721595D02*
X163092767Y-127697785D01*
X163092767Y-127697785D02*
X163045148Y-127673976D01*
X163045148Y-127673976D02*
X162949910Y-127673976D01*
X162949910Y-127673976D02*
X162902291Y-127697785D01*
X162283244Y-128007309D02*
X162283244Y-127673976D01*
X162283244Y-127507309D02*
X162307053Y-127531119D01*
X162307053Y-127531119D02*
X162283244Y-127554928D01*
X162283244Y-127554928D02*
X162259434Y-127531119D01*
X162259434Y-127531119D02*
X162283244Y-127507309D01*
X162283244Y-127507309D02*
X162283244Y-127554928D01*
X162116577Y-127673976D02*
X161926101Y-127673976D01*
X162045149Y-127507309D02*
X162045149Y-127935880D01*
X162045149Y-127935880D02*
X162021339Y-127983500D01*
X162021339Y-127983500D02*
X161973720Y-128007309D01*
X161973720Y-128007309D02*
X161926101Y-128007309D01*
X161735625Y-127507309D02*
X161783244Y-127602547D01*
X161545149Y-127983500D02*
X161497530Y-128007309D01*
X161497530Y-128007309D02*
X161402292Y-128007309D01*
X161402292Y-128007309D02*
X161354673Y-127983500D01*
X161354673Y-127983500D02*
X161330864Y-127935880D01*
X161330864Y-127935880D02*
X161330864Y-127912071D01*
X161330864Y-127912071D02*
X161354673Y-127864452D01*
X161354673Y-127864452D02*
X161402292Y-127840642D01*
X161402292Y-127840642D02*
X161473721Y-127840642D01*
X161473721Y-127840642D02*
X161521340Y-127816833D01*
X161521340Y-127816833D02*
X161545149Y-127769214D01*
X161545149Y-127769214D02*
X161545149Y-127745404D01*
X161545149Y-127745404D02*
X161521340Y-127697785D01*
X161521340Y-127697785D02*
X161473721Y-127673976D01*
X161473721Y-127673976D02*
X161402292Y-127673976D01*
X161402292Y-127673976D02*
X161354673Y-127697785D01*
X160521340Y-127983500D02*
X160568959Y-128007309D01*
X160568959Y-128007309D02*
X160664197Y-128007309D01*
X160664197Y-128007309D02*
X160711816Y-127983500D01*
X160711816Y-127983500D02*
X160735626Y-127959690D01*
X160735626Y-127959690D02*
X160759435Y-127912071D01*
X160759435Y-127912071D02*
X160759435Y-127769214D01*
X160759435Y-127769214D02*
X160735626Y-127721595D01*
X160735626Y-127721595D02*
X160711816Y-127697785D01*
X160711816Y-127697785D02*
X160664197Y-127673976D01*
X160664197Y-127673976D02*
X160568959Y-127673976D01*
X160568959Y-127673976D02*
X160521340Y-127697785D01*
X160235626Y-128007309D02*
X160283245Y-127983500D01*
X160283245Y-127983500D02*
X160307055Y-127959690D01*
X160307055Y-127959690D02*
X160330864Y-127912071D01*
X160330864Y-127912071D02*
X160330864Y-127769214D01*
X160330864Y-127769214D02*
X160307055Y-127721595D01*
X160307055Y-127721595D02*
X160283245Y-127697785D01*
X160283245Y-127697785D02*
X160235626Y-127673976D01*
X160235626Y-127673976D02*
X160164198Y-127673976D01*
X160164198Y-127673976D02*
X160116579Y-127697785D01*
X160116579Y-127697785D02*
X160092769Y-127721595D01*
X160092769Y-127721595D02*
X160068960Y-127769214D01*
X160068960Y-127769214D02*
X160068960Y-127912071D01*
X160068960Y-127912071D02*
X160092769Y-127959690D01*
X160092769Y-127959690D02*
X160116579Y-127983500D01*
X160116579Y-127983500D02*
X160164198Y-128007309D01*
X160164198Y-128007309D02*
X160235626Y-128007309D01*
X159854674Y-127673976D02*
X159854674Y-128007309D01*
X159854674Y-127721595D02*
X159830864Y-127697785D01*
X159830864Y-127697785D02*
X159783245Y-127673976D01*
X159783245Y-127673976D02*
X159711817Y-127673976D01*
X159711817Y-127673976D02*
X159664198Y-127697785D01*
X159664198Y-127697785D02*
X159640388Y-127745404D01*
X159640388Y-127745404D02*
X159640388Y-128007309D01*
X159473721Y-127673976D02*
X159283245Y-127673976D01*
X159402293Y-127507309D02*
X159402293Y-127935880D01*
X159402293Y-127935880D02*
X159378483Y-127983500D01*
X159378483Y-127983500D02*
X159330864Y-128007309D01*
X159330864Y-128007309D02*
X159283245Y-128007309D01*
X159116579Y-128007309D02*
X159116579Y-127673976D01*
X159116579Y-127769214D02*
X159092769Y-127721595D01*
X159092769Y-127721595D02*
X159068960Y-127697785D01*
X159068960Y-127697785D02*
X159021341Y-127673976D01*
X159021341Y-127673976D02*
X158973722Y-127673976D01*
X158807055Y-128007309D02*
X158807055Y-127673976D01*
X158807055Y-127507309D02*
X158830864Y-127531119D01*
X158830864Y-127531119D02*
X158807055Y-127554928D01*
X158807055Y-127554928D02*
X158783245Y-127531119D01*
X158783245Y-127531119D02*
X158807055Y-127507309D01*
X158807055Y-127507309D02*
X158807055Y-127554928D01*
X158568960Y-128007309D02*
X158568960Y-127507309D01*
X158568960Y-127697785D02*
X158521341Y-127673976D01*
X158521341Y-127673976D02*
X158426103Y-127673976D01*
X158426103Y-127673976D02*
X158378484Y-127697785D01*
X158378484Y-127697785D02*
X158354674Y-127721595D01*
X158354674Y-127721595D02*
X158330865Y-127769214D01*
X158330865Y-127769214D02*
X158330865Y-127912071D01*
X158330865Y-127912071D02*
X158354674Y-127959690D01*
X158354674Y-127959690D02*
X158378484Y-127983500D01*
X158378484Y-127983500D02*
X158426103Y-128007309D01*
X158426103Y-128007309D02*
X158521341Y-128007309D01*
X158521341Y-128007309D02*
X158568960Y-127983500D01*
X157902293Y-127673976D02*
X157902293Y-128007309D01*
X158116579Y-127673976D02*
X158116579Y-127935880D01*
X158116579Y-127935880D02*
X158092769Y-127983500D01*
X158092769Y-127983500D02*
X158045150Y-128007309D01*
X158045150Y-128007309D02*
X157973722Y-128007309D01*
X157973722Y-128007309D02*
X157926103Y-127983500D01*
X157926103Y-127983500D02*
X157902293Y-127959690D01*
X157735626Y-127673976D02*
X157545150Y-127673976D01*
X157664198Y-127507309D02*
X157664198Y-127935880D01*
X157664198Y-127935880D02*
X157640388Y-127983500D01*
X157640388Y-127983500D02*
X157592769Y-128007309D01*
X157592769Y-128007309D02*
X157545150Y-128007309D01*
X157307055Y-128007309D02*
X157354674Y-127983500D01*
X157354674Y-127983500D02*
X157378484Y-127959690D01*
X157378484Y-127959690D02*
X157402293Y-127912071D01*
X157402293Y-127912071D02*
X157402293Y-127769214D01*
X157402293Y-127769214D02*
X157378484Y-127721595D01*
X157378484Y-127721595D02*
X157354674Y-127697785D01*
X157354674Y-127697785D02*
X157307055Y-127673976D01*
X157307055Y-127673976D02*
X157235627Y-127673976D01*
X157235627Y-127673976D02*
X157188008Y-127697785D01*
X157188008Y-127697785D02*
X157164198Y-127721595D01*
X157164198Y-127721595D02*
X157140389Y-127769214D01*
X157140389Y-127769214D02*
X157140389Y-127912071D01*
X157140389Y-127912071D02*
X157164198Y-127959690D01*
X157164198Y-127959690D02*
X157188008Y-127983500D01*
X157188008Y-127983500D02*
X157235627Y-128007309D01*
X157235627Y-128007309D02*
X157307055Y-128007309D01*
X156926103Y-128007309D02*
X156926103Y-127673976D01*
X156926103Y-127769214D02*
X156902293Y-127721595D01*
X156902293Y-127721595D02*
X156878484Y-127697785D01*
X156878484Y-127697785D02*
X156830865Y-127673976D01*
X156830865Y-127673976D02*
X156783246Y-127673976D01*
X156640388Y-127983500D02*
X156592769Y-128007309D01*
X156592769Y-128007309D02*
X156497531Y-128007309D01*
X156497531Y-128007309D02*
X156449912Y-127983500D01*
X156449912Y-127983500D02*
X156426103Y-127935880D01*
X156426103Y-127935880D02*
X156426103Y-127912071D01*
X156426103Y-127912071D02*
X156449912Y-127864452D01*
X156449912Y-127864452D02*
X156497531Y-127840642D01*
X156497531Y-127840642D02*
X156568960Y-127840642D01*
X156568960Y-127840642D02*
X156616579Y-127816833D01*
X156616579Y-127816833D02*
X156640388Y-127769214D01*
X156640388Y-127769214D02*
X156640388Y-127745404D01*
X156640388Y-127745404D02*
X156616579Y-127697785D01*
X156616579Y-127697785D02*
X156568960Y-127673976D01*
X156568960Y-127673976D02*
X156497531Y-127673976D01*
X156497531Y-127673976D02*
X156449912Y-127697785D01*
X155616579Y-128007309D02*
X155616579Y-127745404D01*
X155616579Y-127745404D02*
X155640389Y-127697785D01*
X155640389Y-127697785D02*
X155688008Y-127673976D01*
X155688008Y-127673976D02*
X155783246Y-127673976D01*
X155783246Y-127673976D02*
X155830865Y-127697785D01*
X155616579Y-127983500D02*
X155664198Y-128007309D01*
X155664198Y-128007309D02*
X155783246Y-128007309D01*
X155783246Y-128007309D02*
X155830865Y-127983500D01*
X155830865Y-127983500D02*
X155854674Y-127935880D01*
X155854674Y-127935880D02*
X155854674Y-127888261D01*
X155854674Y-127888261D02*
X155830865Y-127840642D01*
X155830865Y-127840642D02*
X155783246Y-127816833D01*
X155783246Y-127816833D02*
X155664198Y-127816833D01*
X155664198Y-127816833D02*
X155616579Y-127793023D01*
X155378484Y-128007309D02*
X155378484Y-127673976D01*
X155378484Y-127769214D02*
X155354674Y-127721595D01*
X155354674Y-127721595D02*
X155330865Y-127697785D01*
X155330865Y-127697785D02*
X155283246Y-127673976D01*
X155283246Y-127673976D02*
X155235627Y-127673976D01*
X154878484Y-127983500D02*
X154926103Y-128007309D01*
X154926103Y-128007309D02*
X155021341Y-128007309D01*
X155021341Y-128007309D02*
X155068960Y-127983500D01*
X155068960Y-127983500D02*
X155092769Y-127935880D01*
X155092769Y-127935880D02*
X155092769Y-127745404D01*
X155092769Y-127745404D02*
X155068960Y-127697785D01*
X155068960Y-127697785D02*
X155021341Y-127673976D01*
X155021341Y-127673976D02*
X154926103Y-127673976D01*
X154926103Y-127673976D02*
X154878484Y-127697785D01*
X154878484Y-127697785D02*
X154854674Y-127745404D01*
X154854674Y-127745404D02*
X154854674Y-127793023D01*
X154854674Y-127793023D02*
X155092769Y-127840642D01*
X154259437Y-127673976D02*
X154259437Y-128007309D01*
X154259437Y-127721595D02*
X154235627Y-127697785D01*
X154235627Y-127697785D02*
X154188008Y-127673976D01*
X154188008Y-127673976D02*
X154116580Y-127673976D01*
X154116580Y-127673976D02*
X154068961Y-127697785D01*
X154068961Y-127697785D02*
X154045151Y-127745404D01*
X154045151Y-127745404D02*
X154045151Y-128007309D01*
X153735627Y-128007309D02*
X153783246Y-127983500D01*
X153783246Y-127983500D02*
X153807056Y-127959690D01*
X153807056Y-127959690D02*
X153830865Y-127912071D01*
X153830865Y-127912071D02*
X153830865Y-127769214D01*
X153830865Y-127769214D02*
X153807056Y-127721595D01*
X153807056Y-127721595D02*
X153783246Y-127697785D01*
X153783246Y-127697785D02*
X153735627Y-127673976D01*
X153735627Y-127673976D02*
X153664199Y-127673976D01*
X153664199Y-127673976D02*
X153616580Y-127697785D01*
X153616580Y-127697785D02*
X153592770Y-127721595D01*
X153592770Y-127721595D02*
X153568961Y-127769214D01*
X153568961Y-127769214D02*
X153568961Y-127912071D01*
X153568961Y-127912071D02*
X153592770Y-127959690D01*
X153592770Y-127959690D02*
X153616580Y-127983500D01*
X153616580Y-127983500D02*
X153664199Y-128007309D01*
X153664199Y-128007309D02*
X153735627Y-128007309D01*
X153426103Y-127673976D02*
X153235627Y-127673976D01*
X153354675Y-127507309D02*
X153354675Y-127935880D01*
X153354675Y-127935880D02*
X153330865Y-127983500D01*
X153330865Y-127983500D02*
X153283246Y-128007309D01*
X153283246Y-128007309D02*
X153235627Y-128007309D01*
X152473723Y-128007309D02*
X152473723Y-127745404D01*
X152473723Y-127745404D02*
X152497533Y-127697785D01*
X152497533Y-127697785D02*
X152545152Y-127673976D01*
X152545152Y-127673976D02*
X152640390Y-127673976D01*
X152640390Y-127673976D02*
X152688009Y-127697785D01*
X152473723Y-127983500D02*
X152521342Y-128007309D01*
X152521342Y-128007309D02*
X152640390Y-128007309D01*
X152640390Y-128007309D02*
X152688009Y-127983500D01*
X152688009Y-127983500D02*
X152711818Y-127935880D01*
X152711818Y-127935880D02*
X152711818Y-127888261D01*
X152711818Y-127888261D02*
X152688009Y-127840642D01*
X152688009Y-127840642D02*
X152640390Y-127816833D01*
X152640390Y-127816833D02*
X152521342Y-127816833D01*
X152521342Y-127816833D02*
X152473723Y-127793023D01*
X152307056Y-127673976D02*
X152116580Y-127673976D01*
X152235628Y-128007309D02*
X152235628Y-127578738D01*
X152235628Y-127578738D02*
X152211818Y-127531119D01*
X152211818Y-127531119D02*
X152164199Y-127507309D01*
X152164199Y-127507309D02*
X152116580Y-127507309D01*
X152021342Y-127673976D02*
X151830866Y-127673976D01*
X151949914Y-128007309D02*
X151949914Y-127578738D01*
X151949914Y-127578738D02*
X151926104Y-127531119D01*
X151926104Y-127531119D02*
X151878485Y-127507309D01*
X151878485Y-127507309D02*
X151830866Y-127507309D01*
X151664200Y-128007309D02*
X151664200Y-127673976D01*
X151664200Y-127507309D02*
X151688009Y-127531119D01*
X151688009Y-127531119D02*
X151664200Y-127554928D01*
X151664200Y-127554928D02*
X151640390Y-127531119D01*
X151640390Y-127531119D02*
X151664200Y-127507309D01*
X151664200Y-127507309D02*
X151664200Y-127554928D01*
X151354676Y-128007309D02*
X151402295Y-127983500D01*
X151402295Y-127983500D02*
X151426105Y-127935880D01*
X151426105Y-127935880D02*
X151426105Y-127507309D01*
X151164200Y-128007309D02*
X151164200Y-127673976D01*
X151164200Y-127507309D02*
X151188009Y-127531119D01*
X151188009Y-127531119D02*
X151164200Y-127554928D01*
X151164200Y-127554928D02*
X151140390Y-127531119D01*
X151140390Y-127531119D02*
X151164200Y-127507309D01*
X151164200Y-127507309D02*
X151164200Y-127554928D01*
X150711819Y-128007309D02*
X150711819Y-127745404D01*
X150711819Y-127745404D02*
X150735629Y-127697785D01*
X150735629Y-127697785D02*
X150783248Y-127673976D01*
X150783248Y-127673976D02*
X150878486Y-127673976D01*
X150878486Y-127673976D02*
X150926105Y-127697785D01*
X150711819Y-127983500D02*
X150759438Y-128007309D01*
X150759438Y-128007309D02*
X150878486Y-128007309D01*
X150878486Y-128007309D02*
X150926105Y-127983500D01*
X150926105Y-127983500D02*
X150949914Y-127935880D01*
X150949914Y-127935880D02*
X150949914Y-127888261D01*
X150949914Y-127888261D02*
X150926105Y-127840642D01*
X150926105Y-127840642D02*
X150878486Y-127816833D01*
X150878486Y-127816833D02*
X150759438Y-127816833D01*
X150759438Y-127816833D02*
X150711819Y-127793023D01*
X150545152Y-127673976D02*
X150354676Y-127673976D01*
X150473724Y-127507309D02*
X150473724Y-127935880D01*
X150473724Y-127935880D02*
X150449914Y-127983500D01*
X150449914Y-127983500D02*
X150402295Y-128007309D01*
X150402295Y-128007309D02*
X150354676Y-128007309D01*
X149997534Y-127983500D02*
X150045153Y-128007309D01*
X150045153Y-128007309D02*
X150140391Y-128007309D01*
X150140391Y-128007309D02*
X150188010Y-127983500D01*
X150188010Y-127983500D02*
X150211819Y-127935880D01*
X150211819Y-127935880D02*
X150211819Y-127745404D01*
X150211819Y-127745404D02*
X150188010Y-127697785D01*
X150188010Y-127697785D02*
X150140391Y-127673976D01*
X150140391Y-127673976D02*
X150045153Y-127673976D01*
X150045153Y-127673976D02*
X149997534Y-127697785D01*
X149997534Y-127697785D02*
X149973724Y-127745404D01*
X149973724Y-127745404D02*
X149973724Y-127793023D01*
X149973724Y-127793023D02*
X150211819Y-127840642D01*
X149545153Y-128007309D02*
X149545153Y-127507309D01*
X149545153Y-127983500D02*
X149592772Y-128007309D01*
X149592772Y-128007309D02*
X149688010Y-128007309D01*
X149688010Y-128007309D02*
X149735629Y-127983500D01*
X149735629Y-127983500D02*
X149759439Y-127959690D01*
X149759439Y-127959690D02*
X149783248Y-127912071D01*
X149783248Y-127912071D02*
X149783248Y-127769214D01*
X149783248Y-127769214D02*
X149759439Y-127721595D01*
X149759439Y-127721595D02*
X149735629Y-127697785D01*
X149735629Y-127697785D02*
X149688010Y-127673976D01*
X149688010Y-127673976D02*
X149592772Y-127673976D01*
X149592772Y-127673976D02*
X149545153Y-127697785D01*
X149283248Y-127983500D02*
X149283248Y-128007309D01*
X149283248Y-128007309D02*
X149307058Y-128054928D01*
X149307058Y-128054928D02*
X149330867Y-128078738D01*
X172259430Y-128812309D02*
X172259430Y-128550404D01*
X172259430Y-128550404D02*
X172283240Y-128502785D01*
X172283240Y-128502785D02*
X172330859Y-128478976D01*
X172330859Y-128478976D02*
X172426097Y-128478976D01*
X172426097Y-128478976D02*
X172473716Y-128502785D01*
X172259430Y-128788500D02*
X172307049Y-128812309D01*
X172307049Y-128812309D02*
X172426097Y-128812309D01*
X172426097Y-128812309D02*
X172473716Y-128788500D01*
X172473716Y-128788500D02*
X172497525Y-128740880D01*
X172497525Y-128740880D02*
X172497525Y-128693261D01*
X172497525Y-128693261D02*
X172473716Y-128645642D01*
X172473716Y-128645642D02*
X172426097Y-128621833D01*
X172426097Y-128621833D02*
X172307049Y-128621833D01*
X172307049Y-128621833D02*
X172259430Y-128598023D01*
X172045144Y-128788500D02*
X171997525Y-128812309D01*
X171997525Y-128812309D02*
X171902287Y-128812309D01*
X171902287Y-128812309D02*
X171854668Y-128788500D01*
X171854668Y-128788500D02*
X171830859Y-128740880D01*
X171830859Y-128740880D02*
X171830859Y-128717071D01*
X171830859Y-128717071D02*
X171854668Y-128669452D01*
X171854668Y-128669452D02*
X171902287Y-128645642D01*
X171902287Y-128645642D02*
X171973716Y-128645642D01*
X171973716Y-128645642D02*
X172021335Y-128621833D01*
X172021335Y-128621833D02*
X172045144Y-128574214D01*
X172045144Y-128574214D02*
X172045144Y-128550404D01*
X172045144Y-128550404D02*
X172021335Y-128502785D01*
X172021335Y-128502785D02*
X171973716Y-128478976D01*
X171973716Y-128478976D02*
X171902287Y-128478976D01*
X171902287Y-128478976D02*
X171854668Y-128502785D01*
X171640382Y-128788500D02*
X171592763Y-128812309D01*
X171592763Y-128812309D02*
X171497525Y-128812309D01*
X171497525Y-128812309D02*
X171449906Y-128788500D01*
X171449906Y-128788500D02*
X171426097Y-128740880D01*
X171426097Y-128740880D02*
X171426097Y-128717071D01*
X171426097Y-128717071D02*
X171449906Y-128669452D01*
X171449906Y-128669452D02*
X171497525Y-128645642D01*
X171497525Y-128645642D02*
X171568954Y-128645642D01*
X171568954Y-128645642D02*
X171616573Y-128621833D01*
X171616573Y-128621833D02*
X171640382Y-128574214D01*
X171640382Y-128574214D02*
X171640382Y-128550404D01*
X171640382Y-128550404D02*
X171616573Y-128502785D01*
X171616573Y-128502785D02*
X171568954Y-128478976D01*
X171568954Y-128478976D02*
X171497525Y-128478976D01*
X171497525Y-128478976D02*
X171449906Y-128502785D01*
X171140382Y-128812309D02*
X171188001Y-128788500D01*
X171188001Y-128788500D02*
X171211811Y-128764690D01*
X171211811Y-128764690D02*
X171235620Y-128717071D01*
X171235620Y-128717071D02*
X171235620Y-128574214D01*
X171235620Y-128574214D02*
X171211811Y-128526595D01*
X171211811Y-128526595D02*
X171188001Y-128502785D01*
X171188001Y-128502785D02*
X171140382Y-128478976D01*
X171140382Y-128478976D02*
X171068954Y-128478976D01*
X171068954Y-128478976D02*
X171021335Y-128502785D01*
X171021335Y-128502785D02*
X170997525Y-128526595D01*
X170997525Y-128526595D02*
X170973716Y-128574214D01*
X170973716Y-128574214D02*
X170973716Y-128717071D01*
X170973716Y-128717071D02*
X170997525Y-128764690D01*
X170997525Y-128764690D02*
X171021335Y-128788500D01*
X171021335Y-128788500D02*
X171068954Y-128812309D01*
X171068954Y-128812309D02*
X171140382Y-128812309D01*
X170545144Y-128788500D02*
X170592763Y-128812309D01*
X170592763Y-128812309D02*
X170688001Y-128812309D01*
X170688001Y-128812309D02*
X170735620Y-128788500D01*
X170735620Y-128788500D02*
X170759430Y-128764690D01*
X170759430Y-128764690D02*
X170783239Y-128717071D01*
X170783239Y-128717071D02*
X170783239Y-128574214D01*
X170783239Y-128574214D02*
X170759430Y-128526595D01*
X170759430Y-128526595D02*
X170735620Y-128502785D01*
X170735620Y-128502785D02*
X170688001Y-128478976D01*
X170688001Y-128478976D02*
X170592763Y-128478976D01*
X170592763Y-128478976D02*
X170545144Y-128502785D01*
X170330859Y-128812309D02*
X170330859Y-128478976D01*
X170330859Y-128312309D02*
X170354668Y-128336119D01*
X170354668Y-128336119D02*
X170330859Y-128359928D01*
X170330859Y-128359928D02*
X170307049Y-128336119D01*
X170307049Y-128336119D02*
X170330859Y-128312309D01*
X170330859Y-128312309D02*
X170330859Y-128359928D01*
X169878478Y-128812309D02*
X169878478Y-128550404D01*
X169878478Y-128550404D02*
X169902288Y-128502785D01*
X169902288Y-128502785D02*
X169949907Y-128478976D01*
X169949907Y-128478976D02*
X170045145Y-128478976D01*
X170045145Y-128478976D02*
X170092764Y-128502785D01*
X169878478Y-128788500D02*
X169926097Y-128812309D01*
X169926097Y-128812309D02*
X170045145Y-128812309D01*
X170045145Y-128812309D02*
X170092764Y-128788500D01*
X170092764Y-128788500D02*
X170116573Y-128740880D01*
X170116573Y-128740880D02*
X170116573Y-128693261D01*
X170116573Y-128693261D02*
X170092764Y-128645642D01*
X170092764Y-128645642D02*
X170045145Y-128621833D01*
X170045145Y-128621833D02*
X169926097Y-128621833D01*
X169926097Y-128621833D02*
X169878478Y-128598023D01*
X169711811Y-128478976D02*
X169521335Y-128478976D01*
X169640383Y-128312309D02*
X169640383Y-128740880D01*
X169640383Y-128740880D02*
X169616573Y-128788500D01*
X169616573Y-128788500D02*
X169568954Y-128812309D01*
X169568954Y-128812309D02*
X169521335Y-128812309D01*
X169164193Y-128788500D02*
X169211812Y-128812309D01*
X169211812Y-128812309D02*
X169307050Y-128812309D01*
X169307050Y-128812309D02*
X169354669Y-128788500D01*
X169354669Y-128788500D02*
X169378478Y-128740880D01*
X169378478Y-128740880D02*
X169378478Y-128550404D01*
X169378478Y-128550404D02*
X169354669Y-128502785D01*
X169354669Y-128502785D02*
X169307050Y-128478976D01*
X169307050Y-128478976D02*
X169211812Y-128478976D01*
X169211812Y-128478976D02*
X169164193Y-128502785D01*
X169164193Y-128502785D02*
X169140383Y-128550404D01*
X169140383Y-128550404D02*
X169140383Y-128598023D01*
X169140383Y-128598023D02*
X169378478Y-128645642D01*
X168711812Y-128812309D02*
X168711812Y-128312309D01*
X168711812Y-128788500D02*
X168759431Y-128812309D01*
X168759431Y-128812309D02*
X168854669Y-128812309D01*
X168854669Y-128812309D02*
X168902288Y-128788500D01*
X168902288Y-128788500D02*
X168926098Y-128764690D01*
X168926098Y-128764690D02*
X168949907Y-128717071D01*
X168949907Y-128717071D02*
X168949907Y-128574214D01*
X168949907Y-128574214D02*
X168926098Y-128526595D01*
X168926098Y-128526595D02*
X168902288Y-128502785D01*
X168902288Y-128502785D02*
X168854669Y-128478976D01*
X168854669Y-128478976D02*
X168759431Y-128478976D01*
X168759431Y-128478976D02*
X168711812Y-128502785D01*
X168449907Y-128788500D02*
X168449907Y-128812309D01*
X168449907Y-128812309D02*
X168473717Y-128859928D01*
X168473717Y-128859928D02*
X168497526Y-128883738D01*
X167640384Y-128812309D02*
X167640384Y-128550404D01*
X167640384Y-128550404D02*
X167664194Y-128502785D01*
X167664194Y-128502785D02*
X167711813Y-128478976D01*
X167711813Y-128478976D02*
X167807051Y-128478976D01*
X167807051Y-128478976D02*
X167854670Y-128502785D01*
X167640384Y-128788500D02*
X167688003Y-128812309D01*
X167688003Y-128812309D02*
X167807051Y-128812309D01*
X167807051Y-128812309D02*
X167854670Y-128788500D01*
X167854670Y-128788500D02*
X167878479Y-128740880D01*
X167878479Y-128740880D02*
X167878479Y-128693261D01*
X167878479Y-128693261D02*
X167854670Y-128645642D01*
X167854670Y-128645642D02*
X167807051Y-128621833D01*
X167807051Y-128621833D02*
X167688003Y-128621833D01*
X167688003Y-128621833D02*
X167640384Y-128598023D01*
X167188003Y-128478976D02*
X167188003Y-128812309D01*
X167402289Y-128478976D02*
X167402289Y-128740880D01*
X167402289Y-128740880D02*
X167378479Y-128788500D01*
X167378479Y-128788500D02*
X167330860Y-128812309D01*
X167330860Y-128812309D02*
X167259432Y-128812309D01*
X167259432Y-128812309D02*
X167211813Y-128788500D01*
X167211813Y-128788500D02*
X167188003Y-128764690D01*
X167021336Y-128478976D02*
X166830860Y-128478976D01*
X166949908Y-128312309D02*
X166949908Y-128740880D01*
X166949908Y-128740880D02*
X166926098Y-128788500D01*
X166926098Y-128788500D02*
X166878479Y-128812309D01*
X166878479Y-128812309D02*
X166830860Y-128812309D01*
X166664194Y-128812309D02*
X166664194Y-128312309D01*
X166449908Y-128812309D02*
X166449908Y-128550404D01*
X166449908Y-128550404D02*
X166473718Y-128502785D01*
X166473718Y-128502785D02*
X166521337Y-128478976D01*
X166521337Y-128478976D02*
X166592765Y-128478976D01*
X166592765Y-128478976D02*
X166640384Y-128502785D01*
X166640384Y-128502785D02*
X166664194Y-128526595D01*
X166140384Y-128812309D02*
X166188003Y-128788500D01*
X166188003Y-128788500D02*
X166211813Y-128764690D01*
X166211813Y-128764690D02*
X166235622Y-128717071D01*
X166235622Y-128717071D02*
X166235622Y-128574214D01*
X166235622Y-128574214D02*
X166211813Y-128526595D01*
X166211813Y-128526595D02*
X166188003Y-128502785D01*
X166188003Y-128502785D02*
X166140384Y-128478976D01*
X166140384Y-128478976D02*
X166068956Y-128478976D01*
X166068956Y-128478976D02*
X166021337Y-128502785D01*
X166021337Y-128502785D02*
X165997527Y-128526595D01*
X165997527Y-128526595D02*
X165973718Y-128574214D01*
X165973718Y-128574214D02*
X165973718Y-128717071D01*
X165973718Y-128717071D02*
X165997527Y-128764690D01*
X165997527Y-128764690D02*
X166021337Y-128788500D01*
X166021337Y-128788500D02*
X166068956Y-128812309D01*
X166068956Y-128812309D02*
X166140384Y-128812309D01*
X165759432Y-128812309D02*
X165759432Y-128478976D01*
X165759432Y-128574214D02*
X165735622Y-128526595D01*
X165735622Y-128526595D02*
X165711813Y-128502785D01*
X165711813Y-128502785D02*
X165664194Y-128478976D01*
X165664194Y-128478976D02*
X165616575Y-128478976D01*
X165449908Y-128812309D02*
X165449908Y-128478976D01*
X165449908Y-128312309D02*
X165473717Y-128336119D01*
X165473717Y-128336119D02*
X165449908Y-128359928D01*
X165449908Y-128359928D02*
X165426098Y-128336119D01*
X165426098Y-128336119D02*
X165449908Y-128312309D01*
X165449908Y-128312309D02*
X165449908Y-128359928D01*
X165259432Y-128478976D02*
X164997527Y-128478976D01*
X164997527Y-128478976D02*
X165259432Y-128812309D01*
X165259432Y-128812309D02*
X164997527Y-128812309D01*
X164616575Y-128788500D02*
X164664194Y-128812309D01*
X164664194Y-128812309D02*
X164759432Y-128812309D01*
X164759432Y-128812309D02*
X164807051Y-128788500D01*
X164807051Y-128788500D02*
X164830860Y-128740880D01*
X164830860Y-128740880D02*
X164830860Y-128550404D01*
X164830860Y-128550404D02*
X164807051Y-128502785D01*
X164807051Y-128502785D02*
X164759432Y-128478976D01*
X164759432Y-128478976D02*
X164664194Y-128478976D01*
X164664194Y-128478976D02*
X164616575Y-128502785D01*
X164616575Y-128502785D02*
X164592765Y-128550404D01*
X164592765Y-128550404D02*
X164592765Y-128598023D01*
X164592765Y-128598023D02*
X164830860Y-128645642D01*
X164164194Y-128812309D02*
X164164194Y-128312309D01*
X164164194Y-128788500D02*
X164211813Y-128812309D01*
X164211813Y-128812309D02*
X164307051Y-128812309D01*
X164307051Y-128812309D02*
X164354670Y-128788500D01*
X164354670Y-128788500D02*
X164378480Y-128764690D01*
X164378480Y-128764690D02*
X164402289Y-128717071D01*
X164402289Y-128717071D02*
X164402289Y-128574214D01*
X164402289Y-128574214D02*
X164378480Y-128526595D01*
X164378480Y-128526595D02*
X164354670Y-128502785D01*
X164354670Y-128502785D02*
X164307051Y-128478976D01*
X164307051Y-128478976D02*
X164211813Y-128478976D01*
X164211813Y-128478976D02*
X164164194Y-128502785D01*
X163902289Y-128788500D02*
X163902289Y-128812309D01*
X163902289Y-128812309D02*
X163926099Y-128859928D01*
X163926099Y-128859928D02*
X163949908Y-128883738D01*
X163116576Y-128788500D02*
X163164195Y-128812309D01*
X163164195Y-128812309D02*
X163259433Y-128812309D01*
X163259433Y-128812309D02*
X163307052Y-128788500D01*
X163307052Y-128788500D02*
X163330861Y-128740880D01*
X163330861Y-128740880D02*
X163330861Y-128550404D01*
X163330861Y-128550404D02*
X163307052Y-128502785D01*
X163307052Y-128502785D02*
X163259433Y-128478976D01*
X163259433Y-128478976D02*
X163164195Y-128478976D01*
X163164195Y-128478976D02*
X163116576Y-128502785D01*
X163116576Y-128502785D02*
X163092766Y-128550404D01*
X163092766Y-128550404D02*
X163092766Y-128598023D01*
X163092766Y-128598023D02*
X163330861Y-128645642D01*
X162878481Y-128478976D02*
X162878481Y-128812309D01*
X162878481Y-128526595D02*
X162854671Y-128502785D01*
X162854671Y-128502785D02*
X162807052Y-128478976D01*
X162807052Y-128478976D02*
X162735624Y-128478976D01*
X162735624Y-128478976D02*
X162688005Y-128502785D01*
X162688005Y-128502785D02*
X162664195Y-128550404D01*
X162664195Y-128550404D02*
X162664195Y-128812309D01*
X162211814Y-128812309D02*
X162211814Y-128312309D01*
X162211814Y-128788500D02*
X162259433Y-128812309D01*
X162259433Y-128812309D02*
X162354671Y-128812309D01*
X162354671Y-128812309D02*
X162402290Y-128788500D01*
X162402290Y-128788500D02*
X162426100Y-128764690D01*
X162426100Y-128764690D02*
X162449909Y-128717071D01*
X162449909Y-128717071D02*
X162449909Y-128574214D01*
X162449909Y-128574214D02*
X162426100Y-128526595D01*
X162426100Y-128526595D02*
X162402290Y-128502785D01*
X162402290Y-128502785D02*
X162354671Y-128478976D01*
X162354671Y-128478976D02*
X162259433Y-128478976D01*
X162259433Y-128478976D02*
X162211814Y-128502785D01*
X161902290Y-128812309D02*
X161949909Y-128788500D01*
X161949909Y-128788500D02*
X161973719Y-128764690D01*
X161973719Y-128764690D02*
X161997528Y-128717071D01*
X161997528Y-128717071D02*
X161997528Y-128574214D01*
X161997528Y-128574214D02*
X161973719Y-128526595D01*
X161973719Y-128526595D02*
X161949909Y-128502785D01*
X161949909Y-128502785D02*
X161902290Y-128478976D01*
X161902290Y-128478976D02*
X161830862Y-128478976D01*
X161830862Y-128478976D02*
X161783243Y-128502785D01*
X161783243Y-128502785D02*
X161759433Y-128526595D01*
X161759433Y-128526595D02*
X161735624Y-128574214D01*
X161735624Y-128574214D02*
X161735624Y-128717071D01*
X161735624Y-128717071D02*
X161759433Y-128764690D01*
X161759433Y-128764690D02*
X161783243Y-128788500D01*
X161783243Y-128788500D02*
X161830862Y-128812309D01*
X161830862Y-128812309D02*
X161902290Y-128812309D01*
X161521338Y-128812309D02*
X161521338Y-128478976D01*
X161521338Y-128574214D02*
X161497528Y-128526595D01*
X161497528Y-128526595D02*
X161473719Y-128502785D01*
X161473719Y-128502785D02*
X161426100Y-128478976D01*
X161426100Y-128478976D02*
X161378481Y-128478976D01*
X161235623Y-128788500D02*
X161188004Y-128812309D01*
X161188004Y-128812309D02*
X161092766Y-128812309D01*
X161092766Y-128812309D02*
X161045147Y-128788500D01*
X161045147Y-128788500D02*
X161021338Y-128740880D01*
X161021338Y-128740880D02*
X161021338Y-128717071D01*
X161021338Y-128717071D02*
X161045147Y-128669452D01*
X161045147Y-128669452D02*
X161092766Y-128645642D01*
X161092766Y-128645642D02*
X161164195Y-128645642D01*
X161164195Y-128645642D02*
X161211814Y-128621833D01*
X161211814Y-128621833D02*
X161235623Y-128574214D01*
X161235623Y-128574214D02*
X161235623Y-128550404D01*
X161235623Y-128550404D02*
X161211814Y-128502785D01*
X161211814Y-128502785D02*
X161164195Y-128478976D01*
X161164195Y-128478976D02*
X161092766Y-128478976D01*
X161092766Y-128478976D02*
X161045147Y-128502785D01*
X160616576Y-128788500D02*
X160664195Y-128812309D01*
X160664195Y-128812309D02*
X160759433Y-128812309D01*
X160759433Y-128812309D02*
X160807052Y-128788500D01*
X160807052Y-128788500D02*
X160830861Y-128740880D01*
X160830861Y-128740880D02*
X160830861Y-128550404D01*
X160830861Y-128550404D02*
X160807052Y-128502785D01*
X160807052Y-128502785D02*
X160759433Y-128478976D01*
X160759433Y-128478976D02*
X160664195Y-128478976D01*
X160664195Y-128478976D02*
X160616576Y-128502785D01*
X160616576Y-128502785D02*
X160592766Y-128550404D01*
X160592766Y-128550404D02*
X160592766Y-128598023D01*
X160592766Y-128598023D02*
X160830861Y-128645642D01*
X160164195Y-128812309D02*
X160164195Y-128312309D01*
X160164195Y-128788500D02*
X160211814Y-128812309D01*
X160211814Y-128812309D02*
X160307052Y-128812309D01*
X160307052Y-128812309D02*
X160354671Y-128788500D01*
X160354671Y-128788500D02*
X160378481Y-128764690D01*
X160378481Y-128764690D02*
X160402290Y-128717071D01*
X160402290Y-128717071D02*
X160402290Y-128574214D01*
X160402290Y-128574214D02*
X160378481Y-128526595D01*
X160378481Y-128526595D02*
X160354671Y-128502785D01*
X160354671Y-128502785D02*
X160307052Y-128478976D01*
X160307052Y-128478976D02*
X160211814Y-128478976D01*
X160211814Y-128478976D02*
X160164195Y-128502785D01*
X159545148Y-128812309D02*
X159545148Y-128312309D01*
X159545148Y-128502785D02*
X159497529Y-128478976D01*
X159497529Y-128478976D02*
X159402291Y-128478976D01*
X159402291Y-128478976D02*
X159354672Y-128502785D01*
X159354672Y-128502785D02*
X159330862Y-128526595D01*
X159330862Y-128526595D02*
X159307053Y-128574214D01*
X159307053Y-128574214D02*
X159307053Y-128717071D01*
X159307053Y-128717071D02*
X159330862Y-128764690D01*
X159330862Y-128764690D02*
X159354672Y-128788500D01*
X159354672Y-128788500D02*
X159402291Y-128812309D01*
X159402291Y-128812309D02*
X159497529Y-128812309D01*
X159497529Y-128812309D02*
X159545148Y-128788500D01*
X159140386Y-128478976D02*
X159021338Y-128812309D01*
X158902291Y-128478976D02*
X159021338Y-128812309D01*
X159021338Y-128812309D02*
X159068957Y-128931357D01*
X159068957Y-128931357D02*
X159092767Y-128955166D01*
X159092767Y-128955166D02*
X159140386Y-128978976D01*
X158688005Y-128788500D02*
X158688005Y-128812309D01*
X158688005Y-128812309D02*
X158711815Y-128859928D01*
X158711815Y-128859928D02*
X158735624Y-128883738D01*
X158021339Y-128812309D02*
X158068958Y-128788500D01*
X158068958Y-128788500D02*
X158092768Y-128764690D01*
X158092768Y-128764690D02*
X158116577Y-128717071D01*
X158116577Y-128717071D02*
X158116577Y-128574214D01*
X158116577Y-128574214D02*
X158092768Y-128526595D01*
X158092768Y-128526595D02*
X158068958Y-128502785D01*
X158068958Y-128502785D02*
X158021339Y-128478976D01*
X158021339Y-128478976D02*
X157949911Y-128478976D01*
X157949911Y-128478976D02*
X157902292Y-128502785D01*
X157902292Y-128502785D02*
X157878482Y-128526595D01*
X157878482Y-128526595D02*
X157854673Y-128574214D01*
X157854673Y-128574214D02*
X157854673Y-128717071D01*
X157854673Y-128717071D02*
X157878482Y-128764690D01*
X157878482Y-128764690D02*
X157902292Y-128788500D01*
X157902292Y-128788500D02*
X157949911Y-128812309D01*
X157949911Y-128812309D02*
X158021339Y-128812309D01*
X157640387Y-128812309D02*
X157640387Y-128478976D01*
X157640387Y-128574214D02*
X157616577Y-128526595D01*
X157616577Y-128526595D02*
X157592768Y-128502785D01*
X157592768Y-128502785D02*
X157545149Y-128478976D01*
X157545149Y-128478976D02*
X157497530Y-128478976D01*
X156949911Y-128812309D02*
X156949911Y-128478976D01*
X156949911Y-128312309D02*
X156973720Y-128336119D01*
X156973720Y-128336119D02*
X156949911Y-128359928D01*
X156949911Y-128359928D02*
X156926101Y-128336119D01*
X156926101Y-128336119D02*
X156949911Y-128312309D01*
X156949911Y-128312309D02*
X156949911Y-128359928D01*
X156711816Y-128478976D02*
X156711816Y-128812309D01*
X156711816Y-128526595D02*
X156688006Y-128502785D01*
X156688006Y-128502785D02*
X156640387Y-128478976D01*
X156640387Y-128478976D02*
X156568959Y-128478976D01*
X156568959Y-128478976D02*
X156521340Y-128502785D01*
X156521340Y-128502785D02*
X156497530Y-128550404D01*
X156497530Y-128550404D02*
X156497530Y-128812309D01*
X155664197Y-128812309D02*
X155664197Y-128550404D01*
X155664197Y-128550404D02*
X155688007Y-128502785D01*
X155688007Y-128502785D02*
X155735626Y-128478976D01*
X155735626Y-128478976D02*
X155830864Y-128478976D01*
X155830864Y-128478976D02*
X155878483Y-128502785D01*
X155664197Y-128788500D02*
X155711816Y-128812309D01*
X155711816Y-128812309D02*
X155830864Y-128812309D01*
X155830864Y-128812309D02*
X155878483Y-128788500D01*
X155878483Y-128788500D02*
X155902292Y-128740880D01*
X155902292Y-128740880D02*
X155902292Y-128693261D01*
X155902292Y-128693261D02*
X155878483Y-128645642D01*
X155878483Y-128645642D02*
X155830864Y-128621833D01*
X155830864Y-128621833D02*
X155711816Y-128621833D01*
X155711816Y-128621833D02*
X155664197Y-128598023D01*
X155426102Y-128478976D02*
X155426102Y-128812309D01*
X155426102Y-128526595D02*
X155402292Y-128502785D01*
X155402292Y-128502785D02*
X155354673Y-128478976D01*
X155354673Y-128478976D02*
X155283245Y-128478976D01*
X155283245Y-128478976D02*
X155235626Y-128502785D01*
X155235626Y-128502785D02*
X155211816Y-128550404D01*
X155211816Y-128550404D02*
X155211816Y-128812309D01*
X155021340Y-128478976D02*
X154902292Y-128812309D01*
X154783245Y-128478976D02*
X154902292Y-128812309D01*
X154902292Y-128812309D02*
X154949911Y-128931357D01*
X154949911Y-128931357D02*
X154973721Y-128955166D01*
X154973721Y-128955166D02*
X155021340Y-128978976D01*
X154259436Y-128478976D02*
X154164198Y-128812309D01*
X154164198Y-128812309D02*
X154068960Y-128574214D01*
X154068960Y-128574214D02*
X153973722Y-128812309D01*
X153973722Y-128812309D02*
X153878484Y-128478976D01*
X153473721Y-128812309D02*
X153473721Y-128550404D01*
X153473721Y-128550404D02*
X153497531Y-128502785D01*
X153497531Y-128502785D02*
X153545150Y-128478976D01*
X153545150Y-128478976D02*
X153640388Y-128478976D01*
X153640388Y-128478976D02*
X153688007Y-128502785D01*
X153473721Y-128788500D02*
X153521340Y-128812309D01*
X153521340Y-128812309D02*
X153640388Y-128812309D01*
X153640388Y-128812309D02*
X153688007Y-128788500D01*
X153688007Y-128788500D02*
X153711816Y-128740880D01*
X153711816Y-128740880D02*
X153711816Y-128693261D01*
X153711816Y-128693261D02*
X153688007Y-128645642D01*
X153688007Y-128645642D02*
X153640388Y-128621833D01*
X153640388Y-128621833D02*
X153521340Y-128621833D01*
X153521340Y-128621833D02*
X153473721Y-128598023D01*
X153283245Y-128478976D02*
X153164197Y-128812309D01*
X153045150Y-128478976D02*
X153164197Y-128812309D01*
X153164197Y-128812309D02*
X153211816Y-128931357D01*
X153211816Y-128931357D02*
X153235626Y-128955166D01*
X153235626Y-128955166D02*
X153283245Y-128978976D01*
X152402293Y-128812309D02*
X152449912Y-128788500D01*
X152449912Y-128788500D02*
X152473722Y-128764690D01*
X152473722Y-128764690D02*
X152497531Y-128717071D01*
X152497531Y-128717071D02*
X152497531Y-128574214D01*
X152497531Y-128574214D02*
X152473722Y-128526595D01*
X152473722Y-128526595D02*
X152449912Y-128502785D01*
X152449912Y-128502785D02*
X152402293Y-128478976D01*
X152402293Y-128478976D02*
X152330865Y-128478976D01*
X152330865Y-128478976D02*
X152283246Y-128502785D01*
X152283246Y-128502785D02*
X152259436Y-128526595D01*
X152259436Y-128526595D02*
X152235627Y-128574214D01*
X152235627Y-128574214D02*
X152235627Y-128717071D01*
X152235627Y-128717071D02*
X152259436Y-128764690D01*
X152259436Y-128764690D02*
X152283246Y-128788500D01*
X152283246Y-128788500D02*
X152330865Y-128812309D01*
X152330865Y-128812309D02*
X152402293Y-128812309D01*
X152092769Y-128478976D02*
X151902293Y-128478976D01*
X152021341Y-128812309D02*
X152021341Y-128383738D01*
X152021341Y-128383738D02*
X151997531Y-128336119D01*
X151997531Y-128336119D02*
X151949912Y-128312309D01*
X151949912Y-128312309D02*
X151902293Y-128312309D01*
X151807055Y-128478976D02*
X151616579Y-128478976D01*
X151735627Y-128812309D02*
X151735627Y-128383738D01*
X151735627Y-128383738D02*
X151711817Y-128336119D01*
X151711817Y-128336119D02*
X151664198Y-128312309D01*
X151664198Y-128312309D02*
X151616579Y-128312309D01*
X151449913Y-128812309D02*
X151449913Y-128478976D01*
X151449913Y-128312309D02*
X151473722Y-128336119D01*
X151473722Y-128336119D02*
X151449913Y-128359928D01*
X151449913Y-128359928D02*
X151426103Y-128336119D01*
X151426103Y-128336119D02*
X151449913Y-128312309D01*
X151449913Y-128312309D02*
X151449913Y-128359928D01*
X150997532Y-128788500D02*
X151045151Y-128812309D01*
X151045151Y-128812309D02*
X151140389Y-128812309D01*
X151140389Y-128812309D02*
X151188008Y-128788500D01*
X151188008Y-128788500D02*
X151211818Y-128764690D01*
X151211818Y-128764690D02*
X151235627Y-128717071D01*
X151235627Y-128717071D02*
X151235627Y-128574214D01*
X151235627Y-128574214D02*
X151211818Y-128526595D01*
X151211818Y-128526595D02*
X151188008Y-128502785D01*
X151188008Y-128502785D02*
X151140389Y-128478976D01*
X151140389Y-128478976D02*
X151045151Y-128478976D01*
X151045151Y-128478976D02*
X150997532Y-128502785D01*
X150783247Y-128812309D02*
X150783247Y-128478976D01*
X150783247Y-128312309D02*
X150807056Y-128336119D01*
X150807056Y-128336119D02*
X150783247Y-128359928D01*
X150783247Y-128359928D02*
X150759437Y-128336119D01*
X150759437Y-128336119D02*
X150783247Y-128312309D01*
X150783247Y-128312309D02*
X150783247Y-128359928D01*
X150330866Y-128812309D02*
X150330866Y-128550404D01*
X150330866Y-128550404D02*
X150354676Y-128502785D01*
X150354676Y-128502785D02*
X150402295Y-128478976D01*
X150402295Y-128478976D02*
X150497533Y-128478976D01*
X150497533Y-128478976D02*
X150545152Y-128502785D01*
X150330866Y-128788500D02*
X150378485Y-128812309D01*
X150378485Y-128812309D02*
X150497533Y-128812309D01*
X150497533Y-128812309D02*
X150545152Y-128788500D01*
X150545152Y-128788500D02*
X150568961Y-128740880D01*
X150568961Y-128740880D02*
X150568961Y-128693261D01*
X150568961Y-128693261D02*
X150545152Y-128645642D01*
X150545152Y-128645642D02*
X150497533Y-128621833D01*
X150497533Y-128621833D02*
X150378485Y-128621833D01*
X150378485Y-128621833D02*
X150330866Y-128598023D01*
X150021342Y-128812309D02*
X150068961Y-128788500D01*
X150068961Y-128788500D02*
X150092771Y-128740880D01*
X150092771Y-128740880D02*
X150092771Y-128312309D01*
X149759437Y-128812309D02*
X149807056Y-128788500D01*
X149807056Y-128788500D02*
X149830866Y-128740880D01*
X149830866Y-128740880D02*
X149830866Y-128312309D01*
X149616580Y-128478976D02*
X149497532Y-128812309D01*
X149378485Y-128478976D02*
X149497532Y-128812309D01*
X149497532Y-128812309D02*
X149545151Y-128931357D01*
X149545151Y-128931357D02*
X149568961Y-128955166D01*
X149568961Y-128955166D02*
X149616580Y-128978976D01*
X172259430Y-129593500D02*
X172307049Y-129617309D01*
X172307049Y-129617309D02*
X172402287Y-129617309D01*
X172402287Y-129617309D02*
X172449906Y-129593500D01*
X172449906Y-129593500D02*
X172473716Y-129569690D01*
X172473716Y-129569690D02*
X172497525Y-129522071D01*
X172497525Y-129522071D02*
X172497525Y-129379214D01*
X172497525Y-129379214D02*
X172473716Y-129331595D01*
X172473716Y-129331595D02*
X172449906Y-129307785D01*
X172449906Y-129307785D02*
X172402287Y-129283976D01*
X172402287Y-129283976D02*
X172307049Y-129283976D01*
X172307049Y-129283976D02*
X172259430Y-129307785D01*
X171973716Y-129617309D02*
X172021335Y-129593500D01*
X172021335Y-129593500D02*
X172045145Y-129569690D01*
X172045145Y-129569690D02*
X172068954Y-129522071D01*
X172068954Y-129522071D02*
X172068954Y-129379214D01*
X172068954Y-129379214D02*
X172045145Y-129331595D01*
X172045145Y-129331595D02*
X172021335Y-129307785D01*
X172021335Y-129307785D02*
X171973716Y-129283976D01*
X171973716Y-129283976D02*
X171902288Y-129283976D01*
X171902288Y-129283976D02*
X171854669Y-129307785D01*
X171854669Y-129307785D02*
X171830859Y-129331595D01*
X171830859Y-129331595D02*
X171807050Y-129379214D01*
X171807050Y-129379214D02*
X171807050Y-129522071D01*
X171807050Y-129522071D02*
X171830859Y-129569690D01*
X171830859Y-129569690D02*
X171854669Y-129593500D01*
X171854669Y-129593500D02*
X171902288Y-129617309D01*
X171902288Y-129617309D02*
X171973716Y-129617309D01*
X171592764Y-129283976D02*
X171592764Y-129617309D01*
X171592764Y-129331595D02*
X171568954Y-129307785D01*
X171568954Y-129307785D02*
X171521335Y-129283976D01*
X171521335Y-129283976D02*
X171449907Y-129283976D01*
X171449907Y-129283976D02*
X171402288Y-129307785D01*
X171402288Y-129307785D02*
X171378478Y-129355404D01*
X171378478Y-129355404D02*
X171378478Y-129617309D01*
X171140383Y-129283976D02*
X171140383Y-129617309D01*
X171140383Y-129331595D02*
X171116573Y-129307785D01*
X171116573Y-129307785D02*
X171068954Y-129283976D01*
X171068954Y-129283976D02*
X170997526Y-129283976D01*
X170997526Y-129283976D02*
X170949907Y-129307785D01*
X170949907Y-129307785D02*
X170926097Y-129355404D01*
X170926097Y-129355404D02*
X170926097Y-129617309D01*
X170497526Y-129593500D02*
X170545145Y-129617309D01*
X170545145Y-129617309D02*
X170640383Y-129617309D01*
X170640383Y-129617309D02*
X170688002Y-129593500D01*
X170688002Y-129593500D02*
X170711811Y-129545880D01*
X170711811Y-129545880D02*
X170711811Y-129355404D01*
X170711811Y-129355404D02*
X170688002Y-129307785D01*
X170688002Y-129307785D02*
X170640383Y-129283976D01*
X170640383Y-129283976D02*
X170545145Y-129283976D01*
X170545145Y-129283976D02*
X170497526Y-129307785D01*
X170497526Y-129307785D02*
X170473716Y-129355404D01*
X170473716Y-129355404D02*
X170473716Y-129403023D01*
X170473716Y-129403023D02*
X170711811Y-129450642D01*
X170045145Y-129593500D02*
X170092764Y-129617309D01*
X170092764Y-129617309D02*
X170188002Y-129617309D01*
X170188002Y-129617309D02*
X170235621Y-129593500D01*
X170235621Y-129593500D02*
X170259431Y-129569690D01*
X170259431Y-129569690D02*
X170283240Y-129522071D01*
X170283240Y-129522071D02*
X170283240Y-129379214D01*
X170283240Y-129379214D02*
X170259431Y-129331595D01*
X170259431Y-129331595D02*
X170235621Y-129307785D01*
X170235621Y-129307785D02*
X170188002Y-129283976D01*
X170188002Y-129283976D02*
X170092764Y-129283976D01*
X170092764Y-129283976D02*
X170045145Y-129307785D01*
X169902288Y-129283976D02*
X169711812Y-129283976D01*
X169830860Y-129117309D02*
X169830860Y-129545880D01*
X169830860Y-129545880D02*
X169807050Y-129593500D01*
X169807050Y-129593500D02*
X169759431Y-129617309D01*
X169759431Y-129617309D02*
X169711812Y-129617309D01*
X169354670Y-129593500D02*
X169402289Y-129617309D01*
X169402289Y-129617309D02*
X169497527Y-129617309D01*
X169497527Y-129617309D02*
X169545146Y-129593500D01*
X169545146Y-129593500D02*
X169568955Y-129545880D01*
X169568955Y-129545880D02*
X169568955Y-129355404D01*
X169568955Y-129355404D02*
X169545146Y-129307785D01*
X169545146Y-129307785D02*
X169497527Y-129283976D01*
X169497527Y-129283976D02*
X169402289Y-129283976D01*
X169402289Y-129283976D02*
X169354670Y-129307785D01*
X169354670Y-129307785D02*
X169330860Y-129355404D01*
X169330860Y-129355404D02*
X169330860Y-129403023D01*
X169330860Y-129403023D02*
X169568955Y-129450642D01*
X168902289Y-129617309D02*
X168902289Y-129117309D01*
X168902289Y-129593500D02*
X168949908Y-129617309D01*
X168949908Y-129617309D02*
X169045146Y-129617309D01*
X169045146Y-129617309D02*
X169092765Y-129593500D01*
X169092765Y-129593500D02*
X169116575Y-129569690D01*
X169116575Y-129569690D02*
X169140384Y-129522071D01*
X169140384Y-129522071D02*
X169140384Y-129379214D01*
X169140384Y-129379214D02*
X169116575Y-129331595D01*
X169116575Y-129331595D02*
X169092765Y-129307785D01*
X169092765Y-129307785D02*
X169045146Y-129283976D01*
X169045146Y-129283976D02*
X168949908Y-129283976D01*
X168949908Y-129283976D02*
X168902289Y-129307785D01*
X168330861Y-129283976D02*
X168235623Y-129617309D01*
X168235623Y-129617309D02*
X168140385Y-129379214D01*
X168140385Y-129379214D02*
X168045147Y-129617309D01*
X168045147Y-129617309D02*
X167949909Y-129283976D01*
X167759432Y-129617309D02*
X167759432Y-129283976D01*
X167759432Y-129117309D02*
X167783241Y-129141119D01*
X167783241Y-129141119D02*
X167759432Y-129164928D01*
X167759432Y-129164928D02*
X167735622Y-129141119D01*
X167735622Y-129141119D02*
X167759432Y-129117309D01*
X167759432Y-129117309D02*
X167759432Y-129164928D01*
X167592765Y-129283976D02*
X167402289Y-129283976D01*
X167521337Y-129117309D02*
X167521337Y-129545880D01*
X167521337Y-129545880D02*
X167497527Y-129593500D01*
X167497527Y-129593500D02*
X167449908Y-129617309D01*
X167449908Y-129617309D02*
X167402289Y-129617309D01*
X167235623Y-129617309D02*
X167235623Y-129117309D01*
X167021337Y-129617309D02*
X167021337Y-129355404D01*
X167021337Y-129355404D02*
X167045147Y-129307785D01*
X167045147Y-129307785D02*
X167092766Y-129283976D01*
X167092766Y-129283976D02*
X167164194Y-129283976D01*
X167164194Y-129283976D02*
X167211813Y-129307785D01*
X167211813Y-129307785D02*
X167235623Y-129331595D01*
X166116576Y-129569690D02*
X166140385Y-129593500D01*
X166140385Y-129593500D02*
X166211814Y-129617309D01*
X166211814Y-129617309D02*
X166259433Y-129617309D01*
X166259433Y-129617309D02*
X166330861Y-129593500D01*
X166330861Y-129593500D02*
X166378480Y-129545880D01*
X166378480Y-129545880D02*
X166402290Y-129498261D01*
X166402290Y-129498261D02*
X166426099Y-129403023D01*
X166426099Y-129403023D02*
X166426099Y-129331595D01*
X166426099Y-129331595D02*
X166402290Y-129236357D01*
X166402290Y-129236357D02*
X166378480Y-129188738D01*
X166378480Y-129188738D02*
X166330861Y-129141119D01*
X166330861Y-129141119D02*
X166259433Y-129117309D01*
X166259433Y-129117309D02*
X166211814Y-129117309D01*
X166211814Y-129117309D02*
X166140385Y-129141119D01*
X166140385Y-129141119D02*
X166116576Y-129164928D01*
X165949909Y-129283976D02*
X165830861Y-129617309D01*
X165711814Y-129283976D02*
X165830861Y-129617309D01*
X165830861Y-129617309D02*
X165878480Y-129736357D01*
X165878480Y-129736357D02*
X165902290Y-129760166D01*
X165902290Y-129760166D02*
X165949909Y-129783976D01*
X165521338Y-129617309D02*
X165521338Y-129117309D01*
X165521338Y-129307785D02*
X165473719Y-129283976D01*
X165473719Y-129283976D02*
X165378481Y-129283976D01*
X165378481Y-129283976D02*
X165330862Y-129307785D01*
X165330862Y-129307785D02*
X165307052Y-129331595D01*
X165307052Y-129331595D02*
X165283243Y-129379214D01*
X165283243Y-129379214D02*
X165283243Y-129522071D01*
X165283243Y-129522071D02*
X165307052Y-129569690D01*
X165307052Y-129569690D02*
X165330862Y-129593500D01*
X165330862Y-129593500D02*
X165378481Y-129617309D01*
X165378481Y-129617309D02*
X165473719Y-129617309D01*
X165473719Y-129617309D02*
X165521338Y-129593500D01*
X164854671Y-129617309D02*
X164854671Y-129117309D01*
X164854671Y-129593500D02*
X164902290Y-129617309D01*
X164902290Y-129617309D02*
X164997528Y-129617309D01*
X164997528Y-129617309D02*
X165045147Y-129593500D01*
X165045147Y-129593500D02*
X165068957Y-129569690D01*
X165068957Y-129569690D02*
X165092766Y-129522071D01*
X165092766Y-129522071D02*
X165092766Y-129379214D01*
X165092766Y-129379214D02*
X165068957Y-129331595D01*
X165068957Y-129331595D02*
X165045147Y-129307785D01*
X165045147Y-129307785D02*
X164997528Y-129283976D01*
X164997528Y-129283976D02*
X164902290Y-129283976D01*
X164902290Y-129283976D02*
X164854671Y-129307785D01*
X164664195Y-129283976D02*
X164545147Y-129617309D01*
X164426100Y-129283976D02*
X164545147Y-129617309D01*
X164545147Y-129617309D02*
X164592766Y-129736357D01*
X164592766Y-129736357D02*
X164616576Y-129760166D01*
X164616576Y-129760166D02*
X164664195Y-129783976D01*
X164235624Y-129283976D02*
X164235624Y-129617309D01*
X164235624Y-129331595D02*
X164211814Y-129307785D01*
X164211814Y-129307785D02*
X164164195Y-129283976D01*
X164164195Y-129283976D02*
X164092767Y-129283976D01*
X164092767Y-129283976D02*
X164045148Y-129307785D01*
X164045148Y-129307785D02*
X164021338Y-129355404D01*
X164021338Y-129355404D02*
X164021338Y-129617309D01*
X163426100Y-129593500D02*
X163354672Y-129617309D01*
X163354672Y-129617309D02*
X163235624Y-129617309D01*
X163235624Y-129617309D02*
X163188005Y-129593500D01*
X163188005Y-129593500D02*
X163164196Y-129569690D01*
X163164196Y-129569690D02*
X163140386Y-129522071D01*
X163140386Y-129522071D02*
X163140386Y-129474452D01*
X163140386Y-129474452D02*
X163164196Y-129426833D01*
X163164196Y-129426833D02*
X163188005Y-129403023D01*
X163188005Y-129403023D02*
X163235624Y-129379214D01*
X163235624Y-129379214D02*
X163330862Y-129355404D01*
X163330862Y-129355404D02*
X163378481Y-129331595D01*
X163378481Y-129331595D02*
X163402291Y-129307785D01*
X163402291Y-129307785D02*
X163426100Y-129260166D01*
X163426100Y-129260166D02*
X163426100Y-129212547D01*
X163426100Y-129212547D02*
X163402291Y-129164928D01*
X163402291Y-129164928D02*
X163378481Y-129141119D01*
X163378481Y-129141119D02*
X163330862Y-129117309D01*
X163330862Y-129117309D02*
X163211815Y-129117309D01*
X163211815Y-129117309D02*
X163140386Y-129141119D01*
X162973720Y-129283976D02*
X162854672Y-129617309D01*
X162735625Y-129283976D02*
X162854672Y-129617309D01*
X162854672Y-129617309D02*
X162902291Y-129736357D01*
X162902291Y-129736357D02*
X162926101Y-129760166D01*
X162926101Y-129760166D02*
X162973720Y-129783976D01*
X162568958Y-129593500D02*
X162521339Y-129617309D01*
X162521339Y-129617309D02*
X162426101Y-129617309D01*
X162426101Y-129617309D02*
X162378482Y-129593500D01*
X162378482Y-129593500D02*
X162354673Y-129545880D01*
X162354673Y-129545880D02*
X162354673Y-129522071D01*
X162354673Y-129522071D02*
X162378482Y-129474452D01*
X162378482Y-129474452D02*
X162426101Y-129450642D01*
X162426101Y-129450642D02*
X162497530Y-129450642D01*
X162497530Y-129450642D02*
X162545149Y-129426833D01*
X162545149Y-129426833D02*
X162568958Y-129379214D01*
X162568958Y-129379214D02*
X162568958Y-129355404D01*
X162568958Y-129355404D02*
X162545149Y-129307785D01*
X162545149Y-129307785D02*
X162497530Y-129283976D01*
X162497530Y-129283976D02*
X162426101Y-129283976D01*
X162426101Y-129283976D02*
X162378482Y-129307785D01*
X162211815Y-129283976D02*
X162021339Y-129283976D01*
X162140387Y-129117309D02*
X162140387Y-129545880D01*
X162140387Y-129545880D02*
X162116577Y-129593500D01*
X162116577Y-129593500D02*
X162068958Y-129617309D01*
X162068958Y-129617309D02*
X162021339Y-129617309D01*
X161664197Y-129593500D02*
X161711816Y-129617309D01*
X161711816Y-129617309D02*
X161807054Y-129617309D01*
X161807054Y-129617309D02*
X161854673Y-129593500D01*
X161854673Y-129593500D02*
X161878482Y-129545880D01*
X161878482Y-129545880D02*
X161878482Y-129355404D01*
X161878482Y-129355404D02*
X161854673Y-129307785D01*
X161854673Y-129307785D02*
X161807054Y-129283976D01*
X161807054Y-129283976D02*
X161711816Y-129283976D01*
X161711816Y-129283976D02*
X161664197Y-129307785D01*
X161664197Y-129307785D02*
X161640387Y-129355404D01*
X161640387Y-129355404D02*
X161640387Y-129403023D01*
X161640387Y-129403023D02*
X161878482Y-129450642D01*
X161426102Y-129617309D02*
X161426102Y-129283976D01*
X161426102Y-129331595D02*
X161402292Y-129307785D01*
X161402292Y-129307785D02*
X161354673Y-129283976D01*
X161354673Y-129283976D02*
X161283245Y-129283976D01*
X161283245Y-129283976D02*
X161235626Y-129307785D01*
X161235626Y-129307785D02*
X161211816Y-129355404D01*
X161211816Y-129355404D02*
X161211816Y-129617309D01*
X161211816Y-129355404D02*
X161188007Y-129307785D01*
X161188007Y-129307785D02*
X161140388Y-129283976D01*
X161140388Y-129283976D02*
X161068959Y-129283976D01*
X161068959Y-129283976D02*
X161021340Y-129307785D01*
X161021340Y-129307785D02*
X160997530Y-129355404D01*
X160997530Y-129355404D02*
X160997530Y-129617309D01*
X160783244Y-129593500D02*
X160735625Y-129617309D01*
X160735625Y-129617309D02*
X160640387Y-129617309D01*
X160640387Y-129617309D02*
X160592768Y-129593500D01*
X160592768Y-129593500D02*
X160568959Y-129545880D01*
X160568959Y-129545880D02*
X160568959Y-129522071D01*
X160568959Y-129522071D02*
X160592768Y-129474452D01*
X160592768Y-129474452D02*
X160640387Y-129450642D01*
X160640387Y-129450642D02*
X160711816Y-129450642D01*
X160711816Y-129450642D02*
X160759435Y-129426833D01*
X160759435Y-129426833D02*
X160783244Y-129379214D01*
X160783244Y-129379214D02*
X160783244Y-129355404D01*
X160783244Y-129355404D02*
X160759435Y-129307785D01*
X160759435Y-129307785D02*
X160711816Y-129283976D01*
X160711816Y-129283976D02*
X160640387Y-129283976D01*
X160640387Y-129283976D02*
X160592768Y-129307785D01*
X159759435Y-129617309D02*
X159759435Y-129355404D01*
X159759435Y-129355404D02*
X159783245Y-129307785D01*
X159783245Y-129307785D02*
X159830864Y-129283976D01*
X159830864Y-129283976D02*
X159926102Y-129283976D01*
X159926102Y-129283976D02*
X159973721Y-129307785D01*
X159759435Y-129593500D02*
X159807054Y-129617309D01*
X159807054Y-129617309D02*
X159926102Y-129617309D01*
X159926102Y-129617309D02*
X159973721Y-129593500D01*
X159973721Y-129593500D02*
X159997530Y-129545880D01*
X159997530Y-129545880D02*
X159997530Y-129498261D01*
X159997530Y-129498261D02*
X159973721Y-129450642D01*
X159973721Y-129450642D02*
X159926102Y-129426833D01*
X159926102Y-129426833D02*
X159807054Y-129426833D01*
X159807054Y-129426833D02*
X159759435Y-129403023D01*
X159521340Y-129283976D02*
X159521340Y-129617309D01*
X159521340Y-129331595D02*
X159497530Y-129307785D01*
X159497530Y-129307785D02*
X159449911Y-129283976D01*
X159449911Y-129283976D02*
X159378483Y-129283976D01*
X159378483Y-129283976D02*
X159330864Y-129307785D01*
X159330864Y-129307785D02*
X159307054Y-129355404D01*
X159307054Y-129355404D02*
X159307054Y-129617309D01*
X158854673Y-129617309D02*
X158854673Y-129117309D01*
X158854673Y-129593500D02*
X158902292Y-129617309D01*
X158902292Y-129617309D02*
X158997530Y-129617309D01*
X158997530Y-129617309D02*
X159045149Y-129593500D01*
X159045149Y-129593500D02*
X159068959Y-129569690D01*
X159068959Y-129569690D02*
X159092768Y-129522071D01*
X159092768Y-129522071D02*
X159092768Y-129379214D01*
X159092768Y-129379214D02*
X159068959Y-129331595D01*
X159068959Y-129331595D02*
X159045149Y-129307785D01*
X159045149Y-129307785D02*
X158997530Y-129283976D01*
X158997530Y-129283976D02*
X158902292Y-129283976D01*
X158902292Y-129283976D02*
X158854673Y-129307785D01*
X158259435Y-129093500D02*
X158688006Y-129736357D01*
X158021339Y-129617309D02*
X158068958Y-129593500D01*
X158068958Y-129593500D02*
X158092768Y-129569690D01*
X158092768Y-129569690D02*
X158116577Y-129522071D01*
X158116577Y-129522071D02*
X158116577Y-129379214D01*
X158116577Y-129379214D02*
X158092768Y-129331595D01*
X158092768Y-129331595D02*
X158068958Y-129307785D01*
X158068958Y-129307785D02*
X158021339Y-129283976D01*
X158021339Y-129283976D02*
X157949911Y-129283976D01*
X157949911Y-129283976D02*
X157902292Y-129307785D01*
X157902292Y-129307785D02*
X157878482Y-129331595D01*
X157878482Y-129331595D02*
X157854673Y-129379214D01*
X157854673Y-129379214D02*
X157854673Y-129522071D01*
X157854673Y-129522071D02*
X157878482Y-129569690D01*
X157878482Y-129569690D02*
X157902292Y-129593500D01*
X157902292Y-129593500D02*
X157949911Y-129617309D01*
X157949911Y-129617309D02*
X158021339Y-129617309D01*
X157640387Y-129617309D02*
X157640387Y-129283976D01*
X157640387Y-129379214D02*
X157616577Y-129331595D01*
X157616577Y-129331595D02*
X157592768Y-129307785D01*
X157592768Y-129307785D02*
X157545149Y-129283976D01*
X157545149Y-129283976D02*
X157497530Y-129283976D01*
X156949911Y-129617309D02*
X156949911Y-129283976D01*
X156949911Y-129117309D02*
X156973720Y-129141119D01*
X156973720Y-129141119D02*
X156949911Y-129164928D01*
X156949911Y-129164928D02*
X156926101Y-129141119D01*
X156926101Y-129141119D02*
X156949911Y-129117309D01*
X156949911Y-129117309D02*
X156949911Y-129164928D01*
X156783244Y-129283976D02*
X156592768Y-129283976D01*
X156711816Y-129117309D02*
X156711816Y-129545880D01*
X156711816Y-129545880D02*
X156688006Y-129593500D01*
X156688006Y-129593500D02*
X156640387Y-129617309D01*
X156640387Y-129617309D02*
X156592768Y-129617309D01*
X156402292Y-129117309D02*
X156449911Y-129212547D01*
X156211816Y-129593500D02*
X156164197Y-129617309D01*
X156164197Y-129617309D02*
X156068959Y-129617309D01*
X156068959Y-129617309D02*
X156021340Y-129593500D01*
X156021340Y-129593500D02*
X155997531Y-129545880D01*
X155997531Y-129545880D02*
X155997531Y-129522071D01*
X155997531Y-129522071D02*
X156021340Y-129474452D01*
X156021340Y-129474452D02*
X156068959Y-129450642D01*
X156068959Y-129450642D02*
X156140388Y-129450642D01*
X156140388Y-129450642D02*
X156188007Y-129426833D01*
X156188007Y-129426833D02*
X156211816Y-129379214D01*
X156211816Y-129379214D02*
X156211816Y-129355404D01*
X156211816Y-129355404D02*
X156188007Y-129307785D01*
X156188007Y-129307785D02*
X156140388Y-129283976D01*
X156140388Y-129283976D02*
X156068959Y-129283976D01*
X156068959Y-129283976D02*
X156021340Y-129307785D01*
X155402293Y-129283976D02*
X155402293Y-129783976D01*
X155402293Y-129307785D02*
X155354674Y-129283976D01*
X155354674Y-129283976D02*
X155259436Y-129283976D01*
X155259436Y-129283976D02*
X155211817Y-129307785D01*
X155211817Y-129307785D02*
X155188007Y-129331595D01*
X155188007Y-129331595D02*
X155164198Y-129379214D01*
X155164198Y-129379214D02*
X155164198Y-129522071D01*
X155164198Y-129522071D02*
X155188007Y-129569690D01*
X155188007Y-129569690D02*
X155211817Y-129593500D01*
X155211817Y-129593500D02*
X155259436Y-129617309D01*
X155259436Y-129617309D02*
X155354674Y-129617309D01*
X155354674Y-129617309D02*
X155402293Y-129593500D01*
X154949912Y-129617309D02*
X154949912Y-129283976D01*
X154949912Y-129379214D02*
X154926102Y-129331595D01*
X154926102Y-129331595D02*
X154902293Y-129307785D01*
X154902293Y-129307785D02*
X154854674Y-129283976D01*
X154854674Y-129283976D02*
X154807055Y-129283976D01*
X154568959Y-129617309D02*
X154616578Y-129593500D01*
X154616578Y-129593500D02*
X154640388Y-129569690D01*
X154640388Y-129569690D02*
X154664197Y-129522071D01*
X154664197Y-129522071D02*
X154664197Y-129379214D01*
X154664197Y-129379214D02*
X154640388Y-129331595D01*
X154640388Y-129331595D02*
X154616578Y-129307785D01*
X154616578Y-129307785D02*
X154568959Y-129283976D01*
X154568959Y-129283976D02*
X154497531Y-129283976D01*
X154497531Y-129283976D02*
X154449912Y-129307785D01*
X154449912Y-129307785D02*
X154426102Y-129331595D01*
X154426102Y-129331595D02*
X154402293Y-129379214D01*
X154402293Y-129379214D02*
X154402293Y-129522071D01*
X154402293Y-129522071D02*
X154426102Y-129569690D01*
X154426102Y-129569690D02*
X154449912Y-129593500D01*
X154449912Y-129593500D02*
X154497531Y-129617309D01*
X154497531Y-129617309D02*
X154568959Y-129617309D01*
X154188007Y-129283976D02*
X154188007Y-129783976D01*
X154188007Y-129307785D02*
X154140388Y-129283976D01*
X154140388Y-129283976D02*
X154045150Y-129283976D01*
X154045150Y-129283976D02*
X153997531Y-129307785D01*
X153997531Y-129307785D02*
X153973721Y-129331595D01*
X153973721Y-129331595D02*
X153949912Y-129379214D01*
X153949912Y-129379214D02*
X153949912Y-129522071D01*
X153949912Y-129522071D02*
X153973721Y-129569690D01*
X153973721Y-129569690D02*
X153997531Y-129593500D01*
X153997531Y-129593500D02*
X154045150Y-129617309D01*
X154045150Y-129617309D02*
X154140388Y-129617309D01*
X154140388Y-129617309D02*
X154188007Y-129593500D01*
X153735626Y-129617309D02*
X153735626Y-129283976D01*
X153735626Y-129379214D02*
X153711816Y-129331595D01*
X153711816Y-129331595D02*
X153688007Y-129307785D01*
X153688007Y-129307785D02*
X153640388Y-129283976D01*
X153640388Y-129283976D02*
X153592769Y-129283976D01*
X153426102Y-129617309D02*
X153426102Y-129283976D01*
X153426102Y-129117309D02*
X153449911Y-129141119D01*
X153449911Y-129141119D02*
X153426102Y-129164928D01*
X153426102Y-129164928D02*
X153402292Y-129141119D01*
X153402292Y-129141119D02*
X153426102Y-129117309D01*
X153426102Y-129117309D02*
X153426102Y-129164928D01*
X152997531Y-129593500D02*
X153045150Y-129617309D01*
X153045150Y-129617309D02*
X153140388Y-129617309D01*
X153140388Y-129617309D02*
X153188007Y-129593500D01*
X153188007Y-129593500D02*
X153211816Y-129545880D01*
X153211816Y-129545880D02*
X153211816Y-129355404D01*
X153211816Y-129355404D02*
X153188007Y-129307785D01*
X153188007Y-129307785D02*
X153140388Y-129283976D01*
X153140388Y-129283976D02*
X153045150Y-129283976D01*
X153045150Y-129283976D02*
X152997531Y-129307785D01*
X152997531Y-129307785D02*
X152973721Y-129355404D01*
X152973721Y-129355404D02*
X152973721Y-129403023D01*
X152973721Y-129403023D02*
X153211816Y-129450642D01*
X152830864Y-129283976D02*
X152640388Y-129283976D01*
X152759436Y-129117309D02*
X152759436Y-129545880D01*
X152759436Y-129545880D02*
X152735626Y-129593500D01*
X152735626Y-129593500D02*
X152688007Y-129617309D01*
X152688007Y-129617309D02*
X152640388Y-129617309D01*
X152402293Y-129617309D02*
X152449912Y-129593500D01*
X152449912Y-129593500D02*
X152473722Y-129569690D01*
X152473722Y-129569690D02*
X152497531Y-129522071D01*
X152497531Y-129522071D02*
X152497531Y-129379214D01*
X152497531Y-129379214D02*
X152473722Y-129331595D01*
X152473722Y-129331595D02*
X152449912Y-129307785D01*
X152449912Y-129307785D02*
X152402293Y-129283976D01*
X152402293Y-129283976D02*
X152330865Y-129283976D01*
X152330865Y-129283976D02*
X152283246Y-129307785D01*
X152283246Y-129307785D02*
X152259436Y-129331595D01*
X152259436Y-129331595D02*
X152235627Y-129379214D01*
X152235627Y-129379214D02*
X152235627Y-129522071D01*
X152235627Y-129522071D02*
X152259436Y-129569690D01*
X152259436Y-129569690D02*
X152283246Y-129593500D01*
X152283246Y-129593500D02*
X152330865Y-129617309D01*
X152330865Y-129617309D02*
X152402293Y-129617309D01*
X152021341Y-129617309D02*
X152021341Y-129283976D01*
X152021341Y-129379214D02*
X151997531Y-129331595D01*
X151997531Y-129331595D02*
X151973722Y-129307785D01*
X151973722Y-129307785D02*
X151926103Y-129283976D01*
X151926103Y-129283976D02*
X151878484Y-129283976D01*
X151735626Y-129593500D02*
X151688007Y-129617309D01*
X151688007Y-129617309D02*
X151592769Y-129617309D01*
X151592769Y-129617309D02*
X151545150Y-129593500D01*
X151545150Y-129593500D02*
X151521341Y-129545880D01*
X151521341Y-129545880D02*
X151521341Y-129522071D01*
X151521341Y-129522071D02*
X151545150Y-129474452D01*
X151545150Y-129474452D02*
X151592769Y-129450642D01*
X151592769Y-129450642D02*
X151664198Y-129450642D01*
X151664198Y-129450642D02*
X151711817Y-129426833D01*
X151711817Y-129426833D02*
X151735626Y-129379214D01*
X151735626Y-129379214D02*
X151735626Y-129355404D01*
X151735626Y-129355404D02*
X151711817Y-129307785D01*
X151711817Y-129307785D02*
X151664198Y-129283976D01*
X151664198Y-129283976D02*
X151592769Y-129283976D01*
X151592769Y-129283976D02*
X151545150Y-129307785D01*
X151307055Y-129569690D02*
X151283245Y-129593500D01*
X151283245Y-129593500D02*
X151307055Y-129617309D01*
X151307055Y-129617309D02*
X151330864Y-129593500D01*
X151330864Y-129593500D02*
X151307055Y-129569690D01*
X151307055Y-129569690D02*
X151307055Y-129617309D01*
X150711817Y-129474452D02*
X150473722Y-129474452D01*
X150759436Y-129617309D02*
X150592770Y-129117309D01*
X150592770Y-129117309D02*
X150426103Y-129617309D01*
X150188008Y-129617309D02*
X150235627Y-129593500D01*
X150235627Y-129593500D02*
X150259437Y-129545880D01*
X150259437Y-129545880D02*
X150259437Y-129117309D01*
X149926103Y-129617309D02*
X149973722Y-129593500D01*
X149973722Y-129593500D02*
X149997532Y-129545880D01*
X149997532Y-129545880D02*
X149997532Y-129117309D01*
X149354675Y-129283976D02*
X149354675Y-129783976D01*
X149354675Y-129307785D02*
X149307056Y-129283976D01*
X149307056Y-129283976D02*
X149211818Y-129283976D01*
X149211818Y-129283976D02*
X149164199Y-129307785D01*
X149164199Y-129307785D02*
X149140389Y-129331595D01*
X149140389Y-129331595D02*
X149116580Y-129379214D01*
X149116580Y-129379214D02*
X149116580Y-129522071D01*
X149116580Y-129522071D02*
X149140389Y-129569690D01*
X149140389Y-129569690D02*
X149164199Y-129593500D01*
X149164199Y-129593500D02*
X149211818Y-129617309D01*
X149211818Y-129617309D02*
X149307056Y-129617309D01*
X149307056Y-129617309D02*
X149354675Y-129593500D01*
X148902294Y-129617309D02*
X148902294Y-129283976D01*
X148902294Y-129379214D02*
X148878484Y-129331595D01*
X148878484Y-129331595D02*
X148854675Y-129307785D01*
X148854675Y-129307785D02*
X148807056Y-129283976D01*
X148807056Y-129283976D02*
X148759437Y-129283976D01*
X148521341Y-129617309D02*
X148568960Y-129593500D01*
X148568960Y-129593500D02*
X148592770Y-129569690D01*
X148592770Y-129569690D02*
X148616579Y-129522071D01*
X148616579Y-129522071D02*
X148616579Y-129379214D01*
X148616579Y-129379214D02*
X148592770Y-129331595D01*
X148592770Y-129331595D02*
X148568960Y-129307785D01*
X148568960Y-129307785D02*
X148521341Y-129283976D01*
X148521341Y-129283976D02*
X148449913Y-129283976D01*
X148449913Y-129283976D02*
X148402294Y-129307785D01*
X148402294Y-129307785D02*
X148378484Y-129331595D01*
X148378484Y-129331595D02*
X148354675Y-129379214D01*
X148354675Y-129379214D02*
X148354675Y-129522071D01*
X148354675Y-129522071D02*
X148378484Y-129569690D01*
X148378484Y-129569690D02*
X148402294Y-129593500D01*
X148402294Y-129593500D02*
X148449913Y-129617309D01*
X148449913Y-129617309D02*
X148521341Y-129617309D01*
X147926103Y-129617309D02*
X147926103Y-129117309D01*
X147926103Y-129593500D02*
X147973722Y-129617309D01*
X147973722Y-129617309D02*
X148068960Y-129617309D01*
X148068960Y-129617309D02*
X148116579Y-129593500D01*
X148116579Y-129593500D02*
X148140389Y-129569690D01*
X148140389Y-129569690D02*
X148164198Y-129522071D01*
X148164198Y-129522071D02*
X148164198Y-129379214D01*
X148164198Y-129379214D02*
X148140389Y-129331595D01*
X148140389Y-129331595D02*
X148116579Y-129307785D01*
X148116579Y-129307785D02*
X148068960Y-129283976D01*
X148068960Y-129283976D02*
X147973722Y-129283976D01*
X147973722Y-129283976D02*
X147926103Y-129307785D01*
X147473722Y-129283976D02*
X147473722Y-129617309D01*
X147688008Y-129283976D02*
X147688008Y-129545880D01*
X147688008Y-129545880D02*
X147664198Y-129593500D01*
X147664198Y-129593500D02*
X147616579Y-129617309D01*
X147616579Y-129617309D02*
X147545151Y-129617309D01*
X147545151Y-129617309D02*
X147497532Y-129593500D01*
X147497532Y-129593500D02*
X147473722Y-129569690D01*
X147021341Y-129593500D02*
X147068960Y-129617309D01*
X147068960Y-129617309D02*
X147164198Y-129617309D01*
X147164198Y-129617309D02*
X147211817Y-129593500D01*
X147211817Y-129593500D02*
X147235627Y-129569690D01*
X147235627Y-129569690D02*
X147259436Y-129522071D01*
X147259436Y-129522071D02*
X147259436Y-129379214D01*
X147259436Y-129379214D02*
X147235627Y-129331595D01*
X147235627Y-129331595D02*
X147211817Y-129307785D01*
X147211817Y-129307785D02*
X147164198Y-129283976D01*
X147164198Y-129283976D02*
X147068960Y-129283976D01*
X147068960Y-129283976D02*
X147021341Y-129307785D01*
X146878484Y-129283976D02*
X146688008Y-129283976D01*
X146807056Y-129117309D02*
X146807056Y-129545880D01*
X146807056Y-129545880D02*
X146783246Y-129593500D01*
X146783246Y-129593500D02*
X146735627Y-129617309D01*
X146735627Y-129617309D02*
X146688008Y-129617309D01*
X172259430Y-130422309D02*
X172259430Y-130160404D01*
X172259430Y-130160404D02*
X172283240Y-130112785D01*
X172283240Y-130112785D02*
X172330859Y-130088976D01*
X172330859Y-130088976D02*
X172426097Y-130088976D01*
X172426097Y-130088976D02*
X172473716Y-130112785D01*
X172259430Y-130398500D02*
X172307049Y-130422309D01*
X172307049Y-130422309D02*
X172426097Y-130422309D01*
X172426097Y-130422309D02*
X172473716Y-130398500D01*
X172473716Y-130398500D02*
X172497525Y-130350880D01*
X172497525Y-130350880D02*
X172497525Y-130303261D01*
X172497525Y-130303261D02*
X172473716Y-130255642D01*
X172473716Y-130255642D02*
X172426097Y-130231833D01*
X172426097Y-130231833D02*
X172307049Y-130231833D01*
X172307049Y-130231833D02*
X172259430Y-130208023D01*
X172021335Y-130088976D02*
X172021335Y-130422309D01*
X172021335Y-130136595D02*
X171997525Y-130112785D01*
X171997525Y-130112785D02*
X171949906Y-130088976D01*
X171949906Y-130088976D02*
X171878478Y-130088976D01*
X171878478Y-130088976D02*
X171830859Y-130112785D01*
X171830859Y-130112785D02*
X171807049Y-130160404D01*
X171807049Y-130160404D02*
X171807049Y-130422309D01*
X171354668Y-130422309D02*
X171354668Y-129922309D01*
X171354668Y-130398500D02*
X171402287Y-130422309D01*
X171402287Y-130422309D02*
X171497525Y-130422309D01*
X171497525Y-130422309D02*
X171545144Y-130398500D01*
X171545144Y-130398500D02*
X171568954Y-130374690D01*
X171568954Y-130374690D02*
X171592763Y-130327071D01*
X171592763Y-130327071D02*
X171592763Y-130184214D01*
X171592763Y-130184214D02*
X171568954Y-130136595D01*
X171568954Y-130136595D02*
X171545144Y-130112785D01*
X171545144Y-130112785D02*
X171497525Y-130088976D01*
X171497525Y-130088976D02*
X171402287Y-130088976D01*
X171402287Y-130088976D02*
X171354668Y-130112785D01*
X170521335Y-130398500D02*
X170568954Y-130422309D01*
X170568954Y-130422309D02*
X170664192Y-130422309D01*
X170664192Y-130422309D02*
X170711811Y-130398500D01*
X170711811Y-130398500D02*
X170735621Y-130374690D01*
X170735621Y-130374690D02*
X170759430Y-130327071D01*
X170759430Y-130327071D02*
X170759430Y-130184214D01*
X170759430Y-130184214D02*
X170735621Y-130136595D01*
X170735621Y-130136595D02*
X170711811Y-130112785D01*
X170711811Y-130112785D02*
X170664192Y-130088976D01*
X170664192Y-130088976D02*
X170568954Y-130088976D01*
X170568954Y-130088976D02*
X170521335Y-130112785D01*
X170235621Y-130422309D02*
X170283240Y-130398500D01*
X170283240Y-130398500D02*
X170307050Y-130374690D01*
X170307050Y-130374690D02*
X170330859Y-130327071D01*
X170330859Y-130327071D02*
X170330859Y-130184214D01*
X170330859Y-130184214D02*
X170307050Y-130136595D01*
X170307050Y-130136595D02*
X170283240Y-130112785D01*
X170283240Y-130112785D02*
X170235621Y-130088976D01*
X170235621Y-130088976D02*
X170164193Y-130088976D01*
X170164193Y-130088976D02*
X170116574Y-130112785D01*
X170116574Y-130112785D02*
X170092764Y-130136595D01*
X170092764Y-130136595D02*
X170068955Y-130184214D01*
X170068955Y-130184214D02*
X170068955Y-130327071D01*
X170068955Y-130327071D02*
X170092764Y-130374690D01*
X170092764Y-130374690D02*
X170116574Y-130398500D01*
X170116574Y-130398500D02*
X170164193Y-130422309D01*
X170164193Y-130422309D02*
X170235621Y-130422309D01*
X169854669Y-130422309D02*
X169854669Y-130088976D01*
X169854669Y-130136595D02*
X169830859Y-130112785D01*
X169830859Y-130112785D02*
X169783240Y-130088976D01*
X169783240Y-130088976D02*
X169711812Y-130088976D01*
X169711812Y-130088976D02*
X169664193Y-130112785D01*
X169664193Y-130112785D02*
X169640383Y-130160404D01*
X169640383Y-130160404D02*
X169640383Y-130422309D01*
X169640383Y-130160404D02*
X169616574Y-130112785D01*
X169616574Y-130112785D02*
X169568955Y-130088976D01*
X169568955Y-130088976D02*
X169497526Y-130088976D01*
X169497526Y-130088976D02*
X169449907Y-130112785D01*
X169449907Y-130112785D02*
X169426097Y-130160404D01*
X169426097Y-130160404D02*
X169426097Y-130422309D01*
X169188002Y-130088976D02*
X169188002Y-130588976D01*
X169188002Y-130112785D02*
X169140383Y-130088976D01*
X169140383Y-130088976D02*
X169045145Y-130088976D01*
X169045145Y-130088976D02*
X168997526Y-130112785D01*
X168997526Y-130112785D02*
X168973716Y-130136595D01*
X168973716Y-130136595D02*
X168949907Y-130184214D01*
X168949907Y-130184214D02*
X168949907Y-130327071D01*
X168949907Y-130327071D02*
X168973716Y-130374690D01*
X168973716Y-130374690D02*
X168997526Y-130398500D01*
X168997526Y-130398500D02*
X169045145Y-130422309D01*
X169045145Y-130422309D02*
X169140383Y-130422309D01*
X169140383Y-130422309D02*
X169188002Y-130398500D01*
X168521335Y-130422309D02*
X168521335Y-130160404D01*
X168521335Y-130160404D02*
X168545145Y-130112785D01*
X168545145Y-130112785D02*
X168592764Y-130088976D01*
X168592764Y-130088976D02*
X168688002Y-130088976D01*
X168688002Y-130088976D02*
X168735621Y-130112785D01*
X168521335Y-130398500D02*
X168568954Y-130422309D01*
X168568954Y-130422309D02*
X168688002Y-130422309D01*
X168688002Y-130422309D02*
X168735621Y-130398500D01*
X168735621Y-130398500D02*
X168759430Y-130350880D01*
X168759430Y-130350880D02*
X168759430Y-130303261D01*
X168759430Y-130303261D02*
X168735621Y-130255642D01*
X168735621Y-130255642D02*
X168688002Y-130231833D01*
X168688002Y-130231833D02*
X168568954Y-130231833D01*
X168568954Y-130231833D02*
X168521335Y-130208023D01*
X168283240Y-130088976D02*
X168283240Y-130422309D01*
X168283240Y-130136595D02*
X168259430Y-130112785D01*
X168259430Y-130112785D02*
X168211811Y-130088976D01*
X168211811Y-130088976D02*
X168140383Y-130088976D01*
X168140383Y-130088976D02*
X168092764Y-130112785D01*
X168092764Y-130112785D02*
X168068954Y-130160404D01*
X168068954Y-130160404D02*
X168068954Y-130422309D01*
X167878478Y-130088976D02*
X167759430Y-130422309D01*
X167640383Y-130088976D02*
X167759430Y-130422309D01*
X167759430Y-130422309D02*
X167807049Y-130541357D01*
X167807049Y-130541357D02*
X167830859Y-130565166D01*
X167830859Y-130565166D02*
X167878478Y-130588976D01*
X167068955Y-130088976D02*
X167068955Y-130422309D01*
X167068955Y-130136595D02*
X167045145Y-130112785D01*
X167045145Y-130112785D02*
X166997526Y-130088976D01*
X166997526Y-130088976D02*
X166926098Y-130088976D01*
X166926098Y-130088976D02*
X166878479Y-130112785D01*
X166878479Y-130112785D02*
X166854669Y-130160404D01*
X166854669Y-130160404D02*
X166854669Y-130422309D01*
X166402288Y-130422309D02*
X166402288Y-130160404D01*
X166402288Y-130160404D02*
X166426098Y-130112785D01*
X166426098Y-130112785D02*
X166473717Y-130088976D01*
X166473717Y-130088976D02*
X166568955Y-130088976D01*
X166568955Y-130088976D02*
X166616574Y-130112785D01*
X166402288Y-130398500D02*
X166449907Y-130422309D01*
X166449907Y-130422309D02*
X166568955Y-130422309D01*
X166568955Y-130422309D02*
X166616574Y-130398500D01*
X166616574Y-130398500D02*
X166640383Y-130350880D01*
X166640383Y-130350880D02*
X166640383Y-130303261D01*
X166640383Y-130303261D02*
X166616574Y-130255642D01*
X166616574Y-130255642D02*
X166568955Y-130231833D01*
X166568955Y-130231833D02*
X166449907Y-130231833D01*
X166449907Y-130231833D02*
X166402288Y-130208023D01*
X166164193Y-130422309D02*
X166164193Y-130088976D01*
X166164193Y-130136595D02*
X166140383Y-130112785D01*
X166140383Y-130112785D02*
X166092764Y-130088976D01*
X166092764Y-130088976D02*
X166021336Y-130088976D01*
X166021336Y-130088976D02*
X165973717Y-130112785D01*
X165973717Y-130112785D02*
X165949907Y-130160404D01*
X165949907Y-130160404D02*
X165949907Y-130422309D01*
X165949907Y-130160404D02*
X165926098Y-130112785D01*
X165926098Y-130112785D02*
X165878479Y-130088976D01*
X165878479Y-130088976D02*
X165807050Y-130088976D01*
X165807050Y-130088976D02*
X165759431Y-130112785D01*
X165759431Y-130112785D02*
X165735621Y-130160404D01*
X165735621Y-130160404D02*
X165735621Y-130422309D01*
X165307050Y-130398500D02*
X165354669Y-130422309D01*
X165354669Y-130422309D02*
X165449907Y-130422309D01*
X165449907Y-130422309D02*
X165497526Y-130398500D01*
X165497526Y-130398500D02*
X165521335Y-130350880D01*
X165521335Y-130350880D02*
X165521335Y-130160404D01*
X165521335Y-130160404D02*
X165497526Y-130112785D01*
X165497526Y-130112785D02*
X165449907Y-130088976D01*
X165449907Y-130088976D02*
X165354669Y-130088976D01*
X165354669Y-130088976D02*
X165307050Y-130112785D01*
X165307050Y-130112785D02*
X165283240Y-130160404D01*
X165283240Y-130160404D02*
X165283240Y-130208023D01*
X165283240Y-130208023D02*
X165521335Y-130255642D01*
X165092764Y-130398500D02*
X165045145Y-130422309D01*
X165045145Y-130422309D02*
X164949907Y-130422309D01*
X164949907Y-130422309D02*
X164902288Y-130398500D01*
X164902288Y-130398500D02*
X164878479Y-130350880D01*
X164878479Y-130350880D02*
X164878479Y-130327071D01*
X164878479Y-130327071D02*
X164902288Y-130279452D01*
X164902288Y-130279452D02*
X164949907Y-130255642D01*
X164949907Y-130255642D02*
X165021336Y-130255642D01*
X165021336Y-130255642D02*
X165068955Y-130231833D01*
X165068955Y-130231833D02*
X165092764Y-130184214D01*
X165092764Y-130184214D02*
X165092764Y-130160404D01*
X165092764Y-130160404D02*
X165068955Y-130112785D01*
X165068955Y-130112785D02*
X165021336Y-130088976D01*
X165021336Y-130088976D02*
X164949907Y-130088976D01*
X164949907Y-130088976D02*
X164902288Y-130112785D01*
X164068955Y-130422309D02*
X164068955Y-130160404D01*
X164068955Y-130160404D02*
X164092765Y-130112785D01*
X164092765Y-130112785D02*
X164140384Y-130088976D01*
X164140384Y-130088976D02*
X164235622Y-130088976D01*
X164235622Y-130088976D02*
X164283241Y-130112785D01*
X164068955Y-130398500D02*
X164116574Y-130422309D01*
X164116574Y-130422309D02*
X164235622Y-130422309D01*
X164235622Y-130422309D02*
X164283241Y-130398500D01*
X164283241Y-130398500D02*
X164307050Y-130350880D01*
X164307050Y-130350880D02*
X164307050Y-130303261D01*
X164307050Y-130303261D02*
X164283241Y-130255642D01*
X164283241Y-130255642D02*
X164235622Y-130231833D01*
X164235622Y-130231833D02*
X164116574Y-130231833D01*
X164116574Y-130231833D02*
X164068955Y-130208023D01*
X163830860Y-130422309D02*
X163830860Y-130088976D01*
X163830860Y-130184214D02*
X163807050Y-130136595D01*
X163807050Y-130136595D02*
X163783241Y-130112785D01*
X163783241Y-130112785D02*
X163735622Y-130088976D01*
X163735622Y-130088976D02*
X163688003Y-130088976D01*
X163330860Y-130398500D02*
X163378479Y-130422309D01*
X163378479Y-130422309D02*
X163473717Y-130422309D01*
X163473717Y-130422309D02*
X163521336Y-130398500D01*
X163521336Y-130398500D02*
X163545145Y-130350880D01*
X163545145Y-130350880D02*
X163545145Y-130160404D01*
X163545145Y-130160404D02*
X163521336Y-130112785D01*
X163521336Y-130112785D02*
X163473717Y-130088976D01*
X163473717Y-130088976D02*
X163378479Y-130088976D01*
X163378479Y-130088976D02*
X163330860Y-130112785D01*
X163330860Y-130112785D02*
X163307050Y-130160404D01*
X163307050Y-130160404D02*
X163307050Y-130208023D01*
X163307050Y-130208023D02*
X163545145Y-130255642D01*
X162783241Y-130088976D02*
X162592765Y-130088976D01*
X162711813Y-129922309D02*
X162711813Y-130350880D01*
X162711813Y-130350880D02*
X162688003Y-130398500D01*
X162688003Y-130398500D02*
X162640384Y-130422309D01*
X162640384Y-130422309D02*
X162592765Y-130422309D01*
X162426099Y-130422309D02*
X162426099Y-130088976D01*
X162426099Y-130184214D02*
X162402289Y-130136595D01*
X162402289Y-130136595D02*
X162378480Y-130112785D01*
X162378480Y-130112785D02*
X162330861Y-130088976D01*
X162330861Y-130088976D02*
X162283242Y-130088976D01*
X161902289Y-130422309D02*
X161902289Y-130160404D01*
X161902289Y-130160404D02*
X161926099Y-130112785D01*
X161926099Y-130112785D02*
X161973718Y-130088976D01*
X161973718Y-130088976D02*
X162068956Y-130088976D01*
X162068956Y-130088976D02*
X162116575Y-130112785D01*
X161902289Y-130398500D02*
X161949908Y-130422309D01*
X161949908Y-130422309D02*
X162068956Y-130422309D01*
X162068956Y-130422309D02*
X162116575Y-130398500D01*
X162116575Y-130398500D02*
X162140384Y-130350880D01*
X162140384Y-130350880D02*
X162140384Y-130303261D01*
X162140384Y-130303261D02*
X162116575Y-130255642D01*
X162116575Y-130255642D02*
X162068956Y-130231833D01*
X162068956Y-130231833D02*
X161949908Y-130231833D01*
X161949908Y-130231833D02*
X161902289Y-130208023D01*
X161449908Y-130422309D02*
X161449908Y-129922309D01*
X161449908Y-130398500D02*
X161497527Y-130422309D01*
X161497527Y-130422309D02*
X161592765Y-130422309D01*
X161592765Y-130422309D02*
X161640384Y-130398500D01*
X161640384Y-130398500D02*
X161664194Y-130374690D01*
X161664194Y-130374690D02*
X161688003Y-130327071D01*
X161688003Y-130327071D02*
X161688003Y-130184214D01*
X161688003Y-130184214D02*
X161664194Y-130136595D01*
X161664194Y-130136595D02*
X161640384Y-130112785D01*
X161640384Y-130112785D02*
X161592765Y-130088976D01*
X161592765Y-130088976D02*
X161497527Y-130088976D01*
X161497527Y-130088976D02*
X161449908Y-130112785D01*
X161021337Y-130398500D02*
X161068956Y-130422309D01*
X161068956Y-130422309D02*
X161164194Y-130422309D01*
X161164194Y-130422309D02*
X161211813Y-130398500D01*
X161211813Y-130398500D02*
X161235622Y-130350880D01*
X161235622Y-130350880D02*
X161235622Y-130160404D01*
X161235622Y-130160404D02*
X161211813Y-130112785D01*
X161211813Y-130112785D02*
X161164194Y-130088976D01*
X161164194Y-130088976D02*
X161068956Y-130088976D01*
X161068956Y-130088976D02*
X161021337Y-130112785D01*
X161021337Y-130112785D02*
X160997527Y-130160404D01*
X160997527Y-130160404D02*
X160997527Y-130208023D01*
X160997527Y-130208023D02*
X161235622Y-130255642D01*
X160783242Y-130422309D02*
X160783242Y-130088976D01*
X160783242Y-130136595D02*
X160759432Y-130112785D01*
X160759432Y-130112785D02*
X160711813Y-130088976D01*
X160711813Y-130088976D02*
X160640385Y-130088976D01*
X160640385Y-130088976D02*
X160592766Y-130112785D01*
X160592766Y-130112785D02*
X160568956Y-130160404D01*
X160568956Y-130160404D02*
X160568956Y-130422309D01*
X160568956Y-130160404D02*
X160545147Y-130112785D01*
X160545147Y-130112785D02*
X160497528Y-130088976D01*
X160497528Y-130088976D02*
X160426099Y-130088976D01*
X160426099Y-130088976D02*
X160378480Y-130112785D01*
X160378480Y-130112785D02*
X160354670Y-130160404D01*
X160354670Y-130160404D02*
X160354670Y-130422309D01*
X159902289Y-130422309D02*
X159902289Y-130160404D01*
X159902289Y-130160404D02*
X159926099Y-130112785D01*
X159926099Y-130112785D02*
X159973718Y-130088976D01*
X159973718Y-130088976D02*
X160068956Y-130088976D01*
X160068956Y-130088976D02*
X160116575Y-130112785D01*
X159902289Y-130398500D02*
X159949908Y-130422309D01*
X159949908Y-130422309D02*
X160068956Y-130422309D01*
X160068956Y-130422309D02*
X160116575Y-130398500D01*
X160116575Y-130398500D02*
X160140384Y-130350880D01*
X160140384Y-130350880D02*
X160140384Y-130303261D01*
X160140384Y-130303261D02*
X160116575Y-130255642D01*
X160116575Y-130255642D02*
X160068956Y-130231833D01*
X160068956Y-130231833D02*
X159949908Y-130231833D01*
X159949908Y-130231833D02*
X159902289Y-130208023D01*
X159664194Y-130422309D02*
X159664194Y-130088976D01*
X159664194Y-130184214D02*
X159640384Y-130136595D01*
X159640384Y-130136595D02*
X159616575Y-130112785D01*
X159616575Y-130112785D02*
X159568956Y-130088976D01*
X159568956Y-130088976D02*
X159521337Y-130088976D01*
X159354670Y-130422309D02*
X159354670Y-129922309D01*
X159307051Y-130231833D02*
X159164194Y-130422309D01*
X159164194Y-130088976D02*
X159354670Y-130279452D01*
X158973717Y-130398500D02*
X158926098Y-130422309D01*
X158926098Y-130422309D02*
X158830860Y-130422309D01*
X158830860Y-130422309D02*
X158783241Y-130398500D01*
X158783241Y-130398500D02*
X158759432Y-130350880D01*
X158759432Y-130350880D02*
X158759432Y-130327071D01*
X158759432Y-130327071D02*
X158783241Y-130279452D01*
X158783241Y-130279452D02*
X158830860Y-130255642D01*
X158830860Y-130255642D02*
X158902289Y-130255642D01*
X158902289Y-130255642D02*
X158949908Y-130231833D01*
X158949908Y-130231833D02*
X158973717Y-130184214D01*
X158973717Y-130184214D02*
X158973717Y-130160404D01*
X158973717Y-130160404D02*
X158949908Y-130112785D01*
X158949908Y-130112785D02*
X158902289Y-130088976D01*
X158902289Y-130088976D02*
X158830860Y-130088976D01*
X158830860Y-130088976D02*
X158783241Y-130112785D01*
X158092765Y-130422309D02*
X158140384Y-130398500D01*
X158140384Y-130398500D02*
X158164194Y-130374690D01*
X158164194Y-130374690D02*
X158188003Y-130327071D01*
X158188003Y-130327071D02*
X158188003Y-130184214D01*
X158188003Y-130184214D02*
X158164194Y-130136595D01*
X158164194Y-130136595D02*
X158140384Y-130112785D01*
X158140384Y-130112785D02*
X158092765Y-130088976D01*
X158092765Y-130088976D02*
X158021337Y-130088976D01*
X158021337Y-130088976D02*
X157973718Y-130112785D01*
X157973718Y-130112785D02*
X157949908Y-130136595D01*
X157949908Y-130136595D02*
X157926099Y-130184214D01*
X157926099Y-130184214D02*
X157926099Y-130327071D01*
X157926099Y-130327071D02*
X157949908Y-130374690D01*
X157949908Y-130374690D02*
X157973718Y-130398500D01*
X157973718Y-130398500D02*
X158021337Y-130422309D01*
X158021337Y-130422309D02*
X158092765Y-130422309D01*
X157711813Y-130422309D02*
X157711813Y-130088976D01*
X157711813Y-130184214D02*
X157688003Y-130136595D01*
X157688003Y-130136595D02*
X157664194Y-130112785D01*
X157664194Y-130112785D02*
X157616575Y-130088976D01*
X157616575Y-130088976D02*
X157568956Y-130088976D01*
X157021337Y-130422309D02*
X157021337Y-130088976D01*
X157021337Y-130184214D02*
X156997527Y-130136595D01*
X156997527Y-130136595D02*
X156973718Y-130112785D01*
X156973718Y-130112785D02*
X156926099Y-130088976D01*
X156926099Y-130088976D02*
X156878480Y-130088976D01*
X156521337Y-130398500D02*
X156568956Y-130422309D01*
X156568956Y-130422309D02*
X156664194Y-130422309D01*
X156664194Y-130422309D02*
X156711813Y-130398500D01*
X156711813Y-130398500D02*
X156735622Y-130350880D01*
X156735622Y-130350880D02*
X156735622Y-130160404D01*
X156735622Y-130160404D02*
X156711813Y-130112785D01*
X156711813Y-130112785D02*
X156664194Y-130088976D01*
X156664194Y-130088976D02*
X156568956Y-130088976D01*
X156568956Y-130088976D02*
X156521337Y-130112785D01*
X156521337Y-130112785D02*
X156497527Y-130160404D01*
X156497527Y-130160404D02*
X156497527Y-130208023D01*
X156497527Y-130208023D02*
X156735622Y-130255642D01*
X156068956Y-130088976D02*
X156068956Y-130493738D01*
X156068956Y-130493738D02*
X156092766Y-130541357D01*
X156092766Y-130541357D02*
X156116575Y-130565166D01*
X156116575Y-130565166D02*
X156164194Y-130588976D01*
X156164194Y-130588976D02*
X156235623Y-130588976D01*
X156235623Y-130588976D02*
X156283242Y-130565166D01*
X156068956Y-130398500D02*
X156116575Y-130422309D01*
X156116575Y-130422309D02*
X156211813Y-130422309D01*
X156211813Y-130422309D02*
X156259432Y-130398500D01*
X156259432Y-130398500D02*
X156283242Y-130374690D01*
X156283242Y-130374690D02*
X156307051Y-130327071D01*
X156307051Y-130327071D02*
X156307051Y-130184214D01*
X156307051Y-130184214D02*
X156283242Y-130136595D01*
X156283242Y-130136595D02*
X156259432Y-130112785D01*
X156259432Y-130112785D02*
X156211813Y-130088976D01*
X156211813Y-130088976D02*
X156116575Y-130088976D01*
X156116575Y-130088976D02*
X156068956Y-130112785D01*
X155830861Y-130422309D02*
X155830861Y-130088976D01*
X155830861Y-129922309D02*
X155854670Y-129946119D01*
X155854670Y-129946119D02*
X155830861Y-129969928D01*
X155830861Y-129969928D02*
X155807051Y-129946119D01*
X155807051Y-129946119D02*
X155830861Y-129922309D01*
X155830861Y-129922309D02*
X155830861Y-129969928D01*
X155616575Y-130398500D02*
X155568956Y-130422309D01*
X155568956Y-130422309D02*
X155473718Y-130422309D01*
X155473718Y-130422309D02*
X155426099Y-130398500D01*
X155426099Y-130398500D02*
X155402290Y-130350880D01*
X155402290Y-130350880D02*
X155402290Y-130327071D01*
X155402290Y-130327071D02*
X155426099Y-130279452D01*
X155426099Y-130279452D02*
X155473718Y-130255642D01*
X155473718Y-130255642D02*
X155545147Y-130255642D01*
X155545147Y-130255642D02*
X155592766Y-130231833D01*
X155592766Y-130231833D02*
X155616575Y-130184214D01*
X155616575Y-130184214D02*
X155616575Y-130160404D01*
X155616575Y-130160404D02*
X155592766Y-130112785D01*
X155592766Y-130112785D02*
X155545147Y-130088976D01*
X155545147Y-130088976D02*
X155473718Y-130088976D01*
X155473718Y-130088976D02*
X155426099Y-130112785D01*
X155259432Y-130088976D02*
X155068956Y-130088976D01*
X155188004Y-129922309D02*
X155188004Y-130350880D01*
X155188004Y-130350880D02*
X155164194Y-130398500D01*
X155164194Y-130398500D02*
X155116575Y-130422309D01*
X155116575Y-130422309D02*
X155068956Y-130422309D01*
X154711814Y-130398500D02*
X154759433Y-130422309D01*
X154759433Y-130422309D02*
X154854671Y-130422309D01*
X154854671Y-130422309D02*
X154902290Y-130398500D01*
X154902290Y-130398500D02*
X154926099Y-130350880D01*
X154926099Y-130350880D02*
X154926099Y-130160404D01*
X154926099Y-130160404D02*
X154902290Y-130112785D01*
X154902290Y-130112785D02*
X154854671Y-130088976D01*
X154854671Y-130088976D02*
X154759433Y-130088976D01*
X154759433Y-130088976D02*
X154711814Y-130112785D01*
X154711814Y-130112785D02*
X154688004Y-130160404D01*
X154688004Y-130160404D02*
X154688004Y-130208023D01*
X154688004Y-130208023D02*
X154926099Y-130255642D01*
X154473719Y-130422309D02*
X154473719Y-130088976D01*
X154473719Y-130184214D02*
X154449909Y-130136595D01*
X154449909Y-130136595D02*
X154426100Y-130112785D01*
X154426100Y-130112785D02*
X154378481Y-130088976D01*
X154378481Y-130088976D02*
X154330862Y-130088976D01*
X153973719Y-130398500D02*
X154021338Y-130422309D01*
X154021338Y-130422309D02*
X154116576Y-130422309D01*
X154116576Y-130422309D02*
X154164195Y-130398500D01*
X154164195Y-130398500D02*
X154188004Y-130350880D01*
X154188004Y-130350880D02*
X154188004Y-130160404D01*
X154188004Y-130160404D02*
X154164195Y-130112785D01*
X154164195Y-130112785D02*
X154116576Y-130088976D01*
X154116576Y-130088976D02*
X154021338Y-130088976D01*
X154021338Y-130088976D02*
X153973719Y-130112785D01*
X153973719Y-130112785D02*
X153949909Y-130160404D01*
X153949909Y-130160404D02*
X153949909Y-130208023D01*
X153949909Y-130208023D02*
X154188004Y-130255642D01*
X153521338Y-130422309D02*
X153521338Y-129922309D01*
X153521338Y-130398500D02*
X153568957Y-130422309D01*
X153568957Y-130422309D02*
X153664195Y-130422309D01*
X153664195Y-130422309D02*
X153711814Y-130398500D01*
X153711814Y-130398500D02*
X153735624Y-130374690D01*
X153735624Y-130374690D02*
X153759433Y-130327071D01*
X153759433Y-130327071D02*
X153759433Y-130184214D01*
X153759433Y-130184214D02*
X153735624Y-130136595D01*
X153735624Y-130136595D02*
X153711814Y-130112785D01*
X153711814Y-130112785D02*
X153664195Y-130088976D01*
X153664195Y-130088976D02*
X153568957Y-130088976D01*
X153568957Y-130088976D02*
X153521338Y-130112785D01*
X152973719Y-130088976D02*
X152783243Y-130088976D01*
X152902291Y-129922309D02*
X152902291Y-130350880D01*
X152902291Y-130350880D02*
X152878481Y-130398500D01*
X152878481Y-130398500D02*
X152830862Y-130422309D01*
X152830862Y-130422309D02*
X152783243Y-130422309D01*
X152616577Y-130422309D02*
X152616577Y-130088976D01*
X152616577Y-130184214D02*
X152592767Y-130136595D01*
X152592767Y-130136595D02*
X152568958Y-130112785D01*
X152568958Y-130112785D02*
X152521339Y-130088976D01*
X152521339Y-130088976D02*
X152473720Y-130088976D01*
X152092767Y-130422309D02*
X152092767Y-130160404D01*
X152092767Y-130160404D02*
X152116577Y-130112785D01*
X152116577Y-130112785D02*
X152164196Y-130088976D01*
X152164196Y-130088976D02*
X152259434Y-130088976D01*
X152259434Y-130088976D02*
X152307053Y-130112785D01*
X152092767Y-130398500D02*
X152140386Y-130422309D01*
X152140386Y-130422309D02*
X152259434Y-130422309D01*
X152259434Y-130422309D02*
X152307053Y-130398500D01*
X152307053Y-130398500D02*
X152330862Y-130350880D01*
X152330862Y-130350880D02*
X152330862Y-130303261D01*
X152330862Y-130303261D02*
X152307053Y-130255642D01*
X152307053Y-130255642D02*
X152259434Y-130231833D01*
X152259434Y-130231833D02*
X152140386Y-130231833D01*
X152140386Y-130231833D02*
X152092767Y-130208023D01*
X151640386Y-130422309D02*
X151640386Y-129922309D01*
X151640386Y-130398500D02*
X151688005Y-130422309D01*
X151688005Y-130422309D02*
X151783243Y-130422309D01*
X151783243Y-130422309D02*
X151830862Y-130398500D01*
X151830862Y-130398500D02*
X151854672Y-130374690D01*
X151854672Y-130374690D02*
X151878481Y-130327071D01*
X151878481Y-130327071D02*
X151878481Y-130184214D01*
X151878481Y-130184214D02*
X151854672Y-130136595D01*
X151854672Y-130136595D02*
X151830862Y-130112785D01*
X151830862Y-130112785D02*
X151783243Y-130088976D01*
X151783243Y-130088976D02*
X151688005Y-130088976D01*
X151688005Y-130088976D02*
X151640386Y-130112785D01*
X151211815Y-130398500D02*
X151259434Y-130422309D01*
X151259434Y-130422309D02*
X151354672Y-130422309D01*
X151354672Y-130422309D02*
X151402291Y-130398500D01*
X151402291Y-130398500D02*
X151426100Y-130350880D01*
X151426100Y-130350880D02*
X151426100Y-130160404D01*
X151426100Y-130160404D02*
X151402291Y-130112785D01*
X151402291Y-130112785D02*
X151354672Y-130088976D01*
X151354672Y-130088976D02*
X151259434Y-130088976D01*
X151259434Y-130088976D02*
X151211815Y-130112785D01*
X151211815Y-130112785D02*
X151188005Y-130160404D01*
X151188005Y-130160404D02*
X151188005Y-130208023D01*
X151188005Y-130208023D02*
X151426100Y-130255642D01*
X150973720Y-130422309D02*
X150973720Y-130088976D01*
X150973720Y-130136595D02*
X150949910Y-130112785D01*
X150949910Y-130112785D02*
X150902291Y-130088976D01*
X150902291Y-130088976D02*
X150830863Y-130088976D01*
X150830863Y-130088976D02*
X150783244Y-130112785D01*
X150783244Y-130112785D02*
X150759434Y-130160404D01*
X150759434Y-130160404D02*
X150759434Y-130422309D01*
X150759434Y-130160404D02*
X150735625Y-130112785D01*
X150735625Y-130112785D02*
X150688006Y-130088976D01*
X150688006Y-130088976D02*
X150616577Y-130088976D01*
X150616577Y-130088976D02*
X150568958Y-130112785D01*
X150568958Y-130112785D02*
X150545148Y-130160404D01*
X150545148Y-130160404D02*
X150545148Y-130422309D01*
X150092767Y-130422309D02*
X150092767Y-130160404D01*
X150092767Y-130160404D02*
X150116577Y-130112785D01*
X150116577Y-130112785D02*
X150164196Y-130088976D01*
X150164196Y-130088976D02*
X150259434Y-130088976D01*
X150259434Y-130088976D02*
X150307053Y-130112785D01*
X150092767Y-130398500D02*
X150140386Y-130422309D01*
X150140386Y-130422309D02*
X150259434Y-130422309D01*
X150259434Y-130422309D02*
X150307053Y-130398500D01*
X150307053Y-130398500D02*
X150330862Y-130350880D01*
X150330862Y-130350880D02*
X150330862Y-130303261D01*
X150330862Y-130303261D02*
X150307053Y-130255642D01*
X150307053Y-130255642D02*
X150259434Y-130231833D01*
X150259434Y-130231833D02*
X150140386Y-130231833D01*
X150140386Y-130231833D02*
X150092767Y-130208023D01*
X149854672Y-130422309D02*
X149854672Y-130088976D01*
X149854672Y-130184214D02*
X149830862Y-130136595D01*
X149830862Y-130136595D02*
X149807053Y-130112785D01*
X149807053Y-130112785D02*
X149759434Y-130088976D01*
X149759434Y-130088976D02*
X149711815Y-130088976D01*
X149545148Y-130422309D02*
X149545148Y-129922309D01*
X149497529Y-130231833D02*
X149354672Y-130422309D01*
X149354672Y-130088976D02*
X149545148Y-130279452D01*
X149164195Y-130398500D02*
X149116576Y-130422309D01*
X149116576Y-130422309D02*
X149021338Y-130422309D01*
X149021338Y-130422309D02*
X148973719Y-130398500D01*
X148973719Y-130398500D02*
X148949910Y-130350880D01*
X148949910Y-130350880D02*
X148949910Y-130327071D01*
X148949910Y-130327071D02*
X148973719Y-130279452D01*
X148973719Y-130279452D02*
X149021338Y-130255642D01*
X149021338Y-130255642D02*
X149092767Y-130255642D01*
X149092767Y-130255642D02*
X149140386Y-130231833D01*
X149140386Y-130231833D02*
X149164195Y-130184214D01*
X149164195Y-130184214D02*
X149164195Y-130160404D01*
X149164195Y-130160404D02*
X149140386Y-130112785D01*
X149140386Y-130112785D02*
X149092767Y-130088976D01*
X149092767Y-130088976D02*
X149021338Y-130088976D01*
X149021338Y-130088976D02*
X148973719Y-130112785D01*
X148283243Y-130422309D02*
X148330862Y-130398500D01*
X148330862Y-130398500D02*
X148354672Y-130374690D01*
X148354672Y-130374690D02*
X148378481Y-130327071D01*
X148378481Y-130327071D02*
X148378481Y-130184214D01*
X148378481Y-130184214D02*
X148354672Y-130136595D01*
X148354672Y-130136595D02*
X148330862Y-130112785D01*
X148330862Y-130112785D02*
X148283243Y-130088976D01*
X148283243Y-130088976D02*
X148211815Y-130088976D01*
X148211815Y-130088976D02*
X148164196Y-130112785D01*
X148164196Y-130112785D02*
X148140386Y-130136595D01*
X148140386Y-130136595D02*
X148116577Y-130184214D01*
X148116577Y-130184214D02*
X148116577Y-130327071D01*
X148116577Y-130327071D02*
X148140386Y-130374690D01*
X148140386Y-130374690D02*
X148164196Y-130398500D01*
X148164196Y-130398500D02*
X148211815Y-130422309D01*
X148211815Y-130422309D02*
X148283243Y-130422309D01*
X147973719Y-130088976D02*
X147783243Y-130088976D01*
X147902291Y-130422309D02*
X147902291Y-129993738D01*
X147902291Y-129993738D02*
X147878481Y-129946119D01*
X147878481Y-129946119D02*
X147830862Y-129922309D01*
X147830862Y-129922309D02*
X147783243Y-129922309D01*
X172545144Y-130893976D02*
X172354668Y-130893976D01*
X172473716Y-130727309D02*
X172473716Y-131155880D01*
X172473716Y-131155880D02*
X172449906Y-131203500D01*
X172449906Y-131203500D02*
X172402287Y-131227309D01*
X172402287Y-131227309D02*
X172354668Y-131227309D01*
X172188002Y-131227309D02*
X172188002Y-130727309D01*
X171973716Y-131227309D02*
X171973716Y-130965404D01*
X171973716Y-130965404D02*
X171997526Y-130917785D01*
X171997526Y-130917785D02*
X172045145Y-130893976D01*
X172045145Y-130893976D02*
X172116573Y-130893976D01*
X172116573Y-130893976D02*
X172164192Y-130917785D01*
X172164192Y-130917785D02*
X172188002Y-130941595D01*
X171545145Y-131203500D02*
X171592764Y-131227309D01*
X171592764Y-131227309D02*
X171688002Y-131227309D01*
X171688002Y-131227309D02*
X171735621Y-131203500D01*
X171735621Y-131203500D02*
X171759430Y-131155880D01*
X171759430Y-131155880D02*
X171759430Y-130965404D01*
X171759430Y-130965404D02*
X171735621Y-130917785D01*
X171735621Y-130917785D02*
X171688002Y-130893976D01*
X171688002Y-130893976D02*
X171592764Y-130893976D01*
X171592764Y-130893976D02*
X171545145Y-130917785D01*
X171545145Y-130917785D02*
X171521335Y-130965404D01*
X171521335Y-130965404D02*
X171521335Y-131013023D01*
X171521335Y-131013023D02*
X171759430Y-131060642D01*
X171307050Y-131227309D02*
X171307050Y-130893976D01*
X171307050Y-130727309D02*
X171330859Y-130751119D01*
X171330859Y-130751119D02*
X171307050Y-130774928D01*
X171307050Y-130774928D02*
X171283240Y-130751119D01*
X171283240Y-130751119D02*
X171307050Y-130727309D01*
X171307050Y-130727309D02*
X171307050Y-130774928D01*
X171068955Y-131227309D02*
X171068955Y-130893976D01*
X171068955Y-130989214D02*
X171045145Y-130941595D01*
X171045145Y-130941595D02*
X171021336Y-130917785D01*
X171021336Y-130917785D02*
X170973717Y-130893976D01*
X170973717Y-130893976D02*
X170926098Y-130893976D01*
X170378479Y-131227309D02*
X170378479Y-130893976D01*
X170378479Y-130989214D02*
X170354669Y-130941595D01*
X170354669Y-130941595D02*
X170330860Y-130917785D01*
X170330860Y-130917785D02*
X170283241Y-130893976D01*
X170283241Y-130893976D02*
X170235622Y-130893976D01*
X169878479Y-131203500D02*
X169926098Y-131227309D01*
X169926098Y-131227309D02*
X170021336Y-131227309D01*
X170021336Y-131227309D02*
X170068955Y-131203500D01*
X170068955Y-131203500D02*
X170092764Y-131155880D01*
X170092764Y-131155880D02*
X170092764Y-130965404D01*
X170092764Y-130965404D02*
X170068955Y-130917785D01*
X170068955Y-130917785D02*
X170021336Y-130893976D01*
X170021336Y-130893976D02*
X169926098Y-130893976D01*
X169926098Y-130893976D02*
X169878479Y-130917785D01*
X169878479Y-130917785D02*
X169854669Y-130965404D01*
X169854669Y-130965404D02*
X169854669Y-131013023D01*
X169854669Y-131013023D02*
X170092764Y-131060642D01*
X169664193Y-131203500D02*
X169616574Y-131227309D01*
X169616574Y-131227309D02*
X169521336Y-131227309D01*
X169521336Y-131227309D02*
X169473717Y-131203500D01*
X169473717Y-131203500D02*
X169449908Y-131155880D01*
X169449908Y-131155880D02*
X169449908Y-131132071D01*
X169449908Y-131132071D02*
X169473717Y-131084452D01*
X169473717Y-131084452D02*
X169521336Y-131060642D01*
X169521336Y-131060642D02*
X169592765Y-131060642D01*
X169592765Y-131060642D02*
X169640384Y-131036833D01*
X169640384Y-131036833D02*
X169664193Y-130989214D01*
X169664193Y-130989214D02*
X169664193Y-130965404D01*
X169664193Y-130965404D02*
X169640384Y-130917785D01*
X169640384Y-130917785D02*
X169592765Y-130893976D01*
X169592765Y-130893976D02*
X169521336Y-130893976D01*
X169521336Y-130893976D02*
X169473717Y-130917785D01*
X169235622Y-130893976D02*
X169235622Y-131393976D01*
X169235622Y-130917785D02*
X169188003Y-130893976D01*
X169188003Y-130893976D02*
X169092765Y-130893976D01*
X169092765Y-130893976D02*
X169045146Y-130917785D01*
X169045146Y-130917785D02*
X169021336Y-130941595D01*
X169021336Y-130941595D02*
X168997527Y-130989214D01*
X168997527Y-130989214D02*
X168997527Y-131132071D01*
X168997527Y-131132071D02*
X169021336Y-131179690D01*
X169021336Y-131179690D02*
X169045146Y-131203500D01*
X169045146Y-131203500D02*
X169092765Y-131227309D01*
X169092765Y-131227309D02*
X169188003Y-131227309D01*
X169188003Y-131227309D02*
X169235622Y-131203500D01*
X168592765Y-131203500D02*
X168640384Y-131227309D01*
X168640384Y-131227309D02*
X168735622Y-131227309D01*
X168735622Y-131227309D02*
X168783241Y-131203500D01*
X168783241Y-131203500D02*
X168807050Y-131155880D01*
X168807050Y-131155880D02*
X168807050Y-130965404D01*
X168807050Y-130965404D02*
X168783241Y-130917785D01*
X168783241Y-130917785D02*
X168735622Y-130893976D01*
X168735622Y-130893976D02*
X168640384Y-130893976D01*
X168640384Y-130893976D02*
X168592765Y-130917785D01*
X168592765Y-130917785D02*
X168568955Y-130965404D01*
X168568955Y-130965404D02*
X168568955Y-131013023D01*
X168568955Y-131013023D02*
X168807050Y-131060642D01*
X168140384Y-131203500D02*
X168188003Y-131227309D01*
X168188003Y-131227309D02*
X168283241Y-131227309D01*
X168283241Y-131227309D02*
X168330860Y-131203500D01*
X168330860Y-131203500D02*
X168354670Y-131179690D01*
X168354670Y-131179690D02*
X168378479Y-131132071D01*
X168378479Y-131132071D02*
X168378479Y-130989214D01*
X168378479Y-130989214D02*
X168354670Y-130941595D01*
X168354670Y-130941595D02*
X168330860Y-130917785D01*
X168330860Y-130917785D02*
X168283241Y-130893976D01*
X168283241Y-130893976D02*
X168188003Y-130893976D01*
X168188003Y-130893976D02*
X168140384Y-130917785D01*
X167997527Y-130893976D02*
X167807051Y-130893976D01*
X167926099Y-130727309D02*
X167926099Y-131155880D01*
X167926099Y-131155880D02*
X167902289Y-131203500D01*
X167902289Y-131203500D02*
X167854670Y-131227309D01*
X167854670Y-131227309D02*
X167807051Y-131227309D01*
X167640385Y-131227309D02*
X167640385Y-130893976D01*
X167640385Y-130727309D02*
X167664194Y-130751119D01*
X167664194Y-130751119D02*
X167640385Y-130774928D01*
X167640385Y-130774928D02*
X167616575Y-130751119D01*
X167616575Y-130751119D02*
X167640385Y-130727309D01*
X167640385Y-130727309D02*
X167640385Y-130774928D01*
X167449909Y-130893976D02*
X167330861Y-131227309D01*
X167330861Y-131227309D02*
X167211814Y-130893976D01*
X166830862Y-131203500D02*
X166878481Y-131227309D01*
X166878481Y-131227309D02*
X166973719Y-131227309D01*
X166973719Y-131227309D02*
X167021338Y-131203500D01*
X167021338Y-131203500D02*
X167045147Y-131155880D01*
X167045147Y-131155880D02*
X167045147Y-130965404D01*
X167045147Y-130965404D02*
X167021338Y-130917785D01*
X167021338Y-130917785D02*
X166973719Y-130893976D01*
X166973719Y-130893976D02*
X166878481Y-130893976D01*
X166878481Y-130893976D02*
X166830862Y-130917785D01*
X166830862Y-130917785D02*
X166807052Y-130965404D01*
X166807052Y-130965404D02*
X166807052Y-131013023D01*
X166807052Y-131013023D02*
X167045147Y-131060642D01*
X166211815Y-131227309D02*
X166211815Y-130727309D01*
X165997529Y-131227309D02*
X165997529Y-130965404D01*
X165997529Y-130965404D02*
X166021339Y-130917785D01*
X166021339Y-130917785D02*
X166068958Y-130893976D01*
X166068958Y-130893976D02*
X166140386Y-130893976D01*
X166140386Y-130893976D02*
X166188005Y-130917785D01*
X166188005Y-130917785D02*
X166211815Y-130941595D01*
X165688005Y-131227309D02*
X165735624Y-131203500D01*
X165735624Y-131203500D02*
X165759434Y-131179690D01*
X165759434Y-131179690D02*
X165783243Y-131132071D01*
X165783243Y-131132071D02*
X165783243Y-130989214D01*
X165783243Y-130989214D02*
X165759434Y-130941595D01*
X165759434Y-130941595D02*
X165735624Y-130917785D01*
X165735624Y-130917785D02*
X165688005Y-130893976D01*
X165688005Y-130893976D02*
X165616577Y-130893976D01*
X165616577Y-130893976D02*
X165568958Y-130917785D01*
X165568958Y-130917785D02*
X165545148Y-130941595D01*
X165545148Y-130941595D02*
X165521339Y-130989214D01*
X165521339Y-130989214D02*
X165521339Y-131132071D01*
X165521339Y-131132071D02*
X165545148Y-131179690D01*
X165545148Y-131179690D02*
X165568958Y-131203500D01*
X165568958Y-131203500D02*
X165616577Y-131227309D01*
X165616577Y-131227309D02*
X165688005Y-131227309D01*
X165235624Y-131227309D02*
X165283243Y-131203500D01*
X165283243Y-131203500D02*
X165307053Y-131155880D01*
X165307053Y-131155880D02*
X165307053Y-130727309D01*
X164830862Y-131227309D02*
X164830862Y-130727309D01*
X164830862Y-131203500D02*
X164878481Y-131227309D01*
X164878481Y-131227309D02*
X164973719Y-131227309D01*
X164973719Y-131227309D02*
X165021338Y-131203500D01*
X165021338Y-131203500D02*
X165045148Y-131179690D01*
X165045148Y-131179690D02*
X165068957Y-131132071D01*
X165068957Y-131132071D02*
X165068957Y-130989214D01*
X165068957Y-130989214D02*
X165045148Y-130941595D01*
X165045148Y-130941595D02*
X165021338Y-130917785D01*
X165021338Y-130917785D02*
X164973719Y-130893976D01*
X164973719Y-130893976D02*
X164878481Y-130893976D01*
X164878481Y-130893976D02*
X164830862Y-130917785D01*
X164402291Y-131203500D02*
X164449910Y-131227309D01*
X164449910Y-131227309D02*
X164545148Y-131227309D01*
X164545148Y-131227309D02*
X164592767Y-131203500D01*
X164592767Y-131203500D02*
X164616576Y-131155880D01*
X164616576Y-131155880D02*
X164616576Y-130965404D01*
X164616576Y-130965404D02*
X164592767Y-130917785D01*
X164592767Y-130917785D02*
X164545148Y-130893976D01*
X164545148Y-130893976D02*
X164449910Y-130893976D01*
X164449910Y-130893976D02*
X164402291Y-130917785D01*
X164402291Y-130917785D02*
X164378481Y-130965404D01*
X164378481Y-130965404D02*
X164378481Y-131013023D01*
X164378481Y-131013023D02*
X164616576Y-131060642D01*
X164164196Y-131227309D02*
X164164196Y-130893976D01*
X164164196Y-130989214D02*
X164140386Y-130941595D01*
X164140386Y-130941595D02*
X164116577Y-130917785D01*
X164116577Y-130917785D02*
X164068958Y-130893976D01*
X164068958Y-130893976D02*
X164021339Y-130893976D01*
X163878481Y-131203500D02*
X163830862Y-131227309D01*
X163830862Y-131227309D02*
X163735624Y-131227309D01*
X163735624Y-131227309D02*
X163688005Y-131203500D01*
X163688005Y-131203500D02*
X163664196Y-131155880D01*
X163664196Y-131155880D02*
X163664196Y-131132071D01*
X163664196Y-131132071D02*
X163688005Y-131084452D01*
X163688005Y-131084452D02*
X163735624Y-131060642D01*
X163735624Y-131060642D02*
X163807053Y-131060642D01*
X163807053Y-131060642D02*
X163854672Y-131036833D01*
X163854672Y-131036833D02*
X163878481Y-130989214D01*
X163878481Y-130989214D02*
X163878481Y-130965404D01*
X163878481Y-130965404D02*
X163854672Y-130917785D01*
X163854672Y-130917785D02*
X163807053Y-130893976D01*
X163807053Y-130893976D02*
X163735624Y-130893976D01*
X163735624Y-130893976D02*
X163688005Y-130917785D01*
X163449910Y-131179690D02*
X163426100Y-131203500D01*
X163426100Y-131203500D02*
X163449910Y-131227309D01*
X163449910Y-131227309D02*
X163473719Y-131203500D01*
X163473719Y-131203500D02*
X163449910Y-131179690D01*
X163449910Y-131179690D02*
X163449910Y-131227309D01*
X162830863Y-130727309D02*
X162830863Y-131132071D01*
X162830863Y-131132071D02*
X162807053Y-131179690D01*
X162807053Y-131179690D02*
X162783244Y-131203500D01*
X162783244Y-131203500D02*
X162735625Y-131227309D01*
X162735625Y-131227309D02*
X162640387Y-131227309D01*
X162640387Y-131227309D02*
X162592768Y-131203500D01*
X162592768Y-131203500D02*
X162568958Y-131179690D01*
X162568958Y-131179690D02*
X162545149Y-131132071D01*
X162545149Y-131132071D02*
X162545149Y-130727309D01*
X162330862Y-131203500D02*
X162283243Y-131227309D01*
X162283243Y-131227309D02*
X162188005Y-131227309D01*
X162188005Y-131227309D02*
X162140386Y-131203500D01*
X162140386Y-131203500D02*
X162116577Y-131155880D01*
X162116577Y-131155880D02*
X162116577Y-131132071D01*
X162116577Y-131132071D02*
X162140386Y-131084452D01*
X162140386Y-131084452D02*
X162188005Y-131060642D01*
X162188005Y-131060642D02*
X162259434Y-131060642D01*
X162259434Y-131060642D02*
X162307053Y-131036833D01*
X162307053Y-131036833D02*
X162330862Y-130989214D01*
X162330862Y-130989214D02*
X162330862Y-130965404D01*
X162330862Y-130965404D02*
X162307053Y-130917785D01*
X162307053Y-130917785D02*
X162259434Y-130893976D01*
X162259434Y-130893976D02*
X162188005Y-130893976D01*
X162188005Y-130893976D02*
X162140386Y-130917785D01*
X161711815Y-131203500D02*
X161759434Y-131227309D01*
X161759434Y-131227309D02*
X161854672Y-131227309D01*
X161854672Y-131227309D02*
X161902291Y-131203500D01*
X161902291Y-131203500D02*
X161926100Y-131155880D01*
X161926100Y-131155880D02*
X161926100Y-130965404D01*
X161926100Y-130965404D02*
X161902291Y-130917785D01*
X161902291Y-130917785D02*
X161854672Y-130893976D01*
X161854672Y-130893976D02*
X161759434Y-130893976D01*
X161759434Y-130893976D02*
X161711815Y-130917785D01*
X161711815Y-130917785D02*
X161688005Y-130965404D01*
X161688005Y-130965404D02*
X161688005Y-131013023D01*
X161688005Y-131013023D02*
X161926100Y-131060642D01*
X161021339Y-131227309D02*
X161068958Y-131203500D01*
X161068958Y-131203500D02*
X161092768Y-131179690D01*
X161092768Y-131179690D02*
X161116577Y-131132071D01*
X161116577Y-131132071D02*
X161116577Y-130989214D01*
X161116577Y-130989214D02*
X161092768Y-130941595D01*
X161092768Y-130941595D02*
X161068958Y-130917785D01*
X161068958Y-130917785D02*
X161021339Y-130893976D01*
X161021339Y-130893976D02*
X160949911Y-130893976D01*
X160949911Y-130893976D02*
X160902292Y-130917785D01*
X160902292Y-130917785D02*
X160878482Y-130941595D01*
X160878482Y-130941595D02*
X160854673Y-130989214D01*
X160854673Y-130989214D02*
X160854673Y-131132071D01*
X160854673Y-131132071D02*
X160878482Y-131179690D01*
X160878482Y-131179690D02*
X160902292Y-131203500D01*
X160902292Y-131203500D02*
X160949911Y-131227309D01*
X160949911Y-131227309D02*
X161021339Y-131227309D01*
X160711815Y-130893976D02*
X160521339Y-130893976D01*
X160640387Y-131227309D02*
X160640387Y-130798738D01*
X160640387Y-130798738D02*
X160616577Y-130751119D01*
X160616577Y-130751119D02*
X160568958Y-130727309D01*
X160568958Y-130727309D02*
X160521339Y-130727309D01*
X160045149Y-130893976D02*
X159854673Y-130893976D01*
X159973721Y-130727309D02*
X159973721Y-131155880D01*
X159973721Y-131155880D02*
X159949911Y-131203500D01*
X159949911Y-131203500D02*
X159902292Y-131227309D01*
X159902292Y-131227309D02*
X159854673Y-131227309D01*
X159688007Y-131227309D02*
X159688007Y-130727309D01*
X159473721Y-131227309D02*
X159473721Y-130965404D01*
X159473721Y-130965404D02*
X159497531Y-130917785D01*
X159497531Y-130917785D02*
X159545150Y-130893976D01*
X159545150Y-130893976D02*
X159616578Y-130893976D01*
X159616578Y-130893976D02*
X159664197Y-130917785D01*
X159664197Y-130917785D02*
X159688007Y-130941595D01*
X159045150Y-131203500D02*
X159092769Y-131227309D01*
X159092769Y-131227309D02*
X159188007Y-131227309D01*
X159188007Y-131227309D02*
X159235626Y-131203500D01*
X159235626Y-131203500D02*
X159259435Y-131155880D01*
X159259435Y-131155880D02*
X159259435Y-130965404D01*
X159259435Y-130965404D02*
X159235626Y-130917785D01*
X159235626Y-130917785D02*
X159188007Y-130893976D01*
X159188007Y-130893976D02*
X159092769Y-130893976D01*
X159092769Y-130893976D02*
X159045150Y-130917785D01*
X159045150Y-130917785D02*
X159021340Y-130965404D01*
X159021340Y-130965404D02*
X159021340Y-131013023D01*
X159021340Y-131013023D02*
X159259435Y-131060642D01*
X158807055Y-131227309D02*
X158807055Y-130893976D01*
X158807055Y-130941595D02*
X158783245Y-130917785D01*
X158783245Y-130917785D02*
X158735626Y-130893976D01*
X158735626Y-130893976D02*
X158664198Y-130893976D01*
X158664198Y-130893976D02*
X158616579Y-130917785D01*
X158616579Y-130917785D02*
X158592769Y-130965404D01*
X158592769Y-130965404D02*
X158592769Y-131227309D01*
X158592769Y-130965404D02*
X158568960Y-130917785D01*
X158568960Y-130917785D02*
X158521341Y-130893976D01*
X158521341Y-130893976D02*
X158449912Y-130893976D01*
X158449912Y-130893976D02*
X158402293Y-130917785D01*
X158402293Y-130917785D02*
X158378483Y-130965404D01*
X158378483Y-130965404D02*
X158378483Y-131227309D01*
X157545150Y-131227309D02*
X157545150Y-130727309D01*
X157545150Y-131203500D02*
X157592769Y-131227309D01*
X157592769Y-131227309D02*
X157688007Y-131227309D01*
X157688007Y-131227309D02*
X157735626Y-131203500D01*
X157735626Y-131203500D02*
X157759436Y-131179690D01*
X157759436Y-131179690D02*
X157783245Y-131132071D01*
X157783245Y-131132071D02*
X157783245Y-130989214D01*
X157783245Y-130989214D02*
X157759436Y-130941595D01*
X157759436Y-130941595D02*
X157735626Y-130917785D01*
X157735626Y-130917785D02*
X157688007Y-130893976D01*
X157688007Y-130893976D02*
X157592769Y-130893976D01*
X157592769Y-130893976D02*
X157545150Y-130917785D01*
X157235626Y-131227309D02*
X157283245Y-131203500D01*
X157283245Y-131203500D02*
X157307055Y-131179690D01*
X157307055Y-131179690D02*
X157330864Y-131132071D01*
X157330864Y-131132071D02*
X157330864Y-130989214D01*
X157330864Y-130989214D02*
X157307055Y-130941595D01*
X157307055Y-130941595D02*
X157283245Y-130917785D01*
X157283245Y-130917785D02*
X157235626Y-130893976D01*
X157235626Y-130893976D02*
X157164198Y-130893976D01*
X157164198Y-130893976D02*
X157116579Y-130917785D01*
X157116579Y-130917785D02*
X157092769Y-130941595D01*
X157092769Y-130941595D02*
X157068960Y-130989214D01*
X157068960Y-130989214D02*
X157068960Y-131132071D01*
X157068960Y-131132071D02*
X157092769Y-131179690D01*
X157092769Y-131179690D02*
X157116579Y-131203500D01*
X157116579Y-131203500D02*
X157164198Y-131227309D01*
X157164198Y-131227309D02*
X157235626Y-131227309D01*
X156664198Y-131203500D02*
X156711817Y-131227309D01*
X156711817Y-131227309D02*
X156807055Y-131227309D01*
X156807055Y-131227309D02*
X156854674Y-131203500D01*
X156854674Y-131203500D02*
X156878483Y-131155880D01*
X156878483Y-131155880D02*
X156878483Y-130965404D01*
X156878483Y-130965404D02*
X156854674Y-130917785D01*
X156854674Y-130917785D02*
X156807055Y-130893976D01*
X156807055Y-130893976D02*
X156711817Y-130893976D01*
X156711817Y-130893976D02*
X156664198Y-130917785D01*
X156664198Y-130917785D02*
X156640388Y-130965404D01*
X156640388Y-130965404D02*
X156640388Y-131013023D01*
X156640388Y-131013023D02*
X156878483Y-131060642D01*
X156449912Y-131203500D02*
X156402293Y-131227309D01*
X156402293Y-131227309D02*
X156307055Y-131227309D01*
X156307055Y-131227309D02*
X156259436Y-131203500D01*
X156259436Y-131203500D02*
X156235627Y-131155880D01*
X156235627Y-131155880D02*
X156235627Y-131132071D01*
X156235627Y-131132071D02*
X156259436Y-131084452D01*
X156259436Y-131084452D02*
X156307055Y-131060642D01*
X156307055Y-131060642D02*
X156378484Y-131060642D01*
X156378484Y-131060642D02*
X156426103Y-131036833D01*
X156426103Y-131036833D02*
X156449912Y-130989214D01*
X156449912Y-130989214D02*
X156449912Y-130965404D01*
X156449912Y-130965404D02*
X156426103Y-130917785D01*
X156426103Y-130917785D02*
X156378484Y-130893976D01*
X156378484Y-130893976D02*
X156307055Y-130893976D01*
X156307055Y-130893976D02*
X156259436Y-130917785D01*
X155640389Y-130893976D02*
X155640389Y-131227309D01*
X155640389Y-130941595D02*
X155616579Y-130917785D01*
X155616579Y-130917785D02*
X155568960Y-130893976D01*
X155568960Y-130893976D02*
X155497532Y-130893976D01*
X155497532Y-130893976D02*
X155449913Y-130917785D01*
X155449913Y-130917785D02*
X155426103Y-130965404D01*
X155426103Y-130965404D02*
X155426103Y-131227309D01*
X155116579Y-131227309D02*
X155164198Y-131203500D01*
X155164198Y-131203500D02*
X155188008Y-131179690D01*
X155188008Y-131179690D02*
X155211817Y-131132071D01*
X155211817Y-131132071D02*
X155211817Y-130989214D01*
X155211817Y-130989214D02*
X155188008Y-130941595D01*
X155188008Y-130941595D02*
X155164198Y-130917785D01*
X155164198Y-130917785D02*
X155116579Y-130893976D01*
X155116579Y-130893976D02*
X155045151Y-130893976D01*
X155045151Y-130893976D02*
X154997532Y-130917785D01*
X154997532Y-130917785D02*
X154973722Y-130941595D01*
X154973722Y-130941595D02*
X154949913Y-130989214D01*
X154949913Y-130989214D02*
X154949913Y-131132071D01*
X154949913Y-131132071D02*
X154973722Y-131179690D01*
X154973722Y-131179690D02*
X154997532Y-131203500D01*
X154997532Y-131203500D02*
X155045151Y-131227309D01*
X155045151Y-131227309D02*
X155116579Y-131227309D01*
X154807055Y-130893976D02*
X154616579Y-130893976D01*
X154735627Y-130727309D02*
X154735627Y-131155880D01*
X154735627Y-131155880D02*
X154711817Y-131203500D01*
X154711817Y-131203500D02*
X154664198Y-131227309D01*
X154664198Y-131227309D02*
X154616579Y-131227309D01*
X154068961Y-131227309D02*
X154068961Y-130893976D01*
X154068961Y-130727309D02*
X154092770Y-130751119D01*
X154092770Y-130751119D02*
X154068961Y-130774928D01*
X154068961Y-130774928D02*
X154045151Y-130751119D01*
X154045151Y-130751119D02*
X154068961Y-130727309D01*
X154068961Y-130727309D02*
X154068961Y-130774928D01*
X153830866Y-131227309D02*
X153830866Y-130893976D01*
X153830866Y-130941595D02*
X153807056Y-130917785D01*
X153807056Y-130917785D02*
X153759437Y-130893976D01*
X153759437Y-130893976D02*
X153688009Y-130893976D01*
X153688009Y-130893976D02*
X153640390Y-130917785D01*
X153640390Y-130917785D02*
X153616580Y-130965404D01*
X153616580Y-130965404D02*
X153616580Y-131227309D01*
X153616580Y-130965404D02*
X153592771Y-130917785D01*
X153592771Y-130917785D02*
X153545152Y-130893976D01*
X153545152Y-130893976D02*
X153473723Y-130893976D01*
X153473723Y-130893976D02*
X153426104Y-130917785D01*
X153426104Y-130917785D02*
X153402294Y-130965404D01*
X153402294Y-130965404D02*
X153402294Y-131227309D01*
X153164199Y-130893976D02*
X153164199Y-131393976D01*
X153164199Y-130917785D02*
X153116580Y-130893976D01*
X153116580Y-130893976D02*
X153021342Y-130893976D01*
X153021342Y-130893976D02*
X152973723Y-130917785D01*
X152973723Y-130917785D02*
X152949913Y-130941595D01*
X152949913Y-130941595D02*
X152926104Y-130989214D01*
X152926104Y-130989214D02*
X152926104Y-131132071D01*
X152926104Y-131132071D02*
X152949913Y-131179690D01*
X152949913Y-131179690D02*
X152973723Y-131203500D01*
X152973723Y-131203500D02*
X153021342Y-131227309D01*
X153021342Y-131227309D02*
X153116580Y-131227309D01*
X153116580Y-131227309D02*
X153164199Y-131203500D01*
X152640389Y-131227309D02*
X152688008Y-131203500D01*
X152688008Y-131203500D02*
X152711818Y-131155880D01*
X152711818Y-131155880D02*
X152711818Y-130727309D01*
X152497532Y-130893976D02*
X152378484Y-131227309D01*
X152259437Y-130893976D02*
X152378484Y-131227309D01*
X152378484Y-131227309D02*
X152426103Y-131346357D01*
X152426103Y-131346357D02*
X152449913Y-131370166D01*
X152449913Y-131370166D02*
X152497532Y-131393976D01*
X151473723Y-131227309D02*
X151473723Y-130965404D01*
X151473723Y-130965404D02*
X151497533Y-130917785D01*
X151497533Y-130917785D02*
X151545152Y-130893976D01*
X151545152Y-130893976D02*
X151640390Y-130893976D01*
X151640390Y-130893976D02*
X151688009Y-130917785D01*
X151473723Y-131203500D02*
X151521342Y-131227309D01*
X151521342Y-131227309D02*
X151640390Y-131227309D01*
X151640390Y-131227309D02*
X151688009Y-131203500D01*
X151688009Y-131203500D02*
X151711818Y-131155880D01*
X151711818Y-131155880D02*
X151711818Y-131108261D01*
X151711818Y-131108261D02*
X151688009Y-131060642D01*
X151688009Y-131060642D02*
X151640390Y-131036833D01*
X151640390Y-131036833D02*
X151521342Y-131036833D01*
X151521342Y-131036833D02*
X151473723Y-131013023D01*
X151235628Y-130893976D02*
X151235628Y-131227309D01*
X151235628Y-130941595D02*
X151211818Y-130917785D01*
X151211818Y-130917785D02*
X151164199Y-130893976D01*
X151164199Y-130893976D02*
X151092771Y-130893976D01*
X151092771Y-130893976D02*
X151045152Y-130917785D01*
X151045152Y-130917785D02*
X151021342Y-130965404D01*
X151021342Y-130965404D02*
X151021342Y-131227309D01*
X150830866Y-130893976D02*
X150711818Y-131227309D01*
X150592771Y-130893976D02*
X150711818Y-131227309D01*
X150711818Y-131227309D02*
X150759437Y-131346357D01*
X150759437Y-131346357D02*
X150783247Y-131370166D01*
X150783247Y-131370166D02*
X150830866Y-131393976D01*
X172259430Y-132032309D02*
X172259430Y-131770404D01*
X172259430Y-131770404D02*
X172283240Y-131722785D01*
X172283240Y-131722785D02*
X172330859Y-131698976D01*
X172330859Y-131698976D02*
X172426097Y-131698976D01*
X172426097Y-131698976D02*
X172473716Y-131722785D01*
X172259430Y-132008500D02*
X172307049Y-132032309D01*
X172307049Y-132032309D02*
X172426097Y-132032309D01*
X172426097Y-132032309D02*
X172473716Y-132008500D01*
X172473716Y-132008500D02*
X172497525Y-131960880D01*
X172497525Y-131960880D02*
X172497525Y-131913261D01*
X172497525Y-131913261D02*
X172473716Y-131865642D01*
X172473716Y-131865642D02*
X172426097Y-131841833D01*
X172426097Y-131841833D02*
X172307049Y-131841833D01*
X172307049Y-131841833D02*
X172259430Y-131818023D01*
X172092763Y-131698976D02*
X171902287Y-131698976D01*
X172021335Y-132032309D02*
X172021335Y-131603738D01*
X172021335Y-131603738D02*
X171997525Y-131556119D01*
X171997525Y-131556119D02*
X171949906Y-131532309D01*
X171949906Y-131532309D02*
X171902287Y-131532309D01*
X171807049Y-131698976D02*
X171616573Y-131698976D01*
X171735621Y-132032309D02*
X171735621Y-131603738D01*
X171735621Y-131603738D02*
X171711811Y-131556119D01*
X171711811Y-131556119D02*
X171664192Y-131532309D01*
X171664192Y-131532309D02*
X171616573Y-131532309D01*
X171449907Y-132032309D02*
X171449907Y-131698976D01*
X171449907Y-131532309D02*
X171473716Y-131556119D01*
X171473716Y-131556119D02*
X171449907Y-131579928D01*
X171449907Y-131579928D02*
X171426097Y-131556119D01*
X171426097Y-131556119D02*
X171449907Y-131532309D01*
X171449907Y-131532309D02*
X171449907Y-131579928D01*
X171140383Y-132032309D02*
X171188002Y-132008500D01*
X171188002Y-132008500D02*
X171211812Y-131960880D01*
X171211812Y-131960880D02*
X171211812Y-131532309D01*
X170949907Y-132032309D02*
X170949907Y-131698976D01*
X170949907Y-131532309D02*
X170973716Y-131556119D01*
X170973716Y-131556119D02*
X170949907Y-131579928D01*
X170949907Y-131579928D02*
X170926097Y-131556119D01*
X170926097Y-131556119D02*
X170949907Y-131532309D01*
X170949907Y-131532309D02*
X170949907Y-131579928D01*
X170497526Y-132032309D02*
X170497526Y-131770404D01*
X170497526Y-131770404D02*
X170521336Y-131722785D01*
X170521336Y-131722785D02*
X170568955Y-131698976D01*
X170568955Y-131698976D02*
X170664193Y-131698976D01*
X170664193Y-131698976D02*
X170711812Y-131722785D01*
X170497526Y-132008500D02*
X170545145Y-132032309D01*
X170545145Y-132032309D02*
X170664193Y-132032309D01*
X170664193Y-132032309D02*
X170711812Y-132008500D01*
X170711812Y-132008500D02*
X170735621Y-131960880D01*
X170735621Y-131960880D02*
X170735621Y-131913261D01*
X170735621Y-131913261D02*
X170711812Y-131865642D01*
X170711812Y-131865642D02*
X170664193Y-131841833D01*
X170664193Y-131841833D02*
X170545145Y-131841833D01*
X170545145Y-131841833D02*
X170497526Y-131818023D01*
X170330859Y-131698976D02*
X170140383Y-131698976D01*
X170259431Y-131532309D02*
X170259431Y-131960880D01*
X170259431Y-131960880D02*
X170235621Y-132008500D01*
X170235621Y-132008500D02*
X170188002Y-132032309D01*
X170188002Y-132032309D02*
X170140383Y-132032309D01*
X169973717Y-132032309D02*
X169973717Y-131698976D01*
X169973717Y-131532309D02*
X169997526Y-131556119D01*
X169997526Y-131556119D02*
X169973717Y-131579928D01*
X169973717Y-131579928D02*
X169949907Y-131556119D01*
X169949907Y-131556119D02*
X169973717Y-131532309D01*
X169973717Y-131532309D02*
X169973717Y-131579928D01*
X169664193Y-132032309D02*
X169711812Y-132008500D01*
X169711812Y-132008500D02*
X169735622Y-131984690D01*
X169735622Y-131984690D02*
X169759431Y-131937071D01*
X169759431Y-131937071D02*
X169759431Y-131794214D01*
X169759431Y-131794214D02*
X169735622Y-131746595D01*
X169735622Y-131746595D02*
X169711812Y-131722785D01*
X169711812Y-131722785D02*
X169664193Y-131698976D01*
X169664193Y-131698976D02*
X169592765Y-131698976D01*
X169592765Y-131698976D02*
X169545146Y-131722785D01*
X169545146Y-131722785D02*
X169521336Y-131746595D01*
X169521336Y-131746595D02*
X169497527Y-131794214D01*
X169497527Y-131794214D02*
X169497527Y-131937071D01*
X169497527Y-131937071D02*
X169521336Y-131984690D01*
X169521336Y-131984690D02*
X169545146Y-132008500D01*
X169545146Y-132008500D02*
X169592765Y-132032309D01*
X169592765Y-132032309D02*
X169664193Y-132032309D01*
X169283241Y-131698976D02*
X169283241Y-132032309D01*
X169283241Y-131746595D02*
X169259431Y-131722785D01*
X169259431Y-131722785D02*
X169211812Y-131698976D01*
X169211812Y-131698976D02*
X169140384Y-131698976D01*
X169140384Y-131698976D02*
X169092765Y-131722785D01*
X169092765Y-131722785D02*
X169068955Y-131770404D01*
X169068955Y-131770404D02*
X169068955Y-132032309D01*
X168497527Y-131698976D02*
X168402289Y-132032309D01*
X168402289Y-132032309D02*
X168307051Y-131794214D01*
X168307051Y-131794214D02*
X168211813Y-132032309D01*
X168211813Y-132032309D02*
X168116575Y-131698976D01*
X167926098Y-132032309D02*
X167926098Y-131698976D01*
X167926098Y-131532309D02*
X167949907Y-131556119D01*
X167949907Y-131556119D02*
X167926098Y-131579928D01*
X167926098Y-131579928D02*
X167902288Y-131556119D01*
X167902288Y-131556119D02*
X167926098Y-131532309D01*
X167926098Y-131532309D02*
X167926098Y-131579928D01*
X167759431Y-131698976D02*
X167568955Y-131698976D01*
X167688003Y-131532309D02*
X167688003Y-131960880D01*
X167688003Y-131960880D02*
X167664193Y-132008500D01*
X167664193Y-132008500D02*
X167616574Y-132032309D01*
X167616574Y-132032309D02*
X167568955Y-132032309D01*
X167402289Y-132032309D02*
X167402289Y-131532309D01*
X167188003Y-132032309D02*
X167188003Y-131770404D01*
X167188003Y-131770404D02*
X167211813Y-131722785D01*
X167211813Y-131722785D02*
X167259432Y-131698976D01*
X167259432Y-131698976D02*
X167330860Y-131698976D01*
X167330860Y-131698976D02*
X167378479Y-131722785D01*
X167378479Y-131722785D02*
X167402289Y-131746595D01*
X166497527Y-132032309D02*
X166545146Y-132008500D01*
X166545146Y-132008500D02*
X166568956Y-131984690D01*
X166568956Y-131984690D02*
X166592765Y-131937071D01*
X166592765Y-131937071D02*
X166592765Y-131794214D01*
X166592765Y-131794214D02*
X166568956Y-131746595D01*
X166568956Y-131746595D02*
X166545146Y-131722785D01*
X166545146Y-131722785D02*
X166497527Y-131698976D01*
X166497527Y-131698976D02*
X166426099Y-131698976D01*
X166426099Y-131698976D02*
X166378480Y-131722785D01*
X166378480Y-131722785D02*
X166354670Y-131746595D01*
X166354670Y-131746595D02*
X166330861Y-131794214D01*
X166330861Y-131794214D02*
X166330861Y-131937071D01*
X166330861Y-131937071D02*
X166354670Y-131984690D01*
X166354670Y-131984690D02*
X166378480Y-132008500D01*
X166378480Y-132008500D02*
X166426099Y-132032309D01*
X166426099Y-132032309D02*
X166497527Y-132032309D01*
X166116575Y-132032309D02*
X166116575Y-131698976D01*
X166116575Y-131794214D02*
X166092765Y-131746595D01*
X166092765Y-131746595D02*
X166068956Y-131722785D01*
X166068956Y-131722785D02*
X166021337Y-131698976D01*
X166021337Y-131698976D02*
X165973718Y-131698976D01*
X165235623Y-132008500D02*
X165283242Y-132032309D01*
X165283242Y-132032309D02*
X165378480Y-132032309D01*
X165378480Y-132032309D02*
X165426099Y-132008500D01*
X165426099Y-132008500D02*
X165449908Y-131960880D01*
X165449908Y-131960880D02*
X165449908Y-131770404D01*
X165449908Y-131770404D02*
X165426099Y-131722785D01*
X165426099Y-131722785D02*
X165378480Y-131698976D01*
X165378480Y-131698976D02*
X165283242Y-131698976D01*
X165283242Y-131698976D02*
X165235623Y-131722785D01*
X165235623Y-131722785D02*
X165211813Y-131770404D01*
X165211813Y-131770404D02*
X165211813Y-131818023D01*
X165211813Y-131818023D02*
X165449908Y-131865642D01*
X164997528Y-131698976D02*
X164997528Y-132032309D01*
X164997528Y-131746595D02*
X164973718Y-131722785D01*
X164973718Y-131722785D02*
X164926099Y-131698976D01*
X164926099Y-131698976D02*
X164854671Y-131698976D01*
X164854671Y-131698976D02*
X164807052Y-131722785D01*
X164807052Y-131722785D02*
X164783242Y-131770404D01*
X164783242Y-131770404D02*
X164783242Y-132032309D01*
X164330861Y-132032309D02*
X164330861Y-131532309D01*
X164330861Y-132008500D02*
X164378480Y-132032309D01*
X164378480Y-132032309D02*
X164473718Y-132032309D01*
X164473718Y-132032309D02*
X164521337Y-132008500D01*
X164521337Y-132008500D02*
X164545147Y-131984690D01*
X164545147Y-131984690D02*
X164568956Y-131937071D01*
X164568956Y-131937071D02*
X164568956Y-131794214D01*
X164568956Y-131794214D02*
X164545147Y-131746595D01*
X164545147Y-131746595D02*
X164521337Y-131722785D01*
X164521337Y-131722785D02*
X164473718Y-131698976D01*
X164473718Y-131698976D02*
X164378480Y-131698976D01*
X164378480Y-131698976D02*
X164330861Y-131722785D01*
X164021337Y-132032309D02*
X164068956Y-132008500D01*
X164068956Y-132008500D02*
X164092766Y-131984690D01*
X164092766Y-131984690D02*
X164116575Y-131937071D01*
X164116575Y-131937071D02*
X164116575Y-131794214D01*
X164116575Y-131794214D02*
X164092766Y-131746595D01*
X164092766Y-131746595D02*
X164068956Y-131722785D01*
X164068956Y-131722785D02*
X164021337Y-131698976D01*
X164021337Y-131698976D02*
X163949909Y-131698976D01*
X163949909Y-131698976D02*
X163902290Y-131722785D01*
X163902290Y-131722785D02*
X163878480Y-131746595D01*
X163878480Y-131746595D02*
X163854671Y-131794214D01*
X163854671Y-131794214D02*
X163854671Y-131937071D01*
X163854671Y-131937071D02*
X163878480Y-131984690D01*
X163878480Y-131984690D02*
X163902290Y-132008500D01*
X163902290Y-132008500D02*
X163949909Y-132032309D01*
X163949909Y-132032309D02*
X164021337Y-132032309D01*
X163640385Y-132032309D02*
X163640385Y-131698976D01*
X163640385Y-131794214D02*
X163616575Y-131746595D01*
X163616575Y-131746595D02*
X163592766Y-131722785D01*
X163592766Y-131722785D02*
X163545147Y-131698976D01*
X163545147Y-131698976D02*
X163497528Y-131698976D01*
X163354670Y-132008500D02*
X163307051Y-132032309D01*
X163307051Y-132032309D02*
X163211813Y-132032309D01*
X163211813Y-132032309D02*
X163164194Y-132008500D01*
X163164194Y-132008500D02*
X163140385Y-131960880D01*
X163140385Y-131960880D02*
X163140385Y-131937071D01*
X163140385Y-131937071D02*
X163164194Y-131889452D01*
X163164194Y-131889452D02*
X163211813Y-131865642D01*
X163211813Y-131865642D02*
X163283242Y-131865642D01*
X163283242Y-131865642D02*
X163330861Y-131841833D01*
X163330861Y-131841833D02*
X163354670Y-131794214D01*
X163354670Y-131794214D02*
X163354670Y-131770404D01*
X163354670Y-131770404D02*
X163330861Y-131722785D01*
X163330861Y-131722785D02*
X163283242Y-131698976D01*
X163283242Y-131698976D02*
X163211813Y-131698976D01*
X163211813Y-131698976D02*
X163164194Y-131722785D01*
X162735623Y-132008500D02*
X162783242Y-132032309D01*
X162783242Y-132032309D02*
X162878480Y-132032309D01*
X162878480Y-132032309D02*
X162926099Y-132008500D01*
X162926099Y-132008500D02*
X162949908Y-131960880D01*
X162949908Y-131960880D02*
X162949908Y-131770404D01*
X162949908Y-131770404D02*
X162926099Y-131722785D01*
X162926099Y-131722785D02*
X162878480Y-131698976D01*
X162878480Y-131698976D02*
X162783242Y-131698976D01*
X162783242Y-131698976D02*
X162735623Y-131722785D01*
X162735623Y-131722785D02*
X162711813Y-131770404D01*
X162711813Y-131770404D02*
X162711813Y-131818023D01*
X162711813Y-131818023D02*
X162949908Y-131865642D01*
X162497528Y-132032309D02*
X162497528Y-131698976D01*
X162497528Y-131746595D02*
X162473718Y-131722785D01*
X162473718Y-131722785D02*
X162426099Y-131698976D01*
X162426099Y-131698976D02*
X162354671Y-131698976D01*
X162354671Y-131698976D02*
X162307052Y-131722785D01*
X162307052Y-131722785D02*
X162283242Y-131770404D01*
X162283242Y-131770404D02*
X162283242Y-132032309D01*
X162283242Y-131770404D02*
X162259433Y-131722785D01*
X162259433Y-131722785D02*
X162211814Y-131698976D01*
X162211814Y-131698976D02*
X162140385Y-131698976D01*
X162140385Y-131698976D02*
X162092766Y-131722785D01*
X162092766Y-131722785D02*
X162068956Y-131770404D01*
X162068956Y-131770404D02*
X162068956Y-132032309D01*
X161640385Y-132008500D02*
X161688004Y-132032309D01*
X161688004Y-132032309D02*
X161783242Y-132032309D01*
X161783242Y-132032309D02*
X161830861Y-132008500D01*
X161830861Y-132008500D02*
X161854670Y-131960880D01*
X161854670Y-131960880D02*
X161854670Y-131770404D01*
X161854670Y-131770404D02*
X161830861Y-131722785D01*
X161830861Y-131722785D02*
X161783242Y-131698976D01*
X161783242Y-131698976D02*
X161688004Y-131698976D01*
X161688004Y-131698976D02*
X161640385Y-131722785D01*
X161640385Y-131722785D02*
X161616575Y-131770404D01*
X161616575Y-131770404D02*
X161616575Y-131818023D01*
X161616575Y-131818023D02*
X161854670Y-131865642D01*
X161402290Y-131698976D02*
X161402290Y-132032309D01*
X161402290Y-131746595D02*
X161378480Y-131722785D01*
X161378480Y-131722785D02*
X161330861Y-131698976D01*
X161330861Y-131698976D02*
X161259433Y-131698976D01*
X161259433Y-131698976D02*
X161211814Y-131722785D01*
X161211814Y-131722785D02*
X161188004Y-131770404D01*
X161188004Y-131770404D02*
X161188004Y-132032309D01*
X161021337Y-131698976D02*
X160830861Y-131698976D01*
X160949909Y-131532309D02*
X160949909Y-131960880D01*
X160949909Y-131960880D02*
X160926099Y-132008500D01*
X160926099Y-132008500D02*
X160878480Y-132032309D01*
X160878480Y-132032309D02*
X160830861Y-132032309D01*
X160283243Y-132032309D02*
X160283243Y-131532309D01*
X160283243Y-131722785D02*
X160235624Y-131698976D01*
X160235624Y-131698976D02*
X160140386Y-131698976D01*
X160140386Y-131698976D02*
X160092767Y-131722785D01*
X160092767Y-131722785D02*
X160068957Y-131746595D01*
X160068957Y-131746595D02*
X160045148Y-131794214D01*
X160045148Y-131794214D02*
X160045148Y-131937071D01*
X160045148Y-131937071D02*
X160068957Y-131984690D01*
X160068957Y-131984690D02*
X160092767Y-132008500D01*
X160092767Y-132008500D02*
X160140386Y-132032309D01*
X160140386Y-132032309D02*
X160235624Y-132032309D01*
X160235624Y-132032309D02*
X160283243Y-132008500D01*
X159878481Y-131698976D02*
X159759433Y-132032309D01*
X159640386Y-131698976D02*
X159759433Y-132032309D01*
X159759433Y-132032309D02*
X159807052Y-132151357D01*
X159807052Y-132151357D02*
X159830862Y-132175166D01*
X159830862Y-132175166D02*
X159878481Y-132198976D01*
X159140386Y-131698976D02*
X158949910Y-131698976D01*
X159068958Y-131532309D02*
X159068958Y-131960880D01*
X159068958Y-131960880D02*
X159045148Y-132008500D01*
X159045148Y-132008500D02*
X158997529Y-132032309D01*
X158997529Y-132032309D02*
X158949910Y-132032309D01*
X158783244Y-132032309D02*
X158783244Y-131532309D01*
X158568958Y-132032309D02*
X158568958Y-131770404D01*
X158568958Y-131770404D02*
X158592768Y-131722785D01*
X158592768Y-131722785D02*
X158640387Y-131698976D01*
X158640387Y-131698976D02*
X158711815Y-131698976D01*
X158711815Y-131698976D02*
X158759434Y-131722785D01*
X158759434Y-131722785D02*
X158783244Y-131746595D01*
X158140387Y-132008500D02*
X158188006Y-132032309D01*
X158188006Y-132032309D02*
X158283244Y-132032309D01*
X158283244Y-132032309D02*
X158330863Y-132008500D01*
X158330863Y-132008500D02*
X158354672Y-131960880D01*
X158354672Y-131960880D02*
X158354672Y-131770404D01*
X158354672Y-131770404D02*
X158330863Y-131722785D01*
X158330863Y-131722785D02*
X158283244Y-131698976D01*
X158283244Y-131698976D02*
X158188006Y-131698976D01*
X158188006Y-131698976D02*
X158140387Y-131722785D01*
X158140387Y-131722785D02*
X158116577Y-131770404D01*
X158116577Y-131770404D02*
X158116577Y-131818023D01*
X158116577Y-131818023D02*
X158354672Y-131865642D01*
X157902292Y-132032309D02*
X157902292Y-131698976D01*
X157902292Y-131746595D02*
X157878482Y-131722785D01*
X157878482Y-131722785D02*
X157830863Y-131698976D01*
X157830863Y-131698976D02*
X157759435Y-131698976D01*
X157759435Y-131698976D02*
X157711816Y-131722785D01*
X157711816Y-131722785D02*
X157688006Y-131770404D01*
X157688006Y-131770404D02*
X157688006Y-132032309D01*
X157688006Y-131770404D02*
X157664197Y-131722785D01*
X157664197Y-131722785D02*
X157616578Y-131698976D01*
X157616578Y-131698976D02*
X157545149Y-131698976D01*
X157545149Y-131698976D02*
X157497530Y-131722785D01*
X157497530Y-131722785D02*
X157473720Y-131770404D01*
X157473720Y-131770404D02*
X157473720Y-132032309D01*
X157235625Y-131984690D02*
X157211815Y-132008500D01*
X157211815Y-132008500D02*
X157235625Y-132032309D01*
X157235625Y-132032309D02*
X157259434Y-132008500D01*
X157259434Y-132008500D02*
X157235625Y-131984690D01*
X157235625Y-131984690D02*
X157235625Y-132032309D01*
%LPC*%
D11*
X128500000Y-120360000D03*
X129770000Y-118450000D03*
X132310000Y-118450000D03*
X133580000Y-120360000D03*
X134850000Y-118450000D03*
X136120000Y-120360000D03*
X137390000Y-118450000D03*
X138660000Y-120360000D03*
X145010000Y-118450000D03*
X146280000Y-120360000D03*
X147550000Y-118450000D03*
X150090000Y-118450000D03*
X151360000Y-120360000D03*
X152630000Y-118450000D03*
X153900000Y-120360000D03*
X155170000Y-118450000D03*
X156440000Y-120360000D03*
X157710000Y-118450000D03*
X158980000Y-120360000D03*
X160250000Y-118450000D03*
X165330000Y-118450000D03*
X166600000Y-120360000D03*
X167870000Y-118450000D03*
X169140000Y-120360000D03*
X170410000Y-118450000D03*
X128500000Y-124180000D03*
X131040000Y-124180000D03*
X133580000Y-124180000D03*
X134850000Y-122270000D03*
X136120000Y-124180000D03*
X137390000Y-122270000D03*
X138660000Y-124180000D03*
X145010000Y-122270000D03*
X146280000Y-124180000D03*
X147550000Y-122270000D03*
X150090000Y-122270000D03*
X151360000Y-124180000D03*
X152630000Y-122270000D03*
X153900000Y-124180000D03*
X155170000Y-122270000D03*
X156440000Y-124180000D03*
X157710000Y-122270000D03*
X158980000Y-124180000D03*
X165330000Y-122270000D03*
X166600000Y-124180000D03*
X167870000Y-122270000D03*
X169140000Y-124180000D03*
X170410000Y-122270000D03*
%LPD*%
M02*
