G04 #@! TF.GenerationSoftware,KiCad,Pcbnew,7.0.5*
G04 #@! TF.CreationDate,2023-08-01T00:38:23-05:00*
G04 #@! TF.ProjectId,psxpress-pms,70737870-7265-4737-932d-706d732e6b69,rev?*
G04 #@! TF.SameCoordinates,Original*
G04 #@! TF.FileFunction,Paste,Top*
G04 #@! TF.FilePolarity,Positive*
%FSLAX46Y46*%
G04 Gerber Fmt 4.6, Leading zero omitted, Abs format (unit mm)*
G04 Created by KiCad (PCBNEW 7.0.5) date 2023-08-01 00:38:23*
%MOMM*%
%LPD*%
G01*
G04 APERTURE LIST*
G04 Aperture macros list*
%AMRoundRect*
0 Rectangle with rounded corners*
0 $1 Rounding radius*
0 $2 $3 $4 $5 $6 $7 $8 $9 X,Y pos of 4 corners*
0 Add a 4 corners polygon primitive as box body*
4,1,4,$2,$3,$4,$5,$6,$7,$8,$9,$2,$3,0*
0 Add four circle primitives for the rounded corners*
1,1,$1+$1,$2,$3*
1,1,$1+$1,$4,$5*
1,1,$1+$1,$6,$7*
1,1,$1+$1,$8,$9*
0 Add four rect primitives between the rounded corners*
20,1,$1+$1,$2,$3,$4,$5,0*
20,1,$1+$1,$4,$5,$6,$7,0*
20,1,$1+$1,$6,$7,$8,$9,0*
20,1,$1+$1,$8,$9,$2,$3,0*%
G04 Aperture macros list end*
%ADD10C,0.010000*%
%ADD11RoundRect,0.200000X0.275000X-0.200000X0.275000X0.200000X-0.275000X0.200000X-0.275000X-0.200000X0*%
%ADD12RoundRect,0.250000X-0.475000X0.250000X-0.475000X-0.250000X0.475000X-0.250000X0.475000X0.250000X0*%
%ADD13R,0.800000X0.300000*%
%ADD14R,0.300000X0.800000*%
%ADD15R,2.800000X2.800000*%
%ADD16RoundRect,0.250000X0.250000X0.475000X-0.250000X0.475000X-0.250000X-0.475000X0.250000X-0.475000X0*%
%ADD17RoundRect,0.200000X-0.275000X0.200000X-0.275000X-0.200000X0.275000X-0.200000X0.275000X0.200000X0*%
%ADD18R,0.500000X0.350000*%
%ADD19R,0.300000X0.400000*%
%ADD20R,0.430000X0.380000*%
%ADD21RoundRect,0.200000X-0.200000X-0.275000X0.200000X-0.275000X0.200000X0.275000X-0.200000X0.275000X0*%
%ADD22R,1.200000X3.700000*%
%ADD23RoundRect,0.250000X-0.250000X-0.475000X0.250000X-0.475000X0.250000X0.475000X-0.250000X0.475000X0*%
%ADD24R,1.050000X0.550000*%
%ADD25R,3.700000X1.200000*%
%ADD26RoundRect,0.250000X0.475000X-0.250000X0.475000X0.250000X-0.475000X0.250000X-0.475000X-0.250000X0*%
%ADD27R,0.500000X0.375000*%
%ADD28R,0.650000X0.300000*%
%ADD29RoundRect,0.200000X0.200000X0.275000X-0.200000X0.275000X-0.200000X-0.275000X0.200000X-0.275000X0*%
G04 APERTURE END LIST*
D10*
X174088002Y-67889100D02*
X172444502Y-67889100D01*
X172444502Y-66560900D01*
X174088002Y-66560900D01*
X174088002Y-67889100D01*
G36*
X174088002Y-67889100D02*
G01*
X172444502Y-67889100D01*
X172444502Y-66560900D01*
X174088002Y-66560900D01*
X174088002Y-67889100D01*
G37*
D11*
X163396252Y-72848748D03*
X163396252Y-71198748D03*
D12*
X185528752Y-61000652D03*
X185528752Y-62900652D03*
D13*
X161771252Y-66598748D03*
X161771252Y-67098748D03*
X161771252Y-67598748D03*
X161771252Y-68098748D03*
X161771252Y-68598748D03*
X161771252Y-69098748D03*
D14*
X162521252Y-69848748D03*
X163021252Y-69848748D03*
X163521252Y-69848748D03*
X164021252Y-69848748D03*
X164521252Y-69848748D03*
X165021252Y-69848748D03*
D13*
X165771252Y-69098748D03*
X165771252Y-68598748D03*
X165771252Y-68098748D03*
X165771252Y-67598748D03*
X165771252Y-67098748D03*
X165771252Y-66598748D03*
D14*
X165021252Y-65848748D03*
X164521252Y-65848748D03*
X164021252Y-65848748D03*
X163521252Y-65848748D03*
X163021252Y-65848748D03*
X162521252Y-65848748D03*
D15*
X163771252Y-67848748D03*
D16*
X160321252Y-67173748D03*
X158421252Y-67173748D03*
D17*
X159171252Y-61748748D03*
X159171252Y-63398748D03*
D18*
X171506252Y-66250000D03*
X171506252Y-66900000D03*
X171506252Y-67550000D03*
X171506252Y-68200000D03*
D19*
X174406252Y-68200000D03*
X174406252Y-67550000D03*
X174406252Y-66900000D03*
X174406252Y-66250000D03*
D20*
X172906252Y-65810000D03*
X172906252Y-68640000D03*
D11*
X160696252Y-63398748D03*
X160696252Y-61748748D03*
D16*
X179516252Y-74948748D03*
X177616252Y-74948748D03*
D21*
X178016252Y-70548748D03*
X179666252Y-70548748D03*
D22*
X170071252Y-62923748D03*
X167271252Y-62923748D03*
D23*
X165921252Y-71673748D03*
X167821252Y-71673748D03*
D16*
X177891252Y-61995652D03*
X175991252Y-61995652D03*
D21*
X166800000Y-59575000D03*
X168450000Y-59575000D03*
D24*
X173641252Y-75075000D03*
X173641252Y-74125000D03*
X173641252Y-73175000D03*
X171141252Y-73175000D03*
X171141252Y-74125000D03*
X171141252Y-75075000D03*
D21*
X178016252Y-68873748D03*
X179666252Y-68873748D03*
D12*
X175716252Y-72895652D03*
X175716252Y-74795652D03*
D25*
X183266252Y-73545652D03*
X183266252Y-76345652D03*
D26*
X169471252Y-67823748D03*
X169471252Y-65923748D03*
X167431252Y-67823748D03*
X167431252Y-65923748D03*
D27*
X177716252Y-72070652D03*
D28*
X177641252Y-72608152D03*
D27*
X177716252Y-73145652D03*
X179416252Y-73145652D03*
D28*
X179491252Y-72608152D03*
D27*
X179416252Y-72070652D03*
X179591252Y-61445652D03*
D28*
X179516252Y-61983152D03*
D27*
X179591252Y-62520652D03*
X181291252Y-62520652D03*
D28*
X181366252Y-61983152D03*
D27*
X181291252Y-61445652D03*
D11*
X161871252Y-72848748D03*
X161871252Y-71198748D03*
X177841252Y-59895652D03*
X177841252Y-58245652D03*
D17*
X179591252Y-58245652D03*
X179591252Y-59895652D03*
D29*
X171350000Y-71625000D03*
X169700000Y-71625000D03*
D16*
X160321252Y-65098748D03*
X158421252Y-65098748D03*
D12*
X183241252Y-60995652D03*
X183241252Y-62895652D03*
D16*
X179516252Y-77098748D03*
X177616252Y-77098748D03*
D12*
X164496252Y-61598748D03*
X164496252Y-63498748D03*
D22*
X177641252Y-65645652D03*
X180441252Y-65645652D03*
D12*
X162471252Y-61598748D03*
X162471252Y-63498748D03*
D16*
X169696252Y-69623748D03*
X167796252Y-69623748D03*
M02*
