G04 #@! TF.GenerationSoftware,KiCad,Pcbnew,7.0.5*
G04 #@! TF.CreationDate,2023-08-01T00:38:23-05:00*
G04 #@! TF.ProjectId,psxpress-pms,70737870-7265-4737-932d-706d732e6b69,rev?*
G04 #@! TF.SameCoordinates,Original*
G04 #@! TF.FileFunction,Copper,L2,Bot*
G04 #@! TF.FilePolarity,Positive*
%FSLAX46Y46*%
G04 Gerber Fmt 4.6, Leading zero omitted, Abs format (unit mm)*
G04 Created by KiCad (PCBNEW 7.0.5) date 2023-08-01 00:38:23*
%MOMM*%
%LPD*%
G01*
G04 APERTURE LIST*
G04 #@! TA.AperFunction,ViaPad*
%ADD10C,0.800000*%
G04 #@! TD*
G04 #@! TA.AperFunction,Conductor*
%ADD11C,0.250000*%
G04 #@! TD*
G04 APERTURE END LIST*
D10*
X182450000Y-70225000D03*
X159325000Y-75525000D03*
X178566252Y-72595652D03*
X182450000Y-65250000D03*
X163771252Y-68823748D03*
X173825000Y-72250000D03*
X172275000Y-59150000D03*
X173050000Y-62675000D03*
X173950000Y-62675000D03*
X158425000Y-79850000D03*
X162771252Y-66873748D03*
X164775000Y-57550000D03*
X163500000Y-76425000D03*
X183350000Y-66150000D03*
X176150000Y-76250000D03*
X176400000Y-57900000D03*
X164721252Y-68823748D03*
X171375000Y-59150000D03*
X162771252Y-67848748D03*
X173950000Y-61775000D03*
X183350000Y-71125000D03*
X183350000Y-68625000D03*
X158125000Y-63625000D03*
X182450000Y-67725000D03*
X173050000Y-61775000D03*
X183350000Y-65250000D03*
X172275000Y-60050000D03*
X163525000Y-79850000D03*
X163771252Y-66898748D03*
X171475000Y-77100000D03*
X163300000Y-58700000D03*
X164775000Y-58675000D03*
X176375000Y-59650000D03*
X186150000Y-73050000D03*
X170575000Y-77100000D03*
X163500000Y-75525000D03*
X186150000Y-76575000D03*
X168400000Y-72825000D03*
X162771252Y-68823748D03*
X168400000Y-73725000D03*
X167500000Y-72825000D03*
X166325000Y-66150000D03*
X161850000Y-57525000D03*
X167500000Y-73725000D03*
X178000000Y-78975000D03*
X158525000Y-60325000D03*
X164600000Y-72675000D03*
X172925000Y-72250000D03*
X182450000Y-68625000D03*
X164425000Y-79850000D03*
X183350000Y-67725000D03*
X176150000Y-77150000D03*
X171475000Y-76200000D03*
X171375000Y-60050000D03*
X178000000Y-79875000D03*
X164721252Y-66873748D03*
X183350000Y-70225000D03*
X171375000Y-59150000D03*
X159325000Y-76425000D03*
X163771252Y-67848748D03*
X186150000Y-75675000D03*
X182450000Y-71125000D03*
X173825000Y-71350000D03*
X164400000Y-75525000D03*
X182450000Y-66150000D03*
X164721252Y-67848748D03*
X159325000Y-79850000D03*
X186150000Y-73950000D03*
X161850000Y-58650000D03*
X164400000Y-76425000D03*
X163300000Y-57525000D03*
X170575000Y-76200000D03*
X175250000Y-76250000D03*
X158425000Y-76425000D03*
X173050000Y-61775000D03*
X172925000Y-71350000D03*
X158425000Y-75525000D03*
X175250000Y-77150000D03*
X161125000Y-69925000D03*
X165700000Y-59575000D03*
X164646252Y-71073748D03*
X160950000Y-60225000D03*
X177025000Y-68850000D03*
X180900000Y-79000000D03*
D11*
X161125000Y-69925000D02*
X160025000Y-68825000D01*
X163450000Y-59575000D02*
X165700000Y-59575000D01*
X160025000Y-68825000D02*
X160025000Y-63000000D01*
X160025000Y-63000000D02*
X163450000Y-59575000D01*
X160950000Y-60225000D02*
X158946252Y-62228748D01*
X161271252Y-71073748D02*
X164646252Y-71073748D01*
X158946252Y-68748748D02*
X161271252Y-71073748D01*
X158946252Y-62228748D02*
X158946252Y-68748748D01*
X177025000Y-76057496D02*
X179967504Y-79000000D01*
X179967504Y-79000000D02*
X180900000Y-79000000D01*
X177025000Y-68850000D02*
X177025000Y-76057496D01*
G04 #@! TA.AperFunction,Conductor*
G36*
X186709191Y-56993933D02*
G01*
X186754946Y-57046737D01*
X186766152Y-57098248D01*
X186766152Y-80349248D01*
X186746467Y-80416287D01*
X186693663Y-80462042D01*
X186642152Y-80473248D01*
X176706065Y-80473248D01*
X176639026Y-80453563D01*
X176593271Y-80400759D01*
X176583327Y-80331601D01*
X176612352Y-80268045D01*
X176634942Y-80247673D01*
X176792654Y-80137242D01*
X176792654Y-80137241D01*
X176959747Y-79970149D01*
X177095287Y-79776578D01*
X177195155Y-79562411D01*
X177256315Y-79334156D01*
X177276911Y-79098748D01*
X177256315Y-78863340D01*
X177195155Y-78635085D01*
X177095287Y-78420919D01*
X177095286Y-78420917D01*
X176959746Y-78227345D01*
X176792654Y-78060253D01*
X176599082Y-77924713D01*
X176599080Y-77924712D01*
X176491998Y-77874779D01*
X176384915Y-77824845D01*
X176384911Y-77824844D01*
X176384907Y-77824842D01*
X176156665Y-77763686D01*
X176156655Y-77763684D01*
X175980219Y-77748248D01*
X175980218Y-77748248D01*
X175862286Y-77748248D01*
X175862285Y-77748248D01*
X175685848Y-77763684D01*
X175685838Y-77763686D01*
X175457596Y-77824842D01*
X175457587Y-77824846D01*
X175243423Y-77924712D01*
X175243421Y-77924713D01*
X175049849Y-78060253D01*
X174882758Y-78227345D01*
X174882753Y-78227352D01*
X174747219Y-78420913D01*
X174747217Y-78420917D01*
X174647350Y-78635083D01*
X174647346Y-78635092D01*
X174586190Y-78863334D01*
X174586188Y-78863344D01*
X174565593Y-79098747D01*
X174565593Y-79098748D01*
X174586188Y-79334151D01*
X174586190Y-79334161D01*
X174647346Y-79562403D01*
X174647348Y-79562407D01*
X174647349Y-79562411D01*
X174692757Y-79659789D01*
X174747216Y-79776576D01*
X174747217Y-79776578D01*
X174882757Y-79970150D01*
X175049848Y-80137241D01*
X175207562Y-80247673D01*
X175251187Y-80302250D01*
X175258381Y-80371748D01*
X175226858Y-80434103D01*
X175166629Y-80469517D01*
X175136439Y-80473248D01*
X157840752Y-80473248D01*
X157773713Y-80453563D01*
X157727958Y-80400759D01*
X157716752Y-80349248D01*
X157716752Y-58575000D01*
X158269341Y-58575000D01*
X158289936Y-58810403D01*
X158289938Y-58810413D01*
X158351094Y-59038655D01*
X158351096Y-59038659D01*
X158351097Y-59038663D01*
X158383304Y-59107730D01*
X158450964Y-59252828D01*
X158450965Y-59252830D01*
X158586505Y-59446402D01*
X158753597Y-59613494D01*
X158947169Y-59749034D01*
X158947171Y-59749035D01*
X159161337Y-59848903D01*
X159389592Y-59910063D01*
X159566032Y-59925499D01*
X159566033Y-59925500D01*
X159566034Y-59925500D01*
X159683967Y-59925500D01*
X159683967Y-59925499D01*
X159860408Y-59910063D01*
X160088663Y-59848903D01*
X160121637Y-59833526D01*
X160190713Y-59823034D01*
X160254497Y-59851552D01*
X160292738Y-59910028D01*
X160293293Y-59979896D01*
X160289985Y-59989878D01*
X160264859Y-60056129D01*
X160264859Y-60056130D01*
X160244355Y-60225000D01*
X160244355Y-60225003D01*
X160248326Y-60257715D01*
X160236864Y-60326638D01*
X160212911Y-60360339D01*
X158675591Y-61897660D01*
X158597724Y-61975526D01*
X158586762Y-61997041D01*
X158576598Y-62013626D01*
X158562404Y-62033162D01*
X158562403Y-62033165D01*
X158554940Y-62056133D01*
X158547495Y-62074106D01*
X158536532Y-62095621D01*
X158532755Y-62119470D01*
X158528214Y-62138387D01*
X158520752Y-62161352D01*
X158520752Y-68816142D01*
X158528214Y-68839106D01*
X158532755Y-68858021D01*
X158535722Y-68876758D01*
X158536533Y-68881875D01*
X158547495Y-68903389D01*
X158554940Y-68921363D01*
X158562402Y-68944328D01*
X158576592Y-68963858D01*
X158586760Y-68980451D01*
X158597722Y-69001966D01*
X158621698Y-69025942D01*
X160905282Y-71309525D01*
X160905283Y-71309527D01*
X160922724Y-71326968D01*
X161018032Y-71422276D01*
X161039546Y-71433238D01*
X161056136Y-71443404D01*
X161075672Y-71457598D01*
X161098635Y-71465059D01*
X161116611Y-71472504D01*
X161138126Y-71483467D01*
X161161980Y-71487244D01*
X161180891Y-71491784D01*
X161203859Y-71499248D01*
X161237764Y-71499248D01*
X164024672Y-71499248D01*
X164091711Y-71518933D01*
X164112452Y-71536705D01*
X164112455Y-71536703D01*
X164112624Y-71536853D01*
X164117485Y-71541018D01*
X164118066Y-71541674D01*
X164245402Y-71654484D01*
X164396025Y-71733537D01*
X164396027Y-71733538D01*
X164561196Y-71774248D01*
X164731308Y-71774248D01*
X164896477Y-71733538D01*
X164975944Y-71691829D01*
X165047101Y-71654484D01*
X165047102Y-71654482D01*
X165047104Y-71654482D01*
X165174435Y-71541677D01*
X165271070Y-71401678D01*
X165331392Y-71242620D01*
X165351897Y-71073748D01*
X165331392Y-70904876D01*
X165271070Y-70745818D01*
X165174435Y-70605819D01*
X165047104Y-70493014D01*
X165047101Y-70493011D01*
X164896478Y-70413958D01*
X164731308Y-70373248D01*
X164561196Y-70373248D01*
X164396025Y-70413958D01*
X164245402Y-70493011D01*
X164118066Y-70605821D01*
X164117485Y-70606478D01*
X164116939Y-70606820D01*
X164112455Y-70610793D01*
X164111794Y-70610047D01*
X164058294Y-70643603D01*
X164024672Y-70648248D01*
X161691948Y-70648248D01*
X161624909Y-70628563D01*
X161579154Y-70575759D01*
X161569210Y-70506601D01*
X161598235Y-70443045D01*
X161609714Y-70431438D01*
X161653183Y-70392929D01*
X161749818Y-70252930D01*
X161810140Y-70093872D01*
X161830645Y-69925000D01*
X161810140Y-69756128D01*
X161749818Y-69597070D01*
X161653183Y-69457071D01*
X161525852Y-69344266D01*
X161525849Y-69344263D01*
X161375226Y-69265210D01*
X161210056Y-69224500D01*
X161077610Y-69224500D01*
X161010571Y-69204815D01*
X160989929Y-69188181D01*
X160651749Y-68850000D01*
X176319355Y-68850000D01*
X176339859Y-69018869D01*
X176339860Y-69018874D01*
X176400182Y-69177931D01*
X176496817Y-69317930D01*
X176557726Y-69371889D01*
X176594853Y-69431078D01*
X176599500Y-69464705D01*
X176599500Y-76124890D01*
X176606962Y-76147854D01*
X176611503Y-76166769D01*
X176614470Y-76185506D01*
X176615281Y-76190623D01*
X176626243Y-76212137D01*
X176633688Y-76230111D01*
X176641150Y-76253076D01*
X176655340Y-76272606D01*
X176665508Y-76289199D01*
X176676470Y-76310714D01*
X176676471Y-76310715D01*
X176676472Y-76310716D01*
X176700446Y-76334690D01*
X179618974Y-79253218D01*
X179618976Y-79253220D01*
X179714284Y-79348528D01*
X179735805Y-79359493D01*
X179752384Y-79369653D01*
X179771923Y-79383849D01*
X179794885Y-79391309D01*
X179812858Y-79398753D01*
X179834378Y-79409719D01*
X179858228Y-79413495D01*
X179877149Y-79418039D01*
X179898993Y-79425136D01*
X179900111Y-79425500D01*
X179934016Y-79425500D01*
X180278420Y-79425500D01*
X180345459Y-79445185D01*
X180366200Y-79462957D01*
X180366203Y-79462955D01*
X180366372Y-79463105D01*
X180371233Y-79467270D01*
X180371814Y-79467926D01*
X180499150Y-79580736D01*
X180649773Y-79659789D01*
X180649775Y-79659790D01*
X180814944Y-79700500D01*
X180985056Y-79700500D01*
X181150225Y-79659790D01*
X181229692Y-79618081D01*
X181300849Y-79580736D01*
X181300850Y-79580734D01*
X181300852Y-79580734D01*
X181428183Y-79467929D01*
X181524818Y-79327930D01*
X181585140Y-79168872D01*
X181605645Y-79000000D01*
X181585140Y-78831128D01*
X181524818Y-78672070D01*
X181428183Y-78532071D01*
X181300852Y-78419266D01*
X181300849Y-78419263D01*
X181150226Y-78340210D01*
X180985056Y-78299500D01*
X180814944Y-78299500D01*
X180649773Y-78340210D01*
X180499150Y-78419263D01*
X180371814Y-78532073D01*
X180371233Y-78532730D01*
X180370687Y-78533072D01*
X180366203Y-78537045D01*
X180365542Y-78536299D01*
X180312042Y-78569855D01*
X180278420Y-78574500D01*
X180195113Y-78574500D01*
X180128074Y-78554815D01*
X180107432Y-78538181D01*
X177486819Y-75917567D01*
X177453334Y-75856244D01*
X177450500Y-75829886D01*
X177450500Y-69464705D01*
X177470185Y-69397666D01*
X177492274Y-69371889D01*
X177553182Y-69317930D01*
X177589573Y-69265210D01*
X177649818Y-69177930D01*
X177710140Y-69018872D01*
X177730645Y-68850000D01*
X177710140Y-68681128D01*
X177649818Y-68522070D01*
X177553183Y-68382071D01*
X177425852Y-68269266D01*
X177425849Y-68269263D01*
X177275226Y-68190210D01*
X177110056Y-68149500D01*
X176939944Y-68149500D01*
X176774773Y-68190210D01*
X176624150Y-68269263D01*
X176496816Y-68382072D01*
X176400182Y-68522068D01*
X176339860Y-68681125D01*
X176339859Y-68681130D01*
X176319355Y-68850000D01*
X160651749Y-68850000D01*
X160486819Y-68685070D01*
X160453334Y-68623747D01*
X160450500Y-68597389D01*
X160450500Y-68149500D01*
X160450500Y-63227606D01*
X160470184Y-63160571D01*
X160486813Y-63139934D01*
X163589929Y-60036818D01*
X163651252Y-60003334D01*
X163677610Y-60000500D01*
X165078420Y-60000500D01*
X165145459Y-60020185D01*
X165166200Y-60037957D01*
X165166203Y-60037955D01*
X165166372Y-60038105D01*
X165171233Y-60042270D01*
X165171814Y-60042926D01*
X165171816Y-60042928D01*
X165171817Y-60042929D01*
X165186716Y-60056128D01*
X165299150Y-60155736D01*
X165449773Y-60234789D01*
X165449775Y-60234790D01*
X165614944Y-60275500D01*
X165785056Y-60275500D01*
X165950225Y-60234790D01*
X166029692Y-60193081D01*
X166100849Y-60155736D01*
X166100850Y-60155734D01*
X166100852Y-60155734D01*
X166228183Y-60042929D01*
X166324818Y-59902930D01*
X166385140Y-59743872D01*
X166405645Y-59575000D01*
X166385140Y-59406128D01*
X166324818Y-59247070D01*
X166310599Y-59226471D01*
X166275929Y-59176243D01*
X166228183Y-59107071D01*
X166100852Y-58994266D01*
X166100849Y-58994263D01*
X165950226Y-58915210D01*
X165785056Y-58874500D01*
X165614944Y-58874500D01*
X165449773Y-58915210D01*
X165299150Y-58994263D01*
X165171814Y-59107073D01*
X165171233Y-59107730D01*
X165170687Y-59108072D01*
X165166203Y-59112045D01*
X165165542Y-59111299D01*
X165112042Y-59144855D01*
X165078420Y-59149500D01*
X163382604Y-59149500D01*
X163359639Y-59156962D01*
X163340722Y-59161503D01*
X163316873Y-59165280D01*
X163295358Y-59176243D01*
X163277386Y-59183688D01*
X163254418Y-59191151D01*
X163254413Y-59191153D01*
X163234881Y-59205344D01*
X163218301Y-59215505D01*
X163196780Y-59226471D01*
X163196778Y-59226473D01*
X163114244Y-59309003D01*
X163114218Y-59309033D01*
X161802738Y-60620512D01*
X161741415Y-60653997D01*
X161671723Y-60649013D01*
X161615790Y-60607141D01*
X161591373Y-60541677D01*
X161599113Y-60488865D01*
X161635140Y-60393872D01*
X161655645Y-60225000D01*
X161635140Y-60056128D01*
X161632530Y-60049247D01*
X161585600Y-59925500D01*
X161574818Y-59897070D01*
X161541570Y-59848903D01*
X161523714Y-59823034D01*
X161478183Y-59757071D01*
X161350852Y-59644266D01*
X161350849Y-59644263D01*
X161200226Y-59565210D01*
X161035056Y-59524500D01*
X160864944Y-59524500D01*
X160864939Y-59524500D01*
X160860985Y-59524980D01*
X160858099Y-59524500D01*
X160857443Y-59524500D01*
X160857443Y-59524390D01*
X160792062Y-59513518D01*
X160740277Y-59466613D01*
X160722072Y-59399156D01*
X160743226Y-59332566D01*
X160744426Y-59330819D01*
X160799035Y-59252830D01*
X160898903Y-59038663D01*
X160960063Y-58810408D01*
X160969832Y-58698748D01*
X173090593Y-58698748D01*
X173111188Y-58934151D01*
X173111190Y-58934161D01*
X173172346Y-59162403D01*
X173172348Y-59162407D01*
X173172349Y-59162411D01*
X173214512Y-59252829D01*
X173272216Y-59376576D01*
X173272217Y-59376578D01*
X173407757Y-59570150D01*
X173574849Y-59737242D01*
X173768421Y-59872782D01*
X173768423Y-59872783D01*
X173982589Y-59972651D01*
X174210844Y-60033811D01*
X174387284Y-60049247D01*
X174387285Y-60049248D01*
X174387286Y-60049248D01*
X174505219Y-60049248D01*
X174505219Y-60049247D01*
X174681660Y-60033811D01*
X174909915Y-59972651D01*
X175124081Y-59872783D01*
X175317653Y-59737243D01*
X175484747Y-59570149D01*
X175620287Y-59376578D01*
X175720155Y-59162411D01*
X175781315Y-58934156D01*
X175801911Y-58698748D01*
X175781315Y-58463340D01*
X175720155Y-58235085D01*
X175620287Y-58020919D01*
X175620286Y-58020917D01*
X175484746Y-57827345D01*
X175317654Y-57660253D01*
X175124082Y-57524713D01*
X175124080Y-57524712D01*
X175016997Y-57474779D01*
X174909915Y-57424845D01*
X174909911Y-57424844D01*
X174909907Y-57424842D01*
X174681665Y-57363686D01*
X174681655Y-57363684D01*
X174505219Y-57348248D01*
X174505218Y-57348248D01*
X174387286Y-57348248D01*
X174387285Y-57348248D01*
X174210848Y-57363684D01*
X174210838Y-57363686D01*
X173982596Y-57424842D01*
X173982587Y-57424846D01*
X173768423Y-57524712D01*
X173768421Y-57524713D01*
X173574849Y-57660253D01*
X173407758Y-57827345D01*
X173407753Y-57827352D01*
X173272219Y-58020913D01*
X173272217Y-58020917D01*
X173172350Y-58235083D01*
X173172346Y-58235092D01*
X173111190Y-58463334D01*
X173111188Y-58463344D01*
X173090593Y-58698747D01*
X173090593Y-58698748D01*
X160969832Y-58698748D01*
X160980659Y-58575000D01*
X160960063Y-58339592D01*
X160898903Y-58111337D01*
X160799035Y-57897171D01*
X160799034Y-57897169D01*
X160663494Y-57703597D01*
X160496402Y-57536505D01*
X160302830Y-57400965D01*
X160302828Y-57400964D01*
X160189778Y-57348248D01*
X160088663Y-57301097D01*
X160088659Y-57301096D01*
X160088655Y-57301094D01*
X159860413Y-57239938D01*
X159860403Y-57239936D01*
X159683967Y-57224500D01*
X159683966Y-57224500D01*
X159566034Y-57224500D01*
X159566033Y-57224500D01*
X159389596Y-57239936D01*
X159389586Y-57239938D01*
X159161344Y-57301094D01*
X159161335Y-57301098D01*
X158947171Y-57400964D01*
X158947169Y-57400965D01*
X158753597Y-57536505D01*
X158586506Y-57703597D01*
X158586501Y-57703604D01*
X158450967Y-57897165D01*
X158450965Y-57897169D01*
X158351098Y-58111335D01*
X158351094Y-58111344D01*
X158289938Y-58339586D01*
X158289936Y-58339596D01*
X158269341Y-58574999D01*
X158269341Y-58575000D01*
X157716752Y-58575000D01*
X157716752Y-57098248D01*
X157736437Y-57031209D01*
X157789241Y-56985454D01*
X157840752Y-56974248D01*
X186642152Y-56974248D01*
X186709191Y-56993933D01*
G37*
G04 #@! TD.AperFunction*
M02*
