M48
; DRILL file {KiCad 7.0.5} date Tue 01 Aug 2023 01:53:17 AM CDT
; FORMAT={-:-/ absolute / inch / decimal}
; #@! TF.CreationDate,2023-08-01T01:53:17-05:00
; #@! TF.GenerationSoftware,Kicad,Pcbnew,7.0.5
; #@! TF.FileFunction,Plated,1,2,PTH
FMAT,2
INCH
; #@! TA.AperFunction,Plated,PTH,ViaDrill
T1C0.0157
%
G90
G05
T1
X6.2264Y-2.5049
X6.2372Y-2.9734
X6.2372Y-3.0089
X6.2372Y-3.1437
X6.2411Y-2.375
X6.2726Y-2.9734
X6.2726Y-3.0089
X6.2726Y-3.1437
X6.3361Y-2.7456
X6.3366Y-2.3711
X6.372Y-2.2648
X6.372Y-2.3091
X6.4094Y-2.6329
X6.4094Y-2.6713
X6.4094Y-2.7096
X6.4291Y-2.2648
X6.4291Y-2.311
X6.437Y-2.9734
X6.437Y-3.0089
X6.438Y-3.1437
X6.4488Y-2.6339
X6.4488Y-2.6713
X6.4488Y-2.7096
X6.4724Y-2.9734
X6.4724Y-3.0089
X6.4734Y-3.1437
X6.4803Y-2.8612
X6.4821Y-2.7982
X6.4862Y-2.6329
X6.4862Y-2.6713
X6.4862Y-2.7096
X6.4872Y-2.2657
X6.4872Y-2.31
X6.5236Y-2.3455
X6.5482Y-2.6043
X6.5945Y-2.8671
X6.5945Y-2.9026
X6.6299Y-2.8671
X6.6299Y-2.9026
X6.7156Y-3.0
X6.7156Y-3.0354
X6.747Y-2.3287
X6.747Y-2.3287
X6.747Y-2.3642
X6.751Y-3.0
X6.751Y-3.0354
X6.7825Y-2.3287
X6.7825Y-2.3642
X6.812Y-2.8091
X6.812Y-2.8445
X6.813Y-2.4321
X6.813Y-2.4321
X6.813Y-2.4675
X6.8474Y-2.8091
X6.8474Y-2.8445
X6.8484Y-2.4321
X6.8484Y-2.4675
X6.8996Y-3.002
X6.8996Y-3.0374
X6.935Y-3.002
X6.935Y-3.0374
X6.9439Y-2.3484
X6.9449Y-2.2795
X6.9695Y-2.7106
X7.0079Y-3.1093
X7.0079Y-3.1447
X7.0302Y-2.8581
X7.122Y-3.1102
X7.1831Y-2.5689
X7.1831Y-2.6043
X7.1831Y-2.6663
X7.1831Y-2.7018
X7.1831Y-2.7648
X7.1831Y-2.8002
X7.2185Y-2.5689
X7.2185Y-2.6043
X7.2185Y-2.6663
X7.2185Y-2.7018
X7.2185Y-2.7648
X7.2185Y-2.8002
X7.3287Y-2.876
X7.3287Y-2.9114
X7.3287Y-2.9793
X7.3287Y-3.0148
T0
M30
