M48
; DRILL file {KiCad 7.0.7} date Thu 24 Aug 2023 02:08:34 AM CDT
; FORMAT={-:-/ absolute / inch / decimal}
; #@! TF.CreationDate,2023-08-24T02:08:34-05:00
; #@! TF.GenerationSoftware,Kicad,Pcbnew,7.0.7
; #@! TF.FileFunction,Plated,1,2,PTH
FMAT,2
INCH
; #@! TA.AperFunction,Plated,PTH,ViaDrill
T1C0.0157
; #@! TA.AperFunction,Plated,PTH,ComponentDrill
T2C0.0246
%
G90
G05
T1
X2.0094Y-1.9224
X2.0202Y-2.3909
X2.0202Y-2.4264
X2.0202Y-2.5612
X2.0241Y-1.7925
X2.0556Y-2.3909
X2.0556Y-2.4264
X2.0556Y-2.5612
X2.1261Y-2.1654
X2.1315Y-1.7941
X2.155Y-1.6823
X2.155Y-1.7266
X2.1625Y-2.286
X2.1924Y-2.0504
X2.1924Y-2.0888
X2.1924Y-2.1272
X2.2121Y-1.6823
X2.2121Y-1.7285
X2.221Y-2.5612
X2.2318Y-2.0514
X2.2318Y-2.0888
X2.2318Y-2.1272
X2.2346Y-2.2245
X2.2564Y-2.5612
X2.2576Y-2.3697
X2.2677Y-2.2071
X2.2692Y-2.0504
X2.2692Y-2.0888
X2.2692Y-2.1272
X2.2702Y-1.6833
X2.2702Y-1.7276
X2.2733Y-2.4429
X2.3066Y-1.763
X2.3312Y-2.0219
X2.3759Y-2.3297
X2.3895Y-2.1988
X2.4125Y-2.287
X2.492Y-2.4474
X2.492Y-2.4829
X2.492Y-2.5183
X2.492Y-2.5537
X2.5345Y-1.7439
X2.5345Y-1.7793
X2.5507Y-2.4183
X2.5507Y-2.4537
X2.57Y-1.7439
X2.57Y-1.7793
X2.5861Y-2.4183
X2.5861Y-2.4537
X2.5886Y-2.315
X2.6369Y-1.8144
X2.6369Y-1.8498
X2.6723Y-1.8144
X2.6723Y-1.8498
X2.683Y-2.3156
X2.7027Y-1.9159
X2.7269Y-1.7659
X2.7279Y-1.697
X2.7456Y-2.0656
X2.7456Y-2.101
X2.781Y-2.0656
X2.781Y-2.101
X2.7842Y-2.4372
X2.8227Y-1.997
X2.8646Y-2.1252
X2.8966Y-2.565
X2.9074Y-2.2687
X2.9231Y-2.1947
X2.932Y-2.565
X2.9381Y-2.3561
X2.9674Y-2.565
X2.9767Y-1.9159
X2.9818Y-2.4927
X3.0029Y-2.565
X3.0153Y-2.1604
X3.0208Y-2.053
X3.0786Y-1.9982
X3.0786Y-2.0337
X3.0786Y-2.2085
X3.0786Y-2.2439
X3.096Y-2.4593
X3.1141Y-1.9982
X3.1141Y-2.0337
X3.1141Y-2.2085
X3.1141Y-2.2439
X3.1146Y-1.6819
T2
X2.4202Y-1.6935
X2.4702Y-1.6935
X2.6999Y-2.553
X2.7499Y-2.553
T0
M30
