%TF.GenerationSoftware,KiCad,Pcbnew,7.0.5*%
%TF.CreationDate,2023-08-01T01:52:26-05:00*%
%TF.ProjectId,psxpress-pms,70737870-7265-4737-932d-706d732e6b69,rev?*%
%TF.SameCoordinates,Original*%
%TF.FileFunction,Copper,L1,Top*%
%TF.FilePolarity,Positive*%
%FSLAX46Y46*%
G04 Gerber Fmt 4.6, Leading zero omitted, Abs format (unit mm)*
G04 Created by KiCad (PCBNEW 7.0.5) date 2023-08-01 01:52:26*
%MOMM*%
%LPD*%
G01*
G04 APERTURE LIST*
G04 Aperture macros list*
%AMRoundRect*
0 Rectangle with rounded corners*
0 $1 Rounding radius*
0 $2 $3 $4 $5 $6 $7 $8 $9 X,Y pos of 4 corners*
0 Add a 4 corners polygon primitive as box body*
4,1,4,$2,$3,$4,$5,$6,$7,$8,$9,$2,$3,0*
0 Add four circle primitives for the rounded corners*
1,1,$1+$1,$2,$3*
1,1,$1+$1,$4,$5*
1,1,$1+$1,$6,$7*
1,1,$1+$1,$8,$9*
0 Add four rect primitives between the rounded corners*
20,1,$1+$1,$2,$3,$4,$5,0*
20,1,$1+$1,$4,$5,$6,$7,0*
20,1,$1+$1,$6,$7,$8,$9,0*
20,1,$1+$1,$8,$9,$2,$3,0*%
G04 Aperture macros list end*
%TA.AperFunction,SMDPad,CuDef*%
%ADD10C,1.250000*%
%TD*%
%TA.AperFunction,SMDPad,CuDef*%
%ADD11R,1.500000X2.500000*%
%TD*%
%TA.AperFunction,SMDPad,CuDef*%
%ADD12R,2.500000X1.500000*%
%TD*%
%TA.AperFunction,SMDPad,CuDef*%
%ADD13RoundRect,0.200000X0.275000X-0.200000X0.275000X0.200000X-0.275000X0.200000X-0.275000X-0.200000X0*%
%TD*%
%TA.AperFunction,SMDPad,CuDef*%
%ADD14RoundRect,0.250000X-0.475000X0.250000X-0.475000X-0.250000X0.475000X-0.250000X0.475000X0.250000X0*%
%TD*%
%TA.AperFunction,SMDPad,CuDef*%
%ADD15R,0.800000X0.300000*%
%TD*%
%TA.AperFunction,SMDPad,CuDef*%
%ADD16R,0.300000X0.800000*%
%TD*%
%TA.AperFunction,SMDPad,CuDef*%
%ADD17R,2.800000X2.800000*%
%TD*%
%TA.AperFunction,SMDPad,CuDef*%
%ADD18RoundRect,0.250000X0.250000X0.475000X-0.250000X0.475000X-0.250000X-0.475000X0.250000X-0.475000X0*%
%TD*%
%TA.AperFunction,SMDPad,CuDef*%
%ADD19RoundRect,0.200000X-0.275000X0.200000X-0.275000X-0.200000X0.275000X-0.200000X0.275000X0.200000X0*%
%TD*%
%TA.AperFunction,SMDPad,CuDef*%
%ADD20R,0.500000X0.350000*%
%TD*%
%TA.AperFunction,SMDPad,CuDef*%
%ADD21R,0.300000X0.400000*%
%TD*%
%TA.AperFunction,SMDPad,CuDef*%
%ADD22R,1.980000X2.450000*%
%TD*%
%TA.AperFunction,SMDPad,CuDef*%
%ADD23R,0.430000X0.380000*%
%TD*%
%TA.AperFunction,SMDPad,CuDef*%
%ADD24RoundRect,0.200000X-0.200000X-0.275000X0.200000X-0.275000X0.200000X0.275000X-0.200000X0.275000X0*%
%TD*%
%TA.AperFunction,SMDPad,CuDef*%
%ADD25R,1.200000X3.700000*%
%TD*%
%TA.AperFunction,SMDPad,CuDef*%
%ADD26RoundRect,0.250000X-0.250000X-0.475000X0.250000X-0.475000X0.250000X0.475000X-0.250000X0.475000X0*%
%TD*%
%TA.AperFunction,SMDPad,CuDef*%
%ADD27R,1.050000X0.550000*%
%TD*%
%TA.AperFunction,SMDPad,CuDef*%
%ADD28R,3.700000X1.200000*%
%TD*%
%TA.AperFunction,SMDPad,CuDef*%
%ADD29RoundRect,0.250000X0.475000X-0.250000X0.475000X0.250000X-0.475000X0.250000X-0.475000X-0.250000X0*%
%TD*%
%TA.AperFunction,SMDPad,CuDef*%
%ADD30R,0.500000X0.375000*%
%TD*%
%TA.AperFunction,SMDPad,CuDef*%
%ADD31R,0.650000X0.300000*%
%TD*%
%TA.AperFunction,SMDPad,CuDef*%
%ADD32RoundRect,0.200000X0.200000X0.275000X-0.200000X0.275000X-0.200000X-0.275000X0.200000X-0.275000X0*%
%TD*%
%TA.AperFunction,ViaPad*%
%ADD33C,0.820000*%
%TD*%
%TA.AperFunction,Conductor*%
%ADD34C,0.250000*%
%TD*%
%TA.AperFunction,Conductor*%
%ADD35C,0.500000*%
%TD*%
%TA.AperFunction,Conductor*%
%ADD36C,0.380000*%
%TD*%
G04 APERTURE END LIST*
D10*
%TO.P,D1,1,K*%
%TO.N,Net-(D1-K)*%
X168375000Y-57850000D03*
%TO.P,D1,2,A*%
%TO.N,VOUT*%
X170075000Y-57850000D03*
%TD*%
D11*
%TO.P,TP5,1,1*%
%TO.N,+5V*%
X185766252Y-58475000D03*
%TD*%
%TO.P,TP7,1,1*%
%TO.N,GND*%
X185766252Y-65670652D03*
%TD*%
%TO.P,TP8,1,1*%
%TO.N,GND*%
X185766252Y-70670652D03*
%TD*%
%TO.P,TP6,1,1*%
%TO.N,+3.5V*%
X185766252Y-78950000D03*
%TD*%
D10*
%TO.P,SW1,1,A*%
%TO.N,GND*%
X171946252Y-79600000D03*
%TO.P,SW1,2,B*%
%TO.N,Net-(IC2-IN)*%
X173646252Y-79600000D03*
%TD*%
D12*
%TO.P,TP3,1,1*%
%TO.N,Net-(C4-Pad1)*%
X167625000Y-79475000D03*
%TD*%
D11*
%TO.P,TP1,1,1*%
%TO.N,GND*%
X158700000Y-73548748D03*
%TD*%
%TO.P,TP2,1,1*%
%TO.N,Net-(IC1-VAC)*%
X158700000Y-70598748D03*
%TD*%
D13*
%TO.P,R2,1*%
%TO.N,GND*%
X163396252Y-72848748D03*
%TO.P,R2,2*%
%TO.N,Net-(IC1-ICHG)*%
X163396252Y-71198748D03*
%TD*%
D14*
%TO.P,C11,1*%
%TO.N,+5V*%
X185528752Y-61000652D03*
%TO.P,C11,2*%
%TO.N,GND*%
X185528752Y-62900652D03*
%TD*%
D15*
%TO.P,IC1,1,VAC*%
%TO.N,Net-(IC1-VAC)*%
X161771252Y-66598748D03*
%TO.P,IC1,2,NC*%
%TO.N,unconnected-(IC1-NC-Pad2)*%
X161771252Y-67098748D03*
%TO.P,IC1,3,D+*%
%TO.N,unconnected-(IC1-D+-Pad3)*%
X161771252Y-67598748D03*
%TO.P,IC1,4,D-*%
%TO.N,unconnected-(IC1-D--Pad4)*%
X161771252Y-68098748D03*
%TO.P,IC1,5,STAT*%
%TO.N,STAT*%
X161771252Y-68598748D03*
%TO.P,IC1,6,OTG*%
%TO.N,GND*%
X161771252Y-69098748D03*
D16*
%TO.P,IC1,7,~{PG}*%
%TO.N,unconnected-(IC1-~{PG}-Pad7)*%
X162521252Y-69848748D03*
%TO.P,IC1,8,ILIM*%
%TO.N,Net-(IC1-ILIM)*%
X163021252Y-69848748D03*
%TO.P,IC1,9,~{CE}*%
%TO.N,GND*%
X163521252Y-69848748D03*
%TO.P,IC1,10,ICHG*%
%TO.N,Net-(IC1-ICHG)*%
X164021252Y-69848748D03*
%TO.P,IC1,11,TS*%
%TO.N,Net-(IC1-TS)*%
X164521252Y-69848748D03*
%TO.P,IC1,12,VSET*%
%TO.N,unconnected-(IC1-VSET-Pad12)*%
X165021252Y-69848748D03*
D15*
%TO.P,IC1,13,BAT*%
%TO.N,Net-(C4-Pad1)*%
X165771252Y-69098748D03*
%TO.P,IC1,14,BAT*%
X165771252Y-68598748D03*
%TO.P,IC1,15,SYS*%
%TO.N,VOUT*%
X165771252Y-68098748D03*
%TO.P,IC1,16,SYS*%
X165771252Y-67598748D03*
%TO.P,IC1,17,GND*%
%TO.N,GND*%
X165771252Y-67098748D03*
%TO.P,IC1,18,GND*%
X165771252Y-66598748D03*
D16*
%TO.P,IC1,19,SW*%
%TO.N,Net-(C2-Pad1)*%
X165021252Y-65848748D03*
%TO.P,IC1,20,SW*%
X164521252Y-65848748D03*
%TO.P,IC1,21,BTST*%
%TO.N,Net-(IC1-BTST)*%
X164021252Y-65848748D03*
%TO.P,IC1,22,REGN*%
%TO.N,Net-(IC1-REGN)*%
X163521252Y-65848748D03*
%TO.P,IC1,23,PMID*%
%TO.N,Net-(IC1-PMID)*%
X163021252Y-65848748D03*
%TO.P,IC1,24,VBUS*%
%TO.N,Net-(IC1-VAC)*%
X162521252Y-65848748D03*
D17*
%TO.P,IC1,25,GND*%
%TO.N,GND*%
X163771252Y-67848748D03*
%TD*%
D18*
%TO.P,C1,1*%
%TO.N,Net-(IC1-VAC)*%
X160321252Y-67173748D03*
%TO.P,C1,2*%
%TO.N,GND*%
X158421252Y-67173748D03*
%TD*%
D19*
%TO.P,R4,1*%
%TO.N,Net-(IC1-TS)*%
X159171252Y-61748748D03*
%TO.P,R4,2*%
%TO.N,GND*%
X159171252Y-63398748D03*
%TD*%
D20*
%TO.P,Q1,1,S*%
%TO.N,VOUT*%
X171506252Y-66250000D03*
%TO.P,Q1,2,S*%
X171506252Y-66900000D03*
%TO.P,Q1,3,S*%
X171506252Y-67550000D03*
%TO.P,Q1,4,G*%
%TO.N,Net-(IC2-~{OUT})*%
X171506252Y-68200000D03*
D21*
%TO.P,Q1,5,D*%
%TO.N,VSYS*%
X174406252Y-68200000D03*
%TO.P,Q1,6,D*%
X174406252Y-67550000D03*
%TO.P,Q1,7,D*%
X174406252Y-66900000D03*
%TO.P,Q1,8,D*%
X174406252Y-66250000D03*
D22*
%TO.P,Q1,9,D*%
X173266252Y-67225000D03*
D23*
%TO.P,Q1,9_1,D*%
X172906252Y-65810000D03*
%TO.P,Q1,9_2,D*%
X172906252Y-68640000D03*
%TD*%
D13*
%TO.P,R3,1*%
%TO.N,Net-(IC1-REGN)*%
X160696252Y-63398748D03*
%TO.P,R3,2*%
%TO.N,Net-(IC1-TS)*%
X160696252Y-61748748D03*
%TD*%
D18*
%TO.P,C13,1*%
%TO.N,+3.5V*%
X179516252Y-74948748D03*
%TO.P,C13,2*%
%TO.N,GND*%
X177616252Y-74948748D03*
%TD*%
D24*
%TO.P,R10,1*%
%TO.N,Net-(IC4-FB)*%
X178016252Y-70548748D03*
%TO.P,R10,2*%
%TO.N,GND*%
X179666252Y-70548748D03*
%TD*%
D25*
%TO.P,L1,1*%
%TO.N,VOUT*%
X170071252Y-62923748D03*
%TO.P,L1,2*%
%TO.N,Net-(C2-Pad1)*%
X167271252Y-62923748D03*
%TD*%
D26*
%TO.P,C4,1*%
%TO.N,Net-(C4-Pad1)*%
X165921252Y-71673748D03*
%TO.P,C4,2*%
%TO.N,GND*%
X167821252Y-71673748D03*
%TD*%
D18*
%TO.P,C9,1*%
%TO.N,VSYS*%
X177891252Y-61995652D03*
%TO.P,C9,2*%
%TO.N,GND*%
X175991252Y-61995652D03*
%TD*%
D24*
%TO.P,R5,1*%
%TO.N,STAT*%
X166800000Y-59575000D03*
%TO.P,R5,2*%
%TO.N,Net-(D1-K)*%
X168450000Y-59575000D03*
%TD*%
D27*
%TO.P,IC2,1,IN*%
%TO.N,Net-(IC2-IN)*%
X173641252Y-75075000D03*
%TO.P,IC2,2,GND*%
%TO.N,GND*%
X173641252Y-74125000D03*
%TO.P,IC2,3,CLEAR*%
X173641252Y-73175000D03*
%TO.P,IC2,4,~{OUT}*%
%TO.N,Net-(IC2-~{OUT})*%
X171141252Y-73175000D03*
%TO.P,IC2,5,OUT*%
%TO.N,unconnected-(IC2-OUT-Pad5)*%
X171141252Y-74125000D03*
%TO.P,IC2,6,VCC*%
%TO.N,VOUT*%
X171141252Y-75075000D03*
%TD*%
D24*
%TO.P,R9,1*%
%TO.N,+3.5V*%
X178016252Y-68873748D03*
%TO.P,R9,2*%
%TO.N,Net-(IC4-FB)*%
X179666252Y-68873748D03*
%TD*%
D14*
%TO.P,C12,1*%
%TO.N,VSYS*%
X175716252Y-72895652D03*
%TO.P,C12,2*%
%TO.N,GND*%
X175716252Y-74795652D03*
%TD*%
D28*
%TO.P,L3,1*%
%TO.N,Net-(IC4-SW)*%
X183266252Y-73545652D03*
%TO.P,L3,2*%
%TO.N,+3.5V*%
X183266252Y-76345652D03*
%TD*%
D29*
%TO.P,C7,1*%
%TO.N,VOUT*%
X169471252Y-67823748D03*
%TO.P,C7,2*%
%TO.N,GND*%
X169471252Y-65923748D03*
%TD*%
%TO.P,C6,1*%
%TO.N,VOUT*%
X167431252Y-67823748D03*
%TO.P,C6,2*%
%TO.N,GND*%
X167431252Y-65923748D03*
%TD*%
D30*
%TO.P,IC4,1,FB*%
%TO.N,Net-(IC4-FB)*%
X177716252Y-72070652D03*
D31*
%TO.P,IC4,2,EN*%
%TO.N,VSYS*%
X177641252Y-72608152D03*
D30*
%TO.P,IC4,3,VIN*%
X177716252Y-73145652D03*
%TO.P,IC4,4,GND*%
%TO.N,GND*%
X179416252Y-73145652D03*
D31*
%TO.P,IC4,5,SW*%
%TO.N,Net-(IC4-SW)*%
X179491252Y-72608152D03*
D30*
%TO.P,IC4,6,PG*%
%TO.N,unconnected-(IC4-PG-Pad6)*%
X179416252Y-72070652D03*
%TD*%
%TO.P,IC3,1,FB*%
%TO.N,Net-(IC3-FB)*%
X179591252Y-61445652D03*
D31*
%TO.P,IC3,2,EN*%
%TO.N,VSYS*%
X179516252Y-61983152D03*
D30*
%TO.P,IC3,3,VIN*%
X179591252Y-62520652D03*
%TO.P,IC3,4,GND*%
%TO.N,GND*%
X181291252Y-62520652D03*
D31*
%TO.P,IC3,5,SW*%
%TO.N,Net-(IC3-SW)*%
X181366252Y-61983152D03*
D30*
%TO.P,IC3,6,VOUT*%
%TO.N,+5V*%
X181291252Y-61445652D03*
%TD*%
D13*
%TO.P,R1,1*%
%TO.N,GND*%
X161871252Y-72848748D03*
%TO.P,R1,2*%
%TO.N,Net-(IC1-ILIM)*%
X161871252Y-71198748D03*
%TD*%
%TO.P,R8,1*%
%TO.N,Net-(IC3-FB)*%
X177841252Y-59895652D03*
%TO.P,R8,2*%
%TO.N,GND*%
X177841252Y-58245652D03*
%TD*%
D19*
%TO.P,R7,1*%
%TO.N,+5V*%
X179591252Y-58245652D03*
%TO.P,R7,2*%
%TO.N,Net-(IC3-FB)*%
X179591252Y-59895652D03*
%TD*%
D32*
%TO.P,R6,1*%
%TO.N,Net-(IC2-~{OUT})*%
X171350000Y-71625000D03*
%TO.P,R6,2*%
%TO.N,VOUT*%
X169700000Y-71625000D03*
%TD*%
D18*
%TO.P,C3,1*%
%TO.N,Net-(IC1-PMID)*%
X160321252Y-65098748D03*
%TO.P,C3,2*%
%TO.N,GND*%
X158421252Y-65098748D03*
%TD*%
D14*
%TO.P,C10,1*%
%TO.N,+5V*%
X183241252Y-60995652D03*
%TO.P,C10,2*%
%TO.N,GND*%
X183241252Y-62895652D03*
%TD*%
D18*
%TO.P,C14,1*%
%TO.N,+3.5V*%
X179516252Y-77098748D03*
%TO.P,C14,2*%
%TO.N,GND*%
X177616252Y-77098748D03*
%TD*%
D14*
%TO.P,C2,1*%
%TO.N,Net-(C2-Pad1)*%
X164496252Y-61598748D03*
%TO.P,C2,2*%
%TO.N,Net-(IC1-BTST)*%
X164496252Y-63498748D03*
%TD*%
D25*
%TO.P,L2,1*%
%TO.N,VSYS*%
X177641252Y-65645652D03*
%TO.P,L2,2*%
%TO.N,Net-(IC3-SW)*%
X180441252Y-65645652D03*
%TD*%
D14*
%TO.P,C5,1*%
%TO.N,GND*%
X162471252Y-61598748D03*
%TO.P,C5,2*%
%TO.N,Net-(IC1-REGN)*%
X162471252Y-63498748D03*
%TD*%
D18*
%TO.P,C8,1*%
%TO.N,VOUT*%
X169696252Y-69623748D03*
%TO.P,C8,2*%
%TO.N,GND*%
X167796252Y-69623748D03*
%TD*%
D33*
%TO.N,GND*%
X182450000Y-70225000D03*
X159325000Y-75525000D03*
X178566252Y-72595652D03*
X182450000Y-65250000D03*
X163800000Y-68825000D03*
X173925000Y-72250000D03*
X172275000Y-59150000D03*
X173050000Y-62675000D03*
X173950000Y-62675000D03*
X158425000Y-79850000D03*
X162800000Y-66875000D03*
X164775000Y-57550000D03*
X163500000Y-76425000D03*
X183350000Y-66150000D03*
X176150000Y-76250000D03*
X176400000Y-57900000D03*
X164750000Y-68825000D03*
X171375000Y-59150000D03*
X162800000Y-67850000D03*
X173950000Y-61775000D03*
X183350000Y-71125000D03*
X183350000Y-68625000D03*
X158150000Y-63625000D03*
X182450000Y-67725000D03*
X173050000Y-61775000D03*
X183350000Y-65250000D03*
X172275000Y-60050000D03*
X163525000Y-79850000D03*
X163800000Y-66900000D03*
X171475000Y-77100000D03*
X163300000Y-58700000D03*
X164775000Y-58675000D03*
X176375000Y-59650000D03*
X186150000Y-73050000D03*
X170575000Y-77100000D03*
X163500000Y-75525000D03*
X186150000Y-76575000D03*
X168400000Y-72825000D03*
X162800000Y-68825000D03*
X168400000Y-73725000D03*
X167500000Y-72825000D03*
X166325000Y-66150000D03*
X161850000Y-57525000D03*
X167500000Y-73725000D03*
X178000000Y-78975000D03*
X158525000Y-60325000D03*
X164600000Y-72675000D03*
X173025000Y-72250000D03*
X182450000Y-68625000D03*
X164425000Y-79850000D03*
X183350000Y-67725000D03*
X176150000Y-77150000D03*
X171475000Y-76200000D03*
X171375000Y-60050000D03*
X178000000Y-79875000D03*
X164750000Y-66875000D03*
X183350000Y-70225000D03*
X171375000Y-59150000D03*
X159325000Y-76425000D03*
X163800000Y-67850000D03*
X186150000Y-75675000D03*
X182450000Y-71125000D03*
X173925000Y-71350000D03*
X164400000Y-75525000D03*
X182450000Y-66150000D03*
X164750000Y-67850000D03*
X159325000Y-79850000D03*
X186150000Y-73950000D03*
X161850000Y-58650000D03*
X164400000Y-76425000D03*
X163300000Y-57525000D03*
X170575000Y-76200000D03*
X175250000Y-76250000D03*
X158425000Y-76425000D03*
X173050000Y-61775000D03*
X173025000Y-71350000D03*
X158425000Y-75525000D03*
X175250000Y-77150000D03*
%TO.N,STAT*%
X160937500Y-69737500D03*
X165700000Y-59575000D03*
%TO.N,Net-(IC1-TS)*%
X164646252Y-71073748D03*
X160950000Y-60225000D03*
%TO.N,+3.5V*%
X177025000Y-68850000D03*
X180900000Y-79000000D03*
%TD*%
D34*
%TO.N,STAT*%
X161326252Y-68598748D02*
X161771252Y-68598748D01*
X160937500Y-69737500D02*
X160937500Y-68987500D01*
X160937500Y-68987500D02*
X161326252Y-68598748D01*
D35*
%TO.N,VOUT*%
X170071252Y-57853748D02*
X170075000Y-57850000D01*
X170071252Y-62923748D02*
X170071252Y-57853748D01*
D34*
X170917504Y-75075000D02*
X171141252Y-75075000D01*
%TO.N,GND*%
X162496252Y-69098748D02*
X162771252Y-68823748D01*
D36*
X178566252Y-72808152D02*
X178566252Y-72595652D01*
D34*
X161771252Y-69098748D02*
X162496252Y-69098748D01*
%TO.N,Net-(IC1-REGN)*%
X160796252Y-63498748D02*
X160696252Y-63398748D01*
X162371252Y-63398748D02*
X162471252Y-63498748D01*
%TO.N,STAT*%
X166800000Y-59575000D02*
X165700000Y-59575000D01*
%TO.N,Net-(IC1-ILIM)*%
X163021252Y-70402748D02*
X163021252Y-69848748D01*
X161871252Y-71198748D02*
X162225252Y-71198748D01*
X162225252Y-71198748D02*
X163021252Y-70402748D01*
%TO.N,Net-(IC1-ICHG)*%
X163396252Y-71198748D02*
X164021252Y-70573748D01*
X164021252Y-70573748D02*
X164021252Y-69848748D01*
%TO.N,Net-(IC1-TS)*%
X159171252Y-61748748D02*
X160696252Y-61748748D01*
X160950000Y-60225000D02*
X160696252Y-60478748D01*
X164646252Y-71073748D02*
X164521252Y-70948748D01*
X164521252Y-70948748D02*
X164521252Y-69848748D01*
X160696252Y-60478748D02*
X160696252Y-61748748D01*
%TO.N,Net-(IC2-IN)*%
X173641252Y-75075000D02*
X173641252Y-79595000D01*
X173641252Y-79595000D02*
X173646252Y-79600000D01*
%TO.N,Net-(IC2-~{OUT})*%
X171975000Y-71000000D02*
X171975000Y-68668748D01*
X171350000Y-72966252D02*
X171350000Y-71625000D01*
X171350000Y-71625000D02*
X171975000Y-71000000D01*
X171141252Y-73175000D02*
X171350000Y-72966252D01*
X171975000Y-68668748D02*
X171506252Y-68200000D01*
%TO.N,Net-(IC4-FB)*%
X177841252Y-71945652D02*
X177716252Y-72070652D01*
X178016252Y-70548748D02*
X177841252Y-70723748D01*
X178016252Y-70548748D02*
X179666252Y-68898748D01*
X179666252Y-68898748D02*
X179666252Y-68873748D01*
X177841252Y-70723748D02*
X177841252Y-71945652D01*
%TO.N,Net-(D1-K)*%
X168375000Y-59500000D02*
X168375000Y-57850000D01*
X168450000Y-59575000D02*
X168375000Y-59500000D01*
%TO.N,+3.5V*%
X177048748Y-68873748D02*
X178016252Y-68873748D01*
X177025000Y-68850000D02*
X177048748Y-68873748D01*
%TD*%
%TA.AperFunction,Conductor*%
%TO.N,VSYS*%
G36*
X178108717Y-61065337D02*
G01*
X178110761Y-61066679D01*
X178157896Y-61098301D01*
X178817407Y-61540758D01*
X179164540Y-61777439D01*
X179182196Y-61792068D01*
X179255215Y-61840858D01*
X179255219Y-61840860D01*
X179293735Y-61848520D01*
X179319533Y-61853652D01*
X179716752Y-61853651D01*
X179783791Y-61873335D01*
X179829546Y-61926139D01*
X179840752Y-61977651D01*
X179840752Y-62756412D01*
X179821067Y-62823451D01*
X179781022Y-62862456D01*
X178241252Y-63795651D01*
X178241251Y-63795652D01*
X178241252Y-67371652D01*
X178221567Y-67438691D01*
X178168763Y-67484446D01*
X178117252Y-67495652D01*
X176591252Y-67495652D01*
X176591252Y-68336119D01*
X176571567Y-68403158D01*
X176554463Y-68423119D01*
X176554572Y-68423216D01*
X176549596Y-68428832D01*
X176462619Y-68554838D01*
X176462619Y-68554839D01*
X176408325Y-68697999D01*
X176408324Y-68698004D01*
X176389869Y-68849999D01*
X176408324Y-69001995D01*
X176408325Y-69002000D01*
X176462619Y-69145160D01*
X176462619Y-69145161D01*
X176549599Y-69271172D01*
X176554572Y-69276785D01*
X176553604Y-69277641D01*
X176586605Y-69330252D01*
X176591252Y-69363880D01*
X176591252Y-72455652D01*
X177330909Y-72455652D01*
X177378359Y-72465090D01*
X177380216Y-72465859D01*
X177401459Y-72470084D01*
X177444533Y-72478652D01*
X177807121Y-72478651D01*
X177874160Y-72498335D01*
X177919915Y-72551139D01*
X177928036Y-72588470D01*
X177930217Y-72588206D01*
X177949576Y-72747647D01*
X177949577Y-72747649D01*
X177958194Y-72770371D01*
X177966252Y-72814341D01*
X177966252Y-73361652D01*
X177946567Y-73428691D01*
X177893763Y-73474446D01*
X177842252Y-73485652D01*
X174990052Y-73485652D01*
X174923013Y-73465967D01*
X174877258Y-73413163D01*
X174866052Y-73361852D01*
X174864605Y-72465859D01*
X174861252Y-70388748D01*
X174861251Y-70388748D01*
X172359278Y-68647807D01*
X172315493Y-68593359D01*
X172307985Y-68567550D01*
X172304672Y-68548757D01*
X172304669Y-68548751D01*
X172303760Y-68546254D01*
X172294087Y-68522899D01*
X172292960Y-68520483D01*
X172292960Y-68520481D01*
X172287766Y-68513064D01*
X172268217Y-68485143D01*
X172265316Y-68480591D01*
X172250500Y-68454928D01*
X172243751Y-68443238D01*
X172219773Y-68423119D01*
X172210706Y-68415510D01*
X172206734Y-68411871D01*
X172111319Y-68316456D01*
X172077834Y-68255133D01*
X172075000Y-68228775D01*
X172075000Y-64069017D01*
X172094685Y-64001978D01*
X172147489Y-63956223D01*
X172199013Y-63945018D01*
X176566252Y-63945652D01*
X177041252Y-63795652D01*
X177041252Y-62695652D01*
X177041252Y-61169652D01*
X177060937Y-61102613D01*
X177113741Y-61056858D01*
X177165252Y-61045652D01*
X178041678Y-61045652D01*
X178108717Y-61065337D01*
G37*
%TD.AperFunction*%
%TD*%
%TA.AperFunction,Conductor*%
%TO.N,Net-(IC3-FB)*%
G36*
X180009291Y-59515337D02*
G01*
X180055046Y-59568141D01*
X180066252Y-59619652D01*
X180066252Y-60281527D01*
X180063077Y-60309409D01*
X179841252Y-61270650D01*
X179841252Y-61488652D01*
X179821567Y-61555691D01*
X179768763Y-61601446D01*
X179717252Y-61612652D01*
X179367069Y-61612652D01*
X179300030Y-61592967D01*
X179297986Y-61591625D01*
X177421169Y-60332495D01*
X177376464Y-60278799D01*
X177366252Y-60229522D01*
X177366252Y-59619652D01*
X177385937Y-59552613D01*
X177438741Y-59506858D01*
X177490252Y-59495652D01*
X179942252Y-59495652D01*
X180009291Y-59515337D01*
G37*
%TD.AperFunction*%
%TD*%
%TA.AperFunction,Conductor*%
%TO.N,Net-(IC1-VAC)*%
G36*
X161131077Y-68295179D02*
G01*
X161130311Y-68297806D01*
X161105591Y-68325928D01*
X161100744Y-68329994D01*
X161096981Y-68334479D01*
X161075329Y-68354757D01*
X160400000Y-68849999D01*
X160400000Y-69367654D01*
X160380315Y-69434693D01*
X160378052Y-69438091D01*
X160375119Y-69442339D01*
X160320825Y-69585499D01*
X160320824Y-69585504D01*
X160302369Y-69737500D01*
X160320824Y-69889495D01*
X160320825Y-69889500D01*
X160361545Y-69996869D01*
X160375119Y-70032660D01*
X160378049Y-70036905D01*
X160399933Y-70103258D01*
X160400000Y-70107346D01*
X160400000Y-71725942D01*
X160380315Y-71792981D01*
X160327511Y-71838736D01*
X160275943Y-71849942D01*
X157840695Y-71848814D01*
X157773664Y-71829098D01*
X157727934Y-71776273D01*
X157716752Y-71724814D01*
X157716752Y-69393860D01*
X157736437Y-69326821D01*
X157764987Y-69295698D01*
X159575000Y-67898748D01*
X161131077Y-68295179D01*
G37*
%TD.AperFunction*%
%TD*%
%TA.AperFunction,Conductor*%
%TO.N,Net-(C4-Pad1)*%
G36*
X166700000Y-74050000D02*
G01*
X169779855Y-76587801D01*
X169819074Y-76645623D01*
X169825000Y-76683497D01*
X169825000Y-80349248D01*
X169805315Y-80416287D01*
X169752511Y-80462042D01*
X169701000Y-80473248D01*
X165549000Y-80473248D01*
X165481961Y-80453563D01*
X165436206Y-80400759D01*
X165425000Y-80349248D01*
X165425000Y-72425058D01*
X165425000Y-72425000D01*
X166696252Y-72425000D01*
X166700000Y-74050000D01*
G37*
%TD.AperFunction*%
%TD*%
%TA.AperFunction,Conductor*%
%TO.N,Net-(IC1-REGN)*%
G36*
X163489291Y-63018433D02*
G01*
X163535046Y-63071237D01*
X163546252Y-63122748D01*
X163546252Y-63998748D01*
X163662233Y-65344137D01*
X163660309Y-65378975D01*
X163650752Y-65427027D01*
X163650752Y-66104248D01*
X163631067Y-66171287D01*
X163578263Y-66217042D01*
X163526752Y-66228248D01*
X163515751Y-66228248D01*
X163448712Y-66208563D01*
X163402957Y-66155759D01*
X163391751Y-66104248D01*
X163391751Y-65427028D01*
X163389666Y-65416547D01*
X163387379Y-65387483D01*
X163389866Y-65324248D01*
X163389865Y-65324245D01*
X163390177Y-65316306D01*
X163390666Y-65305316D01*
X163389575Y-65271013D01*
X163360312Y-65181928D01*
X163360310Y-65181924D01*
X163325186Y-65121537D01*
X163325184Y-65121535D01*
X163285343Y-65071208D01*
X163285338Y-65071202D01*
X163169292Y-64961265D01*
X163169266Y-64961241D01*
X163166682Y-64958868D01*
X163166654Y-64958843D01*
X163155936Y-64949303D01*
X163156174Y-64949035D01*
X163142575Y-64935726D01*
X163142219Y-64936053D01*
X163139236Y-64932793D01*
X163139232Y-64932788D01*
X163092441Y-64888460D01*
X162408390Y-64240410D01*
X162408386Y-64240406D01*
X162408377Y-64240398D01*
X162400383Y-64233505D01*
X162400368Y-64233492D01*
X162377986Y-64215950D01*
X162362580Y-64208023D01*
X162323593Y-64176591D01*
X162321252Y-64173748D01*
X162321251Y-64173748D01*
X161746252Y-63998748D01*
X161746252Y-62998748D01*
X163422252Y-62998748D01*
X163489291Y-63018433D01*
G37*
%TD.AperFunction*%
%TD*%
%TA.AperFunction,Conductor*%
%TO.N,Net-(IC1-PMID)*%
G36*
X162238881Y-64393433D02*
G01*
X162257122Y-64407730D01*
X162984146Y-65096490D01*
X162994591Y-65114447D01*
X163009689Y-65121019D01*
X163015453Y-65126149D01*
X163130258Y-65234912D01*
X163165388Y-65295308D01*
X163162952Y-65350144D01*
X163165927Y-65350736D01*
X163150752Y-65427024D01*
X163150752Y-66104248D01*
X163131067Y-66171287D01*
X163078263Y-66217042D01*
X163026752Y-66228248D01*
X163015751Y-66228248D01*
X162948712Y-66208563D01*
X162902957Y-66155759D01*
X162891751Y-66104248D01*
X162891751Y-65427030D01*
X162891750Y-65427024D01*
X162878959Y-65362713D01*
X162830224Y-65289776D01*
X162830221Y-65289774D01*
X162830200Y-65289742D01*
X162829979Y-65289612D01*
X162757287Y-65241041D01*
X162757286Y-65241040D01*
X162757285Y-65241040D01*
X162757284Y-65241039D01*
X162692973Y-65228248D01*
X162349535Y-65228248D01*
X162285216Y-65241041D01*
X162285213Y-65241042D01*
X162212280Y-65289775D01*
X162163544Y-65362714D01*
X162163543Y-65362715D01*
X162158542Y-65387862D01*
X162126157Y-65449773D01*
X162069552Y-65483302D01*
X160838110Y-65819150D01*
X160805582Y-65823519D01*
X160518375Y-65823748D01*
X159945252Y-65823748D01*
X159878213Y-65804063D01*
X159832458Y-65751259D01*
X159821252Y-65699748D01*
X159821252Y-64497748D01*
X159840937Y-64430709D01*
X159893741Y-64384954D01*
X159945252Y-64373748D01*
X162171842Y-64373748D01*
X162238881Y-64393433D01*
G37*
%TD.AperFunction*%
%TD*%
%TA.AperFunction,Conductor*%
%TO.N,Net-(IC1-REGN)*%
G36*
X161746252Y-63998748D02*
G01*
X160345252Y-63998748D01*
X160278213Y-63979063D01*
X160232458Y-63926259D01*
X160221252Y-63874748D01*
X160221252Y-63122748D01*
X160240937Y-63055709D01*
X160293741Y-63009954D01*
X160345252Y-62998748D01*
X161746252Y-62998748D01*
X161746252Y-63998748D01*
G37*
%TD.AperFunction*%
%TD*%
%TA.AperFunction,Conductor*%
%TO.N,Net-(IC1-VAC)*%
G36*
X161147419Y-66749890D02*
G01*
X161147419Y-66749891D01*
X161149884Y-68230734D01*
X161131077Y-68295179D01*
X159575000Y-67898748D01*
X159575000Y-66173901D01*
X159594685Y-66106862D01*
X159647489Y-66061107D01*
X159698899Y-66049901D01*
X161146252Y-66048748D01*
X161147419Y-66749890D01*
G37*
%TD.AperFunction*%
%TD*%
%TA.AperFunction,Conductor*%
%TO.N,Net-(IC4-SW)*%
G36*
X185059291Y-72465337D02*
G01*
X185105046Y-72518141D01*
X185116252Y-72569652D01*
X185116252Y-74021652D01*
X185096567Y-74088691D01*
X185043763Y-74134446D01*
X184992252Y-74145652D01*
X180927581Y-74145652D01*
X180860542Y-74125967D01*
X180829030Y-74096909D01*
X180822754Y-74088691D01*
X180760367Y-74006993D01*
X179816253Y-72770652D01*
X179810567Y-72767840D01*
X179763966Y-72754156D01*
X179763568Y-72755118D01*
X179754625Y-72751413D01*
X179753104Y-72750967D01*
X179752342Y-72750467D01*
X179752284Y-72750443D01*
X179687975Y-72737652D01*
X179687971Y-72737652D01*
X179324108Y-72737652D01*
X179257069Y-72717967D01*
X179211314Y-72665163D01*
X179201702Y-72603153D01*
X179201383Y-72603153D01*
X179201383Y-72602651D01*
X179201540Y-72602113D01*
X179201012Y-72598704D01*
X179201383Y-72595652D01*
X179201382Y-72595649D01*
X179202287Y-72588204D01*
X179205510Y-72588595D01*
X179221068Y-72535612D01*
X179273872Y-72489857D01*
X179325383Y-72478651D01*
X179687969Y-72478651D01*
X179687970Y-72478651D01*
X179752287Y-72465859D01*
X179752288Y-72465858D01*
X179752289Y-72465858D01*
X179763572Y-72461185D01*
X179764124Y-72462519D01*
X179817932Y-72445672D01*
X179820144Y-72445652D01*
X184992252Y-72445652D01*
X185059291Y-72465337D01*
G37*
%TD.AperFunction*%
%TD*%
%TA.AperFunction,Conductor*%
%TO.N,+5V*%
G36*
X186709191Y-56993933D02*
G01*
X186754946Y-57046737D01*
X186766152Y-57098248D01*
X186766152Y-61499676D01*
X186746467Y-61566715D01*
X186693663Y-61612470D01*
X186642085Y-61623676D01*
X181767307Y-61621043D01*
X181743187Y-61618661D01*
X181712973Y-61612652D01*
X181165252Y-61612652D01*
X181098213Y-61592967D01*
X181052458Y-61540163D01*
X181041252Y-61488652D01*
X181041252Y-59623747D01*
X180066253Y-58645652D01*
X180066252Y-58645652D01*
X179240252Y-58645652D01*
X179173213Y-58625967D01*
X179127458Y-58573163D01*
X179116252Y-58521652D01*
X179116252Y-57098248D01*
X179135937Y-57031209D01*
X179188741Y-56985454D01*
X179240252Y-56974248D01*
X186642152Y-56974248D01*
X186709191Y-56993933D01*
G37*
%TD.AperFunction*%
%TD*%
%TA.AperFunction,Conductor*%
%TO.N,VOUT*%
G36*
X171771252Y-67680500D02*
G01*
X171751567Y-67747539D01*
X171698763Y-67793294D01*
X171647252Y-67804500D01*
X171234535Y-67804500D01*
X171170216Y-67817293D01*
X171170213Y-67817294D01*
X171097280Y-67866027D01*
X171048544Y-67938966D01*
X171048543Y-67938967D01*
X171035752Y-68003277D01*
X171035752Y-68396716D01*
X171048545Y-68461035D01*
X171048546Y-68461038D01*
X171091160Y-68524813D01*
X171097280Y-68533972D01*
X171170217Y-68582707D01*
X171170218Y-68582707D01*
X171170219Y-68582708D01*
X171208735Y-68590368D01*
X171234533Y-68595500D01*
X171361777Y-68595499D01*
X171428817Y-68615183D01*
X171449459Y-68631818D01*
X171593181Y-68775540D01*
X171626666Y-68836863D01*
X171629500Y-68863221D01*
X171629500Y-70225785D01*
X171609815Y-70292824D01*
X171557011Y-70338579D01*
X171505402Y-70349785D01*
X170196252Y-70348747D01*
X170196252Y-70348748D01*
X169196252Y-70348748D01*
X169196252Y-68898748D01*
X168746252Y-68323748D01*
X166862885Y-68323748D01*
X166795846Y-68304063D01*
X166789048Y-68299368D01*
X166785336Y-68296617D01*
X166785334Y-68296615D01*
X166744078Y-68274341D01*
X166702824Y-68252068D01*
X166702825Y-68252068D01*
X166640569Y-68233788D01*
X166635787Y-68232384D01*
X166635788Y-68232384D01*
X166635786Y-68232383D01*
X166635784Y-68232383D01*
X166572252Y-68223248D01*
X166300558Y-68223248D01*
X166295836Y-68223712D01*
X166256585Y-68227577D01*
X166256560Y-68227581D01*
X166247265Y-68229429D01*
X166198906Y-68229428D01*
X166192973Y-68228248D01*
X166192971Y-68228248D01*
X165515751Y-68228248D01*
X165448712Y-68208563D01*
X165402957Y-68155759D01*
X165391751Y-68104248D01*
X165391751Y-67593247D01*
X165411436Y-67526208D01*
X165464240Y-67480453D01*
X165515751Y-67469247D01*
X166192969Y-67469247D01*
X166192970Y-67469247D01*
X166257287Y-67456455D01*
X166304328Y-67425022D01*
X166344487Y-67407501D01*
X166682090Y-67327119D01*
X166710810Y-67323748D01*
X170671252Y-67323748D01*
X171246252Y-67323748D01*
X171771252Y-67323748D01*
X171771252Y-67680500D01*
G37*
%TD.AperFunction*%
%TD*%
%TA.AperFunction,Conductor*%
%TO.N,Net-(C2-Pad1)*%
G36*
X167818039Y-61094685D02*
G01*
X167863794Y-61147489D01*
X167875000Y-61199000D01*
X167875000Y-64651000D01*
X167855315Y-64718039D01*
X167802511Y-64763794D01*
X167751000Y-64775000D01*
X166674998Y-64775000D01*
X165233308Y-66192663D01*
X165171706Y-66225631D01*
X165146367Y-66228248D01*
X164515751Y-66228248D01*
X164448712Y-66208563D01*
X164402957Y-66155759D01*
X164391751Y-66104248D01*
X164391751Y-65476508D01*
X164411436Y-65409469D01*
X164421731Y-65395661D01*
X165450000Y-64200000D01*
X165450000Y-62550000D01*
X165300000Y-62400000D01*
X163899000Y-62400000D01*
X163831961Y-62380315D01*
X163786206Y-62327511D01*
X163775000Y-62276000D01*
X163775000Y-61199000D01*
X163794685Y-61131961D01*
X163847489Y-61086206D01*
X163899000Y-61075000D01*
X167751000Y-61075000D01*
X167818039Y-61094685D01*
G37*
%TD.AperFunction*%
%TD*%
%TA.AperFunction,Conductor*%
%TO.N,Net-(C4-Pad1)*%
G36*
X166639291Y-68468433D02*
G01*
X166685046Y-68521237D01*
X166696252Y-68572748D01*
X166696252Y-72424857D01*
X166696252Y-72425000D01*
X165425000Y-72425000D01*
X165421388Y-68593362D01*
X165441009Y-68526306D01*
X165493770Y-68480501D01*
X165545388Y-68469247D01*
X166192969Y-68469247D01*
X166192970Y-68469247D01*
X166257287Y-68456455D01*
X166257287Y-68456454D01*
X166269266Y-68454072D01*
X166269438Y-68454937D01*
X166300558Y-68448748D01*
X166572252Y-68448748D01*
X166639291Y-68468433D01*
G37*
%TD.AperFunction*%
%TD*%
%TA.AperFunction,Conductor*%
%TO.N,+3.5V*%
G36*
X180206728Y-74224764D02*
G01*
X180273699Y-74244680D01*
X180311309Y-74282815D01*
X181216252Y-75723748D01*
X184992949Y-75744959D01*
X185059876Y-75765020D01*
X185105334Y-75818080D01*
X185116252Y-75868956D01*
X185116252Y-77445652D01*
X186642152Y-77445652D01*
X186709191Y-77465337D01*
X186754946Y-77518141D01*
X186766152Y-77569652D01*
X186766152Y-80346652D01*
X186746467Y-80413691D01*
X186693663Y-80459446D01*
X186642152Y-80470652D01*
X179140252Y-80470652D01*
X179073213Y-80450967D01*
X179027458Y-80398163D01*
X179016252Y-80346652D01*
X179016252Y-77445652D01*
X179016252Y-74345076D01*
X179035936Y-74278041D01*
X179088740Y-74232286D01*
X179140675Y-74221081D01*
X180206728Y-74224764D01*
G37*
%TD.AperFunction*%
%TD*%
%TA.AperFunction,Conductor*%
%TO.N,Net-(IC3-SW)*%
G36*
X180991291Y-61848034D02*
G01*
X181019533Y-61853652D01*
X181562970Y-61853651D01*
X181567252Y-61853651D01*
X181634291Y-61873335D01*
X181680046Y-61926139D01*
X181691252Y-61977651D01*
X181691252Y-61988652D01*
X181671567Y-62055691D01*
X181618763Y-62101446D01*
X181567252Y-62112652D01*
X181019534Y-62112652D01*
X180994999Y-62117532D01*
X180991291Y-62118270D01*
X180967104Y-62120652D01*
X180816252Y-62120652D01*
X180816252Y-62845650D01*
X181037914Y-63781558D01*
X181041252Y-63810136D01*
X181041252Y-67371652D01*
X181021567Y-67438691D01*
X180968763Y-67484446D01*
X180917252Y-67495652D01*
X179965252Y-67495652D01*
X179898213Y-67475967D01*
X179852458Y-67423163D01*
X179841252Y-67371652D01*
X179841252Y-63810136D01*
X179844590Y-63781558D01*
X180066252Y-62845650D01*
X180066252Y-61969652D01*
X180085937Y-61902613D01*
X180138741Y-61856858D01*
X180190252Y-61845652D01*
X180967103Y-61845652D01*
X180991291Y-61848034D01*
G37*
%TD.AperFunction*%
%TD*%
%TA.AperFunction,Conductor*%
%TO.N,GND*%
G36*
X166171252Y-67228248D02*
G01*
X165349535Y-67228248D01*
X165285216Y-67241041D01*
X165285213Y-67241042D01*
X165273681Y-67248748D01*
X165171252Y-67248748D01*
X165171252Y-66469247D01*
X165192970Y-66469247D01*
X165257287Y-66456455D01*
X165268821Y-66448748D01*
X166171252Y-66448748D01*
X166171252Y-67228248D01*
G37*
%TD.AperFunction*%
%TD*%
%TA.AperFunction,Conductor*%
%TO.N,VOUT*%
G36*
X171714291Y-61093433D02*
G01*
X171760046Y-61146237D01*
X171771252Y-61197747D01*
X171771252Y-67323748D01*
X170671252Y-67323748D01*
X170671252Y-64773748D01*
X169595252Y-64773748D01*
X169528213Y-64754063D01*
X169482458Y-64701259D01*
X169471252Y-64649748D01*
X169471252Y-61197748D01*
X169490937Y-61130709D01*
X169543741Y-61084954D01*
X169595252Y-61073748D01*
X171647252Y-61073748D01*
X171714291Y-61093433D01*
G37*
%TD.AperFunction*%
%TD*%
%TA.AperFunction,Conductor*%
%TO.N,VOUT*%
G36*
X170200000Y-72100000D02*
G01*
X170200000Y-74800000D01*
X171551000Y-74800000D01*
X171618039Y-74819685D01*
X171663794Y-74872489D01*
X171675000Y-74924000D01*
X171675000Y-75226000D01*
X171655315Y-75293039D01*
X171602511Y-75338794D01*
X171551000Y-75350000D01*
X169676362Y-75350000D01*
X169609323Y-75330315D01*
X169588681Y-75313681D01*
X169236319Y-74961319D01*
X169202834Y-74899996D01*
X169200000Y-74873638D01*
X169200000Y-72100132D01*
X169196252Y-70348748D01*
X170196252Y-70348748D01*
X170200000Y-72100000D01*
G37*
%TD.AperFunction*%
%TD*%
%TA.AperFunction,Conductor*%
%TO.N,GND*%
G36*
X163671252Y-69351178D02*
G01*
X163663544Y-69362714D01*
X163663543Y-69362715D01*
X163650752Y-69427024D01*
X163650752Y-70248748D01*
X163391752Y-70248748D01*
X163391751Y-69427030D01*
X163378959Y-69362713D01*
X163378957Y-69362711D01*
X163378957Y-69362709D01*
X163371252Y-69351178D01*
X163371252Y-69248748D01*
X163671252Y-69248748D01*
X163671252Y-69351178D01*
G37*
%TD.AperFunction*%
%TD*%
%TA.AperFunction,Conductor*%
%TO.N,Net-(IC1-VAC)*%
G36*
X162593791Y-65473433D02*
G01*
X162639546Y-65526237D01*
X162650752Y-65577748D01*
X162650752Y-66104248D01*
X162631067Y-66171287D01*
X162578263Y-66217042D01*
X162526753Y-66228248D01*
X162349535Y-66228248D01*
X162285216Y-66241041D01*
X162285213Y-66241042D01*
X162212280Y-66289775D01*
X162163544Y-66362714D01*
X162163543Y-66362715D01*
X162150752Y-66427024D01*
X162150752Y-66604248D01*
X162131067Y-66671287D01*
X162078263Y-66717042D01*
X162026752Y-66728248D01*
X161349534Y-66728248D01*
X161349533Y-66728249D01*
X161273239Y-66743423D01*
X161273172Y-66743086D01*
X161239575Y-66749787D01*
X161147419Y-66749890D01*
X161146252Y-66048748D01*
X161046252Y-66048827D01*
X161046252Y-66048826D01*
X161053315Y-66048821D01*
X161066978Y-66039362D01*
X161329486Y-65920491D01*
X161347966Y-65913834D01*
X162128885Y-65700856D01*
X162184475Y-65677320D01*
X162241080Y-65643791D01*
X162266184Y-65626529D01*
X162325971Y-65554294D01*
X162343768Y-65520270D01*
X162392282Y-65469994D01*
X162453642Y-65453748D01*
X162526752Y-65453748D01*
X162593791Y-65473433D01*
G37*
%TD.AperFunction*%
%TD*%
%TA.AperFunction,Conductor*%
%TO.N,Net-(IC1-BTST)*%
G36*
X165164291Y-62718433D02*
G01*
X165210046Y-62771237D01*
X165221252Y-62822748D01*
X165221252Y-63958565D01*
X165201567Y-64025604D01*
X165197685Y-64031292D01*
X164666310Y-64765093D01*
X164663100Y-64769157D01*
X164248199Y-65251603D01*
X164243299Y-65257719D01*
X164243286Y-65257736D01*
X164239218Y-65263192D01*
X164220623Y-65280851D01*
X164220914Y-65281142D01*
X164212277Y-65289779D01*
X164163545Y-65362711D01*
X164163543Y-65362715D01*
X164150752Y-65427024D01*
X164150752Y-66104248D01*
X164131067Y-66171287D01*
X164078263Y-66217042D01*
X164026752Y-66228248D01*
X164015751Y-66228248D01*
X163948712Y-66208563D01*
X163902957Y-66155759D01*
X163891751Y-66104248D01*
X163891751Y-65427030D01*
X163888349Y-65409930D01*
X163886156Y-65378904D01*
X163887829Y-65348622D01*
X163887584Y-65332701D01*
X163771981Y-63991698D01*
X163771752Y-63986370D01*
X163771752Y-63122749D01*
X163771751Y-63122743D01*
X163771607Y-63121398D01*
X163771252Y-63114767D01*
X163771252Y-62822748D01*
X163790937Y-62755709D01*
X163843741Y-62709954D01*
X163895252Y-62698748D01*
X165097252Y-62698748D01*
X165164291Y-62718433D01*
G37*
%TD.AperFunction*%
%TD*%
%TA.AperFunction,Conductor*%
%TO.N,GND*%
G36*
X160348638Y-72151870D02*
G01*
X160348638Y-72150000D01*
X160400000Y-72150000D01*
X164995357Y-72150000D01*
X165062396Y-72169685D01*
X165108151Y-72222489D01*
X165119357Y-72273883D01*
X165119500Y-72425058D01*
X165119500Y-80349248D01*
X165099815Y-80416287D01*
X165047011Y-80462042D01*
X164995500Y-80473248D01*
X157840752Y-80473248D01*
X157773713Y-80453563D01*
X157727958Y-80400759D01*
X157716752Y-80349248D01*
X157716752Y-72278314D01*
X157736437Y-72211275D01*
X157789241Y-72165520D01*
X157840808Y-72154314D01*
X160202005Y-72155407D01*
X160275793Y-72155442D01*
X160275793Y-72155441D01*
X160275801Y-72155442D01*
X160333933Y-72149212D01*
X160348638Y-72151870D01*
G37*
%TD.AperFunction*%
%TA.AperFunction,Conductor*%
G36*
X168604028Y-68648933D02*
G01*
X168634639Y-68676826D01*
X168864402Y-68970411D01*
X168890218Y-69035336D01*
X168890752Y-69046833D01*
X168890752Y-70346662D01*
X168890747Y-70346769D01*
X168890752Y-70349049D01*
X168890752Y-70349367D01*
X168894500Y-72100264D01*
X168894500Y-74881820D01*
X168895375Y-74898147D01*
X168895379Y-74898199D01*
X168899080Y-74932615D01*
X168899920Y-74939660D01*
X168899920Y-74939662D01*
X168934700Y-75046401D01*
X168934704Y-75046411D01*
X168968189Y-75107733D01*
X169020289Y-75177329D01*
X169020307Y-75177350D01*
X169237823Y-75394865D01*
X169378446Y-75535488D01*
X169390621Y-75546424D01*
X169417634Y-75568192D01*
X169417674Y-75568224D01*
X169423172Y-75572551D01*
X169423175Y-75572553D01*
X169523251Y-75623439D01*
X169590290Y-75643124D01*
X169676362Y-75655500D01*
X169676365Y-75655500D01*
X171550991Y-75655500D01*
X171551000Y-75655500D01*
X171594202Y-75650855D01*
X171600836Y-75650499D01*
X171711108Y-75650499D01*
X171711116Y-75650499D01*
X171711130Y-75650497D01*
X171711135Y-75650497D01*
X171711864Y-75650413D01*
X171719008Y-75650000D01*
X173063486Y-75650000D01*
X173070636Y-75650413D01*
X173070754Y-75650426D01*
X173071387Y-75650500D01*
X173091749Y-75650499D01*
X173158787Y-75670181D01*
X173204544Y-75722983D01*
X173215752Y-75774499D01*
X173215752Y-78705613D01*
X173196067Y-78772652D01*
X173164638Y-78805931D01*
X173023557Y-78908433D01*
X173023554Y-78908435D01*
X172893381Y-79053009D01*
X172796109Y-79221488D01*
X172796108Y-79221489D01*
X172735990Y-79406516D01*
X172715654Y-79600000D01*
X172735990Y-79793483D01*
X172796108Y-79978510D01*
X172796109Y-79978511D01*
X172876411Y-80117597D01*
X172893382Y-80146992D01*
X172940341Y-80199145D01*
X173000785Y-80266276D01*
X173031015Y-80329268D01*
X173022389Y-80398603D01*
X172977648Y-80452268D01*
X172910995Y-80473226D01*
X172908635Y-80473248D01*
X170254500Y-80473248D01*
X170187461Y-80453563D01*
X170141706Y-80400759D01*
X170130500Y-80349248D01*
X170130500Y-76683502D01*
X170126828Y-76636277D01*
X170126828Y-76636271D01*
X170120902Y-76598397D01*
X170116778Y-76577049D01*
X170116775Y-76577042D01*
X170071906Y-76474141D01*
X170071903Y-76474136D01*
X170032684Y-76416314D01*
X169974130Y-76352031D01*
X167818576Y-74575854D01*
X167050177Y-73942693D01*
X167010958Y-73884870D01*
X167005032Y-73847285D01*
X167002682Y-72828139D01*
X167001752Y-72424585D01*
X167001752Y-68753248D01*
X167021437Y-68686209D01*
X167074241Y-68640454D01*
X167125752Y-68629248D01*
X168536989Y-68629248D01*
X168604028Y-68648933D01*
G37*
%TD.AperFunction*%
%TA.AperFunction,Conductor*%
G36*
X186641920Y-61929176D02*
G01*
X186641921Y-61929175D01*
X186642219Y-61929176D01*
X186709248Y-61948897D01*
X186754974Y-62001725D01*
X186766152Y-62053176D01*
X186766152Y-77016152D01*
X186746467Y-77083191D01*
X186693663Y-77128946D01*
X186642152Y-77140152D01*
X185545752Y-77140152D01*
X185478713Y-77120467D01*
X185432958Y-77067663D01*
X185421752Y-77016152D01*
X185421752Y-75868954D01*
X185417097Y-75825083D01*
X185416751Y-75818537D01*
X185416751Y-75700795D01*
X185416751Y-75700788D01*
X185416749Y-75700768D01*
X185416665Y-75700040D01*
X185416252Y-75692896D01*
X185416252Y-74198409D01*
X185416666Y-74191256D01*
X185416752Y-74190517D01*
X185416751Y-74065295D01*
X185418014Y-74047642D01*
X185418084Y-74047160D01*
X185421752Y-74021652D01*
X185421752Y-72569652D01*
X185414770Y-72504711D01*
X185403564Y-72453200D01*
X185392606Y-72414994D01*
X185335927Y-72318081D01*
X185290172Y-72265277D01*
X185290170Y-72265275D01*
X185290160Y-72265264D01*
X185245444Y-72223103D01*
X185245441Y-72223101D01*
X185245439Y-72223099D01*
X185145363Y-72172213D01*
X185145362Y-72172212D01*
X185145361Y-72172212D01*
X185078330Y-72152529D01*
X185078324Y-72152528D01*
X184992252Y-72140152D01*
X184992249Y-72140152D01*
X180090752Y-72140152D01*
X180023713Y-72120467D01*
X179977958Y-72067663D01*
X179966752Y-72016153D01*
X179966751Y-71838295D01*
X179966751Y-71838288D01*
X179966749Y-71838269D01*
X179963838Y-71813164D01*
X179963837Y-71813162D01*
X179963837Y-71813161D01*
X179918458Y-71710387D01*
X179839017Y-71630946D01*
X179839012Y-71630944D01*
X179736244Y-71585567D01*
X179711117Y-71582652D01*
X179121395Y-71582652D01*
X179121369Y-71582654D01*
X179096264Y-71585565D01*
X179096260Y-71585567D01*
X178993487Y-71630945D01*
X178914046Y-71710386D01*
X178868667Y-71813158D01*
X178868667Y-71813160D01*
X178865752Y-71838283D01*
X178865752Y-72303008D01*
X178865754Y-72303034D01*
X178869741Y-72337410D01*
X178867978Y-72337614D01*
X178867978Y-72378692D01*
X178869742Y-72378897D01*
X178865752Y-72413283D01*
X178865752Y-72803008D01*
X178865754Y-72803034D01*
X178868665Y-72828139D01*
X178868667Y-72828143D01*
X178914045Y-72930916D01*
X178914046Y-72930916D01*
X178914046Y-72930917D01*
X178993487Y-73010358D01*
X179096261Y-73055737D01*
X179121387Y-73058652D01*
X179590460Y-73058651D01*
X179657499Y-73078335D01*
X179689010Y-73107393D01*
X179933101Y-73427035D01*
X180156430Y-73719490D01*
X180181473Y-73784717D01*
X180167275Y-73853129D01*
X180118345Y-73903005D01*
X180057451Y-73918746D01*
X179141734Y-73915582D01*
X179141721Y-73915583D01*
X179076247Y-73922451D01*
X179024308Y-73933657D01*
X178985601Y-73944723D01*
X178985596Y-73944725D01*
X178985593Y-73944726D01*
X178985590Y-73944727D01*
X178985587Y-73944729D01*
X178888687Y-74001400D01*
X178888679Y-74001405D01*
X178835874Y-74047161D01*
X178835863Y-74047171D01*
X178793703Y-74091886D01*
X178793698Y-74091893D01*
X178742810Y-74191971D01*
X178723129Y-74258997D01*
X178710752Y-74345078D01*
X178710752Y-80349248D01*
X178691067Y-80416287D01*
X178638263Y-80462042D01*
X178586752Y-80473248D01*
X176706065Y-80473248D01*
X176639026Y-80453563D01*
X176593271Y-80400759D01*
X176583327Y-80331601D01*
X176612352Y-80268045D01*
X176634942Y-80247673D01*
X176778730Y-80146992D01*
X176792653Y-80137243D01*
X176959747Y-79970149D01*
X177095287Y-79776578D01*
X177195155Y-79562411D01*
X177256315Y-79334156D01*
X177276911Y-79098748D01*
X177256315Y-78863340D01*
X177195155Y-78635085D01*
X177095287Y-78420919D01*
X177095286Y-78420917D01*
X176959746Y-78227345D01*
X176792654Y-78060253D01*
X176599082Y-77924713D01*
X176599080Y-77924712D01*
X176491998Y-77874779D01*
X176384915Y-77824845D01*
X176384911Y-77824844D01*
X176384907Y-77824842D01*
X176156665Y-77763686D01*
X176156655Y-77763684D01*
X175980219Y-77748248D01*
X175980218Y-77748248D01*
X175862286Y-77748248D01*
X175862285Y-77748248D01*
X175685848Y-77763684D01*
X175685838Y-77763686D01*
X175457596Y-77824842D01*
X175457587Y-77824846D01*
X175243423Y-77924712D01*
X175243421Y-77924713D01*
X175049849Y-78060253D01*
X174882758Y-78227345D01*
X174882753Y-78227352D01*
X174747219Y-78420913D01*
X174747217Y-78420917D01*
X174647350Y-78635083D01*
X174647346Y-78635092D01*
X174586190Y-78863334D01*
X174586188Y-78863344D01*
X174579352Y-78941476D01*
X174553898Y-79006544D01*
X174497307Y-79047522D01*
X174427545Y-79051399D01*
X174366761Y-79016945D01*
X174363674Y-79013639D01*
X174268949Y-78908435D01*
X174268946Y-78908433D01*
X174268945Y-78908432D01*
X174268944Y-78908431D01*
X174117866Y-78798666D01*
X174075201Y-78743336D01*
X174066752Y-78698348D01*
X174066752Y-75774499D01*
X174086437Y-75707460D01*
X174139241Y-75661705D01*
X174190752Y-75650499D01*
X174211108Y-75650499D01*
X174211116Y-75650499D01*
X174211131Y-75650497D01*
X174211134Y-75650497D01*
X174236239Y-75647586D01*
X174236240Y-75647585D01*
X174236243Y-75647585D01*
X174339017Y-75602206D01*
X174418458Y-75522765D01*
X174463837Y-75419991D01*
X174466752Y-75394865D01*
X174466751Y-74755136D01*
X174466749Y-74755117D01*
X174463838Y-74730012D01*
X174463837Y-74730010D01*
X174463837Y-74730009D01*
X174418458Y-74627235D01*
X174339017Y-74547794D01*
X174236244Y-74502415D01*
X174211117Y-74499500D01*
X173071395Y-74499500D01*
X173071368Y-74499502D01*
X173070640Y-74499587D01*
X173063496Y-74500000D01*
X172524000Y-74500000D01*
X172456961Y-74480315D01*
X172411206Y-74427511D01*
X172400000Y-74376000D01*
X172400000Y-71080309D01*
X172400500Y-71073955D01*
X172400500Y-69286018D01*
X172420185Y-69218979D01*
X172472989Y-69173224D01*
X172542147Y-69163280D01*
X172595321Y-69184232D01*
X174269831Y-70349402D01*
X174502936Y-70511603D01*
X174546721Y-70566051D01*
X174556112Y-70613187D01*
X174560552Y-73362355D01*
X174567584Y-73427022D01*
X174567585Y-73427027D01*
X174578789Y-73478334D01*
X174578791Y-73478338D01*
X174589696Y-73516304D01*
X174589699Y-73516313D01*
X174646375Y-73613219D01*
X174646377Y-73613223D01*
X174692133Y-73666028D01*
X174692143Y-73666039D01*
X174736859Y-73708200D01*
X174736861Y-73708201D01*
X174736865Y-73708205D01*
X174836941Y-73759091D01*
X174903980Y-73778776D01*
X174990052Y-73791152D01*
X174990055Y-73791152D01*
X177842242Y-73791152D01*
X177842252Y-73791152D01*
X177907193Y-73784170D01*
X177958704Y-73772964D01*
X177996910Y-73762006D01*
X178093823Y-73705327D01*
X178146627Y-73659572D01*
X178146634Y-73659564D01*
X178146639Y-73659560D01*
X178188800Y-73614844D01*
X178188805Y-73614839D01*
X178239691Y-73514763D01*
X178259376Y-73447724D01*
X178271752Y-73361652D01*
X178271752Y-72814341D01*
X178267006Y-72762115D01*
X178266751Y-72756501D01*
X178266751Y-72413295D01*
X178266751Y-72413288D01*
X178266749Y-72413269D01*
X178262763Y-72378894D01*
X178264532Y-72378688D01*
X178264534Y-72337612D01*
X178262762Y-72337407D01*
X178263837Y-72328143D01*
X178266752Y-72303017D01*
X178266751Y-72013046D01*
X178266752Y-72013045D01*
X178266752Y-71878259D01*
X178266752Y-71878258D01*
X178266752Y-71425186D01*
X178286437Y-71358148D01*
X178339241Y-71312393D01*
X178347420Y-71309005D01*
X178458578Y-71267546D01*
X178458578Y-71267545D01*
X178458583Y-71267544D01*
X178573798Y-71181294D01*
X178660048Y-71066079D01*
X178710343Y-70931231D01*
X178716752Y-70871621D01*
X178716751Y-70501356D01*
X178736435Y-70434318D01*
X178753065Y-70413681D01*
X179481181Y-69685566D01*
X179542504Y-69652081D01*
X179568862Y-69649247D01*
X179914123Y-69649247D01*
X179914124Y-69649247D01*
X179973735Y-69642839D01*
X180108583Y-69592544D01*
X180223798Y-69506294D01*
X180310048Y-69391079D01*
X180360343Y-69256231D01*
X180366752Y-69196621D01*
X180366751Y-68550876D01*
X180366607Y-68549533D01*
X180366252Y-68542903D01*
X180366252Y-67925152D01*
X180385937Y-67858113D01*
X180438741Y-67812358D01*
X180490252Y-67801152D01*
X180917243Y-67801152D01*
X180917252Y-67801152D01*
X180960454Y-67796507D01*
X180967088Y-67796151D01*
X181086108Y-67796151D01*
X181086116Y-67796151D01*
X181086131Y-67796149D01*
X181086134Y-67796149D01*
X181111239Y-67793238D01*
X181111240Y-67793237D01*
X181111243Y-67793237D01*
X181214017Y-67747858D01*
X181293458Y-67668417D01*
X181338837Y-67565643D01*
X181341752Y-67540517D01*
X181341751Y-67415295D01*
X181343014Y-67397642D01*
X181346752Y-67371653D01*
X181346752Y-63801262D01*
X181346751Y-63801261D01*
X181346752Y-63801253D01*
X181345720Y-63783517D01*
X181340321Y-63737292D01*
X181340252Y-63736906D01*
X181339719Y-63733277D01*
X181338837Y-63725661D01*
X181338836Y-63725659D01*
X181337487Y-63720704D01*
X181336979Y-63718707D01*
X181336978Y-63718704D01*
X181125090Y-62824059D01*
X181121752Y-62795481D01*
X181121752Y-62557651D01*
X181141437Y-62490612D01*
X181194241Y-62444857D01*
X181245752Y-62433651D01*
X181736108Y-62433651D01*
X181736116Y-62433651D01*
X181736131Y-62433649D01*
X181736134Y-62433649D01*
X181761239Y-62430738D01*
X181761240Y-62430737D01*
X181761243Y-62430737D01*
X181864017Y-62385358D01*
X181943458Y-62305917D01*
X181988837Y-62203143D01*
X181991752Y-62178017D01*
X181991751Y-62050731D01*
X182011435Y-61983692D01*
X182064239Y-61937937D01*
X182115817Y-61926731D01*
X186641920Y-61929176D01*
G37*
%TD.AperFunction*%
%TA.AperFunction,Conductor*%
G36*
X164801259Y-66546332D02*
G01*
X164801261Y-66546333D01*
X164826387Y-66549248D01*
X165171252Y-66549247D01*
X165171251Y-67223776D01*
X165119046Y-67275982D01*
X165073667Y-67378754D01*
X165073667Y-67378756D01*
X165070752Y-67403879D01*
X165070752Y-67793604D01*
X165070754Y-67793630D01*
X165074741Y-67828006D01*
X165072975Y-67828210D01*
X165072975Y-67869289D01*
X165074742Y-67869494D01*
X165070752Y-67903879D01*
X165070752Y-68293604D01*
X165070754Y-68293630D01*
X165074741Y-68328006D01*
X165072978Y-68328210D01*
X165072978Y-68369288D01*
X165074742Y-68369493D01*
X165070752Y-68403879D01*
X165070752Y-68793604D01*
X165070754Y-68793630D01*
X165074741Y-68828006D01*
X165072978Y-68828210D01*
X165072978Y-68869288D01*
X165074742Y-68869493D01*
X165070752Y-68903879D01*
X165070752Y-69024248D01*
X165051067Y-69091287D01*
X164998263Y-69137042D01*
X164946753Y-69148248D01*
X164826394Y-69148248D01*
X164826371Y-69148250D01*
X164791995Y-69152237D01*
X164791790Y-69150475D01*
X164750711Y-69150473D01*
X164750507Y-69152238D01*
X164741243Y-69151163D01*
X164716117Y-69148248D01*
X164326395Y-69148248D01*
X164326369Y-69148250D01*
X164291994Y-69152237D01*
X164291789Y-69150475D01*
X164250711Y-69150473D01*
X164250507Y-69152238D01*
X164241243Y-69151163D01*
X164216117Y-69148248D01*
X163826395Y-69148248D01*
X163826369Y-69148250D01*
X163801264Y-69151161D01*
X163801260Y-69151163D01*
X163698487Y-69196541D01*
X163698486Y-69196542D01*
X163646281Y-69248748D01*
X163396223Y-69248748D01*
X163344017Y-69196542D01*
X163241244Y-69151163D01*
X163216117Y-69148248D01*
X162826395Y-69148248D01*
X162826369Y-69148250D01*
X162791994Y-69152237D01*
X162791789Y-69150475D01*
X162750711Y-69150473D01*
X162750507Y-69152238D01*
X162741243Y-69151163D01*
X162735296Y-69150473D01*
X162716120Y-69148248D01*
X162496084Y-69148248D01*
X162429045Y-69128563D01*
X162383290Y-69075759D01*
X162373346Y-69006601D01*
X162402371Y-68943045D01*
X162408391Y-68936579D01*
X162423458Y-68921513D01*
X162468837Y-68818739D01*
X162471752Y-68793613D01*
X162471751Y-68403884D01*
X162471749Y-68403865D01*
X162467763Y-68369490D01*
X162469532Y-68369284D01*
X162469534Y-68328208D01*
X162467762Y-68328003D01*
X162468837Y-68318739D01*
X162471752Y-68293613D01*
X162471751Y-67903884D01*
X162471749Y-67903865D01*
X162467763Y-67869490D01*
X162469532Y-67869284D01*
X162469534Y-67828208D01*
X162467762Y-67828003D01*
X162471457Y-67796152D01*
X162471752Y-67793613D01*
X162471751Y-67403884D01*
X162471027Y-67397642D01*
X162467763Y-67369490D01*
X162469532Y-67369284D01*
X162469534Y-67328208D01*
X162467762Y-67328003D01*
X162468837Y-67318739D01*
X162471752Y-67293613D01*
X162471751Y-66903884D01*
X162470634Y-66894248D01*
X162467763Y-66869490D01*
X162469528Y-66869285D01*
X162469531Y-66828209D01*
X162467762Y-66828004D01*
X162468837Y-66818739D01*
X162471752Y-66793613D01*
X162471752Y-66673247D01*
X162491437Y-66606208D01*
X162544241Y-66560453D01*
X162595752Y-66549247D01*
X162716108Y-66549247D01*
X162716116Y-66549247D01*
X162716131Y-66549245D01*
X162716134Y-66549245D01*
X162750510Y-66545259D01*
X162750715Y-66547029D01*
X162791792Y-66547029D01*
X162791997Y-66545258D01*
X162801259Y-66546332D01*
X162801261Y-66546333D01*
X162826387Y-66549248D01*
X163216116Y-66549247D01*
X163216131Y-66549245D01*
X163216134Y-66549245D01*
X163250510Y-66545259D01*
X163250715Y-66547029D01*
X163291792Y-66547029D01*
X163291997Y-66545258D01*
X163301259Y-66546332D01*
X163301261Y-66546333D01*
X163326387Y-66549248D01*
X163716116Y-66549247D01*
X163741243Y-66546333D01*
X163741244Y-66546332D01*
X163750511Y-66545258D01*
X163750716Y-66547027D01*
X163791792Y-66547024D01*
X163791997Y-66545258D01*
X163801259Y-66546332D01*
X163801261Y-66546333D01*
X163826387Y-66549248D01*
X164216116Y-66549247D01*
X164216131Y-66549245D01*
X164216134Y-66549245D01*
X164250510Y-66545259D01*
X164250715Y-66547029D01*
X164291792Y-66547029D01*
X164291997Y-66545258D01*
X164301259Y-66546332D01*
X164301261Y-66546333D01*
X164326387Y-66549248D01*
X164716116Y-66549247D01*
X164716131Y-66549245D01*
X164716134Y-66549245D01*
X164750510Y-66545259D01*
X164750715Y-66547029D01*
X164791791Y-66547028D01*
X164791997Y-66545258D01*
X164801259Y-66546332D01*
G37*
%TD.AperFunction*%
%TA.AperFunction,Conductor*%
G36*
X167706677Y-56993933D02*
G01*
X167752432Y-57046737D01*
X167762376Y-57115895D01*
X167733351Y-57179451D01*
X167731788Y-57181220D01*
X167622129Y-57303009D01*
X167524857Y-57471488D01*
X167524856Y-57471489D01*
X167464738Y-57656516D01*
X167444402Y-57850000D01*
X167464738Y-58043483D01*
X167524856Y-58228510D01*
X167524857Y-58228511D01*
X167596577Y-58352733D01*
X167622130Y-58396992D01*
X167667476Y-58447354D01*
X167752302Y-58541564D01*
X167752306Y-58541566D01*
X167752308Y-58541569D01*
X167898385Y-58647700D01*
X167941051Y-58703030D01*
X167949500Y-58748018D01*
X167949500Y-58837679D01*
X167929815Y-58904718D01*
X167899813Y-58936944D01*
X167892459Y-58942449D01*
X167892451Y-58942457D01*
X167806206Y-59057664D01*
X167806202Y-59057671D01*
X167755910Y-59192513D01*
X167755909Y-59192517D01*
X167749500Y-59252127D01*
X167749500Y-59252134D01*
X167749500Y-59252135D01*
X167749500Y-59897870D01*
X167749501Y-59897876D01*
X167755908Y-59957483D01*
X167806202Y-60092328D01*
X167806206Y-60092335D01*
X167892452Y-60207544D01*
X167892455Y-60207547D01*
X168007664Y-60293793D01*
X168007671Y-60293797D01*
X168044371Y-60307485D01*
X168142517Y-60344091D01*
X168202127Y-60350500D01*
X168697872Y-60350499D01*
X168757483Y-60344091D01*
X168892331Y-60293796D01*
X169007546Y-60207546D01*
X169093796Y-60092331D01*
X169144091Y-59957483D01*
X169150500Y-59897873D01*
X169150499Y-59252128D01*
X169144091Y-59192517D01*
X169143209Y-59190153D01*
X169093797Y-59057671D01*
X169093793Y-59057664D01*
X169007547Y-58942455D01*
X169007544Y-58942452D01*
X168892335Y-58856206D01*
X168892322Y-58856199D01*
X168892217Y-58856160D01*
X168892127Y-58856092D01*
X168884546Y-58851953D01*
X168885141Y-58850862D01*
X168836287Y-58814285D01*
X168811875Y-58748819D01*
X168826732Y-58680547D01*
X168862672Y-58639666D01*
X168997692Y-58541569D01*
X169015618Y-58521661D01*
X169132218Y-58392163D01*
X169134256Y-58393998D01*
X169180004Y-58358717D01*
X169249617Y-58352733D01*
X169311414Y-58385335D01*
X169317528Y-58392391D01*
X169317782Y-58392163D01*
X169322129Y-58396991D01*
X169322130Y-58396992D01*
X169452308Y-58541569D01*
X169469636Y-58554158D01*
X169512302Y-58609487D01*
X169520752Y-58654477D01*
X169520752Y-60649748D01*
X169501067Y-60716787D01*
X169448263Y-60762542D01*
X169396752Y-60773748D01*
X167924018Y-60773748D01*
X167916868Y-60773335D01*
X167916122Y-60773248D01*
X167916117Y-60773248D01*
X167785937Y-60773248D01*
X167768291Y-60771986D01*
X167751001Y-60769500D01*
X167751000Y-60769500D01*
X163899000Y-60769500D01*
X163898991Y-60769500D01*
X163898990Y-60769501D01*
X163834064Y-60776481D01*
X163834052Y-60776483D01*
X163782546Y-60787688D01*
X163744345Y-60798644D01*
X163744341Y-60798646D01*
X163647431Y-60855323D01*
X163647428Y-60855325D01*
X163594623Y-60901081D01*
X163594612Y-60901091D01*
X163552451Y-60945807D01*
X163552445Y-60945816D01*
X163501560Y-61045890D01*
X163481877Y-61112921D01*
X163481875Y-61112928D01*
X163481876Y-61112928D01*
X163469500Y-61199000D01*
X163469500Y-62276000D01*
X163469501Y-62276009D01*
X163476481Y-62340935D01*
X163476483Y-62340947D01*
X163487688Y-62392453D01*
X163498644Y-62430654D01*
X163498648Y-62430662D01*
X163529018Y-62482591D01*
X163545871Y-62550398D01*
X163532514Y-62601389D01*
X163520283Y-62625446D01*
X163472354Y-62676284D01*
X163409749Y-62693248D01*
X161062975Y-62693248D01*
X160995936Y-62673563D01*
X160950181Y-62620759D01*
X160940237Y-62551601D01*
X160969262Y-62488045D01*
X161028040Y-62450271D01*
X161049722Y-62445958D01*
X161078735Y-62442839D01*
X161213580Y-62392545D01*
X161213579Y-62392545D01*
X161213583Y-62392544D01*
X161328798Y-62306294D01*
X161415048Y-62191079D01*
X161465343Y-62056231D01*
X161471752Y-61996621D01*
X161471751Y-61500876D01*
X161465343Y-61441265D01*
X161455976Y-61416152D01*
X161415049Y-61306419D01*
X161415045Y-61306412D01*
X161328799Y-61191203D01*
X161328796Y-61191200D01*
X161206483Y-61099636D01*
X161207574Y-61098177D01*
X161165864Y-61056471D01*
X161151008Y-60988199D01*
X161175422Y-60922734D01*
X161217065Y-60887244D01*
X161356574Y-60814024D01*
X161485723Y-60699609D01*
X161583737Y-60557611D01*
X161644921Y-60396283D01*
X161665718Y-60225000D01*
X161644921Y-60053717D01*
X161583737Y-59892389D01*
X161485723Y-59750391D01*
X161356574Y-59635976D01*
X161240395Y-59575000D01*
X164984282Y-59575000D01*
X165005078Y-59746282D01*
X165006637Y-59750392D01*
X165062569Y-59897872D01*
X165066264Y-59907613D01*
X165078610Y-59925499D01*
X165164277Y-60049609D01*
X165293426Y-60164024D01*
X165446203Y-60244208D01*
X165446205Y-60244208D01*
X165446206Y-60244209D01*
X165613729Y-60285500D01*
X165613730Y-60285500D01*
X165786271Y-60285500D01*
X165953793Y-60244209D01*
X165953793Y-60244208D01*
X165953797Y-60244208D01*
X166087170Y-60174207D01*
X166155678Y-60160483D01*
X166220731Y-60185976D01*
X166235976Y-60201475D01*
X166236180Y-60201272D01*
X166242451Y-60207542D01*
X166242454Y-60207546D01*
X166242457Y-60207548D01*
X166357664Y-60293793D01*
X166357671Y-60293797D01*
X166394371Y-60307485D01*
X166492517Y-60344091D01*
X166552127Y-60350500D01*
X167047872Y-60350499D01*
X167107483Y-60344091D01*
X167242331Y-60293796D01*
X167357546Y-60207546D01*
X167443796Y-60092331D01*
X167494091Y-59957483D01*
X167500500Y-59897873D01*
X167500499Y-59252128D01*
X167494091Y-59192517D01*
X167493209Y-59190153D01*
X167443797Y-59057671D01*
X167443793Y-59057664D01*
X167357547Y-58942455D01*
X167357544Y-58942452D01*
X167242335Y-58856206D01*
X167242328Y-58856202D01*
X167107486Y-58805910D01*
X167107485Y-58805909D01*
X167107483Y-58805909D01*
X167047873Y-58799500D01*
X167047863Y-58799500D01*
X166552129Y-58799500D01*
X166552123Y-58799501D01*
X166492516Y-58805908D01*
X166357671Y-58856202D01*
X166357664Y-58856206D01*
X166242457Y-58942451D01*
X166236180Y-58948728D01*
X166234740Y-58947288D01*
X166188102Y-58982185D01*
X166118409Y-58987154D01*
X166087169Y-58975791D01*
X165953795Y-58905791D01*
X165786271Y-58864500D01*
X165786270Y-58864500D01*
X165613730Y-58864500D01*
X165613729Y-58864500D01*
X165446206Y-58905790D01*
X165293425Y-58985976D01*
X165164276Y-59100392D01*
X165066264Y-59242386D01*
X165005078Y-59403717D01*
X164984282Y-59575000D01*
X161240395Y-59575000D01*
X161203797Y-59555792D01*
X161203796Y-59555791D01*
X161203793Y-59555790D01*
X161036271Y-59514500D01*
X161036270Y-59514500D01*
X160863730Y-59514500D01*
X160856229Y-59514500D01*
X160856229Y-59511816D01*
X160799781Y-59502405D01*
X160748016Y-59455478D01*
X160729838Y-59388014D01*
X160751020Y-59321433D01*
X160752154Y-59319782D01*
X160799035Y-59252830D01*
X160898903Y-59038663D01*
X160960063Y-58810408D01*
X160980659Y-58575000D01*
X160960063Y-58339592D01*
X160898903Y-58111337D01*
X160799035Y-57897171D01*
X160799034Y-57897169D01*
X160663494Y-57703597D01*
X160496402Y-57536505D01*
X160302830Y-57400965D01*
X160302828Y-57400964D01*
X160174893Y-57341307D01*
X160088663Y-57301097D01*
X160088659Y-57301096D01*
X160088655Y-57301094D01*
X159860413Y-57239938D01*
X159860403Y-57239936D01*
X159683967Y-57224500D01*
X159683966Y-57224500D01*
X159566034Y-57224500D01*
X159566033Y-57224500D01*
X159389596Y-57239936D01*
X159389586Y-57239938D01*
X159161344Y-57301094D01*
X159161335Y-57301098D01*
X158947171Y-57400964D01*
X158947169Y-57400965D01*
X158753597Y-57536505D01*
X158586506Y-57703597D01*
X158586501Y-57703604D01*
X158450967Y-57897165D01*
X158450965Y-57897169D01*
X158351098Y-58111335D01*
X158351094Y-58111344D01*
X158289938Y-58339586D01*
X158289936Y-58339596D01*
X158269341Y-58574999D01*
X158269341Y-58575000D01*
X158289936Y-58810403D01*
X158289938Y-58810413D01*
X158351094Y-59038655D01*
X158351096Y-59038659D01*
X158351097Y-59038663D01*
X158401030Y-59145745D01*
X158450964Y-59252828D01*
X158450965Y-59252830D01*
X158586505Y-59446402D01*
X158753597Y-59613494D01*
X158947169Y-59749034D01*
X158947171Y-59749035D01*
X159161337Y-59848903D01*
X159389592Y-59910063D01*
X159566032Y-59925499D01*
X159566033Y-59925500D01*
X159566034Y-59925500D01*
X159683967Y-59925500D01*
X159683967Y-59925499D01*
X159860408Y-59910063D01*
X160088663Y-59848903D01*
X160108643Y-59839585D01*
X160177720Y-59829093D01*
X160241504Y-59857611D01*
X160279745Y-59916087D01*
X160280300Y-59985955D01*
X160276991Y-59995937D01*
X160255079Y-60053713D01*
X160255079Y-60053715D01*
X160234282Y-60225000D01*
X160255078Y-60396282D01*
X160262694Y-60416361D01*
X160270752Y-60460333D01*
X160270752Y-60984606D01*
X160251067Y-61051645D01*
X160198263Y-61097400D01*
X160190099Y-61100782D01*
X160178921Y-61104952D01*
X160178916Y-61104954D01*
X160063707Y-61191200D01*
X160063704Y-61191203D01*
X160033018Y-61232195D01*
X159977084Y-61274066D01*
X159907393Y-61279050D01*
X159846070Y-61245564D01*
X159834486Y-61232195D01*
X159803799Y-61191203D01*
X159803796Y-61191200D01*
X159688587Y-61104954D01*
X159688580Y-61104950D01*
X159553738Y-61054658D01*
X159553737Y-61054657D01*
X159553735Y-61054657D01*
X159494125Y-61048248D01*
X159494115Y-61048248D01*
X158848381Y-61048248D01*
X158848375Y-61048249D01*
X158788768Y-61054656D01*
X158653923Y-61104950D01*
X158653916Y-61104954D01*
X158538707Y-61191200D01*
X158538704Y-61191203D01*
X158452458Y-61306412D01*
X158452454Y-61306419D01*
X158402162Y-61441261D01*
X158402161Y-61441265D01*
X158395752Y-61500875D01*
X158395752Y-61500882D01*
X158395752Y-61500883D01*
X158395752Y-61996618D01*
X158395753Y-61996624D01*
X158402160Y-62056231D01*
X158452454Y-62191076D01*
X158452458Y-62191083D01*
X158538704Y-62306292D01*
X158538707Y-62306295D01*
X158653916Y-62392541D01*
X158653923Y-62392545D01*
X158698870Y-62409308D01*
X158788769Y-62442839D01*
X158848379Y-62449248D01*
X159494124Y-62449247D01*
X159553735Y-62442839D01*
X159688583Y-62392544D01*
X159803798Y-62306294D01*
X159834485Y-62265300D01*
X159890418Y-62223429D01*
X159960110Y-62218445D01*
X160021433Y-62251930D01*
X160033019Y-62265301D01*
X160063706Y-62306294D01*
X160063707Y-62306295D01*
X160178916Y-62392541D01*
X160178923Y-62392545D01*
X160223870Y-62409309D01*
X160313769Y-62442839D01*
X160347328Y-62446447D01*
X160411877Y-62473184D01*
X160451725Y-62530577D01*
X160454219Y-62600402D01*
X160418567Y-62660491D01*
X160356088Y-62691766D01*
X160347326Y-62693025D01*
X160280316Y-62700229D01*
X160280304Y-62700231D01*
X160228798Y-62711436D01*
X160190597Y-62722392D01*
X160190593Y-62722394D01*
X160093683Y-62779071D01*
X160093680Y-62779073D01*
X160040875Y-62824829D01*
X160040864Y-62824839D01*
X159998703Y-62869555D01*
X159998697Y-62869564D01*
X159947812Y-62969638D01*
X159928129Y-63036669D01*
X159928127Y-63036676D01*
X159928128Y-63036676D01*
X159915752Y-63122748D01*
X159915752Y-63874748D01*
X159915753Y-63874757D01*
X159922733Y-63939683D01*
X159923267Y-63942978D01*
X159922331Y-63943129D01*
X159917617Y-64008846D01*
X159875732Y-64064770D01*
X159830617Y-64085379D01*
X159830759Y-64085942D01*
X159828805Y-64086434D01*
X159790597Y-64097392D01*
X159790593Y-64097394D01*
X159693683Y-64154071D01*
X159693680Y-64154073D01*
X159640875Y-64199829D01*
X159640864Y-64199839D01*
X159598703Y-64244555D01*
X159598697Y-64244564D01*
X159547812Y-64344638D01*
X159528129Y-64411669D01*
X159528127Y-64411676D01*
X159528128Y-64411676D01*
X159515752Y-64497748D01*
X159515752Y-65699748D01*
X159515753Y-65699757D01*
X159516331Y-65705136D01*
X159503922Y-65773895D01*
X159456308Y-65825030D01*
X159455643Y-65825421D01*
X159447434Y-65830221D01*
X159447434Y-65830222D01*
X159394623Y-65875982D01*
X159394612Y-65875992D01*
X159352451Y-65920708D01*
X159352445Y-65920717D01*
X159301560Y-66020791D01*
X159281877Y-66087822D01*
X159269500Y-66173903D01*
X159269500Y-67687689D01*
X159249815Y-67754728D01*
X159221262Y-67785853D01*
X157916514Y-68792844D01*
X157851416Y-68818221D01*
X157782932Y-68804374D01*
X157732805Y-68755701D01*
X157716752Y-68694680D01*
X157716752Y-57098248D01*
X157736437Y-57031209D01*
X157789241Y-56985454D01*
X157840752Y-56974248D01*
X167639638Y-56974248D01*
X167706677Y-56993933D01*
G37*
%TD.AperFunction*%
%TA.AperFunction,Conductor*%
G36*
X169425636Y-65074161D02*
G01*
X169425739Y-65074172D01*
X169426387Y-65074248D01*
X169551607Y-65074247D01*
X169569258Y-65075509D01*
X169595250Y-65079247D01*
X169595251Y-65079248D01*
X169595252Y-65079248D01*
X170241752Y-65079248D01*
X170308791Y-65098933D01*
X170354546Y-65151737D01*
X170365752Y-65203248D01*
X170365752Y-66894248D01*
X170346067Y-66961287D01*
X170293263Y-67007042D01*
X170241752Y-67018248D01*
X166701884Y-67018248D01*
X166686289Y-67019159D01*
X166684061Y-67019290D01*
X166684037Y-67019292D01*
X166637606Y-67024742D01*
X166620026Y-67027856D01*
X166620001Y-67027861D01*
X166273730Y-67110308D01*
X166273721Y-67110310D01*
X166222328Y-67127488D01*
X166222321Y-67127490D01*
X166222321Y-67127491D01*
X166198455Y-67137903D01*
X166171252Y-67143578D01*
X166171252Y-66448748D01*
X165396977Y-66448748D01*
X165405800Y-66441167D01*
X165447506Y-66410492D01*
X166763850Y-65116085D01*
X166825453Y-65083117D01*
X166850792Y-65080500D01*
X167750991Y-65080500D01*
X167751000Y-65080500D01*
X167805847Y-65074603D01*
X167812481Y-65074247D01*
X167916108Y-65074247D01*
X167916116Y-65074247D01*
X167916130Y-65074245D01*
X167916135Y-65074245D01*
X167916864Y-65074161D01*
X167924008Y-65073748D01*
X169418486Y-65073748D01*
X169425636Y-65074161D01*
G37*
%TD.AperFunction*%
%TA.AperFunction,Conductor*%
G36*
X178753791Y-56993933D02*
G01*
X178799546Y-57046737D01*
X178810752Y-57098247D01*
X178810752Y-57098248D01*
X178810752Y-58521652D01*
X178810753Y-58521661D01*
X178817733Y-58586587D01*
X178817735Y-58586599D01*
X178828940Y-58638105D01*
X178839896Y-58676306D01*
X178839898Y-58676310D01*
X178896577Y-58773223D01*
X178932157Y-58814285D01*
X178942333Y-58826028D01*
X178942343Y-58826039D01*
X178987059Y-58868200D01*
X178987061Y-58868201D01*
X178987065Y-58868205D01*
X179087141Y-58919091D01*
X179154180Y-58938776D01*
X179186441Y-58943414D01*
X179249996Y-58972440D01*
X179287769Y-59031218D01*
X179287769Y-59101088D01*
X179249994Y-59159866D01*
X179186438Y-59188890D01*
X179168792Y-59190152D01*
X177490252Y-59190152D01*
X177490243Y-59190152D01*
X177490242Y-59190153D01*
X177425316Y-59197133D01*
X177425304Y-59197135D01*
X177373798Y-59208340D01*
X177335597Y-59219296D01*
X177335593Y-59219298D01*
X177238683Y-59275975D01*
X177238680Y-59275977D01*
X177185875Y-59321733D01*
X177185864Y-59321743D01*
X177143703Y-59366459D01*
X177143697Y-59366468D01*
X177092812Y-59466542D01*
X177073129Y-59533573D01*
X177073127Y-59533580D01*
X177073128Y-59533580D01*
X177061638Y-59613495D01*
X177060752Y-59619654D01*
X177060752Y-60229530D01*
X177067107Y-60291510D01*
X177067108Y-60291516D01*
X177077317Y-60340781D01*
X177077318Y-60340788D01*
X177077320Y-60340793D01*
X177084223Y-60366278D01*
X177086925Y-60376252D01*
X177086926Y-60376256D01*
X177125477Y-60445260D01*
X177141683Y-60474268D01*
X177186388Y-60527964D01*
X177186389Y-60527965D01*
X177188404Y-60529782D01*
X177188881Y-60530558D01*
X177189457Y-60531157D01*
X177189326Y-60531282D01*
X177225013Y-60589293D01*
X177223635Y-60659149D01*
X177184710Y-60717171D01*
X177120594Y-60744938D01*
X177118625Y-60745165D01*
X177100316Y-60747133D01*
X177100304Y-60747135D01*
X177048798Y-60758340D01*
X177010597Y-60769296D01*
X177010593Y-60769298D01*
X176913683Y-60825975D01*
X176913680Y-60825977D01*
X176860875Y-60871733D01*
X176860864Y-60871743D01*
X176818703Y-60916459D01*
X176818697Y-60916468D01*
X176767812Y-61016542D01*
X176748129Y-61083573D01*
X176735752Y-61169654D01*
X176735752Y-63480876D01*
X176716067Y-63547915D01*
X176663263Y-63593670D01*
X176649092Y-63599120D01*
X176537416Y-63634386D01*
X176500058Y-63640142D01*
X172200734Y-63639518D01*
X172133697Y-63619824D01*
X172087950Y-63567013D01*
X172076752Y-63515518D01*
X172076752Y-61197747D01*
X172076751Y-61197733D01*
X172069770Y-61132807D01*
X172069768Y-61132798D01*
X172065445Y-61112928D01*
X172058564Y-61081295D01*
X172058563Y-61081290D01*
X172058563Y-61081289D01*
X172047608Y-61043095D01*
X172047605Y-61043088D01*
X171990928Y-60946179D01*
X171990926Y-60946176D01*
X171990614Y-60945816D01*
X171945172Y-60893373D01*
X171945170Y-60893371D01*
X171945160Y-60893360D01*
X171900444Y-60851199D01*
X171900441Y-60851197D01*
X171900439Y-60851195D01*
X171800363Y-60800309D01*
X171800362Y-60800308D01*
X171800361Y-60800308D01*
X171733330Y-60780625D01*
X171733324Y-60780624D01*
X171647252Y-60768248D01*
X171647249Y-60768248D01*
X170745752Y-60768248D01*
X170678713Y-60748563D01*
X170632958Y-60695759D01*
X170621752Y-60644248D01*
X170621752Y-58698748D01*
X173090593Y-58698748D01*
X173111188Y-58934151D01*
X173111190Y-58934161D01*
X173172346Y-59162403D01*
X173172348Y-59162407D01*
X173172349Y-59162411D01*
X173214512Y-59252829D01*
X173272216Y-59376576D01*
X173272217Y-59376578D01*
X173407757Y-59570150D01*
X173574849Y-59737242D01*
X173768421Y-59872782D01*
X173768423Y-59872783D01*
X173982589Y-59972651D01*
X174210844Y-60033811D01*
X174387284Y-60049247D01*
X174387285Y-60049248D01*
X174387286Y-60049248D01*
X174505219Y-60049248D01*
X174505219Y-60049247D01*
X174681660Y-60033811D01*
X174909915Y-59972651D01*
X175124081Y-59872783D01*
X175317653Y-59737243D01*
X175484747Y-59570149D01*
X175620287Y-59376578D01*
X175720155Y-59162411D01*
X175781315Y-58934156D01*
X175801911Y-58698748D01*
X175781315Y-58463340D01*
X175720155Y-58235085D01*
X175620287Y-58020919D01*
X175620286Y-58020917D01*
X175484746Y-57827345D01*
X175317654Y-57660253D01*
X175124082Y-57524713D01*
X175124080Y-57524712D01*
X175009413Y-57471242D01*
X174909915Y-57424845D01*
X174909911Y-57424844D01*
X174909907Y-57424842D01*
X174681665Y-57363686D01*
X174681655Y-57363684D01*
X174505219Y-57348248D01*
X174505218Y-57348248D01*
X174387286Y-57348248D01*
X174387285Y-57348248D01*
X174210848Y-57363684D01*
X174210838Y-57363686D01*
X173982596Y-57424842D01*
X173982587Y-57424846D01*
X173768423Y-57524712D01*
X173768421Y-57524713D01*
X173574849Y-57660253D01*
X173407758Y-57827345D01*
X173407753Y-57827352D01*
X173272219Y-58020913D01*
X173272217Y-58020917D01*
X173172350Y-58235083D01*
X173172346Y-58235092D01*
X173111190Y-58463334D01*
X173111188Y-58463344D01*
X173090593Y-58698747D01*
X173090593Y-58698748D01*
X170621752Y-58698748D01*
X170621752Y-58659923D01*
X170641437Y-58592884D01*
X170672866Y-58559605D01*
X170697692Y-58541569D01*
X170827870Y-58396992D01*
X170925144Y-58228508D01*
X170985262Y-58043482D01*
X171005598Y-57850000D01*
X170985262Y-57656518D01*
X170925144Y-57471492D01*
X170925143Y-57471491D01*
X170925143Y-57471489D01*
X170925142Y-57471488D01*
X170853414Y-57347252D01*
X170827870Y-57303008D01*
X170757181Y-57224500D01*
X170718212Y-57181220D01*
X170687982Y-57118228D01*
X170696607Y-57048893D01*
X170741349Y-56995228D01*
X170808001Y-56974270D01*
X170810362Y-56974248D01*
X178686752Y-56974248D01*
X178753791Y-56993933D01*
G37*
%TD.AperFunction*%
%TD*%
M02*
