%TF.GenerationSoftware,KiCad,Pcbnew,7.0.5*%
%TF.CreationDate,2023-08-01T01:52:26-05:00*%
%TF.ProjectId,psxpress-pms,70737870-7265-4737-932d-706d732e6b69,rev?*%
%TF.SameCoordinates,Original*%
%TF.FileFunction,Legend,Top*%
%TF.FilePolarity,Positive*%
%FSLAX46Y46*%
G04 Gerber Fmt 4.6, Leading zero omitted, Abs format (unit mm)*
G04 Created by KiCad (PCBNEW 7.0.5) date 2023-08-01 01:52:26*
%MOMM*%
%LPD*%
G01*
G04 APERTURE LIST*
%ADD10C,0.150000*%
%ADD11C,0.125000*%
%ADD12C,0.120000*%
%ADD13C,0.250000*%
%ADD14C,0.127000*%
%ADD15C,0.200000*%
G04 APERTURE END LIST*
D10*
X170825000Y-65825000D02*
X170825000Y-65475000D01*
X170400000Y-65825000D02*
X170825000Y-65825000D01*
X170400000Y-65825000D02*
X170550000Y-65975000D01*
X170400000Y-65825000D02*
X170550000Y-65675000D01*
X166500000Y-65475000D02*
X166500000Y-65225000D01*
X166500000Y-65475000D02*
X166200000Y-65175000D01*
X166500000Y-65475000D02*
X166250000Y-65475000D01*
X171150000Y-78825000D02*
X174425000Y-78825000D01*
X174425000Y-80400000D01*
X171150000Y-80400000D01*
X171150000Y-78825000D01*
X177272154Y-71708748D02*
G75*
G03*
X177272154Y-71708748I-55902J0D01*
G01*
X179147154Y-61082847D02*
G75*
G03*
X179147154Y-61082847I-55902J0D01*
G01*
D11*
X171150093Y-78591000D02*
X171257236Y-78626714D01*
X171257236Y-78626714D02*
X171435807Y-78626714D01*
X171435807Y-78626714D02*
X171507236Y-78591000D01*
X171507236Y-78591000D02*
X171542950Y-78555285D01*
X171542950Y-78555285D02*
X171578664Y-78483857D01*
X171578664Y-78483857D02*
X171578664Y-78412428D01*
X171578664Y-78412428D02*
X171542950Y-78341000D01*
X171542950Y-78341000D02*
X171507236Y-78305285D01*
X171507236Y-78305285D02*
X171435807Y-78269571D01*
X171435807Y-78269571D02*
X171292950Y-78233857D01*
X171292950Y-78233857D02*
X171221521Y-78198142D01*
X171221521Y-78198142D02*
X171185807Y-78162428D01*
X171185807Y-78162428D02*
X171150093Y-78091000D01*
X171150093Y-78091000D02*
X171150093Y-78019571D01*
X171150093Y-78019571D02*
X171185807Y-77948142D01*
X171185807Y-77948142D02*
X171221521Y-77912428D01*
X171221521Y-77912428D02*
X171292950Y-77876714D01*
X171292950Y-77876714D02*
X171471521Y-77876714D01*
X171471521Y-77876714D02*
X171578664Y-77912428D01*
X171828664Y-77876714D02*
X172007236Y-78626714D01*
X172007236Y-78626714D02*
X172150093Y-78091000D01*
X172150093Y-78091000D02*
X172292950Y-78626714D01*
X172292950Y-78626714D02*
X172471522Y-77876714D01*
X171642950Y-57951714D02*
X171285807Y-57951714D01*
X171285807Y-57951714D02*
X171285807Y-57201714D01*
X171892950Y-57666000D02*
X172464379Y-57666000D01*
X172178664Y-57951714D02*
X172178664Y-57380285D01*
X159648285Y-69585807D02*
X160398285Y-69585807D01*
X160398285Y-69585807D02*
X160398285Y-69871521D01*
X160398285Y-69871521D02*
X160362571Y-69942950D01*
X160362571Y-69942950D02*
X160326857Y-69978664D01*
X160326857Y-69978664D02*
X160255428Y-70014378D01*
X160255428Y-70014378D02*
X160148285Y-70014378D01*
X160148285Y-70014378D02*
X160076857Y-69978664D01*
X160076857Y-69978664D02*
X160041142Y-69942950D01*
X160041142Y-69942950D02*
X160005428Y-69871521D01*
X160005428Y-69871521D02*
X160005428Y-69585807D01*
X160398285Y-70264378D02*
X159648285Y-70442950D01*
X159648285Y-70442950D02*
X160184000Y-70585807D01*
X160184000Y-70585807D02*
X159648285Y-70728664D01*
X159648285Y-70728664D02*
X160398285Y-70907236D01*
X159648285Y-71621521D02*
X160005428Y-71371521D01*
X159648285Y-71192950D02*
X160398285Y-71192950D01*
X160398285Y-71192950D02*
X160398285Y-71478664D01*
X160398285Y-71478664D02*
X160362571Y-71550093D01*
X160362571Y-71550093D02*
X160326857Y-71585807D01*
X160326857Y-71585807D02*
X160255428Y-71621521D01*
X160255428Y-71621521D02*
X160148285Y-71621521D01*
X160148285Y-71621521D02*
X160076857Y-71585807D01*
X160076857Y-71585807D02*
X160041142Y-71550093D01*
X160041142Y-71550093D02*
X160005428Y-71478664D01*
X160005428Y-71478664D02*
X160005428Y-71192950D01*
X184789537Y-58417950D02*
X184789537Y-58060807D01*
X184789537Y-58060807D02*
X184432394Y-58025093D01*
X184432394Y-58025093D02*
X184468109Y-58060807D01*
X184468109Y-58060807D02*
X184503823Y-58132236D01*
X184503823Y-58132236D02*
X184503823Y-58310807D01*
X184503823Y-58310807D02*
X184468109Y-58382236D01*
X184468109Y-58382236D02*
X184432394Y-58417950D01*
X184432394Y-58417950D02*
X184360966Y-58453664D01*
X184360966Y-58453664D02*
X184182394Y-58453664D01*
X184182394Y-58453664D02*
X184110966Y-58417950D01*
X184110966Y-58417950D02*
X184075252Y-58382236D01*
X184075252Y-58382236D02*
X184039537Y-58310807D01*
X184039537Y-58310807D02*
X184039537Y-58132236D01*
X184039537Y-58132236D02*
X184075252Y-58060807D01*
X184075252Y-58060807D02*
X184110966Y-58025093D01*
X184789537Y-58667950D02*
X184039537Y-58917950D01*
X184039537Y-58917950D02*
X184789537Y-59167950D01*
X166367950Y-57951714D02*
X166010807Y-57951714D01*
X166010807Y-57951714D02*
X166010807Y-57201714D01*
X166617950Y-57666000D02*
X167189379Y-57666000D01*
X184728823Y-70177412D02*
X184764537Y-70105984D01*
X184764537Y-70105984D02*
X184764537Y-69998841D01*
X184764537Y-69998841D02*
X184728823Y-69891698D01*
X184728823Y-69891698D02*
X184657394Y-69820269D01*
X184657394Y-69820269D02*
X184585966Y-69784555D01*
X184585966Y-69784555D02*
X184443109Y-69748841D01*
X184443109Y-69748841D02*
X184335966Y-69748841D01*
X184335966Y-69748841D02*
X184193109Y-69784555D01*
X184193109Y-69784555D02*
X184121680Y-69820269D01*
X184121680Y-69820269D02*
X184050252Y-69891698D01*
X184050252Y-69891698D02*
X184014537Y-69998841D01*
X184014537Y-69998841D02*
X184014537Y-70070269D01*
X184014537Y-70070269D02*
X184050252Y-70177412D01*
X184050252Y-70177412D02*
X184085966Y-70213126D01*
X184085966Y-70213126D02*
X184335966Y-70213126D01*
X184335966Y-70213126D02*
X184335966Y-70070269D01*
X184014537Y-70534555D02*
X184764537Y-70534555D01*
X184764537Y-70534555D02*
X184014537Y-70963126D01*
X184014537Y-70963126D02*
X184764537Y-70963126D01*
X184014537Y-71320269D02*
X184764537Y-71320269D01*
X184764537Y-71320269D02*
X184764537Y-71498840D01*
X184764537Y-71498840D02*
X184728823Y-71605983D01*
X184728823Y-71605983D02*
X184657394Y-71677412D01*
X184657394Y-71677412D02*
X184585966Y-71713126D01*
X184585966Y-71713126D02*
X184443109Y-71748840D01*
X184443109Y-71748840D02*
X184335966Y-71748840D01*
X184335966Y-71748840D02*
X184193109Y-71713126D01*
X184193109Y-71713126D02*
X184121680Y-71677412D01*
X184121680Y-71677412D02*
X184050252Y-71605983D01*
X184050252Y-71605983D02*
X184014537Y-71498840D01*
X184014537Y-71498840D02*
X184014537Y-71320269D01*
X160387571Y-72978664D02*
X160423285Y-72907236D01*
X160423285Y-72907236D02*
X160423285Y-72800093D01*
X160423285Y-72800093D02*
X160387571Y-72692950D01*
X160387571Y-72692950D02*
X160316142Y-72621521D01*
X160316142Y-72621521D02*
X160244714Y-72585807D01*
X160244714Y-72585807D02*
X160101857Y-72550093D01*
X160101857Y-72550093D02*
X159994714Y-72550093D01*
X159994714Y-72550093D02*
X159851857Y-72585807D01*
X159851857Y-72585807D02*
X159780428Y-72621521D01*
X159780428Y-72621521D02*
X159709000Y-72692950D01*
X159709000Y-72692950D02*
X159673285Y-72800093D01*
X159673285Y-72800093D02*
X159673285Y-72871521D01*
X159673285Y-72871521D02*
X159709000Y-72978664D01*
X159709000Y-72978664D02*
X159744714Y-73014378D01*
X159744714Y-73014378D02*
X159994714Y-73014378D01*
X159994714Y-73014378D02*
X159994714Y-72871521D01*
X159673285Y-73335807D02*
X160423285Y-73335807D01*
X160423285Y-73335807D02*
X159673285Y-73764378D01*
X159673285Y-73764378D02*
X160423285Y-73764378D01*
X159673285Y-74121521D02*
X160423285Y-74121521D01*
X160423285Y-74121521D02*
X160423285Y-74300092D01*
X160423285Y-74300092D02*
X160387571Y-74407235D01*
X160387571Y-74407235D02*
X160316142Y-74478664D01*
X160316142Y-74478664D02*
X160244714Y-74514378D01*
X160244714Y-74514378D02*
X160101857Y-74550092D01*
X160101857Y-74550092D02*
X159994714Y-74550092D01*
X159994714Y-74550092D02*
X159851857Y-74514378D01*
X159851857Y-74514378D02*
X159780428Y-74478664D01*
X159780428Y-74478664D02*
X159709000Y-74407235D01*
X159709000Y-74407235D02*
X159673285Y-74300092D01*
X159673285Y-74300092D02*
X159673285Y-74121521D01*
X184789537Y-78089378D02*
X184789537Y-78553664D01*
X184789537Y-78553664D02*
X184503823Y-78303664D01*
X184503823Y-78303664D02*
X184503823Y-78410807D01*
X184503823Y-78410807D02*
X184468109Y-78482236D01*
X184468109Y-78482236D02*
X184432394Y-78517950D01*
X184432394Y-78517950D02*
X184360966Y-78553664D01*
X184360966Y-78553664D02*
X184182394Y-78553664D01*
X184182394Y-78553664D02*
X184110966Y-78517950D01*
X184110966Y-78517950D02*
X184075252Y-78482236D01*
X184075252Y-78482236D02*
X184039537Y-78410807D01*
X184039537Y-78410807D02*
X184039537Y-78196521D01*
X184039537Y-78196521D02*
X184075252Y-78125093D01*
X184075252Y-78125093D02*
X184110966Y-78089378D01*
X184789537Y-78767950D02*
X184039537Y-79017950D01*
X184039537Y-79017950D02*
X184789537Y-79267950D01*
X184789537Y-79875093D02*
X184789537Y-79517950D01*
X184789537Y-79517950D02*
X184432394Y-79482236D01*
X184432394Y-79482236D02*
X184468109Y-79517950D01*
X184468109Y-79517950D02*
X184503823Y-79589379D01*
X184503823Y-79589379D02*
X184503823Y-79767950D01*
X184503823Y-79767950D02*
X184468109Y-79839379D01*
X184468109Y-79839379D02*
X184432394Y-79875093D01*
X184432394Y-79875093D02*
X184360966Y-79910807D01*
X184360966Y-79910807D02*
X184182394Y-79910807D01*
X184182394Y-79910807D02*
X184110966Y-79875093D01*
X184110966Y-79875093D02*
X184075252Y-79839379D01*
X184075252Y-79839379D02*
X184039537Y-79767950D01*
X184039537Y-79767950D02*
X184039537Y-79589379D01*
X184039537Y-79589379D02*
X184075252Y-79517950D01*
X184075252Y-79517950D02*
X184110966Y-79482236D01*
X184753823Y-65152412D02*
X184789537Y-65080984D01*
X184789537Y-65080984D02*
X184789537Y-64973841D01*
X184789537Y-64973841D02*
X184753823Y-64866698D01*
X184753823Y-64866698D02*
X184682394Y-64795269D01*
X184682394Y-64795269D02*
X184610966Y-64759555D01*
X184610966Y-64759555D02*
X184468109Y-64723841D01*
X184468109Y-64723841D02*
X184360966Y-64723841D01*
X184360966Y-64723841D02*
X184218109Y-64759555D01*
X184218109Y-64759555D02*
X184146680Y-64795269D01*
X184146680Y-64795269D02*
X184075252Y-64866698D01*
X184075252Y-64866698D02*
X184039537Y-64973841D01*
X184039537Y-64973841D02*
X184039537Y-65045269D01*
X184039537Y-65045269D02*
X184075252Y-65152412D01*
X184075252Y-65152412D02*
X184110966Y-65188126D01*
X184110966Y-65188126D02*
X184360966Y-65188126D01*
X184360966Y-65188126D02*
X184360966Y-65045269D01*
X184039537Y-65509555D02*
X184789537Y-65509555D01*
X184789537Y-65509555D02*
X184039537Y-65938126D01*
X184039537Y-65938126D02*
X184789537Y-65938126D01*
X184039537Y-66295269D02*
X184789537Y-66295269D01*
X184789537Y-66295269D02*
X184789537Y-66473840D01*
X184789537Y-66473840D02*
X184753823Y-66580983D01*
X184753823Y-66580983D02*
X184682394Y-66652412D01*
X184682394Y-66652412D02*
X184610966Y-66688126D01*
X184610966Y-66688126D02*
X184468109Y-66723840D01*
X184468109Y-66723840D02*
X184360966Y-66723840D01*
X184360966Y-66723840D02*
X184218109Y-66688126D01*
X184218109Y-66688126D02*
X184146680Y-66652412D01*
X184146680Y-66652412D02*
X184075252Y-66580983D01*
X184075252Y-66580983D02*
X184039537Y-66473840D01*
X184039537Y-66473840D02*
X184039537Y-66295269D01*
X167406598Y-78108857D02*
X167513741Y-78144571D01*
X167513741Y-78144571D02*
X167549455Y-78180285D01*
X167549455Y-78180285D02*
X167585169Y-78251714D01*
X167585169Y-78251714D02*
X167585169Y-78358857D01*
X167585169Y-78358857D02*
X167549455Y-78430285D01*
X167549455Y-78430285D02*
X167513741Y-78466000D01*
X167513741Y-78466000D02*
X167442312Y-78501714D01*
X167442312Y-78501714D02*
X167156598Y-78501714D01*
X167156598Y-78501714D02*
X167156598Y-77751714D01*
X167156598Y-77751714D02*
X167406598Y-77751714D01*
X167406598Y-77751714D02*
X167478027Y-77787428D01*
X167478027Y-77787428D02*
X167513741Y-77823142D01*
X167513741Y-77823142D02*
X167549455Y-77894571D01*
X167549455Y-77894571D02*
X167549455Y-77966000D01*
X167549455Y-77966000D02*
X167513741Y-78037428D01*
X167513741Y-78037428D02*
X167478027Y-78073142D01*
X167478027Y-78073142D02*
X167406598Y-78108857D01*
X167406598Y-78108857D02*
X167156598Y-78108857D01*
X167906598Y-78216000D02*
X168478027Y-78216000D01*
X168192312Y-78501714D02*
X168192312Y-77930285D01*
%TO.C,R2*%
X163624809Y-73983333D02*
X163386714Y-74149999D01*
X163624809Y-74269047D02*
X163124809Y-74269047D01*
X163124809Y-74269047D02*
X163124809Y-74078571D01*
X163124809Y-74078571D02*
X163148619Y-74030952D01*
X163148619Y-74030952D02*
X163172428Y-74007142D01*
X163172428Y-74007142D02*
X163220047Y-73983333D01*
X163220047Y-73983333D02*
X163291476Y-73983333D01*
X163291476Y-73983333D02*
X163339095Y-74007142D01*
X163339095Y-74007142D02*
X163362904Y-74030952D01*
X163362904Y-74030952D02*
X163386714Y-74078571D01*
X163386714Y-74078571D02*
X163386714Y-74269047D01*
X163172428Y-73792856D02*
X163148619Y-73769047D01*
X163148619Y-73769047D02*
X163124809Y-73721428D01*
X163124809Y-73721428D02*
X163124809Y-73602380D01*
X163124809Y-73602380D02*
X163148619Y-73554761D01*
X163148619Y-73554761D02*
X163172428Y-73530952D01*
X163172428Y-73530952D02*
X163220047Y-73507142D01*
X163220047Y-73507142D02*
X163267666Y-73507142D01*
X163267666Y-73507142D02*
X163339095Y-73530952D01*
X163339095Y-73530952D02*
X163624809Y-73816666D01*
X163624809Y-73816666D02*
X163624809Y-73507142D01*
%TO.C,C11*%
X185219823Y-64122842D02*
X185196014Y-64146652D01*
X185196014Y-64146652D02*
X185124585Y-64170461D01*
X185124585Y-64170461D02*
X185076966Y-64170461D01*
X185076966Y-64170461D02*
X185005538Y-64146652D01*
X185005538Y-64146652D02*
X184957919Y-64099032D01*
X184957919Y-64099032D02*
X184934109Y-64051413D01*
X184934109Y-64051413D02*
X184910300Y-63956175D01*
X184910300Y-63956175D02*
X184910300Y-63884747D01*
X184910300Y-63884747D02*
X184934109Y-63789509D01*
X184934109Y-63789509D02*
X184957919Y-63741890D01*
X184957919Y-63741890D02*
X185005538Y-63694271D01*
X185005538Y-63694271D02*
X185076966Y-63670461D01*
X185076966Y-63670461D02*
X185124585Y-63670461D01*
X185124585Y-63670461D02*
X185196014Y-63694271D01*
X185196014Y-63694271D02*
X185219823Y-63718080D01*
X185696014Y-64170461D02*
X185410300Y-64170461D01*
X185553157Y-64170461D02*
X185553157Y-63670461D01*
X185553157Y-63670461D02*
X185505538Y-63741890D01*
X185505538Y-63741890D02*
X185457919Y-63789509D01*
X185457919Y-63789509D02*
X185410300Y-63813318D01*
X186172204Y-64170461D02*
X185886490Y-64170461D01*
X186029347Y-64170461D02*
X186029347Y-63670461D01*
X186029347Y-63670461D02*
X185981728Y-63741890D01*
X185981728Y-63741890D02*
X185934109Y-63789509D01*
X185934109Y-63789509D02*
X185886490Y-63813318D01*
%TO.C,IC1*%
X163283157Y-65224809D02*
X163283157Y-64724809D01*
X163806966Y-65177190D02*
X163783157Y-65201000D01*
X163783157Y-65201000D02*
X163711728Y-65224809D01*
X163711728Y-65224809D02*
X163664109Y-65224809D01*
X163664109Y-65224809D02*
X163592681Y-65201000D01*
X163592681Y-65201000D02*
X163545062Y-65153380D01*
X163545062Y-65153380D02*
X163521252Y-65105761D01*
X163521252Y-65105761D02*
X163497443Y-65010523D01*
X163497443Y-65010523D02*
X163497443Y-64939095D01*
X163497443Y-64939095D02*
X163521252Y-64843857D01*
X163521252Y-64843857D02*
X163545062Y-64796238D01*
X163545062Y-64796238D02*
X163592681Y-64748619D01*
X163592681Y-64748619D02*
X163664109Y-64724809D01*
X163664109Y-64724809D02*
X163711728Y-64724809D01*
X163711728Y-64724809D02*
X163783157Y-64748619D01*
X163783157Y-64748619D02*
X163806966Y-64772428D01*
X164283157Y-65224809D02*
X163997443Y-65224809D01*
X164140300Y-65224809D02*
X164140300Y-64724809D01*
X164140300Y-64724809D02*
X164092681Y-64796238D01*
X164092681Y-64796238D02*
X164045062Y-64843857D01*
X164045062Y-64843857D02*
X163997443Y-64867666D01*
%TO.C,C1*%
X159766666Y-68627190D02*
X159742857Y-68651000D01*
X159742857Y-68651000D02*
X159671428Y-68674809D01*
X159671428Y-68674809D02*
X159623809Y-68674809D01*
X159623809Y-68674809D02*
X159552381Y-68651000D01*
X159552381Y-68651000D02*
X159504762Y-68603380D01*
X159504762Y-68603380D02*
X159480952Y-68555761D01*
X159480952Y-68555761D02*
X159457143Y-68460523D01*
X159457143Y-68460523D02*
X159457143Y-68389095D01*
X159457143Y-68389095D02*
X159480952Y-68293857D01*
X159480952Y-68293857D02*
X159504762Y-68246238D01*
X159504762Y-68246238D02*
X159552381Y-68198619D01*
X159552381Y-68198619D02*
X159623809Y-68174809D01*
X159623809Y-68174809D02*
X159671428Y-68174809D01*
X159671428Y-68174809D02*
X159742857Y-68198619D01*
X159742857Y-68198619D02*
X159766666Y-68222428D01*
X160242857Y-68674809D02*
X159957143Y-68674809D01*
X160100000Y-68674809D02*
X160100000Y-68174809D01*
X160100000Y-68174809D02*
X160052381Y-68246238D01*
X160052381Y-68246238D02*
X160004762Y-68293857D01*
X160004762Y-68293857D02*
X159957143Y-68317666D01*
%TO.C,R4*%
X159116666Y-61049809D02*
X158950000Y-60811714D01*
X158830952Y-61049809D02*
X158830952Y-60549809D01*
X158830952Y-60549809D02*
X159021428Y-60549809D01*
X159021428Y-60549809D02*
X159069047Y-60573619D01*
X159069047Y-60573619D02*
X159092857Y-60597428D01*
X159092857Y-60597428D02*
X159116666Y-60645047D01*
X159116666Y-60645047D02*
X159116666Y-60716476D01*
X159116666Y-60716476D02*
X159092857Y-60764095D01*
X159092857Y-60764095D02*
X159069047Y-60787904D01*
X159069047Y-60787904D02*
X159021428Y-60811714D01*
X159021428Y-60811714D02*
X158830952Y-60811714D01*
X159545238Y-60716476D02*
X159545238Y-61049809D01*
X159426190Y-60526000D02*
X159307143Y-60883142D01*
X159307143Y-60883142D02*
X159616666Y-60883142D01*
%TO.C,Q1*%
X172877380Y-65238680D02*
X172829761Y-65214871D01*
X172829761Y-65214871D02*
X172782142Y-65167252D01*
X172782142Y-65167252D02*
X172710714Y-65095823D01*
X172710714Y-65095823D02*
X172663095Y-65072013D01*
X172663095Y-65072013D02*
X172615476Y-65072013D01*
X172639285Y-65191061D02*
X172591666Y-65167252D01*
X172591666Y-65167252D02*
X172544047Y-65119632D01*
X172544047Y-65119632D02*
X172520238Y-65024394D01*
X172520238Y-65024394D02*
X172520238Y-64857728D01*
X172520238Y-64857728D02*
X172544047Y-64762490D01*
X172544047Y-64762490D02*
X172591666Y-64714871D01*
X172591666Y-64714871D02*
X172639285Y-64691061D01*
X172639285Y-64691061D02*
X172734523Y-64691061D01*
X172734523Y-64691061D02*
X172782142Y-64714871D01*
X172782142Y-64714871D02*
X172829761Y-64762490D01*
X172829761Y-64762490D02*
X172853571Y-64857728D01*
X172853571Y-64857728D02*
X172853571Y-65024394D01*
X172853571Y-65024394D02*
X172829761Y-65119632D01*
X172829761Y-65119632D02*
X172782142Y-65167252D01*
X172782142Y-65167252D02*
X172734523Y-65191061D01*
X172734523Y-65191061D02*
X172639285Y-65191061D01*
X173329762Y-65191061D02*
X173044048Y-65191061D01*
X173186905Y-65191061D02*
X173186905Y-64691061D01*
X173186905Y-64691061D02*
X173139286Y-64762490D01*
X173139286Y-64762490D02*
X173091667Y-64810109D01*
X173091667Y-64810109D02*
X173044048Y-64833918D01*
%TO.C,R3*%
X160591666Y-61074809D02*
X160425000Y-60836714D01*
X160305952Y-61074809D02*
X160305952Y-60574809D01*
X160305952Y-60574809D02*
X160496428Y-60574809D01*
X160496428Y-60574809D02*
X160544047Y-60598619D01*
X160544047Y-60598619D02*
X160567857Y-60622428D01*
X160567857Y-60622428D02*
X160591666Y-60670047D01*
X160591666Y-60670047D02*
X160591666Y-60741476D01*
X160591666Y-60741476D02*
X160567857Y-60789095D01*
X160567857Y-60789095D02*
X160544047Y-60812904D01*
X160544047Y-60812904D02*
X160496428Y-60836714D01*
X160496428Y-60836714D02*
X160305952Y-60836714D01*
X160758333Y-60574809D02*
X161067857Y-60574809D01*
X161067857Y-60574809D02*
X160901190Y-60765285D01*
X160901190Y-60765285D02*
X160972619Y-60765285D01*
X160972619Y-60765285D02*
X161020238Y-60789095D01*
X161020238Y-60789095D02*
X161044047Y-60812904D01*
X161044047Y-60812904D02*
X161067857Y-60860523D01*
X161067857Y-60860523D02*
X161067857Y-60979571D01*
X161067857Y-60979571D02*
X161044047Y-61027190D01*
X161044047Y-61027190D02*
X161020238Y-61051000D01*
X161020238Y-61051000D02*
X160972619Y-61074809D01*
X160972619Y-61074809D02*
X160829762Y-61074809D01*
X160829762Y-61074809D02*
X160782143Y-61051000D01*
X160782143Y-61051000D02*
X160758333Y-61027190D01*
%TO.C,C13*%
X180727190Y-75271428D02*
X180751000Y-75295237D01*
X180751000Y-75295237D02*
X180774809Y-75366666D01*
X180774809Y-75366666D02*
X180774809Y-75414285D01*
X180774809Y-75414285D02*
X180751000Y-75485713D01*
X180751000Y-75485713D02*
X180703380Y-75533332D01*
X180703380Y-75533332D02*
X180655761Y-75557142D01*
X180655761Y-75557142D02*
X180560523Y-75580951D01*
X180560523Y-75580951D02*
X180489095Y-75580951D01*
X180489095Y-75580951D02*
X180393857Y-75557142D01*
X180393857Y-75557142D02*
X180346238Y-75533332D01*
X180346238Y-75533332D02*
X180298619Y-75485713D01*
X180298619Y-75485713D02*
X180274809Y-75414285D01*
X180274809Y-75414285D02*
X180274809Y-75366666D01*
X180274809Y-75366666D02*
X180298619Y-75295237D01*
X180298619Y-75295237D02*
X180322428Y-75271428D01*
X180774809Y-74795237D02*
X180774809Y-75080951D01*
X180774809Y-74938094D02*
X180274809Y-74938094D01*
X180274809Y-74938094D02*
X180346238Y-74985713D01*
X180346238Y-74985713D02*
X180393857Y-75033332D01*
X180393857Y-75033332D02*
X180417666Y-75080951D01*
X180274809Y-74628571D02*
X180274809Y-74319047D01*
X180274809Y-74319047D02*
X180465285Y-74485714D01*
X180465285Y-74485714D02*
X180465285Y-74414285D01*
X180465285Y-74414285D02*
X180489095Y-74366666D01*
X180489095Y-74366666D02*
X180512904Y-74342857D01*
X180512904Y-74342857D02*
X180560523Y-74319047D01*
X180560523Y-74319047D02*
X180679571Y-74319047D01*
X180679571Y-74319047D02*
X180727190Y-74342857D01*
X180727190Y-74342857D02*
X180751000Y-74366666D01*
X180751000Y-74366666D02*
X180774809Y-74414285D01*
X180774809Y-74414285D02*
X180774809Y-74557142D01*
X180774809Y-74557142D02*
X180751000Y-74604761D01*
X180751000Y-74604761D02*
X180727190Y-74628571D01*
%TO.C,R10*%
X180244823Y-70773557D02*
X180078157Y-70535462D01*
X179959109Y-70773557D02*
X179959109Y-70273557D01*
X179959109Y-70273557D02*
X180149585Y-70273557D01*
X180149585Y-70273557D02*
X180197204Y-70297367D01*
X180197204Y-70297367D02*
X180221014Y-70321176D01*
X180221014Y-70321176D02*
X180244823Y-70368795D01*
X180244823Y-70368795D02*
X180244823Y-70440224D01*
X180244823Y-70440224D02*
X180221014Y-70487843D01*
X180221014Y-70487843D02*
X180197204Y-70511652D01*
X180197204Y-70511652D02*
X180149585Y-70535462D01*
X180149585Y-70535462D02*
X179959109Y-70535462D01*
X180721014Y-70773557D02*
X180435300Y-70773557D01*
X180578157Y-70773557D02*
X180578157Y-70273557D01*
X180578157Y-70273557D02*
X180530538Y-70344986D01*
X180530538Y-70344986D02*
X180482919Y-70392605D01*
X180482919Y-70392605D02*
X180435300Y-70416414D01*
X181030537Y-70273557D02*
X181078156Y-70273557D01*
X181078156Y-70273557D02*
X181125775Y-70297367D01*
X181125775Y-70297367D02*
X181149585Y-70321176D01*
X181149585Y-70321176D02*
X181173394Y-70368795D01*
X181173394Y-70368795D02*
X181197204Y-70464033D01*
X181197204Y-70464033D02*
X181197204Y-70583081D01*
X181197204Y-70583081D02*
X181173394Y-70678319D01*
X181173394Y-70678319D02*
X181149585Y-70725938D01*
X181149585Y-70725938D02*
X181125775Y-70749748D01*
X181125775Y-70749748D02*
X181078156Y-70773557D01*
X181078156Y-70773557D02*
X181030537Y-70773557D01*
X181030537Y-70773557D02*
X180982918Y-70749748D01*
X180982918Y-70749748D02*
X180959109Y-70725938D01*
X180959109Y-70725938D02*
X180935299Y-70678319D01*
X180935299Y-70678319D02*
X180911490Y-70583081D01*
X180911490Y-70583081D02*
X180911490Y-70464033D01*
X180911490Y-70464033D02*
X180935299Y-70368795D01*
X180935299Y-70368795D02*
X180959109Y-70321176D01*
X180959109Y-70321176D02*
X180982918Y-70297367D01*
X180982918Y-70297367D02*
X181030537Y-70273557D01*
%TO.C,L1*%
X171191666Y-63149809D02*
X170953571Y-63149809D01*
X170953571Y-63149809D02*
X170953571Y-62649809D01*
X171620238Y-63149809D02*
X171334524Y-63149809D01*
X171477381Y-63149809D02*
X171477381Y-62649809D01*
X171477381Y-62649809D02*
X171429762Y-62721238D01*
X171429762Y-62721238D02*
X171382143Y-62768857D01*
X171382143Y-62768857D02*
X171334524Y-62792666D01*
%TO.C,C4*%
X166041666Y-70577190D02*
X166017857Y-70601000D01*
X166017857Y-70601000D02*
X165946428Y-70624809D01*
X165946428Y-70624809D02*
X165898809Y-70624809D01*
X165898809Y-70624809D02*
X165827381Y-70601000D01*
X165827381Y-70601000D02*
X165779762Y-70553380D01*
X165779762Y-70553380D02*
X165755952Y-70505761D01*
X165755952Y-70505761D02*
X165732143Y-70410523D01*
X165732143Y-70410523D02*
X165732143Y-70339095D01*
X165732143Y-70339095D02*
X165755952Y-70243857D01*
X165755952Y-70243857D02*
X165779762Y-70196238D01*
X165779762Y-70196238D02*
X165827381Y-70148619D01*
X165827381Y-70148619D02*
X165898809Y-70124809D01*
X165898809Y-70124809D02*
X165946428Y-70124809D01*
X165946428Y-70124809D02*
X166017857Y-70148619D01*
X166017857Y-70148619D02*
X166041666Y-70172428D01*
X166470238Y-70291476D02*
X166470238Y-70624809D01*
X166351190Y-70101000D02*
X166232143Y-70458142D01*
X166232143Y-70458142D02*
X166541666Y-70458142D01*
%TO.C,C9*%
X175916666Y-61002190D02*
X175892857Y-61026000D01*
X175892857Y-61026000D02*
X175821428Y-61049809D01*
X175821428Y-61049809D02*
X175773809Y-61049809D01*
X175773809Y-61049809D02*
X175702381Y-61026000D01*
X175702381Y-61026000D02*
X175654762Y-60978380D01*
X175654762Y-60978380D02*
X175630952Y-60930761D01*
X175630952Y-60930761D02*
X175607143Y-60835523D01*
X175607143Y-60835523D02*
X175607143Y-60764095D01*
X175607143Y-60764095D02*
X175630952Y-60668857D01*
X175630952Y-60668857D02*
X175654762Y-60621238D01*
X175654762Y-60621238D02*
X175702381Y-60573619D01*
X175702381Y-60573619D02*
X175773809Y-60549809D01*
X175773809Y-60549809D02*
X175821428Y-60549809D01*
X175821428Y-60549809D02*
X175892857Y-60573619D01*
X175892857Y-60573619D02*
X175916666Y-60597428D01*
X176154762Y-61049809D02*
X176250000Y-61049809D01*
X176250000Y-61049809D02*
X176297619Y-61026000D01*
X176297619Y-61026000D02*
X176321428Y-61002190D01*
X176321428Y-61002190D02*
X176369047Y-60930761D01*
X176369047Y-60930761D02*
X176392857Y-60835523D01*
X176392857Y-60835523D02*
X176392857Y-60645047D01*
X176392857Y-60645047D02*
X176369047Y-60597428D01*
X176369047Y-60597428D02*
X176345238Y-60573619D01*
X176345238Y-60573619D02*
X176297619Y-60549809D01*
X176297619Y-60549809D02*
X176202381Y-60549809D01*
X176202381Y-60549809D02*
X176154762Y-60573619D01*
X176154762Y-60573619D02*
X176130952Y-60597428D01*
X176130952Y-60597428D02*
X176107143Y-60645047D01*
X176107143Y-60645047D02*
X176107143Y-60764095D01*
X176107143Y-60764095D02*
X176130952Y-60811714D01*
X176130952Y-60811714D02*
X176154762Y-60835523D01*
X176154762Y-60835523D02*
X176202381Y-60859333D01*
X176202381Y-60859333D02*
X176297619Y-60859333D01*
X176297619Y-60859333D02*
X176345238Y-60835523D01*
X176345238Y-60835523D02*
X176369047Y-60811714D01*
X176369047Y-60811714D02*
X176392857Y-60764095D01*
%TO.C,R5*%
X166716666Y-58824809D02*
X166550000Y-58586714D01*
X166430952Y-58824809D02*
X166430952Y-58324809D01*
X166430952Y-58324809D02*
X166621428Y-58324809D01*
X166621428Y-58324809D02*
X166669047Y-58348619D01*
X166669047Y-58348619D02*
X166692857Y-58372428D01*
X166692857Y-58372428D02*
X166716666Y-58420047D01*
X166716666Y-58420047D02*
X166716666Y-58491476D01*
X166716666Y-58491476D02*
X166692857Y-58539095D01*
X166692857Y-58539095D02*
X166669047Y-58562904D01*
X166669047Y-58562904D02*
X166621428Y-58586714D01*
X166621428Y-58586714D02*
X166430952Y-58586714D01*
X167169047Y-58324809D02*
X166930952Y-58324809D01*
X166930952Y-58324809D02*
X166907143Y-58562904D01*
X166907143Y-58562904D02*
X166930952Y-58539095D01*
X166930952Y-58539095D02*
X166978571Y-58515285D01*
X166978571Y-58515285D02*
X167097619Y-58515285D01*
X167097619Y-58515285D02*
X167145238Y-58539095D01*
X167145238Y-58539095D02*
X167169047Y-58562904D01*
X167169047Y-58562904D02*
X167192857Y-58610523D01*
X167192857Y-58610523D02*
X167192857Y-58729571D01*
X167192857Y-58729571D02*
X167169047Y-58777190D01*
X167169047Y-58777190D02*
X167145238Y-58801000D01*
X167145238Y-58801000D02*
X167097619Y-58824809D01*
X167097619Y-58824809D02*
X166978571Y-58824809D01*
X166978571Y-58824809D02*
X166930952Y-58801000D01*
X166930952Y-58801000D02*
X166907143Y-58777190D01*
%TO.C,IC2*%
X171903157Y-76399809D02*
X171903157Y-75899809D01*
X172426966Y-76352190D02*
X172403157Y-76376000D01*
X172403157Y-76376000D02*
X172331728Y-76399809D01*
X172331728Y-76399809D02*
X172284109Y-76399809D01*
X172284109Y-76399809D02*
X172212681Y-76376000D01*
X172212681Y-76376000D02*
X172165062Y-76328380D01*
X172165062Y-76328380D02*
X172141252Y-76280761D01*
X172141252Y-76280761D02*
X172117443Y-76185523D01*
X172117443Y-76185523D02*
X172117443Y-76114095D01*
X172117443Y-76114095D02*
X172141252Y-76018857D01*
X172141252Y-76018857D02*
X172165062Y-75971238D01*
X172165062Y-75971238D02*
X172212681Y-75923619D01*
X172212681Y-75923619D02*
X172284109Y-75899809D01*
X172284109Y-75899809D02*
X172331728Y-75899809D01*
X172331728Y-75899809D02*
X172403157Y-75923619D01*
X172403157Y-75923619D02*
X172426966Y-75947428D01*
X172617443Y-75947428D02*
X172641252Y-75923619D01*
X172641252Y-75923619D02*
X172688871Y-75899809D01*
X172688871Y-75899809D02*
X172807919Y-75899809D01*
X172807919Y-75899809D02*
X172855538Y-75923619D01*
X172855538Y-75923619D02*
X172879347Y-75947428D01*
X172879347Y-75947428D02*
X172903157Y-75995047D01*
X172903157Y-75995047D02*
X172903157Y-76042666D01*
X172903157Y-76042666D02*
X172879347Y-76114095D01*
X172879347Y-76114095D02*
X172593633Y-76399809D01*
X172593633Y-76399809D02*
X172903157Y-76399809D01*
%TO.C,R9*%
X180482918Y-69098557D02*
X180316252Y-68860462D01*
X180197204Y-69098557D02*
X180197204Y-68598557D01*
X180197204Y-68598557D02*
X180387680Y-68598557D01*
X180387680Y-68598557D02*
X180435299Y-68622367D01*
X180435299Y-68622367D02*
X180459109Y-68646176D01*
X180459109Y-68646176D02*
X180482918Y-68693795D01*
X180482918Y-68693795D02*
X180482918Y-68765224D01*
X180482918Y-68765224D02*
X180459109Y-68812843D01*
X180459109Y-68812843D02*
X180435299Y-68836652D01*
X180435299Y-68836652D02*
X180387680Y-68860462D01*
X180387680Y-68860462D02*
X180197204Y-68860462D01*
X180721014Y-69098557D02*
X180816252Y-69098557D01*
X180816252Y-69098557D02*
X180863871Y-69074748D01*
X180863871Y-69074748D02*
X180887680Y-69050938D01*
X180887680Y-69050938D02*
X180935299Y-68979509D01*
X180935299Y-68979509D02*
X180959109Y-68884271D01*
X180959109Y-68884271D02*
X180959109Y-68693795D01*
X180959109Y-68693795D02*
X180935299Y-68646176D01*
X180935299Y-68646176D02*
X180911490Y-68622367D01*
X180911490Y-68622367D02*
X180863871Y-68598557D01*
X180863871Y-68598557D02*
X180768633Y-68598557D01*
X180768633Y-68598557D02*
X180721014Y-68622367D01*
X180721014Y-68622367D02*
X180697204Y-68646176D01*
X180697204Y-68646176D02*
X180673395Y-68693795D01*
X180673395Y-68693795D02*
X180673395Y-68812843D01*
X180673395Y-68812843D02*
X180697204Y-68860462D01*
X180697204Y-68860462D02*
X180721014Y-68884271D01*
X180721014Y-68884271D02*
X180768633Y-68908081D01*
X180768633Y-68908081D02*
X180863871Y-68908081D01*
X180863871Y-68908081D02*
X180911490Y-68884271D01*
X180911490Y-68884271D02*
X180935299Y-68860462D01*
X180935299Y-68860462D02*
X180959109Y-68812843D01*
%TO.C,C12*%
X175378571Y-72102190D02*
X175354762Y-72126000D01*
X175354762Y-72126000D02*
X175283333Y-72149809D01*
X175283333Y-72149809D02*
X175235714Y-72149809D01*
X175235714Y-72149809D02*
X175164286Y-72126000D01*
X175164286Y-72126000D02*
X175116667Y-72078380D01*
X175116667Y-72078380D02*
X175092857Y-72030761D01*
X175092857Y-72030761D02*
X175069048Y-71935523D01*
X175069048Y-71935523D02*
X175069048Y-71864095D01*
X175069048Y-71864095D02*
X175092857Y-71768857D01*
X175092857Y-71768857D02*
X175116667Y-71721238D01*
X175116667Y-71721238D02*
X175164286Y-71673619D01*
X175164286Y-71673619D02*
X175235714Y-71649809D01*
X175235714Y-71649809D02*
X175283333Y-71649809D01*
X175283333Y-71649809D02*
X175354762Y-71673619D01*
X175354762Y-71673619D02*
X175378571Y-71697428D01*
X175854762Y-72149809D02*
X175569048Y-72149809D01*
X175711905Y-72149809D02*
X175711905Y-71649809D01*
X175711905Y-71649809D02*
X175664286Y-71721238D01*
X175664286Y-71721238D02*
X175616667Y-71768857D01*
X175616667Y-71768857D02*
X175569048Y-71792666D01*
X176045238Y-71697428D02*
X176069047Y-71673619D01*
X176069047Y-71673619D02*
X176116666Y-71649809D01*
X176116666Y-71649809D02*
X176235714Y-71649809D01*
X176235714Y-71649809D02*
X176283333Y-71673619D01*
X176283333Y-71673619D02*
X176307142Y-71697428D01*
X176307142Y-71697428D02*
X176330952Y-71745047D01*
X176330952Y-71745047D02*
X176330952Y-71792666D01*
X176330952Y-71792666D02*
X176307142Y-71864095D01*
X176307142Y-71864095D02*
X176021428Y-72149809D01*
X176021428Y-72149809D02*
X176330952Y-72149809D01*
%TO.C,L3*%
X185816666Y-75074809D02*
X185578571Y-75074809D01*
X185578571Y-75074809D02*
X185578571Y-74574809D01*
X185935714Y-74574809D02*
X186245238Y-74574809D01*
X186245238Y-74574809D02*
X186078571Y-74765285D01*
X186078571Y-74765285D02*
X186150000Y-74765285D01*
X186150000Y-74765285D02*
X186197619Y-74789095D01*
X186197619Y-74789095D02*
X186221428Y-74812904D01*
X186221428Y-74812904D02*
X186245238Y-74860523D01*
X186245238Y-74860523D02*
X186245238Y-74979571D01*
X186245238Y-74979571D02*
X186221428Y-75027190D01*
X186221428Y-75027190D02*
X186197619Y-75051000D01*
X186197619Y-75051000D02*
X186150000Y-75074809D01*
X186150000Y-75074809D02*
X186007143Y-75074809D01*
X186007143Y-75074809D02*
X185959524Y-75051000D01*
X185959524Y-75051000D02*
X185935714Y-75027190D01*
%TO.C,C7*%
X171141666Y-65252190D02*
X171117857Y-65276000D01*
X171117857Y-65276000D02*
X171046428Y-65299809D01*
X171046428Y-65299809D02*
X170998809Y-65299809D01*
X170998809Y-65299809D02*
X170927381Y-65276000D01*
X170927381Y-65276000D02*
X170879762Y-65228380D01*
X170879762Y-65228380D02*
X170855952Y-65180761D01*
X170855952Y-65180761D02*
X170832143Y-65085523D01*
X170832143Y-65085523D02*
X170832143Y-65014095D01*
X170832143Y-65014095D02*
X170855952Y-64918857D01*
X170855952Y-64918857D02*
X170879762Y-64871238D01*
X170879762Y-64871238D02*
X170927381Y-64823619D01*
X170927381Y-64823619D02*
X170998809Y-64799809D01*
X170998809Y-64799809D02*
X171046428Y-64799809D01*
X171046428Y-64799809D02*
X171117857Y-64823619D01*
X171117857Y-64823619D02*
X171141666Y-64847428D01*
X171308333Y-64799809D02*
X171641666Y-64799809D01*
X171641666Y-64799809D02*
X171427381Y-65299809D01*
%TO.C,C6*%
X165641666Y-65002190D02*
X165617857Y-65026000D01*
X165617857Y-65026000D02*
X165546428Y-65049809D01*
X165546428Y-65049809D02*
X165498809Y-65049809D01*
X165498809Y-65049809D02*
X165427381Y-65026000D01*
X165427381Y-65026000D02*
X165379762Y-64978380D01*
X165379762Y-64978380D02*
X165355952Y-64930761D01*
X165355952Y-64930761D02*
X165332143Y-64835523D01*
X165332143Y-64835523D02*
X165332143Y-64764095D01*
X165332143Y-64764095D02*
X165355952Y-64668857D01*
X165355952Y-64668857D02*
X165379762Y-64621238D01*
X165379762Y-64621238D02*
X165427381Y-64573619D01*
X165427381Y-64573619D02*
X165498809Y-64549809D01*
X165498809Y-64549809D02*
X165546428Y-64549809D01*
X165546428Y-64549809D02*
X165617857Y-64573619D01*
X165617857Y-64573619D02*
X165641666Y-64597428D01*
X166070238Y-64549809D02*
X165975000Y-64549809D01*
X165975000Y-64549809D02*
X165927381Y-64573619D01*
X165927381Y-64573619D02*
X165903571Y-64597428D01*
X165903571Y-64597428D02*
X165855952Y-64668857D01*
X165855952Y-64668857D02*
X165832143Y-64764095D01*
X165832143Y-64764095D02*
X165832143Y-64954571D01*
X165832143Y-64954571D02*
X165855952Y-65002190D01*
X165855952Y-65002190D02*
X165879762Y-65026000D01*
X165879762Y-65026000D02*
X165927381Y-65049809D01*
X165927381Y-65049809D02*
X166022619Y-65049809D01*
X166022619Y-65049809D02*
X166070238Y-65026000D01*
X166070238Y-65026000D02*
X166094047Y-65002190D01*
X166094047Y-65002190D02*
X166117857Y-64954571D01*
X166117857Y-64954571D02*
X166117857Y-64835523D01*
X166117857Y-64835523D02*
X166094047Y-64787904D01*
X166094047Y-64787904D02*
X166070238Y-64764095D01*
X166070238Y-64764095D02*
X166022619Y-64740285D01*
X166022619Y-64740285D02*
X165927381Y-64740285D01*
X165927381Y-64740285D02*
X165879762Y-64764095D01*
X165879762Y-64764095D02*
X165855952Y-64787904D01*
X165855952Y-64787904D02*
X165832143Y-64835523D01*
%TO.C,IC4*%
X180061905Y-72849809D02*
X180061905Y-72349809D01*
X180585714Y-72802190D02*
X180561905Y-72826000D01*
X180561905Y-72826000D02*
X180490476Y-72849809D01*
X180490476Y-72849809D02*
X180442857Y-72849809D01*
X180442857Y-72849809D02*
X180371429Y-72826000D01*
X180371429Y-72826000D02*
X180323810Y-72778380D01*
X180323810Y-72778380D02*
X180300000Y-72730761D01*
X180300000Y-72730761D02*
X180276191Y-72635523D01*
X180276191Y-72635523D02*
X180276191Y-72564095D01*
X180276191Y-72564095D02*
X180300000Y-72468857D01*
X180300000Y-72468857D02*
X180323810Y-72421238D01*
X180323810Y-72421238D02*
X180371429Y-72373619D01*
X180371429Y-72373619D02*
X180442857Y-72349809D01*
X180442857Y-72349809D02*
X180490476Y-72349809D01*
X180490476Y-72349809D02*
X180561905Y-72373619D01*
X180561905Y-72373619D02*
X180585714Y-72397428D01*
X181014286Y-72516476D02*
X181014286Y-72849809D01*
X180895238Y-72326000D02*
X180776191Y-72683142D01*
X180776191Y-72683142D02*
X181085714Y-72683142D01*
%TO.C,IC3*%
X179961905Y-60874809D02*
X179961905Y-60374809D01*
X180485714Y-60827190D02*
X180461905Y-60851000D01*
X180461905Y-60851000D02*
X180390476Y-60874809D01*
X180390476Y-60874809D02*
X180342857Y-60874809D01*
X180342857Y-60874809D02*
X180271429Y-60851000D01*
X180271429Y-60851000D02*
X180223810Y-60803380D01*
X180223810Y-60803380D02*
X180200000Y-60755761D01*
X180200000Y-60755761D02*
X180176191Y-60660523D01*
X180176191Y-60660523D02*
X180176191Y-60589095D01*
X180176191Y-60589095D02*
X180200000Y-60493857D01*
X180200000Y-60493857D02*
X180223810Y-60446238D01*
X180223810Y-60446238D02*
X180271429Y-60398619D01*
X180271429Y-60398619D02*
X180342857Y-60374809D01*
X180342857Y-60374809D02*
X180390476Y-60374809D01*
X180390476Y-60374809D02*
X180461905Y-60398619D01*
X180461905Y-60398619D02*
X180485714Y-60422428D01*
X180652381Y-60374809D02*
X180961905Y-60374809D01*
X180961905Y-60374809D02*
X180795238Y-60565285D01*
X180795238Y-60565285D02*
X180866667Y-60565285D01*
X180866667Y-60565285D02*
X180914286Y-60589095D01*
X180914286Y-60589095D02*
X180938095Y-60612904D01*
X180938095Y-60612904D02*
X180961905Y-60660523D01*
X180961905Y-60660523D02*
X180961905Y-60779571D01*
X180961905Y-60779571D02*
X180938095Y-60827190D01*
X180938095Y-60827190D02*
X180914286Y-60851000D01*
X180914286Y-60851000D02*
X180866667Y-60874809D01*
X180866667Y-60874809D02*
X180723810Y-60874809D01*
X180723810Y-60874809D02*
X180676191Y-60851000D01*
X180676191Y-60851000D02*
X180652381Y-60827190D01*
%TO.C,R1*%
X162099809Y-73983333D02*
X161861714Y-74149999D01*
X162099809Y-74269047D02*
X161599809Y-74269047D01*
X161599809Y-74269047D02*
X161599809Y-74078571D01*
X161599809Y-74078571D02*
X161623619Y-74030952D01*
X161623619Y-74030952D02*
X161647428Y-74007142D01*
X161647428Y-74007142D02*
X161695047Y-73983333D01*
X161695047Y-73983333D02*
X161766476Y-73983333D01*
X161766476Y-73983333D02*
X161814095Y-74007142D01*
X161814095Y-74007142D02*
X161837904Y-74030952D01*
X161837904Y-74030952D02*
X161861714Y-74078571D01*
X161861714Y-74078571D02*
X161861714Y-74269047D01*
X162099809Y-73507142D02*
X162099809Y-73792856D01*
X162099809Y-73649999D02*
X161599809Y-73649999D01*
X161599809Y-73649999D02*
X161671238Y-73697618D01*
X161671238Y-73697618D02*
X161718857Y-73745237D01*
X161718857Y-73745237D02*
X161742666Y-73792856D01*
%TO.C,R8*%
X177766666Y-57649809D02*
X177600000Y-57411714D01*
X177480952Y-57649809D02*
X177480952Y-57149809D01*
X177480952Y-57149809D02*
X177671428Y-57149809D01*
X177671428Y-57149809D02*
X177719047Y-57173619D01*
X177719047Y-57173619D02*
X177742857Y-57197428D01*
X177742857Y-57197428D02*
X177766666Y-57245047D01*
X177766666Y-57245047D02*
X177766666Y-57316476D01*
X177766666Y-57316476D02*
X177742857Y-57364095D01*
X177742857Y-57364095D02*
X177719047Y-57387904D01*
X177719047Y-57387904D02*
X177671428Y-57411714D01*
X177671428Y-57411714D02*
X177480952Y-57411714D01*
X178052381Y-57364095D02*
X178004762Y-57340285D01*
X178004762Y-57340285D02*
X177980952Y-57316476D01*
X177980952Y-57316476D02*
X177957143Y-57268857D01*
X177957143Y-57268857D02*
X177957143Y-57245047D01*
X177957143Y-57245047D02*
X177980952Y-57197428D01*
X177980952Y-57197428D02*
X178004762Y-57173619D01*
X178004762Y-57173619D02*
X178052381Y-57149809D01*
X178052381Y-57149809D02*
X178147619Y-57149809D01*
X178147619Y-57149809D02*
X178195238Y-57173619D01*
X178195238Y-57173619D02*
X178219047Y-57197428D01*
X178219047Y-57197428D02*
X178242857Y-57245047D01*
X178242857Y-57245047D02*
X178242857Y-57268857D01*
X178242857Y-57268857D02*
X178219047Y-57316476D01*
X178219047Y-57316476D02*
X178195238Y-57340285D01*
X178195238Y-57340285D02*
X178147619Y-57364095D01*
X178147619Y-57364095D02*
X178052381Y-57364095D01*
X178052381Y-57364095D02*
X178004762Y-57387904D01*
X178004762Y-57387904D02*
X177980952Y-57411714D01*
X177980952Y-57411714D02*
X177957143Y-57459333D01*
X177957143Y-57459333D02*
X177957143Y-57554571D01*
X177957143Y-57554571D02*
X177980952Y-57602190D01*
X177980952Y-57602190D02*
X178004762Y-57626000D01*
X178004762Y-57626000D02*
X178052381Y-57649809D01*
X178052381Y-57649809D02*
X178147619Y-57649809D01*
X178147619Y-57649809D02*
X178195238Y-57626000D01*
X178195238Y-57626000D02*
X178219047Y-57602190D01*
X178219047Y-57602190D02*
X178242857Y-57554571D01*
X178242857Y-57554571D02*
X178242857Y-57459333D01*
X178242857Y-57459333D02*
X178219047Y-57411714D01*
X178219047Y-57411714D02*
X178195238Y-57387904D01*
X178195238Y-57387904D02*
X178147619Y-57364095D01*
%TO.C,R7*%
X179516666Y-57674809D02*
X179350000Y-57436714D01*
X179230952Y-57674809D02*
X179230952Y-57174809D01*
X179230952Y-57174809D02*
X179421428Y-57174809D01*
X179421428Y-57174809D02*
X179469047Y-57198619D01*
X179469047Y-57198619D02*
X179492857Y-57222428D01*
X179492857Y-57222428D02*
X179516666Y-57270047D01*
X179516666Y-57270047D02*
X179516666Y-57341476D01*
X179516666Y-57341476D02*
X179492857Y-57389095D01*
X179492857Y-57389095D02*
X179469047Y-57412904D01*
X179469047Y-57412904D02*
X179421428Y-57436714D01*
X179421428Y-57436714D02*
X179230952Y-57436714D01*
X179683333Y-57174809D02*
X180016666Y-57174809D01*
X180016666Y-57174809D02*
X179802381Y-57674809D01*
%TO.C,R6*%
X169616666Y-72874809D02*
X169450000Y-72636714D01*
X169330952Y-72874809D02*
X169330952Y-72374809D01*
X169330952Y-72374809D02*
X169521428Y-72374809D01*
X169521428Y-72374809D02*
X169569047Y-72398619D01*
X169569047Y-72398619D02*
X169592857Y-72422428D01*
X169592857Y-72422428D02*
X169616666Y-72470047D01*
X169616666Y-72470047D02*
X169616666Y-72541476D01*
X169616666Y-72541476D02*
X169592857Y-72589095D01*
X169592857Y-72589095D02*
X169569047Y-72612904D01*
X169569047Y-72612904D02*
X169521428Y-72636714D01*
X169521428Y-72636714D02*
X169330952Y-72636714D01*
X170045238Y-72374809D02*
X169950000Y-72374809D01*
X169950000Y-72374809D02*
X169902381Y-72398619D01*
X169902381Y-72398619D02*
X169878571Y-72422428D01*
X169878571Y-72422428D02*
X169830952Y-72493857D01*
X169830952Y-72493857D02*
X169807143Y-72589095D01*
X169807143Y-72589095D02*
X169807143Y-72779571D01*
X169807143Y-72779571D02*
X169830952Y-72827190D01*
X169830952Y-72827190D02*
X169854762Y-72851000D01*
X169854762Y-72851000D02*
X169902381Y-72874809D01*
X169902381Y-72874809D02*
X169997619Y-72874809D01*
X169997619Y-72874809D02*
X170045238Y-72851000D01*
X170045238Y-72851000D02*
X170069047Y-72827190D01*
X170069047Y-72827190D02*
X170092857Y-72779571D01*
X170092857Y-72779571D02*
X170092857Y-72660523D01*
X170092857Y-72660523D02*
X170069047Y-72612904D01*
X170069047Y-72612904D02*
X170045238Y-72589095D01*
X170045238Y-72589095D02*
X169997619Y-72565285D01*
X169997619Y-72565285D02*
X169902381Y-72565285D01*
X169902381Y-72565285D02*
X169854762Y-72589095D01*
X169854762Y-72589095D02*
X169830952Y-72612904D01*
X169830952Y-72612904D02*
X169807143Y-72660523D01*
%TO.C,C3*%
X161291666Y-65177190D02*
X161267857Y-65201000D01*
X161267857Y-65201000D02*
X161196428Y-65224809D01*
X161196428Y-65224809D02*
X161148809Y-65224809D01*
X161148809Y-65224809D02*
X161077381Y-65201000D01*
X161077381Y-65201000D02*
X161029762Y-65153380D01*
X161029762Y-65153380D02*
X161005952Y-65105761D01*
X161005952Y-65105761D02*
X160982143Y-65010523D01*
X160982143Y-65010523D02*
X160982143Y-64939095D01*
X160982143Y-64939095D02*
X161005952Y-64843857D01*
X161005952Y-64843857D02*
X161029762Y-64796238D01*
X161029762Y-64796238D02*
X161077381Y-64748619D01*
X161077381Y-64748619D02*
X161148809Y-64724809D01*
X161148809Y-64724809D02*
X161196428Y-64724809D01*
X161196428Y-64724809D02*
X161267857Y-64748619D01*
X161267857Y-64748619D02*
X161291666Y-64772428D01*
X161458333Y-64724809D02*
X161767857Y-64724809D01*
X161767857Y-64724809D02*
X161601190Y-64915285D01*
X161601190Y-64915285D02*
X161672619Y-64915285D01*
X161672619Y-64915285D02*
X161720238Y-64939095D01*
X161720238Y-64939095D02*
X161744047Y-64962904D01*
X161744047Y-64962904D02*
X161767857Y-65010523D01*
X161767857Y-65010523D02*
X161767857Y-65129571D01*
X161767857Y-65129571D02*
X161744047Y-65177190D01*
X161744047Y-65177190D02*
X161720238Y-65201000D01*
X161720238Y-65201000D02*
X161672619Y-65224809D01*
X161672619Y-65224809D02*
X161529762Y-65224809D01*
X161529762Y-65224809D02*
X161482143Y-65201000D01*
X161482143Y-65201000D02*
X161458333Y-65177190D01*
%TO.C,C10*%
X182919823Y-64122842D02*
X182896014Y-64146652D01*
X182896014Y-64146652D02*
X182824585Y-64170461D01*
X182824585Y-64170461D02*
X182776966Y-64170461D01*
X182776966Y-64170461D02*
X182705538Y-64146652D01*
X182705538Y-64146652D02*
X182657919Y-64099032D01*
X182657919Y-64099032D02*
X182634109Y-64051413D01*
X182634109Y-64051413D02*
X182610300Y-63956175D01*
X182610300Y-63956175D02*
X182610300Y-63884747D01*
X182610300Y-63884747D02*
X182634109Y-63789509D01*
X182634109Y-63789509D02*
X182657919Y-63741890D01*
X182657919Y-63741890D02*
X182705538Y-63694271D01*
X182705538Y-63694271D02*
X182776966Y-63670461D01*
X182776966Y-63670461D02*
X182824585Y-63670461D01*
X182824585Y-63670461D02*
X182896014Y-63694271D01*
X182896014Y-63694271D02*
X182919823Y-63718080D01*
X183396014Y-64170461D02*
X183110300Y-64170461D01*
X183253157Y-64170461D02*
X183253157Y-63670461D01*
X183253157Y-63670461D02*
X183205538Y-63741890D01*
X183205538Y-63741890D02*
X183157919Y-63789509D01*
X183157919Y-63789509D02*
X183110300Y-63813318D01*
X183705537Y-63670461D02*
X183753156Y-63670461D01*
X183753156Y-63670461D02*
X183800775Y-63694271D01*
X183800775Y-63694271D02*
X183824585Y-63718080D01*
X183824585Y-63718080D02*
X183848394Y-63765699D01*
X183848394Y-63765699D02*
X183872204Y-63860937D01*
X183872204Y-63860937D02*
X183872204Y-63979985D01*
X183872204Y-63979985D02*
X183848394Y-64075223D01*
X183848394Y-64075223D02*
X183824585Y-64122842D01*
X183824585Y-64122842D02*
X183800775Y-64146652D01*
X183800775Y-64146652D02*
X183753156Y-64170461D01*
X183753156Y-64170461D02*
X183705537Y-64170461D01*
X183705537Y-64170461D02*
X183657918Y-64146652D01*
X183657918Y-64146652D02*
X183634109Y-64122842D01*
X183634109Y-64122842D02*
X183610299Y-64075223D01*
X183610299Y-64075223D02*
X183586490Y-63979985D01*
X183586490Y-63979985D02*
X183586490Y-63860937D01*
X183586490Y-63860937D02*
X183610299Y-63765699D01*
X183610299Y-63765699D02*
X183634109Y-63718080D01*
X183634109Y-63718080D02*
X183657918Y-63694271D01*
X183657918Y-63694271D02*
X183705537Y-63670461D01*
%TO.C,C14*%
X180752190Y-77396428D02*
X180776000Y-77420237D01*
X180776000Y-77420237D02*
X180799809Y-77491666D01*
X180799809Y-77491666D02*
X180799809Y-77539285D01*
X180799809Y-77539285D02*
X180776000Y-77610713D01*
X180776000Y-77610713D02*
X180728380Y-77658332D01*
X180728380Y-77658332D02*
X180680761Y-77682142D01*
X180680761Y-77682142D02*
X180585523Y-77705951D01*
X180585523Y-77705951D02*
X180514095Y-77705951D01*
X180514095Y-77705951D02*
X180418857Y-77682142D01*
X180418857Y-77682142D02*
X180371238Y-77658332D01*
X180371238Y-77658332D02*
X180323619Y-77610713D01*
X180323619Y-77610713D02*
X180299809Y-77539285D01*
X180299809Y-77539285D02*
X180299809Y-77491666D01*
X180299809Y-77491666D02*
X180323619Y-77420237D01*
X180323619Y-77420237D02*
X180347428Y-77396428D01*
X180799809Y-76920237D02*
X180799809Y-77205951D01*
X180799809Y-77063094D02*
X180299809Y-77063094D01*
X180299809Y-77063094D02*
X180371238Y-77110713D01*
X180371238Y-77110713D02*
X180418857Y-77158332D01*
X180418857Y-77158332D02*
X180442666Y-77205951D01*
X180466476Y-76491666D02*
X180799809Y-76491666D01*
X180276000Y-76610714D02*
X180633142Y-76729761D01*
X180633142Y-76729761D02*
X180633142Y-76420238D01*
%TO.C,C2*%
X164391666Y-60777190D02*
X164367857Y-60801000D01*
X164367857Y-60801000D02*
X164296428Y-60824809D01*
X164296428Y-60824809D02*
X164248809Y-60824809D01*
X164248809Y-60824809D02*
X164177381Y-60801000D01*
X164177381Y-60801000D02*
X164129762Y-60753380D01*
X164129762Y-60753380D02*
X164105952Y-60705761D01*
X164105952Y-60705761D02*
X164082143Y-60610523D01*
X164082143Y-60610523D02*
X164082143Y-60539095D01*
X164082143Y-60539095D02*
X164105952Y-60443857D01*
X164105952Y-60443857D02*
X164129762Y-60396238D01*
X164129762Y-60396238D02*
X164177381Y-60348619D01*
X164177381Y-60348619D02*
X164248809Y-60324809D01*
X164248809Y-60324809D02*
X164296428Y-60324809D01*
X164296428Y-60324809D02*
X164367857Y-60348619D01*
X164367857Y-60348619D02*
X164391666Y-60372428D01*
X164582143Y-60372428D02*
X164605952Y-60348619D01*
X164605952Y-60348619D02*
X164653571Y-60324809D01*
X164653571Y-60324809D02*
X164772619Y-60324809D01*
X164772619Y-60324809D02*
X164820238Y-60348619D01*
X164820238Y-60348619D02*
X164844047Y-60372428D01*
X164844047Y-60372428D02*
X164867857Y-60420047D01*
X164867857Y-60420047D02*
X164867857Y-60467666D01*
X164867857Y-60467666D02*
X164844047Y-60539095D01*
X164844047Y-60539095D02*
X164558333Y-60824809D01*
X164558333Y-60824809D02*
X164867857Y-60824809D01*
%TO.C,L2*%
X178941666Y-63374809D02*
X178703571Y-63374809D01*
X178703571Y-63374809D02*
X178703571Y-62874809D01*
X179084524Y-62922428D02*
X179108333Y-62898619D01*
X179108333Y-62898619D02*
X179155952Y-62874809D01*
X179155952Y-62874809D02*
X179275000Y-62874809D01*
X179275000Y-62874809D02*
X179322619Y-62898619D01*
X179322619Y-62898619D02*
X179346428Y-62922428D01*
X179346428Y-62922428D02*
X179370238Y-62970047D01*
X179370238Y-62970047D02*
X179370238Y-63017666D01*
X179370238Y-63017666D02*
X179346428Y-63089095D01*
X179346428Y-63089095D02*
X179060714Y-63374809D01*
X179060714Y-63374809D02*
X179370238Y-63374809D01*
%TO.C,C5*%
X162441666Y-60777190D02*
X162417857Y-60801000D01*
X162417857Y-60801000D02*
X162346428Y-60824809D01*
X162346428Y-60824809D02*
X162298809Y-60824809D01*
X162298809Y-60824809D02*
X162227381Y-60801000D01*
X162227381Y-60801000D02*
X162179762Y-60753380D01*
X162179762Y-60753380D02*
X162155952Y-60705761D01*
X162155952Y-60705761D02*
X162132143Y-60610523D01*
X162132143Y-60610523D02*
X162132143Y-60539095D01*
X162132143Y-60539095D02*
X162155952Y-60443857D01*
X162155952Y-60443857D02*
X162179762Y-60396238D01*
X162179762Y-60396238D02*
X162227381Y-60348619D01*
X162227381Y-60348619D02*
X162298809Y-60324809D01*
X162298809Y-60324809D02*
X162346428Y-60324809D01*
X162346428Y-60324809D02*
X162417857Y-60348619D01*
X162417857Y-60348619D02*
X162441666Y-60372428D01*
X162894047Y-60324809D02*
X162655952Y-60324809D01*
X162655952Y-60324809D02*
X162632143Y-60562904D01*
X162632143Y-60562904D02*
X162655952Y-60539095D01*
X162655952Y-60539095D02*
X162703571Y-60515285D01*
X162703571Y-60515285D02*
X162822619Y-60515285D01*
X162822619Y-60515285D02*
X162870238Y-60539095D01*
X162870238Y-60539095D02*
X162894047Y-60562904D01*
X162894047Y-60562904D02*
X162917857Y-60610523D01*
X162917857Y-60610523D02*
X162917857Y-60729571D01*
X162917857Y-60729571D02*
X162894047Y-60777190D01*
X162894047Y-60777190D02*
X162870238Y-60801000D01*
X162870238Y-60801000D02*
X162822619Y-60824809D01*
X162822619Y-60824809D02*
X162703571Y-60824809D01*
X162703571Y-60824809D02*
X162655952Y-60801000D01*
X162655952Y-60801000D02*
X162632143Y-60777190D01*
%TO.C,C8*%
X170766666Y-69802190D02*
X170742857Y-69826000D01*
X170742857Y-69826000D02*
X170671428Y-69849809D01*
X170671428Y-69849809D02*
X170623809Y-69849809D01*
X170623809Y-69849809D02*
X170552381Y-69826000D01*
X170552381Y-69826000D02*
X170504762Y-69778380D01*
X170504762Y-69778380D02*
X170480952Y-69730761D01*
X170480952Y-69730761D02*
X170457143Y-69635523D01*
X170457143Y-69635523D02*
X170457143Y-69564095D01*
X170457143Y-69564095D02*
X170480952Y-69468857D01*
X170480952Y-69468857D02*
X170504762Y-69421238D01*
X170504762Y-69421238D02*
X170552381Y-69373619D01*
X170552381Y-69373619D02*
X170623809Y-69349809D01*
X170623809Y-69349809D02*
X170671428Y-69349809D01*
X170671428Y-69349809D02*
X170742857Y-69373619D01*
X170742857Y-69373619D02*
X170766666Y-69397428D01*
X171052381Y-69564095D02*
X171004762Y-69540285D01*
X171004762Y-69540285D02*
X170980952Y-69516476D01*
X170980952Y-69516476D02*
X170957143Y-69468857D01*
X170957143Y-69468857D02*
X170957143Y-69445047D01*
X170957143Y-69445047D02*
X170980952Y-69397428D01*
X170980952Y-69397428D02*
X171004762Y-69373619D01*
X171004762Y-69373619D02*
X171052381Y-69349809D01*
X171052381Y-69349809D02*
X171147619Y-69349809D01*
X171147619Y-69349809D02*
X171195238Y-69373619D01*
X171195238Y-69373619D02*
X171219047Y-69397428D01*
X171219047Y-69397428D02*
X171242857Y-69445047D01*
X171242857Y-69445047D02*
X171242857Y-69468857D01*
X171242857Y-69468857D02*
X171219047Y-69516476D01*
X171219047Y-69516476D02*
X171195238Y-69540285D01*
X171195238Y-69540285D02*
X171147619Y-69564095D01*
X171147619Y-69564095D02*
X171052381Y-69564095D01*
X171052381Y-69564095D02*
X171004762Y-69587904D01*
X171004762Y-69587904D02*
X170980952Y-69611714D01*
X170980952Y-69611714D02*
X170957143Y-69659333D01*
X170957143Y-69659333D02*
X170957143Y-69754571D01*
X170957143Y-69754571D02*
X170980952Y-69802190D01*
X170980952Y-69802190D02*
X171004762Y-69826000D01*
X171004762Y-69826000D02*
X171052381Y-69849809D01*
X171052381Y-69849809D02*
X171147619Y-69849809D01*
X171147619Y-69849809D02*
X171195238Y-69826000D01*
X171195238Y-69826000D02*
X171219047Y-69802190D01*
X171219047Y-69802190D02*
X171242857Y-69754571D01*
X171242857Y-69754571D02*
X171242857Y-69659333D01*
X171242857Y-69659333D02*
X171219047Y-69611714D01*
X171219047Y-69611714D02*
X171195238Y-69587904D01*
X171195238Y-69587904D02*
X171147619Y-69564095D01*
D12*
%TO.C,R2*%
X162873752Y-72261006D02*
X162873752Y-71786490D01*
X163918752Y-72261006D02*
X163918752Y-71786490D01*
%TO.C,C11*%
X186263752Y-61689400D02*
X186263752Y-62211904D01*
X184793752Y-61689400D02*
X184793752Y-62211904D01*
D13*
%TO.C,IC1*%
X161496252Y-65848748D02*
G75*
G03*
X161496252Y-65848748I-125000J0D01*
G01*
D12*
%TO.C,C1*%
X159632504Y-67908748D02*
X159110000Y-67908748D01*
X159632504Y-66438748D02*
X159110000Y-66438748D01*
%TO.C,R4*%
X159693752Y-62336490D02*
X159693752Y-62811006D01*
X158648752Y-62336490D02*
X158648752Y-62811006D01*
D14*
%TO.C,Q1*%
X172356252Y-65675000D02*
X171356252Y-65675000D01*
X172356252Y-68775000D02*
X171356252Y-68775000D01*
X173456252Y-65675000D02*
X174456252Y-65675000D01*
X173456252Y-68775000D02*
X174456252Y-68775000D01*
D15*
X170906252Y-66225000D02*
G75*
G03*
X170906252Y-66225000I-100000J0D01*
G01*
D12*
%TO.C,R3*%
X160173752Y-62811006D02*
X160173752Y-62336490D01*
X161218752Y-62811006D02*
X161218752Y-62336490D01*
%TO.C,C13*%
X178827504Y-75683748D02*
X178305000Y-75683748D01*
X178827504Y-74213748D02*
X178305000Y-74213748D01*
%TO.C,R10*%
X178603994Y-70026248D02*
X179078510Y-70026248D01*
X178603994Y-71071248D02*
X179078510Y-71071248D01*
%TO.C,L1*%
X170671252Y-65023748D02*
X166671252Y-65023748D01*
X170671252Y-60823748D02*
X166671252Y-60823748D01*
%TO.C,C4*%
X166610000Y-70938748D02*
X167132504Y-70938748D01*
X166610000Y-72408748D02*
X167132504Y-72408748D01*
%TO.C,C9*%
X177202504Y-62730652D02*
X176680000Y-62730652D01*
X177202504Y-61260652D02*
X176680000Y-61260652D01*
%TO.C,R5*%
X167387742Y-59052500D02*
X167862258Y-59052500D01*
X167387742Y-60097500D02*
X167862258Y-60097500D01*
D15*
%TO.C,IC2*%
X174166252Y-75700000D02*
X173116252Y-75700000D01*
X172766252Y-75575000D02*
X172016252Y-75575000D01*
X172766252Y-72675000D02*
X172766252Y-75575000D01*
X172016252Y-75575000D02*
X172016252Y-72675000D01*
X172016252Y-72675000D02*
X172766252Y-72675000D01*
D12*
%TO.C,R9*%
X178603994Y-68351248D02*
X179078510Y-68351248D01*
X178603994Y-69396248D02*
X179078510Y-69396248D01*
%TO.C,C12*%
X176451252Y-73584400D02*
X176451252Y-74106904D01*
X174981252Y-73584400D02*
X174981252Y-74106904D01*
%TO.C,L3*%
X185366252Y-72945652D02*
X185366252Y-76945652D01*
X181166252Y-72945652D02*
X181166252Y-76945652D01*
%TO.C,C7*%
X168736252Y-67135000D02*
X168736252Y-66612496D01*
X170206252Y-67135000D02*
X170206252Y-66612496D01*
%TO.C,C6*%
X166696252Y-67135000D02*
X166696252Y-66612496D01*
X168166252Y-67135000D02*
X168166252Y-66612496D01*
%TO.C,IC4*%
X177766252Y-73508152D02*
X179366252Y-73508152D01*
X179366252Y-71708152D02*
X177466252Y-71708152D01*
%TO.C,IC3*%
X179641252Y-62883152D02*
X181241252Y-62883152D01*
X181241252Y-61083152D02*
X179341252Y-61083152D01*
%TO.C,R1*%
X161348752Y-72261006D02*
X161348752Y-71786490D01*
X162393752Y-72261006D02*
X162393752Y-71786490D01*
%TO.C,R8*%
X177318752Y-59307910D02*
X177318752Y-58833394D01*
X178363752Y-59307910D02*
X178363752Y-58833394D01*
%TO.C,R7*%
X180113752Y-58833394D02*
X180113752Y-59307910D01*
X179068752Y-58833394D02*
X179068752Y-59307910D01*
%TO.C,R6*%
X170762258Y-72147500D02*
X170287742Y-72147500D01*
X170762258Y-71102500D02*
X170287742Y-71102500D01*
%TO.C,C3*%
X159632504Y-65833748D02*
X159110000Y-65833748D01*
X159632504Y-64363748D02*
X159110000Y-64363748D01*
%TO.C,C10*%
X183976252Y-61684400D02*
X183976252Y-62206904D01*
X182506252Y-61684400D02*
X182506252Y-62206904D01*
%TO.C,C14*%
X178827504Y-77833748D02*
X178305000Y-77833748D01*
X178827504Y-76363748D02*
X178305000Y-76363748D01*
%TO.C,C2*%
X165231252Y-62287496D02*
X165231252Y-62810000D01*
X163761252Y-62287496D02*
X163761252Y-62810000D01*
%TO.C,L2*%
X177041252Y-63545652D02*
X181041252Y-63545652D01*
X177041252Y-67745652D02*
X181041252Y-67745652D01*
%TO.C,C5*%
X163206252Y-62287496D02*
X163206252Y-62810000D01*
X161736252Y-62287496D02*
X161736252Y-62810000D01*
%TO.C,C8*%
X169007504Y-70358748D02*
X168485000Y-70358748D01*
X169007504Y-68888748D02*
X168485000Y-68888748D01*
%TD*%
M02*
