%TF.GenerationSoftware,KiCad,Pcbnew,7.0.7*%
%TF.CreationDate,2023-08-24T02:08:32-05:00*%
%TF.ProjectId,psxpress-pms,70737870-7265-4737-932d-706d732e6b69,rev?*%
%TF.SameCoordinates,Original*%
%TF.FileFunction,Soldermask,Top*%
%TF.FilePolarity,Negative*%
%FSLAX46Y46*%
G04 Gerber Fmt 4.6, Leading zero omitted, Abs format (unit mm)*
G04 Created by KiCad (PCBNEW 7.0.7) date 2023-08-24 02:08:32*
%MOMM*%
%LPD*%
G01*
G04 APERTURE LIST*
G04 Aperture macros list*
%AMRoundRect*
0 Rectangle with rounded corners*
0 $1 Rounding radius*
0 $2 $3 $4 $5 $6 $7 $8 $9 X,Y pos of 4 corners*
0 Add a 4 corners polygon primitive as box body*
4,1,4,$2,$3,$4,$5,$6,$7,$8,$9,$2,$3,0*
0 Add four circle primitives for the rounded corners*
1,1,$1+$1,$2,$3*
1,1,$1+$1,$4,$5*
1,1,$1+$1,$6,$7*
1,1,$1+$1,$8,$9*
0 Add four rect primitives between the rounded corners*
20,1,$1+$1,$2,$3,$4,$5,0*
20,1,$1+$1,$4,$5,$6,$7,0*
20,1,$1+$1,$6,$7,$8,$9,0*
20,1,$1+$1,$8,$9,$2,$3,0*%
G04 Aperture macros list end*
%ADD10C,0.000000*%
%ADD11C,0.187500*%
%ADD12C,0.100000*%
%ADD13RoundRect,0.200000X0.275000X-0.200000X0.275000X0.200000X-0.275000X0.200000X-0.275000X-0.200000X0*%
%ADD14RoundRect,0.200000X0.200000X0.275000X-0.200000X0.275000X-0.200000X-0.275000X0.200000X-0.275000X0*%
%ADD15R,0.800000X0.300000*%
%ADD16R,0.300000X0.800000*%
%ADD17R,2.800000X2.800000*%
%ADD18RoundRect,0.250000X0.250000X0.475000X-0.250000X0.475000X-0.250000X-0.475000X0.250000X-0.475000X0*%
%ADD19RoundRect,0.250000X-0.475000X0.250000X-0.475000X-0.250000X0.475000X-0.250000X0.475000X0.250000X0*%
%ADD20RoundRect,0.200000X-0.275000X0.200000X-0.275000X-0.200000X0.275000X-0.200000X0.275000X0.200000X0*%
%ADD21C,2.200000*%
%ADD22R,0.500000X0.350000*%
%ADD23R,0.300000X0.400000*%
%ADD24R,1.980000X2.450000*%
%ADD25R,0.430000X0.380000*%
%ADD26C,1.250000*%
%ADD27R,1.045000X1.045000*%
%ADD28C,1.045000*%
%ADD29R,1.500000X2.500000*%
%ADD30R,0.700000X0.450000*%
%ADD31R,1.200000X3.700000*%
%ADD32RoundRect,0.050000X-0.100000X0.285000X-0.100000X-0.285000X0.100000X-0.285000X0.100000X0.285000X0*%
%ADD33RoundRect,0.250000X-0.250000X-0.475000X0.250000X-0.475000X0.250000X0.475000X-0.250000X0.475000X0*%
%ADD34RoundRect,0.200000X-0.200000X-0.275000X0.200000X-0.275000X0.200000X0.275000X-0.200000X0.275000X0*%
%ADD35R,1.050000X0.550000*%
%ADD36RoundRect,0.250000X0.475000X-0.250000X0.475000X0.250000X-0.475000X0.250000X-0.475000X-0.250000X0*%
%ADD37RoundRect,0.135000X-0.135000X-0.185000X0.135000X-0.185000X0.135000X0.185000X-0.135000X0.185000X0*%
%ADD38R,2.500000X1.500000*%
%ADD39RoundRect,0.135000X-0.185000X0.135000X-0.185000X-0.135000X0.185000X-0.135000X0.185000X0.135000X0*%
%ADD40RoundRect,0.225000X0.225000X0.250000X-0.225000X0.250000X-0.225000X-0.250000X0.225000X-0.250000X0*%
%ADD41RoundRect,0.150000X-0.587500X-0.150000X0.587500X-0.150000X0.587500X0.150000X-0.587500X0.150000X0*%
G04 APERTURE END LIST*
D10*
G36*
X77289258Y-42482827D02*
G01*
X77290231Y-42482900D01*
X77291199Y-42483019D01*
X77292162Y-42483183D01*
X77293116Y-42483392D01*
X77294061Y-42483644D01*
X77294996Y-42483938D01*
X77295919Y-42484273D01*
X77296828Y-42484648D01*
X77297723Y-42485061D01*
X77298601Y-42485511D01*
X77299461Y-42485997D01*
X77300302Y-42486518D01*
X77301123Y-42487073D01*
X77301921Y-42487660D01*
X77302695Y-42488278D01*
X77303445Y-42488927D01*
X77304168Y-42489604D01*
X77304864Y-42490310D01*
X77305530Y-42491041D01*
X77306165Y-42491799D01*
X77306768Y-42492580D01*
X77307337Y-42493384D01*
X77307871Y-42494210D01*
X77308369Y-42495057D01*
X77308828Y-42495923D01*
X77309249Y-42496807D01*
X77309628Y-42497708D01*
X77309965Y-42498626D01*
X77310258Y-42499557D01*
X77310506Y-42500503D01*
X77310707Y-42501460D01*
X77391635Y-42936202D01*
X77391840Y-42937165D01*
X77392088Y-42938132D01*
X77392711Y-42940070D01*
X77393492Y-42942000D01*
X77394420Y-42943912D01*
X77395486Y-42945793D01*
X77396677Y-42947629D01*
X77397983Y-42949409D01*
X77399393Y-42951120D01*
X77400897Y-42952748D01*
X77402482Y-42954282D01*
X77404139Y-42955709D01*
X77405857Y-42957017D01*
X77407624Y-42958192D01*
X77409430Y-42959222D01*
X77410344Y-42959679D01*
X77411264Y-42960094D01*
X77412188Y-42960468D01*
X77413115Y-42960797D01*
X77704503Y-43080071D01*
X77706312Y-43080870D01*
X77708231Y-43081537D01*
X77710243Y-43082074D01*
X77712330Y-43082482D01*
X77714476Y-43082761D01*
X77716664Y-43082914D01*
X77718877Y-43082942D01*
X77721099Y-43082845D01*
X77723312Y-43082624D01*
X77725500Y-43082282D01*
X77727646Y-43081819D01*
X77729733Y-43081236D01*
X77731744Y-43080534D01*
X77733662Y-43079715D01*
X77735470Y-43078780D01*
X77737153Y-43077731D01*
X78100347Y-42828476D01*
X78101165Y-42827943D01*
X78102007Y-42827452D01*
X78102871Y-42827002D01*
X78103756Y-42826593D01*
X78104660Y-42826226D01*
X78105580Y-42825899D01*
X78106515Y-42825612D01*
X78107464Y-42825366D01*
X78108423Y-42825161D01*
X78109392Y-42824995D01*
X78111351Y-42824784D01*
X78113326Y-42824731D01*
X78115302Y-42824836D01*
X78117263Y-42825096D01*
X78119196Y-42825510D01*
X78121086Y-42826077D01*
X78122009Y-42826418D01*
X78122917Y-42826796D01*
X78123806Y-42827212D01*
X78124675Y-42827665D01*
X78125522Y-42828156D01*
X78126346Y-42828683D01*
X78127144Y-42829248D01*
X78127914Y-42829849D01*
X78128655Y-42830487D01*
X78129365Y-42831161D01*
X78435245Y-43137024D01*
X78435919Y-43137734D01*
X78436557Y-43138475D01*
X78437157Y-43139246D01*
X78437721Y-43140044D01*
X78438247Y-43140869D01*
X78438736Y-43141717D01*
X78439603Y-43143477D01*
X78440319Y-43145311D01*
X78440883Y-43147203D01*
X78441294Y-43149138D01*
X78441551Y-43151102D01*
X78441653Y-43153080D01*
X78441599Y-43155057D01*
X78441388Y-43157017D01*
X78441018Y-43158947D01*
X78440488Y-43160831D01*
X78440163Y-43161751D01*
X78439798Y-43162654D01*
X78439392Y-43163538D01*
X78438946Y-43164402D01*
X78438459Y-43165243D01*
X78437930Y-43166059D01*
X78193047Y-43523023D01*
X78191993Y-43524709D01*
X78191057Y-43526518D01*
X78190240Y-43528433D01*
X78189544Y-43530438D01*
X78188970Y-43532516D01*
X78188518Y-43534651D01*
X78188190Y-43536826D01*
X78187987Y-43539025D01*
X78187910Y-43541232D01*
X78187960Y-43543430D01*
X78188137Y-43545603D01*
X78188444Y-43547734D01*
X78188881Y-43549808D01*
X78189448Y-43551807D01*
X78190149Y-43553716D01*
X78190982Y-43555518D01*
X78319826Y-43856097D01*
X78320563Y-43857941D01*
X78321469Y-43859770D01*
X78322531Y-43861571D01*
X78323737Y-43863334D01*
X78325072Y-43865047D01*
X78326525Y-43866701D01*
X78328083Y-43868282D01*
X78329733Y-43869782D01*
X78331463Y-43871188D01*
X78333259Y-43872490D01*
X78335108Y-43873676D01*
X78336998Y-43874736D01*
X78338917Y-43875658D01*
X78340851Y-43876432D01*
X78342787Y-43877046D01*
X78344714Y-43877490D01*
X78765032Y-43955664D01*
X78765049Y-43955682D01*
X78766002Y-43955887D01*
X78766943Y-43956140D01*
X78767871Y-43956436D01*
X78768785Y-43956777D01*
X78769683Y-43957159D01*
X78770564Y-43957581D01*
X78771427Y-43958043D01*
X78772272Y-43958543D01*
X78773898Y-43959649D01*
X78775433Y-43960889D01*
X78776867Y-43962252D01*
X78778190Y-43963726D01*
X78779393Y-43965299D01*
X78780467Y-43966962D01*
X78781401Y-43968701D01*
X78781812Y-43969596D01*
X78782185Y-43970506D01*
X78782519Y-43971430D01*
X78782811Y-43972366D01*
X78783061Y-43973313D01*
X78783268Y-43974269D01*
X78783430Y-43975233D01*
X78783547Y-43976204D01*
X78783616Y-43977180D01*
X78783637Y-43978160D01*
X78783586Y-44410750D01*
X78783561Y-44411726D01*
X78783489Y-44412700D01*
X78783369Y-44413669D01*
X78783204Y-44414632D01*
X78782995Y-44415588D01*
X78782742Y-44416535D01*
X78782447Y-44417471D01*
X78782111Y-44418395D01*
X78781736Y-44419306D01*
X78781322Y-44420202D01*
X78780871Y-44421082D01*
X78780384Y-44421944D01*
X78779862Y-44422787D01*
X78779306Y-44423609D01*
X78778719Y-44424409D01*
X78778100Y-44425186D01*
X78777451Y-44425937D01*
X78776773Y-44426662D01*
X78776068Y-44427358D01*
X78775336Y-44428025D01*
X78774580Y-44428661D01*
X78773799Y-44429265D01*
X78772996Y-44429835D01*
X78772171Y-44430369D01*
X78771326Y-44430867D01*
X78770462Y-44431326D01*
X78769581Y-44431745D01*
X78768682Y-44432123D01*
X78767768Y-44432458D01*
X78766840Y-44432750D01*
X78765899Y-44432995D01*
X78764946Y-44433193D01*
X78354955Y-44509491D01*
X78353990Y-44509690D01*
X78353023Y-44509933D01*
X78352055Y-44510220D01*
X78351089Y-44510548D01*
X78349164Y-44511326D01*
X78347263Y-44512253D01*
X78345395Y-44513321D01*
X78343575Y-44514516D01*
X78341813Y-44515829D01*
X78340123Y-44517247D01*
X78338516Y-44518760D01*
X78337005Y-44520356D01*
X78335601Y-44522025D01*
X78334319Y-44523754D01*
X78333168Y-44525533D01*
X78332163Y-44527351D01*
X78331314Y-44529196D01*
X78330953Y-44530125D01*
X78330635Y-44531057D01*
X78202634Y-44850792D01*
X78201845Y-44852610D01*
X78201187Y-44854535D01*
X78200659Y-44856551D01*
X78200259Y-44858641D01*
X78199986Y-44860788D01*
X78199840Y-44862976D01*
X78199819Y-44865188D01*
X78199921Y-44867408D01*
X78200146Y-44869618D01*
X78200492Y-44871803D01*
X78200958Y-44873946D01*
X78201543Y-44876029D01*
X78202245Y-44878037D01*
X78203063Y-44879953D01*
X78203997Y-44881760D01*
X78205044Y-44883442D01*
X78437913Y-45222781D01*
X78438447Y-45223601D01*
X78438940Y-45224445D01*
X78439391Y-45225311D01*
X78439801Y-45226198D01*
X78440170Y-45227104D01*
X78440498Y-45228027D01*
X78440785Y-45228965D01*
X78441032Y-45229916D01*
X78441238Y-45230878D01*
X78441404Y-45231850D01*
X78441617Y-45233815D01*
X78441670Y-45235796D01*
X78441566Y-45237777D01*
X78441306Y-45239744D01*
X78440891Y-45241682D01*
X78440323Y-45243576D01*
X78439981Y-45244502D01*
X78439602Y-45245412D01*
X78439185Y-45246303D01*
X78438731Y-45247174D01*
X78438240Y-45248022D01*
X78437711Y-45248847D01*
X78437145Y-45249646D01*
X78436543Y-45250417D01*
X78435904Y-45251159D01*
X78435228Y-45251869D01*
X78129296Y-45557749D01*
X78128592Y-45558418D01*
X78127857Y-45559051D01*
X78127091Y-45559649D01*
X78126297Y-45560209D01*
X78125477Y-45560733D01*
X78124633Y-45561221D01*
X78122879Y-45562085D01*
X78121050Y-45562799D01*
X78119162Y-45563363D01*
X78117228Y-45563776D01*
X78115265Y-45564035D01*
X78113286Y-45564140D01*
X78111308Y-45564089D01*
X78109345Y-45563881D01*
X78107411Y-45563514D01*
X78105523Y-45562987D01*
X78104601Y-45562664D01*
X78103695Y-45562299D01*
X78102808Y-45561894D01*
X78101941Y-45561449D01*
X78101097Y-45560962D01*
X78100278Y-45560434D01*
X77766894Y-45331609D01*
X77765219Y-45330566D01*
X77763424Y-45329652D01*
X77761527Y-45328867D01*
X77759543Y-45328211D01*
X77757489Y-45327684D01*
X77755381Y-45327287D01*
X77753235Y-45327021D01*
X77751068Y-45326884D01*
X77748897Y-45326879D01*
X77746737Y-45327004D01*
X77744604Y-45327261D01*
X77742516Y-45327649D01*
X77740489Y-45328170D01*
X77738538Y-45328822D01*
X77736681Y-45329607D01*
X77734933Y-45330525D01*
X77587913Y-45409008D01*
X77587035Y-45409427D01*
X77586149Y-45409794D01*
X77585257Y-45410112D01*
X77584361Y-45410381D01*
X77583462Y-45410601D01*
X77582561Y-45410772D01*
X77581662Y-45410896D01*
X77580764Y-45410973D01*
X77579869Y-45411003D01*
X77578979Y-45410987D01*
X77578096Y-45410926D01*
X77577221Y-45410820D01*
X77576355Y-45410669D01*
X77575500Y-45410475D01*
X77574658Y-45410237D01*
X77573830Y-45409957D01*
X77573018Y-45409635D01*
X77572222Y-45409271D01*
X77571446Y-45408866D01*
X77570689Y-45408421D01*
X77569955Y-45407936D01*
X77569244Y-45407411D01*
X77568557Y-45406848D01*
X77567897Y-45406247D01*
X77567265Y-45405607D01*
X77566662Y-45404931D01*
X77566090Y-45404219D01*
X77565551Y-45403470D01*
X77565045Y-45402686D01*
X77564575Y-45401867D01*
X77564143Y-45401014D01*
X77563749Y-45400127D01*
X77260622Y-44667612D01*
X77260273Y-44666701D01*
X77259970Y-44665776D01*
X77259712Y-44664839D01*
X77259500Y-44663892D01*
X77259333Y-44662936D01*
X77259209Y-44661973D01*
X77259129Y-44661006D01*
X77259091Y-44660035D01*
X77259096Y-44659062D01*
X77259142Y-44658089D01*
X77259230Y-44657119D01*
X77259358Y-44656152D01*
X77259526Y-44655190D01*
X77259733Y-44654235D01*
X77259979Y-44653289D01*
X77260263Y-44652354D01*
X77260585Y-44651431D01*
X77260943Y-44650522D01*
X77261338Y-44649629D01*
X77261769Y-44648753D01*
X77262235Y-44647897D01*
X77262736Y-44647062D01*
X77263271Y-44646249D01*
X77263839Y-44645461D01*
X77264440Y-44644699D01*
X77265073Y-44643965D01*
X77265739Y-44643261D01*
X77266435Y-44642588D01*
X77267162Y-44641948D01*
X77267919Y-44641344D01*
X77268705Y-44640776D01*
X77269520Y-44640246D01*
X77306318Y-44617716D01*
X77308969Y-44616027D01*
X77311798Y-44614100D01*
X77314752Y-44611976D01*
X77317779Y-44609698D01*
X77320824Y-44607308D01*
X77323834Y-44604847D01*
X77326756Y-44602359D01*
X77329537Y-44599885D01*
X77353893Y-44583214D01*
X77377138Y-44565113D01*
X77399207Y-44545646D01*
X77420039Y-44524875D01*
X77439569Y-44502864D01*
X77457733Y-44479675D01*
X77474468Y-44455372D01*
X77489712Y-44430018D01*
X77503399Y-44403675D01*
X77515468Y-44376407D01*
X77525854Y-44348277D01*
X77534494Y-44319348D01*
X77541324Y-44289682D01*
X77546282Y-44259343D01*
X77549303Y-44228395D01*
X77550324Y-44196899D01*
X77549701Y-44172279D01*
X77547854Y-44147982D01*
X77544811Y-44124039D01*
X77540604Y-44100480D01*
X77535262Y-44077333D01*
X77528815Y-44054631D01*
X77521294Y-44032402D01*
X77512728Y-44010676D01*
X77503147Y-43989484D01*
X77492582Y-43968856D01*
X77481063Y-43948822D01*
X77468619Y-43929412D01*
X77455281Y-43910655D01*
X77441079Y-43892583D01*
X77426042Y-43875224D01*
X77410202Y-43858610D01*
X77393587Y-43842769D01*
X77376229Y-43827733D01*
X77358157Y-43813531D01*
X77339401Y-43800193D01*
X77319991Y-43787750D01*
X77299957Y-43776231D01*
X77279330Y-43765666D01*
X77258140Y-43756086D01*
X77236415Y-43747520D01*
X77214188Y-43739999D01*
X77191487Y-43733553D01*
X77168343Y-43728211D01*
X77144785Y-43724004D01*
X77120845Y-43720962D01*
X77096551Y-43719114D01*
X77071934Y-43718492D01*
X77047317Y-43719114D01*
X77023024Y-43720962D01*
X76999082Y-43724004D01*
X76975524Y-43728211D01*
X76952379Y-43733553D01*
X76929678Y-43739999D01*
X76907449Y-43747520D01*
X76885724Y-43756086D01*
X76864532Y-43765666D01*
X76843903Y-43776231D01*
X76823868Y-43787750D01*
X76804457Y-43800193D01*
X76785699Y-43813531D01*
X76767626Y-43827733D01*
X76750266Y-43842769D01*
X76733649Y-43858610D01*
X76717807Y-43875224D01*
X76702769Y-43892583D01*
X76688566Y-43910655D01*
X76675226Y-43929412D01*
X76662781Y-43948822D01*
X76651260Y-43968856D01*
X76640694Y-43989484D01*
X76631112Y-44010676D01*
X76622545Y-44032402D01*
X76615022Y-44054631D01*
X76608574Y-44077333D01*
X76603232Y-44100480D01*
X76599024Y-44124039D01*
X76595981Y-44147982D01*
X76594133Y-44172279D01*
X76593510Y-44196899D01*
X76593767Y-44212711D01*
X76594532Y-44228395D01*
X76595797Y-44243941D01*
X76597554Y-44259343D01*
X76599795Y-44274593D01*
X76602513Y-44289682D01*
X76605699Y-44304603D01*
X76609345Y-44319348D01*
X76613444Y-44333908D01*
X76617987Y-44348277D01*
X76622967Y-44362446D01*
X76628375Y-44376407D01*
X76634204Y-44390153D01*
X76640446Y-44403675D01*
X76654135Y-44430018D01*
X76669380Y-44455372D01*
X76686116Y-44479675D01*
X76704281Y-44502864D01*
X76723810Y-44524875D01*
X76744639Y-44545646D01*
X76766706Y-44565113D01*
X76789947Y-44583214D01*
X76814298Y-44599885D01*
X76817099Y-44602364D01*
X76820034Y-44604854D01*
X76823052Y-44607314D01*
X76826100Y-44609702D01*
X76829128Y-44611977D01*
X76832082Y-44614095D01*
X76834913Y-44616017D01*
X76837567Y-44617699D01*
X76874365Y-44640246D01*
X76875185Y-44640776D01*
X76875976Y-44641344D01*
X76876736Y-44641949D01*
X76877467Y-44642589D01*
X76878166Y-44643262D01*
X76878834Y-44643967D01*
X76880073Y-44645464D01*
X76881180Y-44647066D01*
X76882148Y-44648759D01*
X76882975Y-44650529D01*
X76883655Y-44652363D01*
X76884184Y-44654245D01*
X76884557Y-44656163D01*
X76884769Y-44658103D01*
X76884816Y-44660049D01*
X76884694Y-44661989D01*
X76884568Y-44662952D01*
X76884398Y-44663908D01*
X76884182Y-44664856D01*
X76883922Y-44665793D01*
X76883616Y-44666718D01*
X76883263Y-44667629D01*
X76580120Y-45400093D01*
X76579726Y-45400980D01*
X76579293Y-45401833D01*
X76578822Y-45402653D01*
X76578316Y-45403437D01*
X76577776Y-45404187D01*
X76577204Y-45404900D01*
X76576600Y-45405577D01*
X76575967Y-45406217D01*
X76575305Y-45406820D01*
X76574618Y-45407384D01*
X76573906Y-45407909D01*
X76573170Y-45408396D01*
X76572413Y-45408842D01*
X76571635Y-45409248D01*
X76570839Y-45409612D01*
X76570025Y-45409936D01*
X76569197Y-45410217D01*
X76568354Y-45410455D01*
X76567499Y-45410649D01*
X76566633Y-45410800D01*
X76565757Y-45410907D01*
X76564874Y-45410968D01*
X76563984Y-45410984D01*
X76563090Y-45410953D01*
X76562193Y-45410875D01*
X76561294Y-45410751D01*
X76560395Y-45410578D01*
X76559498Y-45410356D01*
X76558604Y-45410086D01*
X76557714Y-45409766D01*
X76556831Y-45409395D01*
X76555955Y-45408974D01*
X76408936Y-45330490D01*
X76407194Y-45329576D01*
X76405340Y-45328794D01*
X76403393Y-45328145D01*
X76401367Y-45327627D01*
X76399280Y-45327242D01*
X76397148Y-45326987D01*
X76394987Y-45326864D01*
X76392815Y-45326872D01*
X76390648Y-45327009D01*
X76388501Y-45327277D01*
X76386392Y-45327674D01*
X76384338Y-45328201D01*
X76382354Y-45328856D01*
X76380457Y-45329640D01*
X76378664Y-45330552D01*
X76376992Y-45331592D01*
X76043608Y-45560400D01*
X76042788Y-45560929D01*
X76041944Y-45561417D01*
X76041078Y-45561864D01*
X76040191Y-45562271D01*
X76039285Y-45562636D01*
X76038362Y-45562961D01*
X76037425Y-45563245D01*
X76036474Y-45563489D01*
X76035512Y-45563693D01*
X76034540Y-45563858D01*
X76032577Y-45564067D01*
X76030598Y-45564118D01*
X76028619Y-45564014D01*
X76026654Y-45563754D01*
X76024720Y-45563341D01*
X76022830Y-45562776D01*
X76021906Y-45562436D01*
X76020999Y-45562060D01*
X76020111Y-45561645D01*
X76019243Y-45561194D01*
X76018398Y-45560706D01*
X76017577Y-45560180D01*
X76016782Y-45559618D01*
X76016015Y-45559020D01*
X76015278Y-45558385D01*
X76014572Y-45557714D01*
X75708640Y-45251852D01*
X75707968Y-45251141D01*
X75707332Y-45250400D01*
X75706732Y-45249629D01*
X75706169Y-45248830D01*
X75705642Y-45248005D01*
X75705153Y-45247156D01*
X75704285Y-45245395D01*
X75703568Y-45243559D01*
X75703002Y-45241665D01*
X75702588Y-45239727D01*
X75702328Y-45237760D01*
X75702224Y-45235778D01*
X75702276Y-45233798D01*
X75702486Y-45231833D01*
X75702856Y-45229899D01*
X75703386Y-45228010D01*
X75703712Y-45227087D01*
X75704079Y-45226181D01*
X75704486Y-45225294D01*
X75704935Y-45224428D01*
X75705424Y-45223584D01*
X75705955Y-45222764D01*
X75938859Y-44883391D01*
X75939912Y-44881712D01*
X75940851Y-44879907D01*
X75941673Y-44877992D01*
X75942377Y-44875985D01*
X75942964Y-44873902D01*
X75943431Y-44871759D01*
X75943777Y-44869574D01*
X75944001Y-44867363D01*
X75944103Y-44865142D01*
X75944080Y-44862929D01*
X75943931Y-44860740D01*
X75943657Y-44858592D01*
X75943254Y-44856501D01*
X75942723Y-44854485D01*
X75942061Y-44852559D01*
X75941269Y-44850741D01*
X75813285Y-44531006D01*
X75812969Y-44530074D01*
X75812608Y-44529145D01*
X75811760Y-44527300D01*
X75810754Y-44525482D01*
X75809601Y-44523703D01*
X75808315Y-44521974D01*
X75806908Y-44520306D01*
X75805392Y-44518710D01*
X75803780Y-44517198D01*
X75802085Y-44515780D01*
X75800319Y-44514469D01*
X75798494Y-44513275D01*
X75796624Y-44512209D01*
X75794720Y-44511283D01*
X75792794Y-44510509D01*
X75790861Y-44509896D01*
X75789895Y-44509654D01*
X75788931Y-44509457D01*
X75378940Y-44433159D01*
X75377985Y-44432959D01*
X75377043Y-44432713D01*
X75376113Y-44432420D01*
X75375199Y-44432084D01*
X75374299Y-44431705D01*
X75373417Y-44431285D01*
X75372552Y-44430825D01*
X75371707Y-44430328D01*
X75370882Y-44429793D01*
X75370079Y-44429223D01*
X75368542Y-44427984D01*
X75367105Y-44426620D01*
X75365779Y-44425145D01*
X75364574Y-44423570D01*
X75363497Y-44421906D01*
X75362560Y-44420165D01*
X75362147Y-44419269D01*
X75361772Y-44418359D01*
X75361437Y-44417435D01*
X75361142Y-44416499D01*
X75360890Y-44415553D01*
X75360681Y-44414598D01*
X75360516Y-44413635D01*
X75360397Y-44412666D01*
X75360324Y-44411692D01*
X75360300Y-44410716D01*
X75360283Y-43978108D01*
X75360307Y-43977132D01*
X75360379Y-43976159D01*
X75360498Y-43975191D01*
X75360662Y-43974229D01*
X75360871Y-43973275D01*
X75361122Y-43972330D01*
X75361416Y-43971397D01*
X75361750Y-43970475D01*
X75362124Y-43969566D01*
X75362536Y-43968673D01*
X75362986Y-43967796D01*
X75363471Y-43966936D01*
X75363991Y-43966096D01*
X75364545Y-43965276D01*
X75365132Y-43964479D01*
X75365749Y-43963704D01*
X75366397Y-43962955D01*
X75367074Y-43962232D01*
X75367778Y-43961537D01*
X75368509Y-43960870D01*
X75369266Y-43960235D01*
X75370046Y-43959631D01*
X75370850Y-43959061D01*
X75371675Y-43958525D01*
X75372521Y-43958026D01*
X75373387Y-43957564D01*
X75374270Y-43957142D01*
X75375171Y-43956759D01*
X75376088Y-43956419D01*
X75377020Y-43956122D01*
X75377965Y-43955870D01*
X75378922Y-43955664D01*
X75799224Y-43877491D01*
X75800189Y-43877289D01*
X75801159Y-43877044D01*
X75802130Y-43876756D01*
X75803102Y-43876427D01*
X75805041Y-43875652D01*
X75806963Y-43874729D01*
X75808855Y-43873668D01*
X75810705Y-43872482D01*
X75812500Y-43871181D01*
X75814228Y-43869775D01*
X75815875Y-43868277D01*
X75817429Y-43866696D01*
X75818878Y-43865044D01*
X75820208Y-43863331D01*
X75821408Y-43861570D01*
X75822463Y-43859769D01*
X75823363Y-43857941D01*
X75823751Y-43857020D01*
X75824094Y-43856097D01*
X75952956Y-43555518D01*
X75953786Y-43553716D01*
X75954484Y-43551807D01*
X75955051Y-43549808D01*
X75955487Y-43547734D01*
X75955794Y-43545603D01*
X75955973Y-43543430D01*
X75956025Y-43541232D01*
X75955950Y-43539025D01*
X75955751Y-43536826D01*
X75955427Y-43534651D01*
X75954981Y-43532516D01*
X75954413Y-43530438D01*
X75953723Y-43528433D01*
X75952915Y-43526518D01*
X75951987Y-43524709D01*
X75950942Y-43523023D01*
X75706024Y-43166076D01*
X75705490Y-43165259D01*
X75704998Y-43164416D01*
X75704547Y-43163551D01*
X75704138Y-43162666D01*
X75703769Y-43161762D01*
X75703442Y-43160840D01*
X75703156Y-43159904D01*
X75702910Y-43158954D01*
X75702705Y-43157994D01*
X75702540Y-43157023D01*
X75702330Y-43155061D01*
X75702278Y-43153083D01*
X75702384Y-43151105D01*
X75702646Y-43149140D01*
X75703061Y-43147204D01*
X75703630Y-43145312D01*
X75703971Y-43144386D01*
X75704349Y-43143478D01*
X75704765Y-43142587D01*
X75705219Y-43141717D01*
X75705709Y-43140869D01*
X75706236Y-43140045D01*
X75706800Y-43139246D01*
X75707400Y-43138475D01*
X75708037Y-43137734D01*
X75708709Y-43137024D01*
X76014589Y-42831144D01*
X76015296Y-42830469D01*
X76016035Y-42829832D01*
X76016803Y-42829231D01*
X76017600Y-42828666D01*
X76018422Y-42828139D01*
X76019268Y-42827648D01*
X76021026Y-42826779D01*
X76022858Y-42826060D01*
X76024750Y-42825493D01*
X76026686Y-42825078D01*
X76028651Y-42824818D01*
X76030631Y-42824714D01*
X76032610Y-42824767D01*
X76034574Y-42824978D01*
X76036508Y-42825349D01*
X76038397Y-42825881D01*
X76039319Y-42826208D01*
X76040225Y-42826576D01*
X76041112Y-42826985D01*
X76041979Y-42827435D01*
X76042823Y-42827926D01*
X76043642Y-42828459D01*
X76406836Y-43077713D01*
X76408510Y-43078763D01*
X76410311Y-43079698D01*
X76412223Y-43080517D01*
X76414230Y-43081218D01*
X76416313Y-43081801D01*
X76418457Y-43082265D01*
X76420644Y-43082607D01*
X76422858Y-43082827D01*
X76425081Y-43082924D01*
X76427296Y-43082897D01*
X76429487Y-43082744D01*
X76431637Y-43082465D01*
X76433729Y-43082057D01*
X76435746Y-43081520D01*
X76437670Y-43080853D01*
X76439486Y-43080054D01*
X76730892Y-42960779D01*
X76732745Y-42960077D01*
X76734581Y-42959205D01*
X76736388Y-42958175D01*
X76738157Y-42957000D01*
X76739874Y-42955693D01*
X76741532Y-42954266D01*
X76743117Y-42952732D01*
X76744620Y-42951105D01*
X76746029Y-42949395D01*
X76747334Y-42947616D01*
X76748524Y-42945781D01*
X76749589Y-42943902D01*
X76750516Y-42941992D01*
X76751296Y-42940064D01*
X76751918Y-42938129D01*
X76752371Y-42936202D01*
X76833265Y-42501443D01*
X76833466Y-42500487D01*
X76833714Y-42499543D01*
X76834007Y-42498613D01*
X76834344Y-42497697D01*
X76834723Y-42496797D01*
X76835143Y-42495914D01*
X76835603Y-42495049D01*
X76836100Y-42494203D01*
X76836634Y-42493378D01*
X76837204Y-42492574D01*
X76838441Y-42491037D01*
X76839802Y-42489601D01*
X76841274Y-42488276D01*
X76842846Y-42487071D01*
X76844506Y-42485996D01*
X76846243Y-42485060D01*
X76847137Y-42484647D01*
X76848046Y-42484273D01*
X76848967Y-42483938D01*
X76849901Y-42483644D01*
X76850845Y-42483392D01*
X76851799Y-42483183D01*
X76852760Y-42483019D01*
X76853727Y-42482900D01*
X76854699Y-42482827D01*
X76855674Y-42482803D01*
X77288281Y-42482803D01*
X77289258Y-42482827D01*
G37*
G36*
X54024232Y-60611710D02*
G01*
X54101109Y-60629735D01*
X54180949Y-60650247D01*
X54261349Y-60672335D01*
X54339905Y-60695090D01*
X54414215Y-60717601D01*
X54540481Y-60758255D01*
X54605458Y-60781909D01*
X54665008Y-60806514D01*
X54719302Y-60832308D01*
X54768509Y-60859529D01*
X54791259Y-60873751D01*
X54812801Y-60888418D01*
X54833157Y-60903563D01*
X54852348Y-60919213D01*
X54870395Y-60935400D01*
X54887319Y-60952153D01*
X54903142Y-60969502D01*
X54917886Y-60987477D01*
X54931571Y-61006108D01*
X54944219Y-61025424D01*
X54955850Y-61045456D01*
X54966487Y-61066233D01*
X54976151Y-61087785D01*
X54984863Y-61110142D01*
X54992644Y-61133335D01*
X54999515Y-61157392D01*
X55005498Y-61182344D01*
X55010615Y-61208220D01*
X55018332Y-61262866D01*
X55022838Y-61321569D01*
X55024302Y-61384567D01*
X55023693Y-61415737D01*
X55021886Y-61445664D01*
X55018909Y-61474340D01*
X55014789Y-61501757D01*
X55009554Y-61527907D01*
X55003233Y-61552780D01*
X54995853Y-61576369D01*
X54987442Y-61598664D01*
X54978029Y-61619658D01*
X54967640Y-61639342D01*
X54956305Y-61657707D01*
X54944051Y-61674745D01*
X54930906Y-61690448D01*
X54916898Y-61704807D01*
X54902055Y-61717813D01*
X54886405Y-61729458D01*
X54869976Y-61739733D01*
X54852795Y-61748631D01*
X54834892Y-61756142D01*
X54816293Y-61762258D01*
X54797026Y-61766970D01*
X54777121Y-61770271D01*
X54756604Y-61772151D01*
X54735503Y-61772602D01*
X54713847Y-61771616D01*
X54691664Y-61769184D01*
X54668980Y-61765298D01*
X54645826Y-61759949D01*
X54622227Y-61753128D01*
X54598213Y-61744828D01*
X54573811Y-61735039D01*
X54549049Y-61723753D01*
X54549049Y-61092026D01*
X54548878Y-61078195D01*
X54548325Y-61064565D01*
X54547327Y-61051199D01*
X54545823Y-61038160D01*
X54543751Y-61025512D01*
X54541048Y-61013317D01*
X54537654Y-61001640D01*
X54533505Y-60990541D01*
X54528541Y-60980086D01*
X54525734Y-60975119D01*
X54522700Y-60970336D01*
X54519430Y-60965746D01*
X54515919Y-60961356D01*
X54512156Y-60957174D01*
X54508136Y-60953208D01*
X54503850Y-60949465D01*
X54499290Y-60945955D01*
X54494449Y-60942683D01*
X54489319Y-60939660D01*
X54483893Y-60936891D01*
X54478161Y-60934386D01*
X54472118Y-60932152D01*
X54465755Y-60930198D01*
X54460817Y-60928791D01*
X54455999Y-60927766D01*
X54451306Y-60927116D01*
X54446737Y-60926833D01*
X54442297Y-60926910D01*
X54437987Y-60927338D01*
X54433809Y-60928110D01*
X54429767Y-60929219D01*
X54425862Y-60930656D01*
X54422097Y-60932414D01*
X54418473Y-60934486D01*
X54414994Y-60936863D01*
X54411662Y-60939538D01*
X54408479Y-60942503D01*
X54405448Y-60945751D01*
X54402570Y-60949273D01*
X54399848Y-60953063D01*
X54397285Y-60957113D01*
X54394883Y-60961414D01*
X54392644Y-60965960D01*
X54390571Y-60970741D01*
X54388666Y-60975752D01*
X54386931Y-60980984D01*
X54385368Y-60986429D01*
X54383981Y-60992081D01*
X54382771Y-60997930D01*
X54381740Y-61003969D01*
X54380892Y-61010192D01*
X54380228Y-61016589D01*
X54379751Y-61023154D01*
X54379463Y-61029878D01*
X54379367Y-61036755D01*
X54379367Y-62618750D01*
X53952722Y-62483337D01*
X53952722Y-60597080D01*
X54024232Y-60611710D01*
G37*
G36*
X54988230Y-61845613D02*
G01*
X55026431Y-61847428D01*
X55064814Y-61850275D01*
X55103245Y-61854153D01*
X55141592Y-61859066D01*
X55179722Y-61865012D01*
X55217501Y-61871994D01*
X55254799Y-61880012D01*
X55291481Y-61889067D01*
X55327415Y-61899162D01*
X55362468Y-61910295D01*
X55396508Y-61922470D01*
X55414857Y-61928519D01*
X55432179Y-61934734D01*
X55448493Y-61941104D01*
X55463818Y-61947618D01*
X55478174Y-61954265D01*
X55491578Y-61961035D01*
X55504052Y-61967917D01*
X55515613Y-61974898D01*
X55526281Y-61981970D01*
X55536076Y-61989121D01*
X55545016Y-61996339D01*
X55553120Y-62003615D01*
X55560409Y-62010937D01*
X55566900Y-62018295D01*
X55572614Y-62025677D01*
X55577569Y-62033072D01*
X55581784Y-62040471D01*
X55585280Y-62047861D01*
X55588074Y-62055233D01*
X55590187Y-62062574D01*
X55591637Y-62069875D01*
X55592443Y-62077124D01*
X55592625Y-62084311D01*
X55592203Y-62091425D01*
X55591194Y-62098454D01*
X55589619Y-62105388D01*
X55587496Y-62112217D01*
X55584845Y-62118928D01*
X55581685Y-62125512D01*
X55578036Y-62131958D01*
X55573915Y-62138253D01*
X55569343Y-62144389D01*
X55564335Y-62150386D01*
X55558929Y-62156269D01*
X55547068Y-62167675D01*
X55534053Y-62178567D01*
X55520175Y-62188904D01*
X55505729Y-62198646D01*
X55491005Y-62207753D01*
X55476295Y-62216183D01*
X55461894Y-62223898D01*
X55435181Y-62237017D01*
X55413206Y-62246788D01*
X55392819Y-62254992D01*
X54460281Y-62589954D01*
X54460281Y-62342927D01*
X55146565Y-62098399D01*
X55153673Y-62095750D01*
X55160393Y-62093039D01*
X55166723Y-62090271D01*
X55172662Y-62087453D01*
X55178208Y-62084589D01*
X55183359Y-62081685D01*
X55188113Y-62078747D01*
X55192469Y-62075780D01*
X55196425Y-62072790D01*
X55199980Y-62069782D01*
X55203131Y-62066762D01*
X55205877Y-62063735D01*
X55208217Y-62060707D01*
X55210148Y-62057684D01*
X55211668Y-62054670D01*
X55212777Y-62051672D01*
X55213472Y-62048695D01*
X55213752Y-62045745D01*
X55213614Y-62042827D01*
X55213058Y-62039947D01*
X55212082Y-62037110D01*
X55210683Y-62034322D01*
X55208861Y-62031588D01*
X55206613Y-62028914D01*
X55203937Y-62026306D01*
X55200833Y-62023768D01*
X55197297Y-62021307D01*
X55193330Y-62018928D01*
X55188928Y-62016637D01*
X55184090Y-62014439D01*
X55178815Y-62012340D01*
X55173101Y-62010345D01*
X55160675Y-62006764D01*
X55147177Y-62003802D01*
X55132735Y-62001452D01*
X55117478Y-61999708D01*
X55101534Y-61998563D01*
X55085032Y-61998010D01*
X55068100Y-61998043D01*
X55050866Y-61998654D01*
X55033460Y-61999837D01*
X55016010Y-62001584D01*
X54998643Y-62003890D01*
X54981489Y-62006747D01*
X54964675Y-62010149D01*
X54948332Y-62014088D01*
X54932586Y-62018559D01*
X54917566Y-62023553D01*
X54460281Y-62184608D01*
X54460281Y-61928241D01*
X54486637Y-61919316D01*
X54510188Y-61911688D01*
X54538246Y-61903434D01*
X54575933Y-61893361D01*
X54598101Y-61887909D01*
X54622330Y-61882323D01*
X54648508Y-61876709D01*
X54676518Y-61871175D01*
X54706245Y-61865827D01*
X54737575Y-61860771D01*
X54770393Y-61856116D01*
X54804583Y-61851967D01*
X54839889Y-61848642D01*
X54876039Y-61846343D01*
X54912900Y-61845071D01*
X54950342Y-61844827D01*
X54988230Y-61845613D01*
G37*
G36*
X53869844Y-61985238D02*
G01*
X53429634Y-62142783D01*
X53422537Y-62145432D01*
X53415827Y-62148143D01*
X53409507Y-62150911D01*
X53403576Y-62153731D01*
X53398039Y-62156596D01*
X53392895Y-62159502D01*
X53388147Y-62162442D01*
X53383797Y-62165411D01*
X53379846Y-62168403D01*
X53376296Y-62171413D01*
X53373149Y-62174436D01*
X53370406Y-62177465D01*
X53368069Y-62180496D01*
X53366140Y-62183522D01*
X53364620Y-62186538D01*
X53363512Y-62189539D01*
X53362816Y-62192519D01*
X53362536Y-62195472D01*
X53362671Y-62198392D01*
X53363225Y-62201275D01*
X53364198Y-62204115D01*
X53365593Y-62206905D01*
X53367411Y-62209641D01*
X53369654Y-62212318D01*
X53372323Y-62214928D01*
X53375421Y-62217467D01*
X53378949Y-62219930D01*
X53382909Y-62222310D01*
X53387302Y-62224602D01*
X53392130Y-62226801D01*
X53397395Y-62228901D01*
X53403099Y-62230896D01*
X53415536Y-62234468D01*
X53429045Y-62237423D01*
X53443498Y-62239767D01*
X53458765Y-62241509D01*
X53474718Y-62242653D01*
X53491229Y-62243208D01*
X53508168Y-62243178D01*
X53525408Y-62242572D01*
X53542819Y-62241396D01*
X53560273Y-62239655D01*
X53577641Y-62237358D01*
X53594795Y-62234510D01*
X53611605Y-62231119D01*
X53627945Y-62227190D01*
X53643683Y-62222731D01*
X53658693Y-62217747D01*
X53869844Y-62141117D01*
X53869844Y-62362977D01*
X53859556Y-62364761D01*
X53848939Y-62366539D01*
X53827721Y-62370057D01*
X53787962Y-62375952D01*
X53747906Y-62380686D01*
X53707578Y-62384245D01*
X53667002Y-62386615D01*
X53626204Y-62387782D01*
X53585209Y-62387731D01*
X53544040Y-62386448D01*
X53502725Y-62383919D01*
X53461286Y-62380130D01*
X53419750Y-62375065D01*
X53378141Y-62368711D01*
X53336484Y-62361054D01*
X53294804Y-62352079D01*
X53253126Y-62341773D01*
X53211475Y-62330119D01*
X53169875Y-62317105D01*
X53169875Y-62317106D01*
X53151007Y-62311469D01*
X53133140Y-62305484D01*
X53116266Y-62299172D01*
X53100378Y-62292553D01*
X53085466Y-62285648D01*
X53071524Y-62278479D01*
X53058544Y-62271065D01*
X53046516Y-62263429D01*
X53035434Y-62255591D01*
X53025289Y-62247572D01*
X53016073Y-62239394D01*
X53007778Y-62231076D01*
X53000397Y-62222640D01*
X52993921Y-62214108D01*
X52988342Y-62205499D01*
X52983653Y-62196835D01*
X52979845Y-62188137D01*
X52976910Y-62179425D01*
X52974840Y-62170722D01*
X52973628Y-62162047D01*
X52973265Y-62153422D01*
X52973744Y-62144867D01*
X52975055Y-62136404D01*
X52977192Y-62128054D01*
X52980146Y-62119837D01*
X52983910Y-62111775D01*
X52988475Y-62103888D01*
X52993833Y-62096197D01*
X52999977Y-62088724D01*
X53006898Y-62081489D01*
X53014588Y-62074513D01*
X53023039Y-62067818D01*
X53040023Y-62055920D01*
X53058131Y-62044444D01*
X53077055Y-62033437D01*
X53096490Y-62022947D01*
X53116129Y-62013022D01*
X53135667Y-62003709D01*
X53173214Y-61987112D01*
X53206681Y-61973538D01*
X53233618Y-61963369D01*
X53258107Y-61954776D01*
X53869844Y-61737259D01*
X53869844Y-61985238D01*
G37*
D11*
G36*
X52859622Y-63020031D02*
G01*
X52859509Y-63002667D01*
X52859161Y-62986146D01*
X52858566Y-62970448D01*
X52857713Y-62955556D01*
X52856587Y-62941448D01*
X52855178Y-62928107D01*
X52853473Y-62915513D01*
X52851459Y-62903647D01*
X52849124Y-62892490D01*
X52846456Y-62882023D01*
X52843442Y-62872226D01*
X52840070Y-62863081D01*
X52836328Y-62854569D01*
X52832203Y-62846670D01*
X52827683Y-62839365D01*
X52822756Y-62832635D01*
X52817410Y-62826462D01*
X52811631Y-62820825D01*
X52805408Y-62815705D01*
X52798728Y-62811085D01*
X52791579Y-62806944D01*
X52783949Y-62803263D01*
X52775825Y-62800024D01*
X52767195Y-62797207D01*
X52758047Y-62794793D01*
X52748367Y-62792762D01*
X52738145Y-62791097D01*
X52727367Y-62789777D01*
X52716022Y-62788784D01*
X52704096Y-62788098D01*
X52691578Y-62787701D01*
X52678455Y-62787572D01*
X52404781Y-62787572D01*
X52404781Y-63537887D01*
X52526780Y-63537887D01*
X52526780Y-62862311D01*
X52665815Y-62862311D01*
X52676487Y-62862606D01*
X52686140Y-62863576D01*
X52694820Y-62865345D01*
X52702572Y-62868038D01*
X52709441Y-62871780D01*
X52715474Y-62876695D01*
X52720716Y-62882908D01*
X52725212Y-62890544D01*
X52729008Y-62899728D01*
X52732151Y-62910584D01*
X52734684Y-62923238D01*
X52736655Y-62937813D01*
X52737444Y-62945861D01*
X52738108Y-62954436D01*
X52738655Y-62963554D01*
X52739090Y-62973230D01*
X52739418Y-62983481D01*
X52739646Y-62994321D01*
X52739778Y-63005766D01*
X52739821Y-63017832D01*
X52739778Y-63029876D01*
X52739648Y-63041289D01*
X52739423Y-63052088D01*
X52739098Y-63062288D01*
X52738667Y-63071906D01*
X52738124Y-63080958D01*
X52737464Y-63089461D01*
X52736681Y-63097431D01*
X52735768Y-63104884D01*
X52733533Y-63118305D01*
X52730712Y-63129854D01*
X52727259Y-63139662D01*
X52723127Y-63147859D01*
X52718270Y-63154575D01*
X52712641Y-63159942D01*
X52706194Y-63164089D01*
X52698882Y-63167147D01*
X52690660Y-63169247D01*
X52681481Y-63170517D01*
X52671298Y-63171090D01*
X52665815Y-63171156D01*
X52558104Y-63171156D01*
X52558104Y-63244795D01*
X52678455Y-63244795D01*
X52691545Y-63244690D01*
X52704036Y-63244360D01*
X52715937Y-63243783D01*
X52727262Y-63242936D01*
X52738023Y-63241798D01*
X52748231Y-63240347D01*
X52757900Y-63238559D01*
X52767040Y-63236415D01*
X52775665Y-63233890D01*
X52783787Y-63230963D01*
X52791417Y-63227611D01*
X52798567Y-63223814D01*
X52805250Y-63219547D01*
X52811479Y-63214791D01*
X52817264Y-63209521D01*
X52822619Y-63203716D01*
X52827555Y-63197355D01*
X52832085Y-63190414D01*
X52836220Y-63182872D01*
X52839973Y-63174706D01*
X52843357Y-63165895D01*
X52846382Y-63156416D01*
X52849061Y-63146247D01*
X52851407Y-63135367D01*
X52853432Y-63123752D01*
X52855147Y-63111380D01*
X52856565Y-63098231D01*
X52857698Y-63084280D01*
X52858558Y-63069507D01*
X52859157Y-63053889D01*
X52859508Y-63037405D01*
X52859622Y-63020031D01*
G37*
G36*
X53323439Y-63311473D02*
G01*
X53323283Y-63295885D01*
X53322812Y-63281052D01*
X53322026Y-63266956D01*
X53320923Y-63253581D01*
X53319501Y-63240909D01*
X53317759Y-63228924D01*
X53315695Y-63217608D01*
X53313307Y-63206945D01*
X53310594Y-63196917D01*
X53307554Y-63187508D01*
X53304185Y-63178700D01*
X53300487Y-63170476D01*
X53296457Y-63162820D01*
X53292093Y-63155713D01*
X53287395Y-63149140D01*
X53282360Y-63143083D01*
X53276988Y-63137525D01*
X53271275Y-63132450D01*
X53265221Y-63127839D01*
X53258824Y-63123676D01*
X53252083Y-63119944D01*
X53244996Y-63116626D01*
X53237560Y-63113705D01*
X53229776Y-63111164D01*
X53221640Y-63108985D01*
X53213152Y-63107152D01*
X53204310Y-63105648D01*
X53195111Y-63104456D01*
X53185556Y-63103558D01*
X53175641Y-63102938D01*
X53165366Y-63102579D01*
X53154728Y-63102463D01*
X53080173Y-63102463D01*
X53067590Y-63102227D01*
X53056372Y-63101460D01*
X53046444Y-63100075D01*
X53037729Y-63097983D01*
X53030151Y-63095096D01*
X53023633Y-63091325D01*
X53015677Y-63083818D01*
X53011475Y-63077452D01*
X53008065Y-63069893D01*
X53005372Y-63061053D01*
X53003318Y-63050844D01*
X53001827Y-63039177D01*
X53000823Y-63025965D01*
X53000229Y-63011119D01*
X53000062Y-63003055D01*
X52999968Y-62994550D01*
X52999939Y-62985592D01*
X53000013Y-62976455D01*
X53000233Y-62967756D01*
X53000601Y-62959484D01*
X53001118Y-62951632D01*
X53001785Y-62944188D01*
X53003573Y-62930488D01*
X53005974Y-62918306D01*
X53008994Y-62907567D01*
X53012643Y-62898190D01*
X53016927Y-62890101D01*
X53021856Y-62883219D01*
X53027438Y-62877469D01*
X53033680Y-62872773D01*
X53040590Y-62869053D01*
X53048176Y-62866231D01*
X53056448Y-62864230D01*
X53065411Y-62862973D01*
X53075076Y-62862381D01*
X53080173Y-62862311D01*
X53264638Y-62862311D01*
X53264638Y-62787572D01*
X53053978Y-62787572D01*
X53042747Y-62787807D01*
X53031961Y-62788506D01*
X53021612Y-62789665D01*
X53011696Y-62791279D01*
X53002207Y-62793343D01*
X52993139Y-62795852D01*
X52984486Y-62798801D01*
X52976243Y-62802184D01*
X52968404Y-62805997D01*
X52960962Y-62810234D01*
X52953913Y-62814891D01*
X52947251Y-62819962D01*
X52940970Y-62825443D01*
X52935064Y-62831328D01*
X52929527Y-62837612D01*
X52924354Y-62844290D01*
X52919539Y-62851358D01*
X52915076Y-62858809D01*
X52910959Y-62866639D01*
X52907184Y-62874843D01*
X52903743Y-62883416D01*
X52900632Y-62892353D01*
X52897844Y-62901649D01*
X52895374Y-62911298D01*
X52893216Y-62921295D01*
X52891364Y-62931637D01*
X52889813Y-62942316D01*
X52888557Y-62953329D01*
X52887590Y-62964670D01*
X52886906Y-62976335D01*
X52886500Y-62988318D01*
X52886366Y-63000613D01*
X52886484Y-63014735D01*
X52886839Y-63028288D01*
X52887439Y-63041280D01*
X52888287Y-63053720D01*
X52889390Y-63065615D01*
X52890753Y-63076973D01*
X52892382Y-63087802D01*
X52894280Y-63098109D01*
X52896456Y-63107903D01*
X52898912Y-63117192D01*
X52901656Y-63125983D01*
X52904691Y-63134285D01*
X52908025Y-63142105D01*
X52911662Y-63149451D01*
X52915607Y-63156331D01*
X52919866Y-63162752D01*
X52924444Y-63168724D01*
X52929347Y-63174253D01*
X52940149Y-63184015D01*
X52952315Y-63192103D01*
X52958923Y-63195538D01*
X52965888Y-63198579D01*
X52973215Y-63201232D01*
X52980910Y-63203506D01*
X52988979Y-63205408D01*
X52997426Y-63206947D01*
X53006257Y-63208130D01*
X53015478Y-63208965D01*
X53025094Y-63209461D01*
X53035110Y-63209624D01*
X53114978Y-63209624D01*
X53122406Y-63209671D01*
X53136110Y-63210084D01*
X53148345Y-63211012D01*
X53159190Y-63212558D01*
X53168725Y-63214830D01*
X53177028Y-63217931D01*
X53184180Y-63221966D01*
X53190259Y-63227042D01*
X53195346Y-63233263D01*
X53199519Y-63240735D01*
X53202858Y-63249562D01*
X53205443Y-63259850D01*
X53207353Y-63271704D01*
X53208666Y-63285229D01*
X53209125Y-63292651D01*
X53209464Y-63300531D01*
X53209694Y-63308881D01*
X53209825Y-63317714D01*
X53209866Y-63327044D01*
X53209788Y-63337653D01*
X53209554Y-63347713D01*
X53209162Y-63357239D01*
X53208612Y-63366244D01*
X53207902Y-63374742D01*
X53207033Y-63382747D01*
X53206003Y-63390273D01*
X53203457Y-63403944D01*
X53200257Y-63415864D01*
X53196396Y-63426146D01*
X53191867Y-63434900D01*
X53186663Y-63442238D01*
X53180777Y-63448270D01*
X53174203Y-63453108D01*
X53166933Y-63456862D01*
X53158960Y-63459645D01*
X53150277Y-63461566D01*
X53140877Y-63462738D01*
X53130754Y-63463270D01*
X53125419Y-63463331D01*
X52905417Y-63463331D01*
X52905417Y-63537887D01*
X53146485Y-63537887D01*
X53158162Y-63537669D01*
X53169392Y-63537016D01*
X53180182Y-63535927D01*
X53190536Y-63534401D01*
X53200458Y-63532438D01*
X53209955Y-63530037D01*
X53219030Y-63527196D01*
X53227689Y-63523916D01*
X53235937Y-63520196D01*
X53243778Y-63516034D01*
X53251218Y-63511431D01*
X53258261Y-63506385D01*
X53264912Y-63500896D01*
X53271177Y-63494964D01*
X53277060Y-63488587D01*
X53282566Y-63481764D01*
X53287701Y-63474496D01*
X53292468Y-63466780D01*
X53296873Y-63458618D01*
X53300922Y-63450007D01*
X53304618Y-63440948D01*
X53307966Y-63431439D01*
X53310973Y-63421480D01*
X53313642Y-63411070D01*
X53315978Y-63400209D01*
X53317987Y-63388895D01*
X53319674Y-63377128D01*
X53321042Y-63364907D01*
X53322098Y-63352232D01*
X53322846Y-63339102D01*
X53323292Y-63325516D01*
X53323439Y-63311473D01*
G37*
G36*
X53360991Y-62787572D02*
G01*
X53515963Y-63138183D01*
X53352748Y-63537887D01*
X53447636Y-63537887D01*
X53564324Y-63235453D01*
X53681011Y-63537887D01*
X53813634Y-63537887D01*
X53645290Y-63134886D01*
X53796965Y-62787572D01*
X53702260Y-62787572D01*
X53597846Y-63038532D01*
X53493615Y-62787572D01*
X53360991Y-62787572D01*
G37*
G36*
X54031438Y-63463331D02*
G01*
X54031438Y-63537887D01*
X54156002Y-63537887D01*
X54167835Y-63537733D01*
X54179129Y-63537268D01*
X54189894Y-63536486D01*
X54200140Y-63535383D01*
X54209879Y-63533954D01*
X54219121Y-63532192D01*
X54227877Y-63530093D01*
X54236158Y-63527651D01*
X54243975Y-63524862D01*
X54251337Y-63521719D01*
X54258257Y-63518219D01*
X54264744Y-63514355D01*
X54270810Y-63510122D01*
X54281721Y-63500529D01*
X54291076Y-63489399D01*
X54295196Y-63483245D01*
X54298960Y-63476690D01*
X54302378Y-63469730D01*
X54305460Y-63462359D01*
X54308218Y-63454573D01*
X54310662Y-63446365D01*
X54312803Y-63437732D01*
X54314652Y-63428666D01*
X54316219Y-63419165D01*
X54317516Y-63409221D01*
X54318553Y-63398830D01*
X54319340Y-63387986D01*
X54319890Y-63376685D01*
X54320211Y-63364921D01*
X54320316Y-63352689D01*
X54320316Y-63125360D01*
X54320211Y-63113128D01*
X54319890Y-63101362D01*
X54319340Y-63090059D01*
X54318553Y-63079212D01*
X54317516Y-63068817D01*
X54316219Y-63058868D01*
X54314652Y-63049361D01*
X54312803Y-63040289D01*
X54310662Y-63031649D01*
X54308218Y-63023434D01*
X54305460Y-63015640D01*
X54302378Y-63008262D01*
X54298960Y-63001294D01*
X54295196Y-62994730D01*
X54291076Y-62988567D01*
X54281721Y-62977420D01*
X54270810Y-62967811D01*
X54264744Y-62963570D01*
X54258257Y-62959698D01*
X54251337Y-62956190D01*
X54243975Y-62953040D01*
X54236158Y-62950244D01*
X54227877Y-62947796D01*
X54219121Y-62945691D01*
X54209879Y-62943925D01*
X54200140Y-62942491D01*
X54189894Y-62941385D01*
X54179129Y-62940601D01*
X54167835Y-62940134D01*
X54156002Y-62939980D01*
X53866574Y-62939980D01*
X53866574Y-63772360D01*
X53985459Y-63772360D01*
X53985459Y-63014718D01*
X54118266Y-63014718D01*
X54131036Y-63014899D01*
X54142464Y-63015504D01*
X54152623Y-63016627D01*
X54161583Y-63018362D01*
X54169416Y-63020802D01*
X54176194Y-63024040D01*
X54184537Y-63030601D01*
X54190907Y-63039485D01*
X54194176Y-63046856D01*
X54196746Y-63055493D01*
X54198689Y-63065491D01*
X54200076Y-63076944D01*
X54200978Y-63089944D01*
X54201467Y-63104586D01*
X54201579Y-63112552D01*
X54201614Y-63120964D01*
X54201614Y-63356903D01*
X54201579Y-63365315D01*
X54201467Y-63373282D01*
X54201270Y-63380817D01*
X54200583Y-63394634D01*
X54199447Y-63406859D01*
X54197792Y-63417586D01*
X54195544Y-63426906D01*
X54192633Y-63434915D01*
X54188988Y-63441703D01*
X54181987Y-63449804D01*
X54172933Y-63455684D01*
X54165636Y-63458527D01*
X54157248Y-63460615D01*
X54147698Y-63462042D01*
X54136913Y-63462902D01*
X54124823Y-63463288D01*
X54118266Y-63463331D01*
X54031438Y-63463331D01*
G37*
G36*
X54400916Y-63125177D02*
G01*
X54400916Y-63537887D01*
X54519802Y-63537887D01*
X54519802Y-63120964D01*
X54519837Y-63112569D01*
X54519949Y-63104617D01*
X54520146Y-63097097D01*
X54520833Y-63083306D01*
X54521968Y-63071103D01*
X54523624Y-63060396D01*
X54525872Y-63051092D01*
X54528782Y-63043097D01*
X54532427Y-63036319D01*
X54539428Y-63028230D01*
X54548483Y-63022358D01*
X54555779Y-63019519D01*
X54564167Y-63017433D01*
X54573718Y-63016007D01*
X54584502Y-63015147D01*
X54596593Y-63014762D01*
X54603149Y-63014718D01*
X54680452Y-63014718D01*
X54680452Y-62939980D01*
X54565414Y-62939980D01*
X54553580Y-62940134D01*
X54542284Y-62940601D01*
X54531517Y-62941384D01*
X54521267Y-62942491D01*
X54511524Y-62943924D01*
X54502277Y-62945690D01*
X54493516Y-62947794D01*
X54485229Y-62950241D01*
X54477406Y-62953036D01*
X54470036Y-62956184D01*
X54463109Y-62959690D01*
X54456613Y-62963560D01*
X54450539Y-62967798D01*
X54439611Y-62977401D01*
X54430240Y-62988540D01*
X54426111Y-62994698D01*
X54422339Y-63001255D01*
X54418913Y-63008217D01*
X54415823Y-63015589D01*
X54413057Y-63023375D01*
X54410606Y-63031581D01*
X54408458Y-63040212D01*
X54406603Y-63049273D01*
X54405030Y-63058770D01*
X54403729Y-63068707D01*
X54402688Y-63079089D01*
X54401897Y-63089922D01*
X54401345Y-63101211D01*
X54401022Y-63112961D01*
X54400916Y-63125177D01*
G37*
G36*
X54997357Y-63291690D02*
G01*
X55009192Y-63291537D01*
X55020487Y-63291081D01*
X55031254Y-63290324D01*
X55041504Y-63289268D01*
X55051247Y-63287916D01*
X55060494Y-63286269D01*
X55069255Y-63284331D01*
X55077542Y-63282104D01*
X55085365Y-63279590D01*
X55092735Y-63276792D01*
X55099663Y-63273711D01*
X55112232Y-63266713D01*
X55123160Y-63258616D01*
X55132532Y-63249437D01*
X55140433Y-63239197D01*
X55146949Y-63227915D01*
X55152165Y-63215608D01*
X55156168Y-63202298D01*
X55159043Y-63188002D01*
X55160084Y-63180490D01*
X55160875Y-63172739D01*
X55161426Y-63164751D01*
X55161750Y-63156529D01*
X55161855Y-63148075D01*
X55161855Y-63083778D01*
X55161750Y-63075323D01*
X55161426Y-63067100D01*
X55160875Y-63059109D01*
X55160084Y-63051355D01*
X55159043Y-63043839D01*
X55157741Y-63036564D01*
X55154313Y-63022747D01*
X55149714Y-63009922D01*
X55143858Y-62998110D01*
X55136661Y-62987330D01*
X55128035Y-62977601D01*
X55117896Y-62968944D01*
X55106158Y-62961377D01*
X55092735Y-62954921D01*
X55085365Y-62952115D01*
X55077542Y-62949594D01*
X55069255Y-62947361D01*
X55060494Y-62945417D01*
X55051247Y-62943766D01*
X55041504Y-62942410D01*
X55031254Y-62941350D01*
X55020487Y-62940591D01*
X55009192Y-62940133D01*
X54997357Y-62939980D01*
X54877739Y-62939980D01*
X54865905Y-62940134D01*
X54854610Y-62940601D01*
X54843843Y-62941384D01*
X54833593Y-62942490D01*
X54823850Y-62943923D01*
X54814603Y-62945688D01*
X54805841Y-62947790D01*
X54797554Y-62950235D01*
X54789731Y-62953028D01*
X54782361Y-62956173D01*
X54775434Y-62959675D01*
X54768939Y-62963541D01*
X54762865Y-62967774D01*
X54751937Y-62977363D01*
X54742565Y-62988485D01*
X54738436Y-62994633D01*
X54734664Y-63001179D01*
X54731238Y-63008128D01*
X54728148Y-63015485D01*
X54725383Y-63023256D01*
X54722932Y-63031445D01*
X54720784Y-63040058D01*
X54718929Y-63049099D01*
X54717356Y-63058573D01*
X54716054Y-63068487D01*
X54715013Y-63078844D01*
X54714222Y-63089650D01*
X54713670Y-63100909D01*
X54713347Y-63112628D01*
X54713242Y-63124811D01*
X54713242Y-63351957D01*
X54713347Y-63364255D01*
X54713670Y-63376082D01*
X54714222Y-63387441D01*
X54715013Y-63398339D01*
X54716054Y-63408781D01*
X54717356Y-63418772D01*
X54718929Y-63428317D01*
X54720784Y-63437423D01*
X54722932Y-63446093D01*
X54725383Y-63454335D01*
X54728148Y-63462152D01*
X54731238Y-63469551D01*
X54734664Y-63476537D01*
X54738436Y-63483114D01*
X54742565Y-63489290D01*
X54751937Y-63500454D01*
X54762865Y-63510073D01*
X54768939Y-63514316D01*
X54775434Y-63518189D01*
X54782361Y-63521697D01*
X54789731Y-63524846D01*
X54797554Y-63527640D01*
X54805841Y-63530085D01*
X54814603Y-63532187D01*
X54823850Y-63533951D01*
X54833593Y-63535382D01*
X54843843Y-63536486D01*
X54854610Y-63537268D01*
X54865905Y-63537733D01*
X54877739Y-63537887D01*
X55119906Y-63537887D01*
X55119906Y-63463331D01*
X54915475Y-63463331D01*
X54902705Y-63463148D01*
X54891277Y-63462536D01*
X54881118Y-63461401D01*
X54872158Y-63459648D01*
X54864325Y-63457183D01*
X54857547Y-63453913D01*
X54849204Y-63447290D01*
X54842834Y-63438325D01*
X54839565Y-63430890D01*
X54836995Y-63422178D01*
X54835052Y-63412095D01*
X54833665Y-63400547D01*
X54832763Y-63387439D01*
X54832274Y-63372678D01*
X54832162Y-63364648D01*
X54832127Y-63356170D01*
X54832127Y-63120598D01*
X54832162Y-63112219D01*
X54832274Y-63104285D01*
X54832472Y-63096782D01*
X54833158Y-63083025D01*
X54834294Y-63070855D01*
X54835950Y-63060180D01*
X54838197Y-63050907D01*
X54841108Y-63042941D01*
X54844753Y-63036191D01*
X54851754Y-63028141D01*
X54860808Y-63022300D01*
X54868105Y-63019480D01*
X54876493Y-63017409D01*
X54886043Y-63015994D01*
X54896828Y-63015143D01*
X54908918Y-63014762D01*
X54915475Y-63014718D01*
X54959622Y-63014718D01*
X54972391Y-63014892D01*
X54983820Y-63015444D01*
X54993978Y-63016425D01*
X55002939Y-63017881D01*
X55010772Y-63019862D01*
X55020565Y-63023925D01*
X55028224Y-63029442D01*
X55033989Y-63036576D01*
X55038102Y-63045493D01*
X55040803Y-63056355D01*
X55041939Y-63064759D01*
X55042625Y-63074149D01*
X55042934Y-63084574D01*
X55042970Y-63090189D01*
X55042970Y-63146976D01*
X55042821Y-63157054D01*
X55042326Y-63166223D01*
X55041416Y-63174519D01*
X55040019Y-63181978D01*
X55036857Y-63191674D01*
X55032203Y-63199686D01*
X55025820Y-63206135D01*
X55017469Y-63211141D01*
X55006912Y-63214826D01*
X54998531Y-63216607D01*
X54988992Y-63217889D01*
X54978226Y-63218709D01*
X54966163Y-63219102D01*
X54959622Y-63219150D01*
X54893859Y-63219150D01*
X54893859Y-63291690D01*
X54997357Y-63291690D01*
G37*
G36*
X55640143Y-63355803D02*
G01*
X55640012Y-63343543D01*
X55639614Y-63331829D01*
X55638943Y-63320650D01*
X55637993Y-63309996D01*
X55636757Y-63299857D01*
X55635231Y-63290223D01*
X55633408Y-63281083D01*
X55631282Y-63272427D01*
X55628847Y-63264245D01*
X55626096Y-63256527D01*
X55623025Y-63249262D01*
X55619626Y-63242440D01*
X55615893Y-63236051D01*
X55607405Y-63224531D01*
X55597511Y-63214618D01*
X55586164Y-63206232D01*
X55573314Y-63199289D01*
X55566311Y-63196334D01*
X55558914Y-63193709D01*
X55551117Y-63191403D01*
X55542915Y-63189408D01*
X55534301Y-63187711D01*
X55525269Y-63186304D01*
X55515813Y-63185176D01*
X55505927Y-63184316D01*
X55495606Y-63183715D01*
X55484842Y-63183361D01*
X55473631Y-63183246D01*
X55400175Y-63183246D01*
X55387538Y-63183110D01*
X55376235Y-63182649D01*
X55366192Y-63181782D01*
X55357339Y-63180429D01*
X55349604Y-63178510D01*
X55339943Y-63174392D01*
X55332397Y-63168546D01*
X55326726Y-63160700D01*
X55322687Y-63150583D01*
X55320783Y-63142442D01*
X55319426Y-63133091D01*
X55318545Y-63122448D01*
X55318069Y-63110434D01*
X55317926Y-63096967D01*
X55318224Y-63083516D01*
X55319124Y-63071607D01*
X55320635Y-63061147D01*
X55322766Y-63052045D01*
X55325528Y-63044205D01*
X55328929Y-63037536D01*
X55335250Y-63029522D01*
X55343063Y-63023618D01*
X55352399Y-63019508D01*
X55359484Y-63017610D01*
X55367271Y-63016278D01*
X55375767Y-63015417D01*
X55384982Y-63014935D01*
X55394927Y-63014739D01*
X55400175Y-63014718D01*
X55582441Y-63014718D01*
X55582441Y-62939980D01*
X55373980Y-62939980D01*
X55362884Y-62940167D01*
X55352227Y-62940724D01*
X55342002Y-62941647D01*
X55332205Y-62942931D01*
X55322830Y-62944574D01*
X55313871Y-62946569D01*
X55305322Y-62948914D01*
X55297178Y-62951603D01*
X55289433Y-62954633D01*
X55282081Y-62958000D01*
X55275117Y-62961698D01*
X55268535Y-62965724D01*
X55262329Y-62970073D01*
X55256494Y-62974742D01*
X55251023Y-62979726D01*
X55245913Y-62985020D01*
X55241155Y-62990621D01*
X55236746Y-62996524D01*
X55232679Y-63002724D01*
X55228949Y-63009219D01*
X55225550Y-63016003D01*
X55222476Y-63023072D01*
X55219722Y-63030422D01*
X55217282Y-63038048D01*
X55215150Y-63045947D01*
X55213321Y-63054114D01*
X55211788Y-63062545D01*
X55210547Y-63071235D01*
X55209592Y-63080181D01*
X55208917Y-63089378D01*
X55208516Y-63098821D01*
X55208383Y-63108508D01*
X55208501Y-63119782D01*
X55208858Y-63130629D01*
X55209458Y-63141053D01*
X55210308Y-63151060D01*
X55211411Y-63160653D01*
X55212772Y-63169838D01*
X55214398Y-63178618D01*
X55216291Y-63186998D01*
X55218459Y-63194983D01*
X55220904Y-63202578D01*
X55223633Y-63209786D01*
X55226650Y-63216613D01*
X55233569Y-63229139D01*
X55241699Y-63240193D01*
X55251082Y-63249810D01*
X55261755Y-63258028D01*
X55273758Y-63264882D01*
X55287131Y-63270409D01*
X55294344Y-63272686D01*
X55301914Y-63274645D01*
X55309846Y-63276289D01*
X55318145Y-63277625D01*
X55326817Y-63278656D01*
X55335865Y-63279387D01*
X55345295Y-63279822D01*
X55355112Y-63279966D01*
X55433880Y-63279966D01*
X55441637Y-63279994D01*
X55448976Y-63280084D01*
X55462447Y-63280499D01*
X55474386Y-63281303D01*
X55484879Y-63282585D01*
X55494019Y-63284437D01*
X55501893Y-63286950D01*
X55508592Y-63290215D01*
X55516633Y-63296721D01*
X55522534Y-63305431D01*
X55525428Y-63312613D01*
X55527595Y-63321002D01*
X55529125Y-63330688D01*
X55530106Y-63341763D01*
X55530629Y-63354318D01*
X55530784Y-63368443D01*
X55530704Y-63376677D01*
X55530465Y-63384421D01*
X55529503Y-63398501D01*
X55527891Y-63410803D01*
X55525620Y-63421446D01*
X55522685Y-63430549D01*
X55519076Y-63438233D01*
X55514787Y-63444618D01*
X55507060Y-63452019D01*
X55497761Y-63457168D01*
X55490675Y-63459550D01*
X55482870Y-63461231D01*
X55474340Y-63462329D01*
X55465077Y-63462966D01*
X55455074Y-63463260D01*
X55444322Y-63463331D01*
X55227434Y-63463331D01*
X55227434Y-63537887D01*
X55465388Y-63537887D01*
X55476929Y-63537713D01*
X55488029Y-63537192D01*
X55498692Y-63536323D01*
X55508923Y-63535104D01*
X55518728Y-63533535D01*
X55528110Y-63531616D01*
X55537076Y-63529345D01*
X55545630Y-63526721D01*
X55553777Y-63523744D01*
X55561521Y-63520412D01*
X55568869Y-63516726D01*
X55575824Y-63512684D01*
X55582392Y-63508284D01*
X55588577Y-63503528D01*
X55594385Y-63498413D01*
X55599820Y-63492938D01*
X55604888Y-63487104D01*
X55609593Y-63480908D01*
X55613941Y-63474351D01*
X55617935Y-63467431D01*
X55621582Y-63460148D01*
X55624885Y-63452500D01*
X55627851Y-63444487D01*
X55630483Y-63436109D01*
X55632788Y-63427363D01*
X55634769Y-63418250D01*
X55636432Y-63408768D01*
X55637781Y-63398917D01*
X55638822Y-63388696D01*
X55639559Y-63378104D01*
X55639998Y-63367140D01*
X55640143Y-63355803D01*
G37*
G36*
X56117882Y-63355803D02*
G01*
X56117751Y-63343543D01*
X56117353Y-63331829D01*
X56116682Y-63320650D01*
X56115732Y-63309996D01*
X56114496Y-63299857D01*
X56112970Y-63290223D01*
X56111147Y-63281083D01*
X56109021Y-63272427D01*
X56106586Y-63264245D01*
X56103835Y-63256527D01*
X56100764Y-63249262D01*
X56097365Y-63242440D01*
X56093632Y-63236051D01*
X56085144Y-63224531D01*
X56075250Y-63214618D01*
X56063903Y-63206232D01*
X56051053Y-63199289D01*
X56044050Y-63196334D01*
X56036653Y-63193709D01*
X56028856Y-63191403D01*
X56020654Y-63189408D01*
X56012040Y-63187711D01*
X56003008Y-63186304D01*
X55993552Y-63185176D01*
X55983666Y-63184316D01*
X55973345Y-63183715D01*
X55962581Y-63183361D01*
X55951370Y-63183246D01*
X55877914Y-63183246D01*
X55865277Y-63183110D01*
X55853974Y-63182649D01*
X55843931Y-63181782D01*
X55835078Y-63180429D01*
X55827343Y-63178510D01*
X55817682Y-63174392D01*
X55810136Y-63168546D01*
X55804465Y-63160700D01*
X55800426Y-63150583D01*
X55798522Y-63142442D01*
X55797165Y-63133091D01*
X55796284Y-63122448D01*
X55795808Y-63110434D01*
X55795665Y-63096967D01*
X55795963Y-63083516D01*
X55796863Y-63071607D01*
X55798374Y-63061147D01*
X55800505Y-63052045D01*
X55803267Y-63044205D01*
X55806668Y-63037536D01*
X55812989Y-63029522D01*
X55820802Y-63023618D01*
X55830138Y-63019508D01*
X55837223Y-63017610D01*
X55845010Y-63016278D01*
X55853506Y-63015417D01*
X55862721Y-63014935D01*
X55872666Y-63014739D01*
X55877914Y-63014718D01*
X56060180Y-63014718D01*
X56060180Y-62939980D01*
X55851719Y-62939980D01*
X55840623Y-62940167D01*
X55829966Y-62940724D01*
X55819741Y-62941647D01*
X55809944Y-62942931D01*
X55800569Y-62944574D01*
X55791610Y-62946569D01*
X55783061Y-62948914D01*
X55774917Y-62951603D01*
X55767172Y-62954633D01*
X55759820Y-62958000D01*
X55752856Y-62961698D01*
X55746274Y-62965724D01*
X55740068Y-62970073D01*
X55734233Y-62974742D01*
X55728762Y-62979726D01*
X55723652Y-62985020D01*
X55718894Y-62990621D01*
X55714485Y-62996524D01*
X55710418Y-63002724D01*
X55706688Y-63009219D01*
X55703289Y-63016003D01*
X55700215Y-63023072D01*
X55697461Y-63030422D01*
X55695021Y-63038048D01*
X55692889Y-63045947D01*
X55691060Y-63054114D01*
X55689527Y-63062545D01*
X55688286Y-63071235D01*
X55687331Y-63080181D01*
X55686656Y-63089378D01*
X55686255Y-63098821D01*
X55686122Y-63108508D01*
X55686240Y-63119782D01*
X55686597Y-63130629D01*
X55687197Y-63141053D01*
X55688047Y-63151060D01*
X55689150Y-63160653D01*
X55690511Y-63169838D01*
X55692137Y-63178618D01*
X55694030Y-63186998D01*
X55696198Y-63194983D01*
X55698643Y-63202578D01*
X55701372Y-63209786D01*
X55704389Y-63216613D01*
X55711308Y-63229139D01*
X55719438Y-63240193D01*
X55728821Y-63249810D01*
X55739494Y-63258028D01*
X55751497Y-63264882D01*
X55764870Y-63270409D01*
X55772083Y-63272686D01*
X55779653Y-63274645D01*
X55787585Y-63276289D01*
X55795884Y-63277625D01*
X55804556Y-63278656D01*
X55813604Y-63279387D01*
X55823034Y-63279822D01*
X55832851Y-63279966D01*
X55911619Y-63279966D01*
X55919376Y-63279994D01*
X55926715Y-63280084D01*
X55940187Y-63280499D01*
X55952125Y-63281303D01*
X55962618Y-63282585D01*
X55971758Y-63284437D01*
X55979632Y-63286950D01*
X55986331Y-63290215D01*
X55994372Y-63296721D01*
X56000273Y-63305431D01*
X56003167Y-63312613D01*
X56005334Y-63321002D01*
X56006864Y-63330688D01*
X56007845Y-63341763D01*
X56008368Y-63354318D01*
X56008523Y-63368443D01*
X56008443Y-63376677D01*
X56008204Y-63384421D01*
X56007242Y-63398501D01*
X56005630Y-63410803D01*
X56003359Y-63421446D01*
X56000424Y-63430549D01*
X55996815Y-63438233D01*
X55992526Y-63444618D01*
X55984799Y-63452019D01*
X55975500Y-63457168D01*
X55968414Y-63459550D01*
X55960609Y-63461231D01*
X55952079Y-63462329D01*
X55942816Y-63462966D01*
X55932813Y-63463260D01*
X55922061Y-63463331D01*
X55705173Y-63463331D01*
X55705173Y-63537887D01*
X55943127Y-63537887D01*
X55954668Y-63537713D01*
X55965768Y-63537192D01*
X55976431Y-63536323D01*
X55986662Y-63535104D01*
X55996467Y-63533535D01*
X56005849Y-63531616D01*
X56014815Y-63529345D01*
X56023369Y-63526721D01*
X56031516Y-63523744D01*
X56039260Y-63520412D01*
X56046608Y-63516726D01*
X56053563Y-63512684D01*
X56060131Y-63508284D01*
X56066316Y-63503528D01*
X56072124Y-63498413D01*
X56077560Y-63492938D01*
X56082627Y-63487104D01*
X56087332Y-63480908D01*
X56091680Y-63474351D01*
X56095674Y-63467431D01*
X56099321Y-63460148D01*
X56102624Y-63452500D01*
X56105590Y-63444487D01*
X56108222Y-63436109D01*
X56110527Y-63427363D01*
X56112508Y-63418250D01*
X56114171Y-63408768D01*
X56115520Y-63398917D01*
X56116561Y-63388696D01*
X56117298Y-63378104D01*
X56117737Y-63367140D01*
X56117882Y-63355803D01*
G37*
D12*
G36*
X51105299Y-64064108D02*
G01*
X51105231Y-64053690D01*
X51105023Y-64043777D01*
X51104666Y-64034359D01*
X51104154Y-64025423D01*
X51103479Y-64016958D01*
X51102633Y-64008954D01*
X51101610Y-64001397D01*
X51100401Y-63994278D01*
X51099000Y-63987584D01*
X51097400Y-63981303D01*
X51095591Y-63975425D01*
X51093568Y-63969938D01*
X51091323Y-63964831D01*
X51088848Y-63960092D01*
X51086136Y-63955709D01*
X51083180Y-63951671D01*
X51079972Y-63947967D01*
X51076505Y-63944584D01*
X51072771Y-63941513D01*
X51068763Y-63938741D01*
X51064474Y-63936256D01*
X51059896Y-63934048D01*
X51055021Y-63932104D01*
X51049843Y-63930414D01*
X51044354Y-63928965D01*
X51038547Y-63927747D01*
X51032413Y-63926748D01*
X51025947Y-63925956D01*
X51019139Y-63925360D01*
X51011984Y-63924948D01*
X51004473Y-63924710D01*
X50996599Y-63924633D01*
X50832395Y-63924633D01*
X50832395Y-64374822D01*
X50905594Y-64374822D01*
X50905594Y-63969476D01*
X50989015Y-63969476D01*
X50995419Y-63969653D01*
X51001210Y-63970235D01*
X51006418Y-63971297D01*
X51011069Y-63972912D01*
X51015191Y-63975157D01*
X51018811Y-63978106D01*
X51021956Y-63981834D01*
X51024653Y-63986416D01*
X51026931Y-63991926D01*
X51028817Y-63998440D01*
X51030337Y-64006032D01*
X51031519Y-64014778D01*
X51031992Y-64019606D01*
X51032391Y-64024751D01*
X51032719Y-64030222D01*
X51032980Y-64036028D01*
X51033177Y-64042178D01*
X51033314Y-64048682D01*
X51033393Y-64055549D01*
X51033419Y-64062789D01*
X51033393Y-64070015D01*
X51033315Y-64076863D01*
X51033180Y-64083342D01*
X51032985Y-64089462D01*
X51032726Y-64095233D01*
X51032401Y-64100664D01*
X51032005Y-64105766D01*
X51031535Y-64110548D01*
X51030987Y-64115020D01*
X51029646Y-64123072D01*
X51027954Y-64130002D01*
X51025882Y-64135887D01*
X51023402Y-64140805D01*
X51020488Y-64144835D01*
X51017111Y-64148055D01*
X51013242Y-64150543D01*
X51008856Y-64152378D01*
X51003922Y-64153638D01*
X50998415Y-64154400D01*
X50992305Y-64154744D01*
X50989015Y-64154783D01*
X50924389Y-64154783D01*
X50924389Y-64198967D01*
X50996599Y-64198967D01*
X51004453Y-64198904D01*
X51011948Y-64198706D01*
X51019088Y-64198359D01*
X51025883Y-64197851D01*
X51032340Y-64197168D01*
X51038465Y-64196298D01*
X51044266Y-64195225D01*
X51049750Y-64193938D01*
X51054925Y-64192423D01*
X51059798Y-64190667D01*
X51064376Y-64188656D01*
X51068666Y-64186378D01*
X51072676Y-64183818D01*
X51076413Y-64180964D01*
X51079885Y-64177802D01*
X51083098Y-64174319D01*
X51086059Y-64170503D01*
X51088777Y-64166338D01*
X51091258Y-64161813D01*
X51093510Y-64156913D01*
X51095540Y-64151627D01*
X51097355Y-64145939D01*
X51098963Y-64139838D01*
X51100371Y-64133310D01*
X51101585Y-64126341D01*
X51102614Y-64118918D01*
X51103465Y-64111028D01*
X51104145Y-64102658D01*
X51104661Y-64093794D01*
X51105020Y-64084423D01*
X51105231Y-64074532D01*
X51105299Y-64064108D01*
G37*
G36*
X51323536Y-64016170D02*
G01*
X51330313Y-64016450D01*
X51336773Y-64016920D01*
X51342923Y-64017584D01*
X51348769Y-64018444D01*
X51354317Y-64019504D01*
X51359574Y-64020767D01*
X51364546Y-64022236D01*
X51369240Y-64023914D01*
X51373662Y-64025803D01*
X51377818Y-64027908D01*
X51381715Y-64030231D01*
X51385360Y-64032776D01*
X51391917Y-64038542D01*
X51397540Y-64045230D01*
X51400017Y-64048928D01*
X51402280Y-64052866D01*
X51404336Y-64057047D01*
X51406190Y-64061474D01*
X51407849Y-64066150D01*
X51409320Y-64071079D01*
X51410608Y-64076263D01*
X51411721Y-64081706D01*
X51412665Y-64087411D01*
X51413446Y-64093380D01*
X51414071Y-64099617D01*
X51414545Y-64106125D01*
X51414876Y-64112907D01*
X51415070Y-64119966D01*
X51415134Y-64127306D01*
X51415134Y-64263703D01*
X51415070Y-64271042D01*
X51414876Y-64278101D01*
X51414545Y-64284881D01*
X51414071Y-64291387D01*
X51413446Y-64297622D01*
X51412665Y-64303588D01*
X51411721Y-64309289D01*
X51410608Y-64314729D01*
X51409320Y-64319909D01*
X51407849Y-64324833D01*
X51406190Y-64329505D01*
X51404336Y-64333928D01*
X51402280Y-64338104D01*
X51400017Y-64342036D01*
X51397540Y-64345729D01*
X51391917Y-64352407D01*
X51385360Y-64358163D01*
X51381715Y-64360702D01*
X51377818Y-64363021D01*
X51373662Y-64365121D01*
X51369240Y-64367007D01*
X51364546Y-64368680D01*
X51359574Y-64370145D01*
X51354317Y-64371405D01*
X51348769Y-64372462D01*
X51342923Y-64373320D01*
X51336773Y-64373981D01*
X51330313Y-64374450D01*
X51323536Y-64374729D01*
X51316435Y-64374822D01*
X51232025Y-64374822D01*
X51224924Y-64374729D01*
X51218147Y-64374450D01*
X51211687Y-64373981D01*
X51205537Y-64373320D01*
X51199691Y-64372462D01*
X51194143Y-64371405D01*
X51188886Y-64370145D01*
X51183914Y-64368680D01*
X51179220Y-64367007D01*
X51174798Y-64365121D01*
X51170642Y-64363021D01*
X51166744Y-64360702D01*
X51163100Y-64358163D01*
X51156543Y-64352407D01*
X51150920Y-64345729D01*
X51148443Y-64342036D01*
X51146180Y-64338104D01*
X51144124Y-64333928D01*
X51142270Y-64329505D01*
X51140611Y-64324833D01*
X51139140Y-64319909D01*
X51137851Y-64314729D01*
X51136738Y-64309289D01*
X51135795Y-64303588D01*
X51135014Y-64297622D01*
X51134389Y-64291387D01*
X51133914Y-64284881D01*
X51133583Y-64278101D01*
X51133389Y-64271042D01*
X51133348Y-64266231D01*
X51204657Y-64266231D01*
X51204678Y-64271278D01*
X51204746Y-64276059D01*
X51205039Y-64284848D01*
X51205580Y-64292653D01*
X51206412Y-64299532D01*
X51207578Y-64305539D01*
X51209120Y-64310731D01*
X51211082Y-64315163D01*
X51214903Y-64320509D01*
X51219909Y-64324461D01*
X51223976Y-64326413D01*
X51228676Y-64327885D01*
X51234052Y-64328933D01*
X51240147Y-64329612D01*
X51247004Y-64329979D01*
X51254666Y-64330088D01*
X51293794Y-64330088D01*
X51297728Y-64330062D01*
X51304982Y-64329831D01*
X51311453Y-64329315D01*
X51317183Y-64328459D01*
X51322216Y-64327206D01*
X51326594Y-64325500D01*
X51332026Y-64321972D01*
X51336227Y-64317112D01*
X51338414Y-64313038D01*
X51340160Y-64308233D01*
X51341509Y-64302641D01*
X51342502Y-64296205D01*
X51343184Y-64288870D01*
X51343596Y-64280580D01*
X51343714Y-64276059D01*
X51343781Y-64271278D01*
X51343802Y-64266231D01*
X51343802Y-64124668D01*
X51343781Y-64119621D01*
X51343714Y-64114841D01*
X51343421Y-64106056D01*
X51342879Y-64098256D01*
X51342047Y-64091384D01*
X51340882Y-64085385D01*
X51339340Y-64080203D01*
X51337378Y-64075781D01*
X51333556Y-64070450D01*
X51328550Y-64066514D01*
X51324484Y-64064571D01*
X51319784Y-64063107D01*
X51314408Y-64062066D01*
X51308312Y-64061392D01*
X51301455Y-64061029D01*
X51293794Y-64060921D01*
X51254666Y-64060921D01*
X51250732Y-64060947D01*
X51243478Y-64061175D01*
X51237007Y-64061687D01*
X51231277Y-64062537D01*
X51226244Y-64063782D01*
X51221866Y-64065479D01*
X51216433Y-64068992D01*
X51212233Y-64073837D01*
X51210046Y-64077900D01*
X51208299Y-64082696D01*
X51206951Y-64088279D01*
X51205957Y-64094708D01*
X51205276Y-64102036D01*
X51204864Y-64110322D01*
X51204746Y-64114841D01*
X51204678Y-64119621D01*
X51204657Y-64124668D01*
X51204657Y-64266231D01*
X51133348Y-64266231D01*
X51133326Y-64263703D01*
X51133326Y-64127306D01*
X51133389Y-64119966D01*
X51133583Y-64112907D01*
X51133914Y-64106125D01*
X51134389Y-64099617D01*
X51135014Y-64093380D01*
X51135795Y-64087411D01*
X51136738Y-64081706D01*
X51137851Y-64076263D01*
X51139140Y-64071079D01*
X51140611Y-64066150D01*
X51142270Y-64061474D01*
X51144124Y-64057047D01*
X51146180Y-64052866D01*
X51148443Y-64048928D01*
X51150920Y-64045230D01*
X51156543Y-64038542D01*
X51163100Y-64032776D01*
X51166744Y-64030231D01*
X51170642Y-64027908D01*
X51174798Y-64025803D01*
X51179220Y-64023914D01*
X51183914Y-64022236D01*
X51188886Y-64020767D01*
X51194143Y-64019504D01*
X51199691Y-64018444D01*
X51205537Y-64017584D01*
X51211687Y-64016920D01*
X51218147Y-64016450D01*
X51224924Y-64016170D01*
X51232025Y-64016078D01*
X51316435Y-64016078D01*
X51323536Y-64016170D01*
G37*
G36*
X51772778Y-64337452D02*
G01*
X51775636Y-64337452D01*
X51723979Y-64016078D01*
X51611541Y-64016078D01*
X51560544Y-64337452D01*
X51562742Y-64337452D01*
X51514272Y-64016078D01*
X51435137Y-64016078D01*
X51501302Y-64374822D01*
X51617477Y-64374822D01*
X51668474Y-64053557D01*
X51666936Y-64053557D01*
X51716725Y-64374822D01*
X51830920Y-64374822D01*
X51899174Y-64016078D01*
X51826414Y-64016078D01*
X51772778Y-64337452D01*
G37*
G36*
X52086350Y-64227103D02*
G01*
X52093450Y-64227012D01*
X52100227Y-64226738D01*
X52106688Y-64226284D01*
X52112837Y-64225650D01*
X52118683Y-64224839D01*
X52124231Y-64223851D01*
X52129488Y-64222688D01*
X52134461Y-64221352D01*
X52139154Y-64219844D01*
X52143576Y-64218165D01*
X52147733Y-64216316D01*
X52155274Y-64212118D01*
X52161831Y-64207259D01*
X52167454Y-64201752D01*
X52172195Y-64195608D01*
X52176104Y-64188838D01*
X52179234Y-64181455D01*
X52181636Y-64173468D01*
X52183361Y-64164891D01*
X52183985Y-64160384D01*
X52184460Y-64155733D01*
X52184791Y-64150940D01*
X52184985Y-64146007D01*
X52185048Y-64140935D01*
X52185048Y-64102356D01*
X52184985Y-64097284D01*
X52184791Y-64092349D01*
X52184460Y-64087555D01*
X52183985Y-64082903D01*
X52183361Y-64078393D01*
X52182580Y-64074028D01*
X52180523Y-64065738D01*
X52177764Y-64058043D01*
X52174250Y-64050956D01*
X52169931Y-64044487D01*
X52164756Y-64038650D01*
X52158673Y-64033456D01*
X52151630Y-64028916D01*
X52143576Y-64025042D01*
X52139154Y-64023359D01*
X52134461Y-64021846D01*
X52129488Y-64020506D01*
X52124231Y-64019340D01*
X52118683Y-64018349D01*
X52112837Y-64017535D01*
X52106688Y-64016900D01*
X52100227Y-64016444D01*
X52093450Y-64016169D01*
X52086350Y-64016078D01*
X52014579Y-64016078D01*
X52007478Y-64016170D01*
X52000701Y-64016450D01*
X51994241Y-64016920D01*
X51988091Y-64017583D01*
X51982245Y-64018443D01*
X51976697Y-64019502D01*
X51971440Y-64020764D01*
X51966468Y-64022231D01*
X51961774Y-64023906D01*
X51957352Y-64025793D01*
X51953196Y-64027895D01*
X51949298Y-64030214D01*
X51945654Y-64032754D01*
X51939097Y-64038508D01*
X51933474Y-64045181D01*
X51930997Y-64048869D01*
X51928734Y-64052797D01*
X51926678Y-64056966D01*
X51924824Y-64061381D01*
X51923165Y-64066043D01*
X51921694Y-64070957D01*
X51920405Y-64076124D01*
X51919292Y-64081549D01*
X51918349Y-64087234D01*
X51917568Y-64093182D01*
X51916943Y-64099396D01*
X51916468Y-64105879D01*
X51916137Y-64112635D01*
X51915943Y-64119666D01*
X51915880Y-64126976D01*
X51915880Y-64263264D01*
X51915943Y-64270643D01*
X51916137Y-64277739D01*
X51916468Y-64284554D01*
X51916943Y-64291093D01*
X51917568Y-64297358D01*
X51918349Y-64303353D01*
X51919292Y-64309080D01*
X51920405Y-64314543D01*
X51921694Y-64319746D01*
X51923165Y-64324690D01*
X51924824Y-64329381D01*
X51926678Y-64333820D01*
X51928734Y-64338012D01*
X51930997Y-64341958D01*
X51933474Y-64345663D01*
X51939097Y-64352362D01*
X51945654Y-64358133D01*
X51949298Y-64360679D01*
X51953196Y-64363003D01*
X51957352Y-64365108D01*
X51961774Y-64366997D01*
X51966468Y-64368673D01*
X51971440Y-64370141D01*
X51976697Y-64371402D01*
X51982245Y-64372460D01*
X51988091Y-64373319D01*
X51994241Y-64373981D01*
X52000701Y-64374450D01*
X52007478Y-64374729D01*
X52014579Y-64374822D01*
X52159879Y-64374822D01*
X52159879Y-64330088D01*
X52037220Y-64330088D01*
X52029558Y-64329979D01*
X52022701Y-64329611D01*
X52016606Y-64328930D01*
X52011230Y-64327878D01*
X52006530Y-64326400D01*
X52002463Y-64324437D01*
X51997457Y-64320464D01*
X51993636Y-64315085D01*
X51991674Y-64310624D01*
X51990132Y-64305396D01*
X51988966Y-64299346D01*
X51988134Y-64292418D01*
X51987593Y-64284553D01*
X51987300Y-64275697D01*
X51987233Y-64270879D01*
X51987211Y-64265791D01*
X51987211Y-64124448D01*
X51987233Y-64119421D01*
X51987300Y-64114660D01*
X51987418Y-64110159D01*
X51987830Y-64101904D01*
X51988511Y-64094603D01*
X51989505Y-64088198D01*
X51990854Y-64082634D01*
X51992600Y-64077854D01*
X51994787Y-64073804D01*
X51998987Y-64068974D01*
X52004420Y-64065470D01*
X52008798Y-64063777D01*
X52013831Y-64062535D01*
X52019561Y-64061686D01*
X52026032Y-64061175D01*
X52033286Y-64060947D01*
X52037220Y-64060921D01*
X52063708Y-64060921D01*
X52071370Y-64061025D01*
X52078227Y-64061356D01*
X52084322Y-64061944D01*
X52089698Y-64062818D01*
X52094398Y-64064007D01*
X52100274Y-64066445D01*
X52104869Y-64069755D01*
X52108328Y-64074035D01*
X52110796Y-64079385D01*
X52112417Y-64085903D01*
X52113098Y-64090945D01*
X52113510Y-64096579D01*
X52113696Y-64102834D01*
X52113717Y-64106203D01*
X52113717Y-64140275D01*
X52113627Y-64146322D01*
X52113331Y-64151824D01*
X52112785Y-64156801D01*
X52111946Y-64161276D01*
X52110049Y-64167094D01*
X52107257Y-64171901D01*
X52103427Y-64175771D01*
X52098417Y-64178774D01*
X52092082Y-64180985D01*
X52087053Y-64182054D01*
X52081330Y-64182823D01*
X52074871Y-64183315D01*
X52067633Y-64183551D01*
X52063708Y-64183579D01*
X52024251Y-64183579D01*
X52024251Y-64227103D01*
X52086350Y-64227103D01*
G37*
G36*
X52223077Y-64127196D02*
G01*
X52223077Y-64374822D01*
X52294408Y-64374822D01*
X52294408Y-64124668D01*
X52294429Y-64119631D01*
X52294496Y-64114860D01*
X52294614Y-64110348D01*
X52295026Y-64102073D01*
X52295708Y-64094752D01*
X52296701Y-64088327D01*
X52298050Y-64082745D01*
X52299796Y-64077948D01*
X52301983Y-64073881D01*
X52306184Y-64069028D01*
X52311617Y-64065504D01*
X52315995Y-64063801D01*
X52321027Y-64062549D01*
X52326758Y-64061694D01*
X52333228Y-64061178D01*
X52340482Y-64060947D01*
X52344417Y-64060921D01*
X52390798Y-64060921D01*
X52390798Y-64016078D01*
X52321775Y-64016078D01*
X52314675Y-64016170D01*
X52307897Y-64016450D01*
X52301437Y-64016920D01*
X52295287Y-64017584D01*
X52289441Y-64018444D01*
X52283893Y-64019504D01*
X52278636Y-64020766D01*
X52273664Y-64022234D01*
X52268970Y-64023911D01*
X52264548Y-64025800D01*
X52260392Y-64027904D01*
X52256495Y-64030226D01*
X52252850Y-64032769D01*
X52246294Y-64038530D01*
X52240671Y-64045213D01*
X52238193Y-64048908D01*
X52235930Y-64052843D01*
X52233875Y-64057020D01*
X52232020Y-64061443D01*
X52230361Y-64066115D01*
X52228891Y-64071038D01*
X52227602Y-64076217D01*
X52226489Y-64081654D01*
X52225545Y-64087352D01*
X52224764Y-64093314D01*
X52224140Y-64099543D01*
X52223665Y-64106043D01*
X52223334Y-64112816D01*
X52223140Y-64119866D01*
X52223077Y-64127196D01*
G37*
G36*
X52935289Y-63924633D02*
G01*
X52834392Y-63924633D01*
X52759764Y-64284036D01*
X52683267Y-63924633D01*
X52576655Y-63924633D01*
X52576655Y-64374822D01*
X52644249Y-64374822D01*
X52640732Y-63994535D01*
X52720966Y-64374822D01*
X52791637Y-64374822D01*
X52868134Y-63994535D01*
X52864617Y-64374822D01*
X52935289Y-64374822D01*
X52935289Y-63924633D01*
G37*
G36*
X53078501Y-64156761D02*
G01*
X53071400Y-64156853D01*
X53064624Y-64157128D01*
X53058165Y-64157584D01*
X53052017Y-64158220D01*
X53046174Y-64159034D01*
X53040629Y-64160025D01*
X53035375Y-64161192D01*
X53030407Y-64162533D01*
X53025717Y-64164047D01*
X53021299Y-64165733D01*
X53017148Y-64167588D01*
X53009615Y-64171802D01*
X53003069Y-64176678D01*
X52997456Y-64182206D01*
X52992726Y-64188373D01*
X52988826Y-64195169D01*
X52985705Y-64202581D01*
X52983311Y-64210598D01*
X52981592Y-64219209D01*
X52980970Y-64223734D01*
X52980497Y-64228403D01*
X52980168Y-64233214D01*
X52979975Y-64238167D01*
X52979912Y-64243260D01*
X52979912Y-64288433D01*
X52979975Y-64293525D01*
X52980168Y-64298477D01*
X52980497Y-64303287D01*
X52980970Y-64307954D01*
X52981592Y-64312477D01*
X52982370Y-64316853D01*
X52984420Y-64325161D01*
X52987171Y-64332869D01*
X52990675Y-64339965D01*
X52994984Y-64346438D01*
X53000149Y-64352276D01*
X53006222Y-64357470D01*
X53013255Y-64362007D01*
X53021299Y-64365876D01*
X53025717Y-64367557D01*
X53030407Y-64369067D01*
X53035375Y-64370404D01*
X53040629Y-64371568D01*
X53046174Y-64372556D01*
X53052017Y-64373368D01*
X53058165Y-64374002D01*
X53064624Y-64374456D01*
X53071400Y-64374730D01*
X53078501Y-64374822D01*
X53240177Y-64374822D01*
X53240177Y-64127306D01*
X53240114Y-64119966D01*
X53239920Y-64112907D01*
X53239589Y-64106125D01*
X53239115Y-64099617D01*
X53238490Y-64093380D01*
X53237710Y-64087411D01*
X53236766Y-64081706D01*
X53235654Y-64076263D01*
X53234366Y-64071079D01*
X53232896Y-64066150D01*
X53231238Y-64061474D01*
X53229385Y-64057047D01*
X53227331Y-64052866D01*
X53225070Y-64048928D01*
X53222594Y-64045230D01*
X53216977Y-64038542D01*
X53210427Y-64032776D01*
X53206786Y-64030231D01*
X53202893Y-64027908D01*
X53198741Y-64025803D01*
X53194324Y-64023914D01*
X53189636Y-64022236D01*
X53184670Y-64020767D01*
X53179420Y-64019504D01*
X53173878Y-64018444D01*
X53168040Y-64017584D01*
X53161899Y-64016920D01*
X53155447Y-64016450D01*
X53148679Y-64016170D01*
X53141589Y-64016078D01*
X53024645Y-64016078D01*
X53024645Y-64060921D01*
X53118837Y-64060921D01*
X53126499Y-64061030D01*
X53133356Y-64061397D01*
X53139451Y-64062076D01*
X53144827Y-64063124D01*
X53149527Y-64064596D01*
X53153594Y-64066549D01*
X53158600Y-64070500D01*
X53162422Y-64075846D01*
X53164383Y-64080278D01*
X53165925Y-64085470D01*
X53167091Y-64091477D01*
X53167923Y-64098356D01*
X53168464Y-64106161D01*
X53168758Y-64114950D01*
X53168825Y-64119731D01*
X53168846Y-64124778D01*
X53168846Y-64330088D01*
X53101252Y-64330088D01*
X53093589Y-64329983D01*
X53086728Y-64329648D01*
X53080628Y-64329054D01*
X53075245Y-64328172D01*
X53070536Y-64326973D01*
X53064646Y-64324517D01*
X53060036Y-64321186D01*
X53056561Y-64316880D01*
X53054080Y-64311504D01*
X53052447Y-64304957D01*
X53051759Y-64299895D01*
X53051343Y-64294241D01*
X53051155Y-64287966D01*
X53051133Y-64284586D01*
X53051133Y-64243920D01*
X53051224Y-64237870D01*
X53051524Y-64232362D01*
X53052076Y-64227373D01*
X53052921Y-64222884D01*
X53054831Y-64217041D01*
X53057638Y-64212204D01*
X53061483Y-64208304D01*
X53066509Y-64205270D01*
X53072857Y-64203032D01*
X53077893Y-64201948D01*
X53083622Y-64201166D01*
X53090086Y-64200665D01*
X53097327Y-64200425D01*
X53101252Y-64200395D01*
X53131807Y-64200395D01*
X53131807Y-64156761D01*
X53078501Y-64156761D01*
G37*
G36*
X53446917Y-64060921D02*
G01*
X53454579Y-64061030D01*
X53461440Y-64061397D01*
X53467541Y-64062075D01*
X53472924Y-64063122D01*
X53477632Y-64064593D01*
X53481708Y-64066543D01*
X53486729Y-64070489D01*
X53490566Y-64075826D01*
X53492537Y-64080251D01*
X53494089Y-64085434D01*
X53495263Y-64091431D01*
X53496102Y-64098297D01*
X53496649Y-64106088D01*
X53496946Y-64114860D01*
X53497014Y-64119631D01*
X53497035Y-64124668D01*
X53497035Y-64374822D01*
X53568256Y-64374822D01*
X53568256Y-64127196D01*
X53568193Y-64119866D01*
X53568000Y-64112816D01*
X53567671Y-64106043D01*
X53567198Y-64099543D01*
X53566576Y-64093314D01*
X53565798Y-64087352D01*
X53564858Y-64081654D01*
X53563748Y-64076217D01*
X53562464Y-64071038D01*
X53560997Y-64066115D01*
X53559343Y-64061443D01*
X53557493Y-64057020D01*
X53555443Y-64052843D01*
X53553184Y-64048908D01*
X53550712Y-64045213D01*
X53545099Y-64038530D01*
X53538553Y-64032769D01*
X53534913Y-64030226D01*
X53531021Y-64027904D01*
X53526869Y-64025800D01*
X53522451Y-64023911D01*
X53517762Y-64022234D01*
X53512793Y-64020766D01*
X53507540Y-64019504D01*
X53501994Y-64018444D01*
X53496151Y-64017584D01*
X53490003Y-64016920D01*
X53483544Y-64016450D01*
X53476768Y-64016170D01*
X53469668Y-64016078D01*
X53293483Y-64016078D01*
X53293483Y-64374822D01*
X53364814Y-64374822D01*
X53364814Y-64060921D01*
X53446917Y-64060921D01*
G37*
G36*
X53709380Y-64156761D02*
G01*
X53702280Y-64156853D01*
X53695503Y-64157128D01*
X53689045Y-64157584D01*
X53682897Y-64158220D01*
X53677053Y-64159034D01*
X53671508Y-64160025D01*
X53666254Y-64161192D01*
X53661286Y-64162533D01*
X53656596Y-64164047D01*
X53652179Y-64165733D01*
X53648027Y-64167588D01*
X53640495Y-64171802D01*
X53633948Y-64176678D01*
X53628335Y-64182206D01*
X53623605Y-64188373D01*
X53619705Y-64195169D01*
X53616584Y-64202581D01*
X53614190Y-64210598D01*
X53612471Y-64219209D01*
X53611849Y-64223734D01*
X53611377Y-64228403D01*
X53611047Y-64233214D01*
X53610854Y-64238167D01*
X53610791Y-64243260D01*
X53610791Y-64288433D01*
X53610854Y-64293525D01*
X53611047Y-64298477D01*
X53611377Y-64303287D01*
X53611849Y-64307954D01*
X53612471Y-64312477D01*
X53613250Y-64316853D01*
X53615299Y-64325161D01*
X53618050Y-64332869D01*
X53621554Y-64339965D01*
X53625863Y-64346438D01*
X53631028Y-64352276D01*
X53637101Y-64357470D01*
X53644134Y-64362007D01*
X53652179Y-64365876D01*
X53656596Y-64367557D01*
X53661286Y-64369067D01*
X53666254Y-64370404D01*
X53671508Y-64371568D01*
X53677053Y-64372556D01*
X53682897Y-64373368D01*
X53689045Y-64374002D01*
X53695503Y-64374456D01*
X53702280Y-64374730D01*
X53709380Y-64374822D01*
X53871056Y-64374822D01*
X53871056Y-64127306D01*
X53870993Y-64119966D01*
X53870799Y-64112907D01*
X53870468Y-64106125D01*
X53869994Y-64099617D01*
X53869369Y-64093380D01*
X53868589Y-64087411D01*
X53867645Y-64081706D01*
X53866533Y-64076263D01*
X53865245Y-64071079D01*
X53863775Y-64066150D01*
X53862117Y-64061474D01*
X53860264Y-64057047D01*
X53858210Y-64052866D01*
X53855949Y-64048928D01*
X53853474Y-64045230D01*
X53847856Y-64038542D01*
X53841306Y-64032776D01*
X53837665Y-64030231D01*
X53833772Y-64027908D01*
X53829620Y-64025803D01*
X53825204Y-64023914D01*
X53820515Y-64022236D01*
X53815549Y-64020767D01*
X53810299Y-64019504D01*
X53804758Y-64018444D01*
X53798919Y-64017584D01*
X53792778Y-64016920D01*
X53786326Y-64016450D01*
X53779558Y-64016170D01*
X53772468Y-64016078D01*
X53655524Y-64016078D01*
X53655524Y-64060921D01*
X53749717Y-64060921D01*
X53757378Y-64061030D01*
X53764235Y-64061397D01*
X53770331Y-64062076D01*
X53775707Y-64063124D01*
X53780407Y-64064596D01*
X53784473Y-64066549D01*
X53789479Y-64070500D01*
X53793301Y-64075846D01*
X53795262Y-64080278D01*
X53796805Y-64085470D01*
X53797970Y-64091477D01*
X53798802Y-64098356D01*
X53799344Y-64106161D01*
X53799637Y-64114950D01*
X53799704Y-64119731D01*
X53799725Y-64124778D01*
X53799725Y-64330088D01*
X53732131Y-64330088D01*
X53724468Y-64329983D01*
X53717608Y-64329648D01*
X53711507Y-64329054D01*
X53706124Y-64328172D01*
X53701416Y-64326973D01*
X53695526Y-64324517D01*
X53690915Y-64321186D01*
X53687441Y-64316880D01*
X53684959Y-64311504D01*
X53683326Y-64304957D01*
X53682638Y-64299895D01*
X53682222Y-64294241D01*
X53682034Y-64287966D01*
X53682012Y-64284586D01*
X53682012Y-64243920D01*
X53682103Y-64237870D01*
X53682403Y-64232362D01*
X53682955Y-64227373D01*
X53683800Y-64222884D01*
X53685710Y-64217041D01*
X53688517Y-64212204D01*
X53692362Y-64208304D01*
X53697388Y-64205270D01*
X53703736Y-64203032D01*
X53708772Y-64201948D01*
X53714502Y-64201166D01*
X53720966Y-64200665D01*
X53728206Y-64200425D01*
X53732131Y-64200395D01*
X53762686Y-64200395D01*
X53762686Y-64156761D01*
X53709380Y-64156761D01*
G37*
G36*
X53999540Y-64471981D02*
G01*
X53999540Y-64515505D01*
X54086808Y-64515505D01*
X54093909Y-64515413D01*
X54100686Y-64515134D01*
X54107146Y-64514665D01*
X54113296Y-64514002D01*
X54119142Y-64513142D01*
X54124690Y-64512083D01*
X54129947Y-64510820D01*
X54134919Y-64509350D01*
X54139613Y-64507671D01*
X54144035Y-64505778D01*
X54148191Y-64503669D01*
X54152089Y-64501340D01*
X54155733Y-64498788D01*
X54162290Y-64493001D01*
X54167913Y-64486281D01*
X54170390Y-64482564D01*
X54172653Y-64478603D01*
X54174709Y-64474397D01*
X54176563Y-64469941D01*
X54178222Y-64465231D01*
X54179693Y-64460266D01*
X54180982Y-64455042D01*
X54182095Y-64449554D01*
X54183039Y-64443801D01*
X54183820Y-64437778D01*
X54184444Y-64431482D01*
X54184919Y-64424911D01*
X54185250Y-64418060D01*
X54185444Y-64410927D01*
X54185507Y-64403508D01*
X54185507Y-64016078D01*
X54011850Y-64016078D01*
X54004750Y-64016170D01*
X53997973Y-64016450D01*
X53991512Y-64016920D01*
X53985362Y-64017584D01*
X53979517Y-64018444D01*
X53973968Y-64019504D01*
X53968711Y-64020767D01*
X53963739Y-64022236D01*
X53959045Y-64023914D01*
X53954623Y-64025803D01*
X53950467Y-64027908D01*
X53946570Y-64030231D01*
X53942925Y-64032776D01*
X53936369Y-64038542D01*
X53930746Y-64045230D01*
X53928268Y-64048928D01*
X53926005Y-64052866D01*
X53923950Y-64057047D01*
X53922096Y-64061474D01*
X53920436Y-64066150D01*
X53918966Y-64071079D01*
X53917677Y-64076263D01*
X53916564Y-64081706D01*
X53915620Y-64087411D01*
X53914839Y-64093380D01*
X53914215Y-64099617D01*
X53913740Y-64106125D01*
X53913409Y-64112907D01*
X53913215Y-64119966D01*
X53913152Y-64127306D01*
X53913152Y-64263703D01*
X53913215Y-64271042D01*
X53913409Y-64278101D01*
X53913740Y-64284881D01*
X53914215Y-64291387D01*
X53914839Y-64297622D01*
X53915620Y-64303588D01*
X53916564Y-64309289D01*
X53917677Y-64314729D01*
X53918966Y-64319909D01*
X53920436Y-64324833D01*
X53922096Y-64329505D01*
X53923950Y-64333928D01*
X53926005Y-64338104D01*
X53928268Y-64342036D01*
X53930746Y-64345729D01*
X53936369Y-64352407D01*
X53942925Y-64358163D01*
X53946570Y-64360702D01*
X53950467Y-64363021D01*
X53954623Y-64365121D01*
X53959045Y-64367007D01*
X53963739Y-64368680D01*
X53968711Y-64370145D01*
X53973968Y-64371405D01*
X53979517Y-64372462D01*
X53985362Y-64373320D01*
X53991512Y-64373981D01*
X53997973Y-64374450D01*
X54004750Y-64374729D01*
X54011850Y-64374822D01*
X54086589Y-64374822D01*
X54086589Y-64330088D01*
X54034492Y-64330088D01*
X54026830Y-64329979D01*
X54019973Y-64329612D01*
X54013878Y-64328933D01*
X54008501Y-64327885D01*
X54003801Y-64326413D01*
X53999735Y-64324461D01*
X53994729Y-64320509D01*
X53990907Y-64315163D01*
X53988946Y-64310731D01*
X53987404Y-64305539D01*
X53986238Y-64299532D01*
X53985406Y-64292653D01*
X53984865Y-64284848D01*
X53984571Y-64276059D01*
X53984504Y-64271278D01*
X53984483Y-64266231D01*
X53984483Y-64124668D01*
X53984504Y-64119621D01*
X53984571Y-64114841D01*
X53984689Y-64110322D01*
X53985102Y-64102036D01*
X53985783Y-64094708D01*
X53986776Y-64088279D01*
X53988125Y-64082696D01*
X53989871Y-64077900D01*
X53992058Y-64073837D01*
X53996259Y-64068992D01*
X54001692Y-64065479D01*
X54006070Y-64063782D01*
X54011102Y-64062537D01*
X54016833Y-64061687D01*
X54023303Y-64061175D01*
X54030557Y-64060947D01*
X54034492Y-64060921D01*
X54114176Y-64060921D01*
X54114176Y-64406036D01*
X54114154Y-64411166D01*
X54114086Y-64416032D01*
X54113966Y-64420639D01*
X54113550Y-64429105D01*
X54112863Y-64436618D01*
X54111863Y-64443231D01*
X54110508Y-64448999D01*
X54108755Y-64453975D01*
X54106562Y-64458212D01*
X54103886Y-64461764D01*
X54098875Y-64465924D01*
X54094808Y-64467999D01*
X54090111Y-64469575D01*
X54084740Y-64470708D01*
X54078654Y-64471451D01*
X54071811Y-64471858D01*
X54064167Y-64471981D01*
X53999540Y-64471981D01*
G37*
G36*
X54400599Y-64227103D02*
G01*
X54407700Y-64227012D01*
X54414477Y-64226738D01*
X54420937Y-64226284D01*
X54427087Y-64225650D01*
X54432933Y-64224839D01*
X54438481Y-64223851D01*
X54443738Y-64222688D01*
X54448710Y-64221352D01*
X54453404Y-64219844D01*
X54457826Y-64218165D01*
X54461982Y-64216316D01*
X54469524Y-64212118D01*
X54476081Y-64207259D01*
X54481704Y-64201752D01*
X54486444Y-64195608D01*
X54490354Y-64188838D01*
X54493484Y-64181455D01*
X54495886Y-64173468D01*
X54497611Y-64164891D01*
X54498235Y-64160384D01*
X54498710Y-64155733D01*
X54499041Y-64150940D01*
X54499235Y-64146007D01*
X54499298Y-64140935D01*
X54499298Y-64102356D01*
X54499235Y-64097284D01*
X54499041Y-64092349D01*
X54498710Y-64087555D01*
X54498235Y-64082903D01*
X54497611Y-64078393D01*
X54496830Y-64074028D01*
X54494773Y-64065738D01*
X54492013Y-64058043D01*
X54488500Y-64050956D01*
X54484181Y-64044487D01*
X54479006Y-64038650D01*
X54472922Y-64033456D01*
X54465880Y-64028916D01*
X54457826Y-64025042D01*
X54453404Y-64023359D01*
X54448710Y-64021846D01*
X54443738Y-64020506D01*
X54438481Y-64019340D01*
X54432933Y-64018349D01*
X54427087Y-64017535D01*
X54420937Y-64016900D01*
X54414477Y-64016444D01*
X54407700Y-64016169D01*
X54400599Y-64016078D01*
X54328829Y-64016078D01*
X54321728Y-64016170D01*
X54314951Y-64016450D01*
X54308491Y-64016920D01*
X54302341Y-64017583D01*
X54296495Y-64018443D01*
X54290947Y-64019502D01*
X54285690Y-64020764D01*
X54280718Y-64022231D01*
X54276024Y-64023906D01*
X54271602Y-64025793D01*
X54267446Y-64027895D01*
X54263548Y-64030214D01*
X54259904Y-64032754D01*
X54253347Y-64038508D01*
X54247724Y-64045181D01*
X54245247Y-64048869D01*
X54242983Y-64052797D01*
X54240928Y-64056966D01*
X54239074Y-64061381D01*
X54237415Y-64066043D01*
X54235944Y-64070957D01*
X54234655Y-64076124D01*
X54233542Y-64081549D01*
X54232598Y-64087234D01*
X54231817Y-64093182D01*
X54231193Y-64099396D01*
X54230718Y-64105879D01*
X54230387Y-64112635D01*
X54230193Y-64119666D01*
X54230130Y-64126976D01*
X54230130Y-64263264D01*
X54230193Y-64270643D01*
X54230387Y-64277739D01*
X54230718Y-64284554D01*
X54231193Y-64291093D01*
X54231817Y-64297358D01*
X54232598Y-64303353D01*
X54233542Y-64309080D01*
X54234655Y-64314543D01*
X54235944Y-64319746D01*
X54237415Y-64324690D01*
X54239074Y-64329381D01*
X54240928Y-64333820D01*
X54242983Y-64338012D01*
X54245247Y-64341958D01*
X54247724Y-64345663D01*
X54253347Y-64352362D01*
X54259904Y-64358133D01*
X54263548Y-64360679D01*
X54267446Y-64363003D01*
X54271602Y-64365108D01*
X54276024Y-64366997D01*
X54280718Y-64368673D01*
X54285690Y-64370141D01*
X54290947Y-64371402D01*
X54296495Y-64372460D01*
X54302341Y-64373319D01*
X54308491Y-64373981D01*
X54314951Y-64374450D01*
X54321728Y-64374729D01*
X54328829Y-64374822D01*
X54474129Y-64374822D01*
X54474129Y-64330088D01*
X54351470Y-64330088D01*
X54343808Y-64329979D01*
X54336951Y-64329611D01*
X54330856Y-64328930D01*
X54325480Y-64327878D01*
X54320780Y-64326400D01*
X54316713Y-64324437D01*
X54311707Y-64320464D01*
X54307885Y-64315085D01*
X54305924Y-64310624D01*
X54304382Y-64305396D01*
X54303216Y-64299346D01*
X54302384Y-64292418D01*
X54301843Y-64284553D01*
X54301549Y-64275697D01*
X54301482Y-64270879D01*
X54301461Y-64265791D01*
X54301461Y-64124448D01*
X54301482Y-64119421D01*
X54301549Y-64114660D01*
X54301668Y-64110159D01*
X54302080Y-64101904D01*
X54302761Y-64094603D01*
X54303755Y-64088198D01*
X54305103Y-64082634D01*
X54306850Y-64077854D01*
X54309037Y-64073804D01*
X54313237Y-64068974D01*
X54318670Y-64065470D01*
X54323048Y-64063777D01*
X54328081Y-64062535D01*
X54333811Y-64061686D01*
X54340282Y-64061175D01*
X54347536Y-64060947D01*
X54351470Y-64060921D01*
X54377958Y-64060921D01*
X54385620Y-64061025D01*
X54392477Y-64061356D01*
X54398572Y-64061944D01*
X54403948Y-64062818D01*
X54408648Y-64064007D01*
X54414524Y-64066445D01*
X54419119Y-64069755D01*
X54422578Y-64074035D01*
X54425046Y-64079385D01*
X54426667Y-64085903D01*
X54427348Y-64090945D01*
X54427760Y-64096579D01*
X54427946Y-64102834D01*
X54427967Y-64106203D01*
X54427967Y-64140275D01*
X54427877Y-64146322D01*
X54427581Y-64151824D01*
X54427034Y-64156801D01*
X54426196Y-64161276D01*
X54424299Y-64167094D01*
X54421507Y-64171901D01*
X54417677Y-64175771D01*
X54412666Y-64178774D01*
X54406332Y-64180985D01*
X54401303Y-64182054D01*
X54395580Y-64182823D01*
X54389121Y-64183315D01*
X54381883Y-64183551D01*
X54377958Y-64183579D01*
X54338501Y-64183579D01*
X54338501Y-64227103D01*
X54400599Y-64227103D01*
G37*
G36*
X54852766Y-64060921D02*
G01*
X54860428Y-64061030D01*
X54867285Y-64061397D01*
X54873380Y-64062075D01*
X54878756Y-64063122D01*
X54883456Y-64064593D01*
X54887523Y-64066543D01*
X54892529Y-64070489D01*
X54896351Y-64075826D01*
X54898312Y-64080251D01*
X54899854Y-64085434D01*
X54901020Y-64091431D01*
X54901852Y-64098297D01*
X54902393Y-64106088D01*
X54902687Y-64114860D01*
X54902754Y-64119631D01*
X54902775Y-64124668D01*
X54902775Y-64374822D01*
X54974106Y-64374822D01*
X54974106Y-64127196D01*
X54974043Y-64119866D01*
X54973849Y-64112816D01*
X54973518Y-64106043D01*
X54973043Y-64099543D01*
X54972419Y-64093314D01*
X54971638Y-64087352D01*
X54970694Y-64081654D01*
X54969581Y-64076217D01*
X54968292Y-64071038D01*
X54966821Y-64066115D01*
X54965162Y-64061443D01*
X54963308Y-64057020D01*
X54961253Y-64052843D01*
X54958989Y-64048908D01*
X54956512Y-64045213D01*
X54950889Y-64038530D01*
X54944332Y-64032769D01*
X54940688Y-64030226D01*
X54936791Y-64027904D01*
X54932634Y-64025800D01*
X54928212Y-64023911D01*
X54923519Y-64022234D01*
X54918546Y-64020766D01*
X54913289Y-64019504D01*
X54907741Y-64018444D01*
X54901895Y-64017584D01*
X54895746Y-64016920D01*
X54889285Y-64016450D01*
X54882508Y-64016170D01*
X54875407Y-64016078D01*
X54539854Y-64016078D01*
X54539854Y-64374822D01*
X54611186Y-64374822D01*
X54611186Y-64060921D01*
X54721315Y-64060921D01*
X54721315Y-64374822D01*
X54792646Y-64374822D01*
X54792646Y-64060921D01*
X54852766Y-64060921D01*
G37*
G36*
X55192825Y-64227103D02*
G01*
X55199926Y-64227012D01*
X55206703Y-64226738D01*
X55213164Y-64226284D01*
X55219313Y-64225650D01*
X55225159Y-64224839D01*
X55230707Y-64223851D01*
X55235964Y-64222688D01*
X55240937Y-64221352D01*
X55245630Y-64219844D01*
X55250052Y-64218165D01*
X55254209Y-64216316D01*
X55261750Y-64212118D01*
X55268307Y-64207259D01*
X55273930Y-64201752D01*
X55278671Y-64195608D01*
X55282580Y-64188838D01*
X55285710Y-64181455D01*
X55288112Y-64173468D01*
X55289837Y-64164891D01*
X55290461Y-64160384D01*
X55290936Y-64155733D01*
X55291267Y-64150940D01*
X55291461Y-64146007D01*
X55291524Y-64140935D01*
X55291524Y-64102356D01*
X55291461Y-64097284D01*
X55291267Y-64092349D01*
X55290936Y-64087555D01*
X55290461Y-64082903D01*
X55289837Y-64078393D01*
X55289056Y-64074028D01*
X55286999Y-64065738D01*
X55284239Y-64058043D01*
X55280726Y-64050956D01*
X55276407Y-64044487D01*
X55271232Y-64038650D01*
X55265149Y-64033456D01*
X55258106Y-64028916D01*
X55250052Y-64025042D01*
X55245630Y-64023359D01*
X55240937Y-64021846D01*
X55235964Y-64020506D01*
X55230707Y-64019340D01*
X55225159Y-64018349D01*
X55219313Y-64017535D01*
X55213164Y-64016900D01*
X55206703Y-64016444D01*
X55199926Y-64016169D01*
X55192825Y-64016078D01*
X55121055Y-64016078D01*
X55113954Y-64016170D01*
X55107177Y-64016450D01*
X55100717Y-64016920D01*
X55094567Y-64017583D01*
X55088721Y-64018443D01*
X55083173Y-64019502D01*
X55077916Y-64020764D01*
X55072944Y-64022231D01*
X55068250Y-64023906D01*
X55063828Y-64025793D01*
X55059672Y-64027895D01*
X55055774Y-64030214D01*
X55052130Y-64032754D01*
X55045573Y-64038508D01*
X55039950Y-64045181D01*
X55037473Y-64048869D01*
X55035210Y-64052797D01*
X55033154Y-64056966D01*
X55031300Y-64061381D01*
X55029641Y-64066043D01*
X55028170Y-64070957D01*
X55026881Y-64076124D01*
X55025768Y-64081549D01*
X55024825Y-64087234D01*
X55024044Y-64093182D01*
X55023419Y-64099396D01*
X55022944Y-64105879D01*
X55022613Y-64112635D01*
X55022419Y-64119666D01*
X55022356Y-64126976D01*
X55022356Y-64263264D01*
X55022419Y-64270643D01*
X55022613Y-64277739D01*
X55022944Y-64284554D01*
X55023419Y-64291093D01*
X55024044Y-64297358D01*
X55024825Y-64303353D01*
X55025768Y-64309080D01*
X55026881Y-64314543D01*
X55028170Y-64319746D01*
X55029641Y-64324690D01*
X55031300Y-64329381D01*
X55033154Y-64333820D01*
X55035210Y-64338012D01*
X55037473Y-64341958D01*
X55039950Y-64345663D01*
X55045573Y-64352362D01*
X55052130Y-64358133D01*
X55055774Y-64360679D01*
X55059672Y-64363003D01*
X55063828Y-64365108D01*
X55068250Y-64366997D01*
X55072944Y-64368673D01*
X55077916Y-64370141D01*
X55083173Y-64371402D01*
X55088721Y-64372460D01*
X55094567Y-64373319D01*
X55100717Y-64373981D01*
X55107177Y-64374450D01*
X55113954Y-64374729D01*
X55121055Y-64374822D01*
X55266355Y-64374822D01*
X55266355Y-64330088D01*
X55143696Y-64330088D01*
X55136034Y-64329979D01*
X55129177Y-64329611D01*
X55123082Y-64328930D01*
X55117706Y-64327878D01*
X55113006Y-64326400D01*
X55108939Y-64324437D01*
X55103933Y-64320464D01*
X55100112Y-64315085D01*
X55098150Y-64310624D01*
X55096608Y-64305396D01*
X55095442Y-64299346D01*
X55094610Y-64292418D01*
X55094069Y-64284553D01*
X55093776Y-64275697D01*
X55093708Y-64270879D01*
X55093687Y-64265791D01*
X55093687Y-64124448D01*
X55093708Y-64119421D01*
X55093776Y-64114660D01*
X55093894Y-64110159D01*
X55094306Y-64101904D01*
X55094987Y-64094603D01*
X55095981Y-64088198D01*
X55097329Y-64082634D01*
X55099076Y-64077854D01*
X55101263Y-64073804D01*
X55105463Y-64068974D01*
X55110896Y-64065470D01*
X55115274Y-64063777D01*
X55120307Y-64062535D01*
X55126037Y-64061686D01*
X55132508Y-64061175D01*
X55139762Y-64060947D01*
X55143696Y-64060921D01*
X55170184Y-64060921D01*
X55177846Y-64061025D01*
X55184703Y-64061356D01*
X55190798Y-64061944D01*
X55196174Y-64062818D01*
X55200874Y-64064007D01*
X55206750Y-64066445D01*
X55211345Y-64069755D01*
X55214804Y-64074035D01*
X55217272Y-64079385D01*
X55218893Y-64085903D01*
X55219574Y-64090945D01*
X55219986Y-64096579D01*
X55220172Y-64102834D01*
X55220193Y-64106203D01*
X55220193Y-64140275D01*
X55220103Y-64146322D01*
X55219807Y-64151824D01*
X55219260Y-64156801D01*
X55218422Y-64161276D01*
X55216525Y-64167094D01*
X55213733Y-64171901D01*
X55209903Y-64175771D01*
X55204893Y-64178774D01*
X55198558Y-64180985D01*
X55193529Y-64182054D01*
X55187806Y-64182823D01*
X55181347Y-64183315D01*
X55174109Y-64183551D01*
X55170184Y-64183579D01*
X55130727Y-64183579D01*
X55130727Y-64227103D01*
X55192825Y-64227103D01*
G37*
G36*
X55485514Y-64060921D02*
G01*
X55493177Y-64061030D01*
X55500037Y-64061397D01*
X55506138Y-64062075D01*
X55511521Y-64063122D01*
X55516229Y-64064593D01*
X55520305Y-64066543D01*
X55525326Y-64070489D01*
X55529164Y-64075826D01*
X55531135Y-64080251D01*
X55532686Y-64085434D01*
X55533860Y-64091431D01*
X55534699Y-64098297D01*
X55535246Y-64106088D01*
X55535543Y-64114860D01*
X55535611Y-64119631D01*
X55535633Y-64124668D01*
X55535633Y-64374822D01*
X55606854Y-64374822D01*
X55606854Y-64127196D01*
X55606791Y-64119866D01*
X55606598Y-64112816D01*
X55606268Y-64106043D01*
X55605796Y-64099543D01*
X55605174Y-64093314D01*
X55604396Y-64087352D01*
X55603455Y-64081654D01*
X55602346Y-64076217D01*
X55601061Y-64071038D01*
X55599595Y-64066115D01*
X55597940Y-64061443D01*
X55596091Y-64057020D01*
X55594040Y-64052843D01*
X55591782Y-64048908D01*
X55589310Y-64045213D01*
X55583697Y-64038530D01*
X55577150Y-64032769D01*
X55573511Y-64030226D01*
X55569618Y-64027904D01*
X55565466Y-64025800D01*
X55561049Y-64023911D01*
X55556359Y-64022234D01*
X55551391Y-64020766D01*
X55546137Y-64019504D01*
X55540592Y-64018444D01*
X55534748Y-64017584D01*
X55528600Y-64016920D01*
X55522142Y-64016450D01*
X55515365Y-64016170D01*
X55508265Y-64016078D01*
X55332081Y-64016078D01*
X55332081Y-64374822D01*
X55403412Y-64374822D01*
X55403412Y-64060921D01*
X55485514Y-64060921D01*
G37*
G36*
X55816451Y-64016078D02*
G01*
X55728853Y-64016078D01*
X55728853Y-63924633D01*
X55657522Y-63924633D01*
X55657522Y-64286564D01*
X55657584Y-64291140D01*
X55657773Y-64295652D01*
X55658092Y-64300094D01*
X55659138Y-64308750D01*
X55660751Y-64317065D01*
X55662961Y-64324996D01*
X55665798Y-64332500D01*
X55669294Y-64339536D01*
X55673477Y-64346060D01*
X55678378Y-64352029D01*
X55684026Y-64357402D01*
X55690453Y-64362134D01*
X55697688Y-64366184D01*
X55705761Y-64369509D01*
X55710121Y-64370887D01*
X55714703Y-64372067D01*
X55719508Y-64373044D01*
X55724543Y-64373814D01*
X55729809Y-64374370D01*
X55735311Y-64374708D01*
X55741053Y-64374822D01*
X55798755Y-64374822D01*
X55798755Y-64330088D01*
X55766882Y-64330088D01*
X55761329Y-64329983D01*
X55756317Y-64329643D01*
X55751822Y-64329038D01*
X55745992Y-64327560D01*
X55741180Y-64325301D01*
X55737303Y-64322151D01*
X55734274Y-64317999D01*
X55732009Y-64312738D01*
X55730421Y-64306255D01*
X55729697Y-64301202D01*
X55729211Y-64295524D01*
X55728938Y-64289190D01*
X55728853Y-64282168D01*
X55728853Y-64060921D01*
X55816451Y-64060921D01*
X55816451Y-64016078D01*
G37*
G36*
X56242019Y-64238974D02*
G01*
X56241926Y-64229621D01*
X56241643Y-64220721D01*
X56241172Y-64212263D01*
X56240510Y-64204238D01*
X56239657Y-64196635D01*
X56238611Y-64189444D01*
X56237373Y-64182655D01*
X56235940Y-64176257D01*
X56234312Y-64170240D01*
X56232488Y-64164594D01*
X56230467Y-64159310D01*
X56228248Y-64154375D01*
X56225830Y-64149781D01*
X56223212Y-64145518D01*
X56220393Y-64141574D01*
X56217372Y-64137940D01*
X56214149Y-64134605D01*
X56210721Y-64131559D01*
X56207089Y-64128793D01*
X56203251Y-64126295D01*
X56199206Y-64124056D01*
X56194953Y-64122065D01*
X56190492Y-64120313D01*
X56185821Y-64118788D01*
X56180940Y-64117481D01*
X56175847Y-64116381D01*
X56170542Y-64115479D01*
X56165023Y-64114763D01*
X56159289Y-64114225D01*
X56153341Y-64113853D01*
X56147176Y-64113637D01*
X56140793Y-64113567D01*
X56096060Y-64113567D01*
X56088510Y-64113426D01*
X56081779Y-64112966D01*
X56075822Y-64112135D01*
X56070594Y-64110880D01*
X56066047Y-64109147D01*
X56062136Y-64106884D01*
X56057362Y-64102380D01*
X56054841Y-64098561D01*
X56052795Y-64094025D01*
X56051179Y-64088721D01*
X56049947Y-64082596D01*
X56049052Y-64075596D01*
X56048450Y-64067669D01*
X56048093Y-64058761D01*
X56047993Y-64053923D01*
X56047937Y-64048820D01*
X56047920Y-64043445D01*
X56047964Y-64037963D01*
X56048096Y-64032743D01*
X56048317Y-64027780D01*
X56048627Y-64023069D01*
X56049027Y-64018602D01*
X56050100Y-64010382D01*
X56051540Y-64003073D01*
X56053352Y-63996630D01*
X56055542Y-63991004D01*
X56058112Y-63986150D01*
X56061070Y-63982021D01*
X56064419Y-63978571D01*
X56068164Y-63975753D01*
X56072310Y-63973521D01*
X56076862Y-63971828D01*
X56081825Y-63970628D01*
X56087203Y-63969873D01*
X56093001Y-63969518D01*
X56096060Y-63969476D01*
X56206739Y-63969476D01*
X56206739Y-63924633D01*
X56080343Y-63924633D01*
X56073604Y-63924774D01*
X56067132Y-63925193D01*
X56060923Y-63925889D01*
X56054974Y-63926857D01*
X56049280Y-63928096D01*
X56043839Y-63929601D01*
X56038648Y-63931370D01*
X56033702Y-63933400D01*
X56028998Y-63935688D01*
X56024533Y-63938230D01*
X56020304Y-63941024D01*
X56016307Y-63944067D01*
X56012538Y-63947355D01*
X56008994Y-63950886D01*
X56005672Y-63954657D01*
X56002568Y-63958664D01*
X55999679Y-63962904D01*
X55997002Y-63967375D01*
X55994532Y-63972073D01*
X55992266Y-63976996D01*
X55990202Y-63982139D01*
X55988335Y-63987501D01*
X55986662Y-63993079D01*
X55985180Y-63998868D01*
X55983886Y-64004867D01*
X55982775Y-64011072D01*
X55981844Y-64017479D01*
X55981090Y-64024087D01*
X55980510Y-64030892D01*
X55980100Y-64037890D01*
X55979856Y-64045080D01*
X55979776Y-64052458D01*
X55979846Y-64060931D01*
X55980060Y-64069062D01*
X55980419Y-64076858D01*
X55980928Y-64084322D01*
X55981590Y-64091459D01*
X55982408Y-64098273D01*
X55983385Y-64104771D01*
X55984524Y-64110955D01*
X55985829Y-64116832D01*
X55987303Y-64122405D01*
X55988949Y-64127680D01*
X55990771Y-64132661D01*
X55992771Y-64137353D01*
X55994953Y-64141760D01*
X55997320Y-64145888D01*
X55999876Y-64149741D01*
X56002623Y-64153324D01*
X56005564Y-64156641D01*
X56012046Y-64162499D01*
X56019345Y-64167351D01*
X56023310Y-64169413D01*
X56027489Y-64171237D01*
X56031885Y-64172829D01*
X56036502Y-64174193D01*
X56041343Y-64175334D01*
X56046412Y-64176258D01*
X56051710Y-64176968D01*
X56057243Y-64177469D01*
X56063013Y-64177766D01*
X56069022Y-64177864D01*
X56116943Y-64177864D01*
X56121400Y-64177892D01*
X56129622Y-64178140D01*
X56136963Y-64178697D01*
X56143470Y-64179625D01*
X56149191Y-64180987D01*
X56154173Y-64182848D01*
X56158464Y-64185269D01*
X56162112Y-64188315D01*
X56165164Y-64192048D01*
X56167668Y-64196531D01*
X56169671Y-64201827D01*
X56171222Y-64208000D01*
X56172368Y-64215112D01*
X56173156Y-64223227D01*
X56173431Y-64227680D01*
X56173634Y-64232408D01*
X56173772Y-64237418D01*
X56173851Y-64242718D01*
X56173876Y-64248316D01*
X56173829Y-64254681D01*
X56173688Y-64260718D01*
X56173453Y-64266433D01*
X56173123Y-64271836D01*
X56172698Y-64276935D01*
X56172176Y-64281738D01*
X56171558Y-64286254D01*
X56170030Y-64294456D01*
X56168110Y-64301608D01*
X56165794Y-64307777D01*
X56163076Y-64313030D01*
X56159954Y-64317432D01*
X56156422Y-64321052D01*
X56152478Y-64323954D01*
X56148116Y-64326207D01*
X56143332Y-64327877D01*
X56138122Y-64329029D01*
X56132483Y-64329732D01*
X56126409Y-64330052D01*
X56123208Y-64330088D01*
X55991206Y-64330088D01*
X55991206Y-64374822D01*
X56135847Y-64374822D01*
X56142853Y-64374691D01*
X56149591Y-64374299D01*
X56156065Y-64373646D01*
X56162277Y-64372730D01*
X56168231Y-64371552D01*
X56173929Y-64370112D01*
X56179374Y-64368407D01*
X56184570Y-64366439D01*
X56189518Y-64364207D01*
X56194223Y-64361710D01*
X56198687Y-64358948D01*
X56202913Y-64355921D01*
X56206904Y-64352627D01*
X56210662Y-64349068D01*
X56214192Y-64345242D01*
X56217496Y-64341148D01*
X56220577Y-64336787D01*
X56223437Y-64332158D01*
X56226080Y-64327260D01*
X56228509Y-64322094D01*
X56230727Y-64316658D01*
X56232736Y-64310953D01*
X56234540Y-64304978D01*
X56236141Y-64298732D01*
X56237543Y-64292215D01*
X56238748Y-64285426D01*
X56239760Y-64278366D01*
X56240581Y-64271034D01*
X56241215Y-64263429D01*
X56241664Y-64255551D01*
X56241931Y-64247399D01*
X56242019Y-64238974D01*
G37*
G36*
X56385231Y-64515505D02*
G01*
X56534708Y-64016078D01*
X56466894Y-64016078D01*
X56390287Y-64292719D01*
X56317967Y-64016078D01*
X56244328Y-64016078D01*
X56356325Y-64379877D01*
X56316098Y-64515505D01*
X56385231Y-64515505D01*
G37*
G36*
X56801128Y-64265572D02*
G01*
X56801049Y-64258216D01*
X56800810Y-64251187D01*
X56800407Y-64244479D01*
X56799837Y-64238087D01*
X56799096Y-64232004D01*
X56798181Y-64226223D01*
X56797087Y-64220739D01*
X56795811Y-64215546D01*
X56794350Y-64210637D01*
X56792700Y-64206006D01*
X56790857Y-64201647D01*
X56788817Y-64197554D01*
X56786578Y-64193720D01*
X56781485Y-64186808D01*
X56775549Y-64180861D01*
X56768740Y-64175829D01*
X56761030Y-64171663D01*
X56756828Y-64169890D01*
X56752390Y-64168315D01*
X56747712Y-64166932D01*
X56742791Y-64165734D01*
X56737622Y-64164716D01*
X56732203Y-64163872D01*
X56726530Y-64163195D01*
X56720598Y-64162679D01*
X56714405Y-64162318D01*
X56707947Y-64162106D01*
X56701220Y-64162037D01*
X56657147Y-64162037D01*
X56649565Y-64161956D01*
X56642783Y-64161679D01*
X56636757Y-64161159D01*
X56631445Y-64160347D01*
X56626805Y-64159195D01*
X56621008Y-64156725D01*
X56616480Y-64153217D01*
X56613077Y-64148509D01*
X56610654Y-64142439D01*
X56609511Y-64137555D01*
X56608697Y-64131944D01*
X56608169Y-64125558D01*
X56607883Y-64118350D01*
X56607798Y-64110270D01*
X56607976Y-64102199D01*
X56608516Y-64095054D01*
X56609423Y-64088778D01*
X56610702Y-64083316D01*
X56612359Y-64078613D01*
X56614399Y-64074611D01*
X56618192Y-64069803D01*
X56622879Y-64066260D01*
X56628481Y-64063794D01*
X56632733Y-64062656D01*
X56637404Y-64061856D01*
X56642502Y-64061340D01*
X56648031Y-64061051D01*
X56653998Y-64060933D01*
X56657147Y-64060921D01*
X56766507Y-64060921D01*
X56766507Y-64016078D01*
X56641430Y-64016078D01*
X56634772Y-64016190D01*
X56628378Y-64016524D01*
X56622243Y-64017078D01*
X56616365Y-64017848D01*
X56610740Y-64018834D01*
X56605364Y-64020031D01*
X56600235Y-64021438D01*
X56595349Y-64023052D01*
X56590702Y-64024870D01*
X56586290Y-64026889D01*
X56582112Y-64029108D01*
X56578163Y-64031524D01*
X56574439Y-64034134D01*
X56570938Y-64036935D01*
X56567656Y-64039925D01*
X56564589Y-64043102D01*
X56561735Y-64046462D01*
X56559090Y-64050004D01*
X56556650Y-64053724D01*
X56554411Y-64057621D01*
X56552372Y-64061691D01*
X56550528Y-64065933D01*
X56548875Y-64070343D01*
X56547411Y-64074919D01*
X56546132Y-64079658D01*
X56545034Y-64084558D01*
X56544115Y-64089617D01*
X56543370Y-64094831D01*
X56542797Y-64100198D01*
X56542392Y-64105716D01*
X56542151Y-64111382D01*
X56542072Y-64117194D01*
X56542142Y-64123959D01*
X56542357Y-64130467D01*
X56542717Y-64136721D01*
X56543226Y-64142726D01*
X56543888Y-64148482D01*
X56544705Y-64153992D01*
X56545681Y-64159260D01*
X56546817Y-64164289D01*
X56548117Y-64169080D01*
X56549584Y-64173636D01*
X56551222Y-64177961D01*
X56553032Y-64182057D01*
X56557183Y-64189573D01*
X56562062Y-64196205D01*
X56567691Y-64201976D01*
X56574095Y-64206907D01*
X56581297Y-64211019D01*
X56589321Y-64214335D01*
X56593648Y-64215701D01*
X56598190Y-64216876D01*
X56602950Y-64217863D01*
X56607929Y-64218665D01*
X56613132Y-64219283D01*
X56618561Y-64219722D01*
X56624219Y-64219983D01*
X56630109Y-64220069D01*
X56677370Y-64220069D01*
X56682024Y-64220086D01*
X56686427Y-64220140D01*
X56694510Y-64220389D01*
X56701673Y-64220871D01*
X56707970Y-64221641D01*
X56713453Y-64222752D01*
X56718178Y-64224260D01*
X56722197Y-64226219D01*
X56727022Y-64230122D01*
X56730562Y-64235348D01*
X56732299Y-64239657D01*
X56733599Y-64244691D01*
X56734517Y-64250502D01*
X56735106Y-64257148D01*
X56735419Y-64264680D01*
X56735512Y-64273155D01*
X56735464Y-64278096D01*
X56735321Y-64282742D01*
X56734744Y-64291190D01*
X56733776Y-64298571D01*
X56732414Y-64304957D01*
X56730653Y-64310419D01*
X56728487Y-64315030D01*
X56725914Y-64318860D01*
X56721278Y-64323301D01*
X56715698Y-64326391D01*
X56711447Y-64327820D01*
X56706764Y-64328828D01*
X56701646Y-64329487D01*
X56696088Y-64329869D01*
X56690086Y-64330046D01*
X56683635Y-64330088D01*
X56553502Y-64330088D01*
X56553502Y-64374822D01*
X56696275Y-64374822D01*
X56703199Y-64374717D01*
X56709859Y-64374405D01*
X56716257Y-64373883D01*
X56722396Y-64373152D01*
X56728279Y-64372211D01*
X56733908Y-64371059D01*
X56739288Y-64369696D01*
X56744420Y-64368122D01*
X56749308Y-64366336D01*
X56753955Y-64364337D01*
X56758363Y-64362125D01*
X56762536Y-64359700D01*
X56766477Y-64357060D01*
X56770188Y-64354206D01*
X56773673Y-64351137D01*
X56776934Y-64347853D01*
X56779975Y-64344352D01*
X56782798Y-64340635D01*
X56785406Y-64336700D01*
X56787803Y-64332548D01*
X56789991Y-64328178D01*
X56791973Y-64323590D01*
X56793752Y-64318782D01*
X56795332Y-64313755D01*
X56796715Y-64308508D01*
X56797903Y-64303040D01*
X56798901Y-64297351D01*
X56799711Y-64291440D01*
X56800335Y-64285307D01*
X56800778Y-64278952D01*
X56801041Y-64272374D01*
X56801128Y-64265572D01*
G37*
G36*
X56997756Y-64016078D02*
G01*
X56910158Y-64016078D01*
X56910158Y-63924633D01*
X56838827Y-63924633D01*
X56838827Y-64286564D01*
X56838889Y-64291140D01*
X56839078Y-64295652D01*
X56839397Y-64300094D01*
X56840443Y-64308750D01*
X56842056Y-64317065D01*
X56844266Y-64324996D01*
X56847103Y-64332500D01*
X56850599Y-64339536D01*
X56854782Y-64346060D01*
X56859683Y-64352029D01*
X56865331Y-64357402D01*
X56871758Y-64362134D01*
X56878993Y-64366184D01*
X56887066Y-64369509D01*
X56891426Y-64370887D01*
X56896008Y-64372067D01*
X56900813Y-64373044D01*
X56905848Y-64373814D01*
X56911114Y-64374370D01*
X56916616Y-64374708D01*
X56922358Y-64374822D01*
X56980060Y-64374822D01*
X56980060Y-64330088D01*
X56948187Y-64330088D01*
X56942634Y-64329983D01*
X56937622Y-64329643D01*
X56933127Y-64329038D01*
X56927296Y-64327560D01*
X56922485Y-64325301D01*
X56918608Y-64322151D01*
X56915579Y-64317999D01*
X56913314Y-64312738D01*
X56911726Y-64306255D01*
X56911002Y-64301202D01*
X56910516Y-64295524D01*
X56910243Y-64289190D01*
X56910158Y-64282168D01*
X56910158Y-64060921D01*
X56997756Y-64060921D01*
X56997756Y-64016078D01*
G37*
G36*
X57188778Y-64227103D02*
G01*
X57195879Y-64227012D01*
X57202656Y-64226738D01*
X57209116Y-64226284D01*
X57215266Y-64225650D01*
X57221112Y-64224839D01*
X57226660Y-64223851D01*
X57231917Y-64222688D01*
X57236889Y-64221352D01*
X57241583Y-64219844D01*
X57246005Y-64218165D01*
X57250161Y-64216316D01*
X57257703Y-64212118D01*
X57264260Y-64207259D01*
X57269883Y-64201752D01*
X57274623Y-64195608D01*
X57278533Y-64188838D01*
X57281663Y-64181455D01*
X57284064Y-64173468D01*
X57285789Y-64164891D01*
X57286414Y-64160384D01*
X57286888Y-64155733D01*
X57287219Y-64150940D01*
X57287413Y-64146007D01*
X57287477Y-64140935D01*
X57287477Y-64102356D01*
X57287413Y-64097284D01*
X57287219Y-64092349D01*
X57286888Y-64087555D01*
X57286414Y-64082903D01*
X57285789Y-64078393D01*
X57285008Y-64074028D01*
X57282951Y-64065738D01*
X57280192Y-64058043D01*
X57276679Y-64050956D01*
X57272360Y-64044487D01*
X57267185Y-64038650D01*
X57261101Y-64033456D01*
X57254058Y-64028916D01*
X57246005Y-64025042D01*
X57241583Y-64023359D01*
X57236889Y-64021846D01*
X57231917Y-64020506D01*
X57226660Y-64019340D01*
X57221112Y-64018349D01*
X57215266Y-64017535D01*
X57209116Y-64016900D01*
X57202656Y-64016444D01*
X57195879Y-64016169D01*
X57188778Y-64016078D01*
X57117007Y-64016078D01*
X57109907Y-64016170D01*
X57103130Y-64016450D01*
X57096669Y-64016920D01*
X57090519Y-64017583D01*
X57084674Y-64018443D01*
X57079125Y-64019502D01*
X57073868Y-64020764D01*
X57068896Y-64022231D01*
X57064202Y-64023906D01*
X57059781Y-64025793D01*
X57055624Y-64027895D01*
X57051727Y-64030214D01*
X57048082Y-64032754D01*
X57041526Y-64038508D01*
X57035903Y-64045181D01*
X57033425Y-64048869D01*
X57031162Y-64052797D01*
X57029107Y-64056966D01*
X57027253Y-64061381D01*
X57025593Y-64066043D01*
X57024123Y-64070957D01*
X57022834Y-64076124D01*
X57021721Y-64081549D01*
X57020777Y-64087234D01*
X57019996Y-64093182D01*
X57019372Y-64099396D01*
X57018897Y-64105879D01*
X57018566Y-64112635D01*
X57018372Y-64119666D01*
X57018309Y-64126976D01*
X57018309Y-64263264D01*
X57018372Y-64270643D01*
X57018566Y-64277739D01*
X57018897Y-64284554D01*
X57019372Y-64291093D01*
X57019996Y-64297358D01*
X57020777Y-64303353D01*
X57021721Y-64309080D01*
X57022834Y-64314543D01*
X57024123Y-64319746D01*
X57025593Y-64324690D01*
X57027253Y-64329381D01*
X57029107Y-64333820D01*
X57031162Y-64338012D01*
X57033425Y-64341958D01*
X57035903Y-64345663D01*
X57041526Y-64352362D01*
X57048082Y-64358133D01*
X57051727Y-64360679D01*
X57055624Y-64363003D01*
X57059781Y-64365108D01*
X57064202Y-64366997D01*
X57068896Y-64368673D01*
X57073868Y-64370141D01*
X57079125Y-64371402D01*
X57084674Y-64372460D01*
X57090519Y-64373319D01*
X57096669Y-64373981D01*
X57103130Y-64374450D01*
X57109907Y-64374729D01*
X57117007Y-64374822D01*
X57262307Y-64374822D01*
X57262307Y-64330088D01*
X57139649Y-64330088D01*
X57131987Y-64329979D01*
X57125130Y-64329611D01*
X57119035Y-64328930D01*
X57113658Y-64327878D01*
X57108958Y-64326400D01*
X57104892Y-64324437D01*
X57099886Y-64320464D01*
X57096064Y-64315085D01*
X57094103Y-64310624D01*
X57092561Y-64305396D01*
X57091395Y-64299346D01*
X57090563Y-64292418D01*
X57090022Y-64284553D01*
X57089728Y-64275697D01*
X57089661Y-64270879D01*
X57089640Y-64265791D01*
X57089640Y-64124448D01*
X57089661Y-64119421D01*
X57089728Y-64114660D01*
X57089847Y-64110159D01*
X57090259Y-64101904D01*
X57090940Y-64094603D01*
X57091933Y-64088198D01*
X57093282Y-64082634D01*
X57095028Y-64077854D01*
X57097215Y-64073804D01*
X57101416Y-64068974D01*
X57106849Y-64065470D01*
X57111227Y-64063777D01*
X57116259Y-64062535D01*
X57121990Y-64061686D01*
X57128460Y-64061175D01*
X57135714Y-64060947D01*
X57139649Y-64060921D01*
X57166137Y-64060921D01*
X57173798Y-64061025D01*
X57180655Y-64061356D01*
X57186751Y-64061944D01*
X57192127Y-64062818D01*
X57196827Y-64064007D01*
X57202703Y-64066445D01*
X57207298Y-64069755D01*
X57210757Y-64074035D01*
X57213225Y-64079385D01*
X57214845Y-64085903D01*
X57215527Y-64090945D01*
X57215939Y-64096579D01*
X57216124Y-64102834D01*
X57216145Y-64106203D01*
X57216145Y-64140275D01*
X57216056Y-64146322D01*
X57215759Y-64151824D01*
X57215213Y-64156801D01*
X57214375Y-64161276D01*
X57212478Y-64167094D01*
X57209686Y-64171901D01*
X57205856Y-64175771D01*
X57200845Y-64178774D01*
X57194511Y-64180985D01*
X57189482Y-64182054D01*
X57183759Y-64182823D01*
X57177299Y-64183315D01*
X57170061Y-64183551D01*
X57166137Y-64183579D01*
X57126679Y-64183579D01*
X57126679Y-64227103D01*
X57188778Y-64227103D01*
G37*
G36*
X57640945Y-64060921D02*
G01*
X57648607Y-64061030D01*
X57655464Y-64061397D01*
X57661559Y-64062075D01*
X57666935Y-64063122D01*
X57671635Y-64064593D01*
X57675701Y-64066543D01*
X57680707Y-64070489D01*
X57684529Y-64075826D01*
X57686491Y-64080251D01*
X57688033Y-64085434D01*
X57689198Y-64091431D01*
X57690031Y-64098297D01*
X57690572Y-64106088D01*
X57690865Y-64114860D01*
X57690932Y-64119631D01*
X57690954Y-64124668D01*
X57690954Y-64374822D01*
X57762285Y-64374822D01*
X57762285Y-64127196D01*
X57762221Y-64119866D01*
X57762028Y-64112816D01*
X57761696Y-64106043D01*
X57761222Y-64099543D01*
X57760597Y-64093314D01*
X57759816Y-64087352D01*
X57758872Y-64081654D01*
X57757759Y-64076217D01*
X57756471Y-64071038D01*
X57755000Y-64066115D01*
X57753341Y-64061443D01*
X57751487Y-64057020D01*
X57749431Y-64052843D01*
X57747168Y-64048908D01*
X57744691Y-64045213D01*
X57739068Y-64038530D01*
X57732511Y-64032769D01*
X57728866Y-64030226D01*
X57724969Y-64027904D01*
X57720813Y-64025800D01*
X57716391Y-64023911D01*
X57711697Y-64022234D01*
X57706725Y-64020766D01*
X57701468Y-64019504D01*
X57695920Y-64018444D01*
X57690074Y-64017584D01*
X57683924Y-64016920D01*
X57677464Y-64016450D01*
X57670687Y-64016170D01*
X57663586Y-64016078D01*
X57328033Y-64016078D01*
X57328033Y-64374822D01*
X57399364Y-64374822D01*
X57399364Y-64060921D01*
X57509493Y-64060921D01*
X57509493Y-64374822D01*
X57580824Y-64374822D01*
X57580824Y-64060921D01*
X57640945Y-64060921D01*
G37*
D13*
%TO.C,R2*%
X55697528Y-58053748D03*
X55697528Y-56403748D03*
%TD*%
D14*
%TO.C,R7*%
X75912528Y-52135000D03*
X74262528Y-52135000D03*
%TD*%
D15*
%TO.C,IC1*%
X54658780Y-51803748D03*
X54658780Y-52303748D03*
X54658780Y-52803748D03*
X54658780Y-53303748D03*
X54658780Y-53803748D03*
X54658780Y-54303748D03*
D16*
X55408780Y-55053748D03*
X55908780Y-55053748D03*
X56408780Y-55053748D03*
X56908780Y-55053748D03*
X57408780Y-55053748D03*
X57908780Y-55053748D03*
D15*
X58658780Y-54303748D03*
X58658780Y-53803748D03*
X58658780Y-53303748D03*
X58658780Y-52803748D03*
X58658780Y-52303748D03*
X58658780Y-51803748D03*
D16*
X57908780Y-51053748D03*
X57408780Y-51053748D03*
X56908780Y-51053748D03*
X56408780Y-51053748D03*
X55908780Y-51053748D03*
X55408780Y-51053748D03*
D17*
X56658780Y-53053748D03*
%TD*%
D18*
%TO.C,C1*%
X53208780Y-52378748D03*
X51308780Y-52378748D03*
%TD*%
D19*
%TO.C,C12*%
X68837528Y-59845000D03*
X68837528Y-61745000D03*
%TD*%
D20*
%TO.C,R4*%
X51987528Y-46953748D03*
X51987528Y-48603748D03*
%TD*%
D21*
%TO.C,REF\u002A\u002A*%
X52512528Y-43780000D03*
%TD*%
D22*
%TO.C,Q1*%
X64393780Y-52900000D03*
X64393780Y-53550000D03*
X64393780Y-54200000D03*
X64393780Y-54850000D03*
D23*
X67293780Y-54850000D03*
X67293780Y-54200000D03*
X67293780Y-53550000D03*
X67293780Y-52900000D03*
D24*
X66153780Y-53875000D03*
D25*
X65793780Y-52460000D03*
X65793780Y-55290000D03*
%TD*%
D13*
%TO.C,R3*%
X53612528Y-48603748D03*
X53612528Y-46953748D03*
%TD*%
D26*
%TO.C,TP8*%
X78627528Y-63785000D03*
%TD*%
D19*
%TO.C,C11*%
X76647528Y-48645000D03*
X76647528Y-50545000D03*
%TD*%
D27*
%TO.C,D1*%
X61472528Y-43015000D03*
D28*
X62742528Y-43015000D03*
%TD*%
D20*
%TO.C,R10*%
X71787528Y-62490000D03*
X71787528Y-64140000D03*
%TD*%
D29*
%TO.C,TP2*%
X51562528Y-55580000D03*
%TD*%
D30*
%TO.C,Q3*%
X57342528Y-60725000D03*
X57342528Y-59425000D03*
X55342528Y-60075000D03*
%TD*%
D19*
%TO.C,C13*%
X73597528Y-59845000D03*
X73597528Y-61745000D03*
%TD*%
D31*
%TO.C,L3*%
X69817528Y-56745000D03*
X72617528Y-56745000D03*
%TD*%
D27*
%TO.C,SW1*%
X68577528Y-64845000D03*
D28*
X69847528Y-64845000D03*
%TD*%
D31*
%TO.C,L1*%
X62958780Y-48128748D03*
X60158780Y-48128748D03*
%TD*%
D14*
%TO.C,R9*%
X74922528Y-63325000D03*
X73272528Y-63325000D03*
%TD*%
D32*
%TO.C,U1*%
X72947528Y-48495000D03*
X72447528Y-48495000D03*
X71947528Y-48495000D03*
X71447528Y-48495000D03*
X71447528Y-49975000D03*
X71947528Y-49975000D03*
X72447528Y-49975000D03*
X72947528Y-49975000D03*
%TD*%
D33*
%TO.C,C4*%
X58808780Y-56878748D03*
X60708780Y-56878748D03*
%TD*%
D19*
%TO.C,C9*%
X69827528Y-48665000D03*
X69827528Y-50565000D03*
%TD*%
D34*
%TO.C,R5*%
X59687528Y-44780000D03*
X61337528Y-44780000D03*
%TD*%
D35*
%TO.C,IC2*%
X66528780Y-60280000D03*
X66528780Y-59330000D03*
X66528780Y-58380000D03*
X64028780Y-58380000D03*
X64028780Y-59330000D03*
X64028780Y-60280000D03*
%TD*%
D20*
%TO.C,R8*%
X72777528Y-51315000D03*
X72777528Y-52965000D03*
%TD*%
D36*
%TO.C,C7*%
X62358780Y-53028748D03*
X62358780Y-51128748D03*
%TD*%
D31*
%TO.C,L2*%
X70807528Y-45535000D03*
X73607528Y-45535000D03*
%TD*%
D29*
%TO.C,TP1*%
X51577528Y-58705000D03*
%TD*%
D36*
%TO.C,C6*%
X60318780Y-53028748D03*
X60318780Y-51128748D03*
%TD*%
D37*
%TO.C,R11*%
X58837528Y-58545000D03*
X59857528Y-58545000D03*
%TD*%
D21*
%TO.C,REF\u002A\u002A*%
X67333780Y-43785000D03*
%TD*%
D38*
%TO.C,TP7*%
X65687528Y-64675000D03*
%TD*%
D13*
%TO.C,R1*%
X54157528Y-58053748D03*
X54157528Y-56403748D03*
%TD*%
D39*
%TO.C,R12*%
X57202528Y-57270000D03*
X57202528Y-58290000D03*
%TD*%
D40*
%TO.C,C15*%
X75822528Y-58265000D03*
X74272528Y-58265000D03*
%TD*%
D29*
%TO.C,TP5*%
X78647528Y-47825000D03*
%TD*%
D32*
%TO.C,U2*%
X71967528Y-59675000D03*
X71467528Y-59675000D03*
X70967528Y-59675000D03*
X70467528Y-59675000D03*
X70467528Y-61155000D03*
X70967528Y-61155000D03*
X71467528Y-61155000D03*
X71967528Y-61155000D03*
%TD*%
D19*
%TO.C,C10*%
X74587528Y-48645000D03*
X74587528Y-50545000D03*
%TD*%
D14*
%TO.C,R6*%
X64237528Y-56830000D03*
X62587528Y-56830000D03*
%TD*%
D18*
%TO.C,C3*%
X53208780Y-50303748D03*
X51308780Y-50303748D03*
%TD*%
D38*
%TO.C,TP3*%
X60447528Y-64665000D03*
%TD*%
D19*
%TO.C,C2*%
X57383780Y-46803748D03*
X57383780Y-48703748D03*
%TD*%
D22*
%TO.C,Q2*%
X58712528Y-60100000D03*
X58712528Y-60750000D03*
X58712528Y-61400000D03*
X58712528Y-62050000D03*
D23*
X61612528Y-62050000D03*
X61612528Y-61400000D03*
X61612528Y-60750000D03*
X61612528Y-60100000D03*
D24*
X60472528Y-61075000D03*
D25*
X60112528Y-59660000D03*
X60112528Y-62490000D03*
%TD*%
D41*
%TO.C,U3*%
X74550028Y-54785000D03*
X74550028Y-56685000D03*
X76425028Y-55735000D03*
%TD*%
D19*
%TO.C,C5*%
X55358780Y-46803748D03*
X55358780Y-48703748D03*
%TD*%
D29*
%TO.C,TP4*%
X78657528Y-53875000D03*
%TD*%
D19*
%TO.C,C14*%
X75657528Y-59845000D03*
X75657528Y-61745000D03*
%TD*%
D29*
%TO.C,TP6*%
X78617528Y-59895000D03*
%TD*%
D18*
%TO.C,C8*%
X62583780Y-54828748D03*
X60683780Y-54828748D03*
%TD*%
M02*
