%TF.GenerationSoftware,KiCad,Pcbnew,7.0.7*%
%TF.CreationDate,2023-08-24T02:08:31-05:00*%
%TF.ProjectId,psxpress-pms,70737870-7265-4737-932d-706d732e6b69,rev?*%
%TF.SameCoordinates,Original*%
%TF.FileFunction,Copper,L1,Top*%
%TF.FilePolarity,Positive*%
%FSLAX46Y46*%
G04 Gerber Fmt 4.6, Leading zero omitted, Abs format (unit mm)*
G04 Created by KiCad (PCBNEW 7.0.7) date 2023-08-24 02:08:31*
%MOMM*%
%LPD*%
G01*
G04 APERTURE LIST*
G04 Aperture macros list*
%AMRoundRect*
0 Rectangle with rounded corners*
0 $1 Rounding radius*
0 $2 $3 $4 $5 $6 $7 $8 $9 X,Y pos of 4 corners*
0 Add a 4 corners polygon primitive as box body*
4,1,4,$2,$3,$4,$5,$6,$7,$8,$9,$2,$3,0*
0 Add four circle primitives for the rounded corners*
1,1,$1+$1,$2,$3*
1,1,$1+$1,$4,$5*
1,1,$1+$1,$6,$7*
1,1,$1+$1,$8,$9*
0 Add four rect primitives between the rounded corners*
20,1,$1+$1,$2,$3,$4,$5,0*
20,1,$1+$1,$4,$5,$6,$7,0*
20,1,$1+$1,$6,$7,$8,$9,0*
20,1,$1+$1,$8,$9,$2,$3,0*%
G04 Aperture macros list end*
%TA.AperFunction,SMDPad,CuDef*%
%ADD10RoundRect,0.200000X0.275000X-0.200000X0.275000X0.200000X-0.275000X0.200000X-0.275000X-0.200000X0*%
%TD*%
%TA.AperFunction,SMDPad,CuDef*%
%ADD11RoundRect,0.200000X0.200000X0.275000X-0.200000X0.275000X-0.200000X-0.275000X0.200000X-0.275000X0*%
%TD*%
%TA.AperFunction,SMDPad,CuDef*%
%ADD12R,0.800000X0.300000*%
%TD*%
%TA.AperFunction,SMDPad,CuDef*%
%ADD13R,0.300000X0.800000*%
%TD*%
%TA.AperFunction,SMDPad,CuDef*%
%ADD14R,2.800000X2.800000*%
%TD*%
%TA.AperFunction,SMDPad,CuDef*%
%ADD15RoundRect,0.250000X0.250000X0.475000X-0.250000X0.475000X-0.250000X-0.475000X0.250000X-0.475000X0*%
%TD*%
%TA.AperFunction,SMDPad,CuDef*%
%ADD16RoundRect,0.250000X-0.475000X0.250000X-0.475000X-0.250000X0.475000X-0.250000X0.475000X0.250000X0*%
%TD*%
%TA.AperFunction,SMDPad,CuDef*%
%ADD17RoundRect,0.200000X-0.275000X0.200000X-0.275000X-0.200000X0.275000X-0.200000X0.275000X0.200000X0*%
%TD*%
%TA.AperFunction,SMDPad,CuDef*%
%ADD18R,0.500000X0.350000*%
%TD*%
%TA.AperFunction,SMDPad,CuDef*%
%ADD19R,0.300000X0.400000*%
%TD*%
%TA.AperFunction,SMDPad,CuDef*%
%ADD20R,1.980000X2.450000*%
%TD*%
%TA.AperFunction,SMDPad,CuDef*%
%ADD21R,0.430000X0.380000*%
%TD*%
%TA.AperFunction,SMDPad,CuDef*%
%ADD22C,1.250000*%
%TD*%
%TA.AperFunction,ComponentPad*%
%ADD23R,1.045000X1.045000*%
%TD*%
%TA.AperFunction,ComponentPad*%
%ADD24C,1.045000*%
%TD*%
%TA.AperFunction,SMDPad,CuDef*%
%ADD25R,1.500000X2.500000*%
%TD*%
%TA.AperFunction,SMDPad,CuDef*%
%ADD26R,0.700000X0.450000*%
%TD*%
%TA.AperFunction,SMDPad,CuDef*%
%ADD27R,1.200000X3.700000*%
%TD*%
%TA.AperFunction,SMDPad,CuDef*%
%ADD28RoundRect,0.050000X-0.100000X0.285000X-0.100000X-0.285000X0.100000X-0.285000X0.100000X0.285000X0*%
%TD*%
%TA.AperFunction,SMDPad,CuDef*%
%ADD29RoundRect,0.250000X-0.250000X-0.475000X0.250000X-0.475000X0.250000X0.475000X-0.250000X0.475000X0*%
%TD*%
%TA.AperFunction,SMDPad,CuDef*%
%ADD30RoundRect,0.200000X-0.200000X-0.275000X0.200000X-0.275000X0.200000X0.275000X-0.200000X0.275000X0*%
%TD*%
%TA.AperFunction,SMDPad,CuDef*%
%ADD31R,1.050000X0.550000*%
%TD*%
%TA.AperFunction,SMDPad,CuDef*%
%ADD32RoundRect,0.250000X0.475000X-0.250000X0.475000X0.250000X-0.475000X0.250000X-0.475000X-0.250000X0*%
%TD*%
%TA.AperFunction,SMDPad,CuDef*%
%ADD33RoundRect,0.135000X-0.135000X-0.185000X0.135000X-0.185000X0.135000X0.185000X-0.135000X0.185000X0*%
%TD*%
%TA.AperFunction,SMDPad,CuDef*%
%ADD34R,2.500000X1.500000*%
%TD*%
%TA.AperFunction,SMDPad,CuDef*%
%ADD35RoundRect,0.135000X-0.185000X0.135000X-0.185000X-0.135000X0.185000X-0.135000X0.185000X0.135000X0*%
%TD*%
%TA.AperFunction,SMDPad,CuDef*%
%ADD36RoundRect,0.225000X0.225000X0.250000X-0.225000X0.250000X-0.225000X-0.250000X0.225000X-0.250000X0*%
%TD*%
%TA.AperFunction,SMDPad,CuDef*%
%ADD37RoundRect,0.150000X-0.587500X-0.150000X0.587500X-0.150000X0.587500X0.150000X-0.587500X0.150000X0*%
%TD*%
%TA.AperFunction,ViaPad*%
%ADD38C,0.820000*%
%TD*%
%TA.AperFunction,Conductor*%
%ADD39C,0.250000*%
%TD*%
%TA.AperFunction,Conductor*%
%ADD40C,0.500000*%
%TD*%
G04 APERTURE END LIST*
D10*
%TO.P,R2,1*%
%TO.N,GND*%
X55697528Y-58053748D03*
%TO.P,R2,2*%
%TO.N,Net-(IC1-ICHG)*%
X55697528Y-56403748D03*
%TD*%
D11*
%TO.P,R7,1*%
%TO.N,+5V*%
X75912528Y-52135000D03*
%TO.P,R7,2*%
%TO.N,Net-(U1-FB)*%
X74262528Y-52135000D03*
%TD*%
D12*
%TO.P,IC1,1,VAC*%
%TO.N,Net-(IC1-VAC)*%
X54658780Y-51803748D03*
%TO.P,IC1,2,NC*%
%TO.N,unconnected-(IC1-NC-Pad2)*%
X54658780Y-52303748D03*
%TO.P,IC1,3,D+*%
%TO.N,unconnected-(IC1-D+-Pad3)*%
X54658780Y-52803748D03*
%TO.P,IC1,4,D-*%
%TO.N,unconnected-(IC1-D--Pad4)*%
X54658780Y-53303748D03*
%TO.P,IC1,5,STAT*%
%TO.N,STAT*%
X54658780Y-53803748D03*
%TO.P,IC1,6,OTG*%
%TO.N,GND*%
X54658780Y-54303748D03*
D13*
%TO.P,IC1,7,~{PG}*%
%TO.N,unconnected-(IC1-~{PG}-Pad7)*%
X55408780Y-55053748D03*
%TO.P,IC1,8,ILIM*%
%TO.N,Net-(IC1-ILIM)*%
X55908780Y-55053748D03*
%TO.P,IC1,9,~{CE}*%
%TO.N,GND*%
X56408780Y-55053748D03*
%TO.P,IC1,10,ICHG*%
%TO.N,Net-(IC1-ICHG)*%
X56908780Y-55053748D03*
%TO.P,IC1,11,TS*%
%TO.N,Net-(IC1-TS)*%
X57408780Y-55053748D03*
%TO.P,IC1,12,VSET*%
%TO.N,unconnected-(IC1-VSET-Pad12)*%
X57908780Y-55053748D03*
D12*
%TO.P,IC1,13,BAT*%
%TO.N,BAT*%
X58658780Y-54303748D03*
%TO.P,IC1,14,BAT*%
X58658780Y-53803748D03*
%TO.P,IC1,15,SYS*%
%TO.N,VOUT*%
X58658780Y-53303748D03*
%TO.P,IC1,16,SYS*%
X58658780Y-52803748D03*
%TO.P,IC1,17,GND*%
%TO.N,GND*%
X58658780Y-52303748D03*
%TO.P,IC1,18,GND*%
X58658780Y-51803748D03*
D13*
%TO.P,IC1,19,SW*%
%TO.N,Net-(C2-Pad1)*%
X57908780Y-51053748D03*
%TO.P,IC1,20,SW*%
X57408780Y-51053748D03*
%TO.P,IC1,21,BTST*%
%TO.N,Net-(IC1-BTST)*%
X56908780Y-51053748D03*
%TO.P,IC1,22,REGN*%
%TO.N,Net-(IC1-REGN)*%
X56408780Y-51053748D03*
%TO.P,IC1,23,PMID*%
%TO.N,Net-(IC1-PMID)*%
X55908780Y-51053748D03*
%TO.P,IC1,24,VBUS*%
%TO.N,Net-(IC1-VAC)*%
X55408780Y-51053748D03*
D14*
%TO.P,IC1,25,GND*%
%TO.N,GND*%
X56658780Y-53053748D03*
%TD*%
D15*
%TO.P,C1,1*%
%TO.N,Net-(IC1-VAC)*%
X53208780Y-52378748D03*
%TO.P,C1,2*%
%TO.N,GND*%
X51308780Y-52378748D03*
%TD*%
D16*
%TO.P,C12,1*%
%TO.N,VSYS*%
X68837528Y-59845000D03*
%TO.P,C12,2*%
%TO.N,GND*%
X68837528Y-61745000D03*
%TD*%
D17*
%TO.P,R4,1*%
%TO.N,Net-(IC1-TS)*%
X51987528Y-46953748D03*
%TO.P,R4,2*%
%TO.N,GND*%
X51987528Y-48603748D03*
%TD*%
D18*
%TO.P,Q1,1,S*%
%TO.N,VOUT*%
X64393780Y-52900000D03*
%TO.P,Q1,2,S*%
X64393780Y-53550000D03*
%TO.P,Q1,3,S*%
X64393780Y-54200000D03*
%TO.P,Q1,4,G*%
%TO.N,Net-(IC2-~{OUT})*%
X64393780Y-54850000D03*
D19*
%TO.P,Q1,5,D*%
%TO.N,VSYS*%
X67293780Y-54850000D03*
%TO.P,Q1,6,D*%
X67293780Y-54200000D03*
%TO.P,Q1,7,D*%
X67293780Y-53550000D03*
%TO.P,Q1,8,D*%
X67293780Y-52900000D03*
D20*
%TO.P,Q1,9,D*%
X66153780Y-53875000D03*
D21*
%TO.P,Q1,9_1,D*%
X65793780Y-52460000D03*
%TO.P,Q1,9_2,D*%
X65793780Y-55290000D03*
%TD*%
D10*
%TO.P,R3,1*%
%TO.N,Net-(IC1-REGN)*%
X53612528Y-48603748D03*
%TO.P,R3,2*%
%TO.N,Net-(IC1-TS)*%
X53612528Y-46953748D03*
%TD*%
D22*
%TO.P,TP8,1,1*%
%TO.N,RST*%
X78627528Y-63785000D03*
%TD*%
D16*
%TO.P,C11,1*%
%TO.N,+5V*%
X76647528Y-48645000D03*
%TO.P,C11,2*%
%TO.N,GND*%
X76647528Y-50545000D03*
%TD*%
D23*
%TO.P,D1,1,K*%
%TO.N,Net-(D1-K)*%
X61472528Y-43015000D03*
D24*
%TO.P,D1,2,A*%
%TO.N,VOUT*%
X62742528Y-43015000D03*
%TD*%
D17*
%TO.P,R10,1*%
%TO.N,Net-(U2-FB)*%
X71787528Y-62490000D03*
%TO.P,R10,2*%
%TO.N,GND*%
X71787528Y-64140000D03*
%TD*%
D25*
%TO.P,TP2,1,1*%
%TO.N,Net-(IC1-VAC)*%
X51562528Y-55580000D03*
%TD*%
D26*
%TO.P,Q3,1,G*%
%TO.N,Net-(Q3-G)*%
X57342528Y-60725000D03*
%TO.P,Q3,2,S*%
%TO.N,BAT*%
X57342528Y-59425000D03*
%TO.P,Q3,3,D*%
%TO.N,Net-(Q2-G)*%
X55342528Y-60075000D03*
%TD*%
D16*
%TO.P,C13,1*%
%TO.N,+3.5V*%
X73597528Y-59845000D03*
%TO.P,C13,2*%
%TO.N,GND*%
X73597528Y-61745000D03*
%TD*%
D27*
%TO.P,L3,1*%
%TO.N,Net-(U2-LX1)*%
X69817528Y-56745000D03*
%TO.P,L3,2*%
%TO.N,Net-(U2-LX2)*%
X72617528Y-56745000D03*
%TD*%
D23*
%TO.P,SW1,1,A*%
%TO.N,GND*%
X68577528Y-64845000D03*
D24*
%TO.P,SW1,2,B*%
%TO.N,Net-(IC2-IN)*%
X69847528Y-64845000D03*
%TD*%
D27*
%TO.P,L1,1*%
%TO.N,VOUT*%
X62958780Y-48128748D03*
%TO.P,L1,2*%
%TO.N,Net-(C2-Pad1)*%
X60158780Y-48128748D03*
%TD*%
D11*
%TO.P,R9,1*%
%TO.N,+3.5V*%
X74922528Y-63325000D03*
%TO.P,R9,2*%
%TO.N,Net-(U2-FB)*%
X73272528Y-63325000D03*
%TD*%
D28*
%TO.P,U1,1,VOUT*%
%TO.N,+5V*%
X72947528Y-48495000D03*
%TO.P,U1,2,LX2*%
%TO.N,Net-(U1-LX2)*%
X72447528Y-48495000D03*
%TO.P,U1,3,LX1*%
%TO.N,Net-(U1-LX1)*%
X71947528Y-48495000D03*
%TO.P,U1,4,VIN*%
%TO.N,VSYS*%
X71447528Y-48495000D03*
%TO.P,U1,5,EN*%
X71447528Y-49975000D03*
%TO.P,U1,6,MODE*%
X71947528Y-49975000D03*
%TO.P,U1,7,GND*%
%TO.N,GND*%
X72447528Y-49975000D03*
%TO.P,U1,8,FB*%
%TO.N,Net-(U1-FB)*%
X72947528Y-49975000D03*
%TD*%
D29*
%TO.P,C4,1*%
%TO.N,BAT*%
X58808780Y-56878748D03*
%TO.P,C4,2*%
%TO.N,GND*%
X60708780Y-56878748D03*
%TD*%
D16*
%TO.P,C9,1*%
%TO.N,VSYS*%
X69827528Y-48665000D03*
%TO.P,C9,2*%
%TO.N,GND*%
X69827528Y-50565000D03*
%TD*%
D30*
%TO.P,R5,1*%
%TO.N,STAT*%
X59687528Y-44780000D03*
%TO.P,R5,2*%
%TO.N,Net-(D1-K)*%
X61337528Y-44780000D03*
%TD*%
D31*
%TO.P,IC2,1,IN*%
%TO.N,Net-(IC2-IN)*%
X66528780Y-60280000D03*
%TO.P,IC2,2,GND*%
%TO.N,GND*%
X66528780Y-59330000D03*
%TO.P,IC2,3,CLEAR*%
X66528780Y-58380000D03*
%TO.P,IC2,4,~{OUT}*%
%TO.N,Net-(IC2-~{OUT})*%
X64028780Y-58380000D03*
%TO.P,IC2,5,OUT*%
%TO.N,unconnected-(IC2-OUT-Pad5)*%
X64028780Y-59330000D03*
%TO.P,IC2,6,VCC*%
%TO.N,VOUT*%
X64028780Y-60280000D03*
%TD*%
D17*
%TO.P,R8,1*%
%TO.N,Net-(U1-FB)*%
X72777528Y-51315000D03*
%TO.P,R8,2*%
%TO.N,GND*%
X72777528Y-52965000D03*
%TD*%
D32*
%TO.P,C7,1*%
%TO.N,VOUT*%
X62358780Y-53028748D03*
%TO.P,C7,2*%
%TO.N,GND*%
X62358780Y-51128748D03*
%TD*%
D27*
%TO.P,L2,1*%
%TO.N,Net-(U1-LX1)*%
X70807528Y-45535000D03*
%TO.P,L2,2*%
%TO.N,Net-(U1-LX2)*%
X73607528Y-45535000D03*
%TD*%
D25*
%TO.P,TP1,1,1*%
%TO.N,GND*%
X51577528Y-58705000D03*
%TD*%
D32*
%TO.P,C6,1*%
%TO.N,VOUT*%
X60318780Y-53028748D03*
%TO.P,C6,2*%
%TO.N,GND*%
X60318780Y-51128748D03*
%TD*%
D33*
%TO.P,R11,1*%
%TO.N,BAT*%
X58837528Y-58545000D03*
%TO.P,R11,2*%
%TO.N,Net-(Q3-G)*%
X59857528Y-58545000D03*
%TD*%
D34*
%TO.P,TP7,1,1*%
%TO.N,GND*%
X65687528Y-64675000D03*
%TD*%
D10*
%TO.P,R1,1*%
%TO.N,GND*%
X54157528Y-58053748D03*
%TO.P,R1,2*%
%TO.N,Net-(IC1-ILIM)*%
X54157528Y-56403748D03*
%TD*%
D35*
%TO.P,R12,1*%
%TO.N,Net-(Q2-G)*%
X57202528Y-57270000D03*
%TO.P,R12,2*%
%TO.N,GND*%
X57202528Y-58290000D03*
%TD*%
D36*
%TO.P,C15,1*%
%TO.N,+3.5V*%
X75822528Y-58265000D03*
%TO.P,C15,2*%
%TO.N,GND*%
X74272528Y-58265000D03*
%TD*%
D25*
%TO.P,TP5,1,1*%
%TO.N,+5V*%
X78647528Y-47825000D03*
%TD*%
D28*
%TO.P,U2,1,VOUT*%
%TO.N,+3.5V*%
X71967528Y-59675000D03*
%TO.P,U2,2,LX2*%
%TO.N,Net-(U2-LX2)*%
X71467528Y-59675000D03*
%TO.P,U2,3,LX1*%
%TO.N,Net-(U2-LX1)*%
X70967528Y-59675000D03*
%TO.P,U2,4,VIN*%
%TO.N,VSYS*%
X70467528Y-59675000D03*
%TO.P,U2,5,EN*%
X70467528Y-61155000D03*
%TO.P,U2,6,MODE*%
X70967528Y-61155000D03*
%TO.P,U2,7,GND*%
%TO.N,GND*%
X71467528Y-61155000D03*
%TO.P,U2,8,FB*%
%TO.N,Net-(U2-FB)*%
X71967528Y-61155000D03*
%TD*%
D16*
%TO.P,C10,1*%
%TO.N,+5V*%
X74587528Y-48645000D03*
%TO.P,C10,2*%
%TO.N,GND*%
X74587528Y-50545000D03*
%TD*%
D11*
%TO.P,R6,1*%
%TO.N,Net-(IC2-~{OUT})*%
X64237528Y-56830000D03*
%TO.P,R6,2*%
%TO.N,VOUT*%
X62587528Y-56830000D03*
%TD*%
D15*
%TO.P,C3,1*%
%TO.N,Net-(IC1-PMID)*%
X53208780Y-50303748D03*
%TO.P,C3,2*%
%TO.N,GND*%
X51308780Y-50303748D03*
%TD*%
D34*
%TO.P,TP3,1,1*%
%TO.N,Net-(Q3-G)*%
X60447528Y-64665000D03*
%TD*%
D16*
%TO.P,C2,1*%
%TO.N,Net-(C2-Pad1)*%
X57383780Y-46803748D03*
%TO.P,C2,2*%
%TO.N,Net-(IC1-BTST)*%
X57383780Y-48703748D03*
%TD*%
D18*
%TO.P,Q2,1,S*%
%TO.N,BAT*%
X58712528Y-60100000D03*
%TO.P,Q2,2,S*%
X58712528Y-60750000D03*
%TO.P,Q2,3,S*%
X58712528Y-61400000D03*
%TO.P,Q2,4,G*%
%TO.N,Net-(Q2-G)*%
X58712528Y-62050000D03*
D19*
%TO.P,Q2,5,D*%
%TO.N,Net-(Q3-G)*%
X61612528Y-62050000D03*
%TO.P,Q2,6,D*%
X61612528Y-61400000D03*
%TO.P,Q2,7,D*%
X61612528Y-60750000D03*
%TO.P,Q2,8,D*%
X61612528Y-60100000D03*
D20*
%TO.P,Q2,9,D*%
X60472528Y-61075000D03*
D21*
%TO.P,Q2,9_1,D*%
X60112528Y-59660000D03*
%TO.P,Q2,9_2,D*%
X60112528Y-62490000D03*
%TD*%
D37*
%TO.P,U3,1,~{RST}*%
%TO.N,RST*%
X74550028Y-54785000D03*
%TO.P,U3,2,VDD*%
%TO.N,+3.5V*%
X74550028Y-56685000D03*
%TO.P,U3,3,VSS*%
%TO.N,GND*%
X76425028Y-55735000D03*
%TD*%
D16*
%TO.P,C5,1*%
%TO.N,GND*%
X55358780Y-46803748D03*
%TO.P,C5,2*%
%TO.N,Net-(IC1-REGN)*%
X55358780Y-48703748D03*
%TD*%
D25*
%TO.P,TP4,1,1*%
%TO.N,GND*%
X78657528Y-53875000D03*
%TD*%
D16*
%TO.P,C14,1*%
%TO.N,+3.5V*%
X75657528Y-59845000D03*
%TO.P,C14,2*%
%TO.N,GND*%
X75657528Y-61745000D03*
%TD*%
D25*
%TO.P,TP6,1,1*%
%TO.N,+3.5V*%
X78617528Y-59895000D03*
%TD*%
D15*
%TO.P,C8,1*%
%TO.N,VOUT*%
X62583780Y-54828748D03*
%TO.P,C8,2*%
%TO.N,GND*%
X60683780Y-54828748D03*
%TD*%
D38*
%TO.N,GND*%
X73847528Y-57625000D03*
X63297528Y-63065000D03*
X54927528Y-58065000D03*
X52212528Y-60730000D03*
X72760000Y-53980000D03*
X56687528Y-54030000D03*
X65277528Y-45195000D03*
X51312528Y-65055000D03*
X64787528Y-62325000D03*
X55687528Y-52080000D03*
X57662528Y-42755000D03*
X70637528Y-52465000D03*
X65750000Y-58800000D03*
X69287528Y-43105000D03*
X57637528Y-54030000D03*
X65277528Y-44295000D03*
X55687528Y-53055000D03*
X76587528Y-54875000D03*
X78197528Y-56095000D03*
X73572528Y-65150000D03*
X69737528Y-52465000D03*
X70637528Y-53365000D03*
X79097528Y-51655000D03*
X51037528Y-48830000D03*
X66977528Y-46985000D03*
X78197528Y-51655000D03*
X78197528Y-56995000D03*
X56412528Y-65055000D03*
X56687528Y-52105000D03*
X75372528Y-65150000D03*
X74472528Y-65150000D03*
X64377528Y-44295000D03*
X56187528Y-43905000D03*
X57662528Y-43880000D03*
X69262528Y-44855000D03*
X55687528Y-54030000D03*
X65687528Y-62325000D03*
X59212528Y-51355000D03*
X54737528Y-42730000D03*
X79097528Y-56995000D03*
X51412528Y-45530000D03*
X60692528Y-55850000D03*
X65687528Y-61425000D03*
X66977528Y-46085000D03*
X78197528Y-50755000D03*
X63297528Y-63965000D03*
X64377528Y-45195000D03*
X63297528Y-64865000D03*
X57312528Y-65055000D03*
X64787528Y-61425000D03*
X67877528Y-46985000D03*
X69737528Y-53365000D03*
X57637528Y-52080000D03*
X61277528Y-58090000D03*
X79110000Y-42720000D03*
X52212528Y-61630000D03*
X56687528Y-53055000D03*
X79097528Y-50755000D03*
X63297528Y-62165000D03*
X57637528Y-53055000D03*
X76272528Y-65150000D03*
X52212528Y-65055000D03*
X79097528Y-56095000D03*
X54737528Y-43855000D03*
X56187528Y-42730000D03*
X51312528Y-61630000D03*
X67877528Y-46085000D03*
X51312528Y-60730000D03*
%TO.N,VSYS*%
X68147528Y-58815000D03*
X70717528Y-61905000D03*
X68647528Y-48665000D03*
X71697528Y-50725000D03*
%TO.N,STAT*%
X54003780Y-55001252D03*
X58587528Y-44780000D03*
%TO.N,Net-(IC1-TS)*%
X57600000Y-56060000D03*
X54140000Y-45570000D03*
%TO.N,+5V*%
X75607528Y-48665000D03*
X76727528Y-52145000D03*
%TO.N,+3.5V*%
X75737528Y-63315000D03*
X74627528Y-59845000D03*
%TO.N,RST*%
X78637528Y-62465000D03*
X74247528Y-55745000D03*
%TO.N,Net-(Q2-G)*%
X56759312Y-56501361D03*
X57742528Y-62050000D03*
%TO.N,Net-(Q3-G)*%
X60347528Y-59175000D03*
X57342528Y-60189502D03*
%TD*%
D39*
%TO.N,VOUT*%
X62958780Y-48128748D02*
X62737528Y-47907496D01*
D40*
X62958780Y-43058748D02*
X62962528Y-43055000D01*
D39*
X62737528Y-43020000D02*
X62742528Y-43015000D01*
X62737528Y-47907496D02*
X62737528Y-43020000D01*
X63805032Y-60280000D02*
X64028780Y-60280000D01*
%TO.N,GND*%
X55383780Y-54303748D02*
X55658780Y-54028748D01*
X54658780Y-54303748D02*
X55383780Y-54303748D01*
%TO.N,Net-(IC1-REGN)*%
X53612528Y-48632496D02*
X53612528Y-48603748D01*
X53683780Y-48703748D02*
X53612528Y-48632496D01*
%TO.N,STAT*%
X59687528Y-44780000D02*
X58587528Y-44780000D01*
X54003780Y-54013748D02*
X54213780Y-53803748D01*
X54213780Y-53803748D02*
X54658780Y-53803748D01*
X54003780Y-55001252D02*
X54003780Y-54013748D01*
%TO.N,Net-(IC1-ILIM)*%
X54157528Y-56403748D02*
X54846276Y-55715000D01*
X54846276Y-55715000D02*
X55801528Y-55715000D01*
X55908780Y-55607748D02*
X55908780Y-55053748D01*
X55801528Y-55715000D02*
X55908780Y-55607748D01*
%TO.N,Net-(IC1-ICHG)*%
X56908780Y-55613748D02*
X56908780Y-55053748D01*
X56702528Y-55820000D02*
X56908780Y-55613748D01*
X55697528Y-56403748D02*
X55697528Y-56395000D01*
X56272528Y-55820000D02*
X56702528Y-55820000D01*
X55697528Y-56395000D02*
X56272528Y-55820000D01*
%TO.N,Net-(IC1-TS)*%
X53612528Y-46097472D02*
X53612528Y-46953748D01*
X57600000Y-56060000D02*
X57408780Y-55868780D01*
X54140000Y-45570000D02*
X53612528Y-46097472D01*
X57408780Y-55868780D02*
X57408780Y-55053748D01*
X51987528Y-46953748D02*
X53612528Y-46953748D01*
%TO.N,Net-(IC2-IN)*%
X69847528Y-64845000D02*
X69847528Y-64605000D01*
X67887528Y-63640000D02*
X66528780Y-62281252D01*
X69847528Y-64605000D02*
X68882528Y-63640000D01*
X66528780Y-62281252D02*
X66528780Y-60280000D01*
X68882528Y-63640000D02*
X67887528Y-63640000D01*
%TO.N,Net-(IC2-~{OUT})*%
X64237528Y-56830000D02*
X64267528Y-56800000D01*
X64267528Y-56800000D02*
X64267528Y-54976252D01*
X64267528Y-56860000D02*
X64237528Y-56830000D01*
X64267528Y-54976252D02*
X64393780Y-54850000D01*
X64028780Y-58380000D02*
X64267528Y-58141252D01*
X64267528Y-58141252D02*
X64267528Y-56860000D01*
%TO.N,Net-(D1-K)*%
X61467528Y-44650000D02*
X61467528Y-43020000D01*
X61337528Y-44780000D02*
X61467528Y-44650000D01*
X61467528Y-43020000D02*
X61472528Y-43015000D01*
%TO.N,+5V*%
X75922528Y-52145000D02*
X76727528Y-52145000D01*
X75912528Y-52135000D02*
X75922528Y-52145000D01*
%TO.N,+3.5V*%
X74922528Y-63325000D02*
X75727528Y-63325000D01*
%TO.N,Net-(U1-FB)*%
X74262528Y-52135000D02*
X73945000Y-52135000D01*
X73125000Y-51315000D02*
X72777528Y-51315000D01*
X73945000Y-52135000D02*
X73125000Y-51315000D01*
X72777528Y-51315000D02*
X72947528Y-51145000D01*
X72947528Y-51145000D02*
X72947528Y-49975000D01*
%TO.N,Net-(U2-FB)*%
X71787528Y-62490000D02*
X72437528Y-62490000D01*
X71967528Y-62310000D02*
X71787528Y-62490000D01*
X72437528Y-62490000D02*
X73272528Y-63325000D01*
X71967528Y-61155000D02*
X71967528Y-62310000D01*
%TO.N,RST*%
X74247528Y-55745000D02*
X74550028Y-55442500D01*
X78627528Y-62475000D02*
X78637528Y-62465000D01*
X78627528Y-63785000D02*
X78627528Y-62475000D01*
X74550028Y-55442500D02*
X74550028Y-54785000D01*
%TO.N,Net-(Q2-G)*%
X56357528Y-60325000D02*
X56357528Y-61280000D01*
X56759312Y-56501361D02*
X57132528Y-56874577D01*
X57127528Y-62050000D02*
X58712528Y-62050000D01*
X57742528Y-62050000D02*
X58712528Y-62050000D01*
X56107528Y-60075000D02*
X56357528Y-60325000D01*
X57132528Y-57200000D02*
X57202528Y-57270000D01*
X56357528Y-61280000D02*
X57127528Y-62050000D01*
X55342528Y-60075000D02*
X56107528Y-60075000D01*
X57132528Y-56874577D02*
X57132528Y-57200000D01*
%TO.N,Net-(Q3-G)*%
X57342528Y-60189502D02*
X57342528Y-60725000D01*
X59857528Y-58545000D02*
X59962528Y-58650000D01*
X59992528Y-58545000D02*
X59857528Y-58545000D01*
%TD*%
%TA.AperFunction,Conductor*%
%TO.N,Net-(U2-LX1)*%
G36*
X71035067Y-54914685D02*
G01*
X71080822Y-54967489D01*
X71092028Y-55019000D01*
X71092028Y-59248190D01*
X71096326Y-59292011D01*
X71096416Y-59292465D01*
X71096453Y-59292869D01*
X71096768Y-59295003D01*
X71096649Y-59295020D01*
X71098022Y-59310024D01*
X71098190Y-59310009D01*
X71099379Y-59322946D01*
X71097761Y-59323094D01*
X71097758Y-59359686D01*
X71097028Y-59363356D01*
X71097028Y-59885500D01*
X71077343Y-59952539D01*
X71024539Y-59998294D01*
X70973028Y-60009500D01*
X70962028Y-60009500D01*
X70894989Y-59989815D01*
X70849234Y-59937011D01*
X70838028Y-59885500D01*
X70838028Y-59363357D01*
X70819951Y-59272480D01*
X70822248Y-59272022D01*
X70817528Y-59248191D01*
X70817528Y-59024999D01*
X70817528Y-59024998D01*
X69827528Y-58595000D01*
X69827527Y-58595000D01*
X69351528Y-58595000D01*
X69284489Y-58575315D01*
X69238734Y-58522511D01*
X69227528Y-58471000D01*
X69227528Y-55019000D01*
X69247213Y-54951961D01*
X69300017Y-54906206D01*
X69351528Y-54895000D01*
X70968028Y-54895000D01*
X71035067Y-54914685D01*
G37*
%TD.AperFunction*%
%TD*%
%TA.AperFunction,Conductor*%
%TO.N,Net-(IC1-VAC)*%
G36*
X55500067Y-50674685D02*
G01*
X55545822Y-50727489D01*
X55557028Y-50779000D01*
X55557028Y-51329248D01*
X55537343Y-51396287D01*
X55484539Y-51442042D01*
X55433028Y-51453248D01*
X55239027Y-51453248D01*
X55180550Y-51464879D01*
X55180549Y-51464880D01*
X55114227Y-51509195D01*
X55069912Y-51575517D01*
X55069911Y-51575518D01*
X55058280Y-51633995D01*
X55058280Y-51829248D01*
X55038595Y-51896287D01*
X54985791Y-51942042D01*
X54934280Y-51953248D01*
X54239031Y-51953248D01*
X54232969Y-51953845D01*
X54232937Y-51953529D01*
X54218011Y-51955000D01*
X54037528Y-51955000D01*
X54037528Y-53428638D01*
X54017843Y-53495677D01*
X54001209Y-53516319D01*
X53362528Y-54154999D01*
X53362527Y-54155000D01*
X53362527Y-55648638D01*
X53357528Y-55665662D01*
X53357528Y-56931000D01*
X53337843Y-56998039D01*
X53285039Y-57043794D01*
X53233528Y-57055000D01*
X50736528Y-57055000D01*
X50669489Y-57035315D01*
X50623734Y-56982511D01*
X50612528Y-56931000D01*
X50612528Y-53654000D01*
X50632213Y-53586961D01*
X50685017Y-53541206D01*
X50736528Y-53530000D01*
X51887528Y-53530000D01*
X52212528Y-53205000D01*
X52212528Y-51428999D01*
X52232213Y-51361961D01*
X52285017Y-51316206D01*
X52336528Y-51305000D01*
X53962528Y-51305000D01*
X54576209Y-50691319D01*
X54637532Y-50657834D01*
X54663890Y-50655000D01*
X55433028Y-50655000D01*
X55500067Y-50674685D01*
G37*
%TD.AperFunction*%
%TD*%
%TA.AperFunction,Conductor*%
%TO.N,VOUT*%
G36*
X64603039Y-46279685D02*
G01*
X64648794Y-46332489D01*
X64660000Y-46384000D01*
X64660000Y-54330500D01*
X64640315Y-54397539D01*
X64587511Y-54443294D01*
X64536000Y-54454500D01*
X64122062Y-54454500D01*
X64108967Y-54457105D01*
X64106389Y-54457618D01*
X64082202Y-54460000D01*
X63920000Y-54460000D01*
X63920000Y-54922012D01*
X63918315Y-54934812D01*
X63918978Y-54934870D01*
X63918033Y-54945673D01*
X63919764Y-54965461D01*
X63920000Y-54970866D01*
X63919999Y-55508638D01*
X63900314Y-55575678D01*
X63883680Y-55596319D01*
X63090000Y-56389999D01*
X63090000Y-56390000D01*
X63090000Y-60000000D01*
X64436000Y-60000000D01*
X64503039Y-60019685D01*
X64548794Y-60072489D01*
X64560000Y-60124000D01*
X64560000Y-60436000D01*
X64540315Y-60503039D01*
X64487511Y-60548794D01*
X64436000Y-60560000D01*
X62564312Y-60560000D01*
X62497273Y-60540315D01*
X62476126Y-60523174D01*
X62119589Y-60162478D01*
X62086462Y-60100965D01*
X62083779Y-60075319D01*
X62083780Y-53978748D01*
X61763780Y-53658748D01*
X59760110Y-53658748D01*
X59693071Y-53639063D01*
X59672429Y-53622429D01*
X59510000Y-53460000D01*
X59203179Y-53460000D01*
X59155724Y-53450560D01*
X59144812Y-53446039D01*
X59080503Y-53433248D01*
X59080499Y-53433248D01*
X58403279Y-53433248D01*
X58336240Y-53413563D01*
X58290485Y-53360759D01*
X58279279Y-53309248D01*
X58279279Y-52798247D01*
X58298964Y-52731208D01*
X58351768Y-52685453D01*
X58403279Y-52674247D01*
X59080497Y-52674247D01*
X59080498Y-52674247D01*
X59144815Y-52661455D01*
X59144821Y-52661450D01*
X59149687Y-52659437D01*
X59197135Y-52650000D01*
X59510000Y-52650000D01*
X59853680Y-52306319D01*
X59915004Y-52272834D01*
X59941362Y-52270000D01*
X63560000Y-52270000D01*
X63560000Y-49980000D01*
X62474000Y-49980000D01*
X62406961Y-49960315D01*
X62361206Y-49907511D01*
X62350000Y-49856000D01*
X62350000Y-46384000D01*
X62369685Y-46316961D01*
X62422489Y-46271206D01*
X62474000Y-46260000D01*
X64536000Y-46260000D01*
X64603039Y-46279685D01*
G37*
%TD.AperFunction*%
%TD*%
%TA.AperFunction,Conductor*%
%TO.N,Net-(C2-Pad1)*%
G36*
X60705567Y-46299685D02*
G01*
X60751322Y-46352489D01*
X60762528Y-46404000D01*
X60762528Y-49856000D01*
X60742843Y-49923039D01*
X60690039Y-49968794D01*
X60638528Y-49980000D01*
X59562527Y-49980000D01*
X58125599Y-51416929D01*
X58064276Y-51450414D01*
X58037918Y-51453248D01*
X57387780Y-51453248D01*
X57320741Y-51433563D01*
X57274986Y-51380759D01*
X57263780Y-51329248D01*
X57263780Y-50705110D01*
X57283465Y-50638071D01*
X57300099Y-50617429D01*
X57300099Y-50617428D01*
X58412528Y-49505000D01*
X58412528Y-49371115D01*
X58414558Y-49352245D01*
X58414072Y-49352176D01*
X58419398Y-49315134D01*
X58423028Y-49289890D01*
X58423028Y-48129000D01*
X58418331Y-48085316D01*
X58415362Y-48071668D01*
X58412528Y-48045309D01*
X58412528Y-47830000D01*
X58187528Y-47605000D01*
X56686528Y-47605000D01*
X56619489Y-47585315D01*
X56573734Y-47532511D01*
X56562528Y-47481000D01*
X56562528Y-46404000D01*
X56582213Y-46336961D01*
X56635017Y-46291206D01*
X56686528Y-46280000D01*
X60638528Y-46280000D01*
X60705567Y-46299685D01*
G37*
%TD.AperFunction*%
%TD*%
%TA.AperFunction,Conductor*%
%TO.N,Net-(U1-LX1)*%
G36*
X72015067Y-43714685D02*
G01*
X72060822Y-43767489D01*
X72072028Y-43819000D01*
X72072028Y-48068190D01*
X72076326Y-48112011D01*
X72076416Y-48112465D01*
X72076453Y-48112869D01*
X72076768Y-48115003D01*
X72076649Y-48115020D01*
X72078022Y-48130024D01*
X72078190Y-48130009D01*
X72079379Y-48142946D01*
X72077761Y-48143094D01*
X72077758Y-48179686D01*
X72077028Y-48183356D01*
X72077028Y-48705500D01*
X72057343Y-48772539D01*
X72004539Y-48818294D01*
X71953028Y-48829500D01*
X71942028Y-48829500D01*
X71874989Y-48809815D01*
X71829234Y-48757011D01*
X71818028Y-48705500D01*
X71818028Y-48183357D01*
X71799951Y-48092480D01*
X71802248Y-48092022D01*
X71797528Y-48068191D01*
X71797528Y-47824999D01*
X71797527Y-47824999D01*
X70807528Y-47395000D01*
X70807527Y-47395000D01*
X70331528Y-47395000D01*
X70264489Y-47375315D01*
X70218734Y-47322511D01*
X70207528Y-47271000D01*
X70207528Y-43819000D01*
X70227213Y-43751961D01*
X70280017Y-43706206D01*
X70331528Y-43695000D01*
X71948028Y-43695000D01*
X72015067Y-43714685D01*
G37*
%TD.AperFunction*%
%TD*%
%TA.AperFunction,Conductor*%
%TO.N,GND*%
G36*
X75077528Y-57905000D02*
G01*
X75077528Y-59025000D01*
X73437528Y-59025000D01*
X73437528Y-58619231D01*
X73438027Y-58616723D01*
X73438028Y-58616720D01*
X73438028Y-57215000D01*
X74387528Y-57215000D01*
X75077528Y-57905000D01*
G37*
%TD.AperFunction*%
%TD*%
%TA.AperFunction,Conductor*%
%TO.N,Net-(IC1-BTST)*%
G36*
X58160567Y-48024685D02*
G01*
X58206322Y-48077489D01*
X58217528Y-48129000D01*
X58217528Y-49289890D01*
X58197843Y-49356929D01*
X58181209Y-49377571D01*
X57062528Y-50496251D01*
X57062528Y-50600429D01*
X57060146Y-50624618D01*
X57058280Y-50633999D01*
X57058280Y-51329248D01*
X57038595Y-51396287D01*
X56985791Y-51442042D01*
X56934280Y-51453248D01*
X56883280Y-51453248D01*
X56816241Y-51433563D01*
X56770486Y-51380759D01*
X56759280Y-51329248D01*
X56759280Y-50633999D01*
X56758683Y-50627937D01*
X56758998Y-50627905D01*
X56757528Y-50612979D01*
X56757528Y-49540000D01*
X56603847Y-49386319D01*
X56570362Y-49324996D01*
X56567528Y-49298638D01*
X56567528Y-48129000D01*
X56587213Y-48061961D01*
X56640017Y-48016206D01*
X56691528Y-48005000D01*
X58093528Y-48005000D01*
X58160567Y-48024685D01*
G37*
%TD.AperFunction*%
%TD*%
%TA.AperFunction,Conductor*%
%TO.N,VSYS*%
G36*
X71520067Y-48089685D02*
G01*
X71565822Y-48142489D01*
X71577028Y-48194000D01*
X71577028Y-48706000D01*
X71557343Y-48773039D01*
X71504539Y-48818794D01*
X71453028Y-48830000D01*
X70849999Y-48830000D01*
X70336319Y-49343681D01*
X70274996Y-49377166D01*
X70248638Y-49380000D01*
X68840000Y-49380000D01*
X68840000Y-59250000D01*
X70473028Y-59250000D01*
X70540067Y-59269685D01*
X70585822Y-59322489D01*
X70597028Y-59374000D01*
X70597028Y-59886000D01*
X70577343Y-59953039D01*
X70524539Y-59998794D01*
X70473028Y-60010000D01*
X69899999Y-60010000D01*
X69596319Y-60313681D01*
X69534996Y-60347166D01*
X69508638Y-60350000D01*
X67574000Y-60350000D01*
X67506961Y-60330315D01*
X67461206Y-60277511D01*
X67450000Y-60226000D01*
X67450000Y-57700000D01*
X65284000Y-57700000D01*
X65216961Y-57680315D01*
X65171206Y-57627511D01*
X65160000Y-57576000D01*
X65160000Y-48194000D01*
X65179685Y-48126961D01*
X65232489Y-48081206D01*
X65284000Y-48070000D01*
X71453028Y-48070000D01*
X71520067Y-48089685D01*
G37*
%TD.AperFunction*%
%TD*%
%TA.AperFunction,Conductor*%
%TO.N,Net-(IC1-REGN)*%
G36*
X56238121Y-48004945D02*
G01*
X56305143Y-48024678D01*
X56350860Y-48077515D01*
X56362028Y-48128945D01*
X56362028Y-49304138D01*
X56362439Y-49311807D01*
X56362528Y-49315127D01*
X56362528Y-49354999D01*
X56371967Y-49377787D01*
X56371422Y-49378012D01*
X56380408Y-49392853D01*
X56389998Y-49423479D01*
X56389999Y-49423483D01*
X56423486Y-49484808D01*
X56458526Y-49531615D01*
X56458530Y-49531619D01*
X56458537Y-49531629D01*
X56458544Y-49531636D01*
X56515709Y-49588801D01*
X56549194Y-49650124D01*
X56552028Y-49676482D01*
X56552028Y-50618018D01*
X56552523Y-50628098D01*
X56552523Y-50628097D01*
X56553481Y-50637832D01*
X56553780Y-50643911D01*
X56553780Y-51329248D01*
X56534095Y-51396287D01*
X56481291Y-51442042D01*
X56429780Y-51453248D01*
X56387780Y-51453248D01*
X56320741Y-51433563D01*
X56274986Y-51380759D01*
X56263780Y-51329248D01*
X56263780Y-50656703D01*
X56264079Y-50650623D01*
X56267289Y-50618023D01*
X56267533Y-50615548D01*
X56268028Y-50605473D01*
X56268028Y-50175858D01*
X56267439Y-50164866D01*
X56264016Y-50133035D01*
X56240057Y-50056518D01*
X56206572Y-49995195D01*
X56206567Y-49995188D01*
X56171529Y-49948384D01*
X56171526Y-49948381D01*
X56171519Y-49948371D01*
X55690265Y-49467117D01*
X55687013Y-49464196D01*
X55682080Y-49459763D01*
X55682082Y-49459764D01*
X55657151Y-49439674D01*
X55586102Y-49402509D01*
X55553215Y-49392853D01*
X55529303Y-49385831D01*
X55523049Y-49383625D01*
X55511276Y-49378748D01*
X55511275Y-49378748D01*
X55499580Y-49378748D01*
X55481933Y-49377486D01*
X55478162Y-49376943D01*
X55461166Y-49374500D01*
X53082780Y-49374500D01*
X53015741Y-49354815D01*
X52969986Y-49302011D01*
X52958780Y-49250500D01*
X52958780Y-48126660D01*
X52978465Y-48059621D01*
X53031269Y-48013866D01*
X53082866Y-48002660D01*
X56238121Y-48004945D01*
G37*
%TD.AperFunction*%
%TD*%
%TA.AperFunction,Conductor*%
%TO.N,GND*%
G36*
X74027528Y-49685000D02*
G01*
X77367528Y-49685000D01*
X77367528Y-51065000D01*
X73867528Y-51065000D01*
X73867528Y-50065000D01*
X73217528Y-49415000D01*
X72607528Y-49415000D01*
X72607528Y-49562298D01*
X72592723Y-49584456D01*
X72592721Y-49584460D01*
X72577028Y-49663355D01*
X72577028Y-50286644D01*
X72580679Y-50305000D01*
X72323028Y-50305000D01*
X72323028Y-50290026D01*
X72322892Y-50284490D01*
X72322602Y-50278606D01*
X72322528Y-50275569D01*
X72322528Y-49759008D01*
X72322527Y-49758991D01*
X72318384Y-49720457D01*
X72318028Y-49713824D01*
X72318028Y-49663357D01*
X72318027Y-49663355D01*
X72307528Y-49610572D01*
X72307528Y-49415000D01*
X72011279Y-49415000D01*
X71973028Y-49409500D01*
X71421528Y-49409500D01*
X71421520Y-49409500D01*
X71373592Y-49414654D01*
X71372002Y-49415000D01*
X71197528Y-49415000D01*
X70547528Y-50065000D01*
X70547528Y-51075000D01*
X69107528Y-51075000D01*
X69107528Y-49685000D01*
X70297528Y-49685000D01*
X70436768Y-49545758D01*
X70444390Y-49541597D01*
X70495772Y-49503133D01*
X70907085Y-49091818D01*
X70968408Y-49058334D01*
X70994766Y-49055500D01*
X71453019Y-49055500D01*
X71453028Y-49055500D01*
X71457678Y-49055000D01*
X73397528Y-49055000D01*
X74027528Y-49685000D01*
G37*
%TD.AperFunction*%
%TD*%
%TA.AperFunction,Conductor*%
%TO.N,+5V*%
G36*
X79596719Y-46244685D02*
G01*
X79642474Y-46297489D01*
X79653680Y-46349000D01*
X79653680Y-49251000D01*
X79633995Y-49318039D01*
X79581191Y-49363794D01*
X79529680Y-49375000D01*
X74118890Y-49375000D01*
X74051851Y-49355315D01*
X74031209Y-49338681D01*
X73517528Y-48825000D01*
X72942028Y-48825000D01*
X72874989Y-48805315D01*
X72829234Y-48752511D01*
X72818028Y-48701000D01*
X72818028Y-48199000D01*
X72837713Y-48131961D01*
X72890517Y-48086206D01*
X72942028Y-48075000D01*
X74477528Y-48075000D01*
X74477528Y-46349000D01*
X74497213Y-46281961D01*
X74550017Y-46236206D01*
X74601528Y-46225000D01*
X79529680Y-46225000D01*
X79596719Y-46244685D01*
G37*
%TD.AperFunction*%
%TD*%
%TA.AperFunction,Conductor*%
%TO.N,GND*%
G36*
X71962028Y-60240500D02*
G01*
X72392760Y-60240500D01*
X72421453Y-60248925D01*
X73037528Y-60865000D01*
X76218622Y-60865000D01*
X76377527Y-61023905D01*
X76377528Y-62245000D01*
X72877528Y-62245000D01*
X72877528Y-61245000D01*
X72227528Y-60595000D01*
X71617528Y-60595000D01*
X71617528Y-60757264D01*
X71612723Y-60764456D01*
X71612721Y-60764460D01*
X71597028Y-60843355D01*
X71597028Y-61466644D01*
X71600679Y-61485000D01*
X71343028Y-61485000D01*
X71343028Y-61470026D01*
X71342892Y-61464490D01*
X71342602Y-61458606D01*
X71342528Y-61455569D01*
X71342528Y-60939008D01*
X71342527Y-60938991D01*
X71338384Y-60900457D01*
X71338028Y-60893824D01*
X71338028Y-60843357D01*
X71338027Y-60843355D01*
X71322334Y-60764460D01*
X71322333Y-60764459D01*
X71322333Y-60764456D01*
X71317528Y-60757264D01*
X71317528Y-60595000D01*
X71031279Y-60595000D01*
X70993028Y-60589500D01*
X70441528Y-60589500D01*
X70441520Y-60589500D01*
X70393592Y-60594654D01*
X70392002Y-60595000D01*
X70207528Y-60595000D01*
X69557528Y-61245000D01*
X69557528Y-62255000D01*
X68117528Y-62255000D01*
X68117528Y-60865000D01*
X69377528Y-60865000D01*
X69987097Y-60255430D01*
X70018407Y-60238334D01*
X70044766Y-60235500D01*
X70473019Y-60235500D01*
X70473028Y-60235500D01*
X70477678Y-60235000D01*
X71923777Y-60235000D01*
X71962028Y-60240500D01*
G37*
%TD.AperFunction*%
%TD*%
%TA.AperFunction,Conductor*%
%TO.N,+3.5V*%
G36*
X75923205Y-56404685D02*
G01*
X75943847Y-56421319D01*
X77867528Y-58345000D01*
X79529680Y-58345000D01*
X79596719Y-58364685D01*
X79642474Y-58417489D01*
X79653680Y-58469000D01*
X79653680Y-61321000D01*
X79633995Y-61388039D01*
X79581191Y-61433794D01*
X79529680Y-61445000D01*
X77168890Y-61445000D01*
X77101851Y-61425315D01*
X77081209Y-61408681D01*
X76197528Y-60525000D01*
X73098890Y-60525000D01*
X73031851Y-60505315D01*
X73011209Y-60488681D01*
X72537528Y-60015000D01*
X71962028Y-60015000D01*
X71894989Y-59995315D01*
X71849234Y-59942511D01*
X71838028Y-59891000D01*
X71838028Y-59379000D01*
X71857713Y-59311961D01*
X71910517Y-59266206D01*
X71962028Y-59255000D01*
X75375000Y-59255000D01*
X75375000Y-57784999D01*
X74577529Y-56985000D01*
X74577528Y-56985000D01*
X73931528Y-56985000D01*
X73864489Y-56965315D01*
X73818734Y-56912511D01*
X73807528Y-56861000D01*
X73807528Y-56509000D01*
X73827213Y-56441961D01*
X73880017Y-56396206D01*
X73931528Y-56385000D01*
X75856166Y-56385000D01*
X75923205Y-56404685D01*
G37*
%TD.AperFunction*%
%TD*%
%TA.AperFunction,Conductor*%
%TO.N,GND*%
G36*
X59058780Y-52433248D02*
G01*
X58237063Y-52433248D01*
X58172744Y-52446041D01*
X58172741Y-52446042D01*
X58161209Y-52453748D01*
X58058780Y-52453748D01*
X58058780Y-51677804D01*
X58088383Y-51674622D01*
X58088385Y-51674621D01*
X58088387Y-51674621D01*
X58091665Y-51673594D01*
X58102228Y-51670285D01*
X58108644Y-51668648D01*
X58144815Y-51661455D01*
X58144817Y-51661453D01*
X58144820Y-51661453D01*
X58151125Y-51658841D01*
X58161772Y-51653748D01*
X59058780Y-51653748D01*
X59058780Y-52433248D01*
G37*
%TD.AperFunction*%
%TD*%
%TA.AperFunction,Conductor*%
%TO.N,VSYS*%
G36*
X71060067Y-60834685D02*
G01*
X71105822Y-60887489D01*
X71117028Y-60939000D01*
X71117028Y-61464673D01*
X71117229Y-61466712D01*
X71117528Y-61472795D01*
X71117528Y-61791000D01*
X71097843Y-61858039D01*
X71045039Y-61903794D01*
X70993528Y-61915000D01*
X70441528Y-61915000D01*
X70374489Y-61895315D01*
X70328734Y-61842511D01*
X70317528Y-61791000D01*
X70317528Y-60939000D01*
X70337213Y-60871961D01*
X70390017Y-60826206D01*
X70441528Y-60815000D01*
X70993028Y-60815000D01*
X71060067Y-60834685D01*
G37*
%TD.AperFunction*%
%TD*%
%TA.AperFunction,Conductor*%
%TO.N,Net-(IC1-PMID)*%
G36*
X55528205Y-49599685D02*
G01*
X55548847Y-49616319D01*
X56026209Y-50093681D01*
X56059694Y-50155004D01*
X56062528Y-50181362D01*
X56062528Y-50600429D01*
X56060146Y-50624618D01*
X56058280Y-50633999D01*
X56058280Y-51329248D01*
X56038595Y-51396287D01*
X55985791Y-51442042D01*
X55934280Y-51453248D01*
X55886528Y-51453248D01*
X55819489Y-51433563D01*
X55773734Y-51380759D01*
X55762528Y-51329248D01*
X55762528Y-50405000D01*
X54412528Y-50405000D01*
X54412527Y-50405000D01*
X53823847Y-50993681D01*
X53762524Y-51027166D01*
X53736166Y-51030000D01*
X52836528Y-51030000D01*
X52769489Y-51010315D01*
X52723734Y-50957511D01*
X52712528Y-50906000D01*
X52712528Y-49704000D01*
X52732213Y-49636961D01*
X52785017Y-49591206D01*
X52836528Y-49580000D01*
X55461166Y-49580000D01*
X55528205Y-49599685D01*
G37*
%TD.AperFunction*%
%TD*%
%TA.AperFunction,Conductor*%
%TO.N,Net-(Q3-G)*%
G36*
X61821779Y-59737600D02*
G01*
X61854863Y-59799139D01*
X61857528Y-59824707D01*
X61857528Y-65551000D01*
X61837843Y-65618039D01*
X61785039Y-65663794D01*
X61733528Y-65675000D01*
X59071528Y-65675000D01*
X59004489Y-65655315D01*
X58958734Y-65602511D01*
X58947528Y-65551000D01*
X58947528Y-62886361D01*
X58967213Y-62819322D01*
X58983842Y-62798685D01*
X59477528Y-62305000D01*
X59477528Y-59470000D01*
X61557646Y-59470000D01*
X61821779Y-59737600D01*
G37*
%TD.AperFunction*%
%TD*%
%TA.AperFunction,Conductor*%
%TO.N,GND*%
G36*
X56558780Y-54556178D02*
G01*
X56551072Y-54567714D01*
X56551071Y-54567715D01*
X56538280Y-54632024D01*
X56538280Y-54632027D01*
X56538281Y-55350500D01*
X56518597Y-55417539D01*
X56476810Y-55453748D01*
X56335315Y-55453748D01*
X56290485Y-55402011D01*
X56279279Y-55350500D01*
X56279279Y-54632030D01*
X56266487Y-54567715D01*
X56266487Y-54567713D01*
X56266485Y-54567711D01*
X56266485Y-54567709D01*
X56258780Y-54556178D01*
X56258780Y-54453748D01*
X56558780Y-54453748D01*
X56558780Y-54556178D01*
G37*
%TD.AperFunction*%
%TD*%
%TA.AperFunction,Conductor*%
%TO.N,VSYS*%
G36*
X72040067Y-49654685D02*
G01*
X72085822Y-49707489D01*
X72097028Y-49759000D01*
X72097028Y-50284673D01*
X72097229Y-50286712D01*
X72097528Y-50292795D01*
X72097528Y-50611000D01*
X72077843Y-50678039D01*
X72025039Y-50723794D01*
X71973528Y-50735000D01*
X71421528Y-50735000D01*
X71354489Y-50715315D01*
X71308734Y-50662511D01*
X71297528Y-50611000D01*
X71297528Y-49759000D01*
X71317213Y-49691961D01*
X71370017Y-49646206D01*
X71421528Y-49635000D01*
X71973028Y-49635000D01*
X72040067Y-49654685D01*
G37*
%TD.AperFunction*%
%TD*%
%TA.AperFunction,Conductor*%
%TO.N,Net-(Q3-G)*%
G36*
X60328261Y-58244685D02*
G01*
X60348834Y-58261249D01*
X61499301Y-59409896D01*
X61500518Y-59412122D01*
X61557647Y-59470000D01*
X59477528Y-59470000D01*
X59477528Y-58349000D01*
X59497213Y-58281961D01*
X59550017Y-58236206D01*
X59601528Y-58225000D01*
X60261222Y-58225000D01*
X60328261Y-58244685D01*
G37*
%TD.AperFunction*%
%TD*%
%TA.AperFunction,Conductor*%
%TO.N,Net-(U1-LX2)*%
G36*
X74150567Y-43714685D02*
G01*
X74196322Y-43767489D01*
X74207528Y-43819000D01*
X74207528Y-47271000D01*
X74187843Y-47338039D01*
X74135039Y-47383794D01*
X74083528Y-47395000D01*
X73607528Y-47395000D01*
X72597528Y-47833687D01*
X72597528Y-48068191D01*
X72592807Y-48092022D01*
X72595105Y-48092480D01*
X72577028Y-48183357D01*
X72577028Y-48705500D01*
X72557343Y-48772539D01*
X72504539Y-48818294D01*
X72453028Y-48829500D01*
X72442028Y-48829500D01*
X72374989Y-48809815D01*
X72329234Y-48757011D01*
X72318028Y-48705500D01*
X72318028Y-48183357D01*
X72299951Y-48092480D01*
X72302248Y-48092022D01*
X72297528Y-48068191D01*
X72297528Y-43819000D01*
X72317213Y-43751961D01*
X72370017Y-43706206D01*
X72421528Y-43695000D01*
X74083528Y-43695000D01*
X74150567Y-43714685D01*
G37*
%TD.AperFunction*%
%TD*%
%TA.AperFunction,Conductor*%
%TO.N,Net-(U2-LX2)*%
G36*
X73170567Y-54914685D02*
G01*
X73216322Y-54967489D01*
X73227528Y-55019000D01*
X73227528Y-57131397D01*
X73224818Y-57157179D01*
X73212528Y-57214997D01*
X73212528Y-57620167D01*
X73212397Y-57622332D01*
X73212397Y-57627671D01*
X73212528Y-57629834D01*
X73212528Y-58471000D01*
X73192843Y-58538039D01*
X73140039Y-58583794D01*
X73088528Y-58595000D01*
X72627528Y-58595000D01*
X71617527Y-59033687D01*
X71617528Y-59033687D01*
X71617528Y-59248191D01*
X71612807Y-59272022D01*
X71615105Y-59272480D01*
X71597028Y-59363357D01*
X71597028Y-59885500D01*
X71577343Y-59952539D01*
X71524539Y-59998294D01*
X71473028Y-60009500D01*
X71462028Y-60009500D01*
X71394989Y-59989815D01*
X71349234Y-59937011D01*
X71338028Y-59885500D01*
X71338028Y-59363357D01*
X71319951Y-59272480D01*
X71322248Y-59272022D01*
X71317528Y-59248191D01*
X71317528Y-55019000D01*
X71337213Y-54951961D01*
X71390017Y-54906206D01*
X71441528Y-54895000D01*
X73103528Y-54895000D01*
X73170567Y-54914685D01*
G37*
%TD.AperFunction*%
%TD*%
%TA.AperFunction,Conductor*%
%TO.N,BAT*%
G36*
X59086665Y-53674696D02*
G01*
X59126638Y-53674693D01*
X59159183Y-53681167D01*
X59203179Y-53685500D01*
X59365232Y-53685500D01*
X59432271Y-53705185D01*
X59452909Y-53721815D01*
X59517246Y-53786152D01*
X59517255Y-53786160D01*
X59517255Y-53786159D01*
X59526230Y-53794220D01*
X59526233Y-53794223D01*
X59543807Y-53808385D01*
X59583655Y-53865778D01*
X59590000Y-53904936D01*
X59589999Y-57578637D01*
X59570314Y-57645676D01*
X59553680Y-57666318D01*
X59200000Y-58019999D01*
X59200000Y-61451000D01*
X59180315Y-61518039D01*
X59127511Y-61563794D01*
X59076000Y-61575000D01*
X58434000Y-61575000D01*
X58366961Y-61555315D01*
X58321206Y-61502511D01*
X58310000Y-61451000D01*
X58310000Y-59650000D01*
X57701880Y-59650000D01*
X57644255Y-59635797D01*
X57567747Y-59595643D01*
X57419085Y-59559002D01*
X57265971Y-59559002D01*
X57265969Y-59559002D01*
X57143674Y-59589144D01*
X57073872Y-59586074D01*
X57016810Y-59545754D01*
X56990605Y-59480985D01*
X56990000Y-59468747D01*
X56990000Y-59324000D01*
X57009685Y-59256961D01*
X57062489Y-59211206D01*
X57114000Y-59200000D01*
X58310000Y-59200000D01*
X58310000Y-53798247D01*
X58329685Y-53731208D01*
X58382489Y-53685453D01*
X58434000Y-53674247D01*
X59080499Y-53674247D01*
X59086562Y-53673650D01*
X59086665Y-53674696D01*
G37*
%TD.AperFunction*%
%TD*%
%TA.AperFunction,Conductor*%
%TO.N,GND*%
G36*
X53306168Y-57356921D02*
G01*
X53306168Y-57355000D01*
X53357528Y-57355000D01*
X56459505Y-57355000D01*
X56526544Y-57374685D01*
X56572299Y-57427489D01*
X56582964Y-57467430D01*
X56584786Y-57486874D01*
X56584788Y-57486884D01*
X56628146Y-57610792D01*
X56706104Y-57716423D01*
X56758919Y-57755401D01*
X56811734Y-57794381D01*
X56840655Y-57804501D01*
X56935647Y-57837741D01*
X56943324Y-57838460D01*
X56965071Y-57840500D01*
X57439984Y-57840499D01*
X57469407Y-57837741D01*
X57593322Y-57794381D01*
X57698951Y-57716423D01*
X57776909Y-57610794D01*
X57776908Y-57610794D01*
X57780730Y-57605617D01*
X57836377Y-57563366D01*
X57906033Y-57557907D01*
X57967583Y-57590974D01*
X58001484Y-57652068D01*
X58004500Y-57679250D01*
X58004500Y-58770500D01*
X57984815Y-58837539D01*
X57932011Y-58883294D01*
X57880500Y-58894500D01*
X57113995Y-58894500D01*
X57074759Y-58898718D01*
X57070787Y-58899145D01*
X57064158Y-58899500D01*
X56947671Y-58899500D01*
X56947646Y-58899502D01*
X56922539Y-58902414D01*
X56922536Y-58902415D01*
X56819763Y-58947793D01*
X56740322Y-59027234D01*
X56694943Y-59130006D01*
X56694943Y-59130008D01*
X56692028Y-59155131D01*
X56692028Y-59262773D01*
X56690766Y-59280420D01*
X56684500Y-59324000D01*
X56684500Y-59472518D01*
X56684686Y-59480062D01*
X56685478Y-59496068D01*
X56689123Y-59512610D01*
X56692028Y-59539292D01*
X56692028Y-59694856D01*
X56692030Y-59694881D01*
X56694941Y-59719985D01*
X56694942Y-59719989D01*
X56696363Y-59723206D01*
X56696868Y-59727065D01*
X56697391Y-59728987D01*
X56697129Y-59729058D01*
X56705432Y-59792484D01*
X56675607Y-59855668D01*
X56616357Y-59892698D01*
X56546493Y-59891816D01*
X56495246Y-59860970D01*
X56360746Y-59726470D01*
X56339231Y-59715508D01*
X56322638Y-59705340D01*
X56303108Y-59691150D01*
X56280143Y-59683688D01*
X56262169Y-59676243D01*
X56240655Y-59665281D01*
X56235538Y-59664470D01*
X56216801Y-59661503D01*
X56197886Y-59656962D01*
X56174922Y-59649500D01*
X56174921Y-59649500D01*
X56141016Y-59649500D01*
X55968361Y-59649500D01*
X55901322Y-59629815D01*
X55880680Y-59613181D01*
X55865293Y-59597794D01*
X55762520Y-59552415D01*
X55737393Y-59549500D01*
X54947671Y-59549500D01*
X54947645Y-59549502D01*
X54922540Y-59552413D01*
X54922536Y-59552415D01*
X54819763Y-59597793D01*
X54740322Y-59677234D01*
X54694943Y-59780006D01*
X54694943Y-59780008D01*
X54692028Y-59805131D01*
X54692028Y-60344856D01*
X54692030Y-60344882D01*
X54694941Y-60369987D01*
X54694943Y-60369991D01*
X54740321Y-60472764D01*
X54740322Y-60472764D01*
X54740322Y-60472765D01*
X54819763Y-60552206D01*
X54922537Y-60597585D01*
X54947663Y-60600500D01*
X55737392Y-60600499D01*
X55737407Y-60600497D01*
X55737410Y-60600497D01*
X55762515Y-60597586D01*
X55771517Y-60595137D01*
X55772224Y-60597738D01*
X55827201Y-60590531D01*
X55890390Y-60620345D01*
X55927430Y-60679589D01*
X55932027Y-60713040D01*
X55932027Y-61347391D01*
X55932028Y-61347394D01*
X55939490Y-61370358D01*
X55944031Y-61389273D01*
X55946998Y-61408010D01*
X55947809Y-61413127D01*
X55958771Y-61434641D01*
X55966216Y-61452615D01*
X55973678Y-61475580D01*
X55987868Y-61495110D01*
X55998036Y-61511703D01*
X56008998Y-61533218D01*
X56009000Y-61533220D01*
X56032974Y-61557194D01*
X56405145Y-61929365D01*
X56761558Y-62285777D01*
X56761559Y-62285779D01*
X56761560Y-62285779D01*
X56779000Y-62303219D01*
X56779000Y-62303220D01*
X56874308Y-62398528D01*
X56895828Y-62409493D01*
X56912403Y-62419649D01*
X56931947Y-62433849D01*
X56954909Y-62441309D01*
X56972882Y-62448753D01*
X56994402Y-62459719D01*
X57018252Y-62463495D01*
X57037173Y-62468039D01*
X57059017Y-62475136D01*
X57060135Y-62475500D01*
X57094040Y-62475500D01*
X57107827Y-62475500D01*
X57174866Y-62495185D01*
X57200602Y-62520082D01*
X57201831Y-62518995D01*
X57206800Y-62524604D01*
X57206803Y-62524607D01*
X57206805Y-62524609D01*
X57335954Y-62639024D01*
X57488731Y-62719208D01*
X57488733Y-62719208D01*
X57488734Y-62719209D01*
X57656257Y-62760500D01*
X57656258Y-62760500D01*
X57828799Y-62760500D01*
X57996321Y-62719209D01*
X57996321Y-62719208D01*
X57996325Y-62719208D01*
X58149102Y-62639024D01*
X58258247Y-62542330D01*
X58321479Y-62512609D01*
X58383362Y-62520765D01*
X58383534Y-62520136D01*
X58388182Y-62521400D01*
X58390566Y-62521714D01*
X58392537Y-62522585D01*
X58417663Y-62525500D01*
X58577565Y-62525499D01*
X58644603Y-62545183D01*
X58690358Y-62597987D01*
X58700302Y-62667145D01*
X58688097Y-62705698D01*
X58674090Y-62733246D01*
X58674088Y-62733250D01*
X58654405Y-62800282D01*
X58642028Y-62886363D01*
X58642028Y-65554248D01*
X58622343Y-65621287D01*
X58569539Y-65667042D01*
X58518028Y-65678248D01*
X50728280Y-65678248D01*
X50661241Y-65658563D01*
X50615486Y-65605759D01*
X50604280Y-65554248D01*
X50604280Y-57484226D01*
X50623965Y-57417187D01*
X50676769Y-57371432D01*
X50732098Y-57361455D01*
X50732099Y-57360500D01*
X53233518Y-57360500D01*
X53233528Y-57360500D01*
X53291472Y-57354270D01*
X53306168Y-57356921D01*
G37*
%TD.AperFunction*%
%TA.AperFunction,Conductor*%
G36*
X62343225Y-60798875D02*
G01*
X62411201Y-60833439D01*
X62411203Y-60833439D01*
X62411204Y-60833440D01*
X62441616Y-60842370D01*
X62478240Y-60853124D01*
X62564312Y-60865500D01*
X62564315Y-60865500D01*
X64435990Y-60865500D01*
X64436000Y-60865500D01*
X64500941Y-60858518D01*
X64501582Y-60858378D01*
X64501788Y-60858334D01*
X64502645Y-60858241D01*
X64504231Y-60857985D01*
X64504244Y-60858069D01*
X64528151Y-60855499D01*
X64598636Y-60855499D01*
X64598644Y-60855499D01*
X64598658Y-60855497D01*
X64598663Y-60855497D01*
X64599392Y-60855413D01*
X64606536Y-60855000D01*
X65951014Y-60855000D01*
X65958164Y-60855413D01*
X65958282Y-60855426D01*
X65958915Y-60855500D01*
X65979276Y-60855499D01*
X66046314Y-60875181D01*
X66092071Y-60927983D01*
X66103279Y-60979499D01*
X66103280Y-62213858D01*
X66103280Y-62348646D01*
X66110742Y-62371610D01*
X66115283Y-62390525D01*
X66116551Y-62398527D01*
X66119061Y-62414379D01*
X66130023Y-62435893D01*
X66137468Y-62453867D01*
X66144930Y-62476832D01*
X66159120Y-62496362D01*
X66169288Y-62512955D01*
X66180250Y-62534470D01*
X66180252Y-62534472D01*
X66204226Y-62558446D01*
X67539000Y-63893220D01*
X67634308Y-63988528D01*
X67655827Y-63999492D01*
X67672406Y-64009651D01*
X67691947Y-64023849D01*
X67714909Y-64031309D01*
X67732882Y-64038753D01*
X67754402Y-64049719D01*
X67778252Y-64053495D01*
X67797173Y-64058039D01*
X67819017Y-64065136D01*
X67820135Y-64065500D01*
X67854040Y-64065500D01*
X68654918Y-64065500D01*
X68721957Y-64085185D01*
X68742599Y-64101819D01*
X68900208Y-64259428D01*
X69052749Y-64411968D01*
X69086234Y-64473291D01*
X69082110Y-64540603D01*
X69040085Y-64660703D01*
X69040083Y-64660711D01*
X69019320Y-64844996D01*
X69019320Y-64845003D01*
X69040083Y-65029288D01*
X69040084Y-65029293D01*
X69101339Y-65204348D01*
X69200008Y-65361378D01*
X69305197Y-65466567D01*
X69338682Y-65527890D01*
X69333698Y-65597582D01*
X69291826Y-65653515D01*
X69226362Y-65677932D01*
X69217516Y-65678248D01*
X62287028Y-65678248D01*
X62219989Y-65658563D01*
X62174234Y-65605759D01*
X62163028Y-65554248D01*
X62163028Y-60909409D01*
X62182713Y-60842370D01*
X62235517Y-60796615D01*
X62304675Y-60786671D01*
X62343225Y-60798875D01*
G37*
%TD.AperFunction*%
%TA.AperFunction,Conductor*%
G36*
X67464366Y-60636206D02*
G01*
X67487917Y-60643121D01*
X67487918Y-60643121D01*
X67487928Y-60643124D01*
X67574000Y-60655500D01*
X67574003Y-60655500D01*
X69516818Y-60655500D01*
X69516820Y-60655500D01*
X69533162Y-60654624D01*
X69567655Y-60650915D01*
X69574660Y-60650080D01*
X69601045Y-60641482D01*
X69377528Y-60865000D01*
X68117528Y-60865000D01*
X68117528Y-62255000D01*
X69557528Y-62255000D01*
X69557528Y-61245000D01*
X70025766Y-60776761D01*
X70017028Y-60836739D01*
X70017028Y-60895355D01*
X70015766Y-60913002D01*
X70012028Y-60939000D01*
X70012028Y-61791010D01*
X70012214Y-61792735D01*
X70012203Y-61794268D01*
X70012206Y-61794318D01*
X70012202Y-61794318D01*
X70012018Y-61820914D01*
X70001810Y-61904997D01*
X70001810Y-61905000D01*
X70022606Y-62076282D01*
X70083792Y-62237613D01*
X70117039Y-62285779D01*
X70181805Y-62379609D01*
X70310954Y-62494024D01*
X70463731Y-62574208D01*
X70463733Y-62574208D01*
X70463734Y-62574209D01*
X70631257Y-62615500D01*
X70631258Y-62615500D01*
X70803797Y-62615500D01*
X70803798Y-62615500D01*
X70858353Y-62602053D01*
X70928154Y-62605122D01*
X70985217Y-62645441D01*
X71011422Y-62710210D01*
X71012028Y-62722443D01*
X71012028Y-62737866D01*
X71012029Y-62737876D01*
X71018436Y-62797483D01*
X71068730Y-62932328D01*
X71068734Y-62932335D01*
X71154980Y-63047544D01*
X71154983Y-63047547D01*
X71270192Y-63133793D01*
X71270199Y-63133797D01*
X71315146Y-63150561D01*
X71405045Y-63184091D01*
X71464655Y-63190500D01*
X72110400Y-63190499D01*
X72170011Y-63184091D01*
X72304859Y-63133796D01*
X72318758Y-63123390D01*
X72384218Y-63098971D01*
X72452492Y-63113818D01*
X72480753Y-63134973D01*
X72535709Y-63189929D01*
X72569194Y-63251252D01*
X72572028Y-63277610D01*
X72572028Y-63647869D01*
X72572029Y-63647876D01*
X72578436Y-63707483D01*
X72628730Y-63842328D01*
X72628734Y-63842335D01*
X72714980Y-63957544D01*
X72714983Y-63957547D01*
X72830192Y-64043793D01*
X72830199Y-64043797D01*
X72846077Y-64049719D01*
X72965045Y-64094091D01*
X73024655Y-64100500D01*
X73520400Y-64100499D01*
X73580011Y-64094091D01*
X73714859Y-64043796D01*
X73830074Y-63957546D01*
X73916324Y-63842331D01*
X73966619Y-63707483D01*
X73973028Y-63647873D01*
X73973028Y-63647870D01*
X74222028Y-63647870D01*
X74222029Y-63647876D01*
X74228436Y-63707483D01*
X74278730Y-63842328D01*
X74278734Y-63842335D01*
X74364980Y-63957544D01*
X74364983Y-63957547D01*
X74480192Y-64043793D01*
X74480199Y-64043797D01*
X74496077Y-64049719D01*
X74615045Y-64094091D01*
X74674655Y-64100500D01*
X75170400Y-64100499D01*
X75230011Y-64094091D01*
X75364859Y-64043796D01*
X75407193Y-64012103D01*
X75472654Y-63987686D01*
X75511176Y-63990972D01*
X75651258Y-64025500D01*
X75651259Y-64025500D01*
X75823799Y-64025500D01*
X75991321Y-63984209D01*
X75991321Y-63984208D01*
X75991325Y-63984208D01*
X76144102Y-63904024D01*
X76273251Y-63789609D01*
X76371265Y-63647611D01*
X76432449Y-63486283D01*
X76453246Y-63315000D01*
X76432449Y-63143717D01*
X76371265Y-62982389D01*
X76273251Y-62840391D01*
X76144102Y-62725976D01*
X75991325Y-62645792D01*
X75991324Y-62645791D01*
X75991321Y-62645790D01*
X75823799Y-62604500D01*
X75823798Y-62604500D01*
X75651258Y-62604500D01*
X75651257Y-62604500D01*
X75491081Y-62643980D01*
X75421279Y-62640911D01*
X75387095Y-62622850D01*
X75364858Y-62606203D01*
X75364856Y-62606202D01*
X75230014Y-62555910D01*
X75230013Y-62555909D01*
X75230011Y-62555909D01*
X75170401Y-62549500D01*
X75170391Y-62549500D01*
X74674657Y-62549500D01*
X74674651Y-62549501D01*
X74615044Y-62555908D01*
X74480199Y-62606202D01*
X74480192Y-62606206D01*
X74364983Y-62692452D01*
X74364980Y-62692455D01*
X74278734Y-62807664D01*
X74278730Y-62807671D01*
X74228438Y-62942513D01*
X74228437Y-62942517D01*
X74222028Y-63002127D01*
X74222028Y-63002134D01*
X74222028Y-63002135D01*
X74222028Y-63647870D01*
X73973028Y-63647870D01*
X73973027Y-63002128D01*
X73966619Y-62942517D01*
X73965534Y-62939609D01*
X73916325Y-62807671D01*
X73916321Y-62807664D01*
X73830075Y-62692455D01*
X73830072Y-62692452D01*
X73714863Y-62606206D01*
X73714856Y-62606202D01*
X73580010Y-62555908D01*
X73580011Y-62555908D01*
X73520411Y-62549501D01*
X73520409Y-62549500D01*
X73520401Y-62549500D01*
X73520393Y-62549500D01*
X73150138Y-62549500D01*
X73083099Y-62529815D01*
X73062457Y-62513181D01*
X72897921Y-62348645D01*
X72714722Y-62165446D01*
X72714721Y-62165446D01*
X72690748Y-62141472D01*
X72690747Y-62141471D01*
X72690744Y-62141469D01*
X72669231Y-62130508D01*
X72652639Y-62120341D01*
X72633109Y-62106151D01*
X72633107Y-62106150D01*
X72633108Y-62106150D01*
X72610143Y-62098688D01*
X72592169Y-62091243D01*
X72570654Y-62080280D01*
X72561370Y-62077264D01*
X72562152Y-62074856D01*
X72511931Y-62051042D01*
X72495208Y-62032821D01*
X72420074Y-61932454D01*
X72420072Y-61932453D01*
X72417761Y-61929365D01*
X72393344Y-61863901D01*
X72393028Y-61855054D01*
X72393028Y-61600912D01*
X72405628Y-61546450D01*
X72408101Y-61541393D01*
X72418028Y-61473260D01*
X72418028Y-60836740D01*
X72409289Y-60776761D01*
X72877528Y-61245000D01*
X72877528Y-62245000D01*
X76377528Y-62245000D01*
X76377528Y-61137042D01*
X76870981Y-61630495D01*
X76870982Y-61630495D01*
X76883148Y-61641423D01*
X76883147Y-61641423D01*
X76910162Y-61663192D01*
X76915703Y-61667553D01*
X77015779Y-61718439D01*
X77082818Y-61738124D01*
X77168890Y-61750500D01*
X77168893Y-61750500D01*
X78045625Y-61750500D01*
X78112664Y-61770185D01*
X78158419Y-61822989D01*
X78168363Y-61892147D01*
X78139338Y-61955703D01*
X78127852Y-61967316D01*
X78101804Y-61990392D01*
X78003792Y-62132386D01*
X77942606Y-62293717D01*
X77921810Y-62464999D01*
X77942606Y-62636282D01*
X77981135Y-62737872D01*
X78003742Y-62797483D01*
X78003792Y-62797613D01*
X78071372Y-62895520D01*
X78093255Y-62961875D01*
X78075789Y-63029527D01*
X78042209Y-63066277D01*
X78004835Y-63093431D01*
X77874656Y-63238009D01*
X77777385Y-63406488D01*
X77777384Y-63406489D01*
X77717266Y-63591516D01*
X77696930Y-63785000D01*
X77717266Y-63978483D01*
X77777384Y-64163510D01*
X77777385Y-64163511D01*
X77812284Y-64223957D01*
X77874658Y-64331992D01*
X77920004Y-64382354D01*
X78004830Y-64476564D01*
X78004833Y-64476566D01*
X78004836Y-64476569D01*
X78092971Y-64540603D01*
X78162230Y-64590923D01*
X78230454Y-64621297D01*
X78339957Y-64670051D01*
X78530254Y-64710500D01*
X78724802Y-64710500D01*
X78915099Y-64670051D01*
X79092827Y-64590922D01*
X79250220Y-64476569D01*
X79380398Y-64331992D01*
X79422292Y-64259428D01*
X79472860Y-64211212D01*
X79541467Y-64197989D01*
X79606332Y-64223957D01*
X79646860Y-64280871D01*
X79653680Y-64321428D01*
X79653680Y-65554248D01*
X79633995Y-65621287D01*
X79581191Y-65667042D01*
X79529680Y-65678248D01*
X70477540Y-65678248D01*
X70410501Y-65658563D01*
X70364746Y-65605759D01*
X70354802Y-65536601D01*
X70383827Y-65473045D01*
X70389859Y-65466567D01*
X70389858Y-65466567D01*
X70495047Y-65361379D01*
X70593718Y-65204346D01*
X70654971Y-65029294D01*
X70675736Y-64845000D01*
X70660581Y-64710500D01*
X70654972Y-64660711D01*
X70654971Y-64660706D01*
X70630553Y-64590923D01*
X70593718Y-64485654D01*
X70495047Y-64328621D01*
X70363907Y-64197481D01*
X70363907Y-64197480D01*
X70363906Y-64197480D01*
X70206876Y-64098811D01*
X70206875Y-64098810D01*
X70206874Y-64098810D01*
X70164852Y-64084106D01*
X70031819Y-64037555D01*
X69905901Y-64023368D01*
X69841487Y-63996301D01*
X69832104Y-63987829D01*
X69551758Y-63707483D01*
X69159722Y-63315446D01*
X69159721Y-63315446D01*
X69135748Y-63291472D01*
X69135747Y-63291471D01*
X69135744Y-63291469D01*
X69114231Y-63280508D01*
X69097639Y-63270341D01*
X69078109Y-63256151D01*
X69078107Y-63256150D01*
X69078108Y-63256150D01*
X69055143Y-63248688D01*
X69037169Y-63241243D01*
X69015655Y-63230281D01*
X69010538Y-63229470D01*
X68991801Y-63226503D01*
X68972886Y-63221962D01*
X68949922Y-63214500D01*
X68949921Y-63214500D01*
X68916016Y-63214500D01*
X68115138Y-63214500D01*
X68048099Y-63194815D01*
X68027457Y-63178181D01*
X66990599Y-62141323D01*
X66957114Y-62080000D01*
X66954280Y-62053642D01*
X66954280Y-60979499D01*
X66973965Y-60912460D01*
X67026769Y-60866705D01*
X67078280Y-60855499D01*
X67098636Y-60855499D01*
X67098644Y-60855499D01*
X67098659Y-60855497D01*
X67098662Y-60855497D01*
X67123767Y-60852586D01*
X67123768Y-60852585D01*
X67123771Y-60852585D01*
X67226545Y-60807206D01*
X67305986Y-60727765D01*
X67315995Y-60705094D01*
X67361079Y-60651720D01*
X67427865Y-60631192D01*
X67464366Y-60636206D01*
G37*
%TD.AperFunction*%
%TA.AperFunction,Conductor*%
G36*
X73012818Y-60818124D02*
G01*
X73098890Y-60830500D01*
X76019624Y-60830500D01*
X76086663Y-60850185D01*
X76105048Y-60865000D01*
X73037528Y-60865000D01*
X72981437Y-60808909D01*
X73012818Y-60818124D01*
G37*
%TD.AperFunction*%
%TA.AperFunction,Conductor*%
G36*
X71317528Y-60624318D02*
G01*
X71288210Y-60595000D01*
X71317528Y-60595000D01*
X71317528Y-60624318D01*
G37*
%TD.AperFunction*%
%TA.AperFunction,Conductor*%
G36*
X71617528Y-60624317D02*
G01*
X71617528Y-60595000D01*
X71646845Y-60595000D01*
X71617528Y-60624317D01*
G37*
%TD.AperFunction*%
%TA.AperFunction,Conductor*%
G36*
X67087539Y-58025185D02*
G01*
X67133294Y-58077989D01*
X67144500Y-58129500D01*
X67144500Y-59580500D01*
X67124815Y-59647539D01*
X67072011Y-59693294D01*
X67020500Y-59704500D01*
X65958923Y-59704500D01*
X65958896Y-59704502D01*
X65958168Y-59704587D01*
X65951024Y-59705000D01*
X65281528Y-59705000D01*
X65214489Y-59685315D01*
X65168734Y-59632511D01*
X65157528Y-59581000D01*
X65157528Y-58129500D01*
X65177213Y-58062461D01*
X65230017Y-58016706D01*
X65281528Y-58005500D01*
X65284000Y-58005500D01*
X67020500Y-58005500D01*
X67087539Y-58025185D01*
G37*
%TD.AperFunction*%
%TA.AperFunction,Conductor*%
G36*
X61652915Y-53983933D02*
G01*
X61673557Y-54000567D01*
X61741959Y-54068969D01*
X61775444Y-54130292D01*
X61778278Y-54156650D01*
X61778278Y-58957703D01*
X61758593Y-59024742D01*
X61705789Y-59070497D01*
X61636631Y-59080441D01*
X61573075Y-59051416D01*
X61566666Y-59045454D01*
X61420125Y-58899145D01*
X60558913Y-58039295D01*
X60546774Y-58028404D01*
X60546762Y-58028394D01*
X60546761Y-58028393D01*
X60519850Y-58006727D01*
X60514408Y-58002446D01*
X60414331Y-57951560D01*
X60347300Y-57931877D01*
X60347294Y-57931876D01*
X60261222Y-57919500D01*
X60261219Y-57919500D01*
X59970131Y-57919500D01*
X59903092Y-57899815D01*
X59857337Y-57847011D01*
X59847393Y-57777853D01*
X59859597Y-57739301D01*
X59863438Y-57731748D01*
X59883123Y-57664709D01*
X59895499Y-57578637D01*
X59895499Y-54088248D01*
X59915185Y-54021209D01*
X59967989Y-53975454D01*
X60019500Y-53964248D01*
X61585876Y-53964248D01*
X61652915Y-53983933D01*
G37*
%TD.AperFunction*%
%TA.AperFunction,Conductor*%
G36*
X73867528Y-50065000D02*
G01*
X73867528Y-51065000D01*
X77367528Y-51065000D01*
X77367528Y-49685000D01*
X74027528Y-49685000D01*
X74001437Y-49658909D01*
X74032818Y-49668124D01*
X74118890Y-49680500D01*
X74118893Y-49680500D01*
X79529680Y-49680500D01*
X79596719Y-49700185D01*
X79642474Y-49752989D01*
X79653680Y-49804500D01*
X79653680Y-57915500D01*
X79633995Y-57982539D01*
X79581191Y-58028294D01*
X79529680Y-58039500D01*
X78045432Y-58039500D01*
X77978393Y-58019815D01*
X77957751Y-58003181D01*
X76154075Y-56199505D01*
X76154074Y-56199505D01*
X76141908Y-56188577D01*
X76141909Y-56188577D01*
X76114894Y-56166808D01*
X76109353Y-56162447D01*
X76009275Y-56111560D01*
X75942244Y-56091877D01*
X75942238Y-56091876D01*
X75856166Y-56079500D01*
X75856163Y-56079500D01*
X75711528Y-56079500D01*
X75644489Y-56059815D01*
X75598734Y-56007011D01*
X75587528Y-55955500D01*
X75587528Y-55627445D01*
X75587528Y-55005000D01*
X75587527Y-55005000D01*
X75587527Y-54997488D01*
X75587799Y-54991702D01*
X75588028Y-54989266D01*
X75588028Y-54580734D01*
X75585174Y-54550301D01*
X75585174Y-54550300D01*
X75585174Y-54550298D01*
X75540321Y-54422119D01*
X75540320Y-54422117D01*
X75525135Y-54401542D01*
X75459678Y-54312850D01*
X75350410Y-54232207D01*
X75350408Y-54232206D01*
X75222228Y-54187353D01*
X75191798Y-54184500D01*
X75191794Y-54184500D01*
X73908262Y-54184500D01*
X73908258Y-54184500D01*
X73877828Y-54187353D01*
X73877826Y-54187353D01*
X73749647Y-54232206D01*
X73749645Y-54232207D01*
X73640378Y-54312850D01*
X73559735Y-54422117D01*
X73559734Y-54422119D01*
X73514508Y-54551367D01*
X73473786Y-54608143D01*
X73408833Y-54633890D01*
X73347381Y-54623846D01*
X73287523Y-54597416D01*
X73287519Y-54597415D01*
X73262396Y-54594500D01*
X73262393Y-54594500D01*
X73147172Y-54594500D01*
X73129525Y-54593238D01*
X73103528Y-54589500D01*
X71441528Y-54589500D01*
X71441519Y-54589500D01*
X71441518Y-54589501D01*
X71376592Y-54596481D01*
X71376580Y-54596483D01*
X71340210Y-54604395D01*
X71325077Y-54607687D01*
X71325078Y-54607687D01*
X71286876Y-54618643D01*
X71286868Y-54618647D01*
X71265569Y-54631103D01*
X71197762Y-54647952D01*
X71146773Y-54634595D01*
X71121139Y-54621561D01*
X71121138Y-54621560D01*
X71121135Y-54621559D01*
X71054106Y-54601877D01*
X71054100Y-54601876D01*
X70968028Y-54589500D01*
X69351528Y-54589500D01*
X69351524Y-54589500D01*
X69308315Y-54594145D01*
X69301684Y-54594500D01*
X69269500Y-54594500D01*
X69202461Y-54574815D01*
X69156706Y-54522011D01*
X69145500Y-54470500D01*
X69145500Y-51075000D01*
X70547528Y-51075000D01*
X70547528Y-50065000D01*
X71004060Y-49608467D01*
X70997028Y-49656739D01*
X70997028Y-49715355D01*
X70995766Y-49733002D01*
X70992028Y-49759000D01*
X70992028Y-50611010D01*
X70992214Y-50612735D01*
X70992203Y-50614268D01*
X70992206Y-50614318D01*
X70992202Y-50614318D01*
X70992018Y-50640914D01*
X70981810Y-50724997D01*
X70981810Y-50725000D01*
X71002606Y-50896282D01*
X71063792Y-51057613D01*
X71086090Y-51089917D01*
X71161805Y-51199609D01*
X71290954Y-51314024D01*
X71443731Y-51394208D01*
X71443733Y-51394208D01*
X71443734Y-51394209D01*
X71611257Y-51435500D01*
X71611258Y-51435500D01*
X71783800Y-51435500D01*
X71783802Y-51435499D01*
X71848352Y-51419589D01*
X71918154Y-51422657D01*
X71975216Y-51462976D01*
X72001422Y-51527745D01*
X72002028Y-51539980D01*
X72002028Y-51562867D01*
X72002029Y-51562876D01*
X72008436Y-51622483D01*
X72058730Y-51757328D01*
X72058734Y-51757335D01*
X72144980Y-51872544D01*
X72144983Y-51872547D01*
X72260192Y-51958793D01*
X72260199Y-51958797D01*
X72300202Y-51973717D01*
X72395045Y-52009091D01*
X72454655Y-52015500D01*
X73100400Y-52015499D01*
X73139460Y-52011300D01*
X73152794Y-52009867D01*
X73221553Y-52022274D01*
X73253728Y-52045476D01*
X73525709Y-52317456D01*
X73559194Y-52378779D01*
X73562028Y-52405135D01*
X73562028Y-52457869D01*
X73562029Y-52457876D01*
X73568436Y-52517483D01*
X73618730Y-52652328D01*
X73618734Y-52652335D01*
X73704980Y-52767544D01*
X73704983Y-52767547D01*
X73820192Y-52853793D01*
X73820199Y-52853797D01*
X73865146Y-52870561D01*
X73955045Y-52904091D01*
X74014655Y-52910500D01*
X74510400Y-52910499D01*
X74570011Y-52904091D01*
X74704859Y-52853796D01*
X74820074Y-52767546D01*
X74906324Y-52652331D01*
X74956619Y-52517483D01*
X74963028Y-52457873D01*
X74963028Y-52457870D01*
X75212028Y-52457870D01*
X75212029Y-52457876D01*
X75218436Y-52517483D01*
X75268730Y-52652328D01*
X75268734Y-52652335D01*
X75354980Y-52767544D01*
X75354983Y-52767547D01*
X75470192Y-52853793D01*
X75470199Y-52853797D01*
X75515146Y-52870561D01*
X75605045Y-52904091D01*
X75664655Y-52910500D01*
X76160400Y-52910499D01*
X76220011Y-52904091D01*
X76220016Y-52904089D01*
X76354857Y-52853797D01*
X76354857Y-52853796D01*
X76354859Y-52853796D01*
X76377093Y-52837151D01*
X76442554Y-52812732D01*
X76481077Y-52816018D01*
X76641258Y-52855500D01*
X76641259Y-52855500D01*
X76813799Y-52855500D01*
X76981321Y-52814209D01*
X76981321Y-52814208D01*
X76981325Y-52814208D01*
X77134102Y-52734024D01*
X77263251Y-52619609D01*
X77361265Y-52477611D01*
X77422449Y-52316283D01*
X77443246Y-52145000D01*
X77422449Y-51973717D01*
X77361265Y-51812389D01*
X77263251Y-51670391D01*
X77134102Y-51555976D01*
X76981325Y-51475792D01*
X76981324Y-51475791D01*
X76981321Y-51475790D01*
X76813799Y-51434500D01*
X76813798Y-51434500D01*
X76641258Y-51434500D01*
X76641257Y-51434500D01*
X76501180Y-51469026D01*
X76431378Y-51465957D01*
X76397194Y-51447896D01*
X76380635Y-51435500D01*
X76354859Y-51416204D01*
X76354857Y-51416203D01*
X76354856Y-51416202D01*
X76220014Y-51365910D01*
X76220013Y-51365909D01*
X76220011Y-51365909D01*
X76160401Y-51359500D01*
X76160391Y-51359500D01*
X75664657Y-51359500D01*
X75664651Y-51359501D01*
X75605044Y-51365908D01*
X75470199Y-51416202D01*
X75470192Y-51416206D01*
X75354983Y-51502452D01*
X75354980Y-51502455D01*
X75268734Y-51617664D01*
X75268730Y-51617671D01*
X75218878Y-51751334D01*
X75218437Y-51752517D01*
X75212028Y-51812127D01*
X75212028Y-51812134D01*
X75212028Y-51812135D01*
X75212028Y-52457870D01*
X74963028Y-52457870D01*
X74963027Y-51812128D01*
X74957137Y-51757335D01*
X74956619Y-51752516D01*
X74906325Y-51617671D01*
X74906321Y-51617664D01*
X74820075Y-51502455D01*
X74820072Y-51502452D01*
X74704863Y-51416206D01*
X74704856Y-51416202D01*
X74570014Y-51365910D01*
X74570013Y-51365909D01*
X74570011Y-51365909D01*
X74510401Y-51359500D01*
X74510391Y-51359500D01*
X74014657Y-51359500D01*
X74014651Y-51359501D01*
X73955044Y-51365908D01*
X73900508Y-51386249D01*
X73830816Y-51391233D01*
X73769495Y-51357748D01*
X73687637Y-51275890D01*
X73589346Y-51177598D01*
X73555861Y-51116275D01*
X73553027Y-51089917D01*
X73553027Y-51067129D01*
X73553026Y-51067123D01*
X73546619Y-51007516D01*
X73496325Y-50872671D01*
X73496321Y-50872664D01*
X73410075Y-50757455D01*
X73409340Y-50756720D01*
X73408842Y-50755807D01*
X73404760Y-50750355D01*
X73405544Y-50749767D01*
X73375860Y-50695394D01*
X73373028Y-50669045D01*
X73373028Y-50420912D01*
X73385628Y-50366450D01*
X73388101Y-50361393D01*
X73398028Y-50293260D01*
X73398028Y-49656740D01*
X73396360Y-49645295D01*
X73388101Y-49588608D01*
X73388101Y-49588607D01*
X73385199Y-49582671D01*
X73867528Y-50065000D01*
G37*
%TD.AperFunction*%
%TA.AperFunction,Conductor*%
G36*
X73689811Y-57215000D02*
G01*
X73593320Y-57215000D01*
X73659675Y-57205459D01*
X73689811Y-57215000D01*
G37*
%TD.AperFunction*%
%TA.AperFunction,Conductor*%
G36*
X57188787Y-51751332D02*
G01*
X57188789Y-51751333D01*
X57213915Y-51754248D01*
X57347612Y-51754247D01*
X57365262Y-51755509D01*
X57387778Y-51758747D01*
X57387779Y-51758748D01*
X57387780Y-51758748D01*
X58046098Y-51758748D01*
X58046100Y-51758748D01*
X58058780Y-51758068D01*
X58058780Y-52428776D01*
X58006574Y-52480982D01*
X57961195Y-52583754D01*
X57961195Y-52583756D01*
X57958280Y-52608879D01*
X57958280Y-52998604D01*
X57958282Y-52998630D01*
X57962269Y-53033006D01*
X57960503Y-53033210D01*
X57960503Y-53074289D01*
X57962270Y-53074494D01*
X57958280Y-53108879D01*
X57958280Y-53498604D01*
X57958282Y-53498630D01*
X57962269Y-53533006D01*
X57960506Y-53533210D01*
X57960506Y-53574288D01*
X57962270Y-53574493D01*
X57958280Y-53608879D01*
X57958280Y-53998604D01*
X57958282Y-53998630D01*
X57962269Y-54033006D01*
X57960506Y-54033210D01*
X57960506Y-54074288D01*
X57962270Y-54074493D01*
X57958280Y-54108879D01*
X57958279Y-54108885D01*
X57958279Y-54229249D01*
X57938594Y-54296288D01*
X57885790Y-54342043D01*
X57834280Y-54353248D01*
X57713922Y-54353248D01*
X57713899Y-54353250D01*
X57679524Y-54357237D01*
X57679319Y-54355475D01*
X57638239Y-54355474D01*
X57638035Y-54357238D01*
X57628771Y-54356163D01*
X57603645Y-54353248D01*
X57213923Y-54353248D01*
X57213897Y-54353250D01*
X57179522Y-54357237D01*
X57179317Y-54355475D01*
X57138239Y-54355473D01*
X57138035Y-54357238D01*
X57128771Y-54356163D01*
X57103645Y-54353248D01*
X56713923Y-54353248D01*
X56713897Y-54353250D01*
X56688792Y-54356161D01*
X56688788Y-54356163D01*
X56586015Y-54401541D01*
X56586014Y-54401542D01*
X56533809Y-54453748D01*
X56283751Y-54453748D01*
X56231545Y-54401542D01*
X56128772Y-54356163D01*
X56103645Y-54353248D01*
X55713923Y-54353248D01*
X55713899Y-54353250D01*
X55679524Y-54357237D01*
X55679319Y-54355475D01*
X55638239Y-54355474D01*
X55638035Y-54357238D01*
X55628771Y-54356163D01*
X55622824Y-54355473D01*
X55603648Y-54353248D01*
X55383612Y-54353248D01*
X55316573Y-54333563D01*
X55270818Y-54280759D01*
X55260874Y-54211601D01*
X55289899Y-54148045D01*
X55295919Y-54141579D01*
X55310986Y-54126513D01*
X55356365Y-54023739D01*
X55359280Y-53998613D01*
X55359279Y-53608884D01*
X55359277Y-53608865D01*
X55355291Y-53574490D01*
X55357060Y-53574284D01*
X55357062Y-53533208D01*
X55355290Y-53533003D01*
X55356365Y-53523739D01*
X55359280Y-53498613D01*
X55359279Y-53108884D01*
X55359277Y-53108865D01*
X55355291Y-53074490D01*
X55357060Y-53074284D01*
X55357062Y-53033208D01*
X55355290Y-53033003D01*
X55356365Y-53023739D01*
X55359280Y-52998613D01*
X55359279Y-52608884D01*
X55359277Y-52608865D01*
X55355291Y-52574490D01*
X55357060Y-52574284D01*
X55357062Y-52533208D01*
X55355290Y-52533003D01*
X55357090Y-52517486D01*
X55359280Y-52498613D01*
X55359279Y-52108884D01*
X55357123Y-52090291D01*
X55355291Y-52074490D01*
X55357060Y-52074284D01*
X55357062Y-52033208D01*
X55355290Y-52033003D01*
X55356535Y-52022274D01*
X55359280Y-51998613D01*
X55359279Y-51878247D01*
X55378963Y-51811208D01*
X55431767Y-51765453D01*
X55483279Y-51754247D01*
X55603636Y-51754247D01*
X55603644Y-51754247D01*
X55603659Y-51754245D01*
X55603662Y-51754245D01*
X55638038Y-51750259D01*
X55638243Y-51752029D01*
X55679320Y-51752029D01*
X55679525Y-51750258D01*
X55688787Y-51751332D01*
X55688789Y-51751333D01*
X55713915Y-51754248D01*
X55846360Y-51754247D01*
X55864010Y-51755509D01*
X55886526Y-51758747D01*
X55886527Y-51758748D01*
X55886528Y-51758748D01*
X55934271Y-51758748D01*
X55934280Y-51758748D01*
X55972830Y-51754602D01*
X55979463Y-51754247D01*
X56103636Y-51754247D01*
X56103644Y-51754247D01*
X56103659Y-51754245D01*
X56103662Y-51754245D01*
X56138038Y-51750259D01*
X56138243Y-51752029D01*
X56179320Y-51752029D01*
X56179525Y-51750258D01*
X56188787Y-51751332D01*
X56188789Y-51751333D01*
X56213915Y-51754248D01*
X56347612Y-51754247D01*
X56365262Y-51755509D01*
X56387778Y-51758747D01*
X56387779Y-51758748D01*
X56387780Y-51758748D01*
X56429771Y-51758748D01*
X56429780Y-51758748D01*
X56468330Y-51754602D01*
X56474963Y-51754247D01*
X56603636Y-51754247D01*
X56603644Y-51754247D01*
X56603659Y-51754245D01*
X56603662Y-51754245D01*
X56638038Y-51750259D01*
X56638243Y-51752029D01*
X56679320Y-51752029D01*
X56679525Y-51750258D01*
X56688787Y-51751332D01*
X56688789Y-51751333D01*
X56713915Y-51754248D01*
X56843112Y-51754247D01*
X56860762Y-51755509D01*
X56883278Y-51758747D01*
X56883279Y-51758748D01*
X56883280Y-51758748D01*
X56934271Y-51758748D01*
X56934280Y-51758748D01*
X56972830Y-51754602D01*
X56979463Y-51754247D01*
X57103636Y-51754247D01*
X57103644Y-51754247D01*
X57103659Y-51754245D01*
X57103662Y-51754245D01*
X57138038Y-51750259D01*
X57138243Y-51752029D01*
X57179320Y-51752029D01*
X57179525Y-51750258D01*
X57188787Y-51751332D01*
G37*
%TD.AperFunction*%
%TA.AperFunction,Conductor*%
G36*
X60636591Y-42198933D02*
G01*
X60682346Y-42251737D01*
X60692290Y-42320895D01*
X60682986Y-42353334D01*
X60652444Y-42422504D01*
X60652443Y-42422508D01*
X60649528Y-42447631D01*
X60649528Y-43582356D01*
X60649530Y-43582382D01*
X60652441Y-43607487D01*
X60652443Y-43607491D01*
X60697821Y-43710264D01*
X60697822Y-43710265D01*
X60777263Y-43789706D01*
X60807113Y-43802886D01*
X60887154Y-43838228D01*
X60940531Y-43883314D01*
X60961058Y-43950100D01*
X60942220Y-44017382D01*
X60901919Y-44055383D01*
X60902297Y-44055888D01*
X60897864Y-44059206D01*
X60896503Y-44060490D01*
X60895196Y-44061203D01*
X60779983Y-44147452D01*
X60779980Y-44147455D01*
X60693734Y-44262664D01*
X60693730Y-44262671D01*
X60643438Y-44397513D01*
X60643437Y-44397517D01*
X60637028Y-44457127D01*
X60637028Y-44457134D01*
X60637028Y-44457135D01*
X60637028Y-45102870D01*
X60637029Y-45102876D01*
X60643436Y-45162483D01*
X60693730Y-45297328D01*
X60693734Y-45297335D01*
X60779980Y-45412544D01*
X60779983Y-45412547D01*
X60895192Y-45498793D01*
X60895199Y-45498797D01*
X60940146Y-45515560D01*
X61030045Y-45549091D01*
X61089655Y-45555500D01*
X61585400Y-45555499D01*
X61645011Y-45549091D01*
X61779859Y-45498796D01*
X61895074Y-45412546D01*
X61981324Y-45297331D01*
X62031619Y-45162483D01*
X62038028Y-45102873D01*
X62038027Y-44457128D01*
X62031619Y-44397517D01*
X61997258Y-44305391D01*
X61981325Y-44262671D01*
X61981324Y-44262669D01*
X61917761Y-44177760D01*
X61893344Y-44112296D01*
X61893028Y-44103449D01*
X61893028Y-43961999D01*
X61912713Y-43894960D01*
X61965517Y-43849205D01*
X62017028Y-43837999D01*
X62039884Y-43837999D01*
X62039892Y-43837999D01*
X62039907Y-43837997D01*
X62039910Y-43837997D01*
X62065015Y-43835086D01*
X62065015Y-43835085D01*
X62065019Y-43835085D01*
X62137943Y-43802885D01*
X62207219Y-43793814D01*
X62270404Y-43823637D01*
X62307436Y-43882886D01*
X62312028Y-43916320D01*
X62312028Y-45854748D01*
X62292343Y-45921787D01*
X62239539Y-45967542D01*
X62188028Y-45978748D01*
X60811546Y-45978748D01*
X60804396Y-45978335D01*
X60803650Y-45978248D01*
X60803645Y-45978248D01*
X60673465Y-45978248D01*
X60655819Y-45976986D01*
X60638529Y-45974500D01*
X60638528Y-45974500D01*
X56686528Y-45974500D01*
X56686519Y-45974500D01*
X56686518Y-45974501D01*
X56621592Y-45981481D01*
X56621580Y-45981483D01*
X56590729Y-45988195D01*
X56570077Y-45992687D01*
X56570078Y-45992687D01*
X56531873Y-46003644D01*
X56531869Y-46003646D01*
X56434959Y-46060323D01*
X56434956Y-46060325D01*
X56382151Y-46106081D01*
X56382140Y-46106091D01*
X56339979Y-46150807D01*
X56339973Y-46150816D01*
X56289088Y-46250890D01*
X56269405Y-46317921D01*
X56269403Y-46317928D01*
X56269404Y-46317928D01*
X56257028Y-46404000D01*
X56257028Y-47481000D01*
X56257029Y-47481009D01*
X56264009Y-47545935D01*
X56264012Y-47545956D01*
X56264679Y-47549019D01*
X56259694Y-47618710D01*
X56217823Y-47674644D01*
X56152358Y-47699060D01*
X56143423Y-47699376D01*
X54352878Y-47698079D01*
X54285853Y-47678346D01*
X54240136Y-47625509D01*
X54230243Y-47556343D01*
X54253700Y-47499770D01*
X54331324Y-47396079D01*
X54381619Y-47261231D01*
X54388028Y-47201621D01*
X54388027Y-46705876D01*
X54381619Y-46646265D01*
X54331324Y-46511417D01*
X54281234Y-46444505D01*
X54256817Y-46379044D01*
X54271668Y-46310771D01*
X54321072Y-46261365D01*
X54350825Y-46249799D01*
X54393797Y-46239208D01*
X54546574Y-46159024D01*
X54675723Y-46044609D01*
X54773737Y-45902611D01*
X54834921Y-45741283D01*
X54855718Y-45570000D01*
X54834921Y-45398717D01*
X54773737Y-45237389D01*
X54675723Y-45095391D01*
X54546574Y-44980976D01*
X54393797Y-44900792D01*
X54393796Y-44900791D01*
X54393793Y-44900790D01*
X54226271Y-44859500D01*
X54226270Y-44859500D01*
X54053730Y-44859500D01*
X54053729Y-44859500D01*
X53886206Y-44900790D01*
X53733425Y-44980976D01*
X53604276Y-45095392D01*
X53506264Y-45237386D01*
X53445078Y-45398717D01*
X53424281Y-45569999D01*
X53424282Y-45570000D01*
X53429344Y-45611695D01*
X53417883Y-45680618D01*
X53393930Y-45714320D01*
X53341868Y-45766384D01*
X53264000Y-45844250D01*
X53253038Y-45865765D01*
X53242874Y-45882350D01*
X53228680Y-45901886D01*
X53228679Y-45901889D01*
X53221216Y-45924857D01*
X53213771Y-45942830D01*
X53202808Y-45964345D01*
X53199031Y-45988195D01*
X53194490Y-46007111D01*
X53187027Y-46030079D01*
X53187025Y-46115319D01*
X53187028Y-46115347D01*
X53187028Y-46189606D01*
X53167343Y-46256645D01*
X53114539Y-46302400D01*
X53106375Y-46305782D01*
X53095197Y-46309952D01*
X53095192Y-46309954D01*
X52979984Y-46396200D01*
X52979983Y-46396201D01*
X52979982Y-46396202D01*
X52918330Y-46478559D01*
X52862396Y-46520430D01*
X52819063Y-46528248D01*
X52780993Y-46528248D01*
X52713954Y-46508563D01*
X52681726Y-46478559D01*
X52620074Y-46396202D01*
X52597154Y-46379044D01*
X52504863Y-46309954D01*
X52504856Y-46309950D01*
X52370014Y-46259658D01*
X52370013Y-46259657D01*
X52370011Y-46259657D01*
X52310401Y-46253248D01*
X52310391Y-46253248D01*
X51664657Y-46253248D01*
X51664651Y-46253249D01*
X51605044Y-46259656D01*
X51470199Y-46309950D01*
X51470192Y-46309954D01*
X51354983Y-46396200D01*
X51354980Y-46396203D01*
X51268734Y-46511412D01*
X51268730Y-46511419D01*
X51218438Y-46646261D01*
X51218437Y-46646265D01*
X51212028Y-46705875D01*
X51212028Y-46705882D01*
X51212028Y-46705883D01*
X51212028Y-47201618D01*
X51212029Y-47201624D01*
X51218436Y-47261231D01*
X51268730Y-47396076D01*
X51268734Y-47396083D01*
X51354980Y-47511292D01*
X51354983Y-47511295D01*
X51470192Y-47597541D01*
X51470199Y-47597545D01*
X51514699Y-47614142D01*
X51605045Y-47647839D01*
X51664655Y-47654248D01*
X52310400Y-47654247D01*
X52370011Y-47647839D01*
X52504859Y-47597544D01*
X52620074Y-47511294D01*
X52681727Y-47428936D01*
X52737660Y-47387066D01*
X52780993Y-47379248D01*
X52819063Y-47379248D01*
X52886102Y-47398933D01*
X52918328Y-47428935D01*
X52979982Y-47511294D01*
X52979983Y-47511294D01*
X52979984Y-47511296D01*
X52986253Y-47517565D01*
X52983700Y-47520117D01*
X53015284Y-47562334D01*
X53020249Y-47632027D01*
X52986746Y-47693340D01*
X52933255Y-47724834D01*
X52928128Y-47726303D01*
X52928121Y-47726306D01*
X52831211Y-47782983D01*
X52831208Y-47782985D01*
X52778403Y-47828741D01*
X52778392Y-47828751D01*
X52736231Y-47873467D01*
X52736225Y-47873476D01*
X52685340Y-47973550D01*
X52665657Y-48040581D01*
X52653279Y-48126662D01*
X52653280Y-49249237D01*
X52633595Y-49316276D01*
X52591882Y-49356275D01*
X52584958Y-49360324D01*
X52532151Y-49406081D01*
X52532140Y-49406091D01*
X52489979Y-49450807D01*
X52489973Y-49450816D01*
X52439088Y-49550890D01*
X52419405Y-49617921D01*
X52419403Y-49617928D01*
X52419404Y-49617928D01*
X52410348Y-49680915D01*
X52407028Y-49704002D01*
X52407028Y-50880537D01*
X52387343Y-50947576D01*
X52334539Y-50993331D01*
X52296287Y-51003826D01*
X52271586Y-51006482D01*
X52271580Y-51006483D01*
X52235210Y-51014395D01*
X52220077Y-51017687D01*
X52220078Y-51017687D01*
X52181873Y-51028644D01*
X52181869Y-51028646D01*
X52084959Y-51085323D01*
X52084956Y-51085325D01*
X52032151Y-51131081D01*
X52032140Y-51131091D01*
X51989976Y-51175810D01*
X51939087Y-51275890D01*
X51919405Y-51342919D01*
X51907027Y-51429001D01*
X51907027Y-53027096D01*
X51887342Y-53094136D01*
X51870709Y-53114777D01*
X51797303Y-53188182D01*
X51735983Y-53221666D01*
X51709624Y-53224500D01*
X50736520Y-53224500D01*
X50734915Y-53224586D01*
X50734551Y-53224500D01*
X50733207Y-53224500D01*
X50733206Y-53224182D01*
X50666918Y-53208517D01*
X50618403Y-53158237D01*
X50604280Y-53100764D01*
X50604280Y-43780000D01*
X51156869Y-43780000D01*
X51177464Y-44015403D01*
X51177466Y-44015413D01*
X51238622Y-44243655D01*
X51238624Y-44243659D01*
X51238625Y-44243663D01*
X51267410Y-44305392D01*
X51338492Y-44457828D01*
X51338493Y-44457830D01*
X51474033Y-44651402D01*
X51641125Y-44818494D01*
X51834697Y-44954034D01*
X51834699Y-44954035D01*
X52048865Y-45053903D01*
X52277120Y-45115063D01*
X52453562Y-45130500D01*
X52571494Y-45130500D01*
X52747936Y-45115063D01*
X52976191Y-45053903D01*
X53190357Y-44954035D01*
X53383929Y-44818495D01*
X53422424Y-44780000D01*
X57871810Y-44780000D01*
X57892606Y-44951282D01*
X57903868Y-44980976D01*
X57950097Y-45102872D01*
X57953792Y-45112613D01*
X57966139Y-45130500D01*
X58051805Y-45254609D01*
X58180954Y-45369024D01*
X58333731Y-45449208D01*
X58333733Y-45449208D01*
X58333734Y-45449209D01*
X58501257Y-45490500D01*
X58501258Y-45490500D01*
X58673799Y-45490500D01*
X58841321Y-45449209D01*
X58841321Y-45449208D01*
X58841325Y-45449208D01*
X58974698Y-45379207D01*
X59043206Y-45365483D01*
X59108259Y-45390976D01*
X59123504Y-45406475D01*
X59123708Y-45406272D01*
X59129979Y-45412542D01*
X59129982Y-45412546D01*
X59129985Y-45412548D01*
X59245192Y-45498793D01*
X59245199Y-45498797D01*
X59290146Y-45515560D01*
X59380045Y-45549091D01*
X59439655Y-45555500D01*
X59935400Y-45555499D01*
X59995011Y-45549091D01*
X60129859Y-45498796D01*
X60245074Y-45412546D01*
X60331324Y-45297331D01*
X60381619Y-45162483D01*
X60388028Y-45102873D01*
X60388027Y-44457128D01*
X60381619Y-44397517D01*
X60347258Y-44305391D01*
X60331325Y-44262671D01*
X60331321Y-44262664D01*
X60245075Y-44147455D01*
X60245072Y-44147452D01*
X60129863Y-44061206D01*
X60129856Y-44061202D01*
X59995014Y-44010910D01*
X59995013Y-44010909D01*
X59995011Y-44010909D01*
X59935401Y-44004500D01*
X59935391Y-44004500D01*
X59439657Y-44004500D01*
X59439651Y-44004501D01*
X59380044Y-44010908D01*
X59245199Y-44061202D01*
X59245192Y-44061206D01*
X59129985Y-44147451D01*
X59123708Y-44153728D01*
X59122268Y-44152288D01*
X59075630Y-44187185D01*
X59005937Y-44192154D01*
X58974697Y-44180791D01*
X58841323Y-44110791D01*
X58673799Y-44069500D01*
X58673798Y-44069500D01*
X58501258Y-44069500D01*
X58501257Y-44069500D01*
X58333734Y-44110790D01*
X58180953Y-44190976D01*
X58051804Y-44305392D01*
X57953792Y-44447386D01*
X57892606Y-44608717D01*
X57871810Y-44780000D01*
X53422424Y-44780000D01*
X53551023Y-44651401D01*
X53686563Y-44457830D01*
X53786431Y-44243663D01*
X53847591Y-44015408D01*
X53868187Y-43780000D01*
X53847591Y-43544592D01*
X53786431Y-43316337D01*
X53686563Y-43102171D01*
X53686562Y-43102169D01*
X53551022Y-42908597D01*
X53383930Y-42741505D01*
X53190358Y-42605965D01*
X53190356Y-42605964D01*
X53083273Y-42556031D01*
X52976191Y-42506097D01*
X52976187Y-42506096D01*
X52976183Y-42506094D01*
X52747941Y-42444938D01*
X52747931Y-42444936D01*
X52571494Y-42429500D01*
X52453562Y-42429500D01*
X52277124Y-42444936D01*
X52277114Y-42444938D01*
X52048872Y-42506094D01*
X52048863Y-42506098D01*
X51834699Y-42605964D01*
X51834697Y-42605965D01*
X51641125Y-42741505D01*
X51474034Y-42908597D01*
X51474029Y-42908604D01*
X51338495Y-43102165D01*
X51338493Y-43102169D01*
X51238626Y-43316335D01*
X51238622Y-43316344D01*
X51177466Y-43544586D01*
X51177464Y-43544596D01*
X51156869Y-43779999D01*
X51156869Y-43780000D01*
X50604280Y-43780000D01*
X50604280Y-42303248D01*
X50623965Y-42236209D01*
X50676769Y-42190454D01*
X50728280Y-42179248D01*
X60569552Y-42179248D01*
X60636591Y-42198933D01*
G37*
%TD.AperFunction*%
%TA.AperFunction,Conductor*%
G36*
X62313164Y-50279161D02*
G01*
X62313267Y-50279172D01*
X62313915Y-50279248D01*
X62421650Y-50279247D01*
X62439299Y-50280509D01*
X62473998Y-50285499D01*
X62473999Y-50285500D01*
X62474000Y-50285500D01*
X63130500Y-50285500D01*
X63197539Y-50305185D01*
X63243294Y-50357989D01*
X63254500Y-50409500D01*
X63254500Y-51840500D01*
X63234815Y-51907539D01*
X63182011Y-51953294D01*
X63130500Y-51964500D01*
X59933180Y-51964500D01*
X59916838Y-51965376D01*
X59916828Y-51965377D01*
X59916829Y-51965377D01*
X59882345Y-51969085D01*
X59875345Y-51969919D01*
X59875337Y-51969921D01*
X59768601Y-52004699D01*
X59768595Y-52004702D01*
X59707266Y-52038189D01*
X59637666Y-52090291D01*
X59637656Y-52090300D01*
X59582957Y-52145000D01*
X59419775Y-52308182D01*
X59358455Y-52341666D01*
X59332096Y-52344500D01*
X59197135Y-52344500D01*
X59177270Y-52346456D01*
X59137537Y-52350369D01*
X59137534Y-52350369D01*
X59134217Y-52351029D01*
X59107227Y-52352903D01*
X59107227Y-52353248D01*
X59058780Y-52353248D01*
X59058780Y-51653748D01*
X58313837Y-51653748D01*
X58341620Y-51632950D01*
X59652750Y-50321818D01*
X59714073Y-50288334D01*
X59740431Y-50285500D01*
X60638519Y-50285500D01*
X60638528Y-50285500D01*
X60693375Y-50279603D01*
X60700009Y-50279247D01*
X60803636Y-50279247D01*
X60803644Y-50279247D01*
X60803658Y-50279245D01*
X60803663Y-50279245D01*
X60804392Y-50279161D01*
X60811536Y-50278748D01*
X62306014Y-50278748D01*
X62313164Y-50279161D01*
G37*
%TD.AperFunction*%
%TA.AperFunction,Conductor*%
G36*
X70297528Y-49685000D02*
G01*
X70266148Y-49685000D01*
X70273162Y-49684624D01*
X70300885Y-49681642D01*
X70297528Y-49685000D01*
G37*
%TD.AperFunction*%
%TA.AperFunction,Conductor*%
G36*
X72307528Y-49454318D02*
G01*
X72268210Y-49415000D01*
X72307528Y-49415000D01*
X72307528Y-49454318D01*
G37*
%TD.AperFunction*%
%TA.AperFunction,Conductor*%
G36*
X72607528Y-49434316D02*
G01*
X72607528Y-49415000D01*
X72626845Y-49415000D01*
X72607528Y-49434316D01*
G37*
%TD.AperFunction*%
%TA.AperFunction,Conductor*%
G36*
X79596719Y-42198933D02*
G01*
X79642474Y-42251737D01*
X79653680Y-42303248D01*
X79653680Y-45795500D01*
X79633995Y-45862539D01*
X79581191Y-45908294D01*
X79529680Y-45919500D01*
X74637028Y-45919500D01*
X74569989Y-45899815D01*
X74524234Y-45847011D01*
X74513028Y-45795500D01*
X74513028Y-43819009D01*
X74513028Y-43819000D01*
X74508383Y-43775796D01*
X74508027Y-43769164D01*
X74508027Y-43640143D01*
X74508027Y-43640136D01*
X74508025Y-43640117D01*
X74505114Y-43615012D01*
X74505113Y-43615010D01*
X74505113Y-43615009D01*
X74459734Y-43512235D01*
X74380293Y-43432794D01*
X74348244Y-43418643D01*
X74277520Y-43387415D01*
X74252393Y-43384500D01*
X72962671Y-43384500D01*
X72962645Y-43384502D01*
X72928270Y-43388489D01*
X72928157Y-43387515D01*
X72913306Y-43389500D01*
X72421528Y-43389500D01*
X72421519Y-43389500D01*
X72421518Y-43389501D01*
X72356592Y-43396481D01*
X72356580Y-43396483D01*
X72320210Y-43404395D01*
X72305077Y-43407687D01*
X72305078Y-43407687D01*
X72266876Y-43418643D01*
X72266868Y-43418647D01*
X72245569Y-43431103D01*
X72177762Y-43447952D01*
X72126773Y-43434595D01*
X72101139Y-43421561D01*
X72101138Y-43421560D01*
X72101135Y-43421559D01*
X72034106Y-43401877D01*
X72034100Y-43401876D01*
X71948028Y-43389500D01*
X71948025Y-43389500D01*
X71501750Y-43389500D01*
X71486896Y-43387514D01*
X71486783Y-43388490D01*
X71477519Y-43387415D01*
X71452393Y-43384500D01*
X70162671Y-43384500D01*
X70162645Y-43384502D01*
X70137540Y-43387413D01*
X70137536Y-43387415D01*
X70034763Y-43432793D01*
X69955322Y-43512234D01*
X69909943Y-43615006D01*
X69909943Y-43615008D01*
X69907028Y-43640131D01*
X69907028Y-43775355D01*
X69905766Y-43793002D01*
X69902028Y-43819000D01*
X69902028Y-47271003D01*
X69906673Y-47314211D01*
X69907028Y-47320842D01*
X69907028Y-47429856D01*
X69907030Y-47429881D01*
X69909942Y-47454988D01*
X69909943Y-47454991D01*
X69955321Y-47557764D01*
X69961816Y-47567245D01*
X69959223Y-47569021D01*
X69983861Y-47614142D01*
X69978877Y-47683834D01*
X69937005Y-47739767D01*
X69871541Y-47764184D01*
X69862695Y-47764500D01*
X65284000Y-47764500D01*
X65283991Y-47764500D01*
X65283990Y-47764501D01*
X65219064Y-47771481D01*
X65219052Y-47771483D01*
X65182682Y-47779395D01*
X65167548Y-47782688D01*
X65123683Y-47795268D01*
X65053815Y-47794828D01*
X64995276Y-47756684D01*
X64966652Y-47692946D01*
X64965499Y-47676073D01*
X64965499Y-47201612D01*
X64965500Y-46384000D01*
X64958518Y-46319059D01*
X64947312Y-46267549D01*
X64947313Y-46267550D01*
X64936355Y-46229345D01*
X64936354Y-46229344D01*
X64936354Y-46229342D01*
X64879675Y-46132429D01*
X64833920Y-46079625D01*
X64833918Y-46079623D01*
X64833908Y-46079612D01*
X64789192Y-46037451D01*
X64789189Y-46037449D01*
X64789187Y-46037447D01*
X64689111Y-45986561D01*
X64689110Y-45986560D01*
X64689109Y-45986560D01*
X64622078Y-45966877D01*
X64622072Y-45966876D01*
X64536000Y-45954500D01*
X64535997Y-45954500D01*
X63287028Y-45954500D01*
X63219989Y-45934815D01*
X63174234Y-45882011D01*
X63163028Y-45830500D01*
X63163027Y-43791296D01*
X63164876Y-43785000D01*
X65978121Y-43785000D01*
X65998716Y-44020403D01*
X65998718Y-44020413D01*
X66059874Y-44248655D01*
X66059876Y-44248659D01*
X66059877Y-44248663D01*
X66109810Y-44355746D01*
X66159744Y-44462828D01*
X66159745Y-44462830D01*
X66295285Y-44656402D01*
X66462377Y-44823494D01*
X66655949Y-44959034D01*
X66655951Y-44959035D01*
X66870117Y-45058903D01*
X67098372Y-45120063D01*
X67274814Y-45135500D01*
X67392746Y-45135500D01*
X67569188Y-45120063D01*
X67797443Y-45058903D01*
X68011609Y-44959035D01*
X68205181Y-44823495D01*
X68372275Y-44656401D01*
X68507815Y-44462830D01*
X68607683Y-44248663D01*
X68668843Y-44020408D01*
X68689439Y-43785000D01*
X68689001Y-43779999D01*
X68676765Y-43640136D01*
X68668843Y-43549592D01*
X68607683Y-43321337D01*
X68507815Y-43107171D01*
X68507814Y-43107169D01*
X68372274Y-42913597D01*
X68205182Y-42746505D01*
X68011610Y-42610965D01*
X68011608Y-42610964D01*
X67904525Y-42561030D01*
X67797443Y-42511097D01*
X67797439Y-42511096D01*
X67797435Y-42511094D01*
X67569193Y-42449938D01*
X67569183Y-42449936D01*
X67392746Y-42434500D01*
X67274814Y-42434500D01*
X67098376Y-42449936D01*
X67098366Y-42449938D01*
X66870124Y-42511094D01*
X66870115Y-42511098D01*
X66655951Y-42610964D01*
X66655949Y-42610965D01*
X66462377Y-42746505D01*
X66295286Y-42913597D01*
X66295281Y-42913604D01*
X66159747Y-43107165D01*
X66159745Y-43107169D01*
X66116787Y-43199293D01*
X66062210Y-43316335D01*
X66059878Y-43321335D01*
X66059874Y-43321344D01*
X65998718Y-43549586D01*
X65998716Y-43549596D01*
X65978121Y-43784999D01*
X65978121Y-43785000D01*
X63164876Y-43785000D01*
X63182712Y-43724257D01*
X63221052Y-43686304D01*
X63258907Y-43662519D01*
X63390047Y-43531379D01*
X63488718Y-43374346D01*
X63549971Y-43199294D01*
X63560351Y-43107169D01*
X63570736Y-43015003D01*
X63570736Y-43014996D01*
X63549972Y-42830711D01*
X63549971Y-42830706D01*
X63518758Y-42741505D01*
X63488718Y-42655654D01*
X63390047Y-42498621D01*
X63282355Y-42390928D01*
X63248870Y-42329606D01*
X63253854Y-42259914D01*
X63295726Y-42203981D01*
X63361190Y-42179564D01*
X63370036Y-42179248D01*
X79529680Y-42179248D01*
X79596719Y-42198933D01*
G37*
%TD.AperFunction*%
%TD*%
M02*
