%TF.GenerationSoftware,KiCad,Pcbnew,7.0.5*%
%TF.CreationDate,2023-08-01T00:38:59-05:00*%
%TF.ProjectId,psxpress-pms,70737870-7265-4737-932d-706d732e6b69,rev?*%
%TF.SameCoordinates,Original*%
%TF.FileFunction,Drillmap*%
%TF.FilePolarity,Positive*%
%FSLAX45Y45*%
G04 Gerber Fmt 4.5, Leading zero omitted, Abs format (unit mm)*
G04 Created by KiCad (PCBNEW 7.0.5) date 2023-08-01 00:38:59*
%MOMM*%
%LPD*%
G01*
G04 APERTURE LIST*
%ADD10C,0.100000*%
%ADD11C,0.200000*%
%ADD12C,0.040000*%
G04 APERTURE END LIST*
D10*
X15741625Y-5667375D02*
X18706665Y-5667375D01*
X18706665Y-8077375D01*
X15741625Y-8077375D01*
X15741625Y-5667375D01*
D11*
D12*
X15792500Y-6342500D02*
X15832500Y-6382500D01*
X15832500Y-6342500D02*
X15792500Y-6382500D01*
X15822500Y-7532500D02*
X15862500Y-7572500D01*
X15862500Y-7532500D02*
X15822500Y-7572500D01*
X15822500Y-7622500D02*
X15862500Y-7662500D01*
X15862500Y-7622500D02*
X15822500Y-7662500D01*
X15822500Y-7965000D02*
X15862500Y-8005000D01*
X15862500Y-7965000D02*
X15822500Y-8005000D01*
X15832500Y-6012500D02*
X15872500Y-6052500D01*
X15872500Y-6012500D02*
X15832500Y-6052500D01*
X15912500Y-7532500D02*
X15952500Y-7572500D01*
X15952500Y-7532500D02*
X15912500Y-7572500D01*
X15912500Y-7622500D02*
X15952500Y-7662500D01*
X15952500Y-7622500D02*
X15912500Y-7662500D01*
X15912500Y-7965000D02*
X15952500Y-8005000D01*
X15952500Y-7965000D02*
X15912500Y-8005000D01*
X16075000Y-6002500D02*
X16115000Y-6042500D01*
X16115000Y-6002500D02*
X16075000Y-6042500D01*
X16092500Y-6972500D02*
X16132500Y-7012500D01*
X16132500Y-6972500D02*
X16092500Y-7012500D01*
X16165000Y-5732500D02*
X16205000Y-5772500D01*
X16205000Y-5732500D02*
X16165000Y-5772500D01*
X16165000Y-5845000D02*
X16205000Y-5885000D01*
X16205000Y-5845000D02*
X16165000Y-5885000D01*
X16257125Y-6667375D02*
X16297125Y-6707375D01*
X16297125Y-6667375D02*
X16257125Y-6707375D01*
X16257125Y-6764875D02*
X16297125Y-6804875D01*
X16297125Y-6764875D02*
X16257125Y-6804875D01*
X16257125Y-6862375D02*
X16297125Y-6902375D01*
X16297125Y-6862375D02*
X16257125Y-6902375D01*
X16310000Y-5732500D02*
X16350000Y-5772500D01*
X16350000Y-5732500D02*
X16310000Y-5772500D01*
X16310000Y-5850000D02*
X16350000Y-5890000D01*
X16350000Y-5850000D02*
X16310000Y-5890000D01*
X16330000Y-7532500D02*
X16370000Y-7572500D01*
X16370000Y-7532500D02*
X16330000Y-7572500D01*
X16330000Y-7622500D02*
X16370000Y-7662500D01*
X16370000Y-7622500D02*
X16330000Y-7662500D01*
X16332500Y-7965000D02*
X16372500Y-8005000D01*
X16372500Y-7965000D02*
X16332500Y-8005000D01*
X16357125Y-6669875D02*
X16397125Y-6709875D01*
X16397125Y-6669875D02*
X16357125Y-6709875D01*
X16357125Y-6764875D02*
X16397125Y-6804875D01*
X16397125Y-6764875D02*
X16357125Y-6804875D01*
X16357125Y-6862375D02*
X16397125Y-6902375D01*
X16397125Y-6862375D02*
X16357125Y-6902375D01*
X16420000Y-7532500D02*
X16460000Y-7572500D01*
X16460000Y-7532500D02*
X16420000Y-7572500D01*
X16420000Y-7622500D02*
X16460000Y-7662500D01*
X16460000Y-7622500D02*
X16420000Y-7662500D01*
X16422500Y-7965000D02*
X16462500Y-8005000D01*
X16462500Y-7965000D02*
X16422500Y-8005000D01*
X16440000Y-7247500D02*
X16480000Y-7287500D01*
X16480000Y-7247500D02*
X16440000Y-7287500D01*
X16444625Y-7087375D02*
X16484625Y-7127375D01*
X16484625Y-7087375D02*
X16444625Y-7127375D01*
X16452125Y-6667375D02*
X16492125Y-6707375D01*
X16492125Y-6667375D02*
X16452125Y-6707375D01*
X16452125Y-6764875D02*
X16492125Y-6804875D01*
X16492125Y-6764875D02*
X16452125Y-6804875D01*
X16452125Y-6862375D02*
X16492125Y-6902375D01*
X16492125Y-6862375D02*
X16452125Y-6902375D01*
X16457500Y-5735000D02*
X16497500Y-5775000D01*
X16497500Y-5735000D02*
X16457500Y-5775000D01*
X16457500Y-5847500D02*
X16497500Y-5887500D01*
X16497500Y-5847500D02*
X16457500Y-5887500D01*
X16550000Y-5937500D02*
X16590000Y-5977500D01*
X16590000Y-5937500D02*
X16550000Y-5977500D01*
X16612500Y-6595000D02*
X16652500Y-6635000D01*
X16652500Y-6595000D02*
X16612500Y-6635000D01*
X16730000Y-7262500D02*
X16770000Y-7302500D01*
X16770000Y-7262500D02*
X16730000Y-7302500D01*
X16730000Y-7352500D02*
X16770000Y-7392500D01*
X16770000Y-7352500D02*
X16730000Y-7392500D01*
X16820000Y-7262500D02*
X16860000Y-7302500D01*
X16860000Y-7262500D02*
X16820000Y-7302500D01*
X16820000Y-7352500D02*
X16860000Y-7392500D01*
X16860000Y-7352500D02*
X16820000Y-7392500D01*
X17037500Y-7600000D02*
X17077500Y-7640000D01*
X17077500Y-7600000D02*
X17037500Y-7640000D01*
X17037500Y-7690000D02*
X17077500Y-7730000D01*
X17077500Y-7690000D02*
X17037500Y-7730000D01*
X17117500Y-5895000D02*
X17157500Y-5935000D01*
X17157500Y-5895000D02*
X17117500Y-5935000D01*
X17117500Y-5895000D02*
X17157500Y-5935000D01*
X17157500Y-5895000D02*
X17117500Y-5935000D01*
X17117500Y-5985000D02*
X17157500Y-6025000D01*
X17157500Y-5985000D02*
X17117500Y-6025000D01*
X17127500Y-7600000D02*
X17167500Y-7640000D01*
X17167500Y-7600000D02*
X17127500Y-7640000D01*
X17127500Y-7690000D02*
X17167500Y-7730000D01*
X17167500Y-7690000D02*
X17127500Y-7730000D01*
X17207500Y-5895000D02*
X17247500Y-5935000D01*
X17247500Y-5895000D02*
X17207500Y-5935000D01*
X17207500Y-5985000D02*
X17247500Y-6025000D01*
X17247500Y-5985000D02*
X17207500Y-6025000D01*
X17272500Y-7115000D02*
X17312500Y-7155000D01*
X17312500Y-7115000D02*
X17272500Y-7155000D01*
X17272500Y-7205000D02*
X17312500Y-7245000D01*
X17312500Y-7205000D02*
X17272500Y-7245000D01*
X17285000Y-6157500D02*
X17325000Y-6197500D01*
X17325000Y-6157500D02*
X17285000Y-6197500D01*
X17285000Y-6157500D02*
X17325000Y-6197500D01*
X17325000Y-6157500D02*
X17285000Y-6197500D01*
X17285000Y-6247500D02*
X17325000Y-6287500D01*
X17325000Y-6247500D02*
X17285000Y-6287500D01*
X17362500Y-7115000D02*
X17402500Y-7155000D01*
X17402500Y-7115000D02*
X17362500Y-7155000D01*
X17362500Y-7205000D02*
X17402500Y-7245000D01*
X17402500Y-7205000D02*
X17362500Y-7245000D01*
X17375000Y-6157500D02*
X17415000Y-6197500D01*
X17415000Y-6157500D02*
X17375000Y-6197500D01*
X17375000Y-6247500D02*
X17415000Y-6287500D01*
X17415000Y-6247500D02*
X17375000Y-6287500D01*
X17505000Y-7605000D02*
X17545000Y-7645000D01*
X17545000Y-7605000D02*
X17505000Y-7645000D01*
X17505000Y-7695000D02*
X17545000Y-7735000D01*
X17545000Y-7695000D02*
X17505000Y-7735000D01*
X17595000Y-7605000D02*
X17635000Y-7645000D01*
X17635000Y-7605000D02*
X17595000Y-7645000D01*
X17595000Y-7695000D02*
X17635000Y-7735000D01*
X17635000Y-7695000D02*
X17595000Y-7735000D01*
X17617500Y-5945000D02*
X17657500Y-5985000D01*
X17657500Y-5945000D02*
X17617500Y-5985000D01*
X17620000Y-5770000D02*
X17660000Y-5810000D01*
X17660000Y-5770000D02*
X17620000Y-5810000D01*
X17682500Y-6865000D02*
X17722500Y-6905000D01*
X17722500Y-6865000D02*
X17682500Y-6905000D01*
X17780000Y-7877500D02*
X17820000Y-7917500D01*
X17820000Y-7877500D02*
X17780000Y-7917500D01*
X17780000Y-7967500D02*
X17820000Y-8007500D01*
X17820000Y-7967500D02*
X17780000Y-8007500D01*
X17836625Y-7239565D02*
X17876625Y-7279565D01*
X17876625Y-7239565D02*
X17836625Y-7279565D01*
X18070000Y-7880000D02*
X18110000Y-7920000D01*
X18110000Y-7880000D02*
X18070000Y-7920000D01*
X18225000Y-6505000D02*
X18265000Y-6545000D01*
X18265000Y-6505000D02*
X18225000Y-6545000D01*
X18225000Y-6595000D02*
X18265000Y-6635000D01*
X18265000Y-6595000D02*
X18225000Y-6635000D01*
X18225000Y-6752500D02*
X18265000Y-6792500D01*
X18265000Y-6752500D02*
X18225000Y-6792500D01*
X18225000Y-6842500D02*
X18265000Y-6882500D01*
X18265000Y-6842500D02*
X18225000Y-6882500D01*
X18225000Y-7002500D02*
X18265000Y-7042500D01*
X18265000Y-7002500D02*
X18225000Y-7042500D01*
X18225000Y-7092500D02*
X18265000Y-7132500D01*
X18265000Y-7092500D02*
X18225000Y-7132500D01*
X18315000Y-6505000D02*
X18355000Y-6545000D01*
X18355000Y-6505000D02*
X18315000Y-6545000D01*
X18315000Y-6595000D02*
X18355000Y-6635000D01*
X18355000Y-6595000D02*
X18315000Y-6635000D01*
X18315000Y-6752500D02*
X18355000Y-6792500D01*
X18355000Y-6752500D02*
X18315000Y-6792500D01*
X18315000Y-6842500D02*
X18355000Y-6882500D01*
X18355000Y-6842500D02*
X18315000Y-6882500D01*
X18315000Y-7002500D02*
X18355000Y-7042500D01*
X18355000Y-7002500D02*
X18315000Y-7042500D01*
X18315000Y-7092500D02*
X18355000Y-7132500D01*
X18355000Y-7092500D02*
X18315000Y-7132500D01*
X18595000Y-7285000D02*
X18635000Y-7325000D01*
X18635000Y-7285000D02*
X18595000Y-7325000D01*
X18595000Y-7375000D02*
X18635000Y-7415000D01*
X18635000Y-7375000D02*
X18595000Y-7415000D01*
X18595000Y-7547500D02*
X18635000Y-7587500D01*
X18635000Y-7547500D02*
X18595000Y-7587500D01*
X18595000Y-7637500D02*
X18635000Y-7677500D01*
X18635000Y-7637500D02*
X18595000Y-7677500D01*
D11*
X15997402Y-8393859D02*
X15997402Y-8193859D01*
X15997402Y-8193859D02*
X16045021Y-8193859D01*
X16045021Y-8193859D02*
X16073592Y-8203382D01*
X16073592Y-8203382D02*
X16092640Y-8222430D01*
X16092640Y-8222430D02*
X16102164Y-8241478D01*
X16102164Y-8241478D02*
X16111688Y-8279573D01*
X16111688Y-8279573D02*
X16111688Y-8308144D01*
X16111688Y-8308144D02*
X16102164Y-8346239D01*
X16102164Y-8346239D02*
X16092640Y-8365287D01*
X16092640Y-8365287D02*
X16073592Y-8384335D01*
X16073592Y-8384335D02*
X16045021Y-8393859D01*
X16045021Y-8393859D02*
X15997402Y-8393859D01*
X16197402Y-8393859D02*
X16197402Y-8260525D01*
X16197402Y-8298620D02*
X16206926Y-8279573D01*
X16206926Y-8279573D02*
X16216450Y-8270049D01*
X16216450Y-8270049D02*
X16235497Y-8260525D01*
X16235497Y-8260525D02*
X16254545Y-8260525D01*
X16321211Y-8393859D02*
X16321211Y-8260525D01*
X16321211Y-8193859D02*
X16311688Y-8203382D01*
X16311688Y-8203382D02*
X16321211Y-8212906D01*
X16321211Y-8212906D02*
X16330735Y-8203382D01*
X16330735Y-8203382D02*
X16321211Y-8193859D01*
X16321211Y-8193859D02*
X16321211Y-8212906D01*
X16445021Y-8393859D02*
X16425973Y-8384335D01*
X16425973Y-8384335D02*
X16416450Y-8365287D01*
X16416450Y-8365287D02*
X16416450Y-8193859D01*
X16549783Y-8393859D02*
X16530735Y-8384335D01*
X16530735Y-8384335D02*
X16521211Y-8365287D01*
X16521211Y-8365287D02*
X16521211Y-8193859D01*
X16778354Y-8393859D02*
X16778354Y-8193859D01*
X16778354Y-8193859D02*
X16845021Y-8336716D01*
X16845021Y-8336716D02*
X16911688Y-8193859D01*
X16911688Y-8193859D02*
X16911688Y-8393859D01*
X17092640Y-8393859D02*
X17092640Y-8289097D01*
X17092640Y-8289097D02*
X17083116Y-8270049D01*
X17083116Y-8270049D02*
X17064069Y-8260525D01*
X17064069Y-8260525D02*
X17025973Y-8260525D01*
X17025973Y-8260525D02*
X17006926Y-8270049D01*
X17092640Y-8384335D02*
X17073593Y-8393859D01*
X17073593Y-8393859D02*
X17025973Y-8393859D01*
X17025973Y-8393859D02*
X17006926Y-8384335D01*
X17006926Y-8384335D02*
X16997402Y-8365287D01*
X16997402Y-8365287D02*
X16997402Y-8346239D01*
X16997402Y-8346239D02*
X17006926Y-8327192D01*
X17006926Y-8327192D02*
X17025973Y-8317668D01*
X17025973Y-8317668D02*
X17073593Y-8317668D01*
X17073593Y-8317668D02*
X17092640Y-8308144D01*
X17187878Y-8260525D02*
X17187878Y-8460525D01*
X17187878Y-8270049D02*
X17206926Y-8260525D01*
X17206926Y-8260525D02*
X17245021Y-8260525D01*
X17245021Y-8260525D02*
X17264069Y-8270049D01*
X17264069Y-8270049D02*
X17273593Y-8279573D01*
X17273593Y-8279573D02*
X17283116Y-8298620D01*
X17283116Y-8298620D02*
X17283116Y-8355763D01*
X17283116Y-8355763D02*
X17273593Y-8374811D01*
X17273593Y-8374811D02*
X17264069Y-8384335D01*
X17264069Y-8384335D02*
X17245021Y-8393859D01*
X17245021Y-8393859D02*
X17206926Y-8393859D01*
X17206926Y-8393859D02*
X17187878Y-8384335D01*
X17368831Y-8374811D02*
X17378354Y-8384335D01*
X17378354Y-8384335D02*
X17368831Y-8393859D01*
X17368831Y-8393859D02*
X17359307Y-8384335D01*
X17359307Y-8384335D02*
X17368831Y-8374811D01*
X17368831Y-8374811D02*
X17368831Y-8393859D01*
X17368831Y-8270049D02*
X17378354Y-8279573D01*
X17378354Y-8279573D02*
X17368831Y-8289097D01*
X17368831Y-8289097D02*
X17359307Y-8279573D01*
X17359307Y-8279573D02*
X17368831Y-8270049D01*
X17368831Y-8270049D02*
X17368831Y-8289097D01*
D12*
X15696625Y-8702375D02*
X15736625Y-8742375D01*
X15736625Y-8702375D02*
X15696625Y-8742375D01*
D11*
X16035497Y-8613859D02*
X16054545Y-8613859D01*
X16054545Y-8613859D02*
X16073592Y-8623382D01*
X16073592Y-8623382D02*
X16083116Y-8632906D01*
X16083116Y-8632906D02*
X16092640Y-8651954D01*
X16092640Y-8651954D02*
X16102164Y-8690049D01*
X16102164Y-8690049D02*
X16102164Y-8737668D01*
X16102164Y-8737668D02*
X16092640Y-8775763D01*
X16092640Y-8775763D02*
X16083116Y-8794811D01*
X16083116Y-8794811D02*
X16073592Y-8804335D01*
X16073592Y-8804335D02*
X16054545Y-8813859D01*
X16054545Y-8813859D02*
X16035497Y-8813859D01*
X16035497Y-8813859D02*
X16016450Y-8804335D01*
X16016450Y-8804335D02*
X16006926Y-8794811D01*
X16006926Y-8794811D02*
X15997402Y-8775763D01*
X15997402Y-8775763D02*
X15987878Y-8737668D01*
X15987878Y-8737668D02*
X15987878Y-8690049D01*
X15987878Y-8690049D02*
X15997402Y-8651954D01*
X15997402Y-8651954D02*
X16006926Y-8632906D01*
X16006926Y-8632906D02*
X16016450Y-8623382D01*
X16016450Y-8623382D02*
X16035497Y-8613859D01*
X16187878Y-8794811D02*
X16197402Y-8804335D01*
X16197402Y-8804335D02*
X16187878Y-8813859D01*
X16187878Y-8813859D02*
X16178354Y-8804335D01*
X16178354Y-8804335D02*
X16187878Y-8794811D01*
X16187878Y-8794811D02*
X16187878Y-8813859D01*
X16368831Y-8680525D02*
X16368831Y-8813859D01*
X16321211Y-8604335D02*
X16273592Y-8747192D01*
X16273592Y-8747192D02*
X16397402Y-8747192D01*
X16511688Y-8613859D02*
X16530735Y-8613859D01*
X16530735Y-8613859D02*
X16549783Y-8623382D01*
X16549783Y-8623382D02*
X16559307Y-8632906D01*
X16559307Y-8632906D02*
X16568831Y-8651954D01*
X16568831Y-8651954D02*
X16578354Y-8690049D01*
X16578354Y-8690049D02*
X16578354Y-8737668D01*
X16578354Y-8737668D02*
X16568831Y-8775763D01*
X16568831Y-8775763D02*
X16559307Y-8794811D01*
X16559307Y-8794811D02*
X16549783Y-8804335D01*
X16549783Y-8804335D02*
X16530735Y-8813859D01*
X16530735Y-8813859D02*
X16511688Y-8813859D01*
X16511688Y-8813859D02*
X16492640Y-8804335D01*
X16492640Y-8804335D02*
X16483116Y-8794811D01*
X16483116Y-8794811D02*
X16473592Y-8775763D01*
X16473592Y-8775763D02*
X16464069Y-8737668D01*
X16464069Y-8737668D02*
X16464069Y-8690049D01*
X16464069Y-8690049D02*
X16473592Y-8651954D01*
X16473592Y-8651954D02*
X16483116Y-8632906D01*
X16483116Y-8632906D02*
X16492640Y-8623382D01*
X16492640Y-8623382D02*
X16511688Y-8613859D01*
X16702164Y-8613859D02*
X16721212Y-8613859D01*
X16721212Y-8613859D02*
X16740259Y-8623382D01*
X16740259Y-8623382D02*
X16749783Y-8632906D01*
X16749783Y-8632906D02*
X16759307Y-8651954D01*
X16759307Y-8651954D02*
X16768831Y-8690049D01*
X16768831Y-8690049D02*
X16768831Y-8737668D01*
X16768831Y-8737668D02*
X16759307Y-8775763D01*
X16759307Y-8775763D02*
X16749783Y-8794811D01*
X16749783Y-8794811D02*
X16740259Y-8804335D01*
X16740259Y-8804335D02*
X16721212Y-8813859D01*
X16721212Y-8813859D02*
X16702164Y-8813859D01*
X16702164Y-8813859D02*
X16683116Y-8804335D01*
X16683116Y-8804335D02*
X16673592Y-8794811D01*
X16673592Y-8794811D02*
X16664069Y-8775763D01*
X16664069Y-8775763D02*
X16654545Y-8737668D01*
X16654545Y-8737668D02*
X16654545Y-8690049D01*
X16654545Y-8690049D02*
X16664069Y-8651954D01*
X16664069Y-8651954D02*
X16673592Y-8632906D01*
X16673592Y-8632906D02*
X16683116Y-8623382D01*
X16683116Y-8623382D02*
X16702164Y-8613859D01*
X16854545Y-8813859D02*
X16854545Y-8680525D01*
X16854545Y-8699573D02*
X16864069Y-8690049D01*
X16864069Y-8690049D02*
X16883116Y-8680525D01*
X16883116Y-8680525D02*
X16911688Y-8680525D01*
X16911688Y-8680525D02*
X16930735Y-8690049D01*
X16930735Y-8690049D02*
X16940259Y-8709097D01*
X16940259Y-8709097D02*
X16940259Y-8813859D01*
X16940259Y-8709097D02*
X16949783Y-8690049D01*
X16949783Y-8690049D02*
X16968831Y-8680525D01*
X16968831Y-8680525D02*
X16997402Y-8680525D01*
X16997402Y-8680525D02*
X17016450Y-8690049D01*
X17016450Y-8690049D02*
X17025974Y-8709097D01*
X17025974Y-8709097D02*
X17025974Y-8813859D01*
X17121212Y-8813859D02*
X17121212Y-8680525D01*
X17121212Y-8699573D02*
X17130735Y-8690049D01*
X17130735Y-8690049D02*
X17149783Y-8680525D01*
X17149783Y-8680525D02*
X17178355Y-8680525D01*
X17178355Y-8680525D02*
X17197402Y-8690049D01*
X17197402Y-8690049D02*
X17206926Y-8709097D01*
X17206926Y-8709097D02*
X17206926Y-8813859D01*
X17206926Y-8709097D02*
X17216450Y-8690049D01*
X17216450Y-8690049D02*
X17235497Y-8680525D01*
X17235497Y-8680525D02*
X17264069Y-8680525D01*
X17264069Y-8680525D02*
X17283116Y-8690049D01*
X17283116Y-8690049D02*
X17292640Y-8709097D01*
X17292640Y-8709097D02*
X17292640Y-8813859D01*
X17683116Y-8604335D02*
X17511688Y-8861478D01*
X17940259Y-8613859D02*
X17959307Y-8613859D01*
X17959307Y-8613859D02*
X17978355Y-8623382D01*
X17978355Y-8623382D02*
X17987878Y-8632906D01*
X17987878Y-8632906D02*
X17997402Y-8651954D01*
X17997402Y-8651954D02*
X18006926Y-8690049D01*
X18006926Y-8690049D02*
X18006926Y-8737668D01*
X18006926Y-8737668D02*
X17997402Y-8775763D01*
X17997402Y-8775763D02*
X17987878Y-8794811D01*
X17987878Y-8794811D02*
X17978355Y-8804335D01*
X17978355Y-8804335D02*
X17959307Y-8813859D01*
X17959307Y-8813859D02*
X17940259Y-8813859D01*
X17940259Y-8813859D02*
X17921212Y-8804335D01*
X17921212Y-8804335D02*
X17911688Y-8794811D01*
X17911688Y-8794811D02*
X17902164Y-8775763D01*
X17902164Y-8775763D02*
X17892640Y-8737668D01*
X17892640Y-8737668D02*
X17892640Y-8690049D01*
X17892640Y-8690049D02*
X17902164Y-8651954D01*
X17902164Y-8651954D02*
X17911688Y-8632906D01*
X17911688Y-8632906D02*
X17921212Y-8623382D01*
X17921212Y-8623382D02*
X17940259Y-8613859D01*
X18092640Y-8794811D02*
X18102164Y-8804335D01*
X18102164Y-8804335D02*
X18092640Y-8813859D01*
X18092640Y-8813859D02*
X18083117Y-8804335D01*
X18083117Y-8804335D02*
X18092640Y-8794811D01*
X18092640Y-8794811D02*
X18092640Y-8813859D01*
X18225974Y-8613859D02*
X18245021Y-8613859D01*
X18245021Y-8613859D02*
X18264069Y-8623382D01*
X18264069Y-8623382D02*
X18273593Y-8632906D01*
X18273593Y-8632906D02*
X18283117Y-8651954D01*
X18283117Y-8651954D02*
X18292640Y-8690049D01*
X18292640Y-8690049D02*
X18292640Y-8737668D01*
X18292640Y-8737668D02*
X18283117Y-8775763D01*
X18283117Y-8775763D02*
X18273593Y-8794811D01*
X18273593Y-8794811D02*
X18264069Y-8804335D01*
X18264069Y-8804335D02*
X18245021Y-8813859D01*
X18245021Y-8813859D02*
X18225974Y-8813859D01*
X18225974Y-8813859D02*
X18206926Y-8804335D01*
X18206926Y-8804335D02*
X18197402Y-8794811D01*
X18197402Y-8794811D02*
X18187878Y-8775763D01*
X18187878Y-8775763D02*
X18178355Y-8737668D01*
X18178355Y-8737668D02*
X18178355Y-8690049D01*
X18178355Y-8690049D02*
X18187878Y-8651954D01*
X18187878Y-8651954D02*
X18197402Y-8632906D01*
X18197402Y-8632906D02*
X18206926Y-8623382D01*
X18206926Y-8623382D02*
X18225974Y-8613859D01*
X18483117Y-8813859D02*
X18368831Y-8813859D01*
X18425974Y-8813859D02*
X18425974Y-8613859D01*
X18425974Y-8613859D02*
X18406926Y-8642430D01*
X18406926Y-8642430D02*
X18387878Y-8661478D01*
X18387878Y-8661478D02*
X18368831Y-8671001D01*
X18664069Y-8613859D02*
X18568831Y-8613859D01*
X18568831Y-8613859D02*
X18559307Y-8709097D01*
X18559307Y-8709097D02*
X18568831Y-8699573D01*
X18568831Y-8699573D02*
X18587878Y-8690049D01*
X18587878Y-8690049D02*
X18635498Y-8690049D01*
X18635498Y-8690049D02*
X18654545Y-8699573D01*
X18654545Y-8699573D02*
X18664069Y-8709097D01*
X18664069Y-8709097D02*
X18673593Y-8728144D01*
X18673593Y-8728144D02*
X18673593Y-8775763D01*
X18673593Y-8775763D02*
X18664069Y-8794811D01*
X18664069Y-8794811D02*
X18654545Y-8804335D01*
X18654545Y-8804335D02*
X18635498Y-8813859D01*
X18635498Y-8813859D02*
X18587878Y-8813859D01*
X18587878Y-8813859D02*
X18568831Y-8804335D01*
X18568831Y-8804335D02*
X18559307Y-8794811D01*
X18740259Y-8613859D02*
X18873593Y-8613859D01*
X18873593Y-8613859D02*
X18787878Y-8813859D01*
X18940259Y-8613859D02*
X18940259Y-8651954D01*
X19016450Y-8613859D02*
X19016450Y-8651954D01*
X19311688Y-8890049D02*
X19302164Y-8880525D01*
X19302164Y-8880525D02*
X19283117Y-8851954D01*
X19283117Y-8851954D02*
X19273593Y-8832906D01*
X19273593Y-8832906D02*
X19264069Y-8804335D01*
X19264069Y-8804335D02*
X19254545Y-8756716D01*
X19254545Y-8756716D02*
X19254545Y-8718621D01*
X19254545Y-8718621D02*
X19264069Y-8671001D01*
X19264069Y-8671001D02*
X19273593Y-8642430D01*
X19273593Y-8642430D02*
X19283117Y-8623382D01*
X19283117Y-8623382D02*
X19302164Y-8594811D01*
X19302164Y-8594811D02*
X19311688Y-8585287D01*
X19416450Y-8699573D02*
X19397402Y-8690049D01*
X19397402Y-8690049D02*
X19387879Y-8680525D01*
X19387879Y-8680525D02*
X19378355Y-8661478D01*
X19378355Y-8661478D02*
X19378355Y-8651954D01*
X19378355Y-8651954D02*
X19387879Y-8632906D01*
X19387879Y-8632906D02*
X19397402Y-8623382D01*
X19397402Y-8623382D02*
X19416450Y-8613859D01*
X19416450Y-8613859D02*
X19454545Y-8613859D01*
X19454545Y-8613859D02*
X19473593Y-8623382D01*
X19473593Y-8623382D02*
X19483117Y-8632906D01*
X19483117Y-8632906D02*
X19492640Y-8651954D01*
X19492640Y-8651954D02*
X19492640Y-8661478D01*
X19492640Y-8661478D02*
X19483117Y-8680525D01*
X19483117Y-8680525D02*
X19473593Y-8690049D01*
X19473593Y-8690049D02*
X19454545Y-8699573D01*
X19454545Y-8699573D02*
X19416450Y-8699573D01*
X19416450Y-8699573D02*
X19397402Y-8709097D01*
X19397402Y-8709097D02*
X19387879Y-8718621D01*
X19387879Y-8718621D02*
X19378355Y-8737668D01*
X19378355Y-8737668D02*
X19378355Y-8775763D01*
X19378355Y-8775763D02*
X19387879Y-8794811D01*
X19387879Y-8794811D02*
X19397402Y-8804335D01*
X19397402Y-8804335D02*
X19416450Y-8813859D01*
X19416450Y-8813859D02*
X19454545Y-8813859D01*
X19454545Y-8813859D02*
X19473593Y-8804335D01*
X19473593Y-8804335D02*
X19483117Y-8794811D01*
X19483117Y-8794811D02*
X19492640Y-8775763D01*
X19492640Y-8775763D02*
X19492640Y-8737668D01*
X19492640Y-8737668D02*
X19483117Y-8718621D01*
X19483117Y-8718621D02*
X19473593Y-8709097D01*
X19473593Y-8709097D02*
X19454545Y-8699573D01*
X19664069Y-8680525D02*
X19664069Y-8813859D01*
X19616450Y-8604335D02*
X19568831Y-8747192D01*
X19568831Y-8747192D02*
X19692640Y-8747192D01*
X19921212Y-8813859D02*
X19921212Y-8613859D01*
X20006926Y-8813859D02*
X20006926Y-8709097D01*
X20006926Y-8709097D02*
X19997402Y-8690049D01*
X19997402Y-8690049D02*
X19978355Y-8680525D01*
X19978355Y-8680525D02*
X19949783Y-8680525D01*
X19949783Y-8680525D02*
X19930736Y-8690049D01*
X19930736Y-8690049D02*
X19921212Y-8699573D01*
X20130736Y-8813859D02*
X20111688Y-8804335D01*
X20111688Y-8804335D02*
X20102164Y-8794811D01*
X20102164Y-8794811D02*
X20092641Y-8775763D01*
X20092641Y-8775763D02*
X20092641Y-8718621D01*
X20092641Y-8718621D02*
X20102164Y-8699573D01*
X20102164Y-8699573D02*
X20111688Y-8690049D01*
X20111688Y-8690049D02*
X20130736Y-8680525D01*
X20130736Y-8680525D02*
X20159307Y-8680525D01*
X20159307Y-8680525D02*
X20178355Y-8690049D01*
X20178355Y-8690049D02*
X20187879Y-8699573D01*
X20187879Y-8699573D02*
X20197402Y-8718621D01*
X20197402Y-8718621D02*
X20197402Y-8775763D01*
X20197402Y-8775763D02*
X20187879Y-8794811D01*
X20187879Y-8794811D02*
X20178355Y-8804335D01*
X20178355Y-8804335D02*
X20159307Y-8813859D01*
X20159307Y-8813859D02*
X20130736Y-8813859D01*
X20311688Y-8813859D02*
X20292641Y-8804335D01*
X20292641Y-8804335D02*
X20283117Y-8785287D01*
X20283117Y-8785287D02*
X20283117Y-8613859D01*
X20464069Y-8804335D02*
X20445022Y-8813859D01*
X20445022Y-8813859D02*
X20406926Y-8813859D01*
X20406926Y-8813859D02*
X20387879Y-8804335D01*
X20387879Y-8804335D02*
X20378355Y-8785287D01*
X20378355Y-8785287D02*
X20378355Y-8709097D01*
X20378355Y-8709097D02*
X20387879Y-8690049D01*
X20387879Y-8690049D02*
X20406926Y-8680525D01*
X20406926Y-8680525D02*
X20445022Y-8680525D01*
X20445022Y-8680525D02*
X20464069Y-8690049D01*
X20464069Y-8690049D02*
X20473593Y-8709097D01*
X20473593Y-8709097D02*
X20473593Y-8728144D01*
X20473593Y-8728144D02*
X20378355Y-8747192D01*
X20549783Y-8804335D02*
X20568831Y-8813859D01*
X20568831Y-8813859D02*
X20606926Y-8813859D01*
X20606926Y-8813859D02*
X20625974Y-8804335D01*
X20625974Y-8804335D02*
X20635498Y-8785287D01*
X20635498Y-8785287D02*
X20635498Y-8775763D01*
X20635498Y-8775763D02*
X20625974Y-8756716D01*
X20625974Y-8756716D02*
X20606926Y-8747192D01*
X20606926Y-8747192D02*
X20578355Y-8747192D01*
X20578355Y-8747192D02*
X20559307Y-8737668D01*
X20559307Y-8737668D02*
X20549783Y-8718621D01*
X20549783Y-8718621D02*
X20549783Y-8709097D01*
X20549783Y-8709097D02*
X20559307Y-8690049D01*
X20559307Y-8690049D02*
X20578355Y-8680525D01*
X20578355Y-8680525D02*
X20606926Y-8680525D01*
X20606926Y-8680525D02*
X20625974Y-8690049D01*
X20702164Y-8890049D02*
X20711688Y-8880525D01*
X20711688Y-8880525D02*
X20730736Y-8851954D01*
X20730736Y-8851954D02*
X20740260Y-8832906D01*
X20740260Y-8832906D02*
X20749783Y-8804335D01*
X20749783Y-8804335D02*
X20759307Y-8756716D01*
X20759307Y-8756716D02*
X20759307Y-8718621D01*
X20759307Y-8718621D02*
X20749783Y-8671001D01*
X20749783Y-8671001D02*
X20740260Y-8642430D01*
X20740260Y-8642430D02*
X20730736Y-8623382D01*
X20730736Y-8623382D02*
X20711688Y-8594811D01*
X20711688Y-8594811D02*
X20702164Y-8585287D01*
M02*
