G04 #@! TF.GenerationSoftware,KiCad,Pcbnew,7.0.5*
G04 #@! TF.CreationDate,2023-08-01T00:38:24-05:00*
G04 #@! TF.ProjectId,psxpress-pms,70737870-7265-4737-932d-706d732e6b69,rev?*
G04 #@! TF.SameCoordinates,Original*
G04 #@! TF.FileFunction,Legend,Bot*
G04 #@! TF.FilePolarity,Positive*
%FSLAX46Y46*%
G04 Gerber Fmt 4.6, Leading zero omitted, Abs format (unit mm)*
G04 Created by KiCad (PCBNEW 7.0.5) date 2023-08-01 00:38:24*
%MOMM*%
%LPD*%
G01*
G04 APERTURE LIST*
%ADD10C,0.125000*%
%ADD11C,2.200000*%
G04 APERTURE END LIST*
%LPC*%
D10*
G36*
X184075641Y-57982000D02*
G01*
X183857142Y-57982000D01*
X183848168Y-57981837D01*
X183839517Y-57981351D01*
X183831186Y-57980542D01*
X183823174Y-57979411D01*
X183815477Y-57977959D01*
X183808093Y-57976185D01*
X183801019Y-57974092D01*
X183794253Y-57971679D01*
X183787793Y-57968949D01*
X183781635Y-57965900D01*
X183775779Y-57962535D01*
X183770220Y-57958854D01*
X183764957Y-57954858D01*
X183759986Y-57950547D01*
X183755306Y-57945922D01*
X183750914Y-57940985D01*
X183746808Y-57935735D01*
X183742985Y-57930175D01*
X183739442Y-57924303D01*
X183736177Y-57918122D01*
X183733188Y-57911632D01*
X183730472Y-57904833D01*
X183728026Y-57897727D01*
X183725848Y-57890315D01*
X183723936Y-57882596D01*
X183722287Y-57874572D01*
X183720899Y-57866244D01*
X183719768Y-57857613D01*
X183718893Y-57848678D01*
X183718271Y-57839442D01*
X183717900Y-57829905D01*
X183717799Y-57821825D01*
X183806877Y-57821825D01*
X183806962Y-57829335D01*
X183807216Y-57836535D01*
X183807636Y-57843430D01*
X183808218Y-57850025D01*
X183808960Y-57856325D01*
X183809859Y-57862333D01*
X183812113Y-57873496D01*
X183814958Y-57883551D01*
X183818368Y-57892536D01*
X183822320Y-57900488D01*
X183826788Y-57907444D01*
X183831750Y-57913442D01*
X183837180Y-57918519D01*
X183843055Y-57922713D01*
X183849350Y-57926060D01*
X183856040Y-57928599D01*
X183863102Y-57930366D01*
X183870512Y-57931398D01*
X183878244Y-57931734D01*
X183987421Y-57931734D01*
X183987421Y-57441539D01*
X183878244Y-57441539D01*
X183871141Y-57441888D01*
X183864353Y-57442958D01*
X183857900Y-57444784D01*
X183851802Y-57447398D01*
X183846078Y-57450837D01*
X183840748Y-57455132D01*
X183835832Y-57460320D01*
X183831350Y-57466433D01*
X183827321Y-57473507D01*
X183823765Y-57481574D01*
X183820702Y-57490670D01*
X183818151Y-57500828D01*
X183816133Y-57512083D01*
X183815330Y-57518132D01*
X183814668Y-57524468D01*
X183814148Y-57531095D01*
X183813774Y-57538018D01*
X183813547Y-57545241D01*
X183813471Y-57552767D01*
X183813499Y-57559452D01*
X183813587Y-57565879D01*
X183813740Y-57572053D01*
X183813963Y-57577975D01*
X183814645Y-57589076D01*
X183815676Y-57599208D01*
X183817102Y-57608394D01*
X183818966Y-57616657D01*
X183821313Y-57624021D01*
X183824187Y-57630510D01*
X183827634Y-57636146D01*
X183831696Y-57640955D01*
X183836420Y-57644959D01*
X183841848Y-57648182D01*
X183848027Y-57650648D01*
X183854999Y-57652380D01*
X183862810Y-57653402D01*
X183871503Y-57653737D01*
X183951224Y-57653737D01*
X183951224Y-57703416D01*
X183871503Y-57703416D01*
X183862736Y-57703809D01*
X183854715Y-57705006D01*
X183847418Y-57707035D01*
X183840818Y-57709924D01*
X183834890Y-57713700D01*
X183829610Y-57718393D01*
X183824951Y-57724029D01*
X183820890Y-57730637D01*
X183817401Y-57738244D01*
X183814458Y-57746879D01*
X183812037Y-57756569D01*
X183810112Y-57767342D01*
X183808659Y-57779226D01*
X183808101Y-57785594D01*
X183807652Y-57792250D01*
X183807308Y-57799197D01*
X183807066Y-57806440D01*
X183806923Y-57813981D01*
X183806877Y-57821825D01*
X183717799Y-57821825D01*
X183717777Y-57820066D01*
X183717872Y-57811755D01*
X183718153Y-57803743D01*
X183718617Y-57796027D01*
X183719258Y-57788600D01*
X183720072Y-57781458D01*
X183721053Y-57774597D01*
X183722198Y-57768010D01*
X183723501Y-57761693D01*
X183724958Y-57755642D01*
X183726564Y-57749850D01*
X183730203Y-57739028D01*
X183734382Y-57729187D01*
X183739063Y-57720287D01*
X183744207Y-57712289D01*
X183749776Y-57705153D01*
X183755734Y-57698838D01*
X183762043Y-57693307D01*
X183768664Y-57688518D01*
X183775559Y-57684432D01*
X183782692Y-57681009D01*
X183790024Y-57678210D01*
X183783496Y-57674930D01*
X183777176Y-57671357D01*
X183771094Y-57667408D01*
X183765278Y-57663004D01*
X183759759Y-57658063D01*
X183754565Y-57652504D01*
X183749727Y-57646247D01*
X183745272Y-57639211D01*
X183741232Y-57631314D01*
X183737635Y-57622476D01*
X183734511Y-57612615D01*
X183731889Y-57601652D01*
X183730775Y-57595731D01*
X183729798Y-57589504D01*
X183728961Y-57582961D01*
X183728268Y-57576091D01*
X183727723Y-57568885D01*
X183727329Y-57561332D01*
X183727090Y-57553423D01*
X183727009Y-57545147D01*
X183727116Y-57536105D01*
X183727437Y-57527309D01*
X183727979Y-57518761D01*
X183728744Y-57510465D01*
X183729737Y-57502422D01*
X183730962Y-57494636D01*
X183732424Y-57487109D01*
X183734126Y-57479845D01*
X183736073Y-57472844D01*
X183738268Y-57466112D01*
X183740717Y-57459649D01*
X183743423Y-57453459D01*
X183746391Y-57447545D01*
X183749624Y-57441909D01*
X183753127Y-57436554D01*
X183756905Y-57431482D01*
X183760960Y-57426697D01*
X183765298Y-57422201D01*
X183769922Y-57417997D01*
X183774837Y-57414087D01*
X183780047Y-57410475D01*
X183785556Y-57407162D01*
X183791369Y-57404152D01*
X183797489Y-57401447D01*
X183803920Y-57399051D01*
X183810668Y-57396965D01*
X183817735Y-57395192D01*
X183825127Y-57393736D01*
X183832848Y-57392599D01*
X183840901Y-57391783D01*
X183849290Y-57391292D01*
X183858021Y-57391127D01*
X184075641Y-57391127D01*
X184075641Y-57982000D01*
G37*
G36*
X183568593Y-57516424D02*
G01*
X183654176Y-57516424D01*
X183654176Y-57982000D01*
X183568593Y-57982000D01*
X183568593Y-57516424D01*
G37*
G36*
X183568593Y-57376180D02*
G01*
X183654176Y-57376180D01*
X183654176Y-57456780D01*
X183568593Y-57456780D01*
X183568593Y-57376180D01*
G37*
G36*
X183283855Y-57513053D02*
G01*
X183400652Y-57513053D01*
X183400652Y-57391127D01*
X183486381Y-57391127D01*
X183486381Y-57869013D01*
X183486304Y-57874997D01*
X183486069Y-57880883D01*
X183485103Y-57892338D01*
X183483443Y-57903329D01*
X183481046Y-57913808D01*
X183477871Y-57923725D01*
X183473877Y-57933034D01*
X183469022Y-57941685D01*
X183463264Y-57949631D01*
X183456561Y-57956823D01*
X183448872Y-57963213D01*
X183440155Y-57968752D01*
X183430369Y-57973392D01*
X183419471Y-57977085D01*
X183413593Y-57978562D01*
X183407421Y-57979783D01*
X183400951Y-57980744D01*
X183394176Y-57981437D01*
X183387093Y-57981858D01*
X183379696Y-57982000D01*
X183307449Y-57982000D01*
X183307449Y-57931734D01*
X183345258Y-57931734D01*
X183353076Y-57931558D01*
X183360176Y-57931005D01*
X183366586Y-57930039D01*
X183372337Y-57928623D01*
X183379789Y-57925573D01*
X183385924Y-57921305D01*
X183390841Y-57915693D01*
X183394640Y-57908615D01*
X183396600Y-57903019D01*
X183398138Y-57896680D01*
X183399282Y-57889560D01*
X183400063Y-57881623D01*
X183400510Y-57872832D01*
X183400652Y-57863151D01*
X183400652Y-57563465D01*
X183283855Y-57563465D01*
X183283855Y-57513053D01*
G37*
G36*
X183232124Y-57982000D02*
G01*
X183013625Y-57982000D01*
X183004651Y-57981837D01*
X182996000Y-57981351D01*
X182987669Y-57980542D01*
X182979657Y-57979411D01*
X182971960Y-57977959D01*
X182964575Y-57976185D01*
X182957502Y-57974092D01*
X182950736Y-57971679D01*
X182944276Y-57968949D01*
X182938118Y-57965900D01*
X182932262Y-57962535D01*
X182926703Y-57958854D01*
X182921439Y-57954858D01*
X182916469Y-57950547D01*
X182911789Y-57945922D01*
X182907397Y-57940985D01*
X182903291Y-57935735D01*
X182899468Y-57930175D01*
X182895925Y-57924303D01*
X182892660Y-57918122D01*
X182889671Y-57911632D01*
X182886955Y-57904833D01*
X182884509Y-57897727D01*
X182882331Y-57890315D01*
X182880419Y-57882596D01*
X182878770Y-57874572D01*
X182877381Y-57866244D01*
X182876251Y-57857613D01*
X182875376Y-57848678D01*
X182874754Y-57839442D01*
X182874383Y-57829905D01*
X182874282Y-57821825D01*
X182963360Y-57821825D01*
X182963445Y-57829335D01*
X182963699Y-57836535D01*
X182964119Y-57843430D01*
X182964701Y-57850025D01*
X182965443Y-57856325D01*
X182966342Y-57862333D01*
X182968596Y-57873496D01*
X182971441Y-57883551D01*
X182974851Y-57892536D01*
X182978803Y-57900488D01*
X182983271Y-57907444D01*
X182988233Y-57913442D01*
X182993663Y-57918519D01*
X182999538Y-57922713D01*
X183005833Y-57926060D01*
X183012523Y-57928599D01*
X183019585Y-57930366D01*
X183026995Y-57931398D01*
X183034727Y-57931734D01*
X183143904Y-57931734D01*
X183143904Y-57441539D01*
X183034727Y-57441539D01*
X183027624Y-57441888D01*
X183020836Y-57442958D01*
X183014383Y-57444784D01*
X183008285Y-57447398D01*
X183002561Y-57450837D01*
X182997231Y-57455132D01*
X182992315Y-57460320D01*
X182987833Y-57466433D01*
X182983804Y-57473507D01*
X182980248Y-57481574D01*
X182977185Y-57490670D01*
X182974634Y-57500828D01*
X182972616Y-57512083D01*
X182971813Y-57518132D01*
X182971150Y-57524468D01*
X182970631Y-57531095D01*
X182970256Y-57538018D01*
X182970030Y-57545241D01*
X182969954Y-57552767D01*
X182969982Y-57559452D01*
X182970070Y-57565879D01*
X182970222Y-57572053D01*
X182970446Y-57577975D01*
X182971128Y-57589076D01*
X182972159Y-57599208D01*
X182973585Y-57608394D01*
X182975449Y-57616657D01*
X182977796Y-57624021D01*
X182980670Y-57630510D01*
X182984117Y-57636146D01*
X182988179Y-57640955D01*
X182992903Y-57644959D01*
X182998331Y-57648182D01*
X183004509Y-57650648D01*
X183011482Y-57652380D01*
X183019292Y-57653402D01*
X183027986Y-57653737D01*
X183107707Y-57653737D01*
X183107707Y-57703416D01*
X183027986Y-57703416D01*
X183019218Y-57703809D01*
X183011198Y-57705006D01*
X183003901Y-57707035D01*
X182997301Y-57709924D01*
X182991373Y-57713700D01*
X182986093Y-57718393D01*
X182981434Y-57724029D01*
X182977373Y-57730637D01*
X182973883Y-57738244D01*
X182970941Y-57746879D01*
X182968520Y-57756569D01*
X182966595Y-57767342D01*
X182965142Y-57779226D01*
X182964584Y-57785594D01*
X182964135Y-57792250D01*
X182963791Y-57799197D01*
X182963549Y-57806440D01*
X182963406Y-57813981D01*
X182963360Y-57821825D01*
X182874282Y-57821825D01*
X182874260Y-57820066D01*
X182874355Y-57811755D01*
X182874636Y-57803743D01*
X182875100Y-57796027D01*
X182875741Y-57788600D01*
X182876555Y-57781458D01*
X182877536Y-57774597D01*
X182878681Y-57768010D01*
X182879984Y-57761693D01*
X182881441Y-57755642D01*
X182883047Y-57749850D01*
X182886686Y-57739028D01*
X182890865Y-57729187D01*
X182895545Y-57720287D01*
X182900689Y-57712289D01*
X182906259Y-57705153D01*
X182912217Y-57698838D01*
X182918526Y-57693307D01*
X182925147Y-57688518D01*
X182932042Y-57684432D01*
X182939175Y-57681009D01*
X182946507Y-57678210D01*
X182939979Y-57674930D01*
X182933659Y-57671357D01*
X182927577Y-57667408D01*
X182921761Y-57663004D01*
X182916242Y-57658063D01*
X182911048Y-57652504D01*
X182906210Y-57646247D01*
X182901755Y-57639211D01*
X182897715Y-57631314D01*
X182894118Y-57622476D01*
X182890994Y-57612615D01*
X182888372Y-57601652D01*
X182887258Y-57595731D01*
X182886281Y-57589504D01*
X182885444Y-57582961D01*
X182884751Y-57576091D01*
X182884206Y-57568885D01*
X182883812Y-57561332D01*
X182883573Y-57553423D01*
X182883492Y-57545147D01*
X182883598Y-57536105D01*
X182883920Y-57527309D01*
X182884461Y-57518761D01*
X182885227Y-57510465D01*
X182886220Y-57502422D01*
X182887445Y-57494636D01*
X182888907Y-57487109D01*
X182890609Y-57479845D01*
X182892556Y-57472844D01*
X182894751Y-57466112D01*
X182897200Y-57459649D01*
X182899906Y-57453459D01*
X182902874Y-57447545D01*
X182906107Y-57441909D01*
X182909610Y-57436554D01*
X182913387Y-57431482D01*
X182917443Y-57426697D01*
X182921780Y-57422201D01*
X182926405Y-57417997D01*
X182931320Y-57414087D01*
X182936530Y-57410475D01*
X182942039Y-57407162D01*
X182947851Y-57404152D01*
X182953971Y-57401447D01*
X182960403Y-57399051D01*
X182967151Y-57396965D01*
X182974218Y-57395192D01*
X182981610Y-57393736D01*
X182989330Y-57392599D01*
X182997383Y-57391783D01*
X183005773Y-57391292D01*
X183014504Y-57391127D01*
X183232124Y-57391127D01*
X183232124Y-57982000D01*
G37*
G36*
X182658691Y-57931734D02*
G01*
X182669322Y-57931553D01*
X182678882Y-57930964D01*
X182687425Y-57929900D01*
X182695005Y-57928293D01*
X182701673Y-57926075D01*
X182707483Y-57923179D01*
X182712488Y-57919538D01*
X182716741Y-57915083D01*
X182720296Y-57909747D01*
X182723204Y-57903463D01*
X182725519Y-57896162D01*
X182727295Y-57887777D01*
X182728584Y-57878241D01*
X182729438Y-57867486D01*
X182729720Y-57861630D01*
X182729913Y-57855445D01*
X182730023Y-57848920D01*
X182730059Y-57842048D01*
X182730059Y-57513053D01*
X182815788Y-57513053D01*
X182815788Y-57838678D01*
X182815710Y-57848308D01*
X182815470Y-57857555D01*
X182815060Y-57866424D01*
X182814470Y-57874920D01*
X182813692Y-57883048D01*
X182812716Y-57890813D01*
X182811534Y-57898221D01*
X182810137Y-57905276D01*
X182808515Y-57911984D01*
X182806661Y-57918349D01*
X182804565Y-57924376D01*
X182802218Y-57930072D01*
X182799611Y-57935440D01*
X182793582Y-57945214D01*
X182786408Y-57953741D01*
X182778016Y-57961060D01*
X182768336Y-57967212D01*
X182762990Y-57969863D01*
X182757296Y-57972237D01*
X182751244Y-57974340D01*
X182744825Y-57976177D01*
X182738031Y-57977752D01*
X182730852Y-57979071D01*
X182723280Y-57980139D01*
X182715305Y-57980960D01*
X182706920Y-57981541D01*
X182698114Y-57981886D01*
X182688879Y-57982000D01*
X182462906Y-57982000D01*
X182462906Y-57513053D01*
X182548635Y-57513053D01*
X182548635Y-57931734D01*
X182658691Y-57931734D01*
G37*
G36*
X182291887Y-57516424D02*
G01*
X182377470Y-57516424D01*
X182377470Y-57982000D01*
X182291887Y-57982000D01*
X182291887Y-57516424D01*
G37*
G36*
X182291887Y-57376180D02*
G01*
X182377470Y-57376180D01*
X182377470Y-57456780D01*
X182291887Y-57456780D01*
X182291887Y-57376180D01*
G37*
G36*
X182120575Y-57372369D02*
G01*
X182206304Y-57372369D01*
X182206304Y-57982000D01*
X182120575Y-57982000D01*
X182120575Y-57372369D01*
G37*
G36*
X181837742Y-57513053D02*
G01*
X181954539Y-57513053D01*
X181954539Y-57391127D01*
X182040268Y-57391127D01*
X182040268Y-57869013D01*
X182040191Y-57874997D01*
X182039955Y-57880883D01*
X182038990Y-57892338D01*
X182037330Y-57903329D01*
X182034933Y-57913808D01*
X182031758Y-57923725D01*
X182027764Y-57933034D01*
X182022909Y-57941685D01*
X182017150Y-57949631D01*
X182010448Y-57956823D01*
X182002759Y-57963213D01*
X181994042Y-57968752D01*
X181984256Y-57973392D01*
X181973358Y-57977085D01*
X181967480Y-57978562D01*
X181961308Y-57979783D01*
X181954838Y-57980744D01*
X181948063Y-57981437D01*
X181940980Y-57981858D01*
X181933583Y-57982000D01*
X181861336Y-57982000D01*
X181861336Y-57931734D01*
X181899145Y-57931734D01*
X181906963Y-57931558D01*
X181914063Y-57931005D01*
X181920473Y-57930039D01*
X181926223Y-57928623D01*
X181933676Y-57925573D01*
X181939811Y-57921305D01*
X181944728Y-57915693D01*
X181948526Y-57908615D01*
X181950487Y-57903019D01*
X181952025Y-57896680D01*
X181953169Y-57889560D01*
X181953950Y-57881623D01*
X181954397Y-57872832D01*
X181954539Y-57863151D01*
X181954539Y-57563465D01*
X181837742Y-57563465D01*
X181837742Y-57513053D01*
G37*
G36*
X181510505Y-57825489D02*
G01*
X181510467Y-57816909D01*
X181510347Y-57808724D01*
X181510136Y-57800924D01*
X181509826Y-57793503D01*
X181509406Y-57786451D01*
X181508868Y-57779761D01*
X181508203Y-57773426D01*
X181507403Y-57767436D01*
X181505358Y-57756463D01*
X181502661Y-57746779D01*
X181499242Y-57738320D01*
X181495026Y-57731022D01*
X181489944Y-57724821D01*
X181483922Y-57719654D01*
X181476890Y-57715457D01*
X181468774Y-57712165D01*
X181459504Y-57709717D01*
X181449006Y-57708046D01*
X181437210Y-57707091D01*
X181430803Y-57706861D01*
X181424043Y-57706787D01*
X181371140Y-57706787D01*
X181363347Y-57706701D01*
X181355874Y-57706433D01*
X181348716Y-57705968D01*
X181341868Y-57705293D01*
X181335325Y-57704393D01*
X181329084Y-57703253D01*
X181323138Y-57701859D01*
X181317484Y-57700197D01*
X181307031Y-57696009D01*
X181297686Y-57690573D01*
X181289411Y-57683775D01*
X181282169Y-57675499D01*
X181275921Y-57665629D01*
X181273158Y-57660061D01*
X181270629Y-57654050D01*
X181268330Y-57647584D01*
X181266256Y-57640647D01*
X181264402Y-57633224D01*
X181262763Y-57625303D01*
X181261335Y-57616867D01*
X181260112Y-57607903D01*
X181259091Y-57598396D01*
X181258266Y-57588333D01*
X181257633Y-57577697D01*
X181257186Y-57566475D01*
X181256922Y-57554653D01*
X181256835Y-57542216D01*
X181256936Y-57531816D01*
X181257245Y-57521851D01*
X181257764Y-57512315D01*
X181258500Y-57503200D01*
X181259457Y-57494500D01*
X181260639Y-57486207D01*
X181262052Y-57478316D01*
X181263699Y-57470818D01*
X181265587Y-57463708D01*
X181267720Y-57456977D01*
X181270102Y-57450620D01*
X181272739Y-57444629D01*
X181275635Y-57438998D01*
X181278794Y-57433719D01*
X181282222Y-57428786D01*
X181285924Y-57424192D01*
X181294167Y-57415992D01*
X181303560Y-57409064D01*
X181308701Y-57406060D01*
X181314143Y-57403353D01*
X181319893Y-57400937D01*
X181325954Y-57398805D01*
X181332331Y-57396949D01*
X181339030Y-57395363D01*
X181346055Y-57394040D01*
X181353410Y-57392973D01*
X181361101Y-57392155D01*
X181369132Y-57391579D01*
X181377508Y-57391239D01*
X181386235Y-57391127D01*
X181572787Y-57391127D01*
X181572787Y-57441539D01*
X181407191Y-57441539D01*
X181398810Y-57441799D01*
X181390978Y-57442620D01*
X181383693Y-57444058D01*
X181376954Y-57446173D01*
X181370761Y-57449024D01*
X181365112Y-57452667D01*
X181360006Y-57457163D01*
X181355442Y-57462568D01*
X181351419Y-57468942D01*
X181347935Y-57476344D01*
X181344991Y-57484830D01*
X181342585Y-57494460D01*
X181340715Y-57505293D01*
X181339981Y-57511178D01*
X181339380Y-57517385D01*
X181338914Y-57523923D01*
X181338581Y-57530797D01*
X181338381Y-57538016D01*
X181338314Y-57545586D01*
X181338342Y-57552795D01*
X181338432Y-57559721D01*
X181338592Y-57566370D01*
X181338827Y-57572743D01*
X181339147Y-57578846D01*
X181340071Y-57590251D01*
X181341421Y-57600613D01*
X181343260Y-57609959D01*
X181345646Y-57618317D01*
X181348641Y-57625715D01*
X181352305Y-57632180D01*
X181356698Y-57637740D01*
X181361881Y-57642424D01*
X181367913Y-57646257D01*
X181374855Y-57649269D01*
X181382768Y-57651486D01*
X181391711Y-57652937D01*
X181401745Y-57653649D01*
X181407191Y-57653737D01*
X181450129Y-57653737D01*
X181460968Y-57653867D01*
X181471292Y-57654259D01*
X181481113Y-57654922D01*
X181490441Y-57655861D01*
X181499287Y-57657084D01*
X181507663Y-57658596D01*
X181515580Y-57660405D01*
X181523049Y-57662516D01*
X181530081Y-57664937D01*
X181536688Y-57667674D01*
X181542881Y-57670734D01*
X181548671Y-57674124D01*
X181554069Y-57677849D01*
X181559086Y-57681917D01*
X181563734Y-57686334D01*
X181568025Y-57691106D01*
X181571968Y-57696241D01*
X181575575Y-57701745D01*
X181578858Y-57707625D01*
X181581828Y-57713887D01*
X181584496Y-57720537D01*
X181586872Y-57727583D01*
X181588970Y-57735031D01*
X181590799Y-57742887D01*
X181592370Y-57751159D01*
X181593696Y-57759852D01*
X181594787Y-57768974D01*
X181595655Y-57778531D01*
X181596310Y-57788529D01*
X181596764Y-57798975D01*
X181597028Y-57809876D01*
X181597114Y-57821239D01*
X181597114Y-57982000D01*
X181266946Y-57982000D01*
X181266946Y-57931734D01*
X181510505Y-57931734D01*
X181510505Y-57825489D01*
G37*
G36*
X181074988Y-57391270D02*
G01*
X181084195Y-57391700D01*
X181092932Y-57392415D01*
X181101210Y-57393418D01*
X181109041Y-57394709D01*
X181116437Y-57396287D01*
X181123407Y-57398153D01*
X181129965Y-57400307D01*
X181136121Y-57402750D01*
X181141887Y-57405482D01*
X181147274Y-57408504D01*
X181152294Y-57411815D01*
X181156957Y-57415417D01*
X181165262Y-57423491D01*
X181172279Y-57432731D01*
X181175334Y-57437788D01*
X181178100Y-57443137D01*
X181180591Y-57448779D01*
X181182817Y-57454714D01*
X181184790Y-57460943D01*
X181186520Y-57467465D01*
X181188020Y-57474280D01*
X181189301Y-57481391D01*
X181190374Y-57488795D01*
X181191250Y-57496495D01*
X181191942Y-57504490D01*
X181192460Y-57512781D01*
X181192816Y-57521368D01*
X181193021Y-57530251D01*
X181193087Y-57539431D01*
X181193087Y-57838092D01*
X181193021Y-57846885D01*
X181192816Y-57855405D01*
X181192460Y-57863652D01*
X181191942Y-57871624D01*
X181191250Y-57879321D01*
X181190374Y-57886744D01*
X181189301Y-57893891D01*
X181188020Y-57900763D01*
X181186520Y-57907358D01*
X181184790Y-57913678D01*
X181182817Y-57919720D01*
X181180591Y-57925485D01*
X181178100Y-57930973D01*
X181175334Y-57936182D01*
X181168926Y-57945766D01*
X181161276Y-57954234D01*
X181152294Y-57961582D01*
X181147274Y-57964836D01*
X181141887Y-57967808D01*
X181136121Y-57970500D01*
X181129965Y-57972909D01*
X181123407Y-57975037D01*
X181116437Y-57976882D01*
X181109041Y-57978444D01*
X181101210Y-57979723D01*
X181092932Y-57980718D01*
X181084195Y-57981430D01*
X181074988Y-57981857D01*
X181065299Y-57982000D01*
X180957881Y-57982000D01*
X180948193Y-57981857D01*
X180938986Y-57981430D01*
X180930249Y-57980718D01*
X180921971Y-57979723D01*
X180914140Y-57978444D01*
X180906744Y-57976882D01*
X180899774Y-57975037D01*
X180893216Y-57972909D01*
X180887060Y-57970500D01*
X180881294Y-57967808D01*
X180875907Y-57964836D01*
X180870887Y-57961582D01*
X180861905Y-57954234D01*
X180854255Y-57945766D01*
X180847847Y-57936182D01*
X180845080Y-57930973D01*
X180842590Y-57925485D01*
X180840364Y-57919720D01*
X180838391Y-57913678D01*
X180836661Y-57907358D01*
X180835161Y-57900763D01*
X180833880Y-57893891D01*
X180832807Y-57886744D01*
X180831930Y-57879321D01*
X180831239Y-57871624D01*
X180830721Y-57863652D01*
X180830365Y-57855405D01*
X180830159Y-57846885D01*
X180830094Y-57838092D01*
X180920073Y-57838092D01*
X180920091Y-57844369D01*
X180920153Y-57850397D01*
X180920439Y-57861722D01*
X180921001Y-57872092D01*
X180921907Y-57881533D01*
X180923226Y-57890071D01*
X180925026Y-57897731D01*
X180927378Y-57904540D01*
X180930349Y-57910522D01*
X180934009Y-57915704D01*
X180938427Y-57920111D01*
X180943671Y-57923770D01*
X180949810Y-57926706D01*
X180956914Y-57928945D01*
X180965050Y-57930512D01*
X180974289Y-57931433D01*
X180984699Y-57931734D01*
X181038482Y-57931734D01*
X181049302Y-57931433D01*
X181058846Y-57930512D01*
X181067192Y-57928945D01*
X181074422Y-57926706D01*
X181080614Y-57923770D01*
X181085849Y-57920111D01*
X181090206Y-57915704D01*
X181093766Y-57910522D01*
X181096608Y-57904540D01*
X181098812Y-57897731D01*
X181100457Y-57890071D01*
X181101625Y-57881533D01*
X181102393Y-57872092D01*
X181102844Y-57861722D01*
X181103055Y-57850397D01*
X181103097Y-57844369D01*
X181103108Y-57838092D01*
X181103108Y-57539431D01*
X181103097Y-57531956D01*
X181103055Y-57524856D01*
X181102974Y-57518123D01*
X181102844Y-57511747D01*
X181102653Y-57505720D01*
X181102054Y-57494674D01*
X181101096Y-57484914D01*
X181099699Y-57476365D01*
X181097784Y-57468956D01*
X181095272Y-57462614D01*
X181092081Y-57457267D01*
X181088132Y-57452841D01*
X181083346Y-57449265D01*
X181077643Y-57446466D01*
X181070942Y-57444372D01*
X181063164Y-57442909D01*
X181054229Y-57442005D01*
X181044056Y-57441588D01*
X181038482Y-57441539D01*
X180984699Y-57441539D01*
X180974289Y-57441740D01*
X180965050Y-57442391D01*
X180956914Y-57443566D01*
X180949810Y-57445335D01*
X180943671Y-57447773D01*
X180938427Y-57450952D01*
X180934009Y-57454943D01*
X180930349Y-57459821D01*
X180927378Y-57465656D01*
X180925026Y-57472522D01*
X180923226Y-57480492D01*
X180921907Y-57489638D01*
X180921001Y-57500032D01*
X180920439Y-57511747D01*
X180920266Y-57518123D01*
X180920153Y-57524856D01*
X180920091Y-57531956D01*
X180920073Y-57539431D01*
X180920073Y-57838092D01*
X180830094Y-57838092D01*
X180830094Y-57539431D01*
X180830159Y-57530251D01*
X180830365Y-57521368D01*
X180830721Y-57512781D01*
X180831239Y-57504490D01*
X180831930Y-57496495D01*
X180832807Y-57488795D01*
X180833880Y-57481391D01*
X180835161Y-57474280D01*
X180836661Y-57467465D01*
X180838391Y-57460943D01*
X180840364Y-57454714D01*
X180842590Y-57448779D01*
X180845080Y-57443137D01*
X180847847Y-57437788D01*
X180850902Y-57432731D01*
X180857919Y-57423491D01*
X180866224Y-57415417D01*
X180870887Y-57411815D01*
X180875907Y-57408504D01*
X180881294Y-57405482D01*
X180887060Y-57402750D01*
X180893216Y-57400307D01*
X180899774Y-57398153D01*
X180906744Y-57396287D01*
X180914140Y-57394709D01*
X180921971Y-57393418D01*
X180930249Y-57392415D01*
X180938986Y-57391700D01*
X180948193Y-57391270D01*
X180957881Y-57391127D01*
X181065299Y-57391127D01*
X181074988Y-57391270D01*
G37*
G36*
X180675781Y-57825489D02*
G01*
X180675743Y-57816909D01*
X180675623Y-57808724D01*
X180675412Y-57800924D01*
X180675101Y-57793503D01*
X180674681Y-57786451D01*
X180674144Y-57779761D01*
X180673479Y-57773426D01*
X180672678Y-57767436D01*
X180670633Y-57756463D01*
X180667937Y-57746779D01*
X180664517Y-57738320D01*
X180660302Y-57731022D01*
X180655220Y-57724821D01*
X180649198Y-57719654D01*
X180642165Y-57715457D01*
X180634050Y-57712165D01*
X180624779Y-57709717D01*
X180614282Y-57708046D01*
X180602486Y-57707091D01*
X180596078Y-57706861D01*
X180589319Y-57706787D01*
X180536416Y-57706787D01*
X180528623Y-57706701D01*
X180521149Y-57706433D01*
X180513991Y-57705968D01*
X180507143Y-57705293D01*
X180500601Y-57704393D01*
X180494359Y-57703253D01*
X180488414Y-57701859D01*
X180482760Y-57700197D01*
X180472306Y-57696009D01*
X180462961Y-57690573D01*
X180454687Y-57683775D01*
X180447444Y-57675499D01*
X180441196Y-57665629D01*
X180438433Y-57660061D01*
X180435905Y-57654050D01*
X180433606Y-57647584D01*
X180431532Y-57640647D01*
X180429677Y-57633224D01*
X180428039Y-57625303D01*
X180426610Y-57616867D01*
X180425388Y-57607903D01*
X180424367Y-57598396D01*
X180423542Y-57588333D01*
X180422908Y-57577697D01*
X180422462Y-57566475D01*
X180422197Y-57554653D01*
X180422110Y-57542216D01*
X180422212Y-57531816D01*
X180422520Y-57521851D01*
X180423040Y-57512315D01*
X180423776Y-57503200D01*
X180424732Y-57494500D01*
X180425914Y-57486207D01*
X180427327Y-57478316D01*
X180428975Y-57470818D01*
X180430863Y-57463708D01*
X180432996Y-57456977D01*
X180435378Y-57450620D01*
X180438015Y-57444629D01*
X180440910Y-57438998D01*
X180444070Y-57433719D01*
X180447498Y-57428786D01*
X180451200Y-57424192D01*
X180459442Y-57415992D01*
X180468836Y-57409064D01*
X180473977Y-57406060D01*
X180479419Y-57403353D01*
X180485169Y-57400937D01*
X180491230Y-57398805D01*
X180497607Y-57396949D01*
X180504306Y-57395363D01*
X180511330Y-57394040D01*
X180518686Y-57392973D01*
X180526377Y-57392155D01*
X180534408Y-57391579D01*
X180542784Y-57391239D01*
X180551510Y-57391127D01*
X180738063Y-57391127D01*
X180738063Y-57441539D01*
X180572466Y-57441539D01*
X180564086Y-57441799D01*
X180556253Y-57442620D01*
X180548968Y-57444058D01*
X180542230Y-57446173D01*
X180536036Y-57449024D01*
X180530387Y-57452667D01*
X180525281Y-57457163D01*
X180520717Y-57462568D01*
X180516694Y-57468942D01*
X180513211Y-57476344D01*
X180510267Y-57484830D01*
X180507860Y-57494460D01*
X180505990Y-57505293D01*
X180505256Y-57511178D01*
X180504656Y-57517385D01*
X180504189Y-57523923D01*
X180503856Y-57530797D01*
X180503656Y-57538016D01*
X180503590Y-57545586D01*
X180503618Y-57552795D01*
X180503708Y-57559721D01*
X180503867Y-57566370D01*
X180504103Y-57572743D01*
X180504423Y-57578846D01*
X180505346Y-57590251D01*
X180506697Y-57600613D01*
X180508535Y-57609959D01*
X180510922Y-57618317D01*
X180513917Y-57625715D01*
X180517581Y-57632180D01*
X180521974Y-57637740D01*
X180527156Y-57642424D01*
X180533188Y-57646257D01*
X180540131Y-57649269D01*
X180548043Y-57651486D01*
X180556987Y-57652937D01*
X180567021Y-57653649D01*
X180572466Y-57653737D01*
X180615404Y-57653737D01*
X180626244Y-57653867D01*
X180636568Y-57654259D01*
X180646389Y-57654922D01*
X180655716Y-57655861D01*
X180664562Y-57657084D01*
X180672938Y-57658596D01*
X180680855Y-57660405D01*
X180688324Y-57662516D01*
X180695357Y-57664937D01*
X180701964Y-57667674D01*
X180708157Y-57670734D01*
X180713946Y-57674124D01*
X180719344Y-57677849D01*
X180724362Y-57681917D01*
X180729010Y-57686334D01*
X180733300Y-57691106D01*
X180737243Y-57696241D01*
X180740851Y-57701745D01*
X180744134Y-57707625D01*
X180747104Y-57713887D01*
X180749771Y-57720537D01*
X180752148Y-57727583D01*
X180754245Y-57735031D01*
X180756074Y-57742887D01*
X180757646Y-57751159D01*
X180758972Y-57759852D01*
X180760063Y-57768974D01*
X180760930Y-57778531D01*
X180761586Y-57788529D01*
X180762040Y-57798975D01*
X180762304Y-57809876D01*
X180762390Y-57821239D01*
X180762390Y-57982000D01*
X180432222Y-57982000D01*
X180432222Y-57931734D01*
X180675781Y-57931734D01*
X180675781Y-57825489D01*
G37*
G36*
X180151734Y-57814937D02*
G01*
X180151819Y-57823073D01*
X180152073Y-57830860D01*
X180152493Y-57838304D01*
X180153075Y-57845411D01*
X180153817Y-57852188D01*
X180154716Y-57858639D01*
X180155768Y-57864771D01*
X180156970Y-57870590D01*
X180159815Y-57881313D01*
X180163225Y-57890855D01*
X180167177Y-57899262D01*
X180171645Y-57906583D01*
X180176607Y-57912866D01*
X180182037Y-57918156D01*
X180187912Y-57922503D01*
X180194207Y-57925953D01*
X180200897Y-57928553D01*
X180207959Y-57930352D01*
X180215369Y-57931397D01*
X180223101Y-57931734D01*
X180370087Y-57931734D01*
X180370087Y-57982000D01*
X180202145Y-57982000D01*
X180193171Y-57981837D01*
X180184519Y-57981351D01*
X180176186Y-57980542D01*
X180168171Y-57979411D01*
X180160471Y-57977959D01*
X180153082Y-57976185D01*
X180146004Y-57974092D01*
X180139234Y-57971679D01*
X180132768Y-57968949D01*
X180126605Y-57965900D01*
X180120742Y-57962535D01*
X180115177Y-57958854D01*
X180109907Y-57954858D01*
X180104930Y-57950547D01*
X180100243Y-57945922D01*
X180095845Y-57940985D01*
X180091731Y-57935735D01*
X180087901Y-57930175D01*
X180084352Y-57924303D01*
X180081080Y-57918122D01*
X180078085Y-57911632D01*
X180075363Y-57904833D01*
X180072911Y-57897727D01*
X180070728Y-57890315D01*
X180068811Y-57882596D01*
X180067158Y-57874572D01*
X180065765Y-57866244D01*
X180064631Y-57857613D01*
X180063754Y-57848678D01*
X180063130Y-57839442D01*
X180062757Y-57829905D01*
X180062634Y-57820066D01*
X180062729Y-57811755D01*
X180063010Y-57803743D01*
X180063474Y-57796027D01*
X180064115Y-57788600D01*
X180064929Y-57781458D01*
X180065910Y-57774597D01*
X180067055Y-57768010D01*
X180068358Y-57761693D01*
X180069815Y-57755642D01*
X180071421Y-57749850D01*
X180075060Y-57739028D01*
X180079239Y-57729187D01*
X180083920Y-57720287D01*
X180089063Y-57712289D01*
X180094633Y-57705153D01*
X180100591Y-57698838D01*
X180106900Y-57693307D01*
X180113521Y-57688518D01*
X180120416Y-57684432D01*
X180127549Y-57681009D01*
X180134881Y-57678210D01*
X180128353Y-57674930D01*
X180122033Y-57671357D01*
X180115951Y-57667408D01*
X180110135Y-57663004D01*
X180104616Y-57658063D01*
X180099422Y-57652504D01*
X180094584Y-57646247D01*
X180090129Y-57639211D01*
X180086089Y-57631314D01*
X180082492Y-57622476D01*
X180079368Y-57612615D01*
X180076746Y-57601652D01*
X180075632Y-57595731D01*
X180074655Y-57589504D01*
X180073818Y-57582961D01*
X180073125Y-57576091D01*
X180072580Y-57568885D01*
X180072186Y-57561332D01*
X180071947Y-57553423D01*
X180071866Y-57545147D01*
X180071972Y-57536105D01*
X180072294Y-57527309D01*
X180072836Y-57518761D01*
X180073601Y-57510465D01*
X180074594Y-57502422D01*
X180075819Y-57494636D01*
X180077281Y-57487109D01*
X180078983Y-57479845D01*
X180080930Y-57472844D01*
X180083125Y-57466112D01*
X180085574Y-57459649D01*
X180088280Y-57453459D01*
X180091248Y-57447545D01*
X180094481Y-57441909D01*
X180097984Y-57436554D01*
X180101761Y-57431482D01*
X180105817Y-57426697D01*
X180110154Y-57422201D01*
X180114779Y-57417997D01*
X180119694Y-57414087D01*
X180124904Y-57410475D01*
X180130413Y-57407162D01*
X180136225Y-57404152D01*
X180142345Y-57401447D01*
X180148777Y-57399051D01*
X180155525Y-57396965D01*
X180162592Y-57395192D01*
X180169984Y-57393736D01*
X180177705Y-57392599D01*
X180185757Y-57391783D01*
X180194147Y-57391292D01*
X180202878Y-57391127D01*
X180368475Y-57391127D01*
X180368475Y-57441539D01*
X180223101Y-57441539D01*
X180216143Y-57441756D01*
X180209463Y-57442451D01*
X180203084Y-57443690D01*
X180197030Y-57445539D01*
X180191325Y-57448064D01*
X180185991Y-57451330D01*
X180181054Y-57455404D01*
X180176536Y-57460352D01*
X180172462Y-57466239D01*
X180168854Y-57473131D01*
X180165736Y-57481094D01*
X180163132Y-57490194D01*
X180161066Y-57500498D01*
X180159561Y-57512070D01*
X180159026Y-57518353D01*
X180158640Y-57524977D01*
X180158407Y-57531952D01*
X180158328Y-57539285D01*
X180158356Y-57547195D01*
X180158444Y-57554770D01*
X180158597Y-57562018D01*
X180158820Y-57568943D01*
X180159120Y-57575550D01*
X180159502Y-57581845D01*
X180159971Y-57587833D01*
X180161194Y-57598912D01*
X180162833Y-57608829D01*
X180164933Y-57617628D01*
X180167538Y-57625352D01*
X180170693Y-57632044D01*
X180174442Y-57637749D01*
X180178830Y-57642508D01*
X180183900Y-57646367D01*
X180189698Y-57649367D01*
X180196268Y-57651553D01*
X180203654Y-57652967D01*
X180211900Y-57653653D01*
X180216360Y-57653737D01*
X180296228Y-57653737D01*
X180296228Y-57703416D01*
X180216360Y-57703416D01*
X180207592Y-57703686D01*
X180199572Y-57704542D01*
X180192275Y-57706047D01*
X180185675Y-57708270D01*
X180179747Y-57711276D01*
X180174467Y-57715132D01*
X180169808Y-57719902D01*
X180165747Y-57725654D01*
X180162257Y-57732454D01*
X180159315Y-57740367D01*
X180156894Y-57749461D01*
X180154969Y-57759800D01*
X180153516Y-57771451D01*
X180152958Y-57777789D01*
X180152509Y-57784480D01*
X180152165Y-57791532D01*
X180151923Y-57798953D01*
X180151780Y-57806752D01*
X180151734Y-57814937D01*
G37*
G36*
X185898523Y-58813558D02*
G01*
X185898639Y-58801308D01*
X185898988Y-58789660D01*
X185899572Y-58778602D01*
X185900394Y-58768119D01*
X185901456Y-58758197D01*
X185902760Y-58748822D01*
X185904308Y-58739981D01*
X185906102Y-58731658D01*
X185908145Y-58723840D01*
X185910439Y-58716513D01*
X185912985Y-58709662D01*
X185915787Y-58703275D01*
X185918846Y-58697336D01*
X185922165Y-58691832D01*
X185925746Y-58686748D01*
X185929591Y-58682070D01*
X185933701Y-58677785D01*
X185938081Y-58673879D01*
X185947653Y-58667144D01*
X185952850Y-58664289D01*
X185958325Y-58661755D01*
X185964079Y-58659529D01*
X185970115Y-58657597D01*
X185976435Y-58655945D01*
X185983040Y-58654559D01*
X185989934Y-58653425D01*
X185997118Y-58652529D01*
X186004594Y-58651856D01*
X186012366Y-58651393D01*
X186020434Y-58651125D01*
X186028802Y-58651039D01*
X186088446Y-58651039D01*
X186099049Y-58650809D01*
X186108530Y-58650078D01*
X186116951Y-58648785D01*
X186124370Y-58646867D01*
X186130850Y-58644265D01*
X186136450Y-58640916D01*
X186141230Y-58636758D01*
X186145251Y-58631732D01*
X186148573Y-58625775D01*
X186151256Y-58618825D01*
X186153361Y-58610822D01*
X186154948Y-58601704D01*
X186156077Y-58591409D01*
X186156809Y-58579877D01*
X186157045Y-58573628D01*
X186157204Y-58567046D01*
X186157294Y-58560124D01*
X186157323Y-58552854D01*
X186157256Y-58545350D01*
X186157056Y-58538194D01*
X186156723Y-58531378D01*
X186156256Y-58524895D01*
X186155656Y-58518738D01*
X186154922Y-58512900D01*
X186153052Y-58502151D01*
X186150646Y-58492592D01*
X186147701Y-58484165D01*
X186144218Y-58476812D01*
X186140195Y-58470477D01*
X186135631Y-58465101D01*
X186130525Y-58460629D01*
X186124876Y-58457001D01*
X186118683Y-58454162D01*
X186111944Y-58452053D01*
X186104659Y-58450618D01*
X186096827Y-58449799D01*
X186088446Y-58449539D01*
X185945564Y-58449539D01*
X185945564Y-58399127D01*
X186109402Y-58399127D01*
X186118128Y-58399304D01*
X186126505Y-58399834D01*
X186134536Y-58400713D01*
X186142227Y-58401939D01*
X186149582Y-58403509D01*
X186156607Y-58405419D01*
X186163305Y-58407666D01*
X186169683Y-58410249D01*
X186175744Y-58413163D01*
X186181493Y-58416405D01*
X186186936Y-58419973D01*
X186192076Y-58423865D01*
X186196919Y-58428075D01*
X186201470Y-58432603D01*
X186205733Y-58437444D01*
X186209713Y-58442596D01*
X186213414Y-58448056D01*
X186216843Y-58453821D01*
X186220002Y-58459888D01*
X186222898Y-58466253D01*
X186225534Y-58472915D01*
X186227917Y-58479869D01*
X186230049Y-58487114D01*
X186231937Y-58494645D01*
X186233585Y-58502461D01*
X186234998Y-58510557D01*
X186236180Y-58518932D01*
X186237137Y-58527581D01*
X186237872Y-58536503D01*
X186238392Y-58545693D01*
X186238700Y-58555150D01*
X186238802Y-58564870D01*
X186238715Y-58576025D01*
X186238450Y-58586716D01*
X186238004Y-58596950D01*
X186237371Y-58606734D01*
X186236546Y-58616075D01*
X186235524Y-58624981D01*
X186234302Y-58633459D01*
X186232874Y-58641516D01*
X186231235Y-58649160D01*
X186229381Y-58656397D01*
X186227307Y-58663234D01*
X186225008Y-58669680D01*
X186222479Y-58675741D01*
X186219716Y-58681424D01*
X186216714Y-58686737D01*
X186213468Y-58691687D01*
X186206226Y-58700527D01*
X186197951Y-58708000D01*
X186188606Y-58714165D01*
X186178153Y-58719080D01*
X186172499Y-58721087D01*
X186166553Y-58722802D01*
X186160312Y-58724234D01*
X186153769Y-58725389D01*
X186146921Y-58726275D01*
X186139763Y-58726899D01*
X186132290Y-58727268D01*
X186124496Y-58727390D01*
X186060602Y-58727390D01*
X186054466Y-58727435D01*
X186043107Y-58727832D01*
X186032916Y-58728699D01*
X186023836Y-58730115D01*
X186015806Y-58732158D01*
X186008770Y-58734907D01*
X186002666Y-58738439D01*
X185997438Y-58742834D01*
X185993025Y-58748167D01*
X185989370Y-58754519D01*
X185986413Y-58761967D01*
X185984095Y-58770589D01*
X185982358Y-58780464D01*
X185981143Y-58791669D01*
X185980713Y-58797794D01*
X185980391Y-58804282D01*
X185980170Y-58811142D01*
X185980043Y-58818383D01*
X185980002Y-58826015D01*
X185980074Y-58834722D01*
X185980287Y-58842989D01*
X185980643Y-58850829D01*
X185981141Y-58858250D01*
X185981781Y-58865264D01*
X185982563Y-58871881D01*
X185983487Y-58878113D01*
X185984552Y-58883969D01*
X185987107Y-58894599D01*
X185990226Y-58903856D01*
X185993910Y-58911827D01*
X185998156Y-58918595D01*
X186002963Y-58924247D01*
X186008331Y-58928869D01*
X186014259Y-58932545D01*
X186020744Y-58935361D01*
X186027787Y-58937402D01*
X186035387Y-58938755D01*
X186043541Y-58939504D01*
X186052249Y-58939734D01*
X186223561Y-58939734D01*
X186223561Y-58990000D01*
X186035397Y-58990000D01*
X186026288Y-58989835D01*
X186017534Y-58989340D01*
X186009130Y-58988513D01*
X186001073Y-58987353D01*
X185993357Y-58985858D01*
X185985979Y-58984027D01*
X185978933Y-58981858D01*
X185972217Y-58979350D01*
X185965825Y-58976501D01*
X185959754Y-58973310D01*
X185953998Y-58969776D01*
X185948554Y-58965896D01*
X185943418Y-58961670D01*
X185938585Y-58957095D01*
X185934050Y-58952172D01*
X185929810Y-58946897D01*
X185925861Y-58941269D01*
X185922197Y-58935288D01*
X185918815Y-58928951D01*
X185915710Y-58922258D01*
X185912878Y-58915206D01*
X185910315Y-58907794D01*
X185908017Y-58900021D01*
X185905978Y-58891885D01*
X185904196Y-58883385D01*
X185902665Y-58874519D01*
X185901382Y-58865285D01*
X185900341Y-58855683D01*
X185899539Y-58845711D01*
X185898972Y-58835367D01*
X185898634Y-58824650D01*
X185898523Y-58813558D01*
G37*
G36*
X185680170Y-58939734D02*
G01*
X185690800Y-58939553D01*
X185700361Y-58938964D01*
X185708904Y-58937900D01*
X185716483Y-58936293D01*
X185723152Y-58934075D01*
X185728962Y-58931179D01*
X185733967Y-58927538D01*
X185738220Y-58923083D01*
X185741774Y-58917747D01*
X185744683Y-58911463D01*
X185746998Y-58904162D01*
X185748774Y-58895777D01*
X185750062Y-58886241D01*
X185750917Y-58875486D01*
X185751199Y-58869630D01*
X185751391Y-58863445D01*
X185751502Y-58856920D01*
X185751538Y-58850048D01*
X185751538Y-58521053D01*
X185837267Y-58521053D01*
X185837267Y-58846678D01*
X185837189Y-58856308D01*
X185836949Y-58865555D01*
X185836539Y-58874424D01*
X185835949Y-58882920D01*
X185835171Y-58891048D01*
X185834195Y-58898813D01*
X185833013Y-58906221D01*
X185831616Y-58913276D01*
X185829994Y-58919984D01*
X185828140Y-58926349D01*
X185826044Y-58932376D01*
X185823696Y-58938072D01*
X185821090Y-58943440D01*
X185815061Y-58953214D01*
X185807886Y-58961741D01*
X185799495Y-58969060D01*
X185789814Y-58975212D01*
X185784469Y-58977863D01*
X185778775Y-58980237D01*
X185772723Y-58982340D01*
X185766304Y-58984177D01*
X185759510Y-58985752D01*
X185752331Y-58987071D01*
X185744759Y-58988139D01*
X185736784Y-58988960D01*
X185728399Y-58989541D01*
X185719593Y-58989886D01*
X185710358Y-58990000D01*
X185484385Y-58990000D01*
X185484385Y-58521053D01*
X185570114Y-58521053D01*
X185570114Y-58939734D01*
X185680170Y-58939734D01*
G37*
G36*
X184988181Y-58571465D02*
G01*
X184977550Y-58571646D01*
X184967990Y-58572235D01*
X184959447Y-58573299D01*
X184951867Y-58574906D01*
X184945199Y-58577124D01*
X184939389Y-58580020D01*
X184934384Y-58583661D01*
X184930131Y-58588116D01*
X184926576Y-58593452D01*
X184923668Y-58599737D01*
X184921352Y-58607037D01*
X184919577Y-58615422D01*
X184918288Y-58624958D01*
X184917433Y-58635713D01*
X184917152Y-58641569D01*
X184916959Y-58647755D01*
X184916849Y-58654279D01*
X184916813Y-58661151D01*
X184916813Y-58990000D01*
X184831084Y-58990000D01*
X184831084Y-58664521D01*
X184831162Y-58654891D01*
X184831402Y-58645643D01*
X184831812Y-58636772D01*
X184832402Y-58628273D01*
X184833180Y-58620142D01*
X184834156Y-58612373D01*
X184835338Y-58604960D01*
X184836735Y-58597900D01*
X184838356Y-58591188D01*
X184840211Y-58584817D01*
X184842307Y-58578783D01*
X184844654Y-58573081D01*
X184847261Y-58567707D01*
X184853290Y-58557918D01*
X184860464Y-58549378D01*
X184868856Y-58542046D01*
X184878536Y-58535881D01*
X184883882Y-58533224D01*
X184889576Y-58530844D01*
X184895628Y-58528735D01*
X184902047Y-58526894D01*
X184908841Y-58525314D01*
X184916020Y-58523991D01*
X184923592Y-58522920D01*
X184931566Y-58522096D01*
X184939952Y-58521513D01*
X184948758Y-58521167D01*
X184957993Y-58521053D01*
X185400707Y-58521053D01*
X185400707Y-58990000D01*
X185314978Y-58990000D01*
X185314978Y-58571465D01*
X185158760Y-58571465D01*
X185158760Y-58990000D01*
X185073031Y-58990000D01*
X185073031Y-58571465D01*
X184988181Y-58571465D01*
G37*
G36*
X184338104Y-58571465D02*
G01*
X184327474Y-58571646D01*
X184317913Y-58572235D01*
X184309370Y-58573299D01*
X184301791Y-58574906D01*
X184295122Y-58577124D01*
X184289312Y-58580020D01*
X184284307Y-58583661D01*
X184280054Y-58588116D01*
X184276499Y-58593452D01*
X184273591Y-58599737D01*
X184271276Y-58607037D01*
X184269500Y-58615422D01*
X184268211Y-58624958D01*
X184267357Y-58635713D01*
X184267075Y-58641569D01*
X184266883Y-58647755D01*
X184266772Y-58654279D01*
X184266736Y-58661151D01*
X184266736Y-58990000D01*
X184181007Y-58990000D01*
X184181007Y-58664521D01*
X184181085Y-58654891D01*
X184181325Y-58645643D01*
X184181735Y-58636772D01*
X184182325Y-58628273D01*
X184183103Y-58620142D01*
X184184079Y-58612373D01*
X184185261Y-58604960D01*
X184186658Y-58597900D01*
X184188280Y-58591188D01*
X184190134Y-58584817D01*
X184192230Y-58578783D01*
X184194578Y-58573081D01*
X184197184Y-58567707D01*
X184203213Y-58557918D01*
X184210388Y-58549378D01*
X184218779Y-58542046D01*
X184228459Y-58535881D01*
X184233805Y-58533224D01*
X184239499Y-58530844D01*
X184245551Y-58528735D01*
X184251970Y-58526894D01*
X184258764Y-58525314D01*
X184265943Y-58523991D01*
X184273515Y-58522920D01*
X184281490Y-58522096D01*
X184289875Y-58521513D01*
X184298681Y-58521167D01*
X184307916Y-58521053D01*
X184750630Y-58521053D01*
X184750630Y-58990000D01*
X184664901Y-58990000D01*
X184664901Y-58571465D01*
X184508683Y-58571465D01*
X184508683Y-58990000D01*
X184422954Y-58990000D01*
X184422954Y-58571465D01*
X184338104Y-58571465D01*
G37*
G36*
X183884692Y-58793042D02*
G01*
X183875457Y-58792929D01*
X183866651Y-58792592D01*
X183858266Y-58792030D01*
X183850291Y-58791246D01*
X183842719Y-58790240D01*
X183835540Y-58789013D01*
X183828746Y-58787566D01*
X183822327Y-58785900D01*
X183816275Y-58784017D01*
X183810581Y-58781916D01*
X183800230Y-58777068D01*
X183791203Y-58771365D01*
X183783429Y-58764814D01*
X183776836Y-58757423D01*
X183771354Y-58749200D01*
X183766910Y-58740153D01*
X183763434Y-58730291D01*
X183760855Y-58719620D01*
X183759101Y-58708149D01*
X183758511Y-58702117D01*
X183758101Y-58695887D01*
X183757861Y-58689461D01*
X183757783Y-58682840D01*
X183757783Y-58631402D01*
X183757861Y-58624781D01*
X183758101Y-58618354D01*
X183758511Y-58612122D01*
X183759101Y-58606086D01*
X183759879Y-58600248D01*
X183762037Y-58589168D01*
X183765056Y-58578890D01*
X183769006Y-58569423D01*
X183773960Y-58560774D01*
X183779989Y-58552953D01*
X183787164Y-58545967D01*
X183795555Y-58539825D01*
X183805235Y-58534536D01*
X183816275Y-58530107D01*
X183822327Y-58528218D01*
X183828746Y-58526547D01*
X183835540Y-58525096D01*
X183842719Y-58523865D01*
X183850291Y-58522856D01*
X183858266Y-58522069D01*
X183866651Y-58521505D01*
X183875457Y-58521166D01*
X183884692Y-58521053D01*
X183980386Y-58521053D01*
X183989621Y-58521167D01*
X183998427Y-58521513D01*
X184006812Y-58522096D01*
X184014787Y-58522920D01*
X184022359Y-58523990D01*
X184029537Y-58525312D01*
X184036332Y-58526891D01*
X184042750Y-58528731D01*
X184048803Y-58530837D01*
X184054497Y-58533215D01*
X184059842Y-58535869D01*
X184069523Y-58542026D01*
X184077914Y-58549348D01*
X184085089Y-58557874D01*
X184091117Y-58567645D01*
X184093724Y-58573010D01*
X184096071Y-58578700D01*
X184098168Y-58584721D01*
X184100022Y-58591079D01*
X184101644Y-58597777D01*
X184103041Y-58604821D01*
X184104223Y-58612215D01*
X184105199Y-58619966D01*
X184105977Y-58628077D01*
X184106567Y-58636554D01*
X184106977Y-58645402D01*
X184107217Y-58654625D01*
X184107295Y-58664228D01*
X184107295Y-58845945D01*
X184107217Y-58855642D01*
X184106977Y-58864951D01*
X184106567Y-58873878D01*
X184105977Y-58882429D01*
X184105199Y-58890608D01*
X184104223Y-58898420D01*
X184103041Y-58905871D01*
X184101644Y-58912967D01*
X184100022Y-58919711D01*
X184098168Y-58926111D01*
X184096071Y-58932169D01*
X184093724Y-58937893D01*
X184091117Y-58943286D01*
X184085089Y-58953105D01*
X184077914Y-58961666D01*
X184069523Y-58969011D01*
X184059842Y-58975182D01*
X184054497Y-58977840D01*
X184048803Y-58980221D01*
X184042750Y-58982329D01*
X184036332Y-58984169D01*
X184029537Y-58985747D01*
X184022359Y-58987068D01*
X184014787Y-58988137D01*
X184006812Y-58988960D01*
X183998427Y-58989541D01*
X183989621Y-58989886D01*
X183980386Y-58990000D01*
X183791342Y-58990000D01*
X183791342Y-58939734D01*
X183950198Y-58939734D01*
X183960828Y-58939553D01*
X183970389Y-58938963D01*
X183978932Y-58937895D01*
X183986511Y-58936281D01*
X183993179Y-58934053D01*
X183998990Y-58931141D01*
X184003995Y-58927477D01*
X184008248Y-58922991D01*
X184011802Y-58917617D01*
X184014711Y-58911284D01*
X184017026Y-58903924D01*
X184018802Y-58895468D01*
X184020090Y-58885848D01*
X184020945Y-58874995D01*
X184021227Y-58869085D01*
X184021419Y-58862841D01*
X184021530Y-58856254D01*
X184021565Y-58849316D01*
X184021565Y-58660858D01*
X184021530Y-58654000D01*
X184021419Y-58647489D01*
X184021227Y-58641317D01*
X184020569Y-58629954D01*
X184019504Y-58619843D01*
X184017978Y-58610917D01*
X184015939Y-58603108D01*
X184013334Y-58596347D01*
X184010109Y-58590568D01*
X184006212Y-58585701D01*
X184001590Y-58581680D01*
X183996189Y-58578437D01*
X183989956Y-58575903D01*
X183982839Y-58574011D01*
X183974784Y-58572693D01*
X183965739Y-58571882D01*
X183955650Y-58571508D01*
X183950198Y-58571465D01*
X183914880Y-58571465D01*
X183904250Y-58571639D01*
X183894689Y-58572181D01*
X183886146Y-58573125D01*
X183878567Y-58574501D01*
X183871898Y-58576343D01*
X183866088Y-58578683D01*
X183858866Y-58583196D01*
X183853275Y-58589009D01*
X183849139Y-58596232D01*
X183847100Y-58601884D01*
X183845574Y-58608243D01*
X183844509Y-58615341D01*
X183843851Y-58623211D01*
X183843548Y-58631883D01*
X183843512Y-58636531D01*
X183843512Y-58681960D01*
X183843659Y-58690317D01*
X183844133Y-58697981D01*
X183844987Y-58704972D01*
X183846276Y-58711313D01*
X183848052Y-58717025D01*
X183851744Y-58724458D01*
X183856830Y-58730595D01*
X183863488Y-58735507D01*
X183868889Y-58738137D01*
X183875122Y-58740276D01*
X183882239Y-58741944D01*
X183890294Y-58743164D01*
X183899339Y-58743956D01*
X183909428Y-58744342D01*
X183914880Y-58744389D01*
X183962801Y-58744389D01*
X183962801Y-58793042D01*
X183884692Y-58793042D01*
G37*
G36*
X183697699Y-58664521D02*
G01*
X183697699Y-58990000D01*
X183611970Y-58990000D01*
X183611970Y-58661151D01*
X183611935Y-58654279D01*
X183611824Y-58647755D01*
X183611631Y-58641569D01*
X183611350Y-58635713D01*
X183610495Y-58624958D01*
X183609206Y-58615422D01*
X183607431Y-58607037D01*
X183605115Y-58599737D01*
X183602207Y-58593452D01*
X183598653Y-58588116D01*
X183594400Y-58583661D01*
X183589394Y-58580020D01*
X183583584Y-58577124D01*
X183576916Y-58574906D01*
X183569337Y-58573299D01*
X183560793Y-58572235D01*
X183551233Y-58571646D01*
X183540602Y-58571465D01*
X183483450Y-58571465D01*
X183483450Y-58521053D01*
X183570791Y-58521053D01*
X183580026Y-58521167D01*
X183588831Y-58521513D01*
X183597217Y-58522096D01*
X183605191Y-58522920D01*
X183612763Y-58523991D01*
X183619942Y-58525314D01*
X183626736Y-58526894D01*
X183633155Y-58528735D01*
X183639207Y-58530844D01*
X183644902Y-58533224D01*
X183650247Y-58535881D01*
X183659927Y-58542046D01*
X183668319Y-58549378D01*
X183675494Y-58557918D01*
X183681522Y-58567707D01*
X183684129Y-58573081D01*
X183686476Y-58578783D01*
X183688573Y-58584817D01*
X183690427Y-58591188D01*
X183692048Y-58597900D01*
X183693446Y-58604960D01*
X183694628Y-58612373D01*
X183695603Y-58620142D01*
X183696382Y-58628273D01*
X183696972Y-58636772D01*
X183697382Y-58645643D01*
X183697622Y-58654891D01*
X183697699Y-58664521D01*
G37*
G36*
X183225383Y-58990000D02*
G01*
X183006883Y-58990000D01*
X182997909Y-58989837D01*
X182989258Y-58989351D01*
X182980928Y-58988542D01*
X182972915Y-58987411D01*
X182965218Y-58985959D01*
X182957834Y-58984185D01*
X182950760Y-58982092D01*
X182943994Y-58979679D01*
X182937534Y-58976949D01*
X182931377Y-58973900D01*
X182925520Y-58970535D01*
X182919961Y-58966854D01*
X182914698Y-58962858D01*
X182909727Y-58958547D01*
X182905047Y-58953922D01*
X182900656Y-58948985D01*
X182896549Y-58943735D01*
X182892726Y-58938175D01*
X182889183Y-58932303D01*
X182885918Y-58926122D01*
X182882929Y-58919632D01*
X182880213Y-58912833D01*
X182877767Y-58905727D01*
X182875589Y-58898315D01*
X182873677Y-58890596D01*
X182872028Y-58882572D01*
X182870640Y-58874244D01*
X182869509Y-58865613D01*
X182868634Y-58856678D01*
X182868012Y-58847442D01*
X182867641Y-58837905D01*
X182867540Y-58829825D01*
X182956618Y-58829825D01*
X182956703Y-58837335D01*
X182956957Y-58844535D01*
X182957377Y-58851430D01*
X182957959Y-58858025D01*
X182958701Y-58864325D01*
X182959600Y-58870333D01*
X182961855Y-58881496D01*
X182964699Y-58891551D01*
X182968109Y-58900536D01*
X182972061Y-58908488D01*
X182976530Y-58915444D01*
X182981491Y-58921442D01*
X182986922Y-58926519D01*
X182992796Y-58930713D01*
X182999091Y-58934060D01*
X183005781Y-58936599D01*
X183012844Y-58938366D01*
X183020253Y-58939398D01*
X183027986Y-58939734D01*
X183137162Y-58939734D01*
X183137162Y-58449539D01*
X183027986Y-58449539D01*
X183020883Y-58449888D01*
X183014095Y-58450958D01*
X183007642Y-58452784D01*
X183001543Y-58455398D01*
X182995819Y-58458837D01*
X182990489Y-58463132D01*
X182985573Y-58468320D01*
X182981091Y-58474433D01*
X182977062Y-58481507D01*
X182973506Y-58489574D01*
X182970443Y-58498670D01*
X182967893Y-58508828D01*
X182965875Y-58520083D01*
X182965071Y-58526132D01*
X182964409Y-58532468D01*
X182963889Y-58539095D01*
X182963515Y-58546018D01*
X182963288Y-58553241D01*
X182963212Y-58560767D01*
X182963240Y-58567452D01*
X182963328Y-58573879D01*
X182963481Y-58580053D01*
X182963704Y-58585975D01*
X182964386Y-58597076D01*
X182965417Y-58607208D01*
X182966843Y-58616394D01*
X182968707Y-58624657D01*
X182971054Y-58632021D01*
X182973928Y-58638510D01*
X182977375Y-58644146D01*
X182981438Y-58648955D01*
X182986161Y-58652959D01*
X182991590Y-58656182D01*
X182997768Y-58658648D01*
X183004740Y-58660380D01*
X183012551Y-58661402D01*
X183021244Y-58661737D01*
X183100965Y-58661737D01*
X183100965Y-58711416D01*
X183021244Y-58711416D01*
X183012477Y-58711809D01*
X183004457Y-58713006D01*
X182997159Y-58715035D01*
X182990559Y-58717924D01*
X182984631Y-58721700D01*
X182979351Y-58726393D01*
X182974693Y-58732029D01*
X182970631Y-58738637D01*
X182967142Y-58746244D01*
X182964199Y-58754879D01*
X182961778Y-58764569D01*
X182959853Y-58775342D01*
X182958400Y-58787226D01*
X182957842Y-58793594D01*
X182957393Y-58800250D01*
X182957049Y-58807197D01*
X182956807Y-58814440D01*
X182956665Y-58821981D01*
X182956618Y-58829825D01*
X182867540Y-58829825D01*
X182867518Y-58828066D01*
X182867613Y-58819755D01*
X182867895Y-58811743D01*
X182868358Y-58804027D01*
X182868999Y-58796600D01*
X182869813Y-58789458D01*
X182870795Y-58782597D01*
X182871939Y-58776010D01*
X182873242Y-58769693D01*
X182874699Y-58763642D01*
X182876305Y-58757850D01*
X182879945Y-58747028D01*
X182884123Y-58737187D01*
X182888804Y-58728287D01*
X182893948Y-58720289D01*
X182899518Y-58713153D01*
X182905476Y-58706838D01*
X182911784Y-58701307D01*
X182918405Y-58696518D01*
X182925301Y-58692432D01*
X182932433Y-58689009D01*
X182939765Y-58686210D01*
X182933237Y-58682930D01*
X182926917Y-58679357D01*
X182920835Y-58675408D01*
X182915019Y-58671004D01*
X182909500Y-58666063D01*
X182904306Y-58660504D01*
X182899468Y-58654247D01*
X182895014Y-58647211D01*
X182890973Y-58639314D01*
X182887376Y-58630476D01*
X182884252Y-58620615D01*
X182881630Y-58609652D01*
X182880516Y-58603731D01*
X182879539Y-58597504D01*
X182878702Y-58590961D01*
X182878009Y-58584091D01*
X182877464Y-58576885D01*
X182877070Y-58569332D01*
X182876831Y-58561423D01*
X182876750Y-58553147D01*
X182876857Y-58544105D01*
X182877178Y-58535309D01*
X182877720Y-58526761D01*
X182878485Y-58518465D01*
X182879478Y-58510422D01*
X182880703Y-58502636D01*
X182882165Y-58495109D01*
X182883867Y-58487845D01*
X182885814Y-58480844D01*
X182888010Y-58474112D01*
X182890458Y-58467649D01*
X182893165Y-58461459D01*
X182896132Y-58455545D01*
X182899365Y-58449909D01*
X182902869Y-58444554D01*
X182906646Y-58439482D01*
X182910701Y-58434697D01*
X182915039Y-58430201D01*
X182919663Y-58425997D01*
X182924578Y-58422087D01*
X182929788Y-58418475D01*
X182935297Y-58415162D01*
X182941110Y-58412152D01*
X182947230Y-58409447D01*
X182953661Y-58407051D01*
X182960409Y-58404965D01*
X182967477Y-58403192D01*
X182974868Y-58401736D01*
X182982589Y-58400599D01*
X182990642Y-58399783D01*
X182999031Y-58399292D01*
X183007762Y-58399127D01*
X183225383Y-58399127D01*
X183225383Y-58990000D01*
G37*
G36*
X182651949Y-58939734D02*
G01*
X182662580Y-58939553D01*
X182672140Y-58938964D01*
X182680684Y-58937900D01*
X182688263Y-58936293D01*
X182694931Y-58934075D01*
X182700741Y-58931179D01*
X182705746Y-58927538D01*
X182710000Y-58923083D01*
X182713554Y-58917747D01*
X182716462Y-58911463D01*
X182718778Y-58904162D01*
X182720553Y-58895777D01*
X182721842Y-58886241D01*
X182722697Y-58875486D01*
X182722978Y-58869630D01*
X182723171Y-58863445D01*
X182723282Y-58856920D01*
X182723317Y-58850048D01*
X182723317Y-58521053D01*
X182809046Y-58521053D01*
X182809046Y-58846678D01*
X182808968Y-58856308D01*
X182808729Y-58865555D01*
X182808318Y-58874424D01*
X182807728Y-58882920D01*
X182806950Y-58891048D01*
X182805974Y-58898813D01*
X182804792Y-58906221D01*
X182803395Y-58913276D01*
X182801774Y-58919984D01*
X182799919Y-58926349D01*
X182797823Y-58932376D01*
X182795476Y-58938072D01*
X182792869Y-58943440D01*
X182786840Y-58953214D01*
X182779666Y-58961741D01*
X182771274Y-58969060D01*
X182761594Y-58975212D01*
X182756248Y-58977863D01*
X182750554Y-58980237D01*
X182744502Y-58982340D01*
X182738083Y-58984177D01*
X182731289Y-58985752D01*
X182724110Y-58987071D01*
X182716538Y-58988139D01*
X182708564Y-58988960D01*
X182700178Y-58989541D01*
X182691372Y-58989886D01*
X182682138Y-58990000D01*
X182456164Y-58990000D01*
X182456164Y-58521053D01*
X182541893Y-58521053D01*
X182541893Y-58939734D01*
X182651949Y-58939734D01*
G37*
G36*
X182285145Y-58524424D02*
G01*
X182370728Y-58524424D01*
X182370728Y-58990000D01*
X182285145Y-58990000D01*
X182285145Y-58524424D01*
G37*
G36*
X182285145Y-58384180D02*
G01*
X182370728Y-58384180D01*
X182370728Y-58464780D01*
X182285145Y-58464780D01*
X182285145Y-58384180D01*
G37*
G36*
X182113833Y-58380369D02*
G01*
X182199563Y-58380369D01*
X182199563Y-58990000D01*
X182113833Y-58990000D01*
X182113833Y-58380369D01*
G37*
G36*
X181815027Y-58571465D02*
G01*
X181815027Y-58521053D01*
X181909988Y-58521053D01*
X181919223Y-58521167D01*
X181928029Y-58521513D01*
X181936414Y-58522096D01*
X181944389Y-58522921D01*
X181951961Y-58523992D01*
X181959140Y-58525315D01*
X181965934Y-58526895D01*
X181972353Y-58528738D01*
X181978405Y-58530847D01*
X181984099Y-58533228D01*
X181989445Y-58535887D01*
X181999125Y-58542056D01*
X182007516Y-58549393D01*
X182014691Y-58557940D01*
X182020720Y-58567737D01*
X182023327Y-58573117D01*
X182025674Y-58578824D01*
X182027770Y-58584864D01*
X182029624Y-58591242D01*
X182031246Y-58597962D01*
X182032643Y-58605030D01*
X182033825Y-58612451D01*
X182034801Y-58620230D01*
X182035579Y-58628372D01*
X182036169Y-58636881D01*
X182036579Y-58645764D01*
X182036819Y-58655024D01*
X182036897Y-58664668D01*
X182036897Y-58846531D01*
X182036819Y-58856174D01*
X182036579Y-58865434D01*
X182036169Y-58874314D01*
X182035579Y-58882821D01*
X182034801Y-58890960D01*
X182033825Y-58898735D01*
X182032643Y-58906151D01*
X182031246Y-58913214D01*
X182029624Y-58919929D01*
X182027770Y-58926301D01*
X182025674Y-58932335D01*
X182023327Y-58938036D01*
X182020720Y-58943409D01*
X182014691Y-58953192D01*
X182007516Y-58961726D01*
X181999125Y-58969050D01*
X181989445Y-58975206D01*
X181984099Y-58977858D01*
X181978405Y-58980234D01*
X181972353Y-58982338D01*
X181965934Y-58984175D01*
X181959140Y-58985751D01*
X181951961Y-58987070D01*
X181944389Y-58988138D01*
X181936414Y-58988960D01*
X181928029Y-58989541D01*
X181919223Y-58989886D01*
X181909988Y-58990000D01*
X181683136Y-58990000D01*
X181683136Y-58380369D01*
X181768865Y-58380369D01*
X181768865Y-58939734D01*
X181879800Y-58939734D01*
X181890430Y-58939553D01*
X181899991Y-58938964D01*
X181908534Y-58937899D01*
X181916113Y-58936290D01*
X181922782Y-58934071D01*
X181928592Y-58931172D01*
X181933597Y-58927526D01*
X181937850Y-58923065D01*
X181941405Y-58917721D01*
X181944313Y-58911427D01*
X181946628Y-58904114D01*
X181948404Y-58895716D01*
X181949693Y-58886163D01*
X181950547Y-58875388D01*
X181950829Y-58869521D01*
X181951021Y-58863324D01*
X181951132Y-58856787D01*
X181951168Y-58849902D01*
X181951168Y-58661151D01*
X181951132Y-58654266D01*
X181951021Y-58647731D01*
X181950829Y-58641535D01*
X181950547Y-58635671D01*
X181949693Y-58624903D01*
X181948404Y-58615360D01*
X181946628Y-58606972D01*
X181944313Y-58599672D01*
X181941405Y-58593391D01*
X181937850Y-58588061D01*
X181933597Y-58583614D01*
X181928592Y-58579981D01*
X181922782Y-58577095D01*
X181916113Y-58574886D01*
X181908534Y-58573287D01*
X181899991Y-58572229D01*
X181890430Y-58571645D01*
X181879800Y-58571465D01*
X181815027Y-58571465D01*
G37*
G36*
X181511970Y-58524424D02*
G01*
X181597553Y-58524424D01*
X181597553Y-58990000D01*
X181511970Y-58990000D01*
X181511970Y-58524424D01*
G37*
G36*
X181511970Y-58384180D02*
G01*
X181597553Y-58384180D01*
X181597553Y-58464780D01*
X181511970Y-58464780D01*
X181511970Y-58384180D01*
G37*
G36*
X181226499Y-58571465D02*
G01*
X181215867Y-58571646D01*
X181206302Y-58572235D01*
X181197751Y-58573299D01*
X181190163Y-58574906D01*
X181183483Y-58577124D01*
X181177661Y-58580020D01*
X181172642Y-58583661D01*
X181168375Y-58588116D01*
X181164808Y-58593452D01*
X181161886Y-58599737D01*
X181159558Y-58607037D01*
X181157772Y-58615422D01*
X181156473Y-58624958D01*
X181155611Y-58635713D01*
X181155327Y-58641569D01*
X181155133Y-58647755D01*
X181155021Y-58654279D01*
X181154985Y-58661151D01*
X181154985Y-58990000D01*
X181069402Y-58990000D01*
X181069402Y-58664521D01*
X181069480Y-58654891D01*
X181069718Y-58645643D01*
X181070126Y-58636772D01*
X181070714Y-58628273D01*
X181071489Y-58620142D01*
X181072461Y-58612373D01*
X181073638Y-58604960D01*
X181075030Y-58597900D01*
X181076646Y-58591188D01*
X181078495Y-58584817D01*
X181080585Y-58578783D01*
X181082926Y-58573081D01*
X181085526Y-58567707D01*
X181091542Y-58557918D01*
X181098702Y-58549378D01*
X181107081Y-58542046D01*
X181116748Y-58535881D01*
X181122087Y-58533224D01*
X181127776Y-58530844D01*
X181133823Y-58528735D01*
X181140237Y-58526894D01*
X181147026Y-58525314D01*
X181154201Y-58523991D01*
X181161770Y-58522920D01*
X181169742Y-58522096D01*
X181178125Y-58521513D01*
X181186930Y-58521167D01*
X181196164Y-58521053D01*
X181426387Y-58521053D01*
X181426387Y-58990000D01*
X181340658Y-58990000D01*
X181340658Y-58571465D01*
X181226499Y-58571465D01*
G37*
G36*
X180880651Y-59128925D02*
G01*
X180880651Y-59177578D01*
X180768983Y-59177578D01*
X180759749Y-59177464D01*
X180750943Y-59177119D01*
X180742557Y-59176538D01*
X180734583Y-59175715D01*
X180727011Y-59174644D01*
X180719832Y-59173322D01*
X180713038Y-59171741D01*
X180706619Y-59169898D01*
X180700567Y-59167786D01*
X180694873Y-59165401D01*
X180689527Y-59162737D01*
X180679847Y-59156550D01*
X180671455Y-59149184D01*
X180664281Y-59140595D01*
X180658252Y-59130742D01*
X180655645Y-59125328D01*
X180653298Y-59119582D01*
X180651202Y-59113499D01*
X180649347Y-59107072D01*
X180647726Y-59100298D01*
X180646329Y-59093170D01*
X180645147Y-59085684D01*
X180644171Y-59077834D01*
X180643393Y-59069614D01*
X180642803Y-59061020D01*
X180642392Y-59052046D01*
X180642153Y-59042687D01*
X180642075Y-59032937D01*
X180642075Y-58521053D01*
X180868928Y-58521053D01*
X180878162Y-58521167D01*
X180886968Y-58521513D01*
X180895354Y-58522096D01*
X180903328Y-58522921D01*
X180910900Y-58523992D01*
X180918079Y-58525315D01*
X180924873Y-58526895D01*
X180931292Y-58528738D01*
X180937344Y-58530847D01*
X180943038Y-58533228D01*
X180948384Y-58535887D01*
X180958064Y-58542056D01*
X180966456Y-58549393D01*
X180973630Y-58557940D01*
X180979659Y-58567737D01*
X180982266Y-58573117D01*
X180984613Y-58578824D01*
X180986709Y-58584864D01*
X180988564Y-58591242D01*
X180990185Y-58597962D01*
X180991582Y-58605030D01*
X180992764Y-58612451D01*
X180993740Y-58620230D01*
X180994518Y-58628372D01*
X180995108Y-58636881D01*
X180995519Y-58645764D01*
X180995758Y-58655024D01*
X180995836Y-58664668D01*
X180995836Y-58846531D01*
X180995758Y-58856174D01*
X180995519Y-58865434D01*
X180995108Y-58874314D01*
X180994518Y-58882821D01*
X180993740Y-58890960D01*
X180992764Y-58898735D01*
X180991582Y-58906151D01*
X180990185Y-58913214D01*
X180988564Y-58919929D01*
X180986709Y-58926301D01*
X180984613Y-58932335D01*
X180982266Y-58938036D01*
X180979659Y-58943409D01*
X180973630Y-58953192D01*
X180966456Y-58961726D01*
X180958064Y-58969050D01*
X180948384Y-58975206D01*
X180943038Y-58977858D01*
X180937344Y-58980234D01*
X180931292Y-58982338D01*
X180924873Y-58984175D01*
X180918079Y-58985751D01*
X180910900Y-58987070D01*
X180903328Y-58988138D01*
X180895354Y-58988960D01*
X180886968Y-58989541D01*
X180878162Y-58989886D01*
X180868928Y-58990000D01*
X180773966Y-58990000D01*
X180773966Y-58939734D01*
X180838739Y-58939734D01*
X180849370Y-58939553D01*
X180858930Y-58938964D01*
X180867474Y-58937899D01*
X180875053Y-58936290D01*
X180881721Y-58934071D01*
X180887531Y-58931172D01*
X180892536Y-58927526D01*
X180896790Y-58923065D01*
X180900344Y-58917721D01*
X180903252Y-58911427D01*
X180905568Y-58904114D01*
X180907343Y-58895716D01*
X180908632Y-58886163D01*
X180909487Y-58875388D01*
X180909768Y-58869521D01*
X180909961Y-58863324D01*
X180910072Y-58856787D01*
X180910107Y-58849902D01*
X180910107Y-58661151D01*
X180910072Y-58654266D01*
X180909961Y-58647731D01*
X180909768Y-58641535D01*
X180909487Y-58635671D01*
X180908632Y-58624903D01*
X180907343Y-58615360D01*
X180905568Y-58606972D01*
X180903252Y-58599672D01*
X180900344Y-58593391D01*
X180896790Y-58588061D01*
X180892536Y-58583614D01*
X180887531Y-58579981D01*
X180881721Y-58577095D01*
X180875053Y-58574886D01*
X180867474Y-58573287D01*
X180858930Y-58572229D01*
X180849370Y-58571645D01*
X180838739Y-58571465D01*
X180727804Y-58571465D01*
X180727804Y-59036308D01*
X180727840Y-59043291D01*
X180727950Y-59049930D01*
X180728143Y-59056233D01*
X180728424Y-59062208D01*
X180729279Y-59073207D01*
X180730568Y-59082990D01*
X180732343Y-59091621D01*
X180734659Y-59099165D01*
X180737567Y-59105686D01*
X180741121Y-59111248D01*
X180745375Y-59115915D01*
X180750380Y-59119752D01*
X180756190Y-59122822D01*
X180762858Y-59125190D01*
X180770438Y-59126920D01*
X180778981Y-59128077D01*
X180788541Y-59128724D01*
X180799172Y-59128925D01*
X180880651Y-59128925D01*
G37*
G36*
X180278642Y-58555931D02*
G01*
X180278585Y-58548418D01*
X180278413Y-58541236D01*
X180278126Y-58534379D01*
X180277722Y-58527840D01*
X180277199Y-58521613D01*
X180276557Y-58515693D01*
X180274909Y-58504748D01*
X180272769Y-58494956D01*
X180270125Y-58486268D01*
X180266969Y-58478638D01*
X180263291Y-58472015D01*
X180259080Y-58466353D01*
X180254327Y-58461602D01*
X180249022Y-58457715D01*
X180243155Y-58454643D01*
X180236715Y-58452337D01*
X180229695Y-58450751D01*
X180222082Y-58449834D01*
X180213868Y-58449539D01*
X180069374Y-58449539D01*
X180069374Y-58399127D01*
X180240833Y-58399127D01*
X180249098Y-58399294D01*
X180257052Y-58399793D01*
X180264698Y-58400622D01*
X180272040Y-58401778D01*
X180279080Y-58403257D01*
X180285822Y-58405058D01*
X180292268Y-58407178D01*
X180298423Y-58409614D01*
X180304289Y-58412364D01*
X180309869Y-58415424D01*
X180315167Y-58418792D01*
X180320186Y-58422466D01*
X180324929Y-58426442D01*
X180329400Y-58430718D01*
X180333600Y-58435292D01*
X180337535Y-58440160D01*
X180341206Y-58445320D01*
X180344617Y-58450770D01*
X180347771Y-58456506D01*
X180350672Y-58462525D01*
X180353322Y-58468826D01*
X180355725Y-58475406D01*
X180357884Y-58482262D01*
X180359803Y-58489390D01*
X180361483Y-58496789D01*
X180362929Y-58504456D01*
X180364144Y-58512388D01*
X180365131Y-58520583D01*
X180365893Y-58529037D01*
X180366434Y-58537748D01*
X180366755Y-58546714D01*
X180366862Y-58555931D01*
X180366862Y-58837592D01*
X180366758Y-58846423D01*
X180366443Y-58855025D01*
X180365914Y-58863396D01*
X180365167Y-58871531D01*
X180364199Y-58879428D01*
X180363005Y-58887083D01*
X180361582Y-58894492D01*
X180359926Y-58901653D01*
X180358034Y-58908561D01*
X180355902Y-58915214D01*
X180353527Y-58921608D01*
X180350904Y-58927739D01*
X180348030Y-58933604D01*
X180344901Y-58939200D01*
X180341514Y-58944524D01*
X180337864Y-58949571D01*
X180333949Y-58954339D01*
X180329765Y-58958824D01*
X180325307Y-58963023D01*
X180320573Y-58966931D01*
X180315558Y-58970547D01*
X180310259Y-58973866D01*
X180304672Y-58976886D01*
X180298794Y-58979602D01*
X180292620Y-58982011D01*
X180286148Y-58984110D01*
X180279373Y-58985895D01*
X180272292Y-58987364D01*
X180264901Y-58988512D01*
X180257197Y-58989336D01*
X180249175Y-58989833D01*
X180240833Y-58990000D01*
X180067762Y-58990000D01*
X180067762Y-58939734D01*
X180213868Y-58939734D01*
X180222082Y-58939337D01*
X180229695Y-58938146D01*
X180236715Y-58936160D01*
X180243155Y-58933378D01*
X180249022Y-58929799D01*
X180254327Y-58925422D01*
X180259080Y-58920247D01*
X180263291Y-58914272D01*
X180266969Y-58907497D01*
X180270125Y-58899921D01*
X180272769Y-58891543D01*
X180274909Y-58882362D01*
X180276557Y-58872377D01*
X180277722Y-58861588D01*
X180278413Y-58849993D01*
X180278585Y-58843893D01*
X180278642Y-58837592D01*
X180278642Y-58555931D01*
G37*
G36*
X179895134Y-58521167D02*
G01*
X179903939Y-58521513D01*
X179912325Y-58522096D01*
X179920299Y-58522921D01*
X179927872Y-58523992D01*
X179935050Y-58525315D01*
X179941845Y-58526895D01*
X179948263Y-58528738D01*
X179954315Y-58530847D01*
X179960010Y-58533228D01*
X179965355Y-58535887D01*
X179975035Y-58542056D01*
X179983427Y-58549393D01*
X179990602Y-58557940D01*
X179996630Y-58567737D01*
X179999237Y-58573117D01*
X180001584Y-58578824D01*
X180003681Y-58584864D01*
X180005535Y-58591242D01*
X180007156Y-58597962D01*
X180008554Y-58605030D01*
X180009736Y-58612451D01*
X180010711Y-58620230D01*
X180011490Y-58628372D01*
X180012080Y-58636881D01*
X180012490Y-58645764D01*
X180012730Y-58655024D01*
X180012808Y-58664668D01*
X180012808Y-58846531D01*
X180012730Y-58856174D01*
X180012490Y-58865434D01*
X180012080Y-58874314D01*
X180011490Y-58882821D01*
X180010711Y-58890960D01*
X180009736Y-58898735D01*
X180008554Y-58906151D01*
X180007156Y-58913214D01*
X180005535Y-58919929D01*
X180003681Y-58926301D01*
X180001584Y-58932335D01*
X179999237Y-58938036D01*
X179996630Y-58943409D01*
X179990602Y-58953192D01*
X179983427Y-58961726D01*
X179975035Y-58969050D01*
X179965355Y-58975206D01*
X179960010Y-58977858D01*
X179954315Y-58980234D01*
X179948263Y-58982338D01*
X179941845Y-58984175D01*
X179935050Y-58985751D01*
X179927872Y-58987070D01*
X179920299Y-58988138D01*
X179912325Y-58988960D01*
X179903939Y-58989541D01*
X179895134Y-58989886D01*
X179885899Y-58990000D01*
X179773352Y-58990000D01*
X179764117Y-58989886D01*
X179755311Y-58989541D01*
X179746926Y-58988960D01*
X179738951Y-58988138D01*
X179731379Y-58987070D01*
X179724201Y-58985751D01*
X179717406Y-58984175D01*
X179710988Y-58982338D01*
X179704935Y-58980234D01*
X179699241Y-58977858D01*
X179693896Y-58975206D01*
X179684215Y-58969050D01*
X179675824Y-58961726D01*
X179668649Y-58953192D01*
X179662621Y-58943409D01*
X179660014Y-58938036D01*
X179657667Y-58932335D01*
X179655570Y-58926301D01*
X179653716Y-58919929D01*
X179652094Y-58913214D01*
X179650697Y-58906151D01*
X179649515Y-58898735D01*
X179648539Y-58890960D01*
X179647761Y-58882821D01*
X179647171Y-58874314D01*
X179646761Y-58865434D01*
X179646521Y-58856174D01*
X179646470Y-58849902D01*
X179732173Y-58849902D01*
X179732208Y-58856787D01*
X179732319Y-58863324D01*
X179732512Y-58869521D01*
X179732793Y-58875388D01*
X179733648Y-58886163D01*
X179734936Y-58895716D01*
X179736712Y-58904114D01*
X179739027Y-58911427D01*
X179741936Y-58917721D01*
X179745490Y-58923065D01*
X179749743Y-58927526D01*
X179754748Y-58931172D01*
X179760559Y-58934071D01*
X179767227Y-58936290D01*
X179774806Y-58937899D01*
X179783349Y-58938964D01*
X179792910Y-58939553D01*
X179803540Y-58939734D01*
X179855711Y-58939734D01*
X179866341Y-58939553D01*
X179875902Y-58938964D01*
X179884445Y-58937899D01*
X179892024Y-58936290D01*
X179898692Y-58934071D01*
X179904503Y-58931172D01*
X179909508Y-58927526D01*
X179913761Y-58923065D01*
X179917315Y-58917721D01*
X179920224Y-58911427D01*
X179922539Y-58904114D01*
X179924315Y-58895716D01*
X179925603Y-58886163D01*
X179926458Y-58875388D01*
X179926739Y-58869521D01*
X179926932Y-58863324D01*
X179927043Y-58856787D01*
X179927078Y-58849902D01*
X179927078Y-58661151D01*
X179927043Y-58654266D01*
X179926932Y-58647731D01*
X179926739Y-58641535D01*
X179926458Y-58635671D01*
X179925603Y-58624903D01*
X179924315Y-58615360D01*
X179922539Y-58606972D01*
X179920224Y-58599672D01*
X179917315Y-58593391D01*
X179913761Y-58588061D01*
X179909508Y-58583614D01*
X179904503Y-58579981D01*
X179898692Y-58577095D01*
X179892024Y-58574886D01*
X179884445Y-58573287D01*
X179875902Y-58572229D01*
X179866341Y-58571645D01*
X179855711Y-58571465D01*
X179803540Y-58571465D01*
X179792910Y-58571645D01*
X179783349Y-58572229D01*
X179774806Y-58573287D01*
X179767227Y-58574886D01*
X179760559Y-58577095D01*
X179754748Y-58579981D01*
X179749743Y-58583614D01*
X179745490Y-58588061D01*
X179741936Y-58593391D01*
X179739027Y-58599672D01*
X179736712Y-58606972D01*
X179734936Y-58615360D01*
X179733648Y-58624903D01*
X179732793Y-58635671D01*
X179732512Y-58641535D01*
X179732319Y-58647731D01*
X179732208Y-58654266D01*
X179732173Y-58661151D01*
X179732173Y-58849902D01*
X179646470Y-58849902D01*
X179646443Y-58846531D01*
X179646443Y-58664668D01*
X179646521Y-58655024D01*
X179646761Y-58645764D01*
X179647171Y-58636881D01*
X179647761Y-58628372D01*
X179648539Y-58620230D01*
X179649515Y-58612451D01*
X179650697Y-58605030D01*
X179652094Y-58597962D01*
X179653716Y-58591242D01*
X179655570Y-58584864D01*
X179657667Y-58578824D01*
X179660014Y-58573117D01*
X179662621Y-58567737D01*
X179668649Y-58557940D01*
X179675824Y-58549393D01*
X179684215Y-58542056D01*
X179693896Y-58535887D01*
X179699241Y-58533228D01*
X179704935Y-58530847D01*
X179710988Y-58528738D01*
X179717406Y-58526895D01*
X179724201Y-58525315D01*
X179731379Y-58523992D01*
X179738951Y-58522921D01*
X179746926Y-58522096D01*
X179755311Y-58521513D01*
X179764117Y-58521167D01*
X179773352Y-58521053D01*
X179885899Y-58521053D01*
X179895134Y-58521167D01*
G37*
G36*
X179369472Y-58571465D02*
G01*
X179358840Y-58571646D01*
X179349275Y-58572235D01*
X179340724Y-58573299D01*
X179333135Y-58574906D01*
X179326456Y-58577124D01*
X179320634Y-58580020D01*
X179315615Y-58583661D01*
X179311348Y-58588116D01*
X179307780Y-58593452D01*
X179304859Y-58599737D01*
X179302531Y-58607037D01*
X179300744Y-58615422D01*
X179299446Y-58624958D01*
X179298584Y-58635713D01*
X179298300Y-58641569D01*
X179298105Y-58647755D01*
X179297994Y-58654279D01*
X179297958Y-58661151D01*
X179297958Y-58990000D01*
X179212375Y-58990000D01*
X179212375Y-58664521D01*
X179212452Y-58654891D01*
X179212691Y-58645643D01*
X179213099Y-58636772D01*
X179213686Y-58628273D01*
X179214461Y-58620142D01*
X179215433Y-58612373D01*
X179216611Y-58604960D01*
X179218003Y-58597900D01*
X179219619Y-58591188D01*
X179221468Y-58584817D01*
X179223558Y-58578783D01*
X179225899Y-58573081D01*
X179228499Y-58567707D01*
X179234514Y-58557918D01*
X179241675Y-58549378D01*
X179250053Y-58542046D01*
X179259721Y-58535881D01*
X179265060Y-58533224D01*
X179270749Y-58530844D01*
X179276796Y-58528735D01*
X179283209Y-58526894D01*
X179289999Y-58525314D01*
X179297174Y-58523991D01*
X179304743Y-58522920D01*
X179312715Y-58522096D01*
X179321098Y-58521513D01*
X179329903Y-58521167D01*
X179339137Y-58521053D01*
X179569360Y-58521053D01*
X179569360Y-58990000D01*
X179483631Y-58990000D01*
X179483631Y-58571465D01*
X179369472Y-58571465D01*
G37*
G36*
X178932912Y-58521053D02*
G01*
X179049709Y-58521053D01*
X179049709Y-58399127D01*
X179135438Y-58399127D01*
X179135438Y-58877013D01*
X179135361Y-58882997D01*
X179135126Y-58888883D01*
X179134160Y-58900338D01*
X179132500Y-58911329D01*
X179130103Y-58921808D01*
X179126929Y-58931725D01*
X179122935Y-58941034D01*
X179118079Y-58949685D01*
X179112321Y-58957631D01*
X179105618Y-58964823D01*
X179097929Y-58971213D01*
X179089212Y-58976752D01*
X179079426Y-58981392D01*
X179068529Y-58985085D01*
X179062650Y-58986562D01*
X179056478Y-58987783D01*
X179050008Y-58988744D01*
X179043234Y-58989437D01*
X179036151Y-58989858D01*
X179028753Y-58990000D01*
X178956506Y-58990000D01*
X178956506Y-58939734D01*
X178994315Y-58939734D01*
X179002134Y-58939558D01*
X179009233Y-58939005D01*
X179015644Y-58938039D01*
X179021394Y-58936623D01*
X179028847Y-58933573D01*
X179034982Y-58929305D01*
X179039898Y-58923693D01*
X179043697Y-58916615D01*
X179045657Y-58911019D01*
X179047195Y-58904680D01*
X179048339Y-58897560D01*
X179049120Y-58889623D01*
X179049567Y-58880832D01*
X179049709Y-58871151D01*
X179049709Y-58571465D01*
X178932912Y-58571465D01*
X178932912Y-58521053D01*
G37*
G36*
X178673526Y-58793042D02*
G01*
X178664292Y-58792929D01*
X178655486Y-58792592D01*
X178647100Y-58792030D01*
X178639126Y-58791246D01*
X178631554Y-58790240D01*
X178624375Y-58789013D01*
X178617581Y-58787566D01*
X178611162Y-58785900D01*
X178605110Y-58784017D01*
X178599416Y-58781916D01*
X178589065Y-58777068D01*
X178580038Y-58771365D01*
X178572263Y-58764814D01*
X178565671Y-58757423D01*
X178560188Y-58749200D01*
X178555745Y-58740153D01*
X178552269Y-58730291D01*
X178549690Y-58719620D01*
X178547936Y-58708149D01*
X178547346Y-58702117D01*
X178546935Y-58695887D01*
X178546696Y-58689461D01*
X178546618Y-58682840D01*
X178546618Y-58631402D01*
X178546696Y-58624781D01*
X178546935Y-58618354D01*
X178547346Y-58612122D01*
X178547936Y-58606086D01*
X178548714Y-58600248D01*
X178550872Y-58589168D01*
X178553890Y-58578890D01*
X178557841Y-58569423D01*
X178562795Y-58560774D01*
X178568824Y-58552953D01*
X178575998Y-58545967D01*
X178584390Y-58539825D01*
X178594070Y-58534536D01*
X178605110Y-58530107D01*
X178611162Y-58528218D01*
X178617581Y-58526547D01*
X178624375Y-58525096D01*
X178631554Y-58523865D01*
X178639126Y-58522856D01*
X178647100Y-58522069D01*
X178655486Y-58521505D01*
X178664292Y-58521166D01*
X178673526Y-58521053D01*
X178769221Y-58521053D01*
X178778455Y-58521167D01*
X178787261Y-58521513D01*
X178795647Y-58522096D01*
X178803621Y-58522920D01*
X178811193Y-58523990D01*
X178818372Y-58525312D01*
X178825166Y-58526891D01*
X178831585Y-58528731D01*
X178837637Y-58530837D01*
X178843331Y-58533215D01*
X178848677Y-58535869D01*
X178858357Y-58542026D01*
X178866749Y-58549348D01*
X178873923Y-58557874D01*
X178879952Y-58567645D01*
X178882559Y-58573010D01*
X178884906Y-58578700D01*
X178887002Y-58584721D01*
X178888857Y-58591079D01*
X178890478Y-58597777D01*
X178891875Y-58604821D01*
X178893057Y-58612215D01*
X178894033Y-58619966D01*
X178894812Y-58628077D01*
X178895401Y-58636554D01*
X178895812Y-58645402D01*
X178896051Y-58654625D01*
X178896129Y-58664228D01*
X178896129Y-58845945D01*
X178896051Y-58855642D01*
X178895812Y-58864951D01*
X178895401Y-58873878D01*
X178894812Y-58882429D01*
X178894033Y-58890608D01*
X178893057Y-58898420D01*
X178891875Y-58905871D01*
X178890478Y-58912967D01*
X178888857Y-58919711D01*
X178887002Y-58926111D01*
X178884906Y-58932169D01*
X178882559Y-58937893D01*
X178879952Y-58943286D01*
X178873923Y-58953105D01*
X178866749Y-58961666D01*
X178858357Y-58969011D01*
X178848677Y-58975182D01*
X178843331Y-58977840D01*
X178837637Y-58980221D01*
X178831585Y-58982329D01*
X178825166Y-58984169D01*
X178818372Y-58985747D01*
X178811193Y-58987068D01*
X178803621Y-58988137D01*
X178795647Y-58988960D01*
X178787261Y-58989541D01*
X178778455Y-58989886D01*
X178769221Y-58990000D01*
X178580177Y-58990000D01*
X178580177Y-58939734D01*
X178739032Y-58939734D01*
X178749663Y-58939553D01*
X178759223Y-58938963D01*
X178767767Y-58937895D01*
X178775346Y-58936281D01*
X178782014Y-58934053D01*
X178787824Y-58931141D01*
X178792829Y-58927477D01*
X178797083Y-58922991D01*
X178800637Y-58917617D01*
X178803545Y-58911284D01*
X178805861Y-58903924D01*
X178807636Y-58895468D01*
X178808925Y-58885848D01*
X178809780Y-58874995D01*
X178810061Y-58869085D01*
X178810254Y-58862841D01*
X178810365Y-58856254D01*
X178810400Y-58849316D01*
X178810400Y-58660858D01*
X178810365Y-58654000D01*
X178810254Y-58647489D01*
X178810061Y-58641317D01*
X178809403Y-58629954D01*
X178808338Y-58619843D01*
X178806813Y-58610917D01*
X178804774Y-58603108D01*
X178802169Y-58596347D01*
X178798944Y-58590568D01*
X178795047Y-58585701D01*
X178790424Y-58581680D01*
X178785023Y-58578437D01*
X178778791Y-58575903D01*
X178771673Y-58574011D01*
X178763619Y-58572693D01*
X178754574Y-58571882D01*
X178744485Y-58571508D01*
X178739032Y-58571465D01*
X178703715Y-58571465D01*
X178693084Y-58571639D01*
X178683524Y-58572181D01*
X178674980Y-58573125D01*
X178667401Y-58574501D01*
X178660733Y-58576343D01*
X178654923Y-58578683D01*
X178647700Y-58583196D01*
X178642110Y-58589009D01*
X178637973Y-58596232D01*
X178635934Y-58601884D01*
X178634409Y-58608243D01*
X178633344Y-58615341D01*
X178632686Y-58623211D01*
X178632382Y-58631883D01*
X178632347Y-58636531D01*
X178632347Y-58681960D01*
X178632493Y-58690317D01*
X178632967Y-58697981D01*
X178633822Y-58704972D01*
X178635111Y-58711313D01*
X178636886Y-58717025D01*
X178640578Y-58724458D01*
X178645664Y-58730595D01*
X178652323Y-58735507D01*
X178657724Y-58738137D01*
X178663957Y-58740276D01*
X178671074Y-58741944D01*
X178679128Y-58743164D01*
X178688174Y-58743956D01*
X178698262Y-58744342D01*
X178703715Y-58744389D01*
X178751635Y-58744389D01*
X178751635Y-58793042D01*
X178673526Y-58793042D01*
G37*
G36*
X178163987Y-58849023D02*
G01*
X178164084Y-58839421D01*
X178164377Y-58830258D01*
X178164874Y-58821523D01*
X178165578Y-58813209D01*
X178166497Y-58805306D01*
X178167635Y-58797807D01*
X178168997Y-58790701D01*
X178170591Y-58783981D01*
X178172420Y-58777638D01*
X178174491Y-58771663D01*
X178176810Y-58766047D01*
X178182211Y-58755858D01*
X178188668Y-58747002D01*
X178196226Y-58739408D01*
X178204930Y-58733008D01*
X178214824Y-58727731D01*
X178225952Y-58723507D01*
X178231993Y-58721768D01*
X178238360Y-58720267D01*
X178245058Y-58718994D01*
X178252092Y-58717941D01*
X178259468Y-58717098D01*
X178267193Y-58716459D01*
X178275270Y-58716012D01*
X178283707Y-58715751D01*
X178292508Y-58715666D01*
X178351272Y-58715666D01*
X178361748Y-58715527D01*
X178371173Y-58715071D01*
X178379599Y-58714238D01*
X178387078Y-58712969D01*
X178393661Y-58711203D01*
X178399400Y-58708881D01*
X178406539Y-58704225D01*
X178412071Y-58697982D01*
X178414952Y-58692840D01*
X178417248Y-58686843D01*
X178419011Y-58679932D01*
X178420292Y-58672047D01*
X178421142Y-58663129D01*
X178421615Y-58653117D01*
X178421761Y-58641953D01*
X178421690Y-58636078D01*
X178421121Y-58625317D01*
X178419989Y-58615811D01*
X178418295Y-58607483D01*
X178416043Y-58600257D01*
X178413238Y-58594055D01*
X178409883Y-58588801D01*
X178405982Y-58584418D01*
X178399113Y-58579308D01*
X178391035Y-58575726D01*
X178384984Y-58574058D01*
X178378405Y-58572877D01*
X178371302Y-58572105D01*
X178363678Y-58571667D01*
X178355536Y-58571484D01*
X178351272Y-58571465D01*
X178210149Y-58571465D01*
X178210149Y-58521053D01*
X178372228Y-58521053D01*
X178380873Y-58521193D01*
X178389168Y-58521611D01*
X178397119Y-58522306D01*
X178404731Y-58523273D01*
X178412009Y-58524511D01*
X178418958Y-58526018D01*
X178425582Y-58527790D01*
X178431886Y-58529825D01*
X178437876Y-58532122D01*
X178443556Y-58534677D01*
X178448931Y-58537487D01*
X178454006Y-58540551D01*
X178463275Y-58547429D01*
X178471403Y-58555290D01*
X178478428Y-58564115D01*
X178484390Y-58573883D01*
X178489328Y-58584574D01*
X178491424Y-58590260D01*
X178493280Y-58596169D01*
X178494898Y-58602299D01*
X178496286Y-58608648D01*
X178497446Y-58615212D01*
X178498384Y-58621990D01*
X178499106Y-58628979D01*
X178499615Y-58636176D01*
X178499917Y-58643579D01*
X178500016Y-58651186D01*
X178499929Y-58660050D01*
X178499665Y-58668564D01*
X178499220Y-58676734D01*
X178498588Y-58684563D01*
X178497766Y-58692057D01*
X178496749Y-58699219D01*
X178495533Y-58706053D01*
X178494113Y-58712566D01*
X178492485Y-58718760D01*
X178490644Y-58724640D01*
X178488586Y-58730211D01*
X178483801Y-58740444D01*
X178478094Y-58749493D01*
X178471429Y-58757394D01*
X178463771Y-58764183D01*
X178455084Y-58769895D01*
X178445333Y-58774567D01*
X178434481Y-58778233D01*
X178428632Y-58779701D01*
X178422494Y-58780930D01*
X178416063Y-58781926D01*
X178409335Y-58782693D01*
X178402305Y-58783235D01*
X178394969Y-58783557D01*
X178387323Y-58783663D01*
X178324308Y-58783663D01*
X178317948Y-58783692D01*
X178311913Y-58783785D01*
X178300790Y-58784195D01*
X178290872Y-58784964D01*
X178282096Y-58786161D01*
X178274395Y-58787855D01*
X178267706Y-58790116D01*
X178261962Y-58793012D01*
X178257098Y-58796614D01*
X178253051Y-58800990D01*
X178249754Y-58806210D01*
X178247143Y-58812343D01*
X178245153Y-58819459D01*
X178243718Y-58827627D01*
X178242773Y-58836916D01*
X178242254Y-58847395D01*
X178242096Y-58859134D01*
X178242172Y-58866083D01*
X178242399Y-58872622D01*
X178242776Y-58878763D01*
X178243981Y-58889901D01*
X178245778Y-58899599D01*
X178248163Y-58907954D01*
X178251130Y-58915067D01*
X178254673Y-58921037D01*
X178258786Y-58925963D01*
X178263464Y-58929945D01*
X178268701Y-58933081D01*
X178274490Y-58935472D01*
X178280826Y-58937216D01*
X178287704Y-58938414D01*
X178295117Y-58939164D01*
X178303060Y-58939566D01*
X178311527Y-58939720D01*
X178315955Y-58939734D01*
X178484775Y-58939734D01*
X178484775Y-58990000D01*
X178299102Y-58990000D01*
X178290076Y-58989869D01*
X178281404Y-58989477D01*
X178273082Y-58988822D01*
X178265106Y-58987903D01*
X178257471Y-58986718D01*
X178250173Y-58985265D01*
X178243207Y-58983544D01*
X178236568Y-58981553D01*
X178230253Y-58979290D01*
X178224257Y-58976754D01*
X178218575Y-58973943D01*
X178213203Y-58970857D01*
X178208136Y-58967494D01*
X178203371Y-58963852D01*
X178198902Y-58959930D01*
X178194725Y-58955726D01*
X178190836Y-58951240D01*
X178187230Y-58946469D01*
X178183902Y-58941412D01*
X178180849Y-58936068D01*
X178178066Y-58930436D01*
X178175549Y-58924513D01*
X178173292Y-58918299D01*
X178171291Y-58911792D01*
X178169543Y-58904991D01*
X178168042Y-58897894D01*
X178166785Y-58890500D01*
X178165766Y-58882807D01*
X178164981Y-58874815D01*
X178164426Y-58866521D01*
X178164096Y-58857924D01*
X178163987Y-58849023D01*
G37*
G36*
X177901817Y-58521053D02*
G01*
X178018614Y-58521053D01*
X178018614Y-58399127D01*
X178104343Y-58399127D01*
X178104343Y-58877013D01*
X178104266Y-58882997D01*
X178104030Y-58888883D01*
X178103065Y-58900338D01*
X178101404Y-58911329D01*
X178099008Y-58921808D01*
X178095833Y-58931725D01*
X178091839Y-58941034D01*
X178086984Y-58949685D01*
X178081225Y-58957631D01*
X178074522Y-58964823D01*
X178066833Y-58971213D01*
X178058117Y-58976752D01*
X178048330Y-58981392D01*
X178037433Y-58985085D01*
X178031555Y-58986562D01*
X178025383Y-58987783D01*
X178018912Y-58988744D01*
X178012138Y-58989437D01*
X178005055Y-58989858D01*
X177997658Y-58990000D01*
X177925411Y-58990000D01*
X177925411Y-58939734D01*
X177963219Y-58939734D01*
X177971038Y-58939558D01*
X177978138Y-58939005D01*
X177984548Y-58938039D01*
X177990298Y-58936623D01*
X177997751Y-58933573D01*
X178003886Y-58929305D01*
X178008803Y-58923693D01*
X178012601Y-58916615D01*
X178014562Y-58911019D01*
X178016099Y-58904680D01*
X178017244Y-58897560D01*
X178018025Y-58889623D01*
X178018471Y-58880832D01*
X178018614Y-58871151D01*
X178018614Y-58571465D01*
X177901817Y-58571465D01*
X177901817Y-58521053D01*
G37*
G36*
X185871412Y-59579465D02*
G01*
X185860780Y-59579646D01*
X185851215Y-59580235D01*
X185842664Y-59581299D01*
X185835076Y-59582906D01*
X185828396Y-59585124D01*
X185822574Y-59588020D01*
X185817555Y-59591661D01*
X185813288Y-59596116D01*
X185809720Y-59601452D01*
X185806799Y-59607737D01*
X185804471Y-59615037D01*
X185802684Y-59623422D01*
X185801386Y-59632958D01*
X185800524Y-59643713D01*
X185800240Y-59649569D01*
X185800046Y-59655755D01*
X185799934Y-59662279D01*
X185799898Y-59669151D01*
X185799898Y-59998000D01*
X185714315Y-59998000D01*
X185714315Y-59672521D01*
X185714393Y-59662891D01*
X185714631Y-59653643D01*
X185715039Y-59644772D01*
X185715627Y-59636273D01*
X185716402Y-59628142D01*
X185717373Y-59620373D01*
X185718551Y-59612960D01*
X185719943Y-59605900D01*
X185721559Y-59599188D01*
X185723408Y-59592817D01*
X185725498Y-59586783D01*
X185727839Y-59581081D01*
X185730439Y-59575707D01*
X185736455Y-59565918D01*
X185743615Y-59557378D01*
X185751994Y-59550046D01*
X185761661Y-59543881D01*
X185767000Y-59541224D01*
X185772689Y-59538844D01*
X185778736Y-59536735D01*
X185785149Y-59534894D01*
X185791939Y-59533314D01*
X185799114Y-59531991D01*
X185806683Y-59530920D01*
X185814655Y-59530096D01*
X185823038Y-59529513D01*
X185831843Y-59529167D01*
X185841077Y-59529053D01*
X185985571Y-59529053D01*
X185985571Y-59388369D01*
X186071300Y-59388369D01*
X186071300Y-59998000D01*
X185985571Y-59998000D01*
X185985571Y-59579465D01*
X185871412Y-59579465D01*
G37*
G36*
X185434852Y-59529053D02*
G01*
X185551649Y-59529053D01*
X185551649Y-59407127D01*
X185637379Y-59407127D01*
X185637379Y-59885013D01*
X185637301Y-59890997D01*
X185637066Y-59896883D01*
X185636100Y-59908338D01*
X185634440Y-59919329D01*
X185632043Y-59929808D01*
X185628869Y-59939725D01*
X185624875Y-59949034D01*
X185620019Y-59957685D01*
X185614261Y-59965631D01*
X185607558Y-59972823D01*
X185599869Y-59979213D01*
X185591152Y-59984752D01*
X185581366Y-59989392D01*
X185570469Y-59993085D01*
X185564590Y-59994562D01*
X185558418Y-59995783D01*
X185551948Y-59996744D01*
X185545174Y-59997437D01*
X185538091Y-59997858D01*
X185530693Y-59998000D01*
X185458446Y-59998000D01*
X185458446Y-59947734D01*
X185496255Y-59947734D01*
X185504074Y-59947558D01*
X185511174Y-59947005D01*
X185517584Y-59946039D01*
X185523334Y-59944623D01*
X185530787Y-59941573D01*
X185536922Y-59937305D01*
X185541838Y-59931693D01*
X185545637Y-59924615D01*
X185547598Y-59919019D01*
X185549135Y-59912680D01*
X185550280Y-59905560D01*
X185551060Y-59897623D01*
X185551507Y-59888832D01*
X185551649Y-59879151D01*
X185551649Y-59579465D01*
X185434852Y-59579465D01*
X185434852Y-59529053D01*
G37*
G36*
X185183966Y-59529053D02*
G01*
X185300763Y-59529053D01*
X185300763Y-59407127D01*
X185386492Y-59407127D01*
X185386492Y-59885013D01*
X185386415Y-59890997D01*
X185386180Y-59896883D01*
X185385214Y-59908338D01*
X185383554Y-59919329D01*
X185381157Y-59929808D01*
X185377983Y-59939725D01*
X185373988Y-59949034D01*
X185369133Y-59957685D01*
X185363375Y-59965631D01*
X185356672Y-59972823D01*
X185348983Y-59979213D01*
X185340266Y-59984752D01*
X185330480Y-59989392D01*
X185319582Y-59993085D01*
X185313704Y-59994562D01*
X185307532Y-59995783D01*
X185301062Y-59996744D01*
X185294288Y-59997437D01*
X185287204Y-59997858D01*
X185279807Y-59998000D01*
X185207560Y-59998000D01*
X185207560Y-59947734D01*
X185245369Y-59947734D01*
X185253188Y-59947558D01*
X185260287Y-59947005D01*
X185266697Y-59946039D01*
X185272448Y-59944623D01*
X185279901Y-59941573D01*
X185286035Y-59937305D01*
X185290952Y-59931693D01*
X185294751Y-59924615D01*
X185296711Y-59919019D01*
X185298249Y-59912680D01*
X185299393Y-59905560D01*
X185300174Y-59897623D01*
X185300621Y-59888832D01*
X185300763Y-59879151D01*
X185300763Y-59579465D01*
X185183966Y-59579465D01*
X185183966Y-59529053D01*
G37*
G36*
X185000344Y-59947734D02*
G01*
X185000344Y-59998000D01*
X184905383Y-59998000D01*
X184896148Y-59997886D01*
X184887344Y-59997541D01*
X184878960Y-59996960D01*
X184870989Y-59996138D01*
X184863420Y-59995070D01*
X184856245Y-59993751D01*
X184849455Y-59992175D01*
X184843041Y-59990338D01*
X184836995Y-59988234D01*
X184831306Y-59985858D01*
X184825967Y-59983206D01*
X184816299Y-59977050D01*
X184807921Y-59969726D01*
X184800760Y-59961192D01*
X184794745Y-59951409D01*
X184792145Y-59946036D01*
X184789804Y-59940335D01*
X184787714Y-59934301D01*
X184785865Y-59927929D01*
X184784249Y-59921214D01*
X184782857Y-59914151D01*
X184781679Y-59906735D01*
X184780707Y-59898960D01*
X184779932Y-59890821D01*
X184779345Y-59882314D01*
X184778937Y-59873434D01*
X184778698Y-59864174D01*
X184778621Y-59854531D01*
X184778621Y-59672668D01*
X184778698Y-59663024D01*
X184778937Y-59653764D01*
X184779345Y-59644881D01*
X184779932Y-59636372D01*
X184780707Y-59628230D01*
X184781679Y-59620451D01*
X184782857Y-59613030D01*
X184784249Y-59605962D01*
X184785865Y-59599242D01*
X184787714Y-59592864D01*
X184789804Y-59586824D01*
X184792145Y-59581117D01*
X184794745Y-59575737D01*
X184800760Y-59565940D01*
X184807921Y-59557393D01*
X184816299Y-59550056D01*
X184825967Y-59543887D01*
X184831306Y-59541228D01*
X184836995Y-59538847D01*
X184843041Y-59536738D01*
X184849455Y-59534895D01*
X184856245Y-59533315D01*
X184863420Y-59531992D01*
X184870989Y-59530921D01*
X184878960Y-59530096D01*
X184887344Y-59529513D01*
X184896148Y-59529167D01*
X184905383Y-59529053D01*
X185132236Y-59529053D01*
X185132236Y-60185578D01*
X185046506Y-60185578D01*
X185046506Y-59579465D01*
X184935571Y-59579465D01*
X184924941Y-59579645D01*
X184915380Y-59580229D01*
X184906837Y-59581287D01*
X184899258Y-59582886D01*
X184892589Y-59585095D01*
X184886779Y-59587981D01*
X184881774Y-59591614D01*
X184877521Y-59596061D01*
X184873966Y-59601391D01*
X184871058Y-59607672D01*
X184868743Y-59614972D01*
X184866967Y-59623360D01*
X184865679Y-59632903D01*
X184864824Y-59643671D01*
X184864542Y-59649535D01*
X184864350Y-59655731D01*
X184864239Y-59662266D01*
X184864203Y-59669151D01*
X184864203Y-59857902D01*
X184864239Y-59864787D01*
X184864350Y-59871324D01*
X184864542Y-59877521D01*
X184864824Y-59883388D01*
X184865679Y-59894163D01*
X184866967Y-59903716D01*
X184868743Y-59912114D01*
X184871058Y-59919427D01*
X184873966Y-59925721D01*
X184877521Y-59931065D01*
X184881774Y-59935526D01*
X184886779Y-59939172D01*
X184892589Y-59942071D01*
X184899258Y-59944290D01*
X184906837Y-59945899D01*
X184915380Y-59946964D01*
X184924941Y-59947553D01*
X184935571Y-59947734D01*
X185000344Y-59947734D01*
G37*
G36*
X184382215Y-59857023D02*
G01*
X184382311Y-59847421D01*
X184382605Y-59838258D01*
X184383101Y-59829523D01*
X184383806Y-59821209D01*
X184384724Y-59813306D01*
X184385862Y-59805807D01*
X184387225Y-59798701D01*
X184388818Y-59791981D01*
X184390648Y-59785638D01*
X184392719Y-59779663D01*
X184395037Y-59774047D01*
X184400439Y-59763858D01*
X184406896Y-59755002D01*
X184414454Y-59747408D01*
X184423158Y-59741008D01*
X184433051Y-59735731D01*
X184444180Y-59731507D01*
X184450221Y-59729768D01*
X184456588Y-59728267D01*
X184463285Y-59726994D01*
X184470320Y-59725941D01*
X184477696Y-59725098D01*
X184485420Y-59724459D01*
X184493498Y-59724012D01*
X184501934Y-59723751D01*
X184510735Y-59723666D01*
X184569500Y-59723666D01*
X184579976Y-59723527D01*
X184589401Y-59723071D01*
X184597827Y-59722238D01*
X184605305Y-59720969D01*
X184611888Y-59719203D01*
X184617627Y-59716881D01*
X184624767Y-59712225D01*
X184630299Y-59705982D01*
X184633180Y-59700840D01*
X184635476Y-59694843D01*
X184637238Y-59687932D01*
X184638519Y-59680047D01*
X184639370Y-59671129D01*
X184639842Y-59661117D01*
X184639988Y-59649953D01*
X184639917Y-59644078D01*
X184639349Y-59633317D01*
X184638216Y-59623811D01*
X184636522Y-59615483D01*
X184634271Y-59608257D01*
X184631466Y-59602055D01*
X184628111Y-59596801D01*
X184624209Y-59592418D01*
X184617341Y-59587308D01*
X184609263Y-59583726D01*
X184603212Y-59582058D01*
X184596633Y-59580877D01*
X184589530Y-59580105D01*
X184581905Y-59579667D01*
X184573764Y-59579484D01*
X184569500Y-59579465D01*
X184428376Y-59579465D01*
X184428376Y-59529053D01*
X184590456Y-59529053D01*
X184599100Y-59529193D01*
X184607395Y-59529611D01*
X184615347Y-59530306D01*
X184622959Y-59531273D01*
X184630237Y-59532511D01*
X184637185Y-59534018D01*
X184643809Y-59535790D01*
X184650114Y-59537825D01*
X184656104Y-59540122D01*
X184661784Y-59542677D01*
X184667159Y-59545487D01*
X184672234Y-59548551D01*
X184681503Y-59555429D01*
X184689631Y-59563290D01*
X184696656Y-59572115D01*
X184702618Y-59581883D01*
X184707555Y-59592574D01*
X184709652Y-59598260D01*
X184711507Y-59604169D01*
X184713126Y-59610299D01*
X184714513Y-59616648D01*
X184715673Y-59623212D01*
X184716612Y-59629990D01*
X184717333Y-59636979D01*
X184717842Y-59644176D01*
X184718144Y-59651579D01*
X184718244Y-59659186D01*
X184718157Y-59668050D01*
X184717893Y-59676564D01*
X184717447Y-59684734D01*
X184716816Y-59692563D01*
X184715994Y-59700057D01*
X184714977Y-59707219D01*
X184713761Y-59714053D01*
X184712341Y-59720566D01*
X184710713Y-59726760D01*
X184708872Y-59732640D01*
X184706814Y-59738211D01*
X184702029Y-59748444D01*
X184696322Y-59757493D01*
X184689657Y-59765394D01*
X184681999Y-59772183D01*
X184673312Y-59777895D01*
X184663561Y-59782567D01*
X184652709Y-59786233D01*
X184646860Y-59787701D01*
X184640722Y-59788930D01*
X184634291Y-59789926D01*
X184627563Y-59790693D01*
X184620533Y-59791235D01*
X184613197Y-59791557D01*
X184605550Y-59791663D01*
X184542536Y-59791663D01*
X184536175Y-59791692D01*
X184530141Y-59791785D01*
X184519018Y-59792195D01*
X184509100Y-59792964D01*
X184500324Y-59794161D01*
X184492623Y-59795855D01*
X184485933Y-59798116D01*
X184480189Y-59801012D01*
X184475326Y-59804614D01*
X184471279Y-59808990D01*
X184467982Y-59814210D01*
X184465371Y-59820343D01*
X184463380Y-59827459D01*
X184461945Y-59835627D01*
X184461001Y-59844916D01*
X184460482Y-59855395D01*
X184460323Y-59867134D01*
X184460399Y-59874083D01*
X184460626Y-59880622D01*
X184461004Y-59886763D01*
X184462208Y-59897901D01*
X184464006Y-59907599D01*
X184466391Y-59915954D01*
X184469358Y-59923067D01*
X184472901Y-59929037D01*
X184477014Y-59933963D01*
X184481692Y-59937945D01*
X184486928Y-59941081D01*
X184492718Y-59943472D01*
X184499054Y-59945216D01*
X184505932Y-59946414D01*
X184513345Y-59947164D01*
X184521288Y-59947566D01*
X184529754Y-59947720D01*
X184534182Y-59947734D01*
X184703003Y-59947734D01*
X184703003Y-59998000D01*
X184517330Y-59998000D01*
X184508304Y-59997869D01*
X184499632Y-59997477D01*
X184491310Y-59996822D01*
X184483334Y-59995903D01*
X184475699Y-59994718D01*
X184468401Y-59993265D01*
X184461434Y-59991544D01*
X184454796Y-59989553D01*
X184448481Y-59987290D01*
X184442484Y-59984754D01*
X184436803Y-59981943D01*
X184431430Y-59978857D01*
X184426364Y-59975494D01*
X184421598Y-59971852D01*
X184417129Y-59967930D01*
X184412953Y-59963726D01*
X184409063Y-59959240D01*
X184405457Y-59954469D01*
X184402130Y-59949412D01*
X184399077Y-59944068D01*
X184396294Y-59938436D01*
X184393776Y-59932513D01*
X184391519Y-59926299D01*
X184389519Y-59919792D01*
X184387771Y-59912991D01*
X184386270Y-59905894D01*
X184385012Y-59898500D01*
X184383993Y-59890807D01*
X184383208Y-59882815D01*
X184382653Y-59874521D01*
X184382324Y-59865924D01*
X184382215Y-59857023D01*
G37*
G36*
X184225118Y-59915787D02*
G01*
X184313338Y-59915787D01*
X184313338Y-59998000D01*
X184225118Y-59998000D01*
X184225118Y-59915787D01*
G37*
G36*
X184225118Y-59622842D02*
G01*
X184313338Y-59622842D01*
X184313338Y-59705201D01*
X184225118Y-59705201D01*
X184225118Y-59622842D01*
G37*
G36*
X183988300Y-59407127D02*
G01*
X184205920Y-60091789D01*
X184136164Y-60091789D01*
X183920303Y-59407127D01*
X183988300Y-59407127D01*
G37*
G36*
X183732138Y-59407127D02*
G01*
X183949758Y-60091789D01*
X183880002Y-60091789D01*
X183664141Y-59407127D01*
X183732138Y-59407127D01*
G37*
G36*
X183555990Y-60136925D02*
G01*
X183555990Y-60185578D01*
X183444322Y-60185578D01*
X183435087Y-60185464D01*
X183426282Y-60185119D01*
X183417896Y-60184538D01*
X183409922Y-60183715D01*
X183402349Y-60182644D01*
X183395171Y-60181322D01*
X183388376Y-60179741D01*
X183381958Y-60177898D01*
X183375906Y-60175786D01*
X183370211Y-60173401D01*
X183364866Y-60170737D01*
X183355186Y-60164550D01*
X183346794Y-60157184D01*
X183339619Y-60148595D01*
X183333591Y-60138742D01*
X183330984Y-60133328D01*
X183328637Y-60127582D01*
X183326540Y-60121499D01*
X183324686Y-60115072D01*
X183323065Y-60108298D01*
X183321667Y-60101170D01*
X183320485Y-60093684D01*
X183319510Y-60085834D01*
X183318731Y-60077614D01*
X183318141Y-60069020D01*
X183317731Y-60060046D01*
X183317491Y-60050687D01*
X183317413Y-60040937D01*
X183317413Y-59529053D01*
X183544266Y-59529053D01*
X183553501Y-59529167D01*
X183562307Y-59529513D01*
X183570692Y-59530096D01*
X183578667Y-59530921D01*
X183586239Y-59531992D01*
X183593418Y-59533315D01*
X183600212Y-59534895D01*
X183606631Y-59536738D01*
X183612683Y-59538847D01*
X183618377Y-59541228D01*
X183623723Y-59543887D01*
X183633403Y-59550056D01*
X183641794Y-59557393D01*
X183648969Y-59565940D01*
X183654998Y-59575737D01*
X183657604Y-59581117D01*
X183659952Y-59586824D01*
X183662048Y-59592864D01*
X183663902Y-59599242D01*
X183665524Y-59605962D01*
X183666921Y-59613030D01*
X183668103Y-59620451D01*
X183669079Y-59628230D01*
X183669857Y-59636372D01*
X183670447Y-59644881D01*
X183670857Y-59653764D01*
X183671097Y-59663024D01*
X183671175Y-59672668D01*
X183671175Y-59854531D01*
X183671097Y-59864174D01*
X183670857Y-59873434D01*
X183670447Y-59882314D01*
X183669857Y-59890821D01*
X183669079Y-59898960D01*
X183668103Y-59906735D01*
X183666921Y-59914151D01*
X183665524Y-59921214D01*
X183663902Y-59927929D01*
X183662048Y-59934301D01*
X183659952Y-59940335D01*
X183657604Y-59946036D01*
X183654998Y-59951409D01*
X183648969Y-59961192D01*
X183641794Y-59969726D01*
X183633403Y-59977050D01*
X183623723Y-59983206D01*
X183618377Y-59985858D01*
X183612683Y-59988234D01*
X183606631Y-59990338D01*
X183600212Y-59992175D01*
X183593418Y-59993751D01*
X183586239Y-59995070D01*
X183578667Y-59996138D01*
X183570692Y-59996960D01*
X183562307Y-59997541D01*
X183553501Y-59997886D01*
X183544266Y-59998000D01*
X183449305Y-59998000D01*
X183449305Y-59947734D01*
X183514078Y-59947734D01*
X183524708Y-59947553D01*
X183534269Y-59946964D01*
X183542812Y-59945899D01*
X183550391Y-59944290D01*
X183557060Y-59942071D01*
X183562870Y-59939172D01*
X183567875Y-59935526D01*
X183572128Y-59931065D01*
X183575683Y-59925721D01*
X183578591Y-59919427D01*
X183580906Y-59912114D01*
X183582682Y-59903716D01*
X183583970Y-59894163D01*
X183584825Y-59883388D01*
X183585107Y-59877521D01*
X183585299Y-59871324D01*
X183585410Y-59864787D01*
X183585446Y-59857902D01*
X183585446Y-59669151D01*
X183585410Y-59662266D01*
X183585299Y-59655731D01*
X183585107Y-59649535D01*
X183584825Y-59643671D01*
X183583970Y-59632903D01*
X183582682Y-59623360D01*
X183580906Y-59614972D01*
X183578591Y-59607672D01*
X183575683Y-59601391D01*
X183572128Y-59596061D01*
X183567875Y-59591614D01*
X183562870Y-59587981D01*
X183557060Y-59585095D01*
X183550391Y-59582886D01*
X183542812Y-59581287D01*
X183534269Y-59580229D01*
X183524708Y-59579645D01*
X183514078Y-59579465D01*
X183403143Y-59579465D01*
X183403143Y-60044308D01*
X183403178Y-60051291D01*
X183403289Y-60057930D01*
X183403482Y-60064233D01*
X183403763Y-60070208D01*
X183404618Y-60081207D01*
X183405906Y-60090990D01*
X183407682Y-60099621D01*
X183409997Y-60107165D01*
X183412906Y-60113686D01*
X183416460Y-60119248D01*
X183420713Y-60123915D01*
X183425718Y-60127752D01*
X183431529Y-60130822D01*
X183438197Y-60133190D01*
X183445776Y-60134920D01*
X183454320Y-60136077D01*
X183463880Y-60136724D01*
X183474510Y-60136925D01*
X183555990Y-60136925D01*
G37*
G36*
X183146248Y-59532424D02*
G01*
X183231831Y-59532424D01*
X183231831Y-59998000D01*
X183146248Y-59998000D01*
X183146248Y-59532424D01*
G37*
G36*
X183146248Y-59392180D02*
G01*
X183231831Y-59392180D01*
X183231831Y-59472780D01*
X183146248Y-59472780D01*
X183146248Y-59392180D01*
G37*
G36*
X182861510Y-59529053D02*
G01*
X182978307Y-59529053D01*
X182978307Y-59407127D01*
X183064036Y-59407127D01*
X183064036Y-59885013D01*
X183063959Y-59890997D01*
X183063723Y-59896883D01*
X183062758Y-59908338D01*
X183061097Y-59919329D01*
X183058701Y-59929808D01*
X183055526Y-59939725D01*
X183051532Y-59949034D01*
X183046677Y-59957685D01*
X183040918Y-59965631D01*
X183034216Y-59972823D01*
X183026527Y-59979213D01*
X183017810Y-59984752D01*
X183008023Y-59989392D01*
X182997126Y-59993085D01*
X182991248Y-59994562D01*
X182985076Y-59995783D01*
X182978605Y-59996744D01*
X182971831Y-59997437D01*
X182964748Y-59997858D01*
X182957351Y-59998000D01*
X182885104Y-59998000D01*
X182885104Y-59947734D01*
X182922912Y-59947734D01*
X182930731Y-59947558D01*
X182937831Y-59947005D01*
X182944241Y-59946039D01*
X182949991Y-59944623D01*
X182957444Y-59941573D01*
X182963579Y-59937305D01*
X182968496Y-59931693D01*
X182972294Y-59924615D01*
X182974255Y-59919019D01*
X182975793Y-59912680D01*
X182976937Y-59905560D01*
X182977718Y-59897623D01*
X182978164Y-59888832D01*
X182978307Y-59879151D01*
X182978307Y-59579465D01*
X182861510Y-59579465D01*
X182861510Y-59529053D01*
G37*
G36*
X182609891Y-59579465D02*
G01*
X182599259Y-59579646D01*
X182589694Y-59580235D01*
X182581143Y-59581299D01*
X182573554Y-59582906D01*
X182566875Y-59585124D01*
X182561052Y-59588020D01*
X182556034Y-59591661D01*
X182551767Y-59596116D01*
X182548199Y-59601452D01*
X182545278Y-59607737D01*
X182542950Y-59615037D01*
X182541163Y-59623422D01*
X182539865Y-59632958D01*
X182539003Y-59643713D01*
X182538719Y-59649569D01*
X182538524Y-59655755D01*
X182538412Y-59662279D01*
X182538376Y-59669151D01*
X182538376Y-59998000D01*
X182452794Y-59998000D01*
X182452794Y-59672521D01*
X182452871Y-59662891D01*
X182453110Y-59653643D01*
X182453518Y-59644772D01*
X182454105Y-59636273D01*
X182454880Y-59628142D01*
X182455852Y-59620373D01*
X182457030Y-59612960D01*
X182458422Y-59605900D01*
X182460038Y-59599188D01*
X182461887Y-59592817D01*
X182463977Y-59586783D01*
X182466318Y-59581081D01*
X182468918Y-59575707D01*
X182474933Y-59565918D01*
X182482094Y-59557378D01*
X182490472Y-59550046D01*
X182500140Y-59543881D01*
X182505479Y-59541224D01*
X182511168Y-59538844D01*
X182517214Y-59536735D01*
X182523628Y-59534894D01*
X182530418Y-59533314D01*
X182537593Y-59531991D01*
X182545162Y-59530920D01*
X182553133Y-59530096D01*
X182561517Y-59529513D01*
X182570322Y-59529167D01*
X182579556Y-59529053D01*
X182724050Y-59529053D01*
X182724050Y-59388369D01*
X182809779Y-59388369D01*
X182809779Y-59998000D01*
X182724050Y-59998000D01*
X182724050Y-59579465D01*
X182609891Y-59579465D01*
G37*
G36*
X182218760Y-59947734D02*
G01*
X182229391Y-59947553D01*
X182238951Y-59946964D01*
X182247495Y-59945900D01*
X182255074Y-59944293D01*
X182261742Y-59942075D01*
X182267552Y-59939179D01*
X182272557Y-59935538D01*
X182276811Y-59931083D01*
X182280365Y-59925747D01*
X182283273Y-59919463D01*
X182285589Y-59912162D01*
X182287364Y-59903777D01*
X182288653Y-59894241D01*
X182289508Y-59883486D01*
X182289789Y-59877630D01*
X182289982Y-59871445D01*
X182290093Y-59864920D01*
X182290128Y-59858048D01*
X182290128Y-59529053D01*
X182375857Y-59529053D01*
X182375857Y-59854678D01*
X182375779Y-59864308D01*
X182375540Y-59873555D01*
X182375129Y-59882424D01*
X182374540Y-59890920D01*
X182373761Y-59899048D01*
X182372785Y-59906813D01*
X182371603Y-59914221D01*
X182370206Y-59921276D01*
X182368585Y-59927984D01*
X182366730Y-59934349D01*
X182364634Y-59940376D01*
X182362287Y-59946072D01*
X182359680Y-59951440D01*
X182353651Y-59961214D01*
X182346477Y-59969741D01*
X182338085Y-59977060D01*
X182328405Y-59983212D01*
X182323059Y-59985863D01*
X182317365Y-59988237D01*
X182311313Y-59990340D01*
X182304894Y-59992177D01*
X182298100Y-59993752D01*
X182290921Y-59995071D01*
X182283349Y-59996139D01*
X182275375Y-59996960D01*
X182266989Y-59997541D01*
X182258183Y-59997886D01*
X182248949Y-59998000D01*
X182022975Y-59998000D01*
X182022975Y-59529053D01*
X182108704Y-59529053D01*
X182108704Y-59947734D01*
X182218760Y-59947734D01*
G37*
G36*
X181742633Y-59579465D02*
G01*
X181732003Y-59579645D01*
X181722442Y-59580229D01*
X181713899Y-59581287D01*
X181706320Y-59582886D01*
X181699652Y-59585095D01*
X181693841Y-59587981D01*
X181688836Y-59591614D01*
X181684583Y-59596061D01*
X181681029Y-59601391D01*
X181678120Y-59607672D01*
X181675805Y-59614972D01*
X181674029Y-59623360D01*
X181672741Y-59632903D01*
X181671886Y-59643671D01*
X181671604Y-59649535D01*
X181671412Y-59655731D01*
X181671301Y-59662266D01*
X181671266Y-59669151D01*
X181671266Y-59857902D01*
X181671301Y-59864787D01*
X181671412Y-59871324D01*
X181671604Y-59877521D01*
X181671886Y-59883388D01*
X181672741Y-59894163D01*
X181674029Y-59903716D01*
X181675805Y-59912114D01*
X181678120Y-59919427D01*
X181681029Y-59925721D01*
X181684583Y-59931065D01*
X181688836Y-59935526D01*
X181693841Y-59939172D01*
X181699652Y-59942071D01*
X181706320Y-59944290D01*
X181713899Y-59945899D01*
X181722442Y-59946964D01*
X181732003Y-59947553D01*
X181742633Y-59947734D01*
X181853568Y-59947734D01*
X181853568Y-59388369D01*
X181939298Y-59388369D01*
X181939298Y-59998000D01*
X181712445Y-59998000D01*
X181703211Y-59997886D01*
X181694406Y-59997541D01*
X181686022Y-59996960D01*
X181678051Y-59996138D01*
X181670482Y-59995070D01*
X181663307Y-59993751D01*
X181656517Y-59992175D01*
X181650103Y-59990338D01*
X181644057Y-59988234D01*
X181638368Y-59985858D01*
X181633029Y-59983206D01*
X181623361Y-59977050D01*
X181614983Y-59969726D01*
X181607822Y-59961192D01*
X181601807Y-59951409D01*
X181599207Y-59946036D01*
X181596866Y-59940335D01*
X181594776Y-59934301D01*
X181592927Y-59927929D01*
X181591311Y-59921214D01*
X181589919Y-59914151D01*
X181588741Y-59906735D01*
X181587769Y-59898960D01*
X181586994Y-59890821D01*
X181586407Y-59882314D01*
X181585999Y-59873434D01*
X181585760Y-59864174D01*
X181585683Y-59854531D01*
X181585683Y-59672668D01*
X181585760Y-59663024D01*
X181585999Y-59653764D01*
X181586407Y-59644881D01*
X181586994Y-59636372D01*
X181587769Y-59628230D01*
X181588741Y-59620451D01*
X181589919Y-59613030D01*
X181591311Y-59605962D01*
X181592927Y-59599242D01*
X181594776Y-59592864D01*
X181596866Y-59586824D01*
X181599207Y-59581117D01*
X181601807Y-59575737D01*
X181607822Y-59565940D01*
X181614983Y-59557393D01*
X181623361Y-59550056D01*
X181633029Y-59543887D01*
X181638368Y-59541228D01*
X181644057Y-59538847D01*
X181650103Y-59536738D01*
X181656517Y-59534895D01*
X181663307Y-59533315D01*
X181670482Y-59531992D01*
X181678051Y-59530921D01*
X181686022Y-59530096D01*
X181694406Y-59529513D01*
X181703211Y-59529167D01*
X181712445Y-59529053D01*
X181807406Y-59529053D01*
X181807406Y-59579465D01*
X181742633Y-59579465D01*
G37*
G36*
X181445439Y-59915787D02*
G01*
X181533659Y-59915787D01*
X181533659Y-59998000D01*
X181445439Y-59998000D01*
X181445439Y-59915787D01*
G37*
G36*
X181308125Y-59669151D02*
G01*
X181308090Y-59662266D01*
X181307979Y-59655731D01*
X181307786Y-59649535D01*
X181307505Y-59643671D01*
X181306650Y-59632903D01*
X181305362Y-59623360D01*
X181303586Y-59614972D01*
X181301271Y-59607672D01*
X181298362Y-59601391D01*
X181294808Y-59596061D01*
X181290555Y-59591614D01*
X181285550Y-59587981D01*
X181279739Y-59585095D01*
X181273071Y-59582886D01*
X181265492Y-59581287D01*
X181256948Y-59580229D01*
X181247388Y-59579645D01*
X181236758Y-59579465D01*
X181103987Y-59579465D01*
X181103987Y-59529053D01*
X181266946Y-59529053D01*
X181276181Y-59529167D01*
X181284986Y-59529513D01*
X181293372Y-59530096D01*
X181301346Y-59530921D01*
X181308919Y-59531992D01*
X181316097Y-59533315D01*
X181322892Y-59534895D01*
X181329310Y-59536738D01*
X181335362Y-59538847D01*
X181341057Y-59541228D01*
X181346402Y-59543887D01*
X181356082Y-59550056D01*
X181364474Y-59557393D01*
X181371649Y-59565940D01*
X181377677Y-59575737D01*
X181380284Y-59581117D01*
X181382631Y-59586824D01*
X181384728Y-59592864D01*
X181386582Y-59599242D01*
X181388203Y-59605962D01*
X181389601Y-59613030D01*
X181390783Y-59620451D01*
X181391758Y-59628230D01*
X181392537Y-59636372D01*
X181393127Y-59644881D01*
X181393537Y-59653764D01*
X181393777Y-59663024D01*
X181393855Y-59672668D01*
X181393855Y-59854531D01*
X181393777Y-59864174D01*
X181393537Y-59873434D01*
X181393127Y-59882314D01*
X181392537Y-59890821D01*
X181391758Y-59898960D01*
X181390783Y-59906735D01*
X181389601Y-59914151D01*
X181388203Y-59921214D01*
X181386582Y-59927929D01*
X181384728Y-59934301D01*
X181382631Y-59940335D01*
X181380284Y-59946036D01*
X181377677Y-59951409D01*
X181371649Y-59961192D01*
X181364474Y-59969726D01*
X181356082Y-59977050D01*
X181346402Y-59983206D01*
X181341057Y-59985858D01*
X181335362Y-59988234D01*
X181329310Y-59990338D01*
X181322892Y-59992175D01*
X181316097Y-59993751D01*
X181308919Y-59995070D01*
X181301346Y-59996138D01*
X181293372Y-59996960D01*
X181284986Y-59997541D01*
X181276181Y-59997886D01*
X181266946Y-59998000D01*
X181103987Y-59998000D01*
X181103987Y-59947734D01*
X181236758Y-59947734D01*
X181247388Y-59947553D01*
X181256948Y-59946964D01*
X181265492Y-59945899D01*
X181273071Y-59944290D01*
X181279739Y-59942071D01*
X181285550Y-59939172D01*
X181290555Y-59935526D01*
X181294808Y-59931065D01*
X181298362Y-59925721D01*
X181301271Y-59919427D01*
X181303586Y-59912114D01*
X181305362Y-59903716D01*
X181306650Y-59894163D01*
X181307505Y-59883388D01*
X181307786Y-59877521D01*
X181307979Y-59871324D01*
X181308090Y-59864787D01*
X181308125Y-59857902D01*
X181308125Y-59669151D01*
G37*
G36*
X180929747Y-59529167D02*
G01*
X180938552Y-59529513D01*
X180946938Y-59530096D01*
X180954912Y-59530921D01*
X180962484Y-59531992D01*
X180969663Y-59533315D01*
X180976458Y-59534895D01*
X180982876Y-59536738D01*
X180988928Y-59538847D01*
X180994623Y-59541228D01*
X180999968Y-59543887D01*
X181009648Y-59550056D01*
X181018040Y-59557393D01*
X181025215Y-59565940D01*
X181031243Y-59575737D01*
X181033850Y-59581117D01*
X181036197Y-59586824D01*
X181038294Y-59592864D01*
X181040148Y-59599242D01*
X181041769Y-59605962D01*
X181043167Y-59613030D01*
X181044349Y-59620451D01*
X181045324Y-59628230D01*
X181046103Y-59636372D01*
X181046693Y-59644881D01*
X181047103Y-59653764D01*
X181047343Y-59663024D01*
X181047420Y-59672668D01*
X181047420Y-59854531D01*
X181047343Y-59864174D01*
X181047103Y-59873434D01*
X181046693Y-59882314D01*
X181046103Y-59890821D01*
X181045324Y-59898960D01*
X181044349Y-59906735D01*
X181043167Y-59914151D01*
X181041769Y-59921214D01*
X181040148Y-59927929D01*
X181038294Y-59934301D01*
X181036197Y-59940335D01*
X181033850Y-59946036D01*
X181031243Y-59951409D01*
X181025215Y-59961192D01*
X181018040Y-59969726D01*
X181009648Y-59977050D01*
X180999968Y-59983206D01*
X180994623Y-59985858D01*
X180988928Y-59988234D01*
X180982876Y-59990338D01*
X180976458Y-59992175D01*
X180969663Y-59993751D01*
X180962484Y-59995070D01*
X180954912Y-59996138D01*
X180946938Y-59996960D01*
X180938552Y-59997541D01*
X180929747Y-59997886D01*
X180920512Y-59998000D01*
X180807965Y-59998000D01*
X180798730Y-59997886D01*
X180789924Y-59997541D01*
X180781539Y-59996960D01*
X180773564Y-59996138D01*
X180765992Y-59995070D01*
X180758813Y-59993751D01*
X180752019Y-59992175D01*
X180745600Y-59990338D01*
X180739548Y-59988234D01*
X180733854Y-59985858D01*
X180728508Y-59983206D01*
X180718828Y-59977050D01*
X180710437Y-59969726D01*
X180703262Y-59961192D01*
X180697233Y-59951409D01*
X180694627Y-59946036D01*
X180692279Y-59940335D01*
X180690183Y-59934301D01*
X180688329Y-59927929D01*
X180686707Y-59921214D01*
X180685310Y-59914151D01*
X180684128Y-59906735D01*
X180683152Y-59898960D01*
X180682374Y-59890821D01*
X180681784Y-59882314D01*
X180681374Y-59873434D01*
X180681134Y-59864174D01*
X180681083Y-59857902D01*
X180766785Y-59857902D01*
X180766821Y-59864787D01*
X180766932Y-59871324D01*
X180767124Y-59877521D01*
X180767406Y-59883388D01*
X180768261Y-59894163D01*
X180769549Y-59903716D01*
X180771325Y-59912114D01*
X180773640Y-59919427D01*
X180776548Y-59925721D01*
X180780103Y-59931065D01*
X180784356Y-59935526D01*
X180789361Y-59939172D01*
X180795171Y-59942071D01*
X180801840Y-59944290D01*
X180809419Y-59945899D01*
X180817962Y-59946964D01*
X180827523Y-59947553D01*
X180838153Y-59947734D01*
X180890323Y-59947734D01*
X180900954Y-59947553D01*
X180910514Y-59946964D01*
X180919058Y-59945899D01*
X180926637Y-59944290D01*
X180933305Y-59942071D01*
X180939115Y-59939172D01*
X180944121Y-59935526D01*
X180948374Y-59931065D01*
X180951928Y-59925721D01*
X180954836Y-59919427D01*
X180957152Y-59912114D01*
X180958927Y-59903716D01*
X180960216Y-59894163D01*
X180961071Y-59883388D01*
X180961352Y-59877521D01*
X180961545Y-59871324D01*
X180961656Y-59864787D01*
X180961691Y-59857902D01*
X180961691Y-59669151D01*
X180961656Y-59662266D01*
X180961545Y-59655731D01*
X180961352Y-59649535D01*
X180961071Y-59643671D01*
X180960216Y-59632903D01*
X180958927Y-59623360D01*
X180957152Y-59614972D01*
X180954836Y-59607672D01*
X180951928Y-59601391D01*
X180948374Y-59596061D01*
X180944121Y-59591614D01*
X180939115Y-59587981D01*
X180933305Y-59585095D01*
X180926637Y-59582886D01*
X180919058Y-59581287D01*
X180910514Y-59580229D01*
X180900954Y-59579645D01*
X180890323Y-59579465D01*
X180838153Y-59579465D01*
X180827523Y-59579645D01*
X180817962Y-59580229D01*
X180809419Y-59581287D01*
X180801840Y-59582886D01*
X180795171Y-59585095D01*
X180789361Y-59587981D01*
X180784356Y-59591614D01*
X180780103Y-59596061D01*
X180776548Y-59601391D01*
X180773640Y-59607672D01*
X180771325Y-59614972D01*
X180769549Y-59623360D01*
X180768261Y-59632903D01*
X180767406Y-59643671D01*
X180767124Y-59649535D01*
X180766932Y-59655731D01*
X180766821Y-59662266D01*
X180766785Y-59669151D01*
X180766785Y-59857902D01*
X180681083Y-59857902D01*
X180681056Y-59854531D01*
X180681056Y-59672668D01*
X180681134Y-59663024D01*
X180681374Y-59653764D01*
X180681784Y-59644881D01*
X180682374Y-59636372D01*
X180683152Y-59628230D01*
X180684128Y-59620451D01*
X180685310Y-59613030D01*
X180686707Y-59605962D01*
X180688329Y-59599242D01*
X180690183Y-59592864D01*
X180692279Y-59586824D01*
X180694627Y-59581117D01*
X180697233Y-59575737D01*
X180703262Y-59565940D01*
X180710437Y-59557393D01*
X180718828Y-59550056D01*
X180728508Y-59543887D01*
X180733854Y-59541228D01*
X180739548Y-59538847D01*
X180745600Y-59536738D01*
X180752019Y-59534895D01*
X180758813Y-59533315D01*
X180765992Y-59531992D01*
X180773564Y-59530921D01*
X180781539Y-59530096D01*
X180789924Y-59529513D01*
X180798730Y-59529167D01*
X180807965Y-59529053D01*
X180920512Y-59529053D01*
X180929747Y-59529167D01*
G37*
G36*
X180191447Y-59579465D02*
G01*
X180180816Y-59579646D01*
X180171256Y-59580235D01*
X180162713Y-59581299D01*
X180155133Y-59582906D01*
X180148465Y-59585124D01*
X180142655Y-59588020D01*
X180137650Y-59591661D01*
X180133397Y-59596116D01*
X180129842Y-59601452D01*
X180126934Y-59607737D01*
X180124619Y-59615037D01*
X180122843Y-59623422D01*
X180121554Y-59632958D01*
X180120699Y-59643713D01*
X180120418Y-59649569D01*
X180120225Y-59655755D01*
X180120115Y-59662279D01*
X180120079Y-59669151D01*
X180120079Y-59998000D01*
X180034350Y-59998000D01*
X180034350Y-59672521D01*
X180034428Y-59662891D01*
X180034668Y-59653643D01*
X180035078Y-59644772D01*
X180035668Y-59636273D01*
X180036446Y-59628142D01*
X180037422Y-59620373D01*
X180038604Y-59612960D01*
X180040001Y-59605900D01*
X180041623Y-59599188D01*
X180043477Y-59592817D01*
X180045573Y-59586783D01*
X180047920Y-59581081D01*
X180050527Y-59575707D01*
X180056556Y-59565918D01*
X180063730Y-59557378D01*
X180072122Y-59550046D01*
X180081802Y-59543881D01*
X180087148Y-59541224D01*
X180092842Y-59538844D01*
X180098894Y-59536735D01*
X180105313Y-59534894D01*
X180112107Y-59533314D01*
X180119286Y-59531991D01*
X180126858Y-59530920D01*
X180134833Y-59530096D01*
X180143218Y-59529513D01*
X180152024Y-59529167D01*
X180161259Y-59529053D01*
X180603973Y-59529053D01*
X180603973Y-59998000D01*
X180518244Y-59998000D01*
X180518244Y-59579465D01*
X180362026Y-59579465D01*
X180362026Y-59998000D01*
X180276297Y-59998000D01*
X180276297Y-59579465D01*
X180191447Y-59579465D01*
G37*
G36*
X179807644Y-59407127D02*
G01*
X180025264Y-60091789D01*
X179955508Y-60091789D01*
X179739647Y-59407127D01*
X179807644Y-59407127D01*
G37*
G36*
X179430142Y-59407127D02*
G01*
X179532577Y-59638963D01*
X179625927Y-59407127D01*
X179720009Y-59407127D01*
X179595592Y-59704762D01*
X179595592Y-59998000D01*
X179507372Y-59998000D01*
X179507372Y-59706374D01*
X179374748Y-59407127D01*
X179430142Y-59407127D01*
G37*
G36*
X179252236Y-59841489D02*
G01*
X179252198Y-59832909D01*
X179252078Y-59824724D01*
X179251867Y-59816924D01*
X179251556Y-59809503D01*
X179251136Y-59802451D01*
X179250598Y-59795761D01*
X179249933Y-59789426D01*
X179249133Y-59783436D01*
X179247088Y-59772463D01*
X179244392Y-59762779D01*
X179240972Y-59754320D01*
X179236757Y-59747022D01*
X179231674Y-59740821D01*
X179225653Y-59735654D01*
X179218620Y-59731457D01*
X179210504Y-59728165D01*
X179201234Y-59725717D01*
X179190736Y-59724046D01*
X179178940Y-59723091D01*
X179172533Y-59722861D01*
X179165774Y-59722787D01*
X179112871Y-59722787D01*
X179105077Y-59722701D01*
X179097604Y-59722433D01*
X179090446Y-59721968D01*
X179083598Y-59721293D01*
X179077055Y-59720393D01*
X179070814Y-59719253D01*
X179064868Y-59717859D01*
X179059214Y-59716197D01*
X179048761Y-59712009D01*
X179039416Y-59706573D01*
X179031141Y-59699775D01*
X179023899Y-59691499D01*
X179017651Y-59681629D01*
X179014888Y-59676061D01*
X179012359Y-59670050D01*
X179010060Y-59663584D01*
X179007986Y-59656647D01*
X179006132Y-59649224D01*
X179004493Y-59641303D01*
X179003065Y-59632867D01*
X179001843Y-59623903D01*
X179000821Y-59614396D01*
X178999996Y-59604333D01*
X178999363Y-59593697D01*
X178998916Y-59582475D01*
X178998652Y-59570653D01*
X178998565Y-59558216D01*
X178998667Y-59547816D01*
X178998975Y-59537851D01*
X178999494Y-59528315D01*
X179000230Y-59519200D01*
X179001187Y-59510500D01*
X179002369Y-59502207D01*
X179003782Y-59494316D01*
X179005430Y-59486818D01*
X179007318Y-59479708D01*
X179009450Y-59472977D01*
X179011833Y-59466620D01*
X179014469Y-59460629D01*
X179017365Y-59454998D01*
X179020524Y-59449719D01*
X179023953Y-59444786D01*
X179027654Y-59440192D01*
X179035897Y-59431992D01*
X179045291Y-59425064D01*
X179050431Y-59422060D01*
X179055874Y-59419353D01*
X179061623Y-59416937D01*
X179067684Y-59414805D01*
X179074062Y-59412949D01*
X179080760Y-59411363D01*
X179087785Y-59410040D01*
X179095140Y-59408973D01*
X179102831Y-59408155D01*
X179110862Y-59407579D01*
X179119239Y-59407239D01*
X179127965Y-59407127D01*
X179314517Y-59407127D01*
X179314517Y-59457539D01*
X179148921Y-59457539D01*
X179140540Y-59457799D01*
X179132708Y-59458620D01*
X179125423Y-59460058D01*
X179118684Y-59462173D01*
X179112491Y-59465024D01*
X179106842Y-59468667D01*
X179101736Y-59473163D01*
X179097172Y-59478568D01*
X179093149Y-59484942D01*
X179089666Y-59492344D01*
X179086721Y-59500830D01*
X179084315Y-59510460D01*
X179082445Y-59521293D01*
X179081711Y-59527178D01*
X179081110Y-59533385D01*
X179080644Y-59539923D01*
X179080311Y-59546797D01*
X179080111Y-59554016D01*
X179080044Y-59561586D01*
X179080073Y-59568795D01*
X179080163Y-59575721D01*
X179080322Y-59582370D01*
X179080558Y-59588743D01*
X179080878Y-59594846D01*
X179081801Y-59606251D01*
X179083151Y-59616613D01*
X179084990Y-59625959D01*
X179087376Y-59634317D01*
X179090371Y-59641715D01*
X179094035Y-59648180D01*
X179098428Y-59653740D01*
X179103611Y-59658424D01*
X179109643Y-59662257D01*
X179116585Y-59665269D01*
X179124498Y-59667486D01*
X179133441Y-59668937D01*
X179143476Y-59669649D01*
X179148921Y-59669737D01*
X179191859Y-59669737D01*
X179202698Y-59669867D01*
X179213023Y-59670259D01*
X179222843Y-59670922D01*
X179232171Y-59671861D01*
X179241017Y-59673084D01*
X179249393Y-59674596D01*
X179257310Y-59676405D01*
X179264779Y-59678516D01*
X179271811Y-59680937D01*
X179278418Y-59683674D01*
X179284611Y-59686734D01*
X179290401Y-59690124D01*
X179295799Y-59693849D01*
X179300817Y-59697917D01*
X179305465Y-59702334D01*
X179309755Y-59707106D01*
X179313698Y-59712241D01*
X179317305Y-59717745D01*
X179320588Y-59723625D01*
X179323558Y-59729887D01*
X179326226Y-59736537D01*
X179328603Y-59743583D01*
X179330700Y-59751031D01*
X179332529Y-59758887D01*
X179334101Y-59767159D01*
X179335426Y-59775852D01*
X179336517Y-59784974D01*
X179337385Y-59794531D01*
X179338040Y-59804529D01*
X179338494Y-59814975D01*
X179338758Y-59825876D01*
X179338844Y-59837239D01*
X179338844Y-59998000D01*
X179008677Y-59998000D01*
X179008677Y-59947734D01*
X179252236Y-59947734D01*
X179252236Y-59841489D01*
G37*
G36*
X178759256Y-59659186D02*
G01*
X178590289Y-59407127D01*
X178666785Y-59407127D01*
X178839856Y-59665927D01*
X178839856Y-59407127D01*
X178928076Y-59407127D01*
X178928076Y-59998000D01*
X178839856Y-59998000D01*
X178839856Y-59680288D01*
X178665906Y-59998000D01*
X178568453Y-59998000D01*
X178759256Y-59659186D01*
G37*
G36*
X178417365Y-59697874D02*
G01*
X178586185Y-59697874D01*
X178586185Y-59748286D01*
X178417365Y-59748286D01*
X178417365Y-59697874D01*
G37*
G36*
X178401831Y-59529053D02*
G01*
X178275948Y-59749605D01*
X178416192Y-59998000D01*
X178350686Y-59998000D01*
X178240631Y-59800309D01*
X178144057Y-59998000D01*
X178043233Y-59998000D01*
X178175857Y-59748872D01*
X178049975Y-59529053D01*
X178116213Y-59529053D01*
X178210296Y-59698900D01*
X178301154Y-59529053D01*
X178401831Y-59529053D01*
G37*
D11*
X159625000Y-58575000D03*
X174446252Y-58698748D03*
X175921252Y-79098748D03*
%LPD*%
M02*
