M48
; DRILL file {KiCad 7.0.5} date Tue 01 Aug 2023 12:39:00 AM CDT
; FORMAT={-:-/ absolute / metric / decimal}
; #@! TF.CreationDate,2023-08-01T00:39:00-05:00
; #@! TF.GenerationSoftware,Kicad,Pcbnew,7.0.5
; #@! TF.FileFunction,Plated,1,2,PTH
FMAT,2
METRIC
; #@! TA.AperFunction,Plated,PTH,ViaDrill
T1C0.400
%
G90
G05
T1
X158.125Y-63.625
X158.425Y-75.525
X158.425Y-76.425
X158.425Y-79.85
X158.525Y-60.325
X159.325Y-75.525
X159.325Y-76.425
X159.325Y-79.85
X160.95Y-60.225
X161.125Y-69.925
X161.85Y-57.525
X161.85Y-58.65
X162.771Y-66.874
X162.771Y-67.849
X162.771Y-68.824
X163.3Y-57.525
X163.3Y-58.7
X163.5Y-75.525
X163.5Y-76.425
X163.525Y-79.85
X163.771Y-66.899
X163.771Y-67.849
X163.771Y-68.824
X164.4Y-75.525
X164.4Y-76.425
X164.425Y-79.85
X164.6Y-72.675
X164.646Y-71.074
X164.721Y-66.874
X164.721Y-67.849
X164.721Y-68.824
X164.775Y-57.55
X164.775Y-58.675
X165.7Y-59.575
X166.325Y-66.15
X167.5Y-72.825
X167.5Y-73.725
X168.4Y-72.825
X168.4Y-73.725
X170.575Y-76.2
X170.575Y-77.1
X171.375Y-59.15
X171.375Y-59.15
X171.375Y-60.05
X171.475Y-76.2
X171.475Y-77.1
X172.275Y-59.15
X172.275Y-60.05
X172.925Y-71.35
X172.925Y-72.25
X173.05Y-61.775
X173.05Y-61.775
X173.05Y-62.675
X173.825Y-71.35
X173.825Y-72.25
X173.95Y-61.775
X173.95Y-62.675
X175.25Y-76.25
X175.25Y-77.15
X176.15Y-76.25
X176.15Y-77.15
X176.375Y-59.65
X176.4Y-57.9
X177.025Y-68.85
X178.0Y-78.975
X178.0Y-79.875
X178.566Y-72.596
X180.9Y-79.0
X182.45Y-65.25
X182.45Y-66.15
X182.45Y-67.725
X182.45Y-68.625
X182.45Y-70.225
X182.45Y-71.125
X183.35Y-65.25
X183.35Y-66.15
X183.35Y-67.725
X183.35Y-68.625
X183.35Y-70.225
X183.35Y-71.125
X186.15Y-73.05
X186.15Y-73.95
X186.15Y-75.675
X186.15Y-76.575
T0
M30
