%TF.GenerationSoftware,KiCad,Pcbnew,7.0.5*%
%TF.CreationDate,2023-08-01T00:38:59-05:00*%
%TF.ProjectId,psxpress-pms,70737870-7265-4737-932d-706d732e6b69,rev?*%
%TF.SameCoordinates,Original*%
%TF.FileFunction,Drillmap*%
%TF.FilePolarity,Positive*%
%FSLAX45Y45*%
G04 Gerber Fmt 4.5, Leading zero omitted, Abs format (unit mm)*
G04 Created by KiCad (PCBNEW 7.0.5) date 2023-08-01 00:38:59*
%MOMM*%
%LPD*%
G01*
G04 APERTURE LIST*
%ADD10C,0.100000*%
%ADD11C,0.200000*%
%ADD12C,0.220000*%
G04 APERTURE END LIST*
D10*
X15741625Y-5667375D02*
X18706665Y-5667375D01*
X18706665Y-8077375D01*
X15741625Y-8077375D01*
X15741625Y-5667375D01*
D11*
D12*
X15852500Y-5747500D02*
X16072500Y-5967500D01*
X16072500Y-5747500D02*
X15852500Y-5967500D01*
X17334625Y-5759875D02*
X17554625Y-5979875D01*
X17554625Y-5759875D02*
X17334625Y-5979875D01*
X17482125Y-7799875D02*
X17702125Y-8019875D01*
X17702125Y-7799875D02*
X17482125Y-8019875D01*
D11*
X15997402Y-8393859D02*
X15997402Y-8193859D01*
X15997402Y-8193859D02*
X16045021Y-8193859D01*
X16045021Y-8193859D02*
X16073592Y-8203382D01*
X16073592Y-8203382D02*
X16092640Y-8222430D01*
X16092640Y-8222430D02*
X16102164Y-8241478D01*
X16102164Y-8241478D02*
X16111688Y-8279573D01*
X16111688Y-8279573D02*
X16111688Y-8308144D01*
X16111688Y-8308144D02*
X16102164Y-8346239D01*
X16102164Y-8346239D02*
X16092640Y-8365287D01*
X16092640Y-8365287D02*
X16073592Y-8384335D01*
X16073592Y-8384335D02*
X16045021Y-8393859D01*
X16045021Y-8393859D02*
X15997402Y-8393859D01*
X16197402Y-8393859D02*
X16197402Y-8260525D01*
X16197402Y-8298620D02*
X16206926Y-8279573D01*
X16206926Y-8279573D02*
X16216450Y-8270049D01*
X16216450Y-8270049D02*
X16235497Y-8260525D01*
X16235497Y-8260525D02*
X16254545Y-8260525D01*
X16321211Y-8393859D02*
X16321211Y-8260525D01*
X16321211Y-8193859D02*
X16311688Y-8203382D01*
X16311688Y-8203382D02*
X16321211Y-8212906D01*
X16321211Y-8212906D02*
X16330735Y-8203382D01*
X16330735Y-8203382D02*
X16321211Y-8193859D01*
X16321211Y-8193859D02*
X16321211Y-8212906D01*
X16445021Y-8393859D02*
X16425973Y-8384335D01*
X16425973Y-8384335D02*
X16416450Y-8365287D01*
X16416450Y-8365287D02*
X16416450Y-8193859D01*
X16549783Y-8393859D02*
X16530735Y-8384335D01*
X16530735Y-8384335D02*
X16521211Y-8365287D01*
X16521211Y-8365287D02*
X16521211Y-8193859D01*
X16778354Y-8393859D02*
X16778354Y-8193859D01*
X16778354Y-8193859D02*
X16845021Y-8336716D01*
X16845021Y-8336716D02*
X16911688Y-8193859D01*
X16911688Y-8193859D02*
X16911688Y-8393859D01*
X17092640Y-8393859D02*
X17092640Y-8289097D01*
X17092640Y-8289097D02*
X17083116Y-8270049D01*
X17083116Y-8270049D02*
X17064069Y-8260525D01*
X17064069Y-8260525D02*
X17025973Y-8260525D01*
X17025973Y-8260525D02*
X17006926Y-8270049D01*
X17092640Y-8384335D02*
X17073593Y-8393859D01*
X17073593Y-8393859D02*
X17025973Y-8393859D01*
X17025973Y-8393859D02*
X17006926Y-8384335D01*
X17006926Y-8384335D02*
X16997402Y-8365287D01*
X16997402Y-8365287D02*
X16997402Y-8346239D01*
X16997402Y-8346239D02*
X17006926Y-8327192D01*
X17006926Y-8327192D02*
X17025973Y-8317668D01*
X17025973Y-8317668D02*
X17073593Y-8317668D01*
X17073593Y-8317668D02*
X17092640Y-8308144D01*
X17187878Y-8260525D02*
X17187878Y-8460525D01*
X17187878Y-8270049D02*
X17206926Y-8260525D01*
X17206926Y-8260525D02*
X17245021Y-8260525D01*
X17245021Y-8260525D02*
X17264069Y-8270049D01*
X17264069Y-8270049D02*
X17273593Y-8279573D01*
X17273593Y-8279573D02*
X17283116Y-8298620D01*
X17283116Y-8298620D02*
X17283116Y-8355763D01*
X17283116Y-8355763D02*
X17273593Y-8374811D01*
X17273593Y-8374811D02*
X17264069Y-8384335D01*
X17264069Y-8384335D02*
X17245021Y-8393859D01*
X17245021Y-8393859D02*
X17206926Y-8393859D01*
X17206926Y-8393859D02*
X17187878Y-8384335D01*
X17368831Y-8374811D02*
X17378354Y-8384335D01*
X17378354Y-8384335D02*
X17368831Y-8393859D01*
X17368831Y-8393859D02*
X17359307Y-8384335D01*
X17359307Y-8384335D02*
X17368831Y-8374811D01*
X17368831Y-8374811D02*
X17368831Y-8393859D01*
X17368831Y-8270049D02*
X17378354Y-8279573D01*
X17378354Y-8279573D02*
X17368831Y-8289097D01*
X17368831Y-8289097D02*
X17359307Y-8279573D01*
X17359307Y-8279573D02*
X17368831Y-8270049D01*
X17368831Y-8270049D02*
X17368831Y-8289097D01*
X15536625Y-8622375D02*
X15736625Y-8822375D01*
X15736625Y-8622375D02*
X15536625Y-8822375D01*
X15987878Y-8632906D02*
X15997402Y-8623382D01*
X15997402Y-8623382D02*
X16016450Y-8613859D01*
X16016450Y-8613859D02*
X16064069Y-8613859D01*
X16064069Y-8613859D02*
X16083116Y-8623382D01*
X16083116Y-8623382D02*
X16092640Y-8632906D01*
X16092640Y-8632906D02*
X16102164Y-8651954D01*
X16102164Y-8651954D02*
X16102164Y-8671001D01*
X16102164Y-8671001D02*
X16092640Y-8699573D01*
X16092640Y-8699573D02*
X15978354Y-8813859D01*
X15978354Y-8813859D02*
X16102164Y-8813859D01*
X16187878Y-8794811D02*
X16197402Y-8804335D01*
X16197402Y-8804335D02*
X16187878Y-8813859D01*
X16187878Y-8813859D02*
X16178354Y-8804335D01*
X16178354Y-8804335D02*
X16187878Y-8794811D01*
X16187878Y-8794811D02*
X16187878Y-8813859D01*
X16273592Y-8632906D02*
X16283116Y-8623382D01*
X16283116Y-8623382D02*
X16302164Y-8613859D01*
X16302164Y-8613859D02*
X16349783Y-8613859D01*
X16349783Y-8613859D02*
X16368831Y-8623382D01*
X16368831Y-8623382D02*
X16378354Y-8632906D01*
X16378354Y-8632906D02*
X16387878Y-8651954D01*
X16387878Y-8651954D02*
X16387878Y-8671001D01*
X16387878Y-8671001D02*
X16378354Y-8699573D01*
X16378354Y-8699573D02*
X16264069Y-8813859D01*
X16264069Y-8813859D02*
X16387878Y-8813859D01*
X16511688Y-8613859D02*
X16530735Y-8613859D01*
X16530735Y-8613859D02*
X16549783Y-8623382D01*
X16549783Y-8623382D02*
X16559307Y-8632906D01*
X16559307Y-8632906D02*
X16568831Y-8651954D01*
X16568831Y-8651954D02*
X16578354Y-8690049D01*
X16578354Y-8690049D02*
X16578354Y-8737668D01*
X16578354Y-8737668D02*
X16568831Y-8775763D01*
X16568831Y-8775763D02*
X16559307Y-8794811D01*
X16559307Y-8794811D02*
X16549783Y-8804335D01*
X16549783Y-8804335D02*
X16530735Y-8813859D01*
X16530735Y-8813859D02*
X16511688Y-8813859D01*
X16511688Y-8813859D02*
X16492640Y-8804335D01*
X16492640Y-8804335D02*
X16483116Y-8794811D01*
X16483116Y-8794811D02*
X16473592Y-8775763D01*
X16473592Y-8775763D02*
X16464069Y-8737668D01*
X16464069Y-8737668D02*
X16464069Y-8690049D01*
X16464069Y-8690049D02*
X16473592Y-8651954D01*
X16473592Y-8651954D02*
X16483116Y-8632906D01*
X16483116Y-8632906D02*
X16492640Y-8623382D01*
X16492640Y-8623382D02*
X16511688Y-8613859D01*
X16702164Y-8613859D02*
X16721212Y-8613859D01*
X16721212Y-8613859D02*
X16740259Y-8623382D01*
X16740259Y-8623382D02*
X16749783Y-8632906D01*
X16749783Y-8632906D02*
X16759307Y-8651954D01*
X16759307Y-8651954D02*
X16768831Y-8690049D01*
X16768831Y-8690049D02*
X16768831Y-8737668D01*
X16768831Y-8737668D02*
X16759307Y-8775763D01*
X16759307Y-8775763D02*
X16749783Y-8794811D01*
X16749783Y-8794811D02*
X16740259Y-8804335D01*
X16740259Y-8804335D02*
X16721212Y-8813859D01*
X16721212Y-8813859D02*
X16702164Y-8813859D01*
X16702164Y-8813859D02*
X16683116Y-8804335D01*
X16683116Y-8804335D02*
X16673592Y-8794811D01*
X16673592Y-8794811D02*
X16664069Y-8775763D01*
X16664069Y-8775763D02*
X16654545Y-8737668D01*
X16654545Y-8737668D02*
X16654545Y-8690049D01*
X16654545Y-8690049D02*
X16664069Y-8651954D01*
X16664069Y-8651954D02*
X16673592Y-8632906D01*
X16673592Y-8632906D02*
X16683116Y-8623382D01*
X16683116Y-8623382D02*
X16702164Y-8613859D01*
X16854545Y-8813859D02*
X16854545Y-8680525D01*
X16854545Y-8699573D02*
X16864069Y-8690049D01*
X16864069Y-8690049D02*
X16883116Y-8680525D01*
X16883116Y-8680525D02*
X16911688Y-8680525D01*
X16911688Y-8680525D02*
X16930735Y-8690049D01*
X16930735Y-8690049D02*
X16940259Y-8709097D01*
X16940259Y-8709097D02*
X16940259Y-8813859D01*
X16940259Y-8709097D02*
X16949783Y-8690049D01*
X16949783Y-8690049D02*
X16968831Y-8680525D01*
X16968831Y-8680525D02*
X16997402Y-8680525D01*
X16997402Y-8680525D02*
X17016450Y-8690049D01*
X17016450Y-8690049D02*
X17025974Y-8709097D01*
X17025974Y-8709097D02*
X17025974Y-8813859D01*
X17121212Y-8813859D02*
X17121212Y-8680525D01*
X17121212Y-8699573D02*
X17130735Y-8690049D01*
X17130735Y-8690049D02*
X17149783Y-8680525D01*
X17149783Y-8680525D02*
X17178355Y-8680525D01*
X17178355Y-8680525D02*
X17197402Y-8690049D01*
X17197402Y-8690049D02*
X17206926Y-8709097D01*
X17206926Y-8709097D02*
X17206926Y-8813859D01*
X17206926Y-8709097D02*
X17216450Y-8690049D01*
X17216450Y-8690049D02*
X17235497Y-8680525D01*
X17235497Y-8680525D02*
X17264069Y-8680525D01*
X17264069Y-8680525D02*
X17283116Y-8690049D01*
X17283116Y-8690049D02*
X17292640Y-8709097D01*
X17292640Y-8709097D02*
X17292640Y-8813859D01*
X17683116Y-8604335D02*
X17511688Y-8861478D01*
X17940259Y-8613859D02*
X17959307Y-8613859D01*
X17959307Y-8613859D02*
X17978355Y-8623382D01*
X17978355Y-8623382D02*
X17987878Y-8632906D01*
X17987878Y-8632906D02*
X17997402Y-8651954D01*
X17997402Y-8651954D02*
X18006926Y-8690049D01*
X18006926Y-8690049D02*
X18006926Y-8737668D01*
X18006926Y-8737668D02*
X17997402Y-8775763D01*
X17997402Y-8775763D02*
X17987878Y-8794811D01*
X17987878Y-8794811D02*
X17978355Y-8804335D01*
X17978355Y-8804335D02*
X17959307Y-8813859D01*
X17959307Y-8813859D02*
X17940259Y-8813859D01*
X17940259Y-8813859D02*
X17921212Y-8804335D01*
X17921212Y-8804335D02*
X17911688Y-8794811D01*
X17911688Y-8794811D02*
X17902164Y-8775763D01*
X17902164Y-8775763D02*
X17892640Y-8737668D01*
X17892640Y-8737668D02*
X17892640Y-8690049D01*
X17892640Y-8690049D02*
X17902164Y-8651954D01*
X17902164Y-8651954D02*
X17911688Y-8632906D01*
X17911688Y-8632906D02*
X17921212Y-8623382D01*
X17921212Y-8623382D02*
X17940259Y-8613859D01*
X18092640Y-8794811D02*
X18102164Y-8804335D01*
X18102164Y-8804335D02*
X18092640Y-8813859D01*
X18092640Y-8813859D02*
X18083117Y-8804335D01*
X18083117Y-8804335D02*
X18092640Y-8794811D01*
X18092640Y-8794811D02*
X18092640Y-8813859D01*
X18225974Y-8613859D02*
X18245021Y-8613859D01*
X18245021Y-8613859D02*
X18264069Y-8623382D01*
X18264069Y-8623382D02*
X18273593Y-8632906D01*
X18273593Y-8632906D02*
X18283117Y-8651954D01*
X18283117Y-8651954D02*
X18292640Y-8690049D01*
X18292640Y-8690049D02*
X18292640Y-8737668D01*
X18292640Y-8737668D02*
X18283117Y-8775763D01*
X18283117Y-8775763D02*
X18273593Y-8794811D01*
X18273593Y-8794811D02*
X18264069Y-8804335D01*
X18264069Y-8804335D02*
X18245021Y-8813859D01*
X18245021Y-8813859D02*
X18225974Y-8813859D01*
X18225974Y-8813859D02*
X18206926Y-8804335D01*
X18206926Y-8804335D02*
X18197402Y-8794811D01*
X18197402Y-8794811D02*
X18187878Y-8775763D01*
X18187878Y-8775763D02*
X18178355Y-8737668D01*
X18178355Y-8737668D02*
X18178355Y-8690049D01*
X18178355Y-8690049D02*
X18187878Y-8651954D01*
X18187878Y-8651954D02*
X18197402Y-8632906D01*
X18197402Y-8632906D02*
X18206926Y-8623382D01*
X18206926Y-8623382D02*
X18225974Y-8613859D01*
X18406926Y-8699573D02*
X18387878Y-8690049D01*
X18387878Y-8690049D02*
X18378355Y-8680525D01*
X18378355Y-8680525D02*
X18368831Y-8661478D01*
X18368831Y-8661478D02*
X18368831Y-8651954D01*
X18368831Y-8651954D02*
X18378355Y-8632906D01*
X18378355Y-8632906D02*
X18387878Y-8623382D01*
X18387878Y-8623382D02*
X18406926Y-8613859D01*
X18406926Y-8613859D02*
X18445021Y-8613859D01*
X18445021Y-8613859D02*
X18464069Y-8623382D01*
X18464069Y-8623382D02*
X18473593Y-8632906D01*
X18473593Y-8632906D02*
X18483117Y-8651954D01*
X18483117Y-8651954D02*
X18483117Y-8661478D01*
X18483117Y-8661478D02*
X18473593Y-8680525D01*
X18473593Y-8680525D02*
X18464069Y-8690049D01*
X18464069Y-8690049D02*
X18445021Y-8699573D01*
X18445021Y-8699573D02*
X18406926Y-8699573D01*
X18406926Y-8699573D02*
X18387878Y-8709097D01*
X18387878Y-8709097D02*
X18378355Y-8718621D01*
X18378355Y-8718621D02*
X18368831Y-8737668D01*
X18368831Y-8737668D02*
X18368831Y-8775763D01*
X18368831Y-8775763D02*
X18378355Y-8794811D01*
X18378355Y-8794811D02*
X18387878Y-8804335D01*
X18387878Y-8804335D02*
X18406926Y-8813859D01*
X18406926Y-8813859D02*
X18445021Y-8813859D01*
X18445021Y-8813859D02*
X18464069Y-8804335D01*
X18464069Y-8804335D02*
X18473593Y-8794811D01*
X18473593Y-8794811D02*
X18483117Y-8775763D01*
X18483117Y-8775763D02*
X18483117Y-8737668D01*
X18483117Y-8737668D02*
X18473593Y-8718621D01*
X18473593Y-8718621D02*
X18464069Y-8709097D01*
X18464069Y-8709097D02*
X18445021Y-8699573D01*
X18654545Y-8613859D02*
X18616450Y-8613859D01*
X18616450Y-8613859D02*
X18597402Y-8623382D01*
X18597402Y-8623382D02*
X18587878Y-8632906D01*
X18587878Y-8632906D02*
X18568831Y-8661478D01*
X18568831Y-8661478D02*
X18559307Y-8699573D01*
X18559307Y-8699573D02*
X18559307Y-8775763D01*
X18559307Y-8775763D02*
X18568831Y-8794811D01*
X18568831Y-8794811D02*
X18578355Y-8804335D01*
X18578355Y-8804335D02*
X18597402Y-8813859D01*
X18597402Y-8813859D02*
X18635498Y-8813859D01*
X18635498Y-8813859D02*
X18654545Y-8804335D01*
X18654545Y-8804335D02*
X18664069Y-8794811D01*
X18664069Y-8794811D02*
X18673593Y-8775763D01*
X18673593Y-8775763D02*
X18673593Y-8728144D01*
X18673593Y-8728144D02*
X18664069Y-8709097D01*
X18664069Y-8709097D02*
X18654545Y-8699573D01*
X18654545Y-8699573D02*
X18635498Y-8690049D01*
X18635498Y-8690049D02*
X18597402Y-8690049D01*
X18597402Y-8690049D02*
X18578355Y-8699573D01*
X18578355Y-8699573D02*
X18568831Y-8709097D01*
X18568831Y-8709097D02*
X18559307Y-8728144D01*
X18845021Y-8613859D02*
X18806926Y-8613859D01*
X18806926Y-8613859D02*
X18787878Y-8623382D01*
X18787878Y-8623382D02*
X18778355Y-8632906D01*
X18778355Y-8632906D02*
X18759307Y-8661478D01*
X18759307Y-8661478D02*
X18749783Y-8699573D01*
X18749783Y-8699573D02*
X18749783Y-8775763D01*
X18749783Y-8775763D02*
X18759307Y-8794811D01*
X18759307Y-8794811D02*
X18768831Y-8804335D01*
X18768831Y-8804335D02*
X18787878Y-8813859D01*
X18787878Y-8813859D02*
X18825974Y-8813859D01*
X18825974Y-8813859D02*
X18845021Y-8804335D01*
X18845021Y-8804335D02*
X18854545Y-8794811D01*
X18854545Y-8794811D02*
X18864069Y-8775763D01*
X18864069Y-8775763D02*
X18864069Y-8728144D01*
X18864069Y-8728144D02*
X18854545Y-8709097D01*
X18854545Y-8709097D02*
X18845021Y-8699573D01*
X18845021Y-8699573D02*
X18825974Y-8690049D01*
X18825974Y-8690049D02*
X18787878Y-8690049D01*
X18787878Y-8690049D02*
X18768831Y-8699573D01*
X18768831Y-8699573D02*
X18759307Y-8709097D01*
X18759307Y-8709097D02*
X18749783Y-8728144D01*
X18940259Y-8613859D02*
X18940259Y-8651954D01*
X19016450Y-8613859D02*
X19016450Y-8651954D01*
X19311688Y-8890049D02*
X19302164Y-8880525D01*
X19302164Y-8880525D02*
X19283117Y-8851954D01*
X19283117Y-8851954D02*
X19273593Y-8832906D01*
X19273593Y-8832906D02*
X19264069Y-8804335D01*
X19264069Y-8804335D02*
X19254545Y-8756716D01*
X19254545Y-8756716D02*
X19254545Y-8718621D01*
X19254545Y-8718621D02*
X19264069Y-8671001D01*
X19264069Y-8671001D02*
X19273593Y-8642430D01*
X19273593Y-8642430D02*
X19283117Y-8623382D01*
X19283117Y-8623382D02*
X19302164Y-8594811D01*
X19302164Y-8594811D02*
X19311688Y-8585287D01*
X19368831Y-8613859D02*
X19492640Y-8613859D01*
X19492640Y-8613859D02*
X19425974Y-8690049D01*
X19425974Y-8690049D02*
X19454545Y-8690049D01*
X19454545Y-8690049D02*
X19473593Y-8699573D01*
X19473593Y-8699573D02*
X19483117Y-8709097D01*
X19483117Y-8709097D02*
X19492640Y-8728144D01*
X19492640Y-8728144D02*
X19492640Y-8775763D01*
X19492640Y-8775763D02*
X19483117Y-8794811D01*
X19483117Y-8794811D02*
X19473593Y-8804335D01*
X19473593Y-8804335D02*
X19454545Y-8813859D01*
X19454545Y-8813859D02*
X19397402Y-8813859D01*
X19397402Y-8813859D02*
X19378355Y-8804335D01*
X19378355Y-8804335D02*
X19368831Y-8794811D01*
X19730736Y-8813859D02*
X19730736Y-8613859D01*
X19816450Y-8813859D02*
X19816450Y-8709097D01*
X19816450Y-8709097D02*
X19806926Y-8690049D01*
X19806926Y-8690049D02*
X19787879Y-8680525D01*
X19787879Y-8680525D02*
X19759307Y-8680525D01*
X19759307Y-8680525D02*
X19740260Y-8690049D01*
X19740260Y-8690049D02*
X19730736Y-8699573D01*
X19940260Y-8813859D02*
X19921212Y-8804335D01*
X19921212Y-8804335D02*
X19911688Y-8794811D01*
X19911688Y-8794811D02*
X19902164Y-8775763D01*
X19902164Y-8775763D02*
X19902164Y-8718621D01*
X19902164Y-8718621D02*
X19911688Y-8699573D01*
X19911688Y-8699573D02*
X19921212Y-8690049D01*
X19921212Y-8690049D02*
X19940260Y-8680525D01*
X19940260Y-8680525D02*
X19968831Y-8680525D01*
X19968831Y-8680525D02*
X19987879Y-8690049D01*
X19987879Y-8690049D02*
X19997402Y-8699573D01*
X19997402Y-8699573D02*
X20006926Y-8718621D01*
X20006926Y-8718621D02*
X20006926Y-8775763D01*
X20006926Y-8775763D02*
X19997402Y-8794811D01*
X19997402Y-8794811D02*
X19987879Y-8804335D01*
X19987879Y-8804335D02*
X19968831Y-8813859D01*
X19968831Y-8813859D02*
X19940260Y-8813859D01*
X20121212Y-8813859D02*
X20102164Y-8804335D01*
X20102164Y-8804335D02*
X20092641Y-8785287D01*
X20092641Y-8785287D02*
X20092641Y-8613859D01*
X20273593Y-8804335D02*
X20254545Y-8813859D01*
X20254545Y-8813859D02*
X20216450Y-8813859D01*
X20216450Y-8813859D02*
X20197402Y-8804335D01*
X20197402Y-8804335D02*
X20187879Y-8785287D01*
X20187879Y-8785287D02*
X20187879Y-8709097D01*
X20187879Y-8709097D02*
X20197402Y-8690049D01*
X20197402Y-8690049D02*
X20216450Y-8680525D01*
X20216450Y-8680525D02*
X20254545Y-8680525D01*
X20254545Y-8680525D02*
X20273593Y-8690049D01*
X20273593Y-8690049D02*
X20283117Y-8709097D01*
X20283117Y-8709097D02*
X20283117Y-8728144D01*
X20283117Y-8728144D02*
X20187879Y-8747192D01*
X20359307Y-8804335D02*
X20378355Y-8813859D01*
X20378355Y-8813859D02*
X20416450Y-8813859D01*
X20416450Y-8813859D02*
X20435498Y-8804335D01*
X20435498Y-8804335D02*
X20445022Y-8785287D01*
X20445022Y-8785287D02*
X20445022Y-8775763D01*
X20445022Y-8775763D02*
X20435498Y-8756716D01*
X20435498Y-8756716D02*
X20416450Y-8747192D01*
X20416450Y-8747192D02*
X20387879Y-8747192D01*
X20387879Y-8747192D02*
X20368831Y-8737668D01*
X20368831Y-8737668D02*
X20359307Y-8718621D01*
X20359307Y-8718621D02*
X20359307Y-8709097D01*
X20359307Y-8709097D02*
X20368831Y-8690049D01*
X20368831Y-8690049D02*
X20387879Y-8680525D01*
X20387879Y-8680525D02*
X20416450Y-8680525D01*
X20416450Y-8680525D02*
X20435498Y-8690049D01*
X20511688Y-8890049D02*
X20521212Y-8880525D01*
X20521212Y-8880525D02*
X20540260Y-8851954D01*
X20540260Y-8851954D02*
X20549783Y-8832906D01*
X20549783Y-8832906D02*
X20559307Y-8804335D01*
X20559307Y-8804335D02*
X20568831Y-8756716D01*
X20568831Y-8756716D02*
X20568831Y-8718621D01*
X20568831Y-8718621D02*
X20559307Y-8671001D01*
X20559307Y-8671001D02*
X20549783Y-8642430D01*
X20549783Y-8642430D02*
X20540260Y-8623382D01*
X20540260Y-8623382D02*
X20521212Y-8594811D01*
X20521212Y-8594811D02*
X20511688Y-8585287D01*
X20873593Y-8890049D02*
X20864069Y-8880525D01*
X20864069Y-8880525D02*
X20845022Y-8851954D01*
X20845022Y-8851954D02*
X20835498Y-8832906D01*
X20835498Y-8832906D02*
X20825974Y-8804335D01*
X20825974Y-8804335D02*
X20816450Y-8756716D01*
X20816450Y-8756716D02*
X20816450Y-8718621D01*
X20816450Y-8718621D02*
X20825974Y-8671001D01*
X20825974Y-8671001D02*
X20835498Y-8642430D01*
X20835498Y-8642430D02*
X20845022Y-8623382D01*
X20845022Y-8623382D02*
X20864069Y-8594811D01*
X20864069Y-8594811D02*
X20873593Y-8585287D01*
X20949783Y-8680525D02*
X20949783Y-8813859D01*
X20949783Y-8699573D02*
X20959307Y-8690049D01*
X20959307Y-8690049D02*
X20978355Y-8680525D01*
X20978355Y-8680525D02*
X21006926Y-8680525D01*
X21006926Y-8680525D02*
X21025974Y-8690049D01*
X21025974Y-8690049D02*
X21035498Y-8709097D01*
X21035498Y-8709097D02*
X21035498Y-8813859D01*
X21159307Y-8813859D02*
X21140260Y-8804335D01*
X21140260Y-8804335D02*
X21130736Y-8794811D01*
X21130736Y-8794811D02*
X21121212Y-8775763D01*
X21121212Y-8775763D02*
X21121212Y-8718621D01*
X21121212Y-8718621D02*
X21130736Y-8699573D01*
X21130736Y-8699573D02*
X21140260Y-8690049D01*
X21140260Y-8690049D02*
X21159307Y-8680525D01*
X21159307Y-8680525D02*
X21187879Y-8680525D01*
X21187879Y-8680525D02*
X21206926Y-8690049D01*
X21206926Y-8690049D02*
X21216450Y-8699573D01*
X21216450Y-8699573D02*
X21225974Y-8718621D01*
X21225974Y-8718621D02*
X21225974Y-8775763D01*
X21225974Y-8775763D02*
X21216450Y-8794811D01*
X21216450Y-8794811D02*
X21206926Y-8804335D01*
X21206926Y-8804335D02*
X21187879Y-8813859D01*
X21187879Y-8813859D02*
X21159307Y-8813859D01*
X21283117Y-8680525D02*
X21359307Y-8680525D01*
X21311688Y-8613859D02*
X21311688Y-8785287D01*
X21311688Y-8785287D02*
X21321212Y-8804335D01*
X21321212Y-8804335D02*
X21340260Y-8813859D01*
X21340260Y-8813859D02*
X21359307Y-8813859D01*
X21578355Y-8680525D02*
X21578355Y-8880525D01*
X21578355Y-8690049D02*
X21597403Y-8680525D01*
X21597403Y-8680525D02*
X21635498Y-8680525D01*
X21635498Y-8680525D02*
X21654545Y-8690049D01*
X21654545Y-8690049D02*
X21664069Y-8699573D01*
X21664069Y-8699573D02*
X21673593Y-8718621D01*
X21673593Y-8718621D02*
X21673593Y-8775763D01*
X21673593Y-8775763D02*
X21664069Y-8794811D01*
X21664069Y-8794811D02*
X21654545Y-8804335D01*
X21654545Y-8804335D02*
X21635498Y-8813859D01*
X21635498Y-8813859D02*
X21597403Y-8813859D01*
X21597403Y-8813859D02*
X21578355Y-8804335D01*
X21787879Y-8813859D02*
X21768831Y-8804335D01*
X21768831Y-8804335D02*
X21759307Y-8785287D01*
X21759307Y-8785287D02*
X21759307Y-8613859D01*
X21949784Y-8813859D02*
X21949784Y-8709097D01*
X21949784Y-8709097D02*
X21940260Y-8690049D01*
X21940260Y-8690049D02*
X21921212Y-8680525D01*
X21921212Y-8680525D02*
X21883117Y-8680525D01*
X21883117Y-8680525D02*
X21864069Y-8690049D01*
X21949784Y-8804335D02*
X21930736Y-8813859D01*
X21930736Y-8813859D02*
X21883117Y-8813859D01*
X21883117Y-8813859D02*
X21864069Y-8804335D01*
X21864069Y-8804335D02*
X21854545Y-8785287D01*
X21854545Y-8785287D02*
X21854545Y-8766240D01*
X21854545Y-8766240D02*
X21864069Y-8747192D01*
X21864069Y-8747192D02*
X21883117Y-8737668D01*
X21883117Y-8737668D02*
X21930736Y-8737668D01*
X21930736Y-8737668D02*
X21949784Y-8728144D01*
X22016450Y-8680525D02*
X22092641Y-8680525D01*
X22045022Y-8613859D02*
X22045022Y-8785287D01*
X22045022Y-8785287D02*
X22054545Y-8804335D01*
X22054545Y-8804335D02*
X22073593Y-8813859D01*
X22073593Y-8813859D02*
X22092641Y-8813859D01*
X22235498Y-8804335D02*
X22216450Y-8813859D01*
X22216450Y-8813859D02*
X22178355Y-8813859D01*
X22178355Y-8813859D02*
X22159307Y-8804335D01*
X22159307Y-8804335D02*
X22149784Y-8785287D01*
X22149784Y-8785287D02*
X22149784Y-8709097D01*
X22149784Y-8709097D02*
X22159307Y-8690049D01*
X22159307Y-8690049D02*
X22178355Y-8680525D01*
X22178355Y-8680525D02*
X22216450Y-8680525D01*
X22216450Y-8680525D02*
X22235498Y-8690049D01*
X22235498Y-8690049D02*
X22245022Y-8709097D01*
X22245022Y-8709097D02*
X22245022Y-8728144D01*
X22245022Y-8728144D02*
X22149784Y-8747192D01*
X22416450Y-8813859D02*
X22416450Y-8613859D01*
X22416450Y-8804335D02*
X22397403Y-8813859D01*
X22397403Y-8813859D02*
X22359307Y-8813859D01*
X22359307Y-8813859D02*
X22340260Y-8804335D01*
X22340260Y-8804335D02*
X22330736Y-8794811D01*
X22330736Y-8794811D02*
X22321212Y-8775763D01*
X22321212Y-8775763D02*
X22321212Y-8718621D01*
X22321212Y-8718621D02*
X22330736Y-8699573D01*
X22330736Y-8699573D02*
X22340260Y-8690049D01*
X22340260Y-8690049D02*
X22359307Y-8680525D01*
X22359307Y-8680525D02*
X22397403Y-8680525D01*
X22397403Y-8680525D02*
X22416450Y-8690049D01*
X22492641Y-8890049D02*
X22502164Y-8880525D01*
X22502164Y-8880525D02*
X22521212Y-8851954D01*
X22521212Y-8851954D02*
X22530736Y-8832906D01*
X22530736Y-8832906D02*
X22540260Y-8804335D01*
X22540260Y-8804335D02*
X22549783Y-8756716D01*
X22549783Y-8756716D02*
X22549783Y-8718621D01*
X22549783Y-8718621D02*
X22540260Y-8671001D01*
X22540260Y-8671001D02*
X22530736Y-8642430D01*
X22530736Y-8642430D02*
X22521212Y-8623382D01*
X22521212Y-8623382D02*
X22502164Y-8594811D01*
X22502164Y-8594811D02*
X22492641Y-8585287D01*
M02*
