%TF.GenerationSoftware,KiCad,Pcbnew,7.0.7*%
%TF.CreationDate,2023-08-24T02:08:31-05:00*%
%TF.ProjectId,psxpress-pms,70737870-7265-4737-932d-706d732e6b69,rev?*%
%TF.SameCoordinates,Original*%
%TF.FileFunction,Copper,L2,Bot*%
%TF.FilePolarity,Positive*%
%FSLAX46Y46*%
G04 Gerber Fmt 4.6, Leading zero omitted, Abs format (unit mm)*
G04 Created by KiCad (PCBNEW 7.0.7) date 2023-08-24 02:08:31*
%MOMM*%
%LPD*%
G01*
G04 APERTURE LIST*
%TA.AperFunction,ComponentPad*%
%ADD10R,1.045000X1.045000*%
%TD*%
%TA.AperFunction,ComponentPad*%
%ADD11C,1.045000*%
%TD*%
%TA.AperFunction,ViaPad*%
%ADD12C,0.820000*%
%TD*%
%TA.AperFunction,Conductor*%
%ADD13C,0.250000*%
%TD*%
G04 APERTURE END LIST*
D10*
%TO.P,D1,1,K*%
%TO.N,Net-(D1-K)*%
X61472528Y-43015000D03*
D11*
%TO.P,D1,2,A*%
%TO.N,VOUT*%
X62742528Y-43015000D03*
%TD*%
D10*
%TO.P,SW1,1,A*%
%TO.N,GND*%
X68577528Y-64845000D03*
D11*
%TO.P,SW1,2,B*%
%TO.N,Net-(IC2-IN)*%
X69847528Y-64845000D03*
%TD*%
D12*
%TO.N,GND*%
X73847528Y-57625000D03*
X63297528Y-63065000D03*
X54927528Y-58065000D03*
X52212528Y-60730000D03*
X72760000Y-53980000D03*
X56687528Y-54030000D03*
X65277528Y-45195000D03*
X51312528Y-65055000D03*
X64787528Y-62325000D03*
X55687528Y-52080000D03*
X57662528Y-42755000D03*
X70637528Y-52465000D03*
X65750000Y-58800000D03*
X69287528Y-43105000D03*
X57637528Y-54030000D03*
X65277528Y-44295000D03*
X55687528Y-53055000D03*
X76587528Y-54875000D03*
X78197528Y-56095000D03*
X73572528Y-65150000D03*
X69737528Y-52465000D03*
X70637528Y-53365000D03*
X79097528Y-51655000D03*
X51037528Y-48830000D03*
X66977528Y-46985000D03*
X78197528Y-51655000D03*
X78197528Y-56995000D03*
X56412528Y-65055000D03*
X56687528Y-52105000D03*
X75372528Y-65150000D03*
X74472528Y-65150000D03*
X64377528Y-44295000D03*
X56187528Y-43905000D03*
X57662528Y-43880000D03*
X69262528Y-44855000D03*
X55687528Y-54030000D03*
X65687528Y-62325000D03*
X59212528Y-51355000D03*
X54737528Y-42730000D03*
X79097528Y-56995000D03*
X51412528Y-45530000D03*
X60692528Y-55850000D03*
X65687528Y-61425000D03*
X66977528Y-46085000D03*
X78197528Y-50755000D03*
X63297528Y-63965000D03*
X64377528Y-45195000D03*
X63297528Y-64865000D03*
X57312528Y-65055000D03*
X64787528Y-61425000D03*
X67877528Y-46985000D03*
X69737528Y-53365000D03*
X57637528Y-52080000D03*
X61277528Y-58090000D03*
X79110000Y-42720000D03*
X52212528Y-61630000D03*
X56687528Y-53055000D03*
X79097528Y-50755000D03*
X63297528Y-62165000D03*
X57637528Y-53055000D03*
X76272528Y-65150000D03*
X52212528Y-65055000D03*
X79097528Y-56095000D03*
X54737528Y-43855000D03*
X56187528Y-42730000D03*
X51312528Y-61630000D03*
X67877528Y-46085000D03*
X51312528Y-60730000D03*
%TO.N,VSYS*%
X68147528Y-58815000D03*
X70717528Y-61905000D03*
X68647528Y-48665000D03*
X71697528Y-50725000D03*
%TO.N,STAT*%
X54003780Y-55001252D03*
X58587528Y-44780000D03*
%TO.N,Net-(IC1-TS)*%
X57600000Y-56060000D03*
X54140000Y-45570000D03*
%TO.N,+5V*%
X75607528Y-48665000D03*
X76727528Y-52145000D03*
%TO.N,+3.5V*%
X75737528Y-63315000D03*
X74627528Y-59845000D03*
%TO.N,RST*%
X78637528Y-62465000D03*
X74247528Y-55745000D03*
%TO.N,Net-(Q2-G)*%
X56759312Y-56501361D03*
X57742528Y-62050000D03*
%TO.N,Net-(Q3-G)*%
X60347528Y-59175000D03*
X57342528Y-60189502D03*
%TD*%
D13*
%TO.N,VSYS*%
X71697528Y-50725000D02*
X69637528Y-48665000D01*
X68147528Y-59965000D02*
X68147528Y-58815000D01*
X69637528Y-48665000D02*
X68647528Y-48665000D01*
X70717528Y-61905000D02*
X70087528Y-61905000D01*
X70087528Y-61905000D02*
X68147528Y-59965000D01*
%TO.N,STAT*%
X56337528Y-44780000D02*
X58587528Y-44780000D01*
X54003780Y-55001252D02*
X52912528Y-53910000D01*
X52912528Y-48205000D02*
X56337528Y-44780000D01*
X52912528Y-53910000D02*
X52912528Y-48205000D01*
%TO.N,Net-(IC1-TS)*%
X54280485Y-55665000D02*
X57205000Y-55665000D01*
X54279233Y-55666252D02*
X54280485Y-55665000D01*
X51833780Y-53953748D02*
X53546284Y-55666252D01*
X57205000Y-55665000D02*
X57600000Y-56060000D01*
X51833780Y-47876220D02*
X51833780Y-53953748D01*
X54140000Y-45570000D02*
X51833780Y-47876220D01*
X53546284Y-55666252D02*
X54279233Y-55666252D01*
%TO.N,+5V*%
X75607528Y-51025000D02*
X76727528Y-52145000D01*
X75607528Y-48665000D02*
X75607528Y-51025000D01*
%TO.N,+3.5V*%
X75737528Y-63315000D02*
X74627528Y-62205000D01*
X74627528Y-62205000D02*
X74627528Y-59845000D01*
%TO.N,RST*%
X74247528Y-55745000D02*
X74247528Y-56785000D01*
X74247528Y-56785000D02*
X78637528Y-61175000D01*
X78637528Y-61175000D02*
X78637528Y-62465000D01*
%TO.N,Net-(Q2-G)*%
X56357528Y-61275000D02*
X57132528Y-62050000D01*
X56759312Y-56501361D02*
X56357528Y-56903145D01*
X57132528Y-62050000D02*
X57742528Y-62050000D01*
X56357528Y-56903145D02*
X56357528Y-61275000D01*
%TO.N,Net-(Q3-G)*%
X59333026Y-60189502D02*
X57342528Y-60189502D01*
X60347528Y-59175000D02*
X59333026Y-60189502D01*
%TD*%
%TA.AperFunction,Conductor*%
%TO.N,GND*%
G36*
X60636591Y-42198933D02*
G01*
X60682346Y-42251737D01*
X60692290Y-42320895D01*
X60682986Y-42353334D01*
X60652444Y-42422504D01*
X60652443Y-42422508D01*
X60649528Y-42447631D01*
X60649528Y-43582356D01*
X60649530Y-43582382D01*
X60652441Y-43607487D01*
X60652443Y-43607491D01*
X60697821Y-43710264D01*
X60697822Y-43710265D01*
X60777263Y-43789706D01*
X60880037Y-43835085D01*
X60905163Y-43838000D01*
X62039892Y-43837999D01*
X62039907Y-43837997D01*
X62039910Y-43837997D01*
X62065015Y-43835086D01*
X62065016Y-43835085D01*
X62065019Y-43835085D01*
X62167793Y-43789706D01*
X62198496Y-43759002D01*
X62259816Y-43725518D01*
X62329508Y-43730502D01*
X62352149Y-43741691D01*
X62383180Y-43761189D01*
X62383182Y-43761190D01*
X62558234Y-43822443D01*
X62558235Y-43822443D01*
X62558239Y-43822444D01*
X62742524Y-43843208D01*
X62742528Y-43843208D01*
X62742532Y-43843208D01*
X62926816Y-43822444D01*
X62926819Y-43822443D01*
X62926822Y-43822443D01*
X63033829Y-43785000D01*
X65978121Y-43785000D01*
X65998716Y-44020403D01*
X65998718Y-44020413D01*
X66059874Y-44248655D01*
X66059876Y-44248659D01*
X66059877Y-44248663D01*
X66086332Y-44305395D01*
X66159744Y-44462828D01*
X66159745Y-44462830D01*
X66295285Y-44656402D01*
X66462377Y-44823494D01*
X66655949Y-44959034D01*
X66655951Y-44959035D01*
X66870117Y-45058903D01*
X67098372Y-45120063D01*
X67274814Y-45135500D01*
X67392746Y-45135500D01*
X67569188Y-45120063D01*
X67797443Y-45058903D01*
X68011609Y-44959035D01*
X68205181Y-44823495D01*
X68372275Y-44656401D01*
X68507815Y-44462830D01*
X68607683Y-44248663D01*
X68668843Y-44020408D01*
X68689439Y-43785000D01*
X68689001Y-43779999D01*
X68678723Y-43662519D01*
X68668843Y-43549592D01*
X68607683Y-43321337D01*
X68507815Y-43107171D01*
X68507814Y-43107169D01*
X68372274Y-42913597D01*
X68205182Y-42746505D01*
X68011610Y-42610965D01*
X68011608Y-42610964D01*
X67904525Y-42561030D01*
X67797443Y-42511097D01*
X67797439Y-42511096D01*
X67797435Y-42511094D01*
X67569193Y-42449938D01*
X67569183Y-42449936D01*
X67392746Y-42434500D01*
X67274814Y-42434500D01*
X67098376Y-42449936D01*
X67098366Y-42449938D01*
X66870124Y-42511094D01*
X66870115Y-42511098D01*
X66655951Y-42610964D01*
X66655949Y-42610965D01*
X66462377Y-42746505D01*
X66295286Y-42913597D01*
X66295281Y-42913604D01*
X66159747Y-43107165D01*
X66159745Y-43107169D01*
X66116787Y-43199293D01*
X66062210Y-43316335D01*
X66059878Y-43321335D01*
X66059874Y-43321344D01*
X65998718Y-43549586D01*
X65998716Y-43549596D01*
X65978121Y-43784999D01*
X65978121Y-43785000D01*
X63033829Y-43785000D01*
X63101874Y-43761190D01*
X63258907Y-43662519D01*
X63390047Y-43531379D01*
X63488718Y-43374346D01*
X63549971Y-43199294D01*
X63560351Y-43107169D01*
X63570736Y-43015003D01*
X63570736Y-43014996D01*
X63549972Y-42830711D01*
X63549971Y-42830706D01*
X63518758Y-42741505D01*
X63488718Y-42655654D01*
X63390047Y-42498621D01*
X63282355Y-42390928D01*
X63248870Y-42329606D01*
X63253854Y-42259914D01*
X63295726Y-42203981D01*
X63361190Y-42179564D01*
X63370036Y-42179248D01*
X79529680Y-42179248D01*
X79596719Y-42198933D01*
X79642474Y-42251737D01*
X79653680Y-42303248D01*
X79653680Y-65554248D01*
X79633995Y-65621287D01*
X79581191Y-65667042D01*
X79529680Y-65678248D01*
X70477540Y-65678248D01*
X70410501Y-65658563D01*
X70364746Y-65605759D01*
X70354802Y-65536601D01*
X70383827Y-65473045D01*
X70389859Y-65466567D01*
X70389858Y-65466567D01*
X70495047Y-65361379D01*
X70593718Y-65204346D01*
X70654971Y-65029294D01*
X70675736Y-64845000D01*
X70654971Y-64660706D01*
X70593718Y-64485654D01*
X70495047Y-64328621D01*
X70363907Y-64197481D01*
X70363907Y-64197480D01*
X70363906Y-64197480D01*
X70206876Y-64098811D01*
X70206875Y-64098810D01*
X70206874Y-64098810D01*
X70151578Y-64079461D01*
X70031821Y-64037556D01*
X70031816Y-64037555D01*
X69847532Y-64016792D01*
X69847524Y-64016792D01*
X69663239Y-64037555D01*
X69663234Y-64037556D01*
X69488179Y-64098811D01*
X69331149Y-64197480D01*
X69200008Y-64328621D01*
X69101339Y-64485651D01*
X69040084Y-64660706D01*
X69040083Y-64660711D01*
X69019320Y-64844996D01*
X69019320Y-64845003D01*
X69040083Y-65029288D01*
X69040084Y-65029293D01*
X69101339Y-65204348D01*
X69200008Y-65361378D01*
X69305197Y-65466567D01*
X69338682Y-65527890D01*
X69333698Y-65597582D01*
X69291826Y-65653515D01*
X69226362Y-65677932D01*
X69217516Y-65678248D01*
X50728280Y-65678248D01*
X50661241Y-65658563D01*
X50615486Y-65605759D01*
X50604280Y-65554248D01*
X50604280Y-54021142D01*
X51408280Y-54021142D01*
X51415742Y-54044106D01*
X51420283Y-54063021D01*
X51423250Y-54081758D01*
X51424061Y-54086875D01*
X51435023Y-54108389D01*
X51442468Y-54126363D01*
X51449930Y-54149328D01*
X51464120Y-54168858D01*
X51474288Y-54185451D01*
X51485250Y-54206966D01*
X51485252Y-54206967D01*
X51485252Y-54206968D01*
X51509226Y-54230942D01*
X53197756Y-55919472D01*
X53293064Y-56014780D01*
X53314584Y-56025745D01*
X53331159Y-56035901D01*
X53350703Y-56050101D01*
X53373665Y-56057561D01*
X53391638Y-56065005D01*
X53413158Y-56075971D01*
X53437008Y-56079747D01*
X53455929Y-56084291D01*
X53475038Y-56090500D01*
X53478891Y-56091752D01*
X53478892Y-56091752D01*
X54348384Y-56091752D01*
X54364290Y-56090500D01*
X55975606Y-56090500D01*
X56042645Y-56110185D01*
X56088400Y-56162989D01*
X56098344Y-56232147D01*
X56091548Y-56258471D01*
X56064391Y-56330077D01*
X56043593Y-56501360D01*
X56043594Y-56501362D01*
X56048656Y-56543057D01*
X56037195Y-56611981D01*
X56013245Y-56645679D01*
X56009001Y-56649922D01*
X56008999Y-56649926D01*
X55998036Y-56671440D01*
X55987876Y-56688021D01*
X55973678Y-56707563D01*
X55966216Y-56730530D01*
X55958771Y-56748503D01*
X55947808Y-56770018D01*
X55944031Y-56793867D01*
X55939490Y-56812784D01*
X55932028Y-56835749D01*
X55932028Y-56869657D01*
X55932027Y-61258960D01*
X55932028Y-61258970D01*
X55932028Y-61342394D01*
X55939490Y-61365358D01*
X55944031Y-61384273D01*
X55946935Y-61402609D01*
X55947809Y-61408127D01*
X55958771Y-61429641D01*
X55966216Y-61447615D01*
X55973678Y-61470580D01*
X55987868Y-61490110D01*
X55998036Y-61506703D01*
X56008998Y-61528218D01*
X56032974Y-61552194D01*
X56766558Y-62285777D01*
X56766559Y-62285779D01*
X56784000Y-62303220D01*
X56879308Y-62398528D01*
X56900822Y-62409490D01*
X56917412Y-62419656D01*
X56936948Y-62433850D01*
X56959911Y-62441311D01*
X56977887Y-62448756D01*
X56999402Y-62459719D01*
X57023256Y-62463496D01*
X57042167Y-62468036D01*
X57065135Y-62475500D01*
X57099040Y-62475500D01*
X57107827Y-62475500D01*
X57174866Y-62495185D01*
X57200602Y-62520082D01*
X57201831Y-62518995D01*
X57206800Y-62524604D01*
X57206803Y-62524607D01*
X57206805Y-62524609D01*
X57335954Y-62639024D01*
X57488731Y-62719208D01*
X57488733Y-62719208D01*
X57488734Y-62719209D01*
X57656257Y-62760500D01*
X57656258Y-62760500D01*
X57828799Y-62760500D01*
X57996321Y-62719209D01*
X57996321Y-62719208D01*
X57996325Y-62719208D01*
X58149102Y-62639024D01*
X58278251Y-62524609D01*
X58376265Y-62382611D01*
X58437449Y-62221283D01*
X58458246Y-62050000D01*
X58437449Y-61878717D01*
X58376265Y-61717389D01*
X58278251Y-61575391D01*
X58149102Y-61460976D01*
X57996325Y-61380792D01*
X57996324Y-61380791D01*
X57996321Y-61380790D01*
X57828799Y-61339500D01*
X57828798Y-61339500D01*
X57656258Y-61339500D01*
X57656257Y-61339500D01*
X57488734Y-61380790D01*
X57335953Y-61460976D01*
X57322203Y-61473158D01*
X57258969Y-61502877D01*
X57189705Y-61493692D01*
X57152297Y-61468021D01*
X57000254Y-61315978D01*
X56819347Y-61135070D01*
X56785862Y-61073747D01*
X56783028Y-61047389D01*
X56783028Y-60903385D01*
X56802713Y-60836346D01*
X56855517Y-60790591D01*
X56924675Y-60780647D01*
X56964654Y-60793589D01*
X57088731Y-60858710D01*
X57256257Y-60900002D01*
X57256258Y-60900002D01*
X57428799Y-60900002D01*
X57596321Y-60858711D01*
X57596321Y-60858710D01*
X57596325Y-60858710D01*
X57749102Y-60778526D01*
X57878251Y-60664111D01*
X57878253Y-60664107D01*
X57878255Y-60664106D01*
X57883225Y-60658497D01*
X57885311Y-60660345D01*
X57929479Y-60624564D01*
X57977229Y-60615002D01*
X59400418Y-60615002D01*
X59400419Y-60615002D01*
X59423386Y-60607538D01*
X59442302Y-60602997D01*
X59466152Y-60599221D01*
X59487662Y-60588259D01*
X59505640Y-60580812D01*
X59528607Y-60573351D01*
X59548144Y-60559155D01*
X59564732Y-60548990D01*
X59586246Y-60538030D01*
X59681554Y-60442722D01*
X59740113Y-60384163D01*
X59740126Y-60384148D01*
X60202456Y-59921819D01*
X60263779Y-59888334D01*
X60290137Y-59885500D01*
X60433799Y-59885500D01*
X60601321Y-59844209D01*
X60601321Y-59844208D01*
X60601325Y-59844208D01*
X60754102Y-59764024D01*
X60883251Y-59649609D01*
X60981265Y-59507611D01*
X61042449Y-59346283D01*
X61063246Y-59175000D01*
X61042449Y-59003717D01*
X60981265Y-58842389D01*
X60962360Y-58815000D01*
X67431810Y-58815000D01*
X67452606Y-58986282D01*
X67513792Y-59147613D01*
X67533243Y-59175792D01*
X67611805Y-59289609D01*
X67680256Y-59350250D01*
X67717381Y-59409438D01*
X67722028Y-59443065D01*
X67722028Y-60032394D01*
X67729490Y-60055358D01*
X67734031Y-60074273D01*
X67736998Y-60093010D01*
X67737809Y-60098127D01*
X67748771Y-60119641D01*
X67756216Y-60137615D01*
X67763678Y-60160580D01*
X67777868Y-60180110D01*
X67788036Y-60196703D01*
X67798998Y-60218218D01*
X67798999Y-60218219D01*
X67799000Y-60218220D01*
X67822974Y-60242194D01*
X69739000Y-62158220D01*
X69834308Y-62253528D01*
X69855828Y-62264493D01*
X69872403Y-62274649D01*
X69891947Y-62288849D01*
X69914909Y-62296309D01*
X69932882Y-62303753D01*
X69954402Y-62314719D01*
X69978252Y-62318495D01*
X69997173Y-62323039D01*
X70019017Y-62330136D01*
X70020135Y-62330500D01*
X70054040Y-62330500D01*
X70082827Y-62330500D01*
X70149866Y-62350185D01*
X70175602Y-62375082D01*
X70176831Y-62373995D01*
X70181800Y-62379604D01*
X70181803Y-62379607D01*
X70181805Y-62379609D01*
X70310954Y-62494024D01*
X70463731Y-62574208D01*
X70463733Y-62574208D01*
X70463734Y-62574209D01*
X70631257Y-62615500D01*
X70631258Y-62615500D01*
X70803799Y-62615500D01*
X70971321Y-62574209D01*
X70971321Y-62574208D01*
X70971325Y-62574208D01*
X71124102Y-62494024D01*
X71253251Y-62379609D01*
X71351265Y-62237611D01*
X71412449Y-62076283D01*
X71433246Y-61905000D01*
X71412449Y-61733717D01*
X71351265Y-61572389D01*
X71253251Y-61430391D01*
X71124102Y-61315976D01*
X70971325Y-61235792D01*
X70971324Y-61235791D01*
X70971321Y-61235790D01*
X70803799Y-61194500D01*
X70803798Y-61194500D01*
X70631258Y-61194500D01*
X70631257Y-61194500D01*
X70463734Y-61235790D01*
X70310951Y-61315977D01*
X70310950Y-61315978D01*
X70286598Y-61337552D01*
X70223364Y-61367272D01*
X70154101Y-61358087D01*
X70116692Y-61332416D01*
X68629276Y-59844999D01*
X73911810Y-59844999D01*
X73932606Y-60016282D01*
X73971806Y-60119641D01*
X73993791Y-60177611D01*
X74091805Y-60319609D01*
X74160256Y-60380250D01*
X74197381Y-60439438D01*
X74202028Y-60473065D01*
X74202028Y-62272394D01*
X74209490Y-62295358D01*
X74214031Y-62314273D01*
X74214102Y-62314718D01*
X74217809Y-62338127D01*
X74228771Y-62359641D01*
X74236216Y-62377615D01*
X74243678Y-62400580D01*
X74257868Y-62420110D01*
X74268036Y-62436703D01*
X74278998Y-62458218D01*
X74991457Y-63170677D01*
X75024942Y-63232000D01*
X75026872Y-63273302D01*
X75021810Y-63314997D01*
X75021810Y-63315000D01*
X75042606Y-63486282D01*
X75086655Y-63602427D01*
X75103791Y-63647611D01*
X75201805Y-63789609D01*
X75330954Y-63904024D01*
X75483731Y-63984208D01*
X75483733Y-63984208D01*
X75483734Y-63984209D01*
X75651257Y-64025500D01*
X75651258Y-64025500D01*
X75823799Y-64025500D01*
X75991321Y-63984209D01*
X75991321Y-63984208D01*
X75991325Y-63984208D01*
X76144102Y-63904024D01*
X76273251Y-63789609D01*
X76371265Y-63647611D01*
X76432449Y-63486283D01*
X76453246Y-63315000D01*
X76432449Y-63143717D01*
X76371265Y-62982389D01*
X76273251Y-62840391D01*
X76144102Y-62725976D01*
X75991325Y-62645792D01*
X75991324Y-62645791D01*
X75991321Y-62645790D01*
X75823799Y-62604500D01*
X75823798Y-62604500D01*
X75680138Y-62604500D01*
X75613099Y-62584815D01*
X75592457Y-62568181D01*
X75089347Y-62065071D01*
X75055862Y-62003748D01*
X75053028Y-61977390D01*
X75053028Y-60473065D01*
X75072713Y-60406026D01*
X75094798Y-60380252D01*
X75163251Y-60319609D01*
X75261265Y-60177611D01*
X75322449Y-60016283D01*
X75343246Y-59845000D01*
X75322449Y-59673717D01*
X75261265Y-59512389D01*
X75163251Y-59370391D01*
X75034102Y-59255976D01*
X74881325Y-59175792D01*
X74881324Y-59175791D01*
X74881321Y-59175790D01*
X74713799Y-59134500D01*
X74713798Y-59134500D01*
X74541258Y-59134500D01*
X74541257Y-59134500D01*
X74373734Y-59175790D01*
X74220953Y-59255976D01*
X74091804Y-59370392D01*
X73993792Y-59512386D01*
X73932606Y-59673717D01*
X73911810Y-59844999D01*
X68629276Y-59844999D01*
X68609347Y-59825070D01*
X68575862Y-59763747D01*
X68573028Y-59737389D01*
X68573028Y-59443065D01*
X68592713Y-59376026D01*
X68614798Y-59350252D01*
X68683251Y-59289609D01*
X68781265Y-59147611D01*
X68842449Y-58986283D01*
X68863246Y-58815000D01*
X68842449Y-58643717D01*
X68781265Y-58482389D01*
X68683251Y-58340391D01*
X68554102Y-58225976D01*
X68401325Y-58145792D01*
X68401324Y-58145791D01*
X68401321Y-58145790D01*
X68233799Y-58104500D01*
X68233798Y-58104500D01*
X68061258Y-58104500D01*
X68061257Y-58104500D01*
X67893734Y-58145790D01*
X67740953Y-58225976D01*
X67611804Y-58340392D01*
X67513792Y-58482386D01*
X67452606Y-58643717D01*
X67431810Y-58815000D01*
X60962360Y-58815000D01*
X60883251Y-58700391D01*
X60754102Y-58585976D01*
X60601325Y-58505792D01*
X60601324Y-58505791D01*
X60601321Y-58505790D01*
X60433799Y-58464500D01*
X60433798Y-58464500D01*
X60261258Y-58464500D01*
X60261257Y-58464500D01*
X60093734Y-58505790D01*
X59940953Y-58585976D01*
X59811804Y-58700392D01*
X59713792Y-58842386D01*
X59652606Y-59003717D01*
X59631809Y-59174999D01*
X59631810Y-59175000D01*
X59636872Y-59216695D01*
X59625411Y-59285618D01*
X59601457Y-59319321D01*
X59193097Y-59727683D01*
X59131774Y-59761168D01*
X59105416Y-59764002D01*
X57977229Y-59764002D01*
X57910190Y-59744317D01*
X57884453Y-59719419D01*
X57883225Y-59720507D01*
X57878255Y-59714897D01*
X57878251Y-59714894D01*
X57878251Y-59714893D01*
X57749102Y-59600478D01*
X57596325Y-59520294D01*
X57596324Y-59520293D01*
X57596321Y-59520292D01*
X57428799Y-59479002D01*
X57428798Y-59479002D01*
X57256258Y-59479002D01*
X57256257Y-59479002D01*
X57088732Y-59520293D01*
X56964653Y-59585415D01*
X56896145Y-59599139D01*
X56831092Y-59573647D01*
X56790148Y-59517031D01*
X56783028Y-59475618D01*
X56783028Y-57324427D01*
X56802713Y-57257388D01*
X56855517Y-57211633D01*
X56877353Y-57204030D01*
X57013105Y-57170570D01*
X57013105Y-57170569D01*
X57013109Y-57170569D01*
X57165886Y-57090385D01*
X57295035Y-56975970D01*
X57393049Y-56833972D01*
X57393048Y-56833972D01*
X57397310Y-56827799D01*
X57398958Y-56828937D01*
X57440398Y-56786105D01*
X57506229Y-56770640D01*
X57506229Y-56770500D01*
X57506828Y-56770500D01*
X57508416Y-56770127D01*
X57512652Y-56770500D01*
X57513730Y-56770500D01*
X57686271Y-56770500D01*
X57853793Y-56729209D01*
X57853793Y-56729208D01*
X57853797Y-56729208D01*
X58006574Y-56649024D01*
X58135723Y-56534609D01*
X58233737Y-56392611D01*
X58294921Y-56231283D01*
X58315718Y-56060000D01*
X58294921Y-55888717D01*
X58240416Y-55744999D01*
X73531810Y-55744999D01*
X73552606Y-55916282D01*
X73613792Y-56077613D01*
X73623551Y-56091751D01*
X73711805Y-56219609D01*
X73780256Y-56280250D01*
X73817381Y-56339438D01*
X73822028Y-56373065D01*
X73822028Y-56852394D01*
X73829490Y-56875358D01*
X73834031Y-56894273D01*
X73836998Y-56913010D01*
X73837809Y-56918127D01*
X73848771Y-56939641D01*
X73856216Y-56957615D01*
X73863678Y-56980580D01*
X73877868Y-57000110D01*
X73888036Y-57016703D01*
X73898998Y-57038218D01*
X73899000Y-57038220D01*
X73922974Y-57062194D01*
X78175710Y-61314930D01*
X78209194Y-61376251D01*
X78212028Y-61402609D01*
X78212028Y-61836934D01*
X78192343Y-61903973D01*
X78170255Y-61929750D01*
X78101805Y-61990389D01*
X78003792Y-62132386D01*
X77942606Y-62293717D01*
X77921810Y-62464999D01*
X77942606Y-62636282D01*
X78003792Y-62797613D01*
X78052798Y-62868609D01*
X78101805Y-62939609D01*
X78230954Y-63054024D01*
X78383731Y-63134208D01*
X78383733Y-63134208D01*
X78383734Y-63134209D01*
X78551257Y-63175500D01*
X78551258Y-63175500D01*
X78723799Y-63175500D01*
X78891321Y-63134209D01*
X78891321Y-63134208D01*
X78891325Y-63134208D01*
X79044102Y-63054024D01*
X79173251Y-62939609D01*
X79271265Y-62797611D01*
X79332449Y-62636283D01*
X79353246Y-62465000D01*
X79332449Y-62293717D01*
X79271265Y-62132389D01*
X79173251Y-61990391D01*
X79173250Y-61990389D01*
X79104801Y-61929750D01*
X79067675Y-61870561D01*
X79063028Y-61836934D01*
X79063028Y-61107609D01*
X79063028Y-61107607D01*
X79055564Y-61084639D01*
X79051024Y-61065728D01*
X79047247Y-61041874D01*
X79036284Y-61020359D01*
X79028839Y-61002383D01*
X79021378Y-60979420D01*
X79007184Y-60959884D01*
X78997018Y-60943294D01*
X78986056Y-60921780D01*
X78890748Y-60826472D01*
X74709347Y-56645070D01*
X74675862Y-56583748D01*
X74673028Y-56557390D01*
X74673028Y-56373065D01*
X74692713Y-56306026D01*
X74714798Y-56280252D01*
X74783251Y-56219609D01*
X74881265Y-56077611D01*
X74942449Y-55916283D01*
X74963246Y-55745000D01*
X74942449Y-55573717D01*
X74881265Y-55412389D01*
X74783251Y-55270391D01*
X74654102Y-55155976D01*
X74501325Y-55075792D01*
X74501324Y-55075791D01*
X74501321Y-55075790D01*
X74333799Y-55034500D01*
X74333798Y-55034500D01*
X74161258Y-55034500D01*
X74161257Y-55034500D01*
X73993734Y-55075790D01*
X73840953Y-55155976D01*
X73711804Y-55270392D01*
X73613792Y-55412386D01*
X73552606Y-55573717D01*
X73531810Y-55744999D01*
X58240416Y-55744999D01*
X58233737Y-55727389D01*
X58135723Y-55585391D01*
X58006574Y-55470976D01*
X57853797Y-55390792D01*
X57853796Y-55390791D01*
X57853793Y-55390790D01*
X57686271Y-55349500D01*
X57686270Y-55349500D01*
X57542610Y-55349500D01*
X57475571Y-55329815D01*
X57466117Y-55322196D01*
X57466111Y-55322205D01*
X57458219Y-55316470D01*
X57436703Y-55305508D01*
X57420110Y-55295340D01*
X57400580Y-55281150D01*
X57377615Y-55273688D01*
X57359641Y-55266243D01*
X57338127Y-55255281D01*
X57333010Y-55254470D01*
X57314273Y-55251503D01*
X57295358Y-55246962D01*
X57272394Y-55239500D01*
X57272393Y-55239500D01*
X57238488Y-55239500D01*
X54830537Y-55239500D01*
X54763498Y-55219815D01*
X54717743Y-55167011D01*
X54707441Y-55100554D01*
X54710448Y-55075790D01*
X54719498Y-55001252D01*
X54698701Y-54829969D01*
X54637517Y-54668641D01*
X54539503Y-54526643D01*
X54410354Y-54412228D01*
X54257577Y-54332044D01*
X54257576Y-54332043D01*
X54257573Y-54332042D01*
X54090051Y-54290752D01*
X54090050Y-54290752D01*
X53946390Y-54290752D01*
X53879351Y-54271067D01*
X53858709Y-54254433D01*
X53621146Y-54016870D01*
X53374344Y-53770068D01*
X53340861Y-53708748D01*
X53338027Y-53682399D01*
X53338028Y-48664999D01*
X67931810Y-48664999D01*
X67952606Y-48836282D01*
X67996655Y-48952427D01*
X68013791Y-48997611D01*
X68111805Y-49139609D01*
X68240954Y-49254024D01*
X68393731Y-49334208D01*
X68393733Y-49334208D01*
X68393734Y-49334209D01*
X68561257Y-49375500D01*
X68561258Y-49375500D01*
X68733799Y-49375500D01*
X68901321Y-49334209D01*
X68901321Y-49334208D01*
X68901325Y-49334208D01*
X69054102Y-49254024D01*
X69183251Y-49139609D01*
X69183253Y-49139605D01*
X69183255Y-49139604D01*
X69188225Y-49133995D01*
X69190311Y-49135843D01*
X69234479Y-49100062D01*
X69282229Y-49090500D01*
X69409918Y-49090500D01*
X69476957Y-49110185D01*
X69497599Y-49126819D01*
X70951457Y-50580677D01*
X70984942Y-50642000D01*
X70986872Y-50683302D01*
X70981810Y-50724997D01*
X70981810Y-50725000D01*
X71002606Y-50896282D01*
X71025864Y-50957606D01*
X71063791Y-51057611D01*
X71161805Y-51199609D01*
X71290954Y-51314024D01*
X71443731Y-51394208D01*
X71443733Y-51394208D01*
X71443734Y-51394209D01*
X71611257Y-51435500D01*
X71611258Y-51435500D01*
X71783799Y-51435500D01*
X71951321Y-51394209D01*
X71951321Y-51394208D01*
X71951325Y-51394208D01*
X72104102Y-51314024D01*
X72233251Y-51199609D01*
X72331265Y-51057611D01*
X72392449Y-50896283D01*
X72413246Y-50725000D01*
X72392449Y-50553717D01*
X72331265Y-50392389D01*
X72233251Y-50250391D01*
X72104102Y-50135976D01*
X71951325Y-50055792D01*
X71951324Y-50055791D01*
X71951321Y-50055790D01*
X71783799Y-50014500D01*
X71783798Y-50014500D01*
X71640138Y-50014500D01*
X71573099Y-49994815D01*
X71552457Y-49978181D01*
X70239275Y-48664999D01*
X74891810Y-48664999D01*
X74912606Y-48836282D01*
X74956655Y-48952427D01*
X74973791Y-48997611D01*
X75071805Y-49139609D01*
X75140256Y-49200250D01*
X75177381Y-49259438D01*
X75182028Y-49293065D01*
X75182028Y-51092394D01*
X75189490Y-51115358D01*
X75194031Y-51134273D01*
X75196998Y-51153010D01*
X75197809Y-51158127D01*
X75208771Y-51179641D01*
X75216216Y-51197615D01*
X75223678Y-51220580D01*
X75237868Y-51240110D01*
X75248036Y-51256703D01*
X75258998Y-51278218D01*
X75981457Y-52000677D01*
X76014942Y-52062000D01*
X76016872Y-52103302D01*
X76011810Y-52144997D01*
X76011810Y-52145000D01*
X76032606Y-52316282D01*
X76076655Y-52432427D01*
X76093791Y-52477611D01*
X76191805Y-52619609D01*
X76320954Y-52734024D01*
X76473731Y-52814208D01*
X76473733Y-52814208D01*
X76473734Y-52814209D01*
X76641257Y-52855500D01*
X76641258Y-52855500D01*
X76813799Y-52855500D01*
X76981321Y-52814209D01*
X76981321Y-52814208D01*
X76981325Y-52814208D01*
X77134102Y-52734024D01*
X77263251Y-52619609D01*
X77361265Y-52477611D01*
X77422449Y-52316283D01*
X77443246Y-52145000D01*
X77422449Y-51973717D01*
X77361265Y-51812389D01*
X77263251Y-51670391D01*
X77134102Y-51555976D01*
X76981325Y-51475792D01*
X76981324Y-51475791D01*
X76981321Y-51475790D01*
X76813799Y-51434500D01*
X76813798Y-51434500D01*
X76670138Y-51434500D01*
X76603099Y-51414815D01*
X76582457Y-51398181D01*
X76069347Y-50885071D01*
X76035862Y-50823748D01*
X76033028Y-50797390D01*
X76033028Y-49293065D01*
X76052713Y-49226026D01*
X76074798Y-49200252D01*
X76143251Y-49139609D01*
X76241265Y-48997611D01*
X76302449Y-48836283D01*
X76323246Y-48665000D01*
X76302449Y-48493717D01*
X76241265Y-48332389D01*
X76143251Y-48190391D01*
X76014102Y-48075976D01*
X75861325Y-47995792D01*
X75861324Y-47995791D01*
X75861321Y-47995790D01*
X75693799Y-47954500D01*
X75693798Y-47954500D01*
X75521258Y-47954500D01*
X75521257Y-47954500D01*
X75353734Y-47995790D01*
X75200953Y-48075976D01*
X75071804Y-48190392D01*
X74973792Y-48332386D01*
X74912606Y-48493717D01*
X74891810Y-48664999D01*
X70239275Y-48664999D01*
X69890746Y-48316470D01*
X69869231Y-48305508D01*
X69852638Y-48295340D01*
X69833108Y-48281150D01*
X69810143Y-48273688D01*
X69792169Y-48266243D01*
X69770655Y-48255281D01*
X69765538Y-48254470D01*
X69746801Y-48251503D01*
X69727886Y-48246962D01*
X69704922Y-48239500D01*
X69704921Y-48239500D01*
X69671016Y-48239500D01*
X69282229Y-48239500D01*
X69215190Y-48219815D01*
X69189453Y-48194917D01*
X69188225Y-48196005D01*
X69183255Y-48190395D01*
X69183251Y-48190392D01*
X69183251Y-48190391D01*
X69054102Y-48075976D01*
X68901325Y-47995792D01*
X68901324Y-47995791D01*
X68901321Y-47995790D01*
X68733799Y-47954500D01*
X68733798Y-47954500D01*
X68561258Y-47954500D01*
X68561257Y-47954500D01*
X68393734Y-47995790D01*
X68240953Y-48075976D01*
X68111804Y-48190392D01*
X68013792Y-48332386D01*
X67952606Y-48493717D01*
X67931810Y-48664999D01*
X53338028Y-48664999D01*
X53338028Y-48432609D01*
X53357713Y-48365570D01*
X53374342Y-48344933D01*
X56477457Y-45241819D01*
X56538780Y-45208334D01*
X56565138Y-45205500D01*
X57952827Y-45205500D01*
X58019866Y-45225185D01*
X58045602Y-45250082D01*
X58046831Y-45248995D01*
X58051800Y-45254604D01*
X58051803Y-45254607D01*
X58051805Y-45254609D01*
X58180954Y-45369024D01*
X58333731Y-45449208D01*
X58333733Y-45449208D01*
X58333734Y-45449209D01*
X58501257Y-45490500D01*
X58501258Y-45490500D01*
X58673799Y-45490500D01*
X58841321Y-45449209D01*
X58841321Y-45449208D01*
X58841325Y-45449208D01*
X58994102Y-45369024D01*
X59123251Y-45254609D01*
X59221265Y-45112611D01*
X59282449Y-44951283D01*
X59303246Y-44780000D01*
X59282449Y-44608717D01*
X59221265Y-44447389D01*
X59123251Y-44305391D01*
X58994102Y-44190976D01*
X58841325Y-44110792D01*
X58841324Y-44110791D01*
X58841321Y-44110790D01*
X58673799Y-44069500D01*
X58673798Y-44069500D01*
X58501258Y-44069500D01*
X58501257Y-44069500D01*
X58333734Y-44110790D01*
X58180953Y-44190976D01*
X58051800Y-44305395D01*
X58046831Y-44311005D01*
X58044744Y-44309156D01*
X58000577Y-44344938D01*
X57952827Y-44354500D01*
X56270132Y-44354500D01*
X56247167Y-44361962D01*
X56228250Y-44366503D01*
X56204401Y-44370280D01*
X56182886Y-44381243D01*
X56164914Y-44388688D01*
X56141946Y-44396151D01*
X56141941Y-44396153D01*
X56122409Y-44410344D01*
X56105829Y-44420505D01*
X56084309Y-44431471D01*
X56084303Y-44431475D01*
X56024255Y-44491518D01*
X56024013Y-44491765D01*
X55045549Y-45470229D01*
X54984226Y-45503714D01*
X54914534Y-45498730D01*
X54858601Y-45456858D01*
X54838056Y-45405668D01*
X54836716Y-45405999D01*
X54834921Y-45398719D01*
X54834921Y-45398717D01*
X54773737Y-45237389D01*
X54675723Y-45095391D01*
X54546574Y-44980976D01*
X54393797Y-44900792D01*
X54393796Y-44900791D01*
X54393793Y-44900790D01*
X54226271Y-44859500D01*
X54226270Y-44859500D01*
X54053730Y-44859500D01*
X54053729Y-44859500D01*
X53886206Y-44900790D01*
X53733425Y-44980976D01*
X53604276Y-45095392D01*
X53506264Y-45237386D01*
X53445078Y-45398717D01*
X53424281Y-45569999D01*
X53424282Y-45570000D01*
X53429344Y-45611695D01*
X53417883Y-45680618D01*
X53393929Y-45714321D01*
X51580560Y-47527692D01*
X51485251Y-47623000D01*
X51474290Y-47644513D01*
X51464126Y-47661098D01*
X51449932Y-47680634D01*
X51449931Y-47680637D01*
X51442468Y-47703605D01*
X51435023Y-47721578D01*
X51424060Y-47743093D01*
X51420283Y-47766942D01*
X51415742Y-47785859D01*
X51408280Y-47808824D01*
X51408280Y-54021142D01*
X50604280Y-54021142D01*
X50604280Y-43780000D01*
X51156869Y-43780000D01*
X51177464Y-44015403D01*
X51177466Y-44015413D01*
X51238622Y-44243655D01*
X51238624Y-44243659D01*
X51238625Y-44243663D01*
X51285851Y-44344938D01*
X51338492Y-44457828D01*
X51338493Y-44457830D01*
X51474033Y-44651402D01*
X51641125Y-44818494D01*
X51834697Y-44954034D01*
X51834699Y-44954035D01*
X52048865Y-45053903D01*
X52277120Y-45115063D01*
X52453562Y-45130500D01*
X52571494Y-45130500D01*
X52747936Y-45115063D01*
X52976191Y-45053903D01*
X53190357Y-44954035D01*
X53383929Y-44818495D01*
X53551023Y-44651401D01*
X53686563Y-44457830D01*
X53786431Y-44243663D01*
X53847591Y-44015408D01*
X53868187Y-43780000D01*
X53847591Y-43544592D01*
X53786431Y-43316337D01*
X53686563Y-43102171D01*
X53686562Y-43102169D01*
X53551022Y-42908597D01*
X53383930Y-42741505D01*
X53190358Y-42605965D01*
X53190356Y-42605964D01*
X53083273Y-42556031D01*
X52976191Y-42506097D01*
X52976187Y-42506096D01*
X52976183Y-42506094D01*
X52747941Y-42444938D01*
X52747931Y-42444936D01*
X52571494Y-42429500D01*
X52453562Y-42429500D01*
X52277124Y-42444936D01*
X52277114Y-42444938D01*
X52048872Y-42506094D01*
X52048863Y-42506098D01*
X51834699Y-42605964D01*
X51834697Y-42605965D01*
X51641125Y-42741505D01*
X51474034Y-42908597D01*
X51474029Y-42908604D01*
X51338495Y-43102165D01*
X51338493Y-43102169D01*
X51238626Y-43316335D01*
X51238622Y-43316344D01*
X51177466Y-43544586D01*
X51177464Y-43544596D01*
X51156869Y-43779999D01*
X51156869Y-43780000D01*
X50604280Y-43780000D01*
X50604280Y-42303248D01*
X50623965Y-42236209D01*
X50676769Y-42190454D01*
X50728280Y-42179248D01*
X60569552Y-42179248D01*
X60636591Y-42198933D01*
G37*
%TD.AperFunction*%
%TD*%
M02*
