%TF.GenerationSoftware,KiCad,Pcbnew,7.0.5*%
%TF.CreationDate,2023-08-01T01:52:26-05:00*%
%TF.ProjectId,psxpress-pms,70737870-7265-4737-932d-706d732e6b69,rev?*%
%TF.SameCoordinates,Original*%
%TF.FileFunction,Copper,L2,Bot*%
%TF.FilePolarity,Positive*%
%FSLAX46Y46*%
G04 Gerber Fmt 4.6, Leading zero omitted, Abs format (unit mm)*
G04 Created by KiCad (PCBNEW 7.0.5) date 2023-08-01 01:52:26*
%MOMM*%
%LPD*%
G01*
G04 APERTURE LIST*
%TA.AperFunction,ViaPad*%
%ADD10C,0.820000*%
%TD*%
%TA.AperFunction,Conductor*%
%ADD11C,0.250000*%
%TD*%
G04 APERTURE END LIST*
D10*
%TO.N,GND*%
X182450000Y-70225000D03*
X159325000Y-75525000D03*
X178566252Y-72595652D03*
X182450000Y-65250000D03*
X163800000Y-68825000D03*
X173925000Y-72250000D03*
X172275000Y-59150000D03*
X173050000Y-62675000D03*
X173950000Y-62675000D03*
X158425000Y-79850000D03*
X162800000Y-66875000D03*
X164775000Y-57550000D03*
X163500000Y-76425000D03*
X183350000Y-66150000D03*
X176150000Y-76250000D03*
X176400000Y-57900000D03*
X164750000Y-68825000D03*
X171375000Y-59150000D03*
X162800000Y-67850000D03*
X173950000Y-61775000D03*
X183350000Y-71125000D03*
X183350000Y-68625000D03*
X158150000Y-63625000D03*
X182450000Y-67725000D03*
X173050000Y-61775000D03*
X183350000Y-65250000D03*
X172275000Y-60050000D03*
X163525000Y-79850000D03*
X163800000Y-66900000D03*
X171475000Y-77100000D03*
X163300000Y-58700000D03*
X164775000Y-58675000D03*
X176375000Y-59650000D03*
X186150000Y-73050000D03*
X170575000Y-77100000D03*
X163500000Y-75525000D03*
X186150000Y-76575000D03*
X168400000Y-72825000D03*
X162800000Y-68825000D03*
X168400000Y-73725000D03*
X167500000Y-72825000D03*
X166325000Y-66150000D03*
X161850000Y-57525000D03*
X167500000Y-73725000D03*
X178000000Y-78975000D03*
X158525000Y-60325000D03*
X164600000Y-72675000D03*
X173025000Y-72250000D03*
X182450000Y-68625000D03*
X164425000Y-79850000D03*
X183350000Y-67725000D03*
X176150000Y-77150000D03*
X171475000Y-76200000D03*
X171375000Y-60050000D03*
X178000000Y-79875000D03*
X164750000Y-66875000D03*
X183350000Y-70225000D03*
X171375000Y-59150000D03*
X159325000Y-76425000D03*
X163800000Y-67850000D03*
X186150000Y-75675000D03*
X182450000Y-71125000D03*
X173925000Y-71350000D03*
X164400000Y-75525000D03*
X182450000Y-66150000D03*
X164750000Y-67850000D03*
X159325000Y-79850000D03*
X186150000Y-73950000D03*
X161850000Y-58650000D03*
X164400000Y-76425000D03*
X163300000Y-57525000D03*
X170575000Y-76200000D03*
X175250000Y-76250000D03*
X158425000Y-76425000D03*
X173050000Y-61775000D03*
X173025000Y-71350000D03*
X158425000Y-75525000D03*
X175250000Y-77150000D03*
%TO.N,STAT*%
X160937500Y-69737500D03*
X165700000Y-59575000D03*
%TO.N,Net-(IC1-TS)*%
X164646252Y-71073748D03*
X160950000Y-60225000D03*
%TO.N,+3.5V*%
X177025000Y-68850000D03*
X180900000Y-79000000D03*
%TD*%
D11*
%TO.N,STAT*%
X160937500Y-69737500D02*
X160025000Y-68825000D01*
X160025000Y-68825000D02*
X160025000Y-63000000D01*
X163450000Y-59575000D02*
X165700000Y-59575000D01*
X160025000Y-63000000D02*
X163450000Y-59575000D01*
%TO.N,Net-(IC1-TS)*%
X160950000Y-60225000D02*
X158946252Y-62228748D01*
X161271252Y-71073748D02*
X164646252Y-71073748D01*
X158946252Y-68748748D02*
X161271252Y-71073748D01*
X158946252Y-62228748D02*
X158946252Y-68748748D01*
%TO.N,+3.5V*%
X177025000Y-76057496D02*
X179967504Y-79000000D01*
X179967504Y-79000000D02*
X180900000Y-79000000D01*
X177025000Y-68850000D02*
X177025000Y-76057496D01*
%TD*%
%TA.AperFunction,Conductor*%
%TO.N,GND*%
G36*
X186709191Y-56993933D02*
G01*
X186754946Y-57046737D01*
X186766152Y-57098248D01*
X186766152Y-80349248D01*
X186746467Y-80416287D01*
X186693663Y-80462042D01*
X186642152Y-80473248D01*
X176706065Y-80473248D01*
X176639026Y-80453563D01*
X176593271Y-80400759D01*
X176583327Y-80331601D01*
X176612352Y-80268045D01*
X176634942Y-80247673D01*
X176792654Y-80137242D01*
X176792654Y-80137241D01*
X176959747Y-79970149D01*
X177095287Y-79776578D01*
X177195155Y-79562411D01*
X177256315Y-79334156D01*
X177276911Y-79098748D01*
X177256315Y-78863340D01*
X177195155Y-78635085D01*
X177095287Y-78420919D01*
X177095286Y-78420917D01*
X176959746Y-78227345D01*
X176792654Y-78060253D01*
X176599082Y-77924713D01*
X176599080Y-77924712D01*
X176491998Y-77874779D01*
X176384915Y-77824845D01*
X176384911Y-77824844D01*
X176384907Y-77824842D01*
X176156665Y-77763686D01*
X176156655Y-77763684D01*
X175980219Y-77748248D01*
X175980218Y-77748248D01*
X175862286Y-77748248D01*
X175862285Y-77748248D01*
X175685848Y-77763684D01*
X175685838Y-77763686D01*
X175457596Y-77824842D01*
X175457587Y-77824846D01*
X175243423Y-77924712D01*
X175243421Y-77924713D01*
X175049849Y-78060253D01*
X174882758Y-78227345D01*
X174882753Y-78227352D01*
X174747219Y-78420913D01*
X174747217Y-78420917D01*
X174647350Y-78635083D01*
X174647346Y-78635092D01*
X174586190Y-78863334D01*
X174586188Y-78863344D01*
X174565593Y-79098747D01*
X174565593Y-79098748D01*
X174586188Y-79334151D01*
X174586190Y-79334161D01*
X174647346Y-79562403D01*
X174647348Y-79562407D01*
X174647349Y-79562411D01*
X174659759Y-79589024D01*
X174747216Y-79776576D01*
X174747217Y-79776578D01*
X174882757Y-79970150D01*
X175049848Y-80137241D01*
X175207562Y-80247673D01*
X175251187Y-80302250D01*
X175258381Y-80371748D01*
X175226858Y-80434103D01*
X175166629Y-80469517D01*
X175136439Y-80473248D01*
X157840752Y-80473248D01*
X157773713Y-80453563D01*
X157727958Y-80400759D01*
X157716752Y-80349248D01*
X157716752Y-58575000D01*
X158269341Y-58575000D01*
X158289936Y-58810403D01*
X158289938Y-58810413D01*
X158351094Y-59038655D01*
X158351096Y-59038659D01*
X158351097Y-59038663D01*
X158398323Y-59139938D01*
X158450964Y-59252828D01*
X158450965Y-59252830D01*
X158586505Y-59446402D01*
X158753597Y-59613494D01*
X158947169Y-59749034D01*
X158947171Y-59749035D01*
X159161337Y-59848903D01*
X159389592Y-59910063D01*
X159566032Y-59925499D01*
X159566033Y-59925500D01*
X159566034Y-59925500D01*
X159683967Y-59925500D01*
X159683967Y-59925499D01*
X159860408Y-59910063D01*
X160088663Y-59848903D01*
X160108643Y-59839585D01*
X160177720Y-59829093D01*
X160241504Y-59857611D01*
X160279745Y-59916087D01*
X160280300Y-59985955D01*
X160276991Y-59995937D01*
X160255079Y-60053713D01*
X160255079Y-60053715D01*
X160234282Y-60224999D01*
X160234282Y-60225000D01*
X160239344Y-60266695D01*
X160227883Y-60335618D01*
X160203929Y-60369321D01*
X158675591Y-61897660D01*
X158597724Y-61975526D01*
X158586762Y-61997041D01*
X158576598Y-62013626D01*
X158562404Y-62033162D01*
X158562403Y-62033165D01*
X158554940Y-62056133D01*
X158547495Y-62074106D01*
X158536532Y-62095621D01*
X158532755Y-62119470D01*
X158528214Y-62138387D01*
X158520752Y-62161352D01*
X158520752Y-68816142D01*
X158528214Y-68839106D01*
X158532755Y-68858021D01*
X158535722Y-68876758D01*
X158536533Y-68881875D01*
X158547495Y-68903389D01*
X158554940Y-68921363D01*
X158562402Y-68944328D01*
X158576592Y-68963858D01*
X158586760Y-68980451D01*
X158597722Y-69001966D01*
X158621698Y-69025942D01*
X160905282Y-71309525D01*
X160905283Y-71309527D01*
X160922724Y-71326968D01*
X161018032Y-71422276D01*
X161039546Y-71433238D01*
X161056136Y-71443404D01*
X161075672Y-71457598D01*
X161098635Y-71465059D01*
X161116611Y-71472504D01*
X161138126Y-71483467D01*
X161161980Y-71487244D01*
X161180891Y-71491784D01*
X161203859Y-71499248D01*
X161237764Y-71499248D01*
X164011551Y-71499248D01*
X164078590Y-71518933D01*
X164104326Y-71543830D01*
X164105555Y-71542743D01*
X164110524Y-71548352D01*
X164110527Y-71548355D01*
X164110529Y-71548357D01*
X164239678Y-71662772D01*
X164392455Y-71742956D01*
X164392457Y-71742956D01*
X164392458Y-71742957D01*
X164559981Y-71784248D01*
X164559982Y-71784248D01*
X164732523Y-71784248D01*
X164900045Y-71742957D01*
X164900045Y-71742956D01*
X164900049Y-71742956D01*
X165052826Y-71662772D01*
X165181975Y-71548357D01*
X165279989Y-71406359D01*
X165341173Y-71245031D01*
X165361970Y-71073748D01*
X165341173Y-70902465D01*
X165279989Y-70741137D01*
X165181975Y-70599139D01*
X165052826Y-70484724D01*
X164900049Y-70404540D01*
X164900048Y-70404539D01*
X164900045Y-70404538D01*
X164732523Y-70363248D01*
X164732522Y-70363248D01*
X164559982Y-70363248D01*
X164559981Y-70363248D01*
X164392458Y-70404538D01*
X164239677Y-70484724D01*
X164110524Y-70599143D01*
X164105555Y-70604753D01*
X164103468Y-70602904D01*
X164059301Y-70638686D01*
X164011551Y-70648248D01*
X161498862Y-70648248D01*
X161431823Y-70628563D01*
X161411181Y-70611929D01*
X161320075Y-70520823D01*
X161286590Y-70459500D01*
X161291574Y-70389808D01*
X161333446Y-70333875D01*
X161338033Y-70330979D01*
X161337900Y-70330786D01*
X161344069Y-70326527D01*
X161344070Y-70326526D01*
X161344074Y-70326524D01*
X161473223Y-70212109D01*
X161571237Y-70070111D01*
X161632421Y-69908783D01*
X161653218Y-69737500D01*
X161632421Y-69566217D01*
X161571237Y-69404889D01*
X161473223Y-69262891D01*
X161344074Y-69148476D01*
X161191297Y-69068292D01*
X161191296Y-69068291D01*
X161191293Y-69068290D01*
X161023771Y-69027000D01*
X161023770Y-69027000D01*
X160880110Y-69027000D01*
X160813071Y-69007315D01*
X160792429Y-68990681D01*
X160651747Y-68849999D01*
X176309282Y-68849999D01*
X176330078Y-69021282D01*
X176347907Y-69068292D01*
X176391263Y-69182611D01*
X176489277Y-69324609D01*
X176557728Y-69385250D01*
X176594853Y-69444438D01*
X176599500Y-69478065D01*
X176599500Y-76124890D01*
X176606962Y-76147854D01*
X176611503Y-76166769D01*
X176614470Y-76185506D01*
X176615281Y-76190623D01*
X176626243Y-76212137D01*
X176633688Y-76230111D01*
X176641150Y-76253076D01*
X176655340Y-76272606D01*
X176665508Y-76289199D01*
X176676470Y-76310714D01*
X176676471Y-76310715D01*
X176676472Y-76310716D01*
X176700446Y-76334690D01*
X179618974Y-79253218D01*
X179618976Y-79253220D01*
X179714284Y-79348528D01*
X179735805Y-79359493D01*
X179752384Y-79369653D01*
X179771923Y-79383849D01*
X179794885Y-79391309D01*
X179812858Y-79398753D01*
X179834378Y-79409719D01*
X179858228Y-79413495D01*
X179877149Y-79418039D01*
X179898993Y-79425136D01*
X179900111Y-79425500D01*
X179934016Y-79425500D01*
X180265299Y-79425500D01*
X180332338Y-79445185D01*
X180358074Y-79470082D01*
X180359303Y-79468995D01*
X180364272Y-79474604D01*
X180364275Y-79474607D01*
X180364277Y-79474609D01*
X180493426Y-79589024D01*
X180646203Y-79669208D01*
X180646205Y-79669208D01*
X180646206Y-79669209D01*
X180813729Y-79710500D01*
X180813730Y-79710500D01*
X180986271Y-79710500D01*
X181153793Y-79669209D01*
X181153793Y-79669208D01*
X181153797Y-79669208D01*
X181306574Y-79589024D01*
X181435723Y-79474609D01*
X181533737Y-79332611D01*
X181594921Y-79171283D01*
X181615718Y-79000000D01*
X181594921Y-78828717D01*
X181533737Y-78667389D01*
X181435723Y-78525391D01*
X181306574Y-78410976D01*
X181153797Y-78330792D01*
X181153796Y-78330791D01*
X181153793Y-78330790D01*
X180986271Y-78289500D01*
X180986270Y-78289500D01*
X180813730Y-78289500D01*
X180813729Y-78289500D01*
X180646206Y-78330790D01*
X180493425Y-78410976D01*
X180364272Y-78525395D01*
X180359303Y-78531005D01*
X180357216Y-78529156D01*
X180313049Y-78564938D01*
X180265299Y-78574500D01*
X180195113Y-78574500D01*
X180128074Y-78554815D01*
X180107432Y-78538181D01*
X177486819Y-75917567D01*
X177453334Y-75856244D01*
X177450500Y-75829886D01*
X177450500Y-69478065D01*
X177470185Y-69411026D01*
X177492270Y-69385252D01*
X177560723Y-69324609D01*
X177658737Y-69182611D01*
X177719921Y-69021283D01*
X177740718Y-68850000D01*
X177719921Y-68678717D01*
X177658737Y-68517389D01*
X177560723Y-68375391D01*
X177431574Y-68260976D01*
X177278797Y-68180792D01*
X177278796Y-68180791D01*
X177278793Y-68180790D01*
X177111271Y-68139500D01*
X177111270Y-68139500D01*
X176938730Y-68139500D01*
X176938729Y-68139500D01*
X176771206Y-68180790D01*
X176618425Y-68260976D01*
X176489276Y-68375392D01*
X176391264Y-68517386D01*
X176330078Y-68678717D01*
X176309282Y-68849999D01*
X160651747Y-68849999D01*
X160640854Y-68839106D01*
X160486819Y-68685070D01*
X160453334Y-68623747D01*
X160450500Y-68597389D01*
X160450500Y-68139500D01*
X160450500Y-63227606D01*
X160470184Y-63160571D01*
X160486813Y-63139934D01*
X163589929Y-60036818D01*
X163651252Y-60003334D01*
X163677610Y-60000500D01*
X165065299Y-60000500D01*
X165132338Y-60020185D01*
X165158074Y-60045082D01*
X165159303Y-60043995D01*
X165164272Y-60049604D01*
X165164275Y-60049607D01*
X165164277Y-60049609D01*
X165293426Y-60164024D01*
X165446203Y-60244208D01*
X165446205Y-60244208D01*
X165446206Y-60244209D01*
X165613729Y-60285500D01*
X165613730Y-60285500D01*
X165786271Y-60285500D01*
X165953793Y-60244209D01*
X165953793Y-60244208D01*
X165953797Y-60244208D01*
X166106574Y-60164024D01*
X166235723Y-60049609D01*
X166333737Y-59907611D01*
X166394921Y-59746283D01*
X166415718Y-59575000D01*
X166394921Y-59403717D01*
X166333737Y-59242389D01*
X166235723Y-59100391D01*
X166106574Y-58985976D01*
X165953797Y-58905792D01*
X165953796Y-58905791D01*
X165953793Y-58905790D01*
X165786271Y-58864500D01*
X165786270Y-58864500D01*
X165613730Y-58864500D01*
X165613729Y-58864500D01*
X165446206Y-58905790D01*
X165293425Y-58985976D01*
X165164272Y-59100395D01*
X165159303Y-59106005D01*
X165157216Y-59104156D01*
X165113049Y-59139938D01*
X165065299Y-59149500D01*
X163382604Y-59149500D01*
X163359639Y-59156962D01*
X163340722Y-59161503D01*
X163316873Y-59165280D01*
X163295358Y-59176243D01*
X163277386Y-59183688D01*
X163254418Y-59191151D01*
X163254413Y-59191153D01*
X163234881Y-59205344D01*
X163218301Y-59215505D01*
X163196780Y-59226471D01*
X163196778Y-59226473D01*
X163114244Y-59309003D01*
X163114218Y-59309033D01*
X161819967Y-60603283D01*
X161758644Y-60636768D01*
X161688952Y-60631784D01*
X161633019Y-60589912D01*
X161608602Y-60524448D01*
X161616344Y-60471632D01*
X161644921Y-60396283D01*
X161665718Y-60225000D01*
X161644921Y-60053717D01*
X161583737Y-59892389D01*
X161485723Y-59750391D01*
X161356574Y-59635976D01*
X161203797Y-59555792D01*
X161203796Y-59555791D01*
X161203793Y-59555790D01*
X161036271Y-59514500D01*
X161036270Y-59514500D01*
X160863730Y-59514500D01*
X160856229Y-59514500D01*
X160856229Y-59511816D01*
X160799781Y-59502405D01*
X160748016Y-59455478D01*
X160729838Y-59388014D01*
X160751020Y-59321433D01*
X160752154Y-59319782D01*
X160799035Y-59252830D01*
X160898903Y-59038663D01*
X160960063Y-58810408D01*
X160969832Y-58698748D01*
X173090593Y-58698748D01*
X173111188Y-58934151D01*
X173111190Y-58934161D01*
X173172346Y-59162403D01*
X173172348Y-59162407D01*
X173172349Y-59162411D01*
X173214512Y-59252829D01*
X173272216Y-59376576D01*
X173272217Y-59376578D01*
X173407757Y-59570150D01*
X173574849Y-59737242D01*
X173768421Y-59872782D01*
X173768423Y-59872783D01*
X173982589Y-59972651D01*
X174210844Y-60033811D01*
X174387284Y-60049247D01*
X174387285Y-60049248D01*
X174387286Y-60049248D01*
X174505219Y-60049248D01*
X174505219Y-60049247D01*
X174681660Y-60033811D01*
X174909915Y-59972651D01*
X175124081Y-59872783D01*
X175317653Y-59737243D01*
X175484747Y-59570149D01*
X175620287Y-59376578D01*
X175720155Y-59162411D01*
X175781315Y-58934156D01*
X175801911Y-58698748D01*
X175781315Y-58463340D01*
X175720155Y-58235085D01*
X175620287Y-58020919D01*
X175620286Y-58020917D01*
X175484746Y-57827345D01*
X175317654Y-57660253D01*
X175124082Y-57524713D01*
X175124080Y-57524712D01*
X175016997Y-57474779D01*
X174909915Y-57424845D01*
X174909911Y-57424844D01*
X174909907Y-57424842D01*
X174681665Y-57363686D01*
X174681655Y-57363684D01*
X174505219Y-57348248D01*
X174505218Y-57348248D01*
X174387286Y-57348248D01*
X174387285Y-57348248D01*
X174210848Y-57363684D01*
X174210838Y-57363686D01*
X173982596Y-57424842D01*
X173982587Y-57424846D01*
X173768423Y-57524712D01*
X173768421Y-57524713D01*
X173574849Y-57660253D01*
X173407758Y-57827345D01*
X173407753Y-57827352D01*
X173272219Y-58020913D01*
X173272217Y-58020917D01*
X173172350Y-58235083D01*
X173172346Y-58235092D01*
X173111190Y-58463334D01*
X173111188Y-58463344D01*
X173090593Y-58698747D01*
X173090593Y-58698748D01*
X160969832Y-58698748D01*
X160980659Y-58575000D01*
X160960063Y-58339592D01*
X160898903Y-58111337D01*
X160799035Y-57897171D01*
X160799034Y-57897169D01*
X160663494Y-57703597D01*
X160496402Y-57536505D01*
X160302830Y-57400965D01*
X160302828Y-57400964D01*
X160189778Y-57348248D01*
X160088663Y-57301097D01*
X160088659Y-57301096D01*
X160088655Y-57301094D01*
X159860413Y-57239938D01*
X159860403Y-57239936D01*
X159683967Y-57224500D01*
X159683966Y-57224500D01*
X159566034Y-57224500D01*
X159566033Y-57224500D01*
X159389596Y-57239936D01*
X159389586Y-57239938D01*
X159161344Y-57301094D01*
X159161335Y-57301098D01*
X158947171Y-57400964D01*
X158947169Y-57400965D01*
X158753597Y-57536505D01*
X158586506Y-57703597D01*
X158586501Y-57703604D01*
X158450967Y-57897165D01*
X158450965Y-57897169D01*
X158351098Y-58111335D01*
X158351094Y-58111344D01*
X158289938Y-58339586D01*
X158289936Y-58339596D01*
X158269341Y-58574999D01*
X158269341Y-58575000D01*
X157716752Y-58575000D01*
X157716752Y-57098248D01*
X157736437Y-57031209D01*
X157789241Y-56985454D01*
X157840752Y-56974248D01*
X186642152Y-56974248D01*
X186709191Y-56993933D01*
G37*
%TD.AperFunction*%
%TD*%
M02*
