%TF.GenerationSoftware,KiCad,Pcbnew,7.0.7*%
%TF.CreationDate,2023-08-24T02:08:32-05:00*%
%TF.ProjectId,psxpress-pms,70737870-7265-4737-932d-706d732e6b69,rev?*%
%TF.SameCoordinates,Original*%
%TF.FileFunction,Legend,Top*%
%TF.FilePolarity,Positive*%
%FSLAX46Y46*%
G04 Gerber Fmt 4.6, Leading zero omitted, Abs format (unit mm)*
G04 Created by KiCad (PCBNEW 7.0.7) date 2023-08-24 02:08:32*
%MOMM*%
%LPD*%
G01*
G04 APERTURE LIST*
%ADD10C,0.150000*%
%ADD11C,0.125000*%
%ADD12C,0.120000*%
%ADD13C,0.250000*%
%ADD14C,0.127000*%
%ADD15C,0.200000*%
G04 APERTURE END LIST*
D10*
X59387528Y-50680000D02*
X59387528Y-50430000D01*
X70102528Y-61275000D02*
X70102528Y-61525000D01*
X55257528Y-58585000D02*
X54957528Y-58885000D01*
X77087528Y-58255000D02*
X77087528Y-57905000D01*
X70102528Y-61275000D02*
X69852528Y-61275000D01*
X76092528Y-62575000D02*
X76225801Y-62708273D01*
X74397528Y-62330000D02*
X74642528Y-62575000D01*
X74642528Y-62575000D02*
X76092528Y-62575000D01*
X63187528Y-54825000D02*
X63337528Y-54675000D01*
X59387528Y-50680000D02*
X59137528Y-50680000D01*
X63287528Y-51030000D02*
X63437528Y-50880000D01*
X59387528Y-50680000D02*
X59087528Y-50380000D01*
X63287528Y-51030000D02*
X63437528Y-51180000D01*
X74397528Y-62330000D02*
X74397528Y-62580000D01*
X74397528Y-62330000D02*
X74647528Y-62330000D01*
X63287528Y-51030000D02*
X63712528Y-51030000D01*
X76532528Y-58255000D02*
X76682528Y-58105000D01*
X70842528Y-50315000D02*
X70842528Y-50915000D01*
X71057528Y-50100000D02*
X70842528Y-50315000D01*
X71057528Y-50100000D02*
X71057528Y-50350000D01*
X76532528Y-58255000D02*
X76682528Y-58405000D01*
X55257528Y-58585000D02*
X55257528Y-58835000D01*
X63612528Y-54825000D02*
X63612528Y-54475000D01*
X76532528Y-58255000D02*
X77087528Y-58255000D01*
X70102528Y-61275000D02*
X69887528Y-61490000D01*
X55257528Y-58585000D02*
X55007528Y-58585000D01*
X71057528Y-50100000D02*
X70807528Y-50100000D01*
X63712528Y-51030000D02*
X63712528Y-50680000D01*
X63187528Y-54825000D02*
X63337528Y-54975000D01*
X63187528Y-54825000D02*
X63612528Y-54825000D01*
X69887528Y-61490000D02*
X69887528Y-62090000D01*
D11*
X78166906Y-65511714D02*
X77916906Y-65154571D01*
X77738335Y-65511714D02*
X77738335Y-64761714D01*
X77738335Y-64761714D02*
X78024049Y-64761714D01*
X78024049Y-64761714D02*
X78095478Y-64797428D01*
X78095478Y-64797428D02*
X78131192Y-64833142D01*
X78131192Y-64833142D02*
X78166906Y-64904571D01*
X78166906Y-64904571D02*
X78166906Y-65011714D01*
X78166906Y-65011714D02*
X78131192Y-65083142D01*
X78131192Y-65083142D02*
X78095478Y-65118857D01*
X78095478Y-65118857D02*
X78024049Y-65154571D01*
X78024049Y-65154571D02*
X77738335Y-65154571D01*
X78452621Y-65476000D02*
X78559764Y-65511714D01*
X78559764Y-65511714D02*
X78738335Y-65511714D01*
X78738335Y-65511714D02*
X78809764Y-65476000D01*
X78809764Y-65476000D02*
X78845478Y-65440285D01*
X78845478Y-65440285D02*
X78881192Y-65368857D01*
X78881192Y-65368857D02*
X78881192Y-65297428D01*
X78881192Y-65297428D02*
X78845478Y-65226000D01*
X78845478Y-65226000D02*
X78809764Y-65190285D01*
X78809764Y-65190285D02*
X78738335Y-65154571D01*
X78738335Y-65154571D02*
X78595478Y-65118857D01*
X78595478Y-65118857D02*
X78524049Y-65083142D01*
X78524049Y-65083142D02*
X78488335Y-65047428D01*
X78488335Y-65047428D02*
X78452621Y-64976000D01*
X78452621Y-64976000D02*
X78452621Y-64904571D01*
X78452621Y-64904571D02*
X78488335Y-64833142D01*
X78488335Y-64833142D02*
X78524049Y-64797428D01*
X78524049Y-64797428D02*
X78595478Y-64761714D01*
X78595478Y-64761714D02*
X78774049Y-64761714D01*
X78774049Y-64761714D02*
X78881192Y-64797428D01*
X79095478Y-64761714D02*
X79524050Y-64761714D01*
X79309764Y-65511714D02*
X79309764Y-64761714D01*
X64365478Y-43346714D02*
X64008335Y-43346714D01*
X64008335Y-43346714D02*
X64008335Y-42596714D01*
X64615478Y-42953857D02*
X64865478Y-42953857D01*
X64972621Y-43346714D02*
X64615478Y-43346714D01*
X64615478Y-43346714D02*
X64615478Y-42596714D01*
X64615478Y-42596714D02*
X64972621Y-42596714D01*
X65294049Y-43346714D02*
X65294049Y-42596714D01*
X65294049Y-42596714D02*
X65472620Y-42596714D01*
X65472620Y-42596714D02*
X65579763Y-42632428D01*
X65579763Y-42632428D02*
X65651192Y-42703857D01*
X65651192Y-42703857D02*
X65686906Y-42775285D01*
X65686906Y-42775285D02*
X65722620Y-42918142D01*
X65722620Y-42918142D02*
X65722620Y-43025285D01*
X65722620Y-43025285D02*
X65686906Y-43168142D01*
X65686906Y-43168142D02*
X65651192Y-43239571D01*
X65651192Y-43239571D02*
X65579763Y-43311000D01*
X65579763Y-43311000D02*
X65472620Y-43346714D01*
X65472620Y-43346714D02*
X65294049Y-43346714D01*
X67967621Y-64071000D02*
X68074764Y-64106714D01*
X68074764Y-64106714D02*
X68253335Y-64106714D01*
X68253335Y-64106714D02*
X68324764Y-64071000D01*
X68324764Y-64071000D02*
X68360478Y-64035285D01*
X68360478Y-64035285D02*
X68396192Y-63963857D01*
X68396192Y-63963857D02*
X68396192Y-63892428D01*
X68396192Y-63892428D02*
X68360478Y-63821000D01*
X68360478Y-63821000D02*
X68324764Y-63785285D01*
X68324764Y-63785285D02*
X68253335Y-63749571D01*
X68253335Y-63749571D02*
X68110478Y-63713857D01*
X68110478Y-63713857D02*
X68039049Y-63678142D01*
X68039049Y-63678142D02*
X68003335Y-63642428D01*
X68003335Y-63642428D02*
X67967621Y-63571000D01*
X67967621Y-63571000D02*
X67967621Y-63499571D01*
X67967621Y-63499571D02*
X68003335Y-63428142D01*
X68003335Y-63428142D02*
X68039049Y-63392428D01*
X68039049Y-63392428D02*
X68110478Y-63356714D01*
X68110478Y-63356714D02*
X68289049Y-63356714D01*
X68289049Y-63356714D02*
X68396192Y-63392428D01*
X68646192Y-63356714D02*
X68824764Y-64106714D01*
X68824764Y-64106714D02*
X68967621Y-63571000D01*
X68967621Y-63571000D02*
X69110478Y-64106714D01*
X69110478Y-64106714D02*
X69289050Y-63356714D01*
X54304194Y-59374809D02*
X54137528Y-59136714D01*
X54018480Y-59374809D02*
X54018480Y-58874809D01*
X54018480Y-58874809D02*
X54208956Y-58874809D01*
X54208956Y-58874809D02*
X54256575Y-58898619D01*
X54256575Y-58898619D02*
X54280385Y-58922428D01*
X54280385Y-58922428D02*
X54304194Y-58970047D01*
X54304194Y-58970047D02*
X54304194Y-59041476D01*
X54304194Y-59041476D02*
X54280385Y-59089095D01*
X54280385Y-59089095D02*
X54256575Y-59112904D01*
X54256575Y-59112904D02*
X54208956Y-59136714D01*
X54208956Y-59136714D02*
X54018480Y-59136714D01*
X54494671Y-58922428D02*
X54518480Y-58898619D01*
X54518480Y-58898619D02*
X54566099Y-58874809D01*
X54566099Y-58874809D02*
X54685147Y-58874809D01*
X54685147Y-58874809D02*
X54732766Y-58898619D01*
X54732766Y-58898619D02*
X54756575Y-58922428D01*
X54756575Y-58922428D02*
X54780385Y-58970047D01*
X54780385Y-58970047D02*
X54780385Y-59017666D01*
X54780385Y-59017666D02*
X54756575Y-59089095D01*
X54756575Y-59089095D02*
X54470861Y-59374809D01*
X54470861Y-59374809D02*
X54780385Y-59374809D01*
X74999194Y-53399809D02*
X74832528Y-53161714D01*
X74713480Y-53399809D02*
X74713480Y-52899809D01*
X74713480Y-52899809D02*
X74903956Y-52899809D01*
X74903956Y-52899809D02*
X74951575Y-52923619D01*
X74951575Y-52923619D02*
X74975385Y-52947428D01*
X74975385Y-52947428D02*
X74999194Y-52995047D01*
X74999194Y-52995047D02*
X74999194Y-53066476D01*
X74999194Y-53066476D02*
X74975385Y-53114095D01*
X74975385Y-53114095D02*
X74951575Y-53137904D01*
X74951575Y-53137904D02*
X74903956Y-53161714D01*
X74903956Y-53161714D02*
X74713480Y-53161714D01*
X75165861Y-52899809D02*
X75499194Y-52899809D01*
X75499194Y-52899809D02*
X75284909Y-53399809D01*
X56170685Y-50429809D02*
X56170685Y-49929809D01*
X56694494Y-50382190D02*
X56670685Y-50406000D01*
X56670685Y-50406000D02*
X56599256Y-50429809D01*
X56599256Y-50429809D02*
X56551637Y-50429809D01*
X56551637Y-50429809D02*
X56480209Y-50406000D01*
X56480209Y-50406000D02*
X56432590Y-50358380D01*
X56432590Y-50358380D02*
X56408780Y-50310761D01*
X56408780Y-50310761D02*
X56384971Y-50215523D01*
X56384971Y-50215523D02*
X56384971Y-50144095D01*
X56384971Y-50144095D02*
X56408780Y-50048857D01*
X56408780Y-50048857D02*
X56432590Y-50001238D01*
X56432590Y-50001238D02*
X56480209Y-49953619D01*
X56480209Y-49953619D02*
X56551637Y-49929809D01*
X56551637Y-49929809D02*
X56599256Y-49929809D01*
X56599256Y-49929809D02*
X56670685Y-49953619D01*
X56670685Y-49953619D02*
X56694494Y-49977428D01*
X57170685Y-50429809D02*
X56884971Y-50429809D01*
X57027828Y-50429809D02*
X57027828Y-49929809D01*
X57027828Y-49929809D02*
X56980209Y-50001238D01*
X56980209Y-50001238D02*
X56932590Y-50048857D01*
X56932590Y-50048857D02*
X56884971Y-50072666D01*
X52754194Y-53802190D02*
X52730385Y-53826000D01*
X52730385Y-53826000D02*
X52658956Y-53849809D01*
X52658956Y-53849809D02*
X52611337Y-53849809D01*
X52611337Y-53849809D02*
X52539909Y-53826000D01*
X52539909Y-53826000D02*
X52492290Y-53778380D01*
X52492290Y-53778380D02*
X52468480Y-53730761D01*
X52468480Y-53730761D02*
X52444671Y-53635523D01*
X52444671Y-53635523D02*
X52444671Y-53564095D01*
X52444671Y-53564095D02*
X52468480Y-53468857D01*
X52468480Y-53468857D02*
X52492290Y-53421238D01*
X52492290Y-53421238D02*
X52539909Y-53373619D01*
X52539909Y-53373619D02*
X52611337Y-53349809D01*
X52611337Y-53349809D02*
X52658956Y-53349809D01*
X52658956Y-53349809D02*
X52730385Y-53373619D01*
X52730385Y-53373619D02*
X52754194Y-53397428D01*
X53230385Y-53849809D02*
X52944671Y-53849809D01*
X53087528Y-53849809D02*
X53087528Y-53349809D01*
X53087528Y-53349809D02*
X53039909Y-53421238D01*
X53039909Y-53421238D02*
X52992290Y-53468857D01*
X52992290Y-53468857D02*
X52944671Y-53492666D01*
X66916099Y-61917190D02*
X66892290Y-61941000D01*
X66892290Y-61941000D02*
X66820861Y-61964809D01*
X66820861Y-61964809D02*
X66773242Y-61964809D01*
X66773242Y-61964809D02*
X66701814Y-61941000D01*
X66701814Y-61941000D02*
X66654195Y-61893380D01*
X66654195Y-61893380D02*
X66630385Y-61845761D01*
X66630385Y-61845761D02*
X66606576Y-61750523D01*
X66606576Y-61750523D02*
X66606576Y-61679095D01*
X66606576Y-61679095D02*
X66630385Y-61583857D01*
X66630385Y-61583857D02*
X66654195Y-61536238D01*
X66654195Y-61536238D02*
X66701814Y-61488619D01*
X66701814Y-61488619D02*
X66773242Y-61464809D01*
X66773242Y-61464809D02*
X66820861Y-61464809D01*
X66820861Y-61464809D02*
X66892290Y-61488619D01*
X66892290Y-61488619D02*
X66916099Y-61512428D01*
X67392290Y-61964809D02*
X67106576Y-61964809D01*
X67249433Y-61964809D02*
X67249433Y-61464809D01*
X67249433Y-61464809D02*
X67201814Y-61536238D01*
X67201814Y-61536238D02*
X67154195Y-61583857D01*
X67154195Y-61583857D02*
X67106576Y-61607666D01*
X67582766Y-61512428D02*
X67606575Y-61488619D01*
X67606575Y-61488619D02*
X67654194Y-61464809D01*
X67654194Y-61464809D02*
X67773242Y-61464809D01*
X67773242Y-61464809D02*
X67820861Y-61488619D01*
X67820861Y-61488619D02*
X67844670Y-61512428D01*
X67844670Y-61512428D02*
X67868480Y-61560047D01*
X67868480Y-61560047D02*
X67868480Y-61607666D01*
X67868480Y-61607666D02*
X67844670Y-61679095D01*
X67844670Y-61679095D02*
X67558956Y-61964809D01*
X67558956Y-61964809D02*
X67868480Y-61964809D01*
X51932942Y-46254809D02*
X51766276Y-46016714D01*
X51647228Y-46254809D02*
X51647228Y-45754809D01*
X51647228Y-45754809D02*
X51837704Y-45754809D01*
X51837704Y-45754809D02*
X51885323Y-45778619D01*
X51885323Y-45778619D02*
X51909133Y-45802428D01*
X51909133Y-45802428D02*
X51932942Y-45850047D01*
X51932942Y-45850047D02*
X51932942Y-45921476D01*
X51932942Y-45921476D02*
X51909133Y-45969095D01*
X51909133Y-45969095D02*
X51885323Y-45992904D01*
X51885323Y-45992904D02*
X51837704Y-46016714D01*
X51837704Y-46016714D02*
X51647228Y-46016714D01*
X52361514Y-45921476D02*
X52361514Y-46254809D01*
X52242466Y-45731000D02*
X52123419Y-46088142D01*
X52123419Y-46088142D02*
X52432942Y-46088142D01*
X65764908Y-51888680D02*
X65717289Y-51864871D01*
X65717289Y-51864871D02*
X65669670Y-51817252D01*
X65669670Y-51817252D02*
X65598242Y-51745823D01*
X65598242Y-51745823D02*
X65550623Y-51722013D01*
X65550623Y-51722013D02*
X65503004Y-51722013D01*
X65526813Y-51841061D02*
X65479194Y-51817252D01*
X65479194Y-51817252D02*
X65431575Y-51769632D01*
X65431575Y-51769632D02*
X65407766Y-51674394D01*
X65407766Y-51674394D02*
X65407766Y-51507728D01*
X65407766Y-51507728D02*
X65431575Y-51412490D01*
X65431575Y-51412490D02*
X65479194Y-51364871D01*
X65479194Y-51364871D02*
X65526813Y-51341061D01*
X65526813Y-51341061D02*
X65622051Y-51341061D01*
X65622051Y-51341061D02*
X65669670Y-51364871D01*
X65669670Y-51364871D02*
X65717289Y-51412490D01*
X65717289Y-51412490D02*
X65741099Y-51507728D01*
X65741099Y-51507728D02*
X65741099Y-51674394D01*
X65741099Y-51674394D02*
X65717289Y-51769632D01*
X65717289Y-51769632D02*
X65669670Y-51817252D01*
X65669670Y-51817252D02*
X65622051Y-51841061D01*
X65622051Y-51841061D02*
X65526813Y-51841061D01*
X66217290Y-51841061D02*
X65931576Y-51841061D01*
X66074433Y-51841061D02*
X66074433Y-51341061D01*
X66074433Y-51341061D02*
X66026814Y-51412490D01*
X66026814Y-51412490D02*
X65979195Y-51460109D01*
X65979195Y-51460109D02*
X65931576Y-51483918D01*
X53507942Y-46279809D02*
X53341276Y-46041714D01*
X53222228Y-46279809D02*
X53222228Y-45779809D01*
X53222228Y-45779809D02*
X53412704Y-45779809D01*
X53412704Y-45779809D02*
X53460323Y-45803619D01*
X53460323Y-45803619D02*
X53484133Y-45827428D01*
X53484133Y-45827428D02*
X53507942Y-45875047D01*
X53507942Y-45875047D02*
X53507942Y-45946476D01*
X53507942Y-45946476D02*
X53484133Y-45994095D01*
X53484133Y-45994095D02*
X53460323Y-46017904D01*
X53460323Y-46017904D02*
X53412704Y-46041714D01*
X53412704Y-46041714D02*
X53222228Y-46041714D01*
X53674609Y-45779809D02*
X53984133Y-45779809D01*
X53984133Y-45779809D02*
X53817466Y-45970285D01*
X53817466Y-45970285D02*
X53888895Y-45970285D01*
X53888895Y-45970285D02*
X53936514Y-45994095D01*
X53936514Y-45994095D02*
X53960323Y-46017904D01*
X53960323Y-46017904D02*
X53984133Y-46065523D01*
X53984133Y-46065523D02*
X53984133Y-46184571D01*
X53984133Y-46184571D02*
X53960323Y-46232190D01*
X53960323Y-46232190D02*
X53936514Y-46256000D01*
X53936514Y-46256000D02*
X53888895Y-46279809D01*
X53888895Y-46279809D02*
X53746038Y-46279809D01*
X53746038Y-46279809D02*
X53698419Y-46256000D01*
X53698419Y-46256000D02*
X53674609Y-46232190D01*
X78021099Y-49767190D02*
X77997290Y-49791000D01*
X77997290Y-49791000D02*
X77925861Y-49814809D01*
X77925861Y-49814809D02*
X77878242Y-49814809D01*
X77878242Y-49814809D02*
X77806814Y-49791000D01*
X77806814Y-49791000D02*
X77759195Y-49743380D01*
X77759195Y-49743380D02*
X77735385Y-49695761D01*
X77735385Y-49695761D02*
X77711576Y-49600523D01*
X77711576Y-49600523D02*
X77711576Y-49529095D01*
X77711576Y-49529095D02*
X77735385Y-49433857D01*
X77735385Y-49433857D02*
X77759195Y-49386238D01*
X77759195Y-49386238D02*
X77806814Y-49338619D01*
X77806814Y-49338619D02*
X77878242Y-49314809D01*
X77878242Y-49314809D02*
X77925861Y-49314809D01*
X77925861Y-49314809D02*
X77997290Y-49338619D01*
X77997290Y-49338619D02*
X78021099Y-49362428D01*
X78497290Y-49814809D02*
X78211576Y-49814809D01*
X78354433Y-49814809D02*
X78354433Y-49314809D01*
X78354433Y-49314809D02*
X78306814Y-49386238D01*
X78306814Y-49386238D02*
X78259195Y-49433857D01*
X78259195Y-49433857D02*
X78211576Y-49457666D01*
X78973480Y-49814809D02*
X78687766Y-49814809D01*
X78830623Y-49814809D02*
X78830623Y-49314809D01*
X78830623Y-49314809D02*
X78783004Y-49386238D01*
X78783004Y-49386238D02*
X78735385Y-49433857D01*
X78735385Y-49433857D02*
X78687766Y-49457666D01*
X70026099Y-63734809D02*
X69859433Y-63496714D01*
X69740385Y-63734809D02*
X69740385Y-63234809D01*
X69740385Y-63234809D02*
X69930861Y-63234809D01*
X69930861Y-63234809D02*
X69978480Y-63258619D01*
X69978480Y-63258619D02*
X70002290Y-63282428D01*
X70002290Y-63282428D02*
X70026099Y-63330047D01*
X70026099Y-63330047D02*
X70026099Y-63401476D01*
X70026099Y-63401476D02*
X70002290Y-63449095D01*
X70002290Y-63449095D02*
X69978480Y-63472904D01*
X69978480Y-63472904D02*
X69930861Y-63496714D01*
X69930861Y-63496714D02*
X69740385Y-63496714D01*
X70502290Y-63734809D02*
X70216576Y-63734809D01*
X70359433Y-63734809D02*
X70359433Y-63234809D01*
X70359433Y-63234809D02*
X70311814Y-63306238D01*
X70311814Y-63306238D02*
X70264195Y-63353857D01*
X70264195Y-63353857D02*
X70216576Y-63377666D01*
X70811813Y-63234809D02*
X70859432Y-63234809D01*
X70859432Y-63234809D02*
X70907051Y-63258619D01*
X70907051Y-63258619D02*
X70930861Y-63282428D01*
X70930861Y-63282428D02*
X70954670Y-63330047D01*
X70954670Y-63330047D02*
X70978480Y-63425285D01*
X70978480Y-63425285D02*
X70978480Y-63544333D01*
X70978480Y-63544333D02*
X70954670Y-63639571D01*
X70954670Y-63639571D02*
X70930861Y-63687190D01*
X70930861Y-63687190D02*
X70907051Y-63711000D01*
X70907051Y-63711000D02*
X70859432Y-63734809D01*
X70859432Y-63734809D02*
X70811813Y-63734809D01*
X70811813Y-63734809D02*
X70764194Y-63711000D01*
X70764194Y-63711000D02*
X70740385Y-63687190D01*
X70740385Y-63687190D02*
X70716575Y-63639571D01*
X70716575Y-63639571D02*
X70692766Y-63544333D01*
X70692766Y-63544333D02*
X70692766Y-63425285D01*
X70692766Y-63425285D02*
X70716575Y-63330047D01*
X70716575Y-63330047D02*
X70740385Y-63282428D01*
X70740385Y-63282428D02*
X70764194Y-63258619D01*
X70764194Y-63258619D02*
X70811813Y-63234809D01*
X53142813Y-56115714D02*
X53178528Y-56151428D01*
X53178528Y-56151428D02*
X53214242Y-56258571D01*
X53214242Y-56258571D02*
X53214242Y-56329999D01*
X53214242Y-56329999D02*
X53178528Y-56437142D01*
X53178528Y-56437142D02*
X53107099Y-56508571D01*
X53107099Y-56508571D02*
X53035670Y-56544285D01*
X53035670Y-56544285D02*
X52892813Y-56579999D01*
X52892813Y-56579999D02*
X52785670Y-56579999D01*
X52785670Y-56579999D02*
X52642813Y-56544285D01*
X52642813Y-56544285D02*
X52571385Y-56508571D01*
X52571385Y-56508571D02*
X52499956Y-56437142D01*
X52499956Y-56437142D02*
X52464242Y-56329999D01*
X52464242Y-56329999D02*
X52464242Y-56258571D01*
X52464242Y-56258571D02*
X52499956Y-56151428D01*
X52499956Y-56151428D02*
X52535670Y-56115714D01*
X53214242Y-55794285D02*
X52464242Y-55794285D01*
X52821385Y-55794285D02*
X52821385Y-55365714D01*
X53214242Y-55365714D02*
X52464242Y-55365714D01*
X52499956Y-54615714D02*
X52464242Y-54687143D01*
X52464242Y-54687143D02*
X52464242Y-54794285D01*
X52464242Y-54794285D02*
X52499956Y-54901428D01*
X52499956Y-54901428D02*
X52571385Y-54972857D01*
X52571385Y-54972857D02*
X52642813Y-55008571D01*
X52642813Y-55008571D02*
X52785670Y-55044285D01*
X52785670Y-55044285D02*
X52892813Y-55044285D01*
X52892813Y-55044285D02*
X53035670Y-55008571D01*
X53035670Y-55008571D02*
X53107099Y-54972857D01*
X53107099Y-54972857D02*
X53178528Y-54901428D01*
X53178528Y-54901428D02*
X53214242Y-54794285D01*
X53214242Y-54794285D02*
X53214242Y-54722857D01*
X53214242Y-54722857D02*
X53178528Y-54615714D01*
X53178528Y-54615714D02*
X53142813Y-54580000D01*
X53142813Y-54580000D02*
X52892813Y-54580000D01*
X52892813Y-54580000D02*
X52892813Y-54722857D01*
X56314908Y-62022428D02*
X56267289Y-61998619D01*
X56267289Y-61998619D02*
X56219670Y-61951000D01*
X56219670Y-61951000D02*
X56148242Y-61879571D01*
X56148242Y-61879571D02*
X56100623Y-61855761D01*
X56100623Y-61855761D02*
X56053004Y-61855761D01*
X56076813Y-61974809D02*
X56029194Y-61951000D01*
X56029194Y-61951000D02*
X55981575Y-61903380D01*
X55981575Y-61903380D02*
X55957766Y-61808142D01*
X55957766Y-61808142D02*
X55957766Y-61641476D01*
X55957766Y-61641476D02*
X55981575Y-61546238D01*
X55981575Y-61546238D02*
X56029194Y-61498619D01*
X56029194Y-61498619D02*
X56076813Y-61474809D01*
X56076813Y-61474809D02*
X56172051Y-61474809D01*
X56172051Y-61474809D02*
X56219670Y-61498619D01*
X56219670Y-61498619D02*
X56267289Y-61546238D01*
X56267289Y-61546238D02*
X56291099Y-61641476D01*
X56291099Y-61641476D02*
X56291099Y-61808142D01*
X56291099Y-61808142D02*
X56267289Y-61903380D01*
X56267289Y-61903380D02*
X56219670Y-61951000D01*
X56219670Y-61951000D02*
X56172051Y-61974809D01*
X56172051Y-61974809D02*
X56076813Y-61974809D01*
X56457766Y-61474809D02*
X56767290Y-61474809D01*
X56767290Y-61474809D02*
X56600623Y-61665285D01*
X56600623Y-61665285D02*
X56672052Y-61665285D01*
X56672052Y-61665285D02*
X56719671Y-61689095D01*
X56719671Y-61689095D02*
X56743480Y-61712904D01*
X56743480Y-61712904D02*
X56767290Y-61760523D01*
X56767290Y-61760523D02*
X56767290Y-61879571D01*
X56767290Y-61879571D02*
X56743480Y-61927190D01*
X56743480Y-61927190D02*
X56719671Y-61951000D01*
X56719671Y-61951000D02*
X56672052Y-61974809D01*
X56672052Y-61974809D02*
X56529195Y-61974809D01*
X56529195Y-61974809D02*
X56481576Y-61951000D01*
X56481576Y-61951000D02*
X56457766Y-61927190D01*
X76711099Y-63172190D02*
X76687290Y-63196000D01*
X76687290Y-63196000D02*
X76615861Y-63219809D01*
X76615861Y-63219809D02*
X76568242Y-63219809D01*
X76568242Y-63219809D02*
X76496814Y-63196000D01*
X76496814Y-63196000D02*
X76449195Y-63148380D01*
X76449195Y-63148380D02*
X76425385Y-63100761D01*
X76425385Y-63100761D02*
X76401576Y-63005523D01*
X76401576Y-63005523D02*
X76401576Y-62934095D01*
X76401576Y-62934095D02*
X76425385Y-62838857D01*
X76425385Y-62838857D02*
X76449195Y-62791238D01*
X76449195Y-62791238D02*
X76496814Y-62743619D01*
X76496814Y-62743619D02*
X76568242Y-62719809D01*
X76568242Y-62719809D02*
X76615861Y-62719809D01*
X76615861Y-62719809D02*
X76687290Y-62743619D01*
X76687290Y-62743619D02*
X76711099Y-62767428D01*
X77187290Y-63219809D02*
X76901576Y-63219809D01*
X77044433Y-63219809D02*
X77044433Y-62719809D01*
X77044433Y-62719809D02*
X76996814Y-62791238D01*
X76996814Y-62791238D02*
X76949195Y-62838857D01*
X76949195Y-62838857D02*
X76901576Y-62862666D01*
X77353956Y-62719809D02*
X77663480Y-62719809D01*
X77663480Y-62719809D02*
X77496813Y-62910285D01*
X77496813Y-62910285D02*
X77568242Y-62910285D01*
X77568242Y-62910285D02*
X77615861Y-62934095D01*
X77615861Y-62934095D02*
X77639670Y-62957904D01*
X77639670Y-62957904D02*
X77663480Y-63005523D01*
X77663480Y-63005523D02*
X77663480Y-63124571D01*
X77663480Y-63124571D02*
X77639670Y-63172190D01*
X77639670Y-63172190D02*
X77615861Y-63196000D01*
X77615861Y-63196000D02*
X77568242Y-63219809D01*
X77568242Y-63219809D02*
X77425385Y-63219809D01*
X77425385Y-63219809D02*
X77377766Y-63196000D01*
X77377766Y-63196000D02*
X77353956Y-63172190D01*
X71134194Y-54399809D02*
X70896099Y-54399809D01*
X70896099Y-54399809D02*
X70896099Y-53899809D01*
X71253242Y-53899809D02*
X71562766Y-53899809D01*
X71562766Y-53899809D02*
X71396099Y-54090285D01*
X71396099Y-54090285D02*
X71467528Y-54090285D01*
X71467528Y-54090285D02*
X71515147Y-54114095D01*
X71515147Y-54114095D02*
X71538956Y-54137904D01*
X71538956Y-54137904D02*
X71562766Y-54185523D01*
X71562766Y-54185523D02*
X71562766Y-54304571D01*
X71562766Y-54304571D02*
X71538956Y-54352190D01*
X71538956Y-54352190D02*
X71515147Y-54376000D01*
X71515147Y-54376000D02*
X71467528Y-54399809D01*
X71467528Y-54399809D02*
X71324671Y-54399809D01*
X71324671Y-54399809D02*
X71277052Y-54376000D01*
X71277052Y-54376000D02*
X71253242Y-54352190D01*
X64079194Y-48354809D02*
X63841099Y-48354809D01*
X63841099Y-48354809D02*
X63841099Y-47854809D01*
X64507766Y-48354809D02*
X64222052Y-48354809D01*
X64364909Y-48354809D02*
X64364909Y-47854809D01*
X64364909Y-47854809D02*
X64317290Y-47926238D01*
X64317290Y-47926238D02*
X64269671Y-47973857D01*
X64269671Y-47973857D02*
X64222052Y-47997666D01*
X74024194Y-64579809D02*
X73857528Y-64341714D01*
X73738480Y-64579809D02*
X73738480Y-64079809D01*
X73738480Y-64079809D02*
X73928956Y-64079809D01*
X73928956Y-64079809D02*
X73976575Y-64103619D01*
X73976575Y-64103619D02*
X74000385Y-64127428D01*
X74000385Y-64127428D02*
X74024194Y-64175047D01*
X74024194Y-64175047D02*
X74024194Y-64246476D01*
X74024194Y-64246476D02*
X74000385Y-64294095D01*
X74000385Y-64294095D02*
X73976575Y-64317904D01*
X73976575Y-64317904D02*
X73928956Y-64341714D01*
X73928956Y-64341714D02*
X73738480Y-64341714D01*
X74262290Y-64579809D02*
X74357528Y-64579809D01*
X74357528Y-64579809D02*
X74405147Y-64556000D01*
X74405147Y-64556000D02*
X74428956Y-64532190D01*
X74428956Y-64532190D02*
X74476575Y-64460761D01*
X74476575Y-64460761D02*
X74500385Y-64365523D01*
X74500385Y-64365523D02*
X74500385Y-64175047D01*
X74500385Y-64175047D02*
X74476575Y-64127428D01*
X74476575Y-64127428D02*
X74452766Y-64103619D01*
X74452766Y-64103619D02*
X74405147Y-64079809D01*
X74405147Y-64079809D02*
X74309909Y-64079809D01*
X74309909Y-64079809D02*
X74262290Y-64103619D01*
X74262290Y-64103619D02*
X74238480Y-64127428D01*
X74238480Y-64127428D02*
X74214671Y-64175047D01*
X74214671Y-64175047D02*
X74214671Y-64294095D01*
X74214671Y-64294095D02*
X74238480Y-64341714D01*
X74238480Y-64341714D02*
X74262290Y-64365523D01*
X74262290Y-64365523D02*
X74309909Y-64389333D01*
X74309909Y-64389333D02*
X74405147Y-64389333D01*
X74405147Y-64389333D02*
X74452766Y-64365523D01*
X74452766Y-64365523D02*
X74476575Y-64341714D01*
X74476575Y-64341714D02*
X74500385Y-64294095D01*
X70586575Y-51139809D02*
X70586575Y-51544571D01*
X70586575Y-51544571D02*
X70610385Y-51592190D01*
X70610385Y-51592190D02*
X70634194Y-51616000D01*
X70634194Y-51616000D02*
X70681813Y-51639809D01*
X70681813Y-51639809D02*
X70777051Y-51639809D01*
X70777051Y-51639809D02*
X70824670Y-51616000D01*
X70824670Y-51616000D02*
X70848480Y-51592190D01*
X70848480Y-51592190D02*
X70872289Y-51544571D01*
X70872289Y-51544571D02*
X70872289Y-51139809D01*
X71372290Y-51639809D02*
X71086576Y-51639809D01*
X71229433Y-51639809D02*
X71229433Y-51139809D01*
X71229433Y-51139809D02*
X71181814Y-51211238D01*
X71181814Y-51211238D02*
X71134195Y-51258857D01*
X71134195Y-51258857D02*
X71086576Y-51282666D01*
X58929194Y-55782190D02*
X58905385Y-55806000D01*
X58905385Y-55806000D02*
X58833956Y-55829809D01*
X58833956Y-55829809D02*
X58786337Y-55829809D01*
X58786337Y-55829809D02*
X58714909Y-55806000D01*
X58714909Y-55806000D02*
X58667290Y-55758380D01*
X58667290Y-55758380D02*
X58643480Y-55710761D01*
X58643480Y-55710761D02*
X58619671Y-55615523D01*
X58619671Y-55615523D02*
X58619671Y-55544095D01*
X58619671Y-55544095D02*
X58643480Y-55448857D01*
X58643480Y-55448857D02*
X58667290Y-55401238D01*
X58667290Y-55401238D02*
X58714909Y-55353619D01*
X58714909Y-55353619D02*
X58786337Y-55329809D01*
X58786337Y-55329809D02*
X58833956Y-55329809D01*
X58833956Y-55329809D02*
X58905385Y-55353619D01*
X58905385Y-55353619D02*
X58929194Y-55377428D01*
X59357766Y-55496476D02*
X59357766Y-55829809D01*
X59238718Y-55306000D02*
X59119671Y-55663142D01*
X59119671Y-55663142D02*
X59429194Y-55663142D01*
X69754194Y-51802190D02*
X69730385Y-51826000D01*
X69730385Y-51826000D02*
X69658956Y-51849809D01*
X69658956Y-51849809D02*
X69611337Y-51849809D01*
X69611337Y-51849809D02*
X69539909Y-51826000D01*
X69539909Y-51826000D02*
X69492290Y-51778380D01*
X69492290Y-51778380D02*
X69468480Y-51730761D01*
X69468480Y-51730761D02*
X69444671Y-51635523D01*
X69444671Y-51635523D02*
X69444671Y-51564095D01*
X69444671Y-51564095D02*
X69468480Y-51468857D01*
X69468480Y-51468857D02*
X69492290Y-51421238D01*
X69492290Y-51421238D02*
X69539909Y-51373619D01*
X69539909Y-51373619D02*
X69611337Y-51349809D01*
X69611337Y-51349809D02*
X69658956Y-51349809D01*
X69658956Y-51349809D02*
X69730385Y-51373619D01*
X69730385Y-51373619D02*
X69754194Y-51397428D01*
X69992290Y-51849809D02*
X70087528Y-51849809D01*
X70087528Y-51849809D02*
X70135147Y-51826000D01*
X70135147Y-51826000D02*
X70158956Y-51802190D01*
X70158956Y-51802190D02*
X70206575Y-51730761D01*
X70206575Y-51730761D02*
X70230385Y-51635523D01*
X70230385Y-51635523D02*
X70230385Y-51445047D01*
X70230385Y-51445047D02*
X70206575Y-51397428D01*
X70206575Y-51397428D02*
X70182766Y-51373619D01*
X70182766Y-51373619D02*
X70135147Y-51349809D01*
X70135147Y-51349809D02*
X70039909Y-51349809D01*
X70039909Y-51349809D02*
X69992290Y-51373619D01*
X69992290Y-51373619D02*
X69968480Y-51397428D01*
X69968480Y-51397428D02*
X69944671Y-51445047D01*
X69944671Y-51445047D02*
X69944671Y-51564095D01*
X69944671Y-51564095D02*
X69968480Y-51611714D01*
X69968480Y-51611714D02*
X69992290Y-51635523D01*
X69992290Y-51635523D02*
X70039909Y-51659333D01*
X70039909Y-51659333D02*
X70135147Y-51659333D01*
X70135147Y-51659333D02*
X70182766Y-51635523D01*
X70182766Y-51635523D02*
X70206575Y-51611714D01*
X70206575Y-51611714D02*
X70230385Y-51564095D01*
X59604194Y-44029809D02*
X59437528Y-43791714D01*
X59318480Y-44029809D02*
X59318480Y-43529809D01*
X59318480Y-43529809D02*
X59508956Y-43529809D01*
X59508956Y-43529809D02*
X59556575Y-43553619D01*
X59556575Y-43553619D02*
X59580385Y-43577428D01*
X59580385Y-43577428D02*
X59604194Y-43625047D01*
X59604194Y-43625047D02*
X59604194Y-43696476D01*
X59604194Y-43696476D02*
X59580385Y-43744095D01*
X59580385Y-43744095D02*
X59556575Y-43767904D01*
X59556575Y-43767904D02*
X59508956Y-43791714D01*
X59508956Y-43791714D02*
X59318480Y-43791714D01*
X60056575Y-43529809D02*
X59818480Y-43529809D01*
X59818480Y-43529809D02*
X59794671Y-43767904D01*
X59794671Y-43767904D02*
X59818480Y-43744095D01*
X59818480Y-43744095D02*
X59866099Y-43720285D01*
X59866099Y-43720285D02*
X59985147Y-43720285D01*
X59985147Y-43720285D02*
X60032766Y-43744095D01*
X60032766Y-43744095D02*
X60056575Y-43767904D01*
X60056575Y-43767904D02*
X60080385Y-43815523D01*
X60080385Y-43815523D02*
X60080385Y-43934571D01*
X60080385Y-43934571D02*
X60056575Y-43982190D01*
X60056575Y-43982190D02*
X60032766Y-44006000D01*
X60032766Y-44006000D02*
X59985147Y-44029809D01*
X59985147Y-44029809D02*
X59866099Y-44029809D01*
X59866099Y-44029809D02*
X59818480Y-44006000D01*
X59818480Y-44006000D02*
X59794671Y-43982190D01*
X63194433Y-61489809D02*
X63194433Y-60989809D01*
X63718242Y-61442190D02*
X63694433Y-61466000D01*
X63694433Y-61466000D02*
X63623004Y-61489809D01*
X63623004Y-61489809D02*
X63575385Y-61489809D01*
X63575385Y-61489809D02*
X63503957Y-61466000D01*
X63503957Y-61466000D02*
X63456338Y-61418380D01*
X63456338Y-61418380D02*
X63432528Y-61370761D01*
X63432528Y-61370761D02*
X63408719Y-61275523D01*
X63408719Y-61275523D02*
X63408719Y-61204095D01*
X63408719Y-61204095D02*
X63432528Y-61108857D01*
X63432528Y-61108857D02*
X63456338Y-61061238D01*
X63456338Y-61061238D02*
X63503957Y-61013619D01*
X63503957Y-61013619D02*
X63575385Y-60989809D01*
X63575385Y-60989809D02*
X63623004Y-60989809D01*
X63623004Y-60989809D02*
X63694433Y-61013619D01*
X63694433Y-61013619D02*
X63718242Y-61037428D01*
X63908719Y-61037428D02*
X63932528Y-61013619D01*
X63932528Y-61013619D02*
X63980147Y-60989809D01*
X63980147Y-60989809D02*
X64099195Y-60989809D01*
X64099195Y-60989809D02*
X64146814Y-61013619D01*
X64146814Y-61013619D02*
X64170623Y-61037428D01*
X64170623Y-61037428D02*
X64194433Y-61085047D01*
X64194433Y-61085047D02*
X64194433Y-61132666D01*
X64194433Y-61132666D02*
X64170623Y-61204095D01*
X64170623Y-61204095D02*
X63884909Y-61489809D01*
X63884909Y-61489809D02*
X64194433Y-61489809D01*
X71514194Y-52369809D02*
X71347528Y-52131714D01*
X71228480Y-52369809D02*
X71228480Y-51869809D01*
X71228480Y-51869809D02*
X71418956Y-51869809D01*
X71418956Y-51869809D02*
X71466575Y-51893619D01*
X71466575Y-51893619D02*
X71490385Y-51917428D01*
X71490385Y-51917428D02*
X71514194Y-51965047D01*
X71514194Y-51965047D02*
X71514194Y-52036476D01*
X71514194Y-52036476D02*
X71490385Y-52084095D01*
X71490385Y-52084095D02*
X71466575Y-52107904D01*
X71466575Y-52107904D02*
X71418956Y-52131714D01*
X71418956Y-52131714D02*
X71228480Y-52131714D01*
X71799909Y-52084095D02*
X71752290Y-52060285D01*
X71752290Y-52060285D02*
X71728480Y-52036476D01*
X71728480Y-52036476D02*
X71704671Y-51988857D01*
X71704671Y-51988857D02*
X71704671Y-51965047D01*
X71704671Y-51965047D02*
X71728480Y-51917428D01*
X71728480Y-51917428D02*
X71752290Y-51893619D01*
X71752290Y-51893619D02*
X71799909Y-51869809D01*
X71799909Y-51869809D02*
X71895147Y-51869809D01*
X71895147Y-51869809D02*
X71942766Y-51893619D01*
X71942766Y-51893619D02*
X71966575Y-51917428D01*
X71966575Y-51917428D02*
X71990385Y-51965047D01*
X71990385Y-51965047D02*
X71990385Y-51988857D01*
X71990385Y-51988857D02*
X71966575Y-52036476D01*
X71966575Y-52036476D02*
X71942766Y-52060285D01*
X71942766Y-52060285D02*
X71895147Y-52084095D01*
X71895147Y-52084095D02*
X71799909Y-52084095D01*
X71799909Y-52084095D02*
X71752290Y-52107904D01*
X71752290Y-52107904D02*
X71728480Y-52131714D01*
X71728480Y-52131714D02*
X71704671Y-52179333D01*
X71704671Y-52179333D02*
X71704671Y-52274571D01*
X71704671Y-52274571D02*
X71728480Y-52322190D01*
X71728480Y-52322190D02*
X71752290Y-52346000D01*
X71752290Y-52346000D02*
X71799909Y-52369809D01*
X71799909Y-52369809D02*
X71895147Y-52369809D01*
X71895147Y-52369809D02*
X71942766Y-52346000D01*
X71942766Y-52346000D02*
X71966575Y-52322190D01*
X71966575Y-52322190D02*
X71990385Y-52274571D01*
X71990385Y-52274571D02*
X71990385Y-52179333D01*
X71990385Y-52179333D02*
X71966575Y-52131714D01*
X71966575Y-52131714D02*
X71942766Y-52107904D01*
X71942766Y-52107904D02*
X71895147Y-52084095D01*
X64029194Y-50457190D02*
X64005385Y-50481000D01*
X64005385Y-50481000D02*
X63933956Y-50504809D01*
X63933956Y-50504809D02*
X63886337Y-50504809D01*
X63886337Y-50504809D02*
X63814909Y-50481000D01*
X63814909Y-50481000D02*
X63767290Y-50433380D01*
X63767290Y-50433380D02*
X63743480Y-50385761D01*
X63743480Y-50385761D02*
X63719671Y-50290523D01*
X63719671Y-50290523D02*
X63719671Y-50219095D01*
X63719671Y-50219095D02*
X63743480Y-50123857D01*
X63743480Y-50123857D02*
X63767290Y-50076238D01*
X63767290Y-50076238D02*
X63814909Y-50028619D01*
X63814909Y-50028619D02*
X63886337Y-50004809D01*
X63886337Y-50004809D02*
X63933956Y-50004809D01*
X63933956Y-50004809D02*
X64005385Y-50028619D01*
X64005385Y-50028619D02*
X64029194Y-50052428D01*
X64195861Y-50004809D02*
X64529194Y-50004809D01*
X64529194Y-50004809D02*
X64314909Y-50504809D01*
X72124194Y-43189809D02*
X71886099Y-43189809D01*
X71886099Y-43189809D02*
X71886099Y-42689809D01*
X72267052Y-42737428D02*
X72290861Y-42713619D01*
X72290861Y-42713619D02*
X72338480Y-42689809D01*
X72338480Y-42689809D02*
X72457528Y-42689809D01*
X72457528Y-42689809D02*
X72505147Y-42713619D01*
X72505147Y-42713619D02*
X72528956Y-42737428D01*
X72528956Y-42737428D02*
X72552766Y-42785047D01*
X72552766Y-42785047D02*
X72552766Y-42832666D01*
X72552766Y-42832666D02*
X72528956Y-42904095D01*
X72528956Y-42904095D02*
X72243242Y-43189809D01*
X72243242Y-43189809D02*
X72552766Y-43189809D01*
X52514956Y-59276428D02*
X52479242Y-59347857D01*
X52479242Y-59347857D02*
X52479242Y-59454999D01*
X52479242Y-59454999D02*
X52514956Y-59562142D01*
X52514956Y-59562142D02*
X52586385Y-59633571D01*
X52586385Y-59633571D02*
X52657813Y-59669285D01*
X52657813Y-59669285D02*
X52800670Y-59704999D01*
X52800670Y-59704999D02*
X52907813Y-59704999D01*
X52907813Y-59704999D02*
X53050670Y-59669285D01*
X53050670Y-59669285D02*
X53122099Y-59633571D01*
X53122099Y-59633571D02*
X53193528Y-59562142D01*
X53193528Y-59562142D02*
X53229242Y-59454999D01*
X53229242Y-59454999D02*
X53229242Y-59383571D01*
X53229242Y-59383571D02*
X53193528Y-59276428D01*
X53193528Y-59276428D02*
X53157813Y-59240714D01*
X53157813Y-59240714D02*
X52907813Y-59240714D01*
X52907813Y-59240714D02*
X52907813Y-59383571D01*
X53229242Y-58919285D02*
X52479242Y-58919285D01*
X52479242Y-58919285D02*
X53229242Y-58490714D01*
X53229242Y-58490714D02*
X52479242Y-58490714D01*
X53229242Y-58133571D02*
X52479242Y-58133571D01*
X52479242Y-58133571D02*
X52479242Y-57955000D01*
X52479242Y-57955000D02*
X52514956Y-57847857D01*
X52514956Y-57847857D02*
X52586385Y-57776428D01*
X52586385Y-57776428D02*
X52657813Y-57740714D01*
X52657813Y-57740714D02*
X52800670Y-57705000D01*
X52800670Y-57705000D02*
X52907813Y-57705000D01*
X52907813Y-57705000D02*
X53050670Y-57740714D01*
X53050670Y-57740714D02*
X53122099Y-57776428D01*
X53122099Y-57776428D02*
X53193528Y-57847857D01*
X53193528Y-57847857D02*
X53229242Y-57955000D01*
X53229242Y-57955000D02*
X53229242Y-58133571D01*
X58529194Y-50207190D02*
X58505385Y-50231000D01*
X58505385Y-50231000D02*
X58433956Y-50254809D01*
X58433956Y-50254809D02*
X58386337Y-50254809D01*
X58386337Y-50254809D02*
X58314909Y-50231000D01*
X58314909Y-50231000D02*
X58267290Y-50183380D01*
X58267290Y-50183380D02*
X58243480Y-50135761D01*
X58243480Y-50135761D02*
X58219671Y-50040523D01*
X58219671Y-50040523D02*
X58219671Y-49969095D01*
X58219671Y-49969095D02*
X58243480Y-49873857D01*
X58243480Y-49873857D02*
X58267290Y-49826238D01*
X58267290Y-49826238D02*
X58314909Y-49778619D01*
X58314909Y-49778619D02*
X58386337Y-49754809D01*
X58386337Y-49754809D02*
X58433956Y-49754809D01*
X58433956Y-49754809D02*
X58505385Y-49778619D01*
X58505385Y-49778619D02*
X58529194Y-49802428D01*
X58957766Y-49754809D02*
X58862528Y-49754809D01*
X58862528Y-49754809D02*
X58814909Y-49778619D01*
X58814909Y-49778619D02*
X58791099Y-49802428D01*
X58791099Y-49802428D02*
X58743480Y-49873857D01*
X58743480Y-49873857D02*
X58719671Y-49969095D01*
X58719671Y-49969095D02*
X58719671Y-50159571D01*
X58719671Y-50159571D02*
X58743480Y-50207190D01*
X58743480Y-50207190D02*
X58767290Y-50231000D01*
X58767290Y-50231000D02*
X58814909Y-50254809D01*
X58814909Y-50254809D02*
X58910147Y-50254809D01*
X58910147Y-50254809D02*
X58957766Y-50231000D01*
X58957766Y-50231000D02*
X58981575Y-50207190D01*
X58981575Y-50207190D02*
X59005385Y-50159571D01*
X59005385Y-50159571D02*
X59005385Y-50040523D01*
X59005385Y-50040523D02*
X58981575Y-49992904D01*
X58981575Y-49992904D02*
X58957766Y-49969095D01*
X58957766Y-49969095D02*
X58910147Y-49945285D01*
X58910147Y-49945285D02*
X58814909Y-49945285D01*
X58814909Y-49945285D02*
X58767290Y-49969095D01*
X58767290Y-49969095D02*
X58743480Y-49992904D01*
X58743480Y-49992904D02*
X58719671Y-50040523D01*
X60591099Y-58874809D02*
X60424433Y-58636714D01*
X60305385Y-58874809D02*
X60305385Y-58374809D01*
X60305385Y-58374809D02*
X60495861Y-58374809D01*
X60495861Y-58374809D02*
X60543480Y-58398619D01*
X60543480Y-58398619D02*
X60567290Y-58422428D01*
X60567290Y-58422428D02*
X60591099Y-58470047D01*
X60591099Y-58470047D02*
X60591099Y-58541476D01*
X60591099Y-58541476D02*
X60567290Y-58589095D01*
X60567290Y-58589095D02*
X60543480Y-58612904D01*
X60543480Y-58612904D02*
X60495861Y-58636714D01*
X60495861Y-58636714D02*
X60305385Y-58636714D01*
X61067290Y-58874809D02*
X60781576Y-58874809D01*
X60924433Y-58874809D02*
X60924433Y-58374809D01*
X60924433Y-58374809D02*
X60876814Y-58446238D01*
X60876814Y-58446238D02*
X60829195Y-58493857D01*
X60829195Y-58493857D02*
X60781576Y-58517666D01*
X61543480Y-58874809D02*
X61257766Y-58874809D01*
X61400623Y-58874809D02*
X61400623Y-58374809D01*
X61400623Y-58374809D02*
X61353004Y-58446238D01*
X61353004Y-58446238D02*
X61305385Y-58493857D01*
X61305385Y-58493857D02*
X61257766Y-58517666D01*
X65116099Y-62992428D02*
X65044671Y-62956714D01*
X65044671Y-62956714D02*
X64937528Y-62956714D01*
X64937528Y-62956714D02*
X64830385Y-62992428D01*
X64830385Y-62992428D02*
X64758956Y-63063857D01*
X64758956Y-63063857D02*
X64723242Y-63135285D01*
X64723242Y-63135285D02*
X64687528Y-63278142D01*
X64687528Y-63278142D02*
X64687528Y-63385285D01*
X64687528Y-63385285D02*
X64723242Y-63528142D01*
X64723242Y-63528142D02*
X64758956Y-63599571D01*
X64758956Y-63599571D02*
X64830385Y-63671000D01*
X64830385Y-63671000D02*
X64937528Y-63706714D01*
X64937528Y-63706714D02*
X65008956Y-63706714D01*
X65008956Y-63706714D02*
X65116099Y-63671000D01*
X65116099Y-63671000D02*
X65151813Y-63635285D01*
X65151813Y-63635285D02*
X65151813Y-63385285D01*
X65151813Y-63385285D02*
X65008956Y-63385285D01*
X65473242Y-63706714D02*
X65473242Y-62956714D01*
X65473242Y-62956714D02*
X65901813Y-63706714D01*
X65901813Y-63706714D02*
X65901813Y-62956714D01*
X66258956Y-63706714D02*
X66258956Y-62956714D01*
X66258956Y-62956714D02*
X66437527Y-62956714D01*
X66437527Y-62956714D02*
X66544670Y-62992428D01*
X66544670Y-62992428D02*
X66616099Y-63063857D01*
X66616099Y-63063857D02*
X66651813Y-63135285D01*
X66651813Y-63135285D02*
X66687527Y-63278142D01*
X66687527Y-63278142D02*
X66687527Y-63385285D01*
X66687527Y-63385285D02*
X66651813Y-63528142D01*
X66651813Y-63528142D02*
X66616099Y-63599571D01*
X66616099Y-63599571D02*
X66544670Y-63671000D01*
X66544670Y-63671000D02*
X66437527Y-63706714D01*
X66437527Y-63706714D02*
X66258956Y-63706714D01*
X54084194Y-55854809D02*
X53917528Y-55616714D01*
X53798480Y-55854809D02*
X53798480Y-55354809D01*
X53798480Y-55354809D02*
X53988956Y-55354809D01*
X53988956Y-55354809D02*
X54036575Y-55378619D01*
X54036575Y-55378619D02*
X54060385Y-55402428D01*
X54060385Y-55402428D02*
X54084194Y-55450047D01*
X54084194Y-55450047D02*
X54084194Y-55521476D01*
X54084194Y-55521476D02*
X54060385Y-55569095D01*
X54060385Y-55569095D02*
X54036575Y-55592904D01*
X54036575Y-55592904D02*
X53988956Y-55616714D01*
X53988956Y-55616714D02*
X53798480Y-55616714D01*
X54560385Y-55854809D02*
X54274671Y-55854809D01*
X54417528Y-55854809D02*
X54417528Y-55354809D01*
X54417528Y-55354809D02*
X54369909Y-55426238D01*
X54369909Y-55426238D02*
X54322290Y-55473857D01*
X54322290Y-55473857D02*
X54274671Y-55497666D01*
X58224809Y-58091428D02*
X57986714Y-58258094D01*
X58224809Y-58377142D02*
X57724809Y-58377142D01*
X57724809Y-58377142D02*
X57724809Y-58186666D01*
X57724809Y-58186666D02*
X57748619Y-58139047D01*
X57748619Y-58139047D02*
X57772428Y-58115237D01*
X57772428Y-58115237D02*
X57820047Y-58091428D01*
X57820047Y-58091428D02*
X57891476Y-58091428D01*
X57891476Y-58091428D02*
X57939095Y-58115237D01*
X57939095Y-58115237D02*
X57962904Y-58139047D01*
X57962904Y-58139047D02*
X57986714Y-58186666D01*
X57986714Y-58186666D02*
X57986714Y-58377142D01*
X58224809Y-57615237D02*
X58224809Y-57900951D01*
X58224809Y-57758094D02*
X57724809Y-57758094D01*
X57724809Y-57758094D02*
X57796238Y-57805713D01*
X57796238Y-57805713D02*
X57843857Y-57853332D01*
X57843857Y-57853332D02*
X57867666Y-57900951D01*
X57772428Y-57424761D02*
X57748619Y-57400952D01*
X57748619Y-57400952D02*
X57724809Y-57353333D01*
X57724809Y-57353333D02*
X57724809Y-57234285D01*
X57724809Y-57234285D02*
X57748619Y-57186666D01*
X57748619Y-57186666D02*
X57772428Y-57162857D01*
X57772428Y-57162857D02*
X57820047Y-57139047D01*
X57820047Y-57139047D02*
X57867666Y-57139047D01*
X57867666Y-57139047D02*
X57939095Y-57162857D01*
X57939095Y-57162857D02*
X58224809Y-57448571D01*
X58224809Y-57448571D02*
X58224809Y-57139047D01*
X76746099Y-57652190D02*
X76722290Y-57676000D01*
X76722290Y-57676000D02*
X76650861Y-57699809D01*
X76650861Y-57699809D02*
X76603242Y-57699809D01*
X76603242Y-57699809D02*
X76531814Y-57676000D01*
X76531814Y-57676000D02*
X76484195Y-57628380D01*
X76484195Y-57628380D02*
X76460385Y-57580761D01*
X76460385Y-57580761D02*
X76436576Y-57485523D01*
X76436576Y-57485523D02*
X76436576Y-57414095D01*
X76436576Y-57414095D02*
X76460385Y-57318857D01*
X76460385Y-57318857D02*
X76484195Y-57271238D01*
X76484195Y-57271238D02*
X76531814Y-57223619D01*
X76531814Y-57223619D02*
X76603242Y-57199809D01*
X76603242Y-57199809D02*
X76650861Y-57199809D01*
X76650861Y-57199809D02*
X76722290Y-57223619D01*
X76722290Y-57223619D02*
X76746099Y-57247428D01*
X77222290Y-57699809D02*
X76936576Y-57699809D01*
X77079433Y-57699809D02*
X77079433Y-57199809D01*
X77079433Y-57199809D02*
X77031814Y-57271238D01*
X77031814Y-57271238D02*
X76984195Y-57318857D01*
X76984195Y-57318857D02*
X76936576Y-57342666D01*
X77674670Y-57199809D02*
X77436575Y-57199809D01*
X77436575Y-57199809D02*
X77412766Y-57437904D01*
X77412766Y-57437904D02*
X77436575Y-57414095D01*
X77436575Y-57414095D02*
X77484194Y-57390285D01*
X77484194Y-57390285D02*
X77603242Y-57390285D01*
X77603242Y-57390285D02*
X77650861Y-57414095D01*
X77650861Y-57414095D02*
X77674670Y-57437904D01*
X77674670Y-57437904D02*
X77698480Y-57485523D01*
X77698480Y-57485523D02*
X77698480Y-57604571D01*
X77698480Y-57604571D02*
X77674670Y-57652190D01*
X77674670Y-57652190D02*
X77650861Y-57676000D01*
X77650861Y-57676000D02*
X77603242Y-57699809D01*
X77603242Y-57699809D02*
X77484194Y-57699809D01*
X77484194Y-57699809D02*
X77436575Y-57676000D01*
X77436575Y-57676000D02*
X77412766Y-57652190D01*
X77745813Y-47107143D02*
X77745813Y-46750000D01*
X77745813Y-46750000D02*
X77388670Y-46714286D01*
X77388670Y-46714286D02*
X77424385Y-46750000D01*
X77424385Y-46750000D02*
X77460099Y-46821429D01*
X77460099Y-46821429D02*
X77460099Y-47000000D01*
X77460099Y-47000000D02*
X77424385Y-47071429D01*
X77424385Y-47071429D02*
X77388670Y-47107143D01*
X77388670Y-47107143D02*
X77317242Y-47142857D01*
X77317242Y-47142857D02*
X77138670Y-47142857D01*
X77138670Y-47142857D02*
X77067242Y-47107143D01*
X77067242Y-47107143D02*
X77031528Y-47071429D01*
X77031528Y-47071429D02*
X76995813Y-47000000D01*
X76995813Y-47000000D02*
X76995813Y-46821429D01*
X76995813Y-46821429D02*
X77031528Y-46750000D01*
X77031528Y-46750000D02*
X77067242Y-46714286D01*
X77745813Y-47357143D02*
X76995813Y-47607143D01*
X76995813Y-47607143D02*
X77745813Y-47857143D01*
X69526575Y-62329809D02*
X69526575Y-62734571D01*
X69526575Y-62734571D02*
X69550385Y-62782190D01*
X69550385Y-62782190D02*
X69574194Y-62806000D01*
X69574194Y-62806000D02*
X69621813Y-62829809D01*
X69621813Y-62829809D02*
X69717051Y-62829809D01*
X69717051Y-62829809D02*
X69764670Y-62806000D01*
X69764670Y-62806000D02*
X69788480Y-62782190D01*
X69788480Y-62782190D02*
X69812289Y-62734571D01*
X69812289Y-62734571D02*
X69812289Y-62329809D01*
X70026576Y-62377428D02*
X70050385Y-62353619D01*
X70050385Y-62353619D02*
X70098004Y-62329809D01*
X70098004Y-62329809D02*
X70217052Y-62329809D01*
X70217052Y-62329809D02*
X70264671Y-62353619D01*
X70264671Y-62353619D02*
X70288480Y-62377428D01*
X70288480Y-62377428D02*
X70312290Y-62425047D01*
X70312290Y-62425047D02*
X70312290Y-62472666D01*
X70312290Y-62472666D02*
X70288480Y-62544095D01*
X70288480Y-62544095D02*
X70002766Y-62829809D01*
X70002766Y-62829809D02*
X70312290Y-62829809D01*
X74866099Y-47812190D02*
X74842290Y-47836000D01*
X74842290Y-47836000D02*
X74770861Y-47859809D01*
X74770861Y-47859809D02*
X74723242Y-47859809D01*
X74723242Y-47859809D02*
X74651814Y-47836000D01*
X74651814Y-47836000D02*
X74604195Y-47788380D01*
X74604195Y-47788380D02*
X74580385Y-47740761D01*
X74580385Y-47740761D02*
X74556576Y-47645523D01*
X74556576Y-47645523D02*
X74556576Y-47574095D01*
X74556576Y-47574095D02*
X74580385Y-47478857D01*
X74580385Y-47478857D02*
X74604195Y-47431238D01*
X74604195Y-47431238D02*
X74651814Y-47383619D01*
X74651814Y-47383619D02*
X74723242Y-47359809D01*
X74723242Y-47359809D02*
X74770861Y-47359809D01*
X74770861Y-47359809D02*
X74842290Y-47383619D01*
X74842290Y-47383619D02*
X74866099Y-47407428D01*
X75342290Y-47859809D02*
X75056576Y-47859809D01*
X75199433Y-47859809D02*
X75199433Y-47359809D01*
X75199433Y-47359809D02*
X75151814Y-47431238D01*
X75151814Y-47431238D02*
X75104195Y-47478857D01*
X75104195Y-47478857D02*
X75056576Y-47502666D01*
X75651813Y-47359809D02*
X75699432Y-47359809D01*
X75699432Y-47359809D02*
X75747051Y-47383619D01*
X75747051Y-47383619D02*
X75770861Y-47407428D01*
X75770861Y-47407428D02*
X75794670Y-47455047D01*
X75794670Y-47455047D02*
X75818480Y-47550285D01*
X75818480Y-47550285D02*
X75818480Y-47669333D01*
X75818480Y-47669333D02*
X75794670Y-47764571D01*
X75794670Y-47764571D02*
X75770861Y-47812190D01*
X75770861Y-47812190D02*
X75747051Y-47836000D01*
X75747051Y-47836000D02*
X75699432Y-47859809D01*
X75699432Y-47859809D02*
X75651813Y-47859809D01*
X75651813Y-47859809D02*
X75604194Y-47836000D01*
X75604194Y-47836000D02*
X75580385Y-47812190D01*
X75580385Y-47812190D02*
X75556575Y-47764571D01*
X75556575Y-47764571D02*
X75532766Y-47669333D01*
X75532766Y-47669333D02*
X75532766Y-47550285D01*
X75532766Y-47550285D02*
X75556575Y-47455047D01*
X75556575Y-47455047D02*
X75580385Y-47407428D01*
X75580385Y-47407428D02*
X75604194Y-47383619D01*
X75604194Y-47383619D02*
X75651813Y-47359809D01*
X62504194Y-58079809D02*
X62337528Y-57841714D01*
X62218480Y-58079809D02*
X62218480Y-57579809D01*
X62218480Y-57579809D02*
X62408956Y-57579809D01*
X62408956Y-57579809D02*
X62456575Y-57603619D01*
X62456575Y-57603619D02*
X62480385Y-57627428D01*
X62480385Y-57627428D02*
X62504194Y-57675047D01*
X62504194Y-57675047D02*
X62504194Y-57746476D01*
X62504194Y-57746476D02*
X62480385Y-57794095D01*
X62480385Y-57794095D02*
X62456575Y-57817904D01*
X62456575Y-57817904D02*
X62408956Y-57841714D01*
X62408956Y-57841714D02*
X62218480Y-57841714D01*
X62932766Y-57579809D02*
X62837528Y-57579809D01*
X62837528Y-57579809D02*
X62789909Y-57603619D01*
X62789909Y-57603619D02*
X62766099Y-57627428D01*
X62766099Y-57627428D02*
X62718480Y-57698857D01*
X62718480Y-57698857D02*
X62694671Y-57794095D01*
X62694671Y-57794095D02*
X62694671Y-57984571D01*
X62694671Y-57984571D02*
X62718480Y-58032190D01*
X62718480Y-58032190D02*
X62742290Y-58056000D01*
X62742290Y-58056000D02*
X62789909Y-58079809D01*
X62789909Y-58079809D02*
X62885147Y-58079809D01*
X62885147Y-58079809D02*
X62932766Y-58056000D01*
X62932766Y-58056000D02*
X62956575Y-58032190D01*
X62956575Y-58032190D02*
X62980385Y-57984571D01*
X62980385Y-57984571D02*
X62980385Y-57865523D01*
X62980385Y-57865523D02*
X62956575Y-57817904D01*
X62956575Y-57817904D02*
X62932766Y-57794095D01*
X62932766Y-57794095D02*
X62885147Y-57770285D01*
X62885147Y-57770285D02*
X62789909Y-57770285D01*
X62789909Y-57770285D02*
X62742290Y-57794095D01*
X62742290Y-57794095D02*
X62718480Y-57817904D01*
X62718480Y-57817904D02*
X62694671Y-57865523D01*
X54179194Y-50382190D02*
X54155385Y-50406000D01*
X54155385Y-50406000D02*
X54083956Y-50429809D01*
X54083956Y-50429809D02*
X54036337Y-50429809D01*
X54036337Y-50429809D02*
X53964909Y-50406000D01*
X53964909Y-50406000D02*
X53917290Y-50358380D01*
X53917290Y-50358380D02*
X53893480Y-50310761D01*
X53893480Y-50310761D02*
X53869671Y-50215523D01*
X53869671Y-50215523D02*
X53869671Y-50144095D01*
X53869671Y-50144095D02*
X53893480Y-50048857D01*
X53893480Y-50048857D02*
X53917290Y-50001238D01*
X53917290Y-50001238D02*
X53964909Y-49953619D01*
X53964909Y-49953619D02*
X54036337Y-49929809D01*
X54036337Y-49929809D02*
X54083956Y-49929809D01*
X54083956Y-49929809D02*
X54155385Y-49953619D01*
X54155385Y-49953619D02*
X54179194Y-49977428D01*
X54345861Y-49929809D02*
X54655385Y-49929809D01*
X54655385Y-49929809D02*
X54488718Y-50120285D01*
X54488718Y-50120285D02*
X54560147Y-50120285D01*
X54560147Y-50120285D02*
X54607766Y-50144095D01*
X54607766Y-50144095D02*
X54631575Y-50167904D01*
X54631575Y-50167904D02*
X54655385Y-50215523D01*
X54655385Y-50215523D02*
X54655385Y-50334571D01*
X54655385Y-50334571D02*
X54631575Y-50382190D01*
X54631575Y-50382190D02*
X54607766Y-50406000D01*
X54607766Y-50406000D02*
X54560147Y-50429809D01*
X54560147Y-50429809D02*
X54417290Y-50429809D01*
X54417290Y-50429809D02*
X54369671Y-50406000D01*
X54369671Y-50406000D02*
X54345861Y-50382190D01*
X60036814Y-63293857D02*
X60143957Y-63329571D01*
X60143957Y-63329571D02*
X60179671Y-63365285D01*
X60179671Y-63365285D02*
X60215385Y-63436714D01*
X60215385Y-63436714D02*
X60215385Y-63543857D01*
X60215385Y-63543857D02*
X60179671Y-63615285D01*
X60179671Y-63615285D02*
X60143957Y-63651000D01*
X60143957Y-63651000D02*
X60072528Y-63686714D01*
X60072528Y-63686714D02*
X59786814Y-63686714D01*
X59786814Y-63686714D02*
X59786814Y-62936714D01*
X59786814Y-62936714D02*
X60036814Y-62936714D01*
X60036814Y-62936714D02*
X60108243Y-62972428D01*
X60108243Y-62972428D02*
X60143957Y-63008142D01*
X60143957Y-63008142D02*
X60179671Y-63079571D01*
X60179671Y-63079571D02*
X60179671Y-63151000D01*
X60179671Y-63151000D02*
X60143957Y-63222428D01*
X60143957Y-63222428D02*
X60108243Y-63258142D01*
X60108243Y-63258142D02*
X60036814Y-63293857D01*
X60036814Y-63293857D02*
X59786814Y-63293857D01*
X60536814Y-63401000D02*
X61108243Y-63401000D01*
X60822528Y-63686714D02*
X60822528Y-63115285D01*
X57279194Y-45982190D02*
X57255385Y-46006000D01*
X57255385Y-46006000D02*
X57183956Y-46029809D01*
X57183956Y-46029809D02*
X57136337Y-46029809D01*
X57136337Y-46029809D02*
X57064909Y-46006000D01*
X57064909Y-46006000D02*
X57017290Y-45958380D01*
X57017290Y-45958380D02*
X56993480Y-45910761D01*
X56993480Y-45910761D02*
X56969671Y-45815523D01*
X56969671Y-45815523D02*
X56969671Y-45744095D01*
X56969671Y-45744095D02*
X56993480Y-45648857D01*
X56993480Y-45648857D02*
X57017290Y-45601238D01*
X57017290Y-45601238D02*
X57064909Y-45553619D01*
X57064909Y-45553619D02*
X57136337Y-45529809D01*
X57136337Y-45529809D02*
X57183956Y-45529809D01*
X57183956Y-45529809D02*
X57255385Y-45553619D01*
X57255385Y-45553619D02*
X57279194Y-45577428D01*
X57469671Y-45577428D02*
X57493480Y-45553619D01*
X57493480Y-45553619D02*
X57541099Y-45529809D01*
X57541099Y-45529809D02*
X57660147Y-45529809D01*
X57660147Y-45529809D02*
X57707766Y-45553619D01*
X57707766Y-45553619D02*
X57731575Y-45577428D01*
X57731575Y-45577428D02*
X57755385Y-45625047D01*
X57755385Y-45625047D02*
X57755385Y-45672666D01*
X57755385Y-45672666D02*
X57731575Y-45744095D01*
X57731575Y-45744095D02*
X57445861Y-46029809D01*
X57445861Y-46029809D02*
X57755385Y-46029809D01*
X62074908Y-63352428D02*
X62027289Y-63328619D01*
X62027289Y-63328619D02*
X61979670Y-63281000D01*
X61979670Y-63281000D02*
X61908242Y-63209571D01*
X61908242Y-63209571D02*
X61860623Y-63185761D01*
X61860623Y-63185761D02*
X61813004Y-63185761D01*
X61836813Y-63304809D02*
X61789194Y-63281000D01*
X61789194Y-63281000D02*
X61741575Y-63233380D01*
X61741575Y-63233380D02*
X61717766Y-63138142D01*
X61717766Y-63138142D02*
X61717766Y-62971476D01*
X61717766Y-62971476D02*
X61741575Y-62876238D01*
X61741575Y-62876238D02*
X61789194Y-62828619D01*
X61789194Y-62828619D02*
X61836813Y-62804809D01*
X61836813Y-62804809D02*
X61932051Y-62804809D01*
X61932051Y-62804809D02*
X61979670Y-62828619D01*
X61979670Y-62828619D02*
X62027289Y-62876238D01*
X62027289Y-62876238D02*
X62051099Y-62971476D01*
X62051099Y-62971476D02*
X62051099Y-63138142D01*
X62051099Y-63138142D02*
X62027289Y-63233380D01*
X62027289Y-63233380D02*
X61979670Y-63281000D01*
X61979670Y-63281000D02*
X61932051Y-63304809D01*
X61932051Y-63304809D02*
X61836813Y-63304809D01*
X62241576Y-62852428D02*
X62265385Y-62828619D01*
X62265385Y-62828619D02*
X62313004Y-62804809D01*
X62313004Y-62804809D02*
X62432052Y-62804809D01*
X62432052Y-62804809D02*
X62479671Y-62828619D01*
X62479671Y-62828619D02*
X62503480Y-62852428D01*
X62503480Y-62852428D02*
X62527290Y-62900047D01*
X62527290Y-62900047D02*
X62527290Y-62947666D01*
X62527290Y-62947666D02*
X62503480Y-63019095D01*
X62503480Y-63019095D02*
X62217766Y-63304809D01*
X62217766Y-63304809D02*
X62527290Y-63304809D01*
X73706575Y-53499809D02*
X73706575Y-53904571D01*
X73706575Y-53904571D02*
X73730385Y-53952190D01*
X73730385Y-53952190D02*
X73754194Y-53976000D01*
X73754194Y-53976000D02*
X73801813Y-53999809D01*
X73801813Y-53999809D02*
X73897051Y-53999809D01*
X73897051Y-53999809D02*
X73944670Y-53976000D01*
X73944670Y-53976000D02*
X73968480Y-53952190D01*
X73968480Y-53952190D02*
X73992289Y-53904571D01*
X73992289Y-53904571D02*
X73992289Y-53499809D01*
X74182766Y-53499809D02*
X74492290Y-53499809D01*
X74492290Y-53499809D02*
X74325623Y-53690285D01*
X74325623Y-53690285D02*
X74397052Y-53690285D01*
X74397052Y-53690285D02*
X74444671Y-53714095D01*
X74444671Y-53714095D02*
X74468480Y-53737904D01*
X74468480Y-53737904D02*
X74492290Y-53785523D01*
X74492290Y-53785523D02*
X74492290Y-53904571D01*
X74492290Y-53904571D02*
X74468480Y-53952190D01*
X74468480Y-53952190D02*
X74444671Y-53976000D01*
X74444671Y-53976000D02*
X74397052Y-53999809D01*
X74397052Y-53999809D02*
X74254195Y-53999809D01*
X74254195Y-53999809D02*
X74206576Y-53976000D01*
X74206576Y-53976000D02*
X74182766Y-53952190D01*
X55329194Y-45982190D02*
X55305385Y-46006000D01*
X55305385Y-46006000D02*
X55233956Y-46029809D01*
X55233956Y-46029809D02*
X55186337Y-46029809D01*
X55186337Y-46029809D02*
X55114909Y-46006000D01*
X55114909Y-46006000D02*
X55067290Y-45958380D01*
X55067290Y-45958380D02*
X55043480Y-45910761D01*
X55043480Y-45910761D02*
X55019671Y-45815523D01*
X55019671Y-45815523D02*
X55019671Y-45744095D01*
X55019671Y-45744095D02*
X55043480Y-45648857D01*
X55043480Y-45648857D02*
X55067290Y-45601238D01*
X55067290Y-45601238D02*
X55114909Y-45553619D01*
X55114909Y-45553619D02*
X55186337Y-45529809D01*
X55186337Y-45529809D02*
X55233956Y-45529809D01*
X55233956Y-45529809D02*
X55305385Y-45553619D01*
X55305385Y-45553619D02*
X55329194Y-45577428D01*
X55781575Y-45529809D02*
X55543480Y-45529809D01*
X55543480Y-45529809D02*
X55519671Y-45767904D01*
X55519671Y-45767904D02*
X55543480Y-45744095D01*
X55543480Y-45744095D02*
X55591099Y-45720285D01*
X55591099Y-45720285D02*
X55710147Y-45720285D01*
X55710147Y-45720285D02*
X55757766Y-45744095D01*
X55757766Y-45744095D02*
X55781575Y-45767904D01*
X55781575Y-45767904D02*
X55805385Y-45815523D01*
X55805385Y-45815523D02*
X55805385Y-45934571D01*
X55805385Y-45934571D02*
X55781575Y-45982190D01*
X55781575Y-45982190D02*
X55757766Y-46006000D01*
X55757766Y-46006000D02*
X55710147Y-46029809D01*
X55710147Y-46029809D02*
X55591099Y-46029809D01*
X55591099Y-46029809D02*
X55543480Y-46006000D01*
X55543480Y-46006000D02*
X55519671Y-45982190D01*
X77710099Y-53303571D02*
X77745813Y-53232143D01*
X77745813Y-53232143D02*
X77745813Y-53125000D01*
X77745813Y-53125000D02*
X77710099Y-53017857D01*
X77710099Y-53017857D02*
X77638670Y-52946428D01*
X77638670Y-52946428D02*
X77567242Y-52910714D01*
X77567242Y-52910714D02*
X77424385Y-52875000D01*
X77424385Y-52875000D02*
X77317242Y-52875000D01*
X77317242Y-52875000D02*
X77174385Y-52910714D01*
X77174385Y-52910714D02*
X77102956Y-52946428D01*
X77102956Y-52946428D02*
X77031528Y-53017857D01*
X77031528Y-53017857D02*
X76995813Y-53125000D01*
X76995813Y-53125000D02*
X76995813Y-53196428D01*
X76995813Y-53196428D02*
X77031528Y-53303571D01*
X77031528Y-53303571D02*
X77067242Y-53339285D01*
X77067242Y-53339285D02*
X77317242Y-53339285D01*
X77317242Y-53339285D02*
X77317242Y-53196428D01*
X76995813Y-53660714D02*
X77745813Y-53660714D01*
X77745813Y-53660714D02*
X76995813Y-54089285D01*
X76995813Y-54089285D02*
X77745813Y-54089285D01*
X76995813Y-54446428D02*
X77745813Y-54446428D01*
X77745813Y-54446428D02*
X77745813Y-54624999D01*
X77745813Y-54624999D02*
X77710099Y-54732142D01*
X77710099Y-54732142D02*
X77638670Y-54803571D01*
X77638670Y-54803571D02*
X77567242Y-54839285D01*
X77567242Y-54839285D02*
X77424385Y-54874999D01*
X77424385Y-54874999D02*
X77317242Y-54874999D01*
X77317242Y-54874999D02*
X77174385Y-54839285D01*
X77174385Y-54839285D02*
X77102956Y-54803571D01*
X77102956Y-54803571D02*
X77031528Y-54732142D01*
X77031528Y-54732142D02*
X76995813Y-54624999D01*
X76995813Y-54624999D02*
X76995813Y-54446428D01*
X76876099Y-62372190D02*
X76852290Y-62396000D01*
X76852290Y-62396000D02*
X76780861Y-62419809D01*
X76780861Y-62419809D02*
X76733242Y-62419809D01*
X76733242Y-62419809D02*
X76661814Y-62396000D01*
X76661814Y-62396000D02*
X76614195Y-62348380D01*
X76614195Y-62348380D02*
X76590385Y-62300761D01*
X76590385Y-62300761D02*
X76566576Y-62205523D01*
X76566576Y-62205523D02*
X76566576Y-62134095D01*
X76566576Y-62134095D02*
X76590385Y-62038857D01*
X76590385Y-62038857D02*
X76614195Y-61991238D01*
X76614195Y-61991238D02*
X76661814Y-61943619D01*
X76661814Y-61943619D02*
X76733242Y-61919809D01*
X76733242Y-61919809D02*
X76780861Y-61919809D01*
X76780861Y-61919809D02*
X76852290Y-61943619D01*
X76852290Y-61943619D02*
X76876099Y-61967428D01*
X77352290Y-62419809D02*
X77066576Y-62419809D01*
X77209433Y-62419809D02*
X77209433Y-61919809D01*
X77209433Y-61919809D02*
X77161814Y-61991238D01*
X77161814Y-61991238D02*
X77114195Y-62038857D01*
X77114195Y-62038857D02*
X77066576Y-62062666D01*
X77780861Y-62086476D02*
X77780861Y-62419809D01*
X77661813Y-61896000D02*
X77542766Y-62253142D01*
X77542766Y-62253142D02*
X77852289Y-62253142D01*
X77715813Y-58966428D02*
X77715813Y-59430714D01*
X77715813Y-59430714D02*
X77430099Y-59180714D01*
X77430099Y-59180714D02*
X77430099Y-59287857D01*
X77430099Y-59287857D02*
X77394385Y-59359286D01*
X77394385Y-59359286D02*
X77358670Y-59395000D01*
X77358670Y-59395000D02*
X77287242Y-59430714D01*
X77287242Y-59430714D02*
X77108670Y-59430714D01*
X77108670Y-59430714D02*
X77037242Y-59395000D01*
X77037242Y-59395000D02*
X77001528Y-59359286D01*
X77001528Y-59359286D02*
X76965813Y-59287857D01*
X76965813Y-59287857D02*
X76965813Y-59073571D01*
X76965813Y-59073571D02*
X77001528Y-59002143D01*
X77001528Y-59002143D02*
X77037242Y-58966428D01*
X77715813Y-59645000D02*
X76965813Y-59895000D01*
X76965813Y-59895000D02*
X77715813Y-60145000D01*
X77715813Y-60752143D02*
X77715813Y-60395000D01*
X77715813Y-60395000D02*
X77358670Y-60359286D01*
X77358670Y-60359286D02*
X77394385Y-60395000D01*
X77394385Y-60395000D02*
X77430099Y-60466429D01*
X77430099Y-60466429D02*
X77430099Y-60645000D01*
X77430099Y-60645000D02*
X77394385Y-60716429D01*
X77394385Y-60716429D02*
X77358670Y-60752143D01*
X77358670Y-60752143D02*
X77287242Y-60787857D01*
X77287242Y-60787857D02*
X77108670Y-60787857D01*
X77108670Y-60787857D02*
X77037242Y-60752143D01*
X77037242Y-60752143D02*
X77001528Y-60716429D01*
X77001528Y-60716429D02*
X76965813Y-60645000D01*
X76965813Y-60645000D02*
X76965813Y-60466429D01*
X76965813Y-60466429D02*
X77001528Y-60395000D01*
X77001528Y-60395000D02*
X77037242Y-60359286D01*
X63464194Y-54252190D02*
X63440385Y-54276000D01*
X63440385Y-54276000D02*
X63368956Y-54299809D01*
X63368956Y-54299809D02*
X63321337Y-54299809D01*
X63321337Y-54299809D02*
X63249909Y-54276000D01*
X63249909Y-54276000D02*
X63202290Y-54228380D01*
X63202290Y-54228380D02*
X63178480Y-54180761D01*
X63178480Y-54180761D02*
X63154671Y-54085523D01*
X63154671Y-54085523D02*
X63154671Y-54014095D01*
X63154671Y-54014095D02*
X63178480Y-53918857D01*
X63178480Y-53918857D02*
X63202290Y-53871238D01*
X63202290Y-53871238D02*
X63249909Y-53823619D01*
X63249909Y-53823619D02*
X63321337Y-53799809D01*
X63321337Y-53799809D02*
X63368956Y-53799809D01*
X63368956Y-53799809D02*
X63440385Y-53823619D01*
X63440385Y-53823619D02*
X63464194Y-53847428D01*
X63749909Y-54014095D02*
X63702290Y-53990285D01*
X63702290Y-53990285D02*
X63678480Y-53966476D01*
X63678480Y-53966476D02*
X63654671Y-53918857D01*
X63654671Y-53918857D02*
X63654671Y-53895047D01*
X63654671Y-53895047D02*
X63678480Y-53847428D01*
X63678480Y-53847428D02*
X63702290Y-53823619D01*
X63702290Y-53823619D02*
X63749909Y-53799809D01*
X63749909Y-53799809D02*
X63845147Y-53799809D01*
X63845147Y-53799809D02*
X63892766Y-53823619D01*
X63892766Y-53823619D02*
X63916575Y-53847428D01*
X63916575Y-53847428D02*
X63940385Y-53895047D01*
X63940385Y-53895047D02*
X63940385Y-53918857D01*
X63940385Y-53918857D02*
X63916575Y-53966476D01*
X63916575Y-53966476D02*
X63892766Y-53990285D01*
X63892766Y-53990285D02*
X63845147Y-54014095D01*
X63845147Y-54014095D02*
X63749909Y-54014095D01*
X63749909Y-54014095D02*
X63702290Y-54037904D01*
X63702290Y-54037904D02*
X63678480Y-54061714D01*
X63678480Y-54061714D02*
X63654671Y-54109333D01*
X63654671Y-54109333D02*
X63654671Y-54204571D01*
X63654671Y-54204571D02*
X63678480Y-54252190D01*
X63678480Y-54252190D02*
X63702290Y-54276000D01*
X63702290Y-54276000D02*
X63749909Y-54299809D01*
X63749909Y-54299809D02*
X63845147Y-54299809D01*
X63845147Y-54299809D02*
X63892766Y-54276000D01*
X63892766Y-54276000D02*
X63916575Y-54252190D01*
X63916575Y-54252190D02*
X63940385Y-54204571D01*
X63940385Y-54204571D02*
X63940385Y-54109333D01*
X63940385Y-54109333D02*
X63916575Y-54061714D01*
X63916575Y-54061714D02*
X63892766Y-54037904D01*
X63892766Y-54037904D02*
X63845147Y-54014095D01*
D12*
%TO.C,R2*%
X55175028Y-57466006D02*
X55175028Y-56991490D01*
X56220028Y-57466006D02*
X56220028Y-56991490D01*
%TO.C,R7*%
X75324786Y-52657500D02*
X74850270Y-52657500D01*
X75324786Y-51612500D02*
X74850270Y-51612500D01*
D13*
%TO.C,IC1*%
X54383780Y-51053748D02*
G75*
G03*
X54383780Y-51053748I-125000J0D01*
G01*
D12*
%TO.C,C1*%
X52520032Y-53113748D02*
X51997528Y-53113748D01*
X52520032Y-51643748D02*
X51997528Y-51643748D01*
%TO.C,C12*%
X69572528Y-60533748D02*
X69572528Y-61056252D01*
X68102528Y-60533748D02*
X68102528Y-61056252D01*
%TO.C,R4*%
X52510028Y-47541490D02*
X52510028Y-48016006D01*
X51465028Y-47541490D02*
X51465028Y-48016006D01*
D14*
%TO.C,Q1*%
X65243780Y-52325000D02*
X64243780Y-52325000D01*
X65243780Y-55425000D02*
X64243780Y-55425000D01*
X66343780Y-52325000D02*
X67343780Y-52325000D01*
X66343780Y-55425000D02*
X67343780Y-55425000D01*
D15*
X63793780Y-52875000D02*
G75*
G03*
X63793780Y-52875000I-100000J0D01*
G01*
D12*
%TO.C,R3*%
X53090028Y-48016006D02*
X53090028Y-47541490D01*
X54135028Y-48016006D02*
X54135028Y-47541490D01*
%TO.C,C11*%
X77382528Y-49333748D02*
X77382528Y-49856252D01*
X75912528Y-49333748D02*
X75912528Y-49856252D01*
%TO.C,R10*%
X72310028Y-63077742D02*
X72310028Y-63552258D01*
X71265028Y-63077742D02*
X71265028Y-63552258D01*
%TO.C,Q3*%
X57022528Y-58915000D02*
X55612528Y-58915000D01*
X55612528Y-61235000D02*
X57642528Y-61235000D01*
X55612528Y-61235000D02*
X55612528Y-60575000D01*
X55612528Y-59575000D02*
X55612528Y-58915000D01*
%TO.C,C13*%
X74332528Y-60533748D02*
X74332528Y-61056252D01*
X72862528Y-60533748D02*
X72862528Y-61056252D01*
%TO.C,L3*%
X69217528Y-54645000D02*
X73217528Y-54645000D01*
X69217528Y-58845000D02*
X73217528Y-58845000D01*
%TO.C,L1*%
X63558780Y-50228748D02*
X59558780Y-50228748D01*
X63558780Y-46028748D02*
X59558780Y-46028748D01*
%TO.C,R9*%
X74334786Y-63847500D02*
X73860270Y-63847500D01*
X74334786Y-62802500D02*
X73860270Y-62802500D01*
%TO.C,U1*%
X73397528Y-48435000D02*
X73397528Y-50085000D01*
X73272528Y-48435000D02*
X73272528Y-48235000D01*
X73272528Y-48435000D02*
X73397528Y-48435000D01*
X70997528Y-49885000D02*
X70997528Y-48585000D01*
X73397528Y-50085000D02*
X73272528Y-50085000D01*
%TO.C,C4*%
X59497528Y-56143748D02*
X60020032Y-56143748D01*
X59497528Y-57613748D02*
X60020032Y-57613748D01*
%TO.C,C9*%
X70562528Y-49353748D02*
X70562528Y-49876252D01*
X69092528Y-49353748D02*
X69092528Y-49876252D01*
%TO.C,R5*%
X60275270Y-44257500D02*
X60749786Y-44257500D01*
X60275270Y-45302500D02*
X60749786Y-45302500D01*
D15*
%TO.C,IC2*%
X67053780Y-60905000D02*
X66003780Y-60905000D01*
X65653780Y-60780000D02*
X64903780Y-60780000D01*
X65653780Y-57880000D02*
X65653780Y-60780000D01*
X64903780Y-60780000D02*
X64903780Y-57880000D01*
X64903780Y-57880000D02*
X65653780Y-57880000D01*
D12*
%TO.C,R8*%
X73300028Y-51902742D02*
X73300028Y-52377258D01*
X72255028Y-51902742D02*
X72255028Y-52377258D01*
%TO.C,C7*%
X61623780Y-52340000D02*
X61623780Y-51817496D01*
X63093780Y-52340000D02*
X63093780Y-51817496D01*
%TO.C,L2*%
X70207528Y-43435000D02*
X74207528Y-43435000D01*
X70207528Y-47635000D02*
X74207528Y-47635000D01*
%TO.C,C6*%
X59583780Y-52340000D02*
X59583780Y-51817496D01*
X61053780Y-52340000D02*
X61053780Y-51817496D01*
%TO.C,R11*%
X59193887Y-58165000D02*
X59501169Y-58165000D01*
X59193887Y-58925000D02*
X59501169Y-58925000D01*
%TO.C,R1*%
X53635028Y-57466006D02*
X53635028Y-56991490D01*
X54680028Y-57466006D02*
X54680028Y-56991490D01*
%TO.C,R12*%
X57582528Y-57626359D02*
X57582528Y-57933641D01*
X56822528Y-57626359D02*
X56822528Y-57933641D01*
%TO.C,C15*%
X75188108Y-58775000D02*
X74906948Y-58775000D01*
X75188108Y-57755000D02*
X74906948Y-57755000D01*
%TO.C,U2*%
X72417528Y-59615000D02*
X72417528Y-61265000D01*
X72292528Y-59615000D02*
X72292528Y-59415000D01*
X72292528Y-59615000D02*
X72417528Y-59615000D01*
X70017528Y-61065000D02*
X70017528Y-59765000D01*
X72417528Y-61265000D02*
X72292528Y-61265000D01*
%TO.C,C10*%
X75322528Y-49333748D02*
X75322528Y-49856252D01*
X73852528Y-49333748D02*
X73852528Y-49856252D01*
%TO.C,R6*%
X63649786Y-57352500D02*
X63175270Y-57352500D01*
X63649786Y-56307500D02*
X63175270Y-56307500D01*
%TO.C,C3*%
X52520032Y-51038748D02*
X51997528Y-51038748D01*
X52520032Y-49568748D02*
X51997528Y-49568748D01*
%TO.C,C2*%
X58118780Y-47492496D02*
X58118780Y-48015000D01*
X56648780Y-47492496D02*
X56648780Y-48015000D01*
D14*
%TO.C,Q2*%
X59562528Y-59525000D02*
X58562528Y-59525000D01*
X59562528Y-62625000D02*
X58562528Y-62625000D01*
X60662528Y-59525000D02*
X61662528Y-59525000D01*
X60662528Y-62625000D02*
X61662528Y-62625000D01*
D15*
X58112528Y-60075000D02*
G75*
G03*
X58112528Y-60075000I-100000J0D01*
G01*
D12*
%TO.C,U3*%
X75487528Y-54175000D02*
X73812528Y-54175000D01*
X75487528Y-54175000D02*
X76137528Y-54175000D01*
X75487528Y-57295000D02*
X74837528Y-57295000D01*
X75487528Y-57295000D02*
X76137528Y-57295000D01*
%TO.C,C5*%
X56093780Y-47492496D02*
X56093780Y-48015000D01*
X54623780Y-47492496D02*
X54623780Y-48015000D01*
%TO.C,C14*%
X76392528Y-60533748D02*
X76392528Y-61056252D01*
X74922528Y-60533748D02*
X74922528Y-61056252D01*
%TO.C,C8*%
X61895032Y-55563748D02*
X61372528Y-55563748D01*
X61895032Y-54093748D02*
X61372528Y-54093748D01*
%TD*%
M02*
