<?xml version="1.0" encoding="UTF-8" standalone="no"?>
<!-- Created with Inkscape (http://www.inkscape.org/) -->

<svg
   width="113.06722mm"
   height="26.423483mm"
   viewBox="0 0 113.06723 26.423483"
   version="1.1"
   id="svg5"
   sodipodi:docname="psxpress_logo.svg"
   xml:space="preserve"
   inkscape:version="1.2.2 (b0a8486541, 2022-12-01)"
   inkscape:export-filename="psxpress_logo.png"
   inkscape:export-xdpi="500"
   inkscape:export-ydpi="500"
   xmlns:inkscape="http://www.inkscape.org/namespaces/inkscape"
   xmlns:sodipodi="http://sodipodi.sourceforge.net/DTD/sodipodi-0.dtd"
   xmlns:xlink="http://www.w3.org/1999/xlink"
   xmlns="http://www.w3.org/2000/svg"
   xmlns:svg="http://www.w3.org/2000/svg"><sodipodi:namedview
     id="namedview7"
     pagecolor="#ffffff"
     bordercolor="#000000"
     borderopacity="0.25"
     inkscape:showpageshadow="2"
     inkscape:pageopacity="0.0"
     inkscape:pagecheckerboard="0"
     inkscape:deskcolor="#d1d1d1"
     inkscape:document-units="mm"
     showgrid="false"
     inkscape:zoom="2.8284271"
     inkscape:cx="261.27595"
     inkscape:cy="275.06454"
     inkscape:window-width="1920"
     inkscape:window-height="1007"
     inkscape:window-x="0"
     inkscape:window-y="0"
     inkscape:window-maximized="1"
     inkscape:current-layer="layer1" /><defs
     id="defs2"><linearGradient
       inkscape:collect="always"
       id="linearGradient15387"><stop
         style="stop-color:#524200;stop-opacity:1;"
         offset="0"
         id="stop15383" /><stop
         style="stop-color:#dea500;stop-opacity:1;"
         offset="0.81127453"
         id="stop15385" /></linearGradient><linearGradient
       inkscape:collect="always"
       id="linearGradient13802"><stop
         style="stop-color:#630000;stop-opacity:1;"
         offset="0"
         id="stop13798" /><stop
         style="stop-color:#ff0808;stop-opacity:1;"
         offset="1"
         id="stop13800" /></linearGradient><linearGradient
       inkscape:collect="always"
       id="linearGradient11420"><stop
         style="stop-color:#102131;stop-opacity:1;"
         offset="0.59948981"
         id="stop11416" /><stop
         style="stop-color:#395a9c;stop-opacity:1;"
         offset="1"
         id="stop11418" /></linearGradient><linearGradient
       inkscape:collect="always"
       xlink:href="#linearGradient11420"
       id="linearGradient11422"
       x1="92.480301"
       y1="123.57523"
       x2="98.266113"
       y2="122.76057"
       gradientUnits="userSpaceOnUse"
       gradientTransform="translate(-2.6725596e-5)" /><linearGradient
       inkscape:collect="always"
       xlink:href="#linearGradient13802"
       id="linearGradient13804"
       x1="93.696815"
       y1="120.05356"
       x2="88.839691"
       y2="106.68867"
       gradientUnits="userSpaceOnUse" /><linearGradient
       inkscape:collect="always"
       xlink:href="#linearGradient15387"
       id="linearGradient15389"
       x1="82.015366"
       y1="127.15401"
       x2="69.048897"
       y2="125.5975"
       gradientUnits="userSpaceOnUse" /></defs><g
     inkscape:label="Layer 1"
     inkscape:groupmode="layer"
     id="layer1"
     transform="translate(-69.04361,-104.63537)"><text
       xml:space="preserve"
       style="font-size:21.1238px;fill:#000000;fill-opacity:1;stroke:#000000;stroke-width:1.76031;stroke-opacity:0"
       x="105.67085"
       y="125.53147"
       id="text236"><tspan
         sodipodi:role="line"
         id="tspan234"
         style="font-style:normal;font-variant:normal;font-weight:normal;font-stretch:normal;font-family:Zrnic;-inkscape-font-specification:Zrnic;fill:#000000;fill-opacity:1;stroke:#000000;stroke-width:1.76031;stroke-opacity:0"
         x="105.67085"
         y="125.53147">PSXpress</tspan></text><g
       style="overflow:visible"
       id="g4135"
       transform="matrix(0.04814442,0,0,0.04814442,71.523582,104.46697)"
       inkscape:export-filename="./g4135.png"
       inkscape:export-xdpi="500"
       inkscape:export-ydpi="500"><g
         id="g3"
         transform="translate(-61.68556,-312.8684)">&#10;	&#10;	&#10;	<path
   clip-rule="evenodd"
   d="m 226.78568,742.76757 -54.22512,18.23778 c -35.06323,12.15852 -64.97567,-16.35908 -32.72249,-28.05407 l 26.17539,-9.34411 -98.632455,-31.33052 c -28.66596,9.70747 -55.722821,16.2488 -57.114378,44.40277 -0.0835,1.68942 -0.01963,16.972 0.08647,18.71888 1.869981,31.3204 73.38699,38.80466 128.550713,47.68813 51.4165,8.4113 98.16172,3.73706 140.70488,-11.2242 v -32.26192 z m 167.81453,120.62757 101.43667,-35.0676 -101.43667,-32.25463 v 64.98007 z"
   id="path9"
   style="fill:#524200;fill-opacity:1;fill-rule:evenodd"
   sodipodi:nodetypes="cccccscccccccccc" />&#10;	<path
   clip-rule="evenodd"
   d="m 662.91715,769.42531 1.8685,-0.47074 c 26.32191,-9.23902 43.58587,-20.66366 52.19448,-32.65985 2.66799,-3.71787 4.50462,-7.49064 5.52188,-11.27026 0.60542,-2.24945 0.92062,-4.50133 0.94811,-6.7455 0.0261,-2.12918 0.46192,-14.9944 -0.0278,-17.10106 -7.4799,-33.65968 -61.90588,-41.15442 -144.6471,-47.2337 -59.36432,-4.20494 -117.79432,8.88207 -174.8237,28.51615 l -9.3499,3.27646 102.37241,31.79113 59.83219,-20.10628 c 62.6393,-11.68485 87.8862,8.88347 27.58184,28.05407 l -29.91827,10.2798 z m -383.30703,-148.67002 -45.3474,15.4234 45.3474,14.02701 z"
   id="path11"
   style="fill:#102131;fill-opacity:1;fill-rule:evenodd"
   sodipodi:nodetypes="ccsssccccccccccccc" />&#10;	<path
   clip-rule="evenodd"
   d="m 496.03688,828.32754 166.88027,-58.90223 -108.4502,-33.66978 -159.86674,54.70022 v 5.61716 z m -216.42676,-103.32405 -52.823,17.76557 52.823,16.83125 z m 114.99009,27.59201 v -66.85869 l 102.37241,31.79113 z M 166.01492,723.60717 279.60869,682.93251 V 650.2057 L 234.26272,636.17869 69.718853,691.81461 c -0.46787,0 -1.402132,0.46204 -2.336393,0.46204 z"
   id="path13"
   style="fill:#103131;fill-opacity:1;fill-rule:evenodd" />&#10;	&#10;<path
   clip-rule="evenodd"
   d="m 226.78568,727.23743 -54.22512,18.23778 c -35.06323,12.15852 -64.97567,-16.35908 -32.72249,-28.05407 l 26.17539,-9.34411 -98.632455,-31.33052 C 36.994899,687.03649 8.4787729,709.00985 10.3531,739.86816 c 1.869981,31.3204 73.38699,38.80466 128.55071,47.68813 51.4165,8.4113 98.16172,3.73706 140.70488,-11.2242 V 744.07017 Z M 395.53446,847.865 496.03688,812.7974 394.60021,780.54277 v 64.98007 z"
   id="path57447"
   style="fill:#dea500;fill-opacity:1;fill-rule:evenodd" /><path
   clip-rule="evenodd"
   d="m 662.91715,753.89517 1.8685,-0.47074 c 43.94098,-15.42334 62.63936,-36.93754 57.96798,-57.03368 -7.4799,-33.65968 -61.23717,-51.89741 -143.97839,-57.97669 -59.36432,-4.20494 -117.79432,8.88207 -174.8237,28.51615 l -9.3499,3.27646 102.37241,31.79113 59.83219,-20.10628 c 62.6393,-11.68485 87.8862,8.88347 27.58184,28.05407 l -29.92113,10.2798 z m -383.30703,-148.67002 -45.3474,15.4234 45.3474,14.02701 z"
   id="path57449"
   style="fill:#395a9c;fill-opacity:1;fill-rule:evenodd"
   sodipodi:nodetypes="ccccccccccccccc" /><path
   clip-rule="evenodd"
   d="m 496.03688,812.7974 166.88027,-58.90223 -108.4502,-33.66978 -159.86674,54.70022 v 5.61716 z m -216.42676,-103.32405 -52.823,17.76557 52.823,16.83125 z m 114.99009,27.59201 V 670.20667 L 496.97262,701.9978 Z M 166.01492,708.07703 279.60869,667.40237 V 634.67556 L 234.26272,620.64855 69.718853,676.28447 c -0.46787,0 -1.402132,0.46204 -2.336393,0.46204 z"
   id="path57451"
   style="fill:#2d8c7b;fill-opacity:1;fill-rule:evenodd" /><path
   clip-rule="evenodd"
   d="M 409.86253,429.09887 409.39467,858.28056 294.40458,820.88238 V 316.42057 l 146.77829,38.8061 c 93.9539,25.25126 151.45108,74.33572 150.5154,160.36064 -0.58149,62.27535 -18.72927,101.36395 -54.10488,115.69059 -2.67775,1.08445 -18.68584,6.68979 -21.56086,7.4898 -20.16584,5.6114 -31.9492,-0.45375 -61.76269,-9.1057 V 432.36519 c 0,-23.84477 -44.40731,-25.24111 -44.40731,-3.26632 z"
   id="path58277"
   style="opacity:1;fill:#630000;fill-opacity:1;fill-rule:evenodd"
   sodipodi:nodetypes="ccccccsscsc" /><path
   clip-rule="evenodd"
   d="M 395.06807,434.21345 394.60021,863.39514 279.61012,825.99696 V 321.53515 l 146.77829,38.8061 c 93.9539,25.25126 151.45108,74.33572 150.5154,160.36064 -0.93425,100.0534 -47.2116,140.25584 -137.42843,114.07469 V 437.47977 c 0,-23.84477 -44.40731,-25.24111 -44.40731,-3.26632 z"
   id="path7"
   style="fill:#ff0808;fill-opacity:1;fill-rule:evenodd" /><path
   style="opacity:1;fill:#524200;fill-opacity:1;stroke:#000000;stroke-width:0.103854;stroke-dasharray:none;stroke-opacity:0"
   d="m 496.0369,828.32755 v -15.53018 l -100.50243,35.0676 -0.93426,15.53017 101.43669,-35.06759"
   id="path62085" /><path
   style="opacity:1;fill:#103131;fill-opacity:1;stroke:#000000;stroke-width:0.103854;stroke-dasharray:none;stroke-opacity:0"
   d="m 496.97407,701.99781 -10e-4,15.53012 -87.55575,29.99211 -0.0165,-15.52462 z"
   id="path68148" /><path
   style="opacity:1;fill:#630000;fill-opacity:1;stroke:#000000;stroke-width:0.103854;stroke-dasharray:none;stroke-opacity:0"
   d="m 409.39469,858.28054 c 0,0 -14.79448,5.1146 -14.79448,5.1146 l 0.46768,-429.1817 h 14.78887 l -0.46218,424.0671"
   id="path60457" /><path
   style="opacity:1;fill:#630000;fill-opacity:1;stroke:#000000;stroke-width:0.103854;stroke-dasharray:none;stroke-opacity:0"
   d="m 294.40455,316.42059 -14.79442,5.11455 140.93995,37.26254 10.6926,-6.19905 z"
   id="path62087" /><path
   style="opacity:1;fill:#103131;fill-opacity:1;stroke:#000000;stroke-width:0.103854;stroke-dasharray:none;stroke-opacity:0"
   d="M 662.91716,769.4253 V 753.89518 L 496.0369,812.79737 v 15.53018 z"
   id="path67931" /><path
   style="opacity:1;fill:#524200;fill-opacity:1;stroke:#000000;stroke-width:0.103854;stroke-dasharray:none;stroke-opacity:0"
   d="m 166.01491,723.60718 -10e-4,-15.53018 -26.17538,9.34415 v 15.53012 z"
   id="path69602" /></g></g><path
       style="fill:url(#linearGradient11422);fill-opacity:1;stroke:#000000;stroke-width:0.00499999;stroke-opacity:0"
       d="m 92.480269,123.94907 3e-6,-0.74769 2.788401,-0.94391 c 0.0587,-0.0208 0.11651,-0.0309 0.176887,-0.0468 0.300717,-0.0494 0.541199,-0.0747 0.782469,-0.10298 0.17817,-0.0163 0.35343,-0.0307 0.55167,-0.0361 0.17589,-0.005 0.37874,-0.003 0.63669,0.0185 0.17526,0.0144 0.31515,0.0442 0.43783,0.0752 0.14002,0.0354 0.29833,0.10554 0.37268,0.17094 0.0354,0.0312 0.0722,0.0656 0.0986,0.12614 0.0217,0.0498 0.0212,0.0931 0.0149,0.13599 -0.007,0.0481 -0.0363,0.11147 -0.0743,0.16223 -0.0493,0.0658 -0.0901,0.10325 -0.13221,0.14067 -0.0303,0.0258 -0.0487,0.0417 -0.0673,0.0549 -0.006,0.005 -0.0118,0.01 -0.0275,0.019 -0.0431,-0.0179 -0.0783,-0.0307 -0.11096,-0.0405 -0.0503,-0.0151 -0.0854,-0.0267 -0.18699,-0.0485 -0.0721,-0.0154 -0.15739,-0.0289 -0.24987,-0.0402 -0.0596,-0.007 -0.12205,-0.013 -0.1916,-0.0178 -0.0986,-0.007 -0.19859,-0.0101 -0.29928,-0.0111 -0.0579,-5.7e-4 -0.12235,8e-5 -0.20507,0.002 -0.0549,0.001 -0.0987,0.003 -0.18792,0.007 -0.0587,0.003 -0.12749,0.008 -0.20394,0.0135 -0.10395,0.008 -0.18559,0.0163 -0.26885,0.0255 -0.0853,0.009 -0.16108,0.0189 -0.22995,0.0282 -0.0891,0.0121 -0.17891,0.025 -0.27071,0.0401 -0.0585,0.01 -0.12138,0.0198 -0.18943,0.0322 -0.0245,0.004 -0.05603,0.0108 -0.08577,0.0194 l -0.07465,0.0217 -2.803937,0.94222"
       id="path11251"
       sodipodi:nodetypes="cccccssssssscccssssssssssssscc" /><path
       style="fill:url(#linearGradient13804);fill-opacity:1;stroke:#000000;stroke-width:0.00499999;stroke-opacity:0"
       d="m 82.015434,104.88423 0.712269,-0.24624 6.58799,1.74177 0.283324,0.0749 0.346001,0.0927 c 0,0 0.171612,0.0481 0.257159,0.073 0.08878,0.0259 0.177378,0.0524 0.265784,0.0795 0.07808,0.0239 0.156034,0.0483 0.233723,0.0735 0.121583,0.0394 0.242898,0.0797 0.363693,0.12145 0.102881,0.0356 0.205393,0.0722 0.307494,0.10999 0.107631,0.0398 0.214886,0.0806 0.321601,0.12284 0.10687,0.0423 0.213224,0.0858 0.319108,0.1305 0.08202,0.0346 0.1637,0.07 0.244904,0.1065 0.109518,0.0492 0.21855,0.0995 0.326763,0.1515 0.09625,0.0463 0.191794,0.094 0.286816,0.14273 0.07187,0.0369 0.143258,0.0746 0.214241,0.11317 0.07501,0.0407 0.149573,0.0822 0.223624,0.12466 0.06852,0.0393 0.136707,0.0791 0.204163,0.12015 0.100239,0.061 0.199797,0.12316 0.297987,0.18741 0.09109,0.0596 0.180894,0.12119 0.270025,0.18369 0.04935,0.0346 0.09818,0.0699 0.146548,0.10589 0.075,0.0557 0.149399,0.11234 0.222742,0.17025 0.06208,0.049 0.123356,0.0991 0.183891,0.14997 0.06099,0.0513 0.12124,0.1035 0.180639,0.15663 0.05742,0.0514 0.114133,0.10356 0.16987,0.15675 0.06303,0.0602 0.181559,0.17929 0.186039,0.18362 0.0043,0.004 0.121196,0.1263 0.179901,0.19119 0.06167,0.0682 0.121909,0.13767 0.180972,0.20812 0.04411,0.0526 0.08726,0.10604 0.129458,0.1602 0.05306,0.0681 0.105112,0.13701 0.155507,0.20711 0.05283,0.0735 0.104213,0.14805 0.153905,0.2237 0.04931,0.0751 0.09685,0.1513 0.143066,0.22831 0.03621,0.0603 0.08953,0.15463 0.105129,0.18306 0.01558,0.0284 0.09969,0.18545 0.145508,0.2802 0.05749,0.1189 0.111585,0.2395 0.162218,0.36148 0.0407,0.098 0.07792,0.19753 0.1137,0.29747 0.0255,0.0712 0.04905,0.14312 0.07192,0.21522 0.01755,0.0554 0.03423,0.11098 0.0501,0.16683 0.02002,0.0704 0.03912,0.14113 0.05692,0.21215 0.01878,0.075 0.03629,0.15027 0.05261,0.22581 0.01538,0.0712 0.02958,0.14268 0.04269,0.21434 0.01383,0.0756 0.02642,0.15137 0.03793,0.22732 0.01062,0.0701 0.02019,0.1404 0.02871,0.2108 0.0098,0.0808 0.01816,0.16188 0.02574,0.24297 0.0045,0.0477 0.0082,0.0954 0.01162,0.1432 0.0044,0.0627 0.0085,0.12548 0.01143,0.18829 0.0041,0.0863 0.0073,0.1727 0.0088,0.25911 0.0018,0.1031 0.0016,0.20624 5.29e-4,0.30935 -10e-4,0.10052 -0.0034,0.20103 -0.0066,0.30151 -0.003,0.0929 -0.0067,0.1857 -0.01167,0.27848 -0.006,0.11229 -0.01321,0.22452 -0.02188,0.33663 -0.0069,0.0891 -0.01462,0.17821 -0.02397,0.26712 -0.01463,0.13909 -0.03104,0.27802 -0.05028,0.41655 -0.01416,0.10196 -0.0305,0.20362 -0.04796,0.30506 -0.01277,0.0742 -0.02677,0.14823 -0.04154,0.22207 -0.01332,0.0666 -0.02703,0.13306 -0.04245,0.19917 -0.02981,0.12782 -0.06096,0.2554 -0.09673,0.38168 -0.03519,0.12423 -0.07354,0.24765 -0.115911,0.36962 -0.03988,0.11481 -0.08381,0.22824 -0.130093,0.34063 -0.02633,0.0639 -0.05451,0.12715 -0.08392,0.18974 -0.03619,0.077 -0.07386,0.15338 -0.113832,0.22851 -0.03862,0.0726 -0.07908,0.14425 -0.121663,0.2146 -0.04297,0.071 -0.0875,0.14112 -0.134935,0.2092 -0.06184,0.0888 -0.126394,0.17576 -0.194905,0.25948 -0.06295,0.0769 -0.128685,0.15175 -0.198292,0.22271 -0.08888,0.0906 -0.182292,0.17694 -0.279448,0.25859 -0.06755,0.0568 -0.138417,0.10964 -0.21056,0.16046 -0.06413,0.0452 -0.129946,0.0881 -0.197337,0.12821 -0.08229,0.049 -0.166542,0.0949 -0.252399,0.13735 -0.07463,0.0369 -0.150941,0.0705 -0.22805,0.1019 -0.07306,0.0298 -0.147854,0.0551 -0.222038,0.0819 -0.06453,0.0233 -0.1293,0.046 -0.194035,0.0688 -0.06117,0.0215 -0.122399,0.0429 -0.183669,0.0641 -0.04637,0.0161 -0.09276,0.0321 -0.139208,0.0479 -0.04968,0.0169 -0.149211,0.0503 -0.149211,0.0503 0,0 0.0998,-0.0365 0.149206,-0.056 0.03772,-0.0149 0.07522,-0.0304 0.112361,-0.0467 0.04681,-0.0205 0.09332,-0.0418 0.139218,-0.0643 0.04953,-0.0243 0.09853,-0.0497 0.146862,-0.0763 0.04588,-0.0252 0.09111,-0.0517 0.135795,-0.079 0.03804,-0.0233 0.07565,-0.0472 0.11258,-0.0722 0.0528,-0.0357 0.104812,-0.0726 0.155724,-0.11099 0.043,-0.0324 0.08501,-0.0661 0.126388,-0.10056 0.03565,-0.0297 0.07074,-0.0601 0.10495,-0.0914 0.05016,-0.046 0.09926,-0.0931 0.14696,-0.14159 0.04017,-0.0408 0.0791,-0.0829 0.117176,-0.12568 0.0363,-0.0408 0.07181,-0.0823 0.106035,-0.12487 0.0496,-0.0617 0.09746,-0.12476 0.143824,-0.18889 0.02991,-0.0414 0.0585,-0.0837 0.08662,-0.12628 0.02563,-0.0388 0.05051,-0.0782 0.07482,-0.11782 0.0237,-0.0387 0.04691,-0.0777 0.06923,-0.11714 0.03499,-0.0619 0.0688,-0.12449 0.101364,-0.1877 0.02438,-0.0473 0.0477,-0.0952 0.07036,-0.14341 0.02498,-0.0531 0.04904,-0.1067 0.07229,-0.16061 0.02144,-0.0497 0.04206,-0.0998 0.06194,-0.15013 0.02277,-0.0577 0.04461,-0.11572 0.06563,-0.17406 0.0192,-0.0533 0.03769,-0.10688 0.05524,-0.16076 0.02516,-0.0773 0.04908,-0.15491 0.07176,-0.23292 0.01808,-0.0622 0.03501,-0.1247 0.05127,-0.18739 0.01667,-0.0643 0.03251,-0.12876 0.04743,-0.19345 0.01773,-0.0769 0.03441,-0.15404 0.05002,-0.23139 0.01537,-0.0762 0.02957,-0.15255 0.04294,-0.22908 0.01254,-0.0718 0.02408,-0.14373 0.03495,-0.21578 0.01019,-0.0675 0.01981,-0.13519 0.02838,-0.20296 0.01467,-0.11603 0.02777,-0.23228 0.03944,-0.34865 0.0075,-0.075 0.01377,-0.15006 0.01971,-0.22517 0.0048,-0.061 0.009,-0.12201 0.01294,-0.18305 0.0024,-0.0369 0.0046,-0.0738 0.0066,-0.11065 0.0021,-0.0388 0.0042,-0.0775 0.0059,-0.11634 0.0032,-0.0729 0.006,-0.14577 0.0084,-0.21867 9.63e-4,-0.0293 0.0017,-0.0587 0.0024,-0.088 0.0013,-0.0584 0.0025,-0.11676 0.0033,-0.17515 5.59e-4,-0.0399 9.93e-4,-0.0799 0.0011,-0.1198 1.23e-4,-0.0461 2.7e-5,-0.0922 -5.29e-4,-0.13822 -6.54e-4,-0.0542 -0.0016,-0.10838 -0.0033,-0.16255 -0.0021,-0.0679 -0.0048,-0.13588 -0.0084,-0.20377 -0.003,-0.0577 -0.0068,-0.11545 -0.01109,-0.17311 -0.004,-0.0541 -0.0085,-0.1082 -0.01376,-0.16222 -0.0065,-0.0677 -0.0137,-0.13536 -0.02199,-0.20287 -0.0093,-0.0755 -0.01946,-0.15089 -0.03099,-0.22607 -0.01223,-0.0798 -0.02574,-0.15936 -0.04051,-0.23871 -0.01303,-0.07 -0.02729,-0.13982 -0.04243,-0.20941 -0.01305,-0.06 -0.02704,-0.11979 -0.04172,-0.17941 -0.01355,-0.055 -0.02782,-0.10985 -0.04279,-0.1645 -0.01536,-0.0561 -0.03136,-0.11201 -0.04825,-0.16766 -0.01982,-0.0653 -0.0406,-0.13034 -0.06229,-0.19505 -0.01771,-0.0528 -0.03627,-0.10534 -0.05539,-0.15766 -0.01778,-0.0486 -0.03615,-0.0971 -0.05517,-0.14523 -0.02162,-0.0547 -0.04388,-0.1092 -0.067,-0.16331 -0.02426,-0.0568 -0.04933,-0.11323 -0.07522,-0.16929 -0.02473,-0.0536 -0.05017,-0.1068 -0.07652,-0.15958 -0.03251,-0.0651 -0.06612,-0.12972 -0.100626,-0.19381 -0.02424,-0.045 -0.04925,-0.0896 -0.07473,-0.13398 -0.02741,-0.0477 -0.05538,-0.0951 -0.08404,-0.14202 -0.03087,-0.0506 -0.06245,-0.1007 -0.09467,-0.15042 -0.02819,-0.0435 -0.05698,-0.0866 -0.0863,-0.12938 -0.03295,-0.048 -0.06656,-0.0956 -0.100713,-0.14282 -0.0271,-0.0374 -0.05465,-0.0746 -0.08266,-0.11132 -0.03709,-0.0487 -0.07462,-0.0971 -0.113083,-0.14466 -0.05029,-0.0622 -0.101583,-0.12369 -0.153834,-0.18429 -0.04115,-0.0477 -0.08302,-0.0949 -0.125725,-0.14121 -0.0642,-0.0697 -0.129478,-0.13836 -0.196135,-0.20568 -0.05907,-0.0597 -0.119225,-0.11826 -0.180542,-0.1756 -0.08053,-0.0753 -0.162737,-0.14884 -0.245975,-0.22115 -0.04925,-0.0428 -0.09941,-0.0845 -0.149921,-0.12581 -0.05787,-0.0473 -0.116375,-0.0938 -0.17544,-0.13959 -0.05175,-0.0401 -0.104074,-0.0795 -0.15677,-0.11837 -0.05115,-0.0377 -0.102732,-0.0749 -0.154705,-0.11145 -0.05482,-0.0386 -0.110078,-0.0765 -0.165714,-0.11394 -0.05209,-0.035 -0.104601,-0.0694 -0.157371,-0.10338 -0.04621,-0.0298 -0.09269,-0.0591 -0.139446,-0.088 -0.05818,-0.0359 -0.116725,-0.0713 -0.175567,-0.1062 -0.04782,-0.0283 -0.09594,-0.0562 -0.144225,-0.0837 -0.04622,-0.0264 -0.09263,-0.0524 -0.139255,-0.078 -0.05496,-0.0302 -0.110081,-0.0601 -0.165603,-0.0893 -0.0906,-0.0476 -0.181566,-0.0945 -0.273346,-0.13979 -0.116699,-0.0576 -0.234148,-0.11366 -0.35256,-0.16761 -0.136671,-0.0623 -0.274417,-0.12222 -0.412991,-0.18014 -0.127558,-0.0533 -0.256098,-0.10428 -0.385096,-0.15401 -0.106198,-0.0409 -0.213035,-0.0802 -0.320108,-0.11881 -0.08464,-0.0305 -0.169583,-0.0602 -0.25477,-0.0891 -0.107963,-0.0367 -0.216228,-0.0725 -0.324866,-0.10709 -0.118872,-0.0379 -0.238133,-0.0746 -0.357725,-0.1101 -0.119172,-0.0354 -0.238717,-0.0696 -0.358531,-0.10277 -0.142226,-0.0394 -0.285101,-0.0764 -0.427726,-0.1143 -2.260936,-0.601 -6.78517,-1.79407 -6.78517,-1.79407 z"
       id="path13796"
       sodipodi:nodetypes="cccccssssssssssssssssssssssssssssssssssssssssssssssssssssssssssssssssssssscssssssssssssssssssssssssssssssssssssssssssssssssssssssssssssssssssssssssssssssssssssssssssc" /><path
       style="fill:url(#linearGradient15389);fill-opacity:1;stroke:#000000;stroke-width:0.00499999;stroke-opacity:0"
       d="m 82.015363,127.52785 v -0.74769 l -0.07191,0.0251 -0.07736,0.0264 -0.04241,0.0143 -0.05428,0.018 -0.07461,0.0243 -0.07151,0.0229 -0.06245,0.0196 -0.05903,0.0182 -0.06139,0.0186 -0.05664,0.0169 -0.03982,0.0117 -0.06309,0.0183 -0.07663,0.0217 -0.08056,0.0223 -0.106916,0.0287 -0.07452,0.0195 -0.09207,0.0234 -0.08396,0.0207 -0.07779,0.0186 -0.05325,0.0125 -0.07074,0.0162 -0.07876,0.0175 -0.07144,0.0155 -0.07042,0.0148 -0.06911,0.0142 -0.06121,0.0122 -0.06942,0.0135 -0.07885,0.0148 -0.09723,0.0176 -0.09057,0.0157 -0.129773,0.0214 -0.068,0.0107 -0.08006,0.0121 -0.07221,0.0105 -0.08853,0.0123 -0.09224,0.0121 -0.101145,0.0125 -0.07982,0.009 -0.09269,0.0102 -0.114604,0.0117 -0.08815,0.008 -0.103978,0.009 -0.09178,0.007 -0.123648,0.009 -0.08096,0.005 -0.09933,0.006 -0.100147,0.005 -0.119947,0.005 -0.05567,0.002 -0.108424,0.003 -0.08361,0.002 -0.08158,0.001 -0.108484,0.001 -0.08891,1.7e-4 -0.09824,-5.3e-4 -0.07239,-7.9e-4 -0.129278,-0.002 -0.0806,-0.002 -0.107337,-0.003 -0.100266,-0.004 -0.114403,-0.005 -0.150175,-0.008 -0.108395,-0.007 -0.122687,-0.009 c 0,0 -0.05721,-0.005 -0.0614,-0.005 -0.0042,-2.6e-4 -0.06638,-0.006 -0.06638,-0.006 l -0.106551,-0.01 -0.08427,-0.008 -0.0909,-0.009 -0.100706,-0.0109 -0.09239,-0.0106 -0.06727,-0.008 -0.09766,-0.0123 -0.08316,-0.011 -0.08586,-0.0118 -0.152472,-0.0221 -0.103788,-0.0159 -0.105955,-0.017 -0.07137,-0.0114 -0.08903,-0.0142 -0.07455,-0.0118 -0.125807,-0.0197 -0.115689,-0.018 -0.08076,-0.0125 -0.106312,-0.0164 -0.07316,-0.0113 -0.09351,-0.0144 -0.09522,-0.0147 -0.08698,-0.0134 -0.08077,-0.0125 -0.081,-0.0125 -0.101706,-0.0158 -0.09944,-0.0155 -0.104185,-0.0164 -0.132358,-0.021 -0.121457,-0.0195 -0.09881,-0.016 -0.07513,-0.0123 -0.08349,-0.0138 -0.08331,-0.0139 -0.07015,-0.0119 -0.09947,-0.017 -0.111932,-0.0195 -0.116023,-0.0206 -0.09148,-0.0166 -0.08599,-0.0159 -0.09492,-0.0178 -0.07751,-0.0148 -0.08018,-0.0156 -0.103997,-0.0206 -0.08302,-0.0169 -0.1036,-0.0215 -0.108217,-0.0231 -0.105317,-0.0232 -0.08794,-0.0199 -0.150927,-0.0353 -0.07919,-0.0192 -0.09822,-0.0245 -0.106019,-0.0274 -0.07501,-0.02 -0.0926,-0.0255 -0.119039,-0.0341 -0.09409,-0.0281 -0.131681,-0.0413 -0.0927,-0.0305 -0.102163,-0.0352 -0.102799,-0.0373 -0.101761,-0.0389 -0.141002,-0.0577 -0.09991,-0.0439 -0.125217,-0.0593 -0.09893,-0.0508 -0.106077,-0.0591 -0.09054,-0.0549 -0.09748,-0.0649 -0.11472,-0.0861 -0.07355,-0.0625 -0.06481,-0.0613 -0.07789,-0.0841 -0.07185,-0.0923 -0.05546,-0.0865 -0.05379,-0.10676 -0.03052,-0.0799 -0.02334,-0.0824 -0.01783,-0.0987 -0.0061,-0.0657 -0.0028,-0.0591 -0.0013,-0.0944 -0.0019,0.16205 -7.7e-5,0.0506 3.2e-5,0.0806 1.01e-4,0.0517 2.56e-4,0.0795 7.94e-4,0.13022 0.0016,0.17178 0.0013,0.0942 0.0021,0.0806 0.0041,0.0485 0.0087,0.0615 0.01669,0.0768 0.02678,0.0859 0.03412,0.082 0.0326,0.0636 0.04301,0.0709 0.05288,0.0739 0.04693,0.0572 0.03319,0.0369 0.05153,0.0527 0.06179,0.0572 0.05265,0.0447 0.05374,0.0424 0.04849,0.0359 0.05957,0.0414 0.06604,0.043 0.09657,0.0582 0.07911,0.0441 0.0758,0.0397 0.05376,0.0268 0.07213,0.0344 0.0786,0.0357 0.07382,0.0319 0.08983,0.037 0.07021,0.0276 0.0552,0.021 0.08006,0.0294 0.06746,0.0238 0.05815,0.0199 0.125648,0.0413 0.107624,0.0336 0.07648,0.023 0.0871,0.0253 0.09428,0.0265 0.09546,0.0258 0.111577,0.0291 0.08413,0.0212 0.116356,0.0284 0.104002,0.0245 0.09342,0.0214 0.09081,0.0202 0.109312,0.0237 0.08054,0.017 0.07538,0.0156 0.06373,0.013 0.0763,0.0153 0.103617,0.0203 0.08863,0.017 0.105145,0.0198 0.133745,0.0246 0.150569,0.0269 0.1935,0.0336 0.193739,0.0327 0.193944,0.0319 0.223105,0.0358 0.205978,0.0325 0.261131,0.0406 0.254362,0.0392 0.198358,0.0305 0.196588,0.0304 0.230347,0.036 0.220527,0.0351 0.233643,0.0365 0.258088,0.0361 0.197697,0.0247 0.276537,0.0302 0.193632,0.0181 0.268941,0.0209 0.306954,0.0178 0.288761,0.0107 0.309719,0.005 0.312475,-0.002 0.289433,-0.008 0.330214,-0.0169 0.29474,-0.022 0.329711,-0.0325 0.275269,-0.0335 0.259506,-0.0371 0.293341,-0.0483 0.215871,-0.04 0.203105,-0.0411 0.253198,-0.056 0.248677,-0.0602 0.219522,-0.0575 0.213786,-0.06 0.222372,-0.0666 0.220165,-0.0702 0.132527,-0.0443 z"
       id="path14655" /></g></svg>
