%TF.GenerationSoftware,KiCad,Pcbnew,7.0.5*%
%TF.CreationDate,2023-06-22T09:42:08-05:00*%
%TF.ProjectId,pu-23_VDAC_reloc,70752d32-335f-4564-9441-435f72656c6f,rev?*%
%TF.SameCoordinates,Original*%
%TF.FileFunction,Legend,Top*%
%TF.FilePolarity,Positive*%
%FSLAX46Y46*%
G04 Gerber Fmt 4.6, Leading zero omitted, Abs format (unit mm)*
G04 Created by KiCad (PCBNEW 7.0.5) date 2023-06-22 09:42:08*
%MOMM*%
%LPD*%
G01*
G04 APERTURE LIST*
G04 Aperture macros list*
%AMRoundRect*
0 Rectangle with rounded corners*
0 $1 Rounding radius*
0 $2 $3 $4 $5 $6 $7 $8 $9 X,Y pos of 4 corners*
0 Add a 4 corners polygon primitive as box body*
4,1,4,$2,$3,$4,$5,$6,$7,$8,$9,$2,$3,0*
0 Add four circle primitives for the rounded corners*
1,1,$1+$1,$2,$3*
1,1,$1+$1,$4,$5*
1,1,$1+$1,$6,$7*
1,1,$1+$1,$8,$9*
0 Add four rect primitives between the rounded corners*
20,1,$1+$1,$2,$3,$4,$5,0*
20,1,$1+$1,$4,$5,$6,$7,0*
20,1,$1+$1,$6,$7,$8,$9,0*
20,1,$1+$1,$8,$9,$2,$3,0*%
G04 Aperture macros list end*
%ADD10C,0.160000*%
%ADD11C,0.120000*%
%ADD12C,0.200000*%
%ADD13C,0.250000*%
%ADD14RoundRect,0.225000X0.225000X0.250000X-0.225000X0.250000X-0.225000X-0.250000X0.225000X-0.250000X0*%
%ADD15RoundRect,0.200000X-0.200000X-0.400000X0.200000X-0.400000X0.200000X0.400000X-0.200000X0.400000X0*%
%ADD16RoundRect,0.200000X0.275000X-0.200000X0.275000X0.200000X-0.275000X0.200000X-0.275000X-0.200000X0*%
%ADD17RoundRect,0.225000X-0.250000X0.225000X-0.250000X-0.225000X0.250000X-0.225000X0.250000X0.225000X0*%
%ADD18RoundRect,0.200000X-0.275000X0.200000X-0.275000X-0.200000X0.275000X-0.200000X0.275000X0.200000X0*%
%ADD19RoundRect,0.200000X-0.400000X-0.200000X0.400000X-0.200000X0.400000X0.200000X-0.400000X0.200000X0*%
%ADD20R,1.475000X0.300000*%
%ADD21R,0.300000X1.475000*%
%ADD22RoundRect,0.225000X0.250000X-0.225000X0.250000X0.225000X-0.250000X0.225000X-0.250000X-0.225000X0*%
%ADD23RoundRect,0.150000X0.825000X0.150000X-0.825000X0.150000X-0.825000X-0.150000X0.825000X-0.150000X0*%
%ADD24RoundRect,0.225000X-0.225000X-0.250000X0.225000X-0.250000X0.225000X0.250000X-0.225000X0.250000X0*%
G04 APERTURE END LIST*
D10*
X126993333Y-64799060D02*
X126945714Y-64846680D01*
X126945714Y-64846680D02*
X126802857Y-64894299D01*
X126802857Y-64894299D02*
X126707619Y-64894299D01*
X126707619Y-64894299D02*
X126564762Y-64846680D01*
X126564762Y-64846680D02*
X126469524Y-64751441D01*
X126469524Y-64751441D02*
X126421905Y-64656203D01*
X126421905Y-64656203D02*
X126374286Y-64465727D01*
X126374286Y-64465727D02*
X126374286Y-64322870D01*
X126374286Y-64322870D02*
X126421905Y-64132394D01*
X126421905Y-64132394D02*
X126469524Y-64037156D01*
X126469524Y-64037156D02*
X126564762Y-63941918D01*
X126564762Y-63941918D02*
X126707619Y-63894299D01*
X126707619Y-63894299D02*
X126802857Y-63894299D01*
X126802857Y-63894299D02*
X126945714Y-63941918D01*
X126945714Y-63941918D02*
X126993333Y-63989537D01*
X127326667Y-63894299D02*
X127993333Y-63894299D01*
X127993333Y-63894299D02*
X127564762Y-64894299D01*
X114246641Y-67716918D02*
X114151403Y-67669299D01*
X114151403Y-67669299D02*
X114008546Y-67669299D01*
X114008546Y-67669299D02*
X113865689Y-67716918D01*
X113865689Y-67716918D02*
X113770451Y-67812156D01*
X113770451Y-67812156D02*
X113722832Y-67907394D01*
X113722832Y-67907394D02*
X113675213Y-68097870D01*
X113675213Y-68097870D02*
X113675213Y-68240727D01*
X113675213Y-68240727D02*
X113722832Y-68431203D01*
X113722832Y-68431203D02*
X113770451Y-68526441D01*
X113770451Y-68526441D02*
X113865689Y-68621680D01*
X113865689Y-68621680D02*
X114008546Y-68669299D01*
X114008546Y-68669299D02*
X114103784Y-68669299D01*
X114103784Y-68669299D02*
X114246641Y-68621680D01*
X114246641Y-68621680D02*
X114294260Y-68574060D01*
X114294260Y-68574060D02*
X114294260Y-68240727D01*
X114294260Y-68240727D02*
X114103784Y-68240727D01*
X116794260Y-68669299D02*
X116460927Y-68193108D01*
X116222832Y-68669299D02*
X116222832Y-67669299D01*
X116222832Y-67669299D02*
X116603784Y-67669299D01*
X116603784Y-67669299D02*
X116699022Y-67716918D01*
X116699022Y-67716918D02*
X116746641Y-67764537D01*
X116746641Y-67764537D02*
X116794260Y-67859775D01*
X116794260Y-67859775D02*
X116794260Y-68002632D01*
X116794260Y-68002632D02*
X116746641Y-68097870D01*
X116746641Y-68097870D02*
X116699022Y-68145489D01*
X116699022Y-68145489D02*
X116603784Y-68193108D01*
X116603784Y-68193108D02*
X116222832Y-68193108D01*
X108692832Y-68521680D02*
X108835689Y-68569299D01*
X108835689Y-68569299D02*
X109073784Y-68569299D01*
X109073784Y-68569299D02*
X109169022Y-68521680D01*
X109169022Y-68521680D02*
X109216641Y-68474060D01*
X109216641Y-68474060D02*
X109264260Y-68378822D01*
X109264260Y-68378822D02*
X109264260Y-68283584D01*
X109264260Y-68283584D02*
X109216641Y-68188346D01*
X109216641Y-68188346D02*
X109169022Y-68140727D01*
X109169022Y-68140727D02*
X109073784Y-68093108D01*
X109073784Y-68093108D02*
X108883308Y-68045489D01*
X108883308Y-68045489D02*
X108788070Y-67997870D01*
X108788070Y-67997870D02*
X108740451Y-67950251D01*
X108740451Y-67950251D02*
X108692832Y-67855013D01*
X108692832Y-67855013D02*
X108692832Y-67759775D01*
X108692832Y-67759775D02*
X108740451Y-67664537D01*
X108740451Y-67664537D02*
X108788070Y-67616918D01*
X108788070Y-67616918D02*
X108883308Y-67569299D01*
X108883308Y-67569299D02*
X109121403Y-67569299D01*
X109121403Y-67569299D02*
X109264260Y-67616918D01*
X111606165Y-68145489D02*
X111749022Y-68193108D01*
X111749022Y-68193108D02*
X111796641Y-68240727D01*
X111796641Y-68240727D02*
X111844260Y-68335965D01*
X111844260Y-68335965D02*
X111844260Y-68478822D01*
X111844260Y-68478822D02*
X111796641Y-68574060D01*
X111796641Y-68574060D02*
X111749022Y-68621680D01*
X111749022Y-68621680D02*
X111653784Y-68669299D01*
X111653784Y-68669299D02*
X111272832Y-68669299D01*
X111272832Y-68669299D02*
X111272832Y-67669299D01*
X111272832Y-67669299D02*
X111606165Y-67669299D01*
X111606165Y-67669299D02*
X111701403Y-67716918D01*
X111701403Y-67716918D02*
X111749022Y-67764537D01*
X111749022Y-67764537D02*
X111796641Y-67859775D01*
X111796641Y-67859775D02*
X111796641Y-67955013D01*
X111796641Y-67955013D02*
X111749022Y-68050251D01*
X111749022Y-68050251D02*
X111701403Y-68097870D01*
X111701403Y-68097870D02*
X111606165Y-68145489D01*
X111606165Y-68145489D02*
X111272832Y-68145489D01*
X108293358Y-80868346D02*
X109055263Y-80868346D01*
X107193358Y-80868346D02*
X107955263Y-80868346D01*
X107574310Y-81249299D02*
X107574310Y-80487394D01*
X120534299Y-79296666D02*
X120058108Y-79629999D01*
X120534299Y-79868094D02*
X119534299Y-79868094D01*
X119534299Y-79868094D02*
X119534299Y-79487142D01*
X119534299Y-79487142D02*
X119581918Y-79391904D01*
X119581918Y-79391904D02*
X119629537Y-79344285D01*
X119629537Y-79344285D02*
X119724775Y-79296666D01*
X119724775Y-79296666D02*
X119867632Y-79296666D01*
X119867632Y-79296666D02*
X119962870Y-79344285D01*
X119962870Y-79344285D02*
X120010489Y-79391904D01*
X120010489Y-79391904D02*
X120058108Y-79487142D01*
X120058108Y-79487142D02*
X120058108Y-79868094D01*
X119534299Y-78439523D02*
X119534299Y-78629999D01*
X119534299Y-78629999D02*
X119581918Y-78725237D01*
X119581918Y-78725237D02*
X119629537Y-78772856D01*
X119629537Y-78772856D02*
X119772394Y-78868094D01*
X119772394Y-78868094D02*
X119962870Y-78915713D01*
X119962870Y-78915713D02*
X120343822Y-78915713D01*
X120343822Y-78915713D02*
X120439060Y-78868094D01*
X120439060Y-78868094D02*
X120486680Y-78820475D01*
X120486680Y-78820475D02*
X120534299Y-78725237D01*
X120534299Y-78725237D02*
X120534299Y-78534761D01*
X120534299Y-78534761D02*
X120486680Y-78439523D01*
X120486680Y-78439523D02*
X120439060Y-78391904D01*
X120439060Y-78391904D02*
X120343822Y-78344285D01*
X120343822Y-78344285D02*
X120105727Y-78344285D01*
X120105727Y-78344285D02*
X120010489Y-78391904D01*
X120010489Y-78391904D02*
X119962870Y-78439523D01*
X119962870Y-78439523D02*
X119915251Y-78534761D01*
X119915251Y-78534761D02*
X119915251Y-78725237D01*
X119915251Y-78725237D02*
X119962870Y-78820475D01*
X119962870Y-78820475D02*
X120010489Y-78868094D01*
X120010489Y-78868094D02*
X120105727Y-78915713D01*
X113878333Y-83049060D02*
X113830714Y-83096680D01*
X113830714Y-83096680D02*
X113687857Y-83144299D01*
X113687857Y-83144299D02*
X113592619Y-83144299D01*
X113592619Y-83144299D02*
X113449762Y-83096680D01*
X113449762Y-83096680D02*
X113354524Y-83001441D01*
X113354524Y-83001441D02*
X113306905Y-82906203D01*
X113306905Y-82906203D02*
X113259286Y-82715727D01*
X113259286Y-82715727D02*
X113259286Y-82572870D01*
X113259286Y-82572870D02*
X113306905Y-82382394D01*
X113306905Y-82382394D02*
X113354524Y-82287156D01*
X113354524Y-82287156D02*
X113449762Y-82191918D01*
X113449762Y-82191918D02*
X113592619Y-82144299D01*
X113592619Y-82144299D02*
X113687857Y-82144299D01*
X113687857Y-82144299D02*
X113830714Y-82191918D01*
X113830714Y-82191918D02*
X113878333Y-82239537D01*
X114354524Y-83144299D02*
X114545000Y-83144299D01*
X114545000Y-83144299D02*
X114640238Y-83096680D01*
X114640238Y-83096680D02*
X114687857Y-83049060D01*
X114687857Y-83049060D02*
X114783095Y-82906203D01*
X114783095Y-82906203D02*
X114830714Y-82715727D01*
X114830714Y-82715727D02*
X114830714Y-82334775D01*
X114830714Y-82334775D02*
X114783095Y-82239537D01*
X114783095Y-82239537D02*
X114735476Y-82191918D01*
X114735476Y-82191918D02*
X114640238Y-82144299D01*
X114640238Y-82144299D02*
X114449762Y-82144299D01*
X114449762Y-82144299D02*
X114354524Y-82191918D01*
X114354524Y-82191918D02*
X114306905Y-82239537D01*
X114306905Y-82239537D02*
X114259286Y-82334775D01*
X114259286Y-82334775D02*
X114259286Y-82572870D01*
X114259286Y-82572870D02*
X114306905Y-82668108D01*
X114306905Y-82668108D02*
X114354524Y-82715727D01*
X114354524Y-82715727D02*
X114449762Y-82763346D01*
X114449762Y-82763346D02*
X114640238Y-82763346D01*
X114640238Y-82763346D02*
X114735476Y-82715727D01*
X114735476Y-82715727D02*
X114783095Y-82668108D01*
X114783095Y-82668108D02*
X114830714Y-82572870D01*
X123629060Y-65231666D02*
X123676680Y-65279285D01*
X123676680Y-65279285D02*
X123724299Y-65422142D01*
X123724299Y-65422142D02*
X123724299Y-65517380D01*
X123724299Y-65517380D02*
X123676680Y-65660237D01*
X123676680Y-65660237D02*
X123581441Y-65755475D01*
X123581441Y-65755475D02*
X123486203Y-65803094D01*
X123486203Y-65803094D02*
X123295727Y-65850713D01*
X123295727Y-65850713D02*
X123152870Y-65850713D01*
X123152870Y-65850713D02*
X122962394Y-65803094D01*
X122962394Y-65803094D02*
X122867156Y-65755475D01*
X122867156Y-65755475D02*
X122771918Y-65660237D01*
X122771918Y-65660237D02*
X122724299Y-65517380D01*
X122724299Y-65517380D02*
X122724299Y-65422142D01*
X122724299Y-65422142D02*
X122771918Y-65279285D01*
X122771918Y-65279285D02*
X122819537Y-65231666D01*
X122724299Y-64898332D02*
X122724299Y-64279285D01*
X122724299Y-64279285D02*
X123105251Y-64612618D01*
X123105251Y-64612618D02*
X123105251Y-64469761D01*
X123105251Y-64469761D02*
X123152870Y-64374523D01*
X123152870Y-64374523D02*
X123200489Y-64326904D01*
X123200489Y-64326904D02*
X123295727Y-64279285D01*
X123295727Y-64279285D02*
X123533822Y-64279285D01*
X123533822Y-64279285D02*
X123629060Y-64326904D01*
X123629060Y-64326904D02*
X123676680Y-64374523D01*
X123676680Y-64374523D02*
X123724299Y-64469761D01*
X123724299Y-64469761D02*
X123724299Y-64755475D01*
X123724299Y-64755475D02*
X123676680Y-64850713D01*
X123676680Y-64850713D02*
X123629060Y-64898332D01*
X118374299Y-73739999D02*
X117898108Y-74073332D01*
X118374299Y-74311427D02*
X117374299Y-74311427D01*
X117374299Y-74311427D02*
X117374299Y-73930475D01*
X117374299Y-73930475D02*
X117421918Y-73835237D01*
X117421918Y-73835237D02*
X117469537Y-73787618D01*
X117469537Y-73787618D02*
X117564775Y-73739999D01*
X117564775Y-73739999D02*
X117707632Y-73739999D01*
X117707632Y-73739999D02*
X117802870Y-73787618D01*
X117802870Y-73787618D02*
X117850489Y-73835237D01*
X117850489Y-73835237D02*
X117898108Y-73930475D01*
X117898108Y-73930475D02*
X117898108Y-74311427D01*
X118374299Y-72787618D02*
X118374299Y-73359046D01*
X118374299Y-73073332D02*
X117374299Y-73073332D01*
X117374299Y-73073332D02*
X117517156Y-73168570D01*
X117517156Y-73168570D02*
X117612394Y-73263808D01*
X117612394Y-73263808D02*
X117660013Y-73359046D01*
X125143810Y-74794299D02*
X125143810Y-73794299D01*
X126191428Y-74699060D02*
X126143809Y-74746680D01*
X126143809Y-74746680D02*
X126000952Y-74794299D01*
X126000952Y-74794299D02*
X125905714Y-74794299D01*
X125905714Y-74794299D02*
X125762857Y-74746680D01*
X125762857Y-74746680D02*
X125667619Y-74651441D01*
X125667619Y-74651441D02*
X125620000Y-74556203D01*
X125620000Y-74556203D02*
X125572381Y-74365727D01*
X125572381Y-74365727D02*
X125572381Y-74222870D01*
X125572381Y-74222870D02*
X125620000Y-74032394D01*
X125620000Y-74032394D02*
X125667619Y-73937156D01*
X125667619Y-73937156D02*
X125762857Y-73841918D01*
X125762857Y-73841918D02*
X125905714Y-73794299D01*
X125905714Y-73794299D02*
X126000952Y-73794299D01*
X126000952Y-73794299D02*
X126143809Y-73841918D01*
X126143809Y-73841918D02*
X126191428Y-73889537D01*
X127143809Y-74794299D02*
X126572381Y-74794299D01*
X126858095Y-74794299D02*
X126858095Y-73794299D01*
X126858095Y-73794299D02*
X126762857Y-73937156D01*
X126762857Y-73937156D02*
X126667619Y-74032394D01*
X126667619Y-74032394D02*
X126572381Y-74080013D01*
X115124299Y-73731666D02*
X114648108Y-74064999D01*
X115124299Y-74303094D02*
X114124299Y-74303094D01*
X114124299Y-74303094D02*
X114124299Y-73922142D01*
X114124299Y-73922142D02*
X114171918Y-73826904D01*
X114171918Y-73826904D02*
X114219537Y-73779285D01*
X114219537Y-73779285D02*
X114314775Y-73731666D01*
X114314775Y-73731666D02*
X114457632Y-73731666D01*
X114457632Y-73731666D02*
X114552870Y-73779285D01*
X114552870Y-73779285D02*
X114600489Y-73826904D01*
X114600489Y-73826904D02*
X114648108Y-73922142D01*
X114648108Y-73922142D02*
X114648108Y-74303094D01*
X114124299Y-73398332D02*
X114124299Y-72779285D01*
X114124299Y-72779285D02*
X114505251Y-73112618D01*
X114505251Y-73112618D02*
X114505251Y-72969761D01*
X114505251Y-72969761D02*
X114552870Y-72874523D01*
X114552870Y-72874523D02*
X114600489Y-72826904D01*
X114600489Y-72826904D02*
X114695727Y-72779285D01*
X114695727Y-72779285D02*
X114933822Y-72779285D01*
X114933822Y-72779285D02*
X115029060Y-72826904D01*
X115029060Y-72826904D02*
X115076680Y-72874523D01*
X115076680Y-72874523D02*
X115124299Y-72969761D01*
X115124299Y-72969761D02*
X115124299Y-73255475D01*
X115124299Y-73255475D02*
X115076680Y-73350713D01*
X115076680Y-73350713D02*
X115029060Y-73398332D01*
X118879060Y-79281666D02*
X118926680Y-79329285D01*
X118926680Y-79329285D02*
X118974299Y-79472142D01*
X118974299Y-79472142D02*
X118974299Y-79567380D01*
X118974299Y-79567380D02*
X118926680Y-79710237D01*
X118926680Y-79710237D02*
X118831441Y-79805475D01*
X118831441Y-79805475D02*
X118736203Y-79853094D01*
X118736203Y-79853094D02*
X118545727Y-79900713D01*
X118545727Y-79900713D02*
X118402870Y-79900713D01*
X118402870Y-79900713D02*
X118212394Y-79853094D01*
X118212394Y-79853094D02*
X118117156Y-79805475D01*
X118117156Y-79805475D02*
X118021918Y-79710237D01*
X118021918Y-79710237D02*
X117974299Y-79567380D01*
X117974299Y-79567380D02*
X117974299Y-79472142D01*
X117974299Y-79472142D02*
X118021918Y-79329285D01*
X118021918Y-79329285D02*
X118069537Y-79281666D01*
X118069537Y-78900713D02*
X118021918Y-78853094D01*
X118021918Y-78853094D02*
X117974299Y-78757856D01*
X117974299Y-78757856D02*
X117974299Y-78519761D01*
X117974299Y-78519761D02*
X118021918Y-78424523D01*
X118021918Y-78424523D02*
X118069537Y-78376904D01*
X118069537Y-78376904D02*
X118164775Y-78329285D01*
X118164775Y-78329285D02*
X118260013Y-78329285D01*
X118260013Y-78329285D02*
X118402870Y-78376904D01*
X118402870Y-78376904D02*
X118974299Y-78948332D01*
X118974299Y-78948332D02*
X118974299Y-78329285D01*
X108129060Y-78106666D02*
X108176680Y-78154285D01*
X108176680Y-78154285D02*
X108224299Y-78297142D01*
X108224299Y-78297142D02*
X108224299Y-78392380D01*
X108224299Y-78392380D02*
X108176680Y-78535237D01*
X108176680Y-78535237D02*
X108081441Y-78630475D01*
X108081441Y-78630475D02*
X107986203Y-78678094D01*
X107986203Y-78678094D02*
X107795727Y-78725713D01*
X107795727Y-78725713D02*
X107652870Y-78725713D01*
X107652870Y-78725713D02*
X107462394Y-78678094D01*
X107462394Y-78678094D02*
X107367156Y-78630475D01*
X107367156Y-78630475D02*
X107271918Y-78535237D01*
X107271918Y-78535237D02*
X107224299Y-78392380D01*
X107224299Y-78392380D02*
X107224299Y-78297142D01*
X107224299Y-78297142D02*
X107271918Y-78154285D01*
X107271918Y-78154285D02*
X107319537Y-78106666D01*
X108224299Y-77154285D02*
X108224299Y-77725713D01*
X108224299Y-77439999D02*
X107224299Y-77439999D01*
X107224299Y-77439999D02*
X107367156Y-77535237D01*
X107367156Y-77535237D02*
X107462394Y-77630475D01*
X107462394Y-77630475D02*
X107510013Y-77725713D01*
X113233095Y-77144299D02*
X113233095Y-77953822D01*
X113233095Y-77953822D02*
X113280714Y-78049060D01*
X113280714Y-78049060D02*
X113328333Y-78096680D01*
X113328333Y-78096680D02*
X113423571Y-78144299D01*
X113423571Y-78144299D02*
X113614047Y-78144299D01*
X113614047Y-78144299D02*
X113709285Y-78096680D01*
X113709285Y-78096680D02*
X113756904Y-78049060D01*
X113756904Y-78049060D02*
X113804523Y-77953822D01*
X113804523Y-77953822D02*
X113804523Y-77144299D01*
X114804523Y-78144299D02*
X114233095Y-78144299D01*
X114518809Y-78144299D02*
X114518809Y-77144299D01*
X114518809Y-77144299D02*
X114423571Y-77287156D01*
X114423571Y-77287156D02*
X114328333Y-77382394D01*
X114328333Y-77382394D02*
X114233095Y-77430013D01*
X116749299Y-73748332D02*
X116273108Y-74081665D01*
X116749299Y-74319760D02*
X115749299Y-74319760D01*
X115749299Y-74319760D02*
X115749299Y-73938808D01*
X115749299Y-73938808D02*
X115796918Y-73843570D01*
X115796918Y-73843570D02*
X115844537Y-73795951D01*
X115844537Y-73795951D02*
X115939775Y-73748332D01*
X115939775Y-73748332D02*
X116082632Y-73748332D01*
X116082632Y-73748332D02*
X116177870Y-73795951D01*
X116177870Y-73795951D02*
X116225489Y-73843570D01*
X116225489Y-73843570D02*
X116273108Y-73938808D01*
X116273108Y-73938808D02*
X116273108Y-74319760D01*
X115844537Y-73367379D02*
X115796918Y-73319760D01*
X115796918Y-73319760D02*
X115749299Y-73224522D01*
X115749299Y-73224522D02*
X115749299Y-72986427D01*
X115749299Y-72986427D02*
X115796918Y-72891189D01*
X115796918Y-72891189D02*
X115844537Y-72843570D01*
X115844537Y-72843570D02*
X115939775Y-72795951D01*
X115939775Y-72795951D02*
X116035013Y-72795951D01*
X116035013Y-72795951D02*
X116177870Y-72843570D01*
X116177870Y-72843570D02*
X116749299Y-73414998D01*
X116749299Y-73414998D02*
X116749299Y-72795951D01*
X121979060Y-65231666D02*
X122026680Y-65279285D01*
X122026680Y-65279285D02*
X122074299Y-65422142D01*
X122074299Y-65422142D02*
X122074299Y-65517380D01*
X122074299Y-65517380D02*
X122026680Y-65660237D01*
X122026680Y-65660237D02*
X121931441Y-65755475D01*
X121931441Y-65755475D02*
X121836203Y-65803094D01*
X121836203Y-65803094D02*
X121645727Y-65850713D01*
X121645727Y-65850713D02*
X121502870Y-65850713D01*
X121502870Y-65850713D02*
X121312394Y-65803094D01*
X121312394Y-65803094D02*
X121217156Y-65755475D01*
X121217156Y-65755475D02*
X121121918Y-65660237D01*
X121121918Y-65660237D02*
X121074299Y-65517380D01*
X121074299Y-65517380D02*
X121074299Y-65422142D01*
X121074299Y-65422142D02*
X121121918Y-65279285D01*
X121121918Y-65279285D02*
X121169537Y-65231666D01*
X121407632Y-64374523D02*
X122074299Y-64374523D01*
X121026680Y-64612618D02*
X121740965Y-64850713D01*
X121740965Y-64850713D02*
X121740965Y-64231666D01*
X121973333Y-82149060D02*
X121925714Y-82196680D01*
X121925714Y-82196680D02*
X121782857Y-82244299D01*
X121782857Y-82244299D02*
X121687619Y-82244299D01*
X121687619Y-82244299D02*
X121544762Y-82196680D01*
X121544762Y-82196680D02*
X121449524Y-82101441D01*
X121449524Y-82101441D02*
X121401905Y-82006203D01*
X121401905Y-82006203D02*
X121354286Y-81815727D01*
X121354286Y-81815727D02*
X121354286Y-81672870D01*
X121354286Y-81672870D02*
X121401905Y-81482394D01*
X121401905Y-81482394D02*
X121449524Y-81387156D01*
X121449524Y-81387156D02*
X121544762Y-81291918D01*
X121544762Y-81291918D02*
X121687619Y-81244299D01*
X121687619Y-81244299D02*
X121782857Y-81244299D01*
X121782857Y-81244299D02*
X121925714Y-81291918D01*
X121925714Y-81291918D02*
X121973333Y-81339537D01*
X122544762Y-81672870D02*
X122449524Y-81625251D01*
X122449524Y-81625251D02*
X122401905Y-81577632D01*
X122401905Y-81577632D02*
X122354286Y-81482394D01*
X122354286Y-81482394D02*
X122354286Y-81434775D01*
X122354286Y-81434775D02*
X122401905Y-81339537D01*
X122401905Y-81339537D02*
X122449524Y-81291918D01*
X122449524Y-81291918D02*
X122544762Y-81244299D01*
X122544762Y-81244299D02*
X122735238Y-81244299D01*
X122735238Y-81244299D02*
X122830476Y-81291918D01*
X122830476Y-81291918D02*
X122878095Y-81339537D01*
X122878095Y-81339537D02*
X122925714Y-81434775D01*
X122925714Y-81434775D02*
X122925714Y-81482394D01*
X122925714Y-81482394D02*
X122878095Y-81577632D01*
X122878095Y-81577632D02*
X122830476Y-81625251D01*
X122830476Y-81625251D02*
X122735238Y-81672870D01*
X122735238Y-81672870D02*
X122544762Y-81672870D01*
X122544762Y-81672870D02*
X122449524Y-81720489D01*
X122449524Y-81720489D02*
X122401905Y-81768108D01*
X122401905Y-81768108D02*
X122354286Y-81863346D01*
X122354286Y-81863346D02*
X122354286Y-82053822D01*
X122354286Y-82053822D02*
X122401905Y-82149060D01*
X122401905Y-82149060D02*
X122449524Y-82196680D01*
X122449524Y-82196680D02*
X122544762Y-82244299D01*
X122544762Y-82244299D02*
X122735238Y-82244299D01*
X122735238Y-82244299D02*
X122830476Y-82196680D01*
X122830476Y-82196680D02*
X122878095Y-82149060D01*
X122878095Y-82149060D02*
X122925714Y-82053822D01*
X122925714Y-82053822D02*
X122925714Y-81863346D01*
X122925714Y-81863346D02*
X122878095Y-81768108D01*
X122878095Y-81768108D02*
X122830476Y-81720489D01*
X122830476Y-81720489D02*
X122735238Y-81672870D01*
X113499299Y-73756665D02*
X113023108Y-74089998D01*
X113499299Y-74328093D02*
X112499299Y-74328093D01*
X112499299Y-74328093D02*
X112499299Y-73947141D01*
X112499299Y-73947141D02*
X112546918Y-73851903D01*
X112546918Y-73851903D02*
X112594537Y-73804284D01*
X112594537Y-73804284D02*
X112689775Y-73756665D01*
X112689775Y-73756665D02*
X112832632Y-73756665D01*
X112832632Y-73756665D02*
X112927870Y-73804284D01*
X112927870Y-73804284D02*
X112975489Y-73851903D01*
X112975489Y-73851903D02*
X113023108Y-73947141D01*
X113023108Y-73947141D02*
X113023108Y-74328093D01*
X112499299Y-72851903D02*
X112499299Y-73328093D01*
X112499299Y-73328093D02*
X112975489Y-73375712D01*
X112975489Y-73375712D02*
X112927870Y-73328093D01*
X112927870Y-73328093D02*
X112880251Y-73232855D01*
X112880251Y-73232855D02*
X112880251Y-72994760D01*
X112880251Y-72994760D02*
X112927870Y-72899522D01*
X112927870Y-72899522D02*
X112975489Y-72851903D01*
X112975489Y-72851903D02*
X113070727Y-72804284D01*
X113070727Y-72804284D02*
X113308822Y-72804284D01*
X113308822Y-72804284D02*
X113404060Y-72851903D01*
X113404060Y-72851903D02*
X113451680Y-72899522D01*
X113451680Y-72899522D02*
X113499299Y-72994760D01*
X113499299Y-72994760D02*
X113499299Y-73232855D01*
X113499299Y-73232855D02*
X113451680Y-73328093D01*
X113451680Y-73328093D02*
X113404060Y-73375712D01*
X109874299Y-78131666D02*
X109398108Y-78464999D01*
X109874299Y-78703094D02*
X108874299Y-78703094D01*
X108874299Y-78703094D02*
X108874299Y-78322142D01*
X108874299Y-78322142D02*
X108921918Y-78226904D01*
X108921918Y-78226904D02*
X108969537Y-78179285D01*
X108969537Y-78179285D02*
X109064775Y-78131666D01*
X109064775Y-78131666D02*
X109207632Y-78131666D01*
X109207632Y-78131666D02*
X109302870Y-78179285D01*
X109302870Y-78179285D02*
X109350489Y-78226904D01*
X109350489Y-78226904D02*
X109398108Y-78322142D01*
X109398108Y-78322142D02*
X109398108Y-78703094D01*
X109207632Y-77274523D02*
X109874299Y-77274523D01*
X108826680Y-77512618D02*
X109540965Y-77750713D01*
X109540965Y-77750713D02*
X109540965Y-77131666D01*
X120379060Y-66706666D02*
X120426680Y-66754285D01*
X120426680Y-66754285D02*
X120474299Y-66897142D01*
X120474299Y-66897142D02*
X120474299Y-66992380D01*
X120474299Y-66992380D02*
X120426680Y-67135237D01*
X120426680Y-67135237D02*
X120331441Y-67230475D01*
X120331441Y-67230475D02*
X120236203Y-67278094D01*
X120236203Y-67278094D02*
X120045727Y-67325713D01*
X120045727Y-67325713D02*
X119902870Y-67325713D01*
X119902870Y-67325713D02*
X119712394Y-67278094D01*
X119712394Y-67278094D02*
X119617156Y-67230475D01*
X119617156Y-67230475D02*
X119521918Y-67135237D01*
X119521918Y-67135237D02*
X119474299Y-66992380D01*
X119474299Y-66992380D02*
X119474299Y-66897142D01*
X119474299Y-66897142D02*
X119521918Y-66754285D01*
X119521918Y-66754285D02*
X119569537Y-66706666D01*
X119474299Y-65801904D02*
X119474299Y-66278094D01*
X119474299Y-66278094D02*
X119950489Y-66325713D01*
X119950489Y-66325713D02*
X119902870Y-66278094D01*
X119902870Y-66278094D02*
X119855251Y-66182856D01*
X119855251Y-66182856D02*
X119855251Y-65944761D01*
X119855251Y-65944761D02*
X119902870Y-65849523D01*
X119902870Y-65849523D02*
X119950489Y-65801904D01*
X119950489Y-65801904D02*
X120045727Y-65754285D01*
X120045727Y-65754285D02*
X120283822Y-65754285D01*
X120283822Y-65754285D02*
X120379060Y-65801904D01*
X120379060Y-65801904D02*
X120426680Y-65849523D01*
X120426680Y-65849523D02*
X120474299Y-65944761D01*
X120474299Y-65944761D02*
X120474299Y-66182856D01*
X120474299Y-66182856D02*
X120426680Y-66278094D01*
X120426680Y-66278094D02*
X120379060Y-66325713D01*
X125229060Y-65231666D02*
X125276680Y-65279285D01*
X125276680Y-65279285D02*
X125324299Y-65422142D01*
X125324299Y-65422142D02*
X125324299Y-65517380D01*
X125324299Y-65517380D02*
X125276680Y-65660237D01*
X125276680Y-65660237D02*
X125181441Y-65755475D01*
X125181441Y-65755475D02*
X125086203Y-65803094D01*
X125086203Y-65803094D02*
X124895727Y-65850713D01*
X124895727Y-65850713D02*
X124752870Y-65850713D01*
X124752870Y-65850713D02*
X124562394Y-65803094D01*
X124562394Y-65803094D02*
X124467156Y-65755475D01*
X124467156Y-65755475D02*
X124371918Y-65660237D01*
X124371918Y-65660237D02*
X124324299Y-65517380D01*
X124324299Y-65517380D02*
X124324299Y-65422142D01*
X124324299Y-65422142D02*
X124371918Y-65279285D01*
X124371918Y-65279285D02*
X124419537Y-65231666D01*
X124324299Y-64374523D02*
X124324299Y-64564999D01*
X124324299Y-64564999D02*
X124371918Y-64660237D01*
X124371918Y-64660237D02*
X124419537Y-64707856D01*
X124419537Y-64707856D02*
X124562394Y-64803094D01*
X124562394Y-64803094D02*
X124752870Y-64850713D01*
X124752870Y-64850713D02*
X125133822Y-64850713D01*
X125133822Y-64850713D02*
X125229060Y-64803094D01*
X125229060Y-64803094D02*
X125276680Y-64755475D01*
X125276680Y-64755475D02*
X125324299Y-64660237D01*
X125324299Y-64660237D02*
X125324299Y-64469761D01*
X125324299Y-64469761D02*
X125276680Y-64374523D01*
X125276680Y-64374523D02*
X125229060Y-64326904D01*
X125229060Y-64326904D02*
X125133822Y-64279285D01*
X125133822Y-64279285D02*
X124895727Y-64279285D01*
X124895727Y-64279285D02*
X124800489Y-64326904D01*
X124800489Y-64326904D02*
X124752870Y-64374523D01*
X124752870Y-64374523D02*
X124705251Y-64469761D01*
X124705251Y-64469761D02*
X124705251Y-64660237D01*
X124705251Y-64660237D02*
X124752870Y-64755475D01*
X124752870Y-64755475D02*
X124800489Y-64803094D01*
X124800489Y-64803094D02*
X124895727Y-64850713D01*
D11*
X127300580Y-66300000D02*
X127019420Y-66300000D01*
X127300580Y-65280000D02*
X127019420Y-65280000D01*
X119547500Y-76927258D02*
X119547500Y-76452742D01*
X120592500Y-76927258D02*
X120592500Y-76452742D01*
X114185580Y-81775000D02*
X113904420Y-81775000D01*
X114185580Y-80755000D02*
X113904420Y-80755000D01*
X123755000Y-67349420D02*
X123755000Y-67630580D01*
X122735000Y-67349420D02*
X122735000Y-67630580D01*
X118442500Y-70902742D02*
X118442500Y-71377258D01*
X117397500Y-70902742D02*
X117397500Y-71377258D01*
D12*
X122970000Y-71190000D02*
X129270000Y-71190000D01*
X122970000Y-77490000D02*
X122970000Y-71190000D01*
X129270000Y-71190000D02*
X129270000Y-77490000D01*
X129270000Y-77490000D02*
X122970000Y-77490000D01*
D13*
X121520000Y-70840000D02*
G75*
G03*
X121520000Y-70840000I-125000J0D01*
G01*
D11*
X115192500Y-70902742D02*
X115192500Y-71377258D01*
X114147500Y-70902742D02*
X114147500Y-71377258D01*
X118010000Y-76830580D02*
X118010000Y-76549420D01*
X119030000Y-76830580D02*
X119030000Y-76549420D01*
X107260000Y-75550580D02*
X107260000Y-75269420D01*
X108280000Y-75550580D02*
X108280000Y-75269420D01*
X113995000Y-80250000D02*
X117445000Y-80250000D01*
X113995000Y-80250000D02*
X112045000Y-80250000D01*
X113995000Y-75130000D02*
X115945000Y-75130000D01*
X113995000Y-75130000D02*
X112045000Y-75130000D01*
X116817500Y-70902742D02*
X116817500Y-71377258D01*
X115772500Y-70902742D02*
X115772500Y-71377258D01*
X122130000Y-67349420D02*
X122130000Y-67630580D01*
X121110000Y-67349420D02*
X121110000Y-67630580D01*
X121999420Y-79880000D02*
X122280580Y-79880000D01*
X121999420Y-80900000D02*
X122280580Y-80900000D01*
X113567500Y-70902742D02*
X113567500Y-71377258D01*
X112522500Y-70902742D02*
X112522500Y-71377258D01*
X108897500Y-75652258D02*
X108897500Y-75177742D01*
X109942500Y-75652258D02*
X109942500Y-75177742D01*
X120530000Y-68824420D02*
X120530000Y-69105580D01*
X119510000Y-68824420D02*
X119510000Y-69105580D01*
X125380000Y-67349420D02*
X125380000Y-67630580D01*
X124360000Y-67349420D02*
X124360000Y-67630580D01*
%LPC*%
D14*
X127935000Y-65790000D03*
X126385000Y-65790000D03*
D15*
X116540000Y-66600000D03*
X115290000Y-66600000D03*
X114040000Y-66600000D03*
X112790000Y-66600000D03*
X111540000Y-66600000D03*
X110290000Y-66600000D03*
X109040000Y-66600000D03*
X107550000Y-82180000D03*
X108650000Y-82180000D03*
D16*
X120070000Y-77515000D03*
X120070000Y-75865000D03*
D14*
X114820000Y-81265000D03*
X113270000Y-81265000D03*
D17*
X123245000Y-66715000D03*
X123245000Y-68265000D03*
D18*
X117920000Y-70315000D03*
X117920000Y-71965000D03*
D19*
X134990000Y-59340000D03*
X134990000Y-60440000D03*
X134990000Y-61540000D03*
X134990000Y-62640000D03*
X134990000Y-63740000D03*
X134990000Y-64840000D03*
X134990000Y-65940000D03*
X134990000Y-67040000D03*
X134990000Y-68140000D03*
X134990000Y-69240000D03*
X134990000Y-70340000D03*
X134990000Y-71440000D03*
X134990000Y-72540000D03*
X134990000Y-73640000D03*
X134990000Y-74740000D03*
X134990000Y-75840000D03*
X134990000Y-76940000D03*
X134990000Y-78040000D03*
X134990000Y-79140000D03*
X134990000Y-80240000D03*
X134990000Y-81340000D03*
X134990000Y-82440000D03*
X134990000Y-83540000D03*
X134990000Y-84640000D03*
X134990000Y-85740000D03*
X134990000Y-86840000D03*
X134990000Y-87940000D03*
D20*
X121882000Y-71590000D03*
X121882000Y-72090000D03*
X121882000Y-72590000D03*
X121882000Y-73090000D03*
X121882000Y-73590000D03*
X121882000Y-74090000D03*
X121882000Y-74590000D03*
X121882000Y-75090000D03*
X121882000Y-75590000D03*
X121882000Y-76090000D03*
X121882000Y-76590000D03*
X121882000Y-77090000D03*
D21*
X123370000Y-78578000D03*
X123870000Y-78578000D03*
X124370000Y-78578000D03*
X124870000Y-78578000D03*
X125370000Y-78578000D03*
X125870000Y-78578000D03*
X126370000Y-78578000D03*
X126870000Y-78578000D03*
X127370000Y-78578000D03*
X127870000Y-78578000D03*
X128370000Y-78578000D03*
X128870000Y-78578000D03*
D20*
X130358000Y-77090000D03*
X130358000Y-76590000D03*
X130358000Y-76090000D03*
X130358000Y-75590000D03*
X130358000Y-75090000D03*
X130358000Y-74590000D03*
X130358000Y-74090000D03*
X130358000Y-73590000D03*
X130358000Y-73090000D03*
X130358000Y-72590000D03*
X130358000Y-72090000D03*
X130358000Y-71590000D03*
D21*
X128870000Y-70102000D03*
X128370000Y-70102000D03*
X127870000Y-70102000D03*
X127370000Y-70102000D03*
X126870000Y-70102000D03*
X126370000Y-70102000D03*
X125870000Y-70102000D03*
X125370000Y-70102000D03*
X124870000Y-70102000D03*
X124370000Y-70102000D03*
X123870000Y-70102000D03*
X123370000Y-70102000D03*
D18*
X114670000Y-70315000D03*
X114670000Y-71965000D03*
D22*
X118520000Y-77465000D03*
X118520000Y-75915000D03*
X107770000Y-76185000D03*
X107770000Y-74635000D03*
D23*
X116470000Y-79595000D03*
X116470000Y-78325000D03*
X116470000Y-77055000D03*
X116470000Y-75785000D03*
X111520000Y-75785000D03*
X111520000Y-77055000D03*
X111520000Y-78325000D03*
X111520000Y-79595000D03*
D18*
X116295000Y-70315000D03*
X116295000Y-71965000D03*
D17*
X121620000Y-66715000D03*
X121620000Y-68265000D03*
D24*
X121365000Y-80390000D03*
X122915000Y-80390000D03*
D18*
X113045000Y-70315000D03*
X113045000Y-71965000D03*
D16*
X109420000Y-76240000D03*
X109420000Y-74590000D03*
D17*
X120020000Y-68190000D03*
X120020000Y-69740000D03*
X124870000Y-66715000D03*
X124870000Y-68265000D03*
%LPD*%
M02*
