M48
; DRILL file {KiCad 7.0.5} date Thu 22 Jun 2023 09:42:04 AM CDT
; FORMAT={-:-/ absolute / metric / decimal}
; #@! TF.CreationDate,2023-06-22T09:42:04-05:00
; #@! TF.GenerationSoftware,Kicad,Pcbnew,7.0.5
; #@! TF.FileFunction,Plated,1,2,PTH
FMAT,2
METRIC
; #@! TA.AperFunction,Plated,PTH,ViaDrill
T1C0.200
; #@! TA.AperFunction,Plated,PTH,ViaDrill
T2C0.400
%
G90
G05
T1
X106.92Y-64.18
X106.92Y-67.33
X106.92Y-70.48
X106.92Y-73.63
X107.08Y-79.2
X110.07Y-64.18
X110.07Y-70.48
X110.07Y-73.63
X110.08Y-82.74
X113.22Y-64.18
X113.22Y-73.63
X113.22Y-76.78
X113.23Y-82.74
X115.6Y-74.29
X116.37Y-64.18
X116.38Y-82.74
X117.9Y-74.5
X118.84Y-66.64
X119.4Y-71.36
X119.52Y-64.18
X119.53Y-80.38
X119.53Y-82.74
X125.82Y-64.18
X125.82Y-73.17
X128.56Y-75.91
X128.57Y-73.15
X128.97Y-64.18
X129.94Y-70.15
X131.56Y-78.14
X131.7Y-61.2
T2
X108.16Y-80.08
X113.145Y-78.74
X123.595Y-72.415
X126.36Y-68.16
T0
M30
